<?xml version="1.0" encoding="UTF-8"?>
<svg id="Layer_1" data-name="Layer 1" xmlns="http://www.w3.org/2000/svg" version="1.1" viewBox="0 0 484 121">
  <defs>
    <style>
      .cls-1 {
        fill: #e50046;
      }

      .cls-1, .cls-2, .cls-3 {
        stroke-width: 0px;
      }

      .cls-2 {
        fill: #f2f2f2;
      }

      .cls-3 {
        fill: #fff;
      }
    </style>
  </defs>
  <rect class="cls-1" y="41" width="484" height="80"/>
  <rect class="cls-1" y="0" width="375" height="81"/>
  <g>
    <path class="cls-2" d="M44,46.9c-.7.5-1.6.9-2.7,1.1s-2.2.3-3.5.3-2.9-.3-4.2-.8-2.4-1.3-3.4-2.3-1.7-2.4-2.3-4c-.6-1.6-.9-3.5-.9-5.8s.3-4.3.9-5.9,1.5-2.9,2.5-4c1-1,2.2-1.8,3.5-2.3,1.3-.5,2.6-.7,3.9-.7s2.6.1,3.5.2c.9.2,1.7.4,2.3.6l-.7,2.6c-1.1-.6-2.8-.9-4.9-.9s-1.9.2-2.9.5c-.9.4-1.8.9-2.5,1.7-.7.8-1.3,1.9-1.8,3.2-.4,1.3-.7,2.9-.7,4.8s.2,3.2.6,4.5,1,2.3,1.8,3.2c.7.9,1.6,1.5,2.6,1.9s2.1.6,3.3.6,2,0,2.8-.3,1.5-.5,2-.8l.8,2.6Z"/>
    <path class="cls-2" d="M57.5,32.6h-5.5v15.3h-2.8v-15.3h-5.6v-2.5h14v2.5h-.1Z"/>
    <path class="cls-2" d="M59.6,39c0-3,.7-5.3,2-6.9,1.3-1.6,3.3-2.4,5.8-2.4s2.5.2,3.5.7c1,.4,1.8,1.1,2.4,1.9s1.1,1.8,1.4,2.9c.3,1.1.5,2.4.5,3.8,0,3-.7,5.3-2,6.9-1.3,1.6-3.3,2.4-5.8,2.4s-2.5-.2-3.5-.7-1.8-1.1-2.4-1.9-1.1-1.7-1.5-2.9c-.3-1.1-.4-2.4-.4-3.8ZM62.5,39c0,.9,0,1.8.3,2.6s.5,1.5.8,2.2.9,1.1,1.5,1.5,1.4.6,2.2.6c3.2,0,4.8-2.2,4.8-6.8s0-1.8-.3-2.6c-.2-.8-.5-1.5-.8-2.2-.4-.6-.9-1.1-1.5-1.5s-1.4-.5-2.2-.5c-3.2,0-4.8,2.2-4.8,6.7Z"/>
    <path class="cls-2" d="M90.4,37.4v-2.2c0,0,0,0,0,0l-1.4,2.3-8,10.4h-1.6v-17.7h2.8v12.9c0,0,0,0,0,0l1.4-2.2,8-10.7h1.7v17.7h-2.8v-10.5h0Z"/>
    <path class="cls-2" d="M113,37.4l.2-3.4h-.2l-1.3,2.7-4.3,7h-1l-4.5-7-1.2-2.7h0l.3,3.3v10.6h-2.6v-17.7h2.8l5,7.9,1,2.1h0l1.1-2.1,4.6-7.9h2.8v17.7h-2.7v-10.5h0Z"/>
    <path class="cls-2" d="M120.1,39c0-3,.7-5.3,2-6.9,1.3-1.6,3.3-2.4,5.8-2.4s2.5.2,3.5.7c1,.4,1.8,1.1,2.4,1.9.6.8,1.1,1.8,1.4,2.9.3,1.1.5,2.4.5,3.8,0,3-.7,5.3-2,6.9-1.3,1.6-3.3,2.4-5.8,2.4s-2.5-.2-3.5-.7-1.8-1.1-2.4-1.9-1.1-1.8-1.4-2.9c-.4-1.1-.5-2.4-.5-3.8ZM123,39c0,.9,0,1.8.3,2.6.2.8.5,1.5.8,2.2s.9,1.1,1.5,1.5,1.4.6,2.2.6c3.2,0,4.8-2.2,4.8-6.8s-.1-1.8-.3-2.6-.5-1.5-.8-2.2c-.4-.6-.9-1.1-1.5-1.5s-1.4-.5-2.2-.5c-3.2,0-4.8,2.2-4.8,6.7Z"/>
    <path class="cls-2" d="M152.2,46.7c-.7.5-1.6.9-2.5,1.2-1,.3-2,.4-3.1.4s-2.5-.2-3.5-.7c-.9-.4-1.7-1.1-2.3-1.9-.6-.8-1-1.8-1.3-2.9-.3-1.1-.4-2.4-.4-3.8,0-3,.7-5.3,2-6.9,1.3-1.6,3.2-2.4,5.7-2.4s2.1.1,2.9.3c.8.2,1.5.4,2.1.8l-.8,2.4c-.5-.3-1.1-.5-1.8-.7s-1.4-.3-2.1-.3c-3.4,0-5,2.3-5,6.8s.1,1.8.3,2.6.5,1.5.9,2.2c.4.6,1,1.1,1.6,1.5.7.4,1.5.6,2.5.6s1.6,0,2.3-.4c.7-.3,1.2-.6,1.6-.9l.9,2.1Z"/>
    <path class="cls-2" d="M168.3,32.6h-5.6v15.3h-2.8v-15.3h-5.6v-2.5h14v2.5h0Z"/>
    <path class="cls-2" d="M174.3,36.9c.6,0,1.1-.2,1.6-.2s1,0,1.5,0c1.2,0,2.3,0,3.1.4.9.3,1.5.6,2.1,1.1.5.5.9,1,1.2,1.7.2.7.4,1.3.4,2.1,0,2.2-.6,3.7-1.9,4.7-1.3,1-3.3,1.5-6,1.5s-3.1,0-4.7-.2v-17.7h2.8v6.7h-.1ZM174.3,45.4c.9,0,1.7.2,2.5.2,1.5,0,2.6-.3,3.3-.9.7-.6,1.1-1.4,1.1-2.5s-.3-1.7-1-2.3-1.8-.9-3.2-.9h-1.3c-.5,0-.9,0-1.3.2v6.2h-.1Z"/>
    <path class="cls-2" d="M196.4,39c0-3,.7-5.3,2-6.9,1.3-1.6,3.3-2.4,5.8-2.4s2.5.2,3.5.7c1,.4,1.8,1.1,2.4,1.9.6.8,1.1,1.8,1.4,2.9.3,1.1.5,2.4.5,3.8,0,3-.7,5.3-2,6.9-1.3,1.6-3.3,2.4-5.8,2.4s-2.5-.2-3.5-.7-1.8-1.1-2.4-1.9c-.6-.8-1.1-1.8-1.4-2.9-.4-1.1-.5-2.4-.5-3.8ZM199.3,39c0,.9.1,1.8.3,2.6s.5,1.5.8,2.2.9,1.1,1.5,1.5,1.4.6,2.2.6c3.2,0,4.8-2.2,4.8-6.8s-.1-1.8-.3-2.6-.5-1.5-.8-2.2c-.4-.6-.9-1.1-1.5-1.5s-1.4-.5-2.2-.5c-3.2,0-4.8,2.2-4.8,6.7Z"/>
    <path class="cls-2" d="M218,33.3c.8-1.1,1.6-1.9,2.6-2.4.9-.5,2.1-.7,3.5-.7,2.2,0,3.8.7,5,2.1,1.2,1.4,1.8,3.5,1.8,6.3s-.7,5.6-2,7.2c-1.4,1.6-3.3,2.4-5.7,2.4s-4.6-.9-5.9-2.7c-1.3-1.8-2-4.6-2-8.5s.1-3.8.3-5.2c.2-1.4.5-2.7.9-3.7s.9-1.8,1.4-2.4c.6-.6,1.2-1.1,1.9-1.4s1.5-.6,2.3-.7,1.7-.3,2.7-.4c1.2-.1,2.2-.3,2.9-.4.7-.2,1.3-.4,1.7-.8l.3,2.6c-.2.2-.5.4-.8.5s-.6.3-1,.4-.9.2-1.4.2c-.6.1-1.2.1-1.9.2-1,.1-1.9.2-2.7.4-.8.2-1.4.5-2,1s-1,1.2-1.3,2.2c-.3.9-.5,2.2-.7,3.7h0ZM218.3,39.1c0,.9.1,1.8.3,2.6s.5,1.6.9,2.2c.4.6.9,1.1,1.5,1.5s1.3.5,2.2.5c1.6,0,2.8-.6,3.6-1.8s1.2-2.9,1.2-5.2-.1-1.7-.2-2.5c-.2-.8-.4-1.4-.8-2-.4-.6-.8-1-1.3-1.3s-1.2-.4-2-.4c-1.8,0-3.2.5-4,1.6-1,1.1-1.4,2.7-1.4,4.8Z"/>
    <path class="cls-2" d="M240.2,41.6l1,3.4h.2l.8-3.4,3.5-11.5h2.8l-5.2,15.9c-.4,1.2-.8,2.3-1.2,3.4-.4,1.1-.8,2.1-1.3,2.9-.5.9-1,1.5-1.6,2s-1.3.8-2.1.8-1.5,0-2.1-.4l.5-2.4c.3,0,.6.2.9.2.7,0,1.3-.3,1.9-1,.6-.7,1.1-1.9,1.5-3.6l-7.1-17.7h3.3l4.2,11.4Z"/>
    <path class="cls-2" d="M254,30.2v4.8c0,.6,0,1.2.1,1.7s.2.9.4,1.3.5.7.9.9.9.3,1.6.3c1.1,0,1.9,0,2.6-.4s1.2-.5,1.6-.8v-7.9h2.8v17.7h-2.8v-7.4c-.4.2-.9.5-1.7.8-.7.3-1.8.4-3.1.4s-1.6,0-2.3-.3-1.2-.5-1.7-1-.8-1.1-1-1.9c-.2-.8-.3-1.8-.3-2.9v-5.4h2.9Z"/>
    <path class="cls-2" d="M282.3,46.5c-.7.6-1.6,1-2.7,1.3s-2.2.5-3.4.5-2.5-.2-3.5-.7c-1-.4-1.8-1.1-2.4-1.9-.6-.8-1.1-1.8-1.4-2.9-.3-1.1-.5-2.4-.5-3.8,0-3,.7-5.3,2-6.9s3.3-2.4,5.8-2.4,1.6.1,2.4.3c.8.2,1.5.5,2.2,1,.6.5,1.2,1.2,1.6,2.1s.6,2.1.6,3.6-.1,1.6-.2,2.6h-11.4c0,1,.1,2,.3,2.8.2.8.5,1.5,1,2,.4.6,1,1,1.8,1.3.7.3,1.6.4,2.6.4s1.6,0,2.4-.4c.8-.3,1.4-.6,1.8-1l1,2.1ZM276.2,32.2c-1.4,0-2.5.4-3.4,1.1-.8.7-1.3,2-1.5,3.8h8.8c0-1.8-.3-3.1-1-3.8-.6-.7-1.6-1.1-2.9-1.1Z"/>
    <path class="cls-2" d="M298,40.1h-8v7.8h-2.8v-17.7h2.8v7.4h8v-7.4h2.8v17.7h-2.8v-7.8Z"/>
    <path class="cls-2" d="M317,37.4v-2.2c.1,0,0,0,0,0l-1.5,2.3-8,10.4h-1.5v-17.7h2.8v12.9c-.1,0,0,0,0,0l1.4-2.2,8-10.7h1.7v17.7h-2.9v-10.5h0Z"/>
    <path class="cls-2" d="M334.1,40.5l-2.7.4-4.7,6.9h-3.4l4.3-6.1,1.4-1.3c-1.2-.2-2.3-.7-3.1-1.5-.9-.8-1.3-1.9-1.3-3.3s.2-2,.6-2.7c.4-.8.9-1.4,1.6-1.9s1.5-.9,2.4-1.1,2-.3,3.2-.3,1.7.1,2.4.2c.8.1,1.5.2,2.2.4v17.6h-2.8v-7.3h-.1ZM334.1,32.6c-.3,0-.6-.2-1-.3s-.7,0-1,0c-1.5,0-2.7.3-3.5.8s-1.2,1.4-1.2,2.6.4,1.9,1.3,2.5c.8.6,1.9.9,3.3.9h1c.3,0,.6,0,1.1,0v-6.3h0Z"/>
    <path class="cls-2" d="M136,96.4v-24.8h10.9c11.9,0,11.9,18.5,0,18.5h-4.6v6.4c-2.1-.1-4.2-.1-6.3-.1ZM146.9,77.2h-4.5v7.1h4.5c3.5,0,3.7-7.1,0-7.1Z"/>
    <path class="cls-2" d="M161.2,95.7l3.9-8-8.4-15.2v-1h7.1l4.7,9.2h.2l4.3-9.2h6.9v1l-11.9,23.9h-6.8v-.7h0Z"/>
    <path class="cls-2" d="M193.8,80.2c11.9,0,11.9,16.1,0,16.1h-10.9v-24.8h17.8v5.7h-11.5v3s4.6,0,4.6,0ZM189.2,85.8v4.9h4.5c3.5,0,3.5-4.9,0-4.9h-4.5Z"/>
    <path class="cls-2" d="M210,96.4h-6.2v-.9l11.2-24.3h2.7l11.2,24.2v.9h-6.2l-6.4-14.5-6.3,14.6Z"/>
    <path class="cls-2" d="M247.4,77.2h-9.2v3.5h8.4v5.6h-8.4v4.4h9.5v5.6h-15.8v-24.8h15.5v5.7Z"/>
    <path class="cls-2" d="M255.3,96.4h-2.3v-24.9h6.5v12.2l12.6-12.3h2.3v24.9h-6.6v-12.1l-12.5,12.2ZM262.1,63.8c-1.2,0-2.4.2-3.7.4.1,4,2.3,6.1,6.2,6.1s6.1-2.1,6.2-6.1c-1.2,0-2.4-.3-3.7-.4-.2,1.5-1.2,2-2.6,2-1.4,0-2.2-.7-2.4-2Z"/>
    <path class="cls-2" d="M306.7,83.5c2,1,3,2.9,3,5.1,0,4.3-2.7,7.8-7.7,7.8h-11.6v-24.9h10.6c4.3,0,7.7,3.3,7.7,7.6-.1,1.6-.8,3.4-2,4.4ZM296.4,77.2v4h4c2.5,0,2.5-4,0-4h-4ZM296.4,86.5v4.2h5.1c2.6,0,2.5-4.2,0-4.2h-5.1Z"/>
    <path class="cls-2" d="M346.3,71.5h2.3v24.9h-6.5v-11.1l-5.3,5.5h-.7l-5.3-5.5v11.1h-6.5v-24.9h2.3l9.7,10.8,10-10.8Z"/>
    <path class="cls-2" d="M370,77.2h-9.2v3.5h8.4v5.6h-8.4v4.4h9.5v5.6h-15.8v-24.8h15.5v5.7Z"/>
    <path class="cls-2" d="M386.4,71.3c5.1,0,10.7,2.8,11.7,9.4h-6.2c-.9-2.5-2.8-3.7-5.4-3.7-3.7,0-6.2,2.8-6.2,6.9s2.4,6.8,6.2,6.9c2.7,0,4.9-1.3,5.5-4h6.2c-.9,7-6.5,9.8-11.8,9.8s-12.7-4.2-12.7-12.7,6.4-12.6,12.7-12.6Z"/>
    <path class="cls-2" d="M405,87.6c-6.3-4.3-4.5-16,5.3-16h10.9v24.8h-6.4v-7.3h-3.3l-4.3,7.3h-7.1v-.9l4.9-7.9ZM414.8,83.3v-6.1h-4.5c-3.6,0-3.4,6.1,0,6.1h4.5Z"/>
    <path class="cls-2" d="M427.1,71.5h6.5v19h7.2v-19h6.5v19.3h2.5v8.3h-5.2v-2.8h-17.5v-24.8h0Z"/>
  </g>
  <g>
    <path class="cls-3" d="M42.2,96.9h-5.9v-4.7h-11v-2.8l10.1-17.5h6.8v15.1h2.2v5.2h-2.2v4.7ZM37,79l-4.6,8.2h4.4v-4l.3-4.2h0Z"/>
    <path class="cls-3" d="M72.8,79.7v8.8c0,5.5-4.2,8.6-9.3,8.6s-9.4-3.1-9.4-8.6v-8.8c0-5.4,4.2-8.6,9.4-8.6s9.3,3.2,9.3,8.6ZM66.7,88.4v-8.5c0-2-1.4-3.1-3.2-3.1s-3.3,1-3.3,3.1v8.5c0,2,1.4,3,3.3,3s3.2-1,3.2-3Z"/>
    <path class="cls-3" d="M95.9,79.7v8.8c0,5.5-4.2,8.6-9.3,8.6s-9.4-3.1-9.4-8.6v-8.8c0-5.4,4.2-8.6,9.4-8.6s9.3,3.2,9.3,8.6ZM89.8,88.4v-8.5c0-2-1.4-3.1-3.2-3.1s-3.3,1-3.3,3.1v8.5c0,2,1.4,3,3.3,3s3.2-1,3.2-3Z"/>
    <path class="cls-3" d="M119,79.7v8.8c0,5.5-4.2,8.6-9.3,8.6s-9.4-3.1-9.4-8.6v-8.8c0-5.4,4.2-8.6,9.4-8.6s9.3,3.2,9.3,8.6ZM112.9,88.4v-8.5c0-2-1.4-3.1-3.2-3.1s-3.3,1-3.3,3.1v8.5c0,2,1.4,3,3.3,3s3.2-1,3.2-3Z"/>
  </g>
</svg>