<?xml version="1.0" encoding="utf-8"?>
<!-- Generator: Adobe Illustrator 14.0.0, SVG Export Plug-In . SVG Version: 6.00 Build 43363)  -->
<!DOCTYPE svg PUBLIC "-//W3C//DTD SVG 1.1//EN" "http://www.w3.org/Graphics/SVG/1.1/DTD/svg11.dtd">
<svg version="1.1" id="Layer_1" xmlns="http://www.w3.org/2000/svg" xmlns:xlink="http://www.w3.org/1999/xlink" x="0px" y="0px"
	 width="484px" height="121px" viewBox="0 0 484 121" enable-background="new 0 0 484 121" xml:space="preserve">
<rect y="41" fill="#E50046" width="484" height="80"/>
<rect fill="#E50046" width="375" height="81"/>
<g>
	<path fill="#F2F2F2" d="M44.004,46.864c-0.711,0.544-1.609,0.922-2.697,1.135s-2.246,0.319-3.475,0.319
		c-1.49,0-2.887-0.255-4.186-0.763c-1.301-0.508-2.438-1.282-3.406-2.323c-0.969-1.04-1.738-2.37-2.305-3.99
		c-0.568-1.62-0.852-3.541-0.852-5.765c0-2.317,0.313-4.285,0.939-5.905c0.626-1.62,1.455-2.944,2.482-3.973
		c1.029-1.029,2.182-1.779,3.459-2.253c1.277-0.473,2.578-0.709,3.902-0.709c1.418,0,2.576,0.077,3.475,0.23
		c0.898,0.154,1.668,0.36,2.307,0.62l-0.709,2.625c-1.135-0.567-2.756-0.851-4.859-0.851c-0.971,0-1.928,0.177-2.873,0.531
		c-0.947,0.355-1.791,0.935-2.537,1.738c-0.744,0.805-1.342,1.856-1.791,3.157c-0.449,1.301-0.674,2.896-0.674,4.788
		c0,1.703,0.213,3.192,0.639,4.47c0.426,1.276,1.01,2.341,1.756,3.192c0.744,0.852,1.619,1.489,2.625,1.915
		c1.004,0.426,2.098,0.639,3.281,0.639c1.063,0,1.99-0.106,2.783-0.319s1.461-0.484,2.004-0.815L44.004,46.864z"/>
	<path fill="#F2F2F2" d="M57.543,32.641h-5.57v15.252h-2.838V32.641h-5.568v-2.483h13.977L57.543,32.641L57.543,32.641z"/>
	<path fill="#F2F2F2" d="M59.582,39.024c0-3.002,0.668-5.303,2.004-6.898c1.336-1.597,3.256-2.395,5.764-2.395
		c1.324,0,2.477,0.219,3.459,0.656c0.98,0.438,1.791,1.064,2.43,1.88c0.639,0.816,1.111,1.798,1.418,2.944
		c0.307,1.147,0.461,2.418,0.461,3.813c0,3.004-0.668,5.304-2.004,6.899c-1.336,1.597-3.258,2.395-5.764,2.395
		c-1.324,0-2.479-0.219-3.459-0.656s-1.791-1.064-2.43-1.88c-0.639-0.816-1.111-1.797-1.418-2.944
		C59.734,41.691,59.582,40.421,59.582,39.024z M62.525,39.024c0,0.899,0.088,1.763,0.266,2.59c0.178,0.828,0.455,1.549,0.834,2.164
		c0.379,0.615,0.875,1.111,1.49,1.489c0.613,0.379,1.359,0.567,2.234,0.567c3.215,0.024,4.824-2.246,4.824-6.811
		c0-0.922-0.09-1.796-0.266-2.624c-0.178-0.828-0.457-1.549-0.834-2.164c-0.379-0.614-0.875-1.105-1.49-1.472
		c-0.615-0.367-1.359-0.55-2.234-0.55C64.133,32.191,62.525,34.461,62.525,39.024z"/>
	<path fill="#F2F2F2" d="M90.43,37.394l0.107-2.199H90.43l-1.453,2.27l-7.98,10.429h-1.633V30.157h2.838v10.818l-0.105,2.093h0.141
		l1.383-2.199l7.982-10.712h1.666v17.735H90.43V37.394z"/>
	<path fill="#F2F2F2" d="M113.039,37.357l0.213-3.369h-0.178l-1.277,2.731l-4.291,6.952h-0.994l-4.469-6.952l-1.172-2.731h-0.141
		l0.283,3.334v10.57h-2.625V30.157h2.803l4.965,7.945l1.029,2.058h0.07l1.064-2.129l4.646-7.874h2.838v17.735h-2.766V37.357H113.039
		z"/>
	<path fill="#F2F2F2" d="M120.086,39.024c0-3.002,0.668-5.303,2.004-6.898c1.336-1.597,3.256-2.395,5.764-2.395
		c1.324,0,2.477,0.219,3.459,0.656c0.98,0.438,1.791,1.064,2.43,1.88c0.639,0.816,1.111,1.798,1.418,2.944
		c0.307,1.147,0.461,2.418,0.461,3.813c0,3.004-0.668,5.304-2.004,6.899c-1.336,1.597-3.258,2.395-5.764,2.395
		c-1.324,0-2.479-0.219-3.459-0.656s-1.791-1.064-2.43-1.88c-0.639-0.816-1.111-1.797-1.418-2.944
		C120.238,41.691,120.086,40.421,120.086,39.024z M123.029,39.024c0,0.899,0.088,1.763,0.266,2.59
		c0.178,0.828,0.455,1.549,0.834,2.164c0.379,0.615,0.875,1.111,1.49,1.489c0.613,0.379,1.359,0.567,2.234,0.567
		c3.215,0.024,4.824-2.246,4.824-6.811c0-0.922-0.09-1.796-0.266-2.624c-0.178-0.828-0.457-1.549-0.834-2.164
		c-0.379-0.614-0.875-1.105-1.49-1.472c-0.615-0.367-1.359-0.55-2.234-0.55C124.637,32.191,123.029,34.461,123.029,39.024z"/>
	<path fill="#F2F2F2" d="M152.158,46.722c-0.711,0.521-1.551,0.917-2.52,1.188c-0.969,0.271-1.986,0.408-3.051,0.408
		c-1.371,0-2.529-0.219-3.477-0.656c-0.945-0.438-1.719-1.064-2.322-1.88c-0.604-0.816-1.041-1.797-1.313-2.944
		c-0.271-1.146-0.408-2.417-0.408-3.813c0-3.002,0.662-5.303,1.986-6.898c1.324-1.597,3.229-2.395,5.711-2.395
		c1.135,0,2.098,0.089,2.891,0.267c0.793,0.177,1.508,0.432,2.146,0.762l-0.816,2.448c-0.543-0.308-1.146-0.55-1.809-0.728
		c-0.663-0.178-1.371-0.266-2.129-0.266c-3.357,0-5.035,2.27-5.035,6.81c0,0.899,0.088,1.756,0.266,2.572
		c0.178,0.815,0.473,1.537,0.887,2.163c0.412,0.627,0.957,1.13,1.631,1.508c0.674,0.379,1.508,0.567,2.5,0.567
		c0.852,0,1.615-0.129,2.289-0.39c0.674-0.26,1.223-0.556,1.648-0.887L152.158,46.722z"/>
	<path fill="#F2F2F2" d="M168.322,32.641h-5.57v15.252h-2.838V32.641h-5.568v-2.483h13.977v2.483H168.322z"/>
	<path fill="#F2F2F2" d="M174.281,36.932c0.566-0.094,1.109-0.159,1.631-0.194c0.52-0.036,1.016-0.054,1.49-0.054
		c1.229,0,2.27,0.137,3.121,0.408c0.852,0.272,1.543,0.645,2.074,1.117c0.533,0.474,0.916,1.035,1.154,1.685
		c0.234,0.651,0.354,1.343,0.354,2.075c0,2.152-0.645,3.713-1.934,4.683c-1.289,0.97-3.293,1.454-6.012,1.454
		c-1.514,0-3.086-0.071-4.717-0.213V30.157h2.838L174.281,36.932L174.281,36.932z M174.281,45.409
		c0.873,0.143,1.713,0.213,2.518,0.213c1.49,0,2.59-0.289,3.299-0.869c0.709-0.579,1.064-1.4,1.064-2.465
		c0-0.945-0.344-1.726-1.029-2.341c-0.685-0.615-1.762-0.923-3.229-0.923c-0.402,0-0.838,0.013-1.313,0.036
		c-0.473,0.023-0.91,0.095-1.311,0.213v6.136H174.281z"/>
	<path fill="#F2F2F2" d="M196.379,39.024c0-3.002,0.668-5.303,2.004-6.898c1.336-1.597,3.256-2.395,5.764-2.395
		c1.324,0,2.477,0.219,3.459,0.656c0.98,0.438,1.791,1.064,2.43,1.88c0.639,0.816,1.111,1.798,1.418,2.944
		c0.307,1.147,0.461,2.418,0.461,3.813c0,3.004-0.668,5.304-2.004,6.899c-1.336,1.597-3.258,2.395-5.764,2.395
		c-1.324,0-2.479-0.219-3.459-0.656s-1.791-1.064-2.43-1.88c-0.639-0.816-1.111-1.797-1.418-2.944
		C196.531,41.691,196.379,40.421,196.379,39.024z M199.322,39.024c0,0.899,0.088,1.763,0.266,2.59
		c0.178,0.828,0.455,1.549,0.834,2.164c0.379,0.615,0.875,1.111,1.49,1.489c0.613,0.379,1.359,0.567,2.234,0.567
		c3.215,0.024,4.824-2.246,4.824-6.811c0-0.922-0.09-1.796-0.266-2.624c-0.178-0.828-0.457-1.549-0.834-2.164
		c-0.379-0.614-0.875-1.105-1.49-1.472c-0.615-0.367-1.359-0.55-2.234-0.55C200.93,32.191,199.322,34.461,199.322,39.024z"/>
	<path fill="#F2F2F2" d="M217.986,33.314c0.781-1.136,1.643-1.934,2.59-2.395c0.945-0.461,2.127-0.691,3.547-0.691
		c2.176,0,3.848,0.709,5.02,2.128c1.17,1.419,1.756,3.512,1.756,6.278c0,3.192-0.682,5.604-2.041,7.236
		c-1.359,1.631-3.258,2.447-5.691,2.447c-2.602,0-4.553-0.898-5.854-2.696c-1.301-1.797-1.951-4.622-1.951-8.478
		c0-2.033,0.102-3.771,0.303-5.214c0.199-1.442,0.496-2.66,0.887-3.653c0.389-0.993,0.861-1.785,1.418-2.377
		c0.555-0.591,1.182-1.058,1.881-1.4c0.695-0.343,1.459-0.586,2.287-0.728c0.828-0.142,1.715-0.26,2.66-0.354
		c1.229-0.118,2.193-0.254,2.891-0.408c0.697-0.153,1.26-0.431,1.686-0.833l0.318,2.554c-0.236,0.213-0.496,0.39-0.779,0.532
		c-0.285,0.142-0.627,0.26-1.029,0.354c-0.402,0.094-0.881,0.177-1.438,0.248c-0.555,0.071-1.199,0.13-1.932,0.178
		c-1.018,0.07-1.91,0.194-2.678,0.372c-0.77,0.178-1.432,0.521-1.986,1.028c-0.557,0.509-0.994,1.23-1.313,2.164
		c-0.32,0.935-0.539,2.17-0.656,3.707L217.986,33.314L217.986,33.314z M218.307,39.061c0,0.898,0.094,1.762,0.283,2.589
		c0.189,0.828,0.479,1.556,0.869,2.182c0.391,0.627,0.893,1.117,1.508,1.472c0.613,0.355,1.334,0.532,2.162,0.532
		c1.633,0,2.844-0.585,3.637-1.756c0.791-1.17,1.188-2.902,1.188-5.196c0-0.898-0.082-1.726-0.248-2.482
		c-0.166-0.756-0.426-1.413-0.779-1.969c-0.355-0.556-0.805-0.981-1.348-1.277c-0.545-0.295-1.195-0.443-1.951-0.443
		c-1.846-0.023-3.193,0.515-4.045,1.614C218.731,35.426,218.307,37.003,218.307,39.061z"/>
	<path fill="#F2F2F2" d="M240.182,41.649l0.996,3.405h0.178l0.783-3.44l3.453-11.457h2.838l-5.248,15.927
		c-0.404,1.158-0.799,2.281-1.188,3.369c-0.39,1.088-0.822,2.058-1.295,2.909c-0.473,0.851-1.006,1.53-1.596,2.039
		c-0.592,0.509-1.277,0.763-2.057,0.763c-0.852,0-1.549-0.118-2.094-0.354l0.496-2.447c0.309,0.117,0.604,0.177,0.887,0.177
		c0.662,0,1.301-0.349,1.916-1.046c0.615-0.698,1.123-1.898,1.525-3.601l-7.129-17.735h3.262L240.182,41.649z"/>
	<path fill="#F2F2F2" d="M254.035,30.157v4.824c0,0.639,0.035,1.212,0.105,1.72c0.069,0.509,0.213,0.946,0.426,1.313
		c0.213,0.367,0.52,0.651,0.922,0.852c0.402,0.201,0.934,0.302,1.596,0.302c1.064,0,1.939-0.118,2.625-0.354
		s1.207-0.497,1.561-0.781v-7.874h2.838v17.735h-2.838v-7.449c-0.377,0.237-0.938,0.497-1.684,0.78
		c-0.746,0.284-1.768,0.426-3.068,0.426c-0.875,0-1.645-0.094-2.307-0.283s-1.217-0.521-1.666-0.993s-0.787-1.1-1.012-1.88
		c-0.225-0.78-0.336-1.762-0.336-2.944v-5.392h2.838V30.157z"/>
	<path fill="#F2F2F2" d="M282.346,46.474c-0.709,0.567-1.602,1.018-2.678,1.348c-1.076,0.331-2.217,0.497-3.422,0.497
		c-1.348,0-2.52-0.219-3.512-0.656c-0.994-0.438-1.81-1.064-2.447-1.88c-0.639-0.816-1.113-1.791-1.42-2.927
		c-0.307-1.135-0.461-2.412-0.461-3.831c0-3.026,0.674-5.332,2.021-6.916s3.275-2.377,5.783-2.377c0.804,0,1.606,0.089,2.412,0.267
		c0.803,0.177,1.522,0.514,2.162,1.011c0.639,0.496,1.157,1.2,1.561,2.11s0.604,2.11,0.604,3.601c0,0.78-0.07,1.644-0.213,2.589
		h-11.385c0,1.041,0.104,1.963,0.317,2.767c0.213,0.805,0.543,1.484,0.992,2.04c0.448,0.556,1.034,0.981,1.756,1.276
		c0.724,0.296,1.604,0.443,2.644,0.443c0.805,0,1.608-0.142,2.412-0.426c0.805-0.283,1.407-0.614,1.811-0.993L282.346,46.474z
		 M276.246,32.215c-1.396,0-2.514,0.366-3.352,1.1c-0.84,0.732-1.345,1.986-1.508,3.76h8.797c0-1.797-0.345-3.057-1.029-3.778
		C278.469,32.575,277.498,32.215,276.246,32.215z"/>
	<path fill="#F2F2F2" d="M297.992,40.054h-8.016v7.839h-2.838V30.157h2.838v7.413h8.016v-7.413h2.838v17.735h-2.838V40.054z"/>
	<path fill="#F2F2F2" d="M317.037,37.394l0.104-2.199h-0.104l-1.455,2.27l-7.98,10.429h-1.631V30.157h2.838v10.818l-0.106,2.093
		h0.143l1.383-2.199l7.98-10.712h1.668v17.735h-2.838L317.037,37.394L317.037,37.394z"/>
	<path fill="#F2F2F2" d="M334.141,40.55l-2.731,0.426l-4.683,6.917h-3.44l4.258-6.065l1.418-1.313
		c-1.229-0.189-2.275-0.686-3.139-1.49c-0.863-0.803-1.295-1.891-1.295-3.263c0-1.064,0.184-1.975,0.551-2.731
		c0.365-0.757,0.891-1.383,1.578-1.88c0.686-0.497,1.5-0.856,2.446-1.082c0.945-0.225,2.011-0.337,3.191-0.337
		c0.875,0,1.691,0.06,2.447,0.178c0.758,0.118,1.502,0.248,2.235,0.39v17.594h-2.838L334.141,40.55L334.141,40.55z M334.141,32.569
		c-0.309-0.118-0.649-0.207-1.028-0.267c-0.379-0.059-0.709-0.088-0.992-0.088c-1.514,0-2.668,0.271-3.459,0.815
		c-0.793,0.544-1.189,1.407-1.189,2.59c0,1.063,0.42,1.886,1.261,2.465c0.84,0.58,1.944,0.869,3.315,0.869c0.023,0,0.06,0,0.107,0
		c0.047,0,0.141,0,0.282,0c0.143,0,0.343-0.006,0.604-0.018c0.26-0.012,0.625-0.029,1.1-0.054L334.141,32.569L334.141,32.569z"/>
	<path fill="#F2F2F2" d="M135.98,96.369c0-8.266,0-16.532,0-24.834c3.584,0,7.273,0,10.928,0c11.885,0.035,11.885,18.482,0,18.482
		h-4.576v6.352C140.203,96.369,138.074,96.369,135.98,96.369z M146.873,77.212c-1.49-0.036-3.088,0-4.541,0c0,2.022,0,5.073,0,7.095
		h4.541C150.35,84.307,150.563,77.247,146.873,77.212z"/>
	<path fill="#F2F2F2" d="M161.176,95.695l3.902-8.019l-8.373-15.185v-0.958h7.096l4.684,9.153h0.178l4.256-9.153h6.883v0.958
		l-11.777,23.876h-6.848L161.176,95.695L161.176,95.695z"/>
	<path fill="#F2F2F2" d="M193.789,80.229c11.885,0,11.885,16.105,0,16.142h-10.928V71.535h17.846v5.677h-11.494v3.017H193.789z
		 M189.213,85.833v4.86c1.453,0,3.051,0,4.541,0c3.512,0,3.477-4.86,0-4.86H189.213z"/>
	<path fill="#F2F2F2" d="M210.004,96.369h-6.209v-0.924l11.176-24.229h2.732l11.211,24.229v0.924h-6.209l-6.387-14.546
		L210.004,96.369z"/>
	<path fill="#F2F2F2" d="M247.41,77.212c-3.689,0-5.535,0-9.188,0v3.513h8.443c0,1.881,0,3.76,0,5.641h-8.443
		c0,1.455,0,2.874,0,4.363c3.652,0,5.781,0,9.508,0c0,1.846,0,3.762,0,5.642c-5.818,0-10.077,0-15.825,0c0-8.302,0-16.604,0-24.834
		c5.748,0,9.686,0,15.504,0C247.41,73.38,247.41,75.296,247.41,77.212z"/>
	<path fill="#F2F2F2" d="M255.336,96.404h-2.271V71.535c2.164,0,4.328,0,6.492,0v12.169l12.56-12.274h2.307v24.939
		c-2.164,0-4.362,0-6.563,0V84.165L255.336,96.404z M262.146,63.766c-1.24,0.071-2.447,0.213-3.654,0.355
		c0.107,3.973,2.342,6.066,6.174,6.066c3.938,0,6.066-2.095,6.209-6.066c-1.207-0.143-2.412-0.284-3.654-0.355
		c-0.213,1.49-1.172,1.951-2.625,1.951C263.105,65.717,262.254,65.079,262.146,63.766z"/>
	<path fill="#F2F2F2" d="M306.664,83.456c2.021,1.028,2.979,2.873,2.979,5.071c-0.034,4.33-2.659,7.842-7.731,7.842h-11.638V71.535
		h10.607c4.293,0,7.734,3.335,7.734,7.628C308.615,80.652,307.869,82.462,306.664,83.456z M296.41,77.212v4.009h4.01
		c2.518,0,2.518-4.009-0.035-4.009H296.41z M296.41,86.507v4.222h5.074c2.555,0,2.518-4.222-0.035-4.222H296.41z"/>
	<path fill="#F2F2F2" d="M346.285,71.465h2.27v24.904c-2.164,0-4.328,0-6.492,0V85.301l-5.284,5.534h-0.711l-5.25-5.534v11.068
		c-2.164,0-4.328,0-6.492,0V71.465h2.342l9.721,10.784L346.285,71.465z"/>
	<path fill="#F2F2F2" d="M369.959,77.212c-3.689,0-5.535,0-9.188,0v3.513h8.442c0,1.881,0,3.76,0,5.641h-8.442
		c0,1.455,0,2.874,0,4.363c3.651,0,5.78,0,9.508,0c0,1.846,0,3.762,0,5.642c-5.818,0-10.076,0-15.824,0c0-8.302,0-16.604,0-24.834
		c5.748,0,9.686,0,15.504,0C369.959,73.38,369.959,75.296,369.959,77.212z"/>
	<path fill="#F2F2F2" d="M386.416,71.252c5.145,0,10.715,2.803,11.672,9.438c-2.164,0-4.08,0-6.244,0
		c-0.887-2.52-2.766-3.654-5.428-3.654c-3.725,0-6.172,2.803-6.172,6.918c0,3.654,2.412,6.847,6.172,6.883
		c2.697,0,4.861-1.35,5.535-4.009c2.129,0,4.08,0,6.244,0c-0.922,7.024-6.492,9.791-11.779,9.791
		c-6.314,0.036-12.699-4.222-12.736-12.665C373.717,75.509,380.102,71.252,386.416,71.252z"/>
	<path fill="#F2F2F2" d="M405.037,87.57c-6.279-4.258-4.506-16,5.25-16.035c3.619,0,7.309,0,10.893,0c0,8.302,0,16.568,0,24.834
		c-2.059,0-4.223,0-6.352,0v-7.309h-3.299l-4.258,7.309h-7.095v-0.924L405.037,87.57z M414.828,83.35c0-1.986,0-4.115,0-6.138
		c-1.49,0-3.051-0.036-4.541,0c-3.617,0.035-3.441,6.138,0,6.138H414.828z"/>
	<path fill="#F2F2F2" d="M427.063,71.535h6.492v18.98h7.203v-18.98h6.492V90.87h2.518v8.302h-5.215v-2.803h-17.489L427.063,71.535
		L427.063,71.535z"/>
</g>
<g>
	<path fill="#F2F2F2" d="M32.056,88.746c0.023,0.813,0.283,1.418,0.778,1.813c0.495,0.396,1.167,0.593,2.016,0.593
		c0.872,0,1.539-0.287,1.998-0.862c0.46-0.574,0.702-1.272,0.725-2.094c0-0.892-0.2-1.572-0.601-2.041
		c-0.401-0.47-0.908-0.798-1.521-0.985c-0.613-0.188-1.291-0.287-2.034-0.299s-1.445-0.006-2.104,0.018v-0.846l3.29-6.827h-7.145
		v-5.659h15.74v0.92l-4.563,8.348c0.99,0.26,1.809,0.637,2.458,1.132c0.648,0.495,1.167,1.073,1.556,1.733
		c0.389,0.66,0.66,1.374,0.814,2.14c0.153,0.767,0.229,1.551,0.229,2.352c0,1.062-0.183,2.105-0.548,3.131
		c-0.366,1.025-0.914,1.945-1.645,2.759s-1.639,1.474-2.724,1.98s-2.346,0.761-3.785,0.761c-0.943,0-1.763-0.095-2.458-0.283
		c-0.696-0.188-1.35-0.447-1.963-0.778c-1.18-0.659-2.152-1.591-2.918-2.794c-0.767-1.202-1.149-2.605-1.149-4.209H32.056z"/>
	<path fill="#F2F2F2" d="M61.944,88.746c0.023,0.813,0.283,1.418,0.778,1.813c0.495,0.396,1.167,0.593,2.016,0.593
		c0.872,0,1.539-0.287,1.998-0.862c0.46-0.574,0.702-1.272,0.725-2.094c0-0.892-0.2-1.572-0.601-2.041
		c-0.401-0.47-0.908-0.798-1.521-0.985c-0.613-0.188-1.291-0.287-2.034-0.299s-1.445-0.006-2.104,0.018v-0.846l3.29-6.827h-7.145
		v-5.659h15.74v0.92l-4.563,8.348c0.99,0.26,1.809,0.637,2.458,1.132c0.648,0.495,1.167,1.073,1.556,1.733
		c0.389,0.66,0.66,1.374,0.814,2.14c0.153,0.767,0.229,1.551,0.229,2.352c0,1.062-0.183,2.105-0.548,3.131
		c-0.366,1.025-0.914,1.945-1.645,2.759s-1.639,1.474-2.724,1.98s-2.346,0.761-3.785,0.761c-0.943,0-1.763-0.095-2.458-0.283
		c-0.696-0.188-1.35-0.447-1.963-0.778c-1.18-0.659-2.152-1.591-2.918-2.794c-0.767-1.202-1.149-2.605-1.149-4.209H61.944z"/>
	<path fill="#F2F2F2" d="M87.057,71.096c1.273,0,2.476,0.189,3.608,0.566s2.123,0.932,2.971,1.662
		c0.849,0.731,1.515,1.627,1.999,2.688c0.483,1.062,0.725,2.264,0.725,3.607v8.666c0,1.344-0.242,2.547-0.725,3.608
		c-0.483,1.061-1.149,1.957-1.999,2.688c-0.849,0.731-1.839,1.286-2.971,1.663s-2.334,0.565-3.608,0.565
		c-1.25,0-2.435-0.188-3.555-0.565c-1.12-0.377-2.099-0.932-2.936-1.663c-0.837-0.73-1.503-1.627-1.999-2.688
		c-0.495-1.062-0.743-2.265-0.743-3.608V79.62c0-1.344,0.248-2.546,0.743-3.607s1.161-1.957,1.999-2.688
		c0.836-0.73,1.815-1.285,2.936-1.662C84.622,71.285,85.807,71.096,87.057,71.096z M87.057,91.151c0.943,0,1.733-0.253,2.37-0.759
		c0.637-0.505,0.955-1.264,0.955-2.276V79.72c0-0.988-0.318-1.729-0.955-2.224c-0.637-0.493-1.427-0.74-2.37-0.74
		c-0.896,0-1.657,0.247-2.281,0.74c-0.625,0.494-0.938,1.235-0.938,2.224v8.396c0,1.013,0.313,1.771,0.938,2.276
		C85.4,90.898,86.161,91.151,87.057,91.151z"/>
	<path fill="#F2F2F2" d="M110.295,71.096c1.273,0,2.476,0.189,3.608,0.566s2.123,0.932,2.971,1.662
		c0.849,0.731,1.515,1.627,1.999,2.688c0.483,1.062,0.725,2.264,0.725,3.607v8.666c0,1.344-0.242,2.547-0.725,3.608
		c-0.483,1.061-1.149,1.957-1.999,2.688c-0.849,0.731-1.839,1.286-2.971,1.663s-2.334,0.565-3.608,0.565
		c-1.25,0-2.435-0.188-3.555-0.565c-1.12-0.377-2.099-0.932-2.936-1.663c-0.837-0.73-1.503-1.627-1.999-2.688
		c-0.495-1.062-0.743-2.265-0.743-3.608V79.62c0-1.344,0.248-2.546,0.743-3.607s1.161-1.957,1.999-2.688
		c0.836-0.73,1.815-1.285,2.936-1.662C107.86,71.285,109.045,71.096,110.295,71.096z M110.295,91.151
		c0.943,0,1.733-0.253,2.37-0.759c0.637-0.505,0.955-1.264,0.955-2.276V79.72c0-0.988-0.318-1.729-0.955-2.224
		c-0.637-0.493-1.427-0.74-2.37-0.74c-0.896,0-1.657,0.247-2.281,0.74c-0.625,0.494-0.938,1.235-0.938,2.224v8.396
		c0,1.013,0.313,1.771,0.938,2.276C108.638,90.898,109.399,91.151,110.295,91.151z"/>
</g>
</svg>
