<?xml version="1.0" encoding="utf-8"?>
<!-- Generator: Adobe Illustrator 14.0.0, SVG Export Plug-In . SVG Version: 6.00 Build 43363)  -->
<!DOCTYPE svg PUBLIC "-//W3C//DTD SVG 1.1//EN" "http://www.w3.org/Graphics/SVG/1.1/DTD/svg11.dtd">
<svg version="1.1" id="Layer_1" xmlns="http://www.w3.org/2000/svg" xmlns:xlink="http://www.w3.org/1999/xlink" x="0px" y="0px"
	 width="369px" height="83px" viewBox="0 0 369 83" enable-background="new 0 0 369 83" xml:space="preserve">
<rect fill="#E50046" width="369" height="55"/>
<rect y="28" fill="#E50046" width="185" height="55"/>
<g>
	<path fill="#F2F2F2" d="M30.684,31.255c-0.48,0.368-1.088,0.624-1.824,0.769c-0.736,0.144-1.521,0.216-2.352,0.216
		c-1.008,0-1.952-0.172-2.832-0.516c-0.88-0.345-1.648-0.868-2.304-1.572c-0.656-0.704-1.177-1.604-1.561-2.7
		c-0.384-1.096-0.576-2.396-0.576-3.9c0-1.567,0.212-2.899,0.637-3.996c0.423-1.096,0.983-1.991,1.68-2.688
		c0.697-0.697,1.476-1.204,2.34-1.524c0.864-0.319,1.744-0.479,2.64-0.479c0.96,0,1.744,0.052,2.353,0.156
		c0.607,0.104,1.128,0.244,1.56,0.42l-0.479,1.775c-0.769-0.384-1.864-0.575-3.288-0.575c-0.656,0-1.305,0.119-1.944,0.359
		c-0.639,0.24-1.212,0.633-1.716,1.176c-0.504,0.545-0.908,1.257-1.212,2.137c-0.305,0.88-0.456,1.96-0.456,3.239
		c0,1.152,0.144,2.16,0.432,3.024c0.288,0.864,0.685,1.584,1.188,2.16c0.503,0.576,1.096,1.008,1.775,1.296
		c0.681,0.288,1.42,0.432,2.221,0.432c0.72,0,1.348-0.071,1.884-0.216c0.536-0.144,0.987-0.328,1.355-0.552L30.684,31.255z"/>
	<path fill="#F2F2F2" d="M39.967,21.631h-3.768v10.32h-1.92v-10.32H30.51v-1.68h9.456L39.967,21.631L39.967,21.631z"/>
	<path fill="#F2F2F2" d="M41.442,25.951c0-2.032,0.452-3.588,1.356-4.668c0.903-1.08,2.204-1.62,3.899-1.62
		c0.896,0,1.676,0.148,2.341,0.444c0.663,0.296,1.212,0.72,1.644,1.271c0.432,0.553,0.752,1.217,0.96,1.992
		c0.208,0.776,0.313,1.636,0.313,2.58c0,2.032-0.453,3.588-1.356,4.668c-0.904,1.08-2.204,1.62-3.9,1.62
		c-0.896,0-1.676-0.148-2.34-0.444s-1.212-0.72-1.644-1.271c-0.433-0.553-0.753-1.216-0.96-1.992
		C41.547,27.755,41.442,26.896,41.442,25.951z M43.435,25.951c0,0.608,0.06,1.192,0.18,1.752c0.12,0.561,0.309,1.048,0.564,1.464
		c0.255,0.416,0.592,0.752,1.008,1.008c0.416,0.257,0.92,0.385,1.512,0.385c2.176,0.016,3.265-1.521,3.265-4.608
		c0-0.624-0.061-1.216-0.181-1.776c-0.119-0.56-0.308-1.048-0.563-1.464c-0.255-0.416-0.592-0.747-1.008-0.996
		c-0.417-0.247-0.921-0.372-1.513-0.372C44.522,21.327,43.435,22.863,43.435,25.951z"/>
	<path fill="#F2F2F2" d="M62.416,24.848l0.072-1.488h-0.072l-0.984,1.536l-5.399,7.056h-1.104v-12h1.92v7.32l-0.071,1.416h0.096
		L57.81,27.2l5.4-7.248h1.128v12h-1.92v-7.104H62.416z"/>
	<path fill="#F2F2F2" d="M77.814,24.823l0.145-2.28h-0.12l-0.864,1.849l-2.904,4.703h-0.672l-3.023-4.703l-0.792-1.849h-0.097
		l0.192,2.256v7.152h-1.776v-12h1.896l3.359,5.376l0.696,1.392h0.048l0.721-1.438l3.144-5.328h1.92v12h-1.872L77.814,24.823
		L77.814,24.823z"/>
	<path fill="#F2F2F2" d="M82.684,25.951c0-2.032,0.452-3.588,1.356-4.668c0.903-1.08,2.204-1.62,3.899-1.62
		c0.896,0,1.676,0.148,2.341,0.444c0.663,0.296,1.212,0.72,1.644,1.271c0.432,0.553,0.752,1.217,0.96,1.992
		c0.208,0.776,0.313,1.636,0.313,2.58c0,2.032-0.453,3.588-1.356,4.668c-0.904,1.08-2.204,1.62-3.9,1.62
		c-0.896,0-1.676-0.148-2.34-0.444s-1.212-0.72-1.644-1.271c-0.433-0.553-0.753-1.216-0.96-1.992
		C82.788,27.755,82.684,26.896,82.684,25.951z M84.676,25.951c0,0.608,0.06,1.192,0.18,1.752c0.12,0.561,0.309,1.048,0.564,1.464
		s0.592,0.752,1.008,1.008c0.416,0.257,0.92,0.385,1.512,0.385c2.176,0.016,3.265-1.521,3.265-4.608
		c0-0.624-0.061-1.216-0.181-1.776c-0.119-0.56-0.308-1.048-0.563-1.464s-0.592-0.747-1.008-0.996
		c-0.417-0.247-0.921-0.372-1.513-0.372C85.764,21.327,84.676,22.863,84.676,25.951z"/>
	<path fill="#F2F2F2" d="M104.483,31.159c-0.48,0.353-1.049,0.62-1.704,0.804c-0.656,0.184-1.344,0.276-2.064,0.276
		c-0.928,0-1.712-0.148-2.352-0.444c-0.641-0.296-1.164-0.72-1.572-1.271c-0.408-0.553-0.704-1.216-0.888-1.992
		c-0.185-0.776-0.276-1.636-0.276-2.58c0-2.032,0.448-3.588,1.344-4.668s2.185-1.62,3.864-1.62c0.769,0,1.42,0.061,1.956,0.18
		c0.536,0.12,1.021,0.293,1.452,0.517l-0.552,1.656c-0.368-0.208-0.776-0.372-1.225-0.492c-0.447-0.12-0.928-0.181-1.439-0.181
		c-2.272,0-3.408,1.536-3.408,4.608c0,0.608,0.06,1.188,0.18,1.74c0.12,0.552,0.32,1.04,0.601,1.464
		c0.279,0.424,0.647,0.764,1.104,1.02c0.456,0.257,1.021,0.385,1.692,0.385c0.576,0,1.092-0.088,1.548-0.265
		c0.456-0.176,0.828-0.376,1.116-0.6L104.483,31.159z"/>
	<path fill="#F2F2F2" d="M115.505,21.631h-3.768v10.32h-1.92v-10.32h-3.769v-1.68h9.456L115.505,21.631L115.505,21.631z"/>
	<path fill="#F2F2F2" d="M119.633,24.535c0.385-0.063,0.752-0.108,1.104-0.132s0.688-0.036,1.008-0.036
		c0.832,0,1.536,0.092,2.112,0.276c0.576,0.184,1.044,0.436,1.404,0.756c0.359,0.32,0.619,0.7,0.779,1.14s0.24,0.908,0.24,1.404
		c0,1.456-0.437,2.512-1.308,3.168c-0.873,0.656-2.229,0.983-4.068,0.983c-1.024,0-2.088-0.048-3.192-0.144v-12h1.92L119.633,24.535
		L119.633,24.535z M119.633,30.271c0.592,0.096,1.16,0.144,1.704,0.144c1.009,0,1.752-0.195,2.232-0.588
		c0.479-0.392,0.72-0.948,0.72-1.668c0-0.64-0.232-1.168-0.696-1.584c-0.464-0.416-1.191-0.624-2.184-0.624
		c-0.272,0-0.568,0.008-0.888,0.024s-0.616,0.063-0.889,0.144L119.633,30.271L119.633,30.271z"/>
	<path fill="#F2F2F2" d="M135.257,19.951h1.32l0.36,1.44h0.096c0.368-0.561,0.844-0.988,1.428-1.284s1.252-0.444,2.004-0.444
		c1.6,0,2.792,0.473,3.576,1.416c0.784,0.944,1.176,2.488,1.176,4.632c0,1.008-0.132,1.916-0.396,2.725
		c-0.264,0.808-0.636,1.492-1.116,2.052c-0.479,0.561-1.06,0.992-1.74,1.296c-0.68,0.304-1.436,0.456-2.268,0.456
		c-0.592,0-1.061-0.036-1.404-0.108c-0.344-0.071-0.716-0.195-1.116-0.372v4.992h-1.92V19.951L135.257,19.951z M140.105,21.343
		c-0.816,0-1.461,0.213-1.933,0.637c-0.472,0.424-0.804,1.067-0.996,1.932v5.952c0.288,0.225,0.616,0.396,0.984,0.516
		c0.368,0.12,0.855,0.181,1.464,0.181c1.104,0,1.98-0.412,2.628-1.236c0.648-0.824,0.973-2.036,0.973-3.636
		c0-0.656-0.057-1.252-0.168-1.788c-0.112-0.536-0.293-0.992-0.54-1.368c-0.249-0.376-0.568-0.668-0.96-0.876
		C141.165,21.447,140.682,21.343,140.105,21.343z"/>
	<path fill="#F2F2F2" d="M148.14,20.839c0.607-0.367,1.315-0.64,2.124-0.815c0.808-0.176,1.651-0.265,2.531-0.265
		c0.832,0,1.5,0.112,2.005,0.336c0.504,0.225,0.888,0.517,1.151,0.876c0.265,0.36,0.44,0.757,0.528,1.188
		c0.088,0.431,0.132,0.864,0.132,1.296c0,0.96-0.024,1.896-0.072,2.808c-0.048,0.912-0.071,1.776-0.071,2.593
		c0,0.592,0.023,1.151,0.071,1.68c0.048,0.529,0.136,1.017,0.265,1.464h-1.416l-0.504-1.68h-0.12
		c-0.145,0.224-0.324,0.443-0.54,0.66c-0.216,0.216-0.477,0.407-0.78,0.575c-0.304,0.169-0.656,0.309-1.056,0.421
		c-0.4,0.111-0.856,0.168-1.368,0.168c-0.513,0-0.988-0.081-1.428-0.24c-0.44-0.16-0.82-0.388-1.141-0.685
		c-0.32-0.296-0.572-0.651-0.756-1.067c-0.184-0.416-0.276-0.889-0.276-1.416c0-0.704,0.145-1.292,0.433-1.765
		c0.288-0.472,0.691-0.848,1.212-1.128c0.52-0.279,1.144-0.479,1.872-0.6c0.728-0.12,1.531-0.18,2.412-0.18c0.224,0,0.443,0,0.66,0
		c0.216,0,0.436,0.016,0.659,0.048c0.049-0.48,0.072-0.912,0.072-1.296c0-0.88-0.176-1.496-0.528-1.849
		c-0.352-0.352-0.992-0.527-1.92-0.527c-0.271,0-0.563,0.021-0.876,0.062c-0.312,0.041-0.632,0.099-0.96,0.173
		c-0.328,0.074-0.64,0.165-0.936,0.271c-0.296,0.107-0.557,0.227-0.78,0.357L148.14,20.839z M151.548,30.463
		c0.447,0,0.848-0.06,1.199-0.18c0.353-0.12,0.656-0.271,0.912-0.456c0.256-0.184,0.468-0.388,0.636-0.612
		c0.169-0.224,0.292-0.439,0.372-0.647v-1.992c-0.224-0.016-0.452-0.027-0.684-0.036c-0.232-0.008-0.46-0.012-0.684-0.012
		c-0.496,0-0.98,0.028-1.452,0.084c-0.473,0.056-0.889,0.16-1.248,0.312c-0.36,0.152-0.648,0.36-0.864,0.624
		c-0.216,0.265-0.324,0.597-0.324,0.996c0,0.561,0.2,1.021,0.601,1.38C150.411,30.283,150.924,30.463,151.548,30.463z"/>
	<path fill="#F2F2F2" d="M161.344,26.6v-1.561h1.68c0.288,0,0.572-0.048,0.853-0.144c0.279-0.097,0.531-0.229,0.756-0.396
		c0.224-0.168,0.403-0.368,0.54-0.6c0.136-0.232,0.204-0.477,0.204-0.732c0-0.624-0.216-1.063-0.648-1.319
		c-0.432-0.256-1.08-0.385-1.943-0.385c-0.624,0-1.196,0.094-1.717,0.28c-0.52,0.187-0.924,0.365-1.212,0.536l-0.552-1.464
		c0.48-0.272,1.044-0.512,1.692-0.721c0.647-0.207,1.419-0.312,2.315-0.312c2.656,0,3.984,0.984,3.984,2.952
		c0,0.561-0.18,1.108-0.54,1.644c-0.36,0.536-0.876,0.916-1.548,1.141v0.096c0.943,0.176,1.604,0.512,1.979,1.008
		s0.564,1.152,0.564,1.968c0,0.513-0.104,0.984-0.313,1.416c-0.208,0.433-0.52,0.809-0.936,1.128
		c-0.416,0.32-0.94,0.572-1.572,0.757c-0.632,0.184-1.364,0.275-2.196,0.275c-0.815,0-1.492-0.072-2.027-0.216
		c-0.536-0.144-1.021-0.32-1.452-0.528l0.552-1.584c0.368,0.208,0.812,0.368,1.332,0.48c0.52,0.112,1.084,0.168,1.692,0.168
		c0.976,0,1.72-0.168,2.231-0.504c0.511-0.336,0.769-0.848,0.769-1.536c0-0.576-0.24-1.028-0.721-1.356
		c-0.479-0.327-1.271-0.491-2.376-0.491H161.344z"/>
	<path fill="#F2F2F2" d="M170.104,25.951c0-2.032,0.452-3.588,1.356-4.668c0.903-1.08,2.204-1.62,3.899-1.62
		c0.896,0,1.676,0.148,2.341,0.444c0.663,0.296,1.212,0.72,1.644,1.271c0.432,0.553,0.752,1.217,0.96,1.992
		c0.208,0.776,0.313,1.636,0.313,2.58c0,2.032-0.453,3.588-1.356,4.668c-0.904,1.08-2.204,1.62-3.9,1.62
		c-0.896,0-1.676-0.148-2.34-0.444s-1.212-0.72-1.644-1.271c-0.433-0.553-0.753-1.216-0.96-1.992
		C170.208,27.755,170.104,26.896,170.104,25.951z M172.096,25.951c0,0.608,0.06,1.192,0.18,1.752
		c0.12,0.561,0.309,1.048,0.564,1.464s0.592,0.752,1.008,1.008c0.416,0.257,0.92,0.385,1.512,0.385
		c2.176,0.016,3.265-1.521,3.265-4.608c0-0.624-0.061-1.216-0.181-1.776c-0.119-0.56-0.308-1.048-0.563-1.464
		s-0.592-0.747-1.008-0.996c-0.417-0.247-0.921-0.372-1.513-0.372C173.184,21.327,172.096,22.863,172.096,25.951z"/>
	<path fill="#F2F2F2" d="M183.589,19.976c0.561-0.032,1.148-0.072,1.765-0.12c0.615-0.048,1.381-0.072,2.293-0.072
		c1.584,0,2.72,0.244,3.406,0.732c0.688,0.488,1.032,1.228,1.032,2.22c0,0.561-0.164,1.108-0.492,1.644
		c-0.327,0.536-0.868,0.933-1.618,1.188v0.096c0.942,0.177,1.606,0.504,1.99,0.984c0.385,0.479,0.576,1.12,0.576,1.92
		c0,1.248-0.448,2.152-1.344,2.712c-0.896,0.561-2.24,0.84-4.032,0.84c-0.672,0-1.296-0.021-1.872-0.06
		c-0.576-0.04-1.144-0.084-1.704-0.133V19.976L183.589,19.976z M187.861,25.016c0.287,0,0.566-0.049,0.84-0.145
		c0.271-0.096,0.516-0.228,0.732-0.396c0.215-0.168,0.392-0.364,0.526-0.589c0.136-0.224,0.204-0.464,0.204-0.72
		c0-0.64-0.191-1.084-0.576-1.332c-0.384-0.248-1.057-0.372-2.016-0.372c-0.514,0-0.916,0.009-1.213,0.024
		c-0.295,0.015-0.58,0.032-0.853,0.048v3.48h2.354V25.016z M185.509,30.343c0.304,0.032,0.604,0.057,0.9,0.072
		c0.296,0.017,0.644,0.024,1.044,0.024c1.072,0,1.867-0.152,2.388-0.456c0.521-0.304,0.78-0.824,0.78-1.561
		c0-0.575-0.221-1.044-0.66-1.403c-0.439-0.36-1.22-0.54-2.34-0.54h-2.112V30.343z"/>
	<path fill="#F2F2F2" d="M194.893,25.951c0-2.032,0.453-3.588,1.356-4.668c0.903-1.08,2.204-1.62,3.899-1.62
		c0.896,0,1.676,0.148,2.341,0.444c0.663,0.296,1.212,0.72,1.644,1.271c0.432,0.553,0.752,1.217,0.96,1.992
		c0.208,0.776,0.313,1.636,0.313,2.58c0,2.032-0.453,3.588-1.356,4.668s-2.204,1.62-3.899,1.62c-0.896,0-1.676-0.148-2.34-0.444
		s-1.213-0.72-1.645-1.271c-0.434-0.553-0.753-1.216-0.96-1.992C194.997,27.755,194.893,26.896,194.893,25.951z M196.885,25.951
		c0,0.608,0.061,1.192,0.18,1.752c0.121,0.561,0.31,1.048,0.564,1.464s0.592,0.752,1.008,1.008c0.416,0.257,0.92,0.385,1.512,0.385
		c2.177,0.016,3.266-1.521,3.266-4.608c0-0.624-0.061-1.216-0.182-1.776c-0.119-0.56-0.308-1.048-0.563-1.464
		s-0.592-0.747-1.008-0.996c-0.417-0.247-0.921-0.372-1.514-0.372C197.973,21.327,196.885,22.863,196.885,25.951z"/>
	<path fill="#F2F2F2" d="M215.389,21.631h-5.09v10.32h-1.92v-12h7.01V21.631z"/>
	<path fill="#F2F2F2" d="M216.839,25.951c0-2.032,0.452-3.588,1.356-4.668c0.902-1.08,2.203-1.62,3.898-1.62
		c0.896,0,1.676,0.148,2.342,0.444c0.662,0.296,1.211,0.72,1.644,1.271c0.433,0.553,0.752,1.217,0.96,1.992
		c0.208,0.776,0.313,1.636,0.313,2.58c0,2.032-0.453,3.588-1.355,4.668c-0.904,1.08-2.204,1.62-3.9,1.62
		c-0.896,0-1.676-0.148-2.34-0.444s-1.212-0.72-1.645-1.271c-0.432-0.553-0.752-1.216-0.959-1.992
		C216.943,27.755,216.839,26.896,216.839,25.951z M218.831,25.951c0,0.608,0.06,1.192,0.18,1.752c0.12,0.561,0.31,1.048,0.564,1.464
		s0.592,0.752,1.008,1.008c0.416,0.257,0.92,0.385,1.512,0.385c2.177,0.016,3.265-1.521,3.265-4.608c0-0.624-0.061-1.216-0.18-1.776
		c-0.119-0.56-0.309-1.048-0.563-1.464s-0.593-0.747-1.009-0.996c-0.416-0.247-0.92-0.372-1.513-0.372
		C219.919,21.327,218.831,22.863,218.831,25.951z"/>
	<path fill="#F2F2F2" d="M244.008,21.631h-5.305v10.32h-1.92v-12h9.145v12h-1.92V21.631L244.008,21.631z"/>
	<path fill="#F2F2F2" d="M248.958,25.951c0-2.032,0.452-3.588,1.356-4.668c0.902-1.08,2.203-1.62,3.898-1.62
		c0.896,0,1.676,0.148,2.342,0.444c0.662,0.296,1.211,0.72,1.644,1.271c0.432,0.553,0.752,1.217,0.96,1.992
		c0.208,0.776,0.313,1.636,0.313,2.58c0,2.032-0.453,3.588-1.355,4.668c-0.904,1.08-2.204,1.62-3.9,1.62
		c-0.896,0-1.676-0.148-2.34-0.444s-1.212-0.72-1.645-1.271c-0.433-0.553-0.752-1.216-0.959-1.992
		C249.063,27.755,248.958,26.896,248.958,25.951z M250.95,25.951c0,0.608,0.06,1.192,0.18,1.752c0.12,0.561,0.31,1.048,0.563,1.464
		c0.256,0.416,0.593,0.752,1.009,1.008c0.416,0.257,0.92,0.385,1.512,0.385c2.177,0.016,3.265-1.521,3.265-4.608
		c0-0.624-0.061-1.216-0.181-1.776c-0.118-0.56-0.308-1.048-0.563-1.464c-0.254-0.416-0.592-0.747-1.008-0.996
		c-0.416-0.247-0.92-0.372-1.513-0.372C252.038,21.327,250.95,22.863,250.95,25.951z"/>
	<path fill="#F2F2F2" d="M270.758,31.159c-0.48,0.353-1.049,0.62-1.703,0.804c-0.656,0.184-1.345,0.276-2.064,0.276
		c-0.928,0-1.713-0.148-2.352-0.444c-0.642-0.296-1.164-0.72-1.572-1.271c-0.408-0.553-0.705-1.216-0.889-1.992
		c-0.185-0.776-0.275-1.636-0.275-2.58c0-2.032,0.447-3.588,1.344-4.668s2.186-1.62,3.863-1.62c0.77,0,1.421,0.061,1.957,0.18
		c0.535,0.12,1.021,0.293,1.451,0.517l-0.552,1.656c-0.368-0.208-0.776-0.372-1.225-0.492c-0.447-0.12-0.929-0.181-1.439-0.181
		c-2.272,0-3.407,1.536-3.407,4.608c0,0.608,0.06,1.188,0.18,1.74c0.119,0.552,0.32,1.04,0.601,1.464
		c0.279,0.424,0.647,0.764,1.104,1.02c0.455,0.257,1.021,0.385,1.691,0.385c0.576,0,1.092-0.088,1.549-0.265
		c0.455-0.176,0.828-0.376,1.115-0.6L270.758,31.159z"/>
	<path fill="#F2F2F2" d="M281.843,30.991c-0.479,0.384-1.085,0.688-1.813,0.912c-0.729,0.224-1.5,0.336-2.314,0.336
		c-0.912,0-1.704-0.148-2.377-0.444c-0.672-0.296-1.225-0.72-1.654-1.271c-0.434-0.553-0.754-1.212-0.961-1.98
		s-0.313-1.632-0.313-2.592c0-2.048,0.456-3.607,1.367-4.68c0.912-1.073,2.217-1.608,3.912-1.608c0.545,0,1.088,0.061,1.633,0.18
		c0.544,0.12,1.031,0.349,1.464,0.685c0.433,0.336,0.784,0.813,1.057,1.428c0.271,0.616,0.407,1.428,0.407,2.437
		c0,0.527-0.048,1.112-0.145,1.752h-7.703c0,0.704,0.072,1.328,0.216,1.872c0.146,0.544,0.368,1.004,0.672,1.38
		s0.7,0.664,1.188,0.863c0.486,0.2,1.084,0.301,1.787,0.301c0.545,0,1.088-0.097,1.633-0.288c0.543-0.192,0.951-0.416,1.224-0.672
		L281.843,30.991z M277.715,21.343c-0.943,0-1.701,0.249-2.27,0.744c-0.567,0.496-0.907,1.345-1.02,2.544h5.951
		c0-1.216-0.23-2.067-0.695-2.556C279.218,21.587,278.563,21.343,277.715,21.343z"/>
	<path fill="#F2F2F2" d="M300.881,34.999h-1.296l-0.36-3.048h-14.039v-12h1.92v10.32h4.104v-10.32h1.92v10.32h4.104v-10.32h1.921
		v10.32h1.728V34.999L300.881,34.999z"/>
	<path fill="#F2F2F2" d="M311.95,30.991c-0.48,0.384-1.085,0.688-1.813,0.912c-0.729,0.224-1.5,0.336-2.314,0.336
		c-0.912,0-1.704-0.148-2.377-0.444c-0.672-0.296-1.225-0.72-1.655-1.271c-0.433-0.553-0.753-1.212-0.96-1.98
		c-0.208-0.768-0.313-1.632-0.313-2.592c0-2.048,0.455-3.607,1.367-4.68s2.217-1.608,3.912-1.608c0.544,0,1.088,0.061,1.632,0.18
		c0.544,0.12,1.032,0.349,1.464,0.685c0.434,0.336,0.784,0.813,1.058,1.428c0.271,0.616,0.407,1.428,0.407,2.437
		c0,0.527-0.049,1.112-0.145,1.752h-7.704c0,0.704,0.072,1.328,0.216,1.872c0.146,0.544,0.368,1.004,0.672,1.38
		c0.305,0.376,0.701,0.664,1.188,0.863c0.487,0.2,1.084,0.301,1.788,0.301c0.544,0,1.088-0.097,1.632-0.288
		c0.544-0.192,0.952-0.416,1.224-0.672L311.95,30.991z M307.822,21.343c-0.944,0-1.701,0.249-2.27,0.744
		c-0.568,0.496-0.908,1.345-1.02,2.544h5.951c0-1.216-0.231-2.067-0.695-2.556C309.325,21.587,308.67,21.343,307.822,21.343z"/>
	<path fill="#F2F2F2" d="M322.637,26.647h-5.425v5.304h-1.92v-12h1.92v5.016h5.425v-5.016h1.92v12h-1.92V26.647z"/>
	<path fill="#F2F2F2" d="M335.623,24.848l0.072-1.488h-0.072l-0.984,1.536l-5.398,7.056h-1.104v-12h1.92v7.32l-0.07,1.416h0.096
		l0.936-1.488l5.4-7.248h1.128v12h-1.92v-7.104H335.623z"/>
	<path fill="#F2F2F2" d="M347.294,26.983l-1.849,0.288l-3.168,4.68h-2.327l2.88-4.104l0.96-0.889
		c-0.832-0.128-1.54-0.464-2.124-1.008c-0.585-0.544-0.876-1.28-0.876-2.208c0-0.72,0.123-1.336,0.372-1.848
		c0.247-0.513,0.604-0.937,1.066-1.272c0.464-0.335,1.017-0.58,1.656-0.731c0.641-0.152,1.359-0.229,2.16-0.229
		c0.592,0,1.145,0.04,1.656,0.12c0.512,0.08,1.016,0.168,1.512,0.264V31.95h-1.92L347.294,26.983L347.294,26.983z M347.294,21.583
		c-0.208-0.08-0.44-0.14-0.696-0.18s-0.479-0.061-0.672-0.061c-1.023,0-1.804,0.185-2.34,0.553s-0.805,0.952-0.805,1.752
		c0,0.72,0.284,1.275,0.853,1.668c0.567,0.392,1.315,0.588,2.244,0.588c0.016,0,0.039,0,0.072,0c0.031,0,0.096,0,0.19,0
		c0.096,0,0.231-0.004,0.408-0.012c0.176-0.009,0.424-0.021,0.744-0.036L347.294,21.583L347.294,21.583z"/>
	<path fill="#F2F2F2" d="M70.518,66.751c0-5.593,0-11.185,0-16.802c2.425,0,4.921,0,7.394,0c8.04,0.023,8.04,12.506,0,12.506h-3.097
		v4.296C73.374,66.751,71.935,66.751,70.518,66.751z M77.887,53.79c-1.008-0.024-2.088,0-3.072,0c0,1.368,0,3.433,0,4.8h3.072
		C80.239,58.59,80.383,53.813,77.887,53.79z"/>
	<path fill="#F2F2F2" d="M87.657,66.295l2.641-5.425l-5.665-10.272V49.95h4.801l3.168,6.192h0.12l2.881-6.192h4.656v0.647
		L92.29,66.751h-4.633V66.295z"/>
	<path fill="#F2F2F2" d="M109.811,55.83c8.04,0,8.04,10.896,0,10.921h-7.394V49.949h12.073v3.841h-7.776v2.04H109.811z
		 M106.714,59.622v3.289c0.984,0,2.064,0,3.072,0c2.376,0,2.353-3.289,0-3.289H106.714z"/>
	<path fill="#F2F2F2" d="M120.873,66.751h-4.2v-0.624l7.561-16.395h1.848l7.585,16.395v0.624h-4.2l-4.32-9.841L120.873,66.751z"/>
	<path fill="#F2F2F2" d="M146.269,53.79c-2.496,0-3.744,0-6.217,0v2.376h5.713c0,1.271,0,2.544,0,3.816h-5.713
		c0,0.983,0,1.943,0,2.951c2.473,0,3.913,0,6.433,0c0,1.248,0,2.545,0,3.816c-3.937,0-6.816,0-10.705,0c0-5.616,0-11.232,0-16.802
		c3.889,0,6.553,0,10.489,0C146.269,51.197,146.269,52.494,146.269,53.79z"/>
	<path fill="#F2F2F2" d="M151.72,66.775h-1.536V49.949c1.464,0,2.928,0,4.393,0v8.232l8.496-8.305h1.561V66.75
		c-1.464,0-2.952,0-4.44,0v-8.257L151.72,66.775z M156.328,44.693c-0.84,0.048-1.656,0.144-2.473,0.238
		c0.072,2.688,1.585,4.104,4.177,4.104c2.664,0,4.104-1.416,4.2-4.104c-0.816-0.096-1.632-0.19-2.472-0.238
		c-0.145,1.008-0.792,1.318-1.776,1.318C156.977,46.014,156.4,45.581,156.328,44.693z"/>
</g>
<g>
	<path fill="#F2F2F2" d="M22.714,61.649c0.016,0.551,0.191,0.96,0.527,1.228s0.791,0.401,1.366,0.401
		c0.59,0,1.042-0.195,1.354-0.584c0.311-0.39,0.475-0.862,0.491-1.419c0-0.604-0.136-1.064-0.407-1.382s-0.615-0.54-1.03-0.667
		c-0.416-0.127-0.875-0.194-1.377-0.203c-0.503-0.008-0.979-0.004-1.425,0.012v-0.572l2.228-4.623H19.6v-3.833h10.66v0.623
		l-3.09,5.653c0.671,0.176,1.226,0.431,1.665,0.767c0.439,0.335,0.791,0.727,1.054,1.174c0.264,0.447,0.447,0.931,0.551,1.449
		c0.104,0.519,0.156,1.05,0.156,1.593c0,0.719-0.124,1.426-0.372,2.12s-0.619,1.317-1.114,1.868
		c-0.495,0.552-1.11,0.999-1.845,1.342s-1.589,0.515-2.563,0.515c-0.639,0-1.194-0.063-1.665-0.191s-0.914-0.303-1.33-0.526
		c-0.798-0.447-1.458-1.078-1.976-1.893c-0.519-0.814-0.779-1.765-0.779-2.851H22.714z"/>
	<path fill="#F2F2F2" d="M34.74,66.943l3.569-6.061c-0.895,0.063-1.701-0.028-2.419-0.275c-0.719-0.248-1.33-0.619-1.833-1.114
		c-0.503-0.495-0.895-1.082-1.174-1.761c-0.28-0.679-0.419-1.417-0.419-2.216c0-0.99,0.16-1.845,0.479-2.563s0.763-1.313,1.33-1.784
		c0.567-0.472,1.237-0.822,2.012-1.055c0.774-0.231,1.625-0.347,2.551-0.347c0.91,0,1.761,0.115,2.551,0.347
		c0.791,0.232,1.473,0.583,2.048,1.055c0.575,0.471,1.026,1.065,1.354,1.784c0.327,0.719,0.491,1.573,0.491,2.563
		c0,0.575-0.064,1.146-0.191,1.713c-0.128,0.566-0.359,1.098-0.695,1.593l-4.887,8.121H34.74z M38.836,53.433
		c-0.639,0-1.15,0.199-1.533,0.599s-0.575,0.895-0.575,1.485c0,0.607,0.191,1.11,0.575,1.509c0.383,0.399,0.895,0.6,1.533,0.6
		c0.703,0,1.229-0.188,1.581-0.563c0.351-0.375,0.527-0.89,0.527-1.545c0-0.591-0.184-1.086-0.551-1.485
		C40.025,53.632,39.507,53.433,38.836,53.433z"/>
	<path fill="#F2F2F2" d="M54.311,49.695c0.863,0,1.677,0.128,2.443,0.384c0.767,0.255,1.438,0.631,2.013,1.125
		c0.575,0.496,1.026,1.103,1.353,1.821s0.491,1.533,0.491,2.443v5.869c0,0.91-0.164,1.725-0.491,2.443s-0.778,1.325-1.353,1.82
		c-0.575,0.495-1.246,0.871-2.013,1.126c-0.766,0.255-1.581,0.383-2.443,0.383c-0.847,0-1.649-0.128-2.407-0.383
		c-0.759-0.255-1.422-0.631-1.988-1.126c-0.567-0.495-1.018-1.102-1.354-1.82s-0.503-1.533-0.503-2.443v-5.869
		c0-0.91,0.167-1.725,0.503-2.443s0.786-1.325,1.354-1.821c0.566-0.494,1.229-0.87,1.988-1.125
		C52.662,49.823,53.464,49.695,54.311,49.695z M54.311,63.278c0.639,0,1.174-0.172,1.605-0.514c0.431-0.343,0.647-0.856,0.647-1.542
		v-5.688c0-0.669-0.216-1.17-0.647-1.505s-0.966-0.502-1.605-0.502c-0.607,0-1.122,0.167-1.545,0.502
		c-0.423,0.335-0.635,0.836-0.635,1.505v5.688c0,0.686,0.211,1.199,0.635,1.542C53.188,63.106,53.704,63.278,54.311,63.278z"/>
</g>
</svg>
