<?xml version="1.0" encoding="UTF-8"?>
<svg id="Layer_1" data-name="Layer 1" xmlns="http://www.w3.org/2000/svg" version="1.1" viewBox="0 0 369 83">
  <defs>
    <style>
      .cls-1 {
        fill: #e50046;
      }

      .cls-1, .cls-2, .cls-3 {
        stroke-width: 0px;
      }

      .cls-2 {
        fill: #f2f2f2;
      }

      .cls-3 {
        fill: #fff;
      }
    </style>
  </defs>
  <rect class="cls-1" y="0" width="369" height="55"/>
  <rect class="cls-1" y="28" width="185" height="55"/>
  <g>
    <path class="cls-2" d="M30.7,31.3c-.5.4-1.1.6-1.8.8-.7,0-1.5.2-2.4.2s-2-.2-2.8-.5c-.9-.3-1.6-.9-2.3-1.6-.7-.7-1.2-1.6-1.6-2.7s-.6-2.4-.6-3.9.2-2.9.6-4,1-2,1.7-2.7,1.5-1.2,2.3-1.5c.9-.3,1.7-.5,2.6-.5s1.7.1,2.4.2c.6.1,1.1.2,1.6.4l-.4,1.7c-.8-.4-1.9-.6-3.3-.6s-1.3.1-1.9.4-1.2.6-1.7,1.2c-.5.5-.9,1.3-1.2,2.1-.3.9-.5,2-.5,3.2s.1,2.2.4,3,.7,1.6,1.2,2.2,1.1,1,1.8,1.3c.7.3,1.4.4,2.2.4s1.3-.1,1.9-.2c.5-.1,1-.3,1.4-.6l.4,1.7Z"/>
    <path class="cls-2" d="M40,21.6h-3.8v10.4h-1.9v-10.4h-3.8v-1.6h9.5v1.6h0Z"/>
    <path class="cls-2" d="M41.4,26c0-2,.5-3.6,1.4-4.7s2.2-1.6,3.9-1.6,1.7.1,2.3.4c.7.3,1.2.7,1.6,1.3.4.6.8,1.2,1,2,.2.7.4,1.6.4,2.6,0,2-.5,3.6-1.4,4.7s-2.2,1.6-3.9,1.6-1.7,0-2.3-.4-1.2-.7-1.6-1.3c-.4-.6-.8-1.2-1-2-.3-.8-.4-1.7-.4-2.6ZM43.4,26c0,.6,0,1.2.2,1.8,0,.6.3,1,.6,1.5s.6.8,1,1c.4.3.9.4,1.5.4,2.2,0,3.3-1.5,3.3-4.6s0-1.2-.2-1.8c0-.6-.3-1-.6-1.5s-.6-.7-1-1c-.4-.2-.9-.4-1.5-.4-2.2-.1-3.3,1.5-3.3,4.6Z"/>
    <path class="cls-2" d="M62.4,24.8v-1.5c0,0,0,0,0,0l-1,1.5-5.4,7.2h-1.1v-12h1.9v8.7c0,0,0,0,0,0l.9-1.5,5.4-7.2h1.1v12h-1.9v-7.2h0Z"/>
    <path class="cls-2" d="M77.8,24.8v-2.3c0,0,0,0,0,0l-.8,1.9-2.9,4.7h-.7l-3-4.7-.8-1.8h0l.2,2.3v7.1h-1.8v-12h1.9l3.4,5.4.7,1.4h0l.7-1.4,3.1-5.3h1.9v12h-1.9v-7.3h.1Z"/>
    <path class="cls-2" d="M82.7,26c0-2,.5-3.6,1.4-4.7s2.2-1.6,3.9-1.6,1.7.1,2.3.4c.7.3,1.2.7,1.6,1.3.4.6.8,1.2,1,2s.3,1.6.3,2.6c0,2-.5,3.6-1.4,4.7-.9,1.1-2.2,1.6-3.9,1.6s-1.7,0-2.3-.4-1.2-.7-1.6-1.3c-.4-.6-.8-1.2-1-2-.2-.8-.3-1.7-.3-2.6ZM84.7,26c0,.6,0,1.2.2,1.8,0,.6.3,1,.6,1.5s.6.8,1,1c.4.3.9.4,1.5.4,2.2,0,3.3-1.5,3.3-4.6s0-1.2-.2-1.8c0-.6-.3-1-.6-1.5s-.6-.7-1-1c-.4-.2-.9-.4-1.5-.4-2.2-.1-3.3,1.5-3.3,4.6Z"/>
    <path class="cls-2" d="M104.5,31.2c-.5.4-1,.6-1.7.8-.7.2-1.3.3-2.1.3s-1.7,0-2.4-.4c-.6-.3-1.2-.7-1.6-1.3-.4-.6-.7-1.2-.9-2-.2-.8-.3-1.6-.3-2.6,0-2,.4-3.6,1.3-4.7s2.2-1.6,3.9-1.6,1.4.1,2,.2c.5.1,1,.3,1.5.5l-.6,1.7c-.4-.2-.8-.4-1.2-.5-.4-.1-.9-.2-1.4-.2-2.3,0-3.4,1.5-3.4,4.6s0,1.2.2,1.7.3,1,.6,1.5c.3.4.6.8,1.1,1,.5.3,1,.4,1.7.4s1.1-.1,1.5-.3c.5-.2.8-.4,1.1-.6l.7,1.5Z"/>
    <path class="cls-2" d="M115.5,21.6h-3.8v10.4h-1.9v-10.4h-3.8v-1.6h9.5v1.6h0Z"/>
    <path class="cls-2" d="M119.6,24.5c.4-.1.8-.1,1.1-.1h1c.8,0,1.5.1,2.1.3s1,.4,1.4.8c.4.3.6.7.8,1.1s.2.9.2,1.4c0,1.5-.4,2.5-1.3,3.2s-2.2,1-4.1,1-2.1,0-3.2,0v-12h1.9v4.4h0ZM119.6,30.3c.6.1,1.2.1,1.7.1,1,0,1.8-.2,2.2-.6.5-.4.7-.9.7-1.7s-.2-1.2-.7-1.6-1.2-.6-2.2-.6h-.9c-.3,0-.6.1-.9.1v4.3h.1Z"/>
    <path class="cls-2" d="M135.3,20h1.3l.4,1.4h.1c.4-.6.8-1,1.4-1.3s1.3-.4,2-.4c1.6,0,2.8.5,3.6,1.4s1.2,2.5,1.2,4.6-.1,1.9-.4,2.7c-.3.8-.6,1.5-1.1,2.1s-1.1,1-1.7,1.3c-.7.3-1.4.5-2.3.5s-1.1,0-1.4,0c-.3,0-.7-.2-1.1-.4v5h-1.9v-16.8h-.1ZM140.1,21.3c-.8,0-1.5.2-1.9.6s-.8,1.1-1,1.9v6c.3.2.6.4,1,.5s.9.2,1.5.2c1.1,0,2-.4,2.6-1.2.6-.8,1-2,1-3.6s-.1-1.3-.2-1.8c-.1-.5-.3-1-.5-1.4s-.6-.7-1-.9c-.4-.2-.9-.3-1.5-.3Z"/>
    <path class="cls-2" d="M148.1,20.8c.6-.4,1.3-.6,2.1-.8.8-.2,1.7-.3,2.5-.3s1.5.1,2,.3c.5.2.9.5,1.2.9s.4.8.5,1.2.1.9.1,1.3c0,1,0,1.9-.1,2.8s-.1,1.8-.1,2.6,0,1.2.1,1.7c0,.5.1,1,.3,1.5h-1.4l-.5-1.7h-.1c-.1.2-.3.4-.5.7-.2.2-.5.4-.8.6s-.7.3-1.1.4c-.4,0-.9.2-1.4.2s-1,0-1.4-.2c-.4-.2-.8-.4-1.1-.7-.3-.3-.6-.7-.8-1.1s-.3-.9-.3-1.4.1-1.3.4-1.8c.3-.5.7-.8,1.2-1.1.5-.3,1.1-.5,1.9-.6.7-.1,1.5-.2,2.4-.2h1.4c0-.5.1-.9.1-1.3,0-.9-.2-1.5-.5-1.8-.4-.4-1-.5-1.9-.5s-.6,0-.9.1c-.3,0-.6.1-1,.2s-.6.2-.9.3c-.3.1-.6.2-.8.4l-.6-1.7ZM151.5,30.5c.4,0,.8-.1,1.2-.2s.7-.3.9-.5c.3-.2.5-.4.6-.6.2-.2.3-.4.4-.6v-2h-1.4c-.5,0-1,0-1.5.1s-.9.2-1.2.3c-.4.2-.6.4-.9.6-.2.3-.3.6-.3,1,0,.6.2,1,.6,1.4.5.3,1,.5,1.6.5Z"/>
    <path class="cls-2" d="M161.3,26.6v-1.6h1.7c.3,0,.6,0,.9-.1.3-.1.5-.2.8-.4.2-.2.4-.4.5-.6s.2-.5.2-.7c0-.6-.2-1.1-.6-1.3-.4-.3-1.1-.4-1.9-.4s-1.2.1-1.7.3c-.5.2-.9.4-1.2.5l-.6-1.5c.5-.3,1-.5,1.7-.7.6-.2,1.4-.3,2.3-.3,2.7,0,4,1,4,3s-.2,1.1-.5,1.6c-.4.5-.9.9-1.5,1.1h0c.9.3,1.6.6,2,1.1s.6,1.2.6,2-.1,1-.3,1.4-.5.8-.9,1.1c-.4.3-.9.6-1.6.8-.6.2-1.4.3-2.2.3s-1.5,0-2-.2c-.5-.1-1-.3-1.5-.5l.6-1.6c.4.2.8.4,1.3.5s1.1.2,1.7.2c1,0,1.7-.2,2.2-.5s.8-.8.8-1.5-.2-1-.7-1.4c-.5-.3-1.3-.5-2.4-.5h-1.7Z"/>
    <path class="cls-2" d="M170.1,26c0-2,.5-3.6,1.4-4.7s2.2-1.6,3.9-1.6,1.7.1,2.3.4c.7.3,1.2.7,1.6,1.3.4.6.8,1.2,1,2s.3,1.6.3,2.6c0,2-.5,3.6-1.4,4.7-.9,1.1-2.2,1.6-3.9,1.6s-1.7,0-2.3-.4-1.2-.7-1.6-1.3c-.4-.6-.8-1.2-1-2-.2-.8-.3-1.7-.3-2.6ZM172.1,26c0,.6.1,1.2.2,1.8.1.6.3,1,.6,1.5s.6.8,1,1c.4.3.9.4,1.5.4,2.2,0,3.3-1.5,3.3-4.6s-.1-1.2-.2-1.8c-.1-.6-.3-1-.6-1.5s-.6-.7-1-1c-.4-.2-.9-.4-1.5-.4-2.2-.1-3.3,1.5-3.3,4.6Z"/>
    <path class="cls-2" d="M183.6,20c.6,0,1.1-.1,1.8-.1s1.4-.1,2.3-.1c1.6,0,2.7.2,3.4.7s1,1.2,1,2.2-.2,1.1-.5,1.6-.9.9-1.6,1.2h0c.9.3,1.6.6,2,1.1s.6,1.1.6,1.9c0,1.2-.4,2.2-1.3,2.7-.9.6-2.2.8-4,.8s-1.3,0-1.9-.1c-.6,0-1.1-.1-1.7-.1v-11.8h-.1ZM187.9,25c.3,0,.6,0,.8-.1.3-.1.5-.2.7-.4.2-.2.4-.4.5-.6s.2-.5.2-.7c0-.6-.2-1.1-.6-1.3-.4-.2-1.1-.4-2-.4h-2.1v3.5h2.5ZM185.5,30.3c.3,0,.6.1.9.1h1c1.1,0,1.9-.2,2.4-.5s.8-.8.8-1.6-.2-1-.7-1.4c-.4-.4-1.2-.5-2.3-.5h-2.1v3.9h0Z"/>
    <path class="cls-2" d="M194.9,26c0-2,.5-3.6,1.4-4.7s2.2-1.6,3.9-1.6,1.7.1,2.3.4c.7.3,1.2.7,1.6,1.3.4.6.8,1.2,1,2s.3,1.6.3,2.6c0,2-.5,3.6-1.4,4.7s-2.2,1.6-3.9,1.6-1.7,0-2.3-.4-1.2-.7-1.6-1.3c-.4-.6-.8-1.2-1-2-.2-.8-.3-1.7-.3-2.6ZM196.9,26c0,.6.1,1.2.2,1.8.1.6.3,1,.6,1.5s.6.8,1,1c.4.3.9.4,1.5.4,2.2,0,3.3-1.5,3.3-4.6s-.1-1.2-.2-1.8c-.1-.6-.3-1-.6-1.5s-.6-.7-1-1c-.4-.2-.9-.4-1.5-.4-2.2-.1-3.3,1.5-3.3,4.6Z"/>
    <path class="cls-2" d="M215.4,21.6h-5.1v10.4h-1.9v-12h7v1.6Z"/>
    <path class="cls-2" d="M216.8,26c0-2,.5-3.6,1.4-4.7s2.2-1.6,3.9-1.6,1.7.1,2.3.4c.7.3,1.2.7,1.6,1.3.4.6.8,1.2,1,2s.3,1.6.3,2.6c0,2-.5,3.6-1.4,4.7-.9,1.1-2.2,1.6-3.9,1.6s-1.7,0-2.3-.4-1.2-.7-1.6-1.3c-.4-.6-.8-1.2-1-2-.2-.8-.3-1.7-.3-2.6ZM218.8,26c0,.6.1,1.2.2,1.8.1.6.3,1,.6,1.5s.6.8,1,1c.4.3.9.4,1.5.4,2.2,0,3.3-1.5,3.3-4.6s-.1-1.2-.2-1.8c-.1-.6-.3-1-.6-1.5s-.6-.7-1-1c-.4-.2-.9-.4-1.5-.4-2.2-.1-3.3,1.5-3.3,4.6Z"/>
    <path class="cls-2" d="M244,21.6h-5.3v10.4h-1.9v-12h9.1v12h-1.9v-10.4h0Z"/>
    <path class="cls-2" d="M249,26c0-2,.5-3.6,1.4-4.7s2.2-1.6,3.9-1.6,1.7.1,2.3.4c.7.3,1.2.7,1.6,1.3.4.6.8,1.2,1,2s.3,1.6.3,2.6c0,2-.5,3.6-1.4,4.7-.9,1.1-2.2,1.6-3.9,1.6s-1.7,0-2.3-.4-1.2-.7-1.6-1.3c-.4-.6-.8-1.2-1-2-.2-.8-.3-1.7-.3-2.6ZM250.9,26c0,.6.1,1.2.2,1.8.1.6.3,1,.6,1.5.3.4.6.8,1,1,.4.3.9.4,1.5.4,2.2,0,3.3-1.5,3.3-4.6s-.1-1.2-.2-1.8c-.1-.6-.3-1-.6-1.5-.3-.4-.6-.7-1-1-.4-.2-.9-.4-1.5-.4-2.2-.1-3.3,1.5-3.3,4.6Z"/>
    <path class="cls-2" d="M270.8,31.2c-.5.4-1,.6-1.7.8-.7.2-1.3.3-2.1.3s-1.7,0-2.4-.4c-.6-.3-1.2-.7-1.6-1.3-.4-.6-.7-1.2-.9-2-.2-.8-.3-1.6-.3-2.6,0-2,.4-3.6,1.3-4.7s2.2-1.6,3.9-1.6,1.4.1,2,.2c.5.1,1,.3,1.5.5l-.5,1.6c-.4-.2-.8-.4-1.2-.5-.4-.1-.9-.2-1.4-.2-2.3,0-3.4,1.5-3.4,4.6s.1,1.2.2,1.7c.1.6.3,1,.6,1.5.3.4.6.8,1.1,1,.5.3,1,.4,1.7.4s1.1-.1,1.5-.3c.5-.2.8-.4,1.1-.6l.6,1.6Z"/>
    <path class="cls-2" d="M281.8,31c-.5.4-1.1.7-1.8.9-.7.2-1.5.3-2.3.3s-1.7,0-2.4-.4c-.7-.3-1.2-.7-1.7-1.3-.4-.6-.8-1.2-1-2s-.3-1.6-.3-2.6c0-2,.5-3.6,1.4-4.7s2.2-1.6,3.9-1.6,1.1.1,1.6.2,1,.3,1.5.7c.4.3.8.8,1.1,1.4.3.6.4,1.4.4,2.4s0,1.1-.1,1.8h-7.7c0,.7.1,1.3.2,1.9.1.5.4,1,.7,1.4s.7.7,1.2.9c.5.2,1.1.3,1.8.3s1.1-.1,1.6-.3c.5-.2,1-.4,1.2-.7l.7,1.4ZM277.7,21.3c-.9,0-1.7.2-2.3.7-.6.5-.9,1.3-1,2.5h6c0-1.2-.2-2.1-.7-2.6-.5-.3-1.1-.6-2-.6Z"/>
    <path class="cls-2" d="M300.9,35h-1.3l-.4-3h-14v-12h1.9v10.3h4.1v-10.3h1.9v10.3h4.1v-10.3h1.9v10.3h1.7v4.7h0Z"/>
    <path class="cls-2" d="M312,31c-.5.4-1.1.7-1.8.9-.7.2-1.5.3-2.3.3s-1.7,0-2.4-.4c-.7-.3-1.2-.7-1.7-1.3-.4-.6-.8-1.2-1-2s-.3-1.6-.3-2.6c0-2,.5-3.6,1.4-4.7s2.2-1.6,3.9-1.6,1.1.1,1.6.2,1,.3,1.5.7c.4.3.8.8,1.1,1.4.3.6.4,1.4.4,2.4s0,1.1-.1,1.8h-7.7c0,.7.1,1.3.2,1.9.1.5.4,1,.7,1.4.3.4.7.7,1.2.9.5.2,1.1.3,1.8.3s1.1-.1,1.6-.3c.5-.2,1-.4,1.2-.7l.7,1.4ZM307.8,21.3c-.9,0-1.7.2-2.3.7-.6.5-.9,1.3-1,2.5h6c0-1.2-.2-2.1-.7-2.6-.5-.3-1.1-.6-2-.6Z"/>
    <path class="cls-2" d="M322.6,26.6h-5.4v5.4h-1.9v-12h1.9v5h5.4v-5h1.9v12h-1.9v-5.4Z"/>
    <path class="cls-2" d="M335.6,24.8v-1.5c.1,0,0,0,0,0l-1,1.5-5.4,7.1h-1.1v-11.9h1.9v8.7c-.1,0,0,0,0,0l.9-1.5,5.4-7.2h1.1v12h-1.9v-7.2h.1Z"/>
    <path class="cls-2" d="M347.3,27l-1.8.3-3.2,4.7h-2.3l2.9-4.1,1-.9c-.8-.1-1.5-.5-2.1-1s-.9-1.3-.9-2.2.1-1.3.4-1.8c.2-.5.6-.9,1.1-1.3.5-.3,1-.6,1.7-.7.6-.2,1.4-.2,2.2-.2s1.1,0,1.7.1c.5.1,1,.2,1.5.3v11.8h-1.9l-.3-5h0ZM347.3,21.6c-.2-.1-.4-.1-.7-.2s-.5-.1-.7-.1c-1,0-1.8.2-2.3.6s-.8,1-.8,1.8.3,1.3.9,1.7c.6.4,1.3.6,2.2.6h1.4v-4.4h0Z"/>
    <path class="cls-2" d="M70.5,66.8v-16.8h7.4c8,0,8,12.5,0,12.5h-3.1v4.3h-4.3ZM77.9,53.8h-3.1v4.8h3.1c2.3,0,2.5-4.8,0-4.8Z"/>
    <path class="cls-2" d="M87.7,66.3l2.6-5.4-5.7-10.3v-.6h4.8l3.2,6.2h0l2.9-6.2h4.7v.6l-8,16.2h-4.6v-.5Z"/>
    <path class="cls-2" d="M109.8,55.8c8,0,8,10.9,0,10.9h-7.4v-16.8h12.1v3.8h-7.8v2h3.1ZM106.7,59.6v3.3h3.1c2.4,0,2.4-3.3,0-3.3h-3.1Z"/>
    <path class="cls-2" d="M120.9,66.8h-4.2v-.6l7.6-16.4h1.8l7.6,16.4v.6h-4.2l-4.3-9.8-4.3,9.8Z"/>
    <path class="cls-2" d="M146.3,53.8h-6.2v2.4h5.7v3.8h-5.7v3h6.4v3.8h-10.7v-16.8h10.5v3.8Z"/>
    <path class="cls-2" d="M151.7,66.8h-1.5v-16.9h4.4v8.2l8.5-8.3h1.6v16.9h-4.4v-8.3l-8.6,8.4ZM156.3,44.7c-.8,0-1.7,0-2.5.2.1,2.7,1.6,4.1,4.2,4.1s4.1-1.4,4.2-4.1c-.8,0-1.6-.2-2.5-.2-.1,1-.8,1.3-1.8,1.3s-1.5-.4-1.6-1.3Z"/>
  </g>
  <g>
    <path class="cls-3" d="M29.6,49.8l-3.6,6.1s.1,0,.2,0c3.4-.2,5.7,1.9,5.7,5.4s-2.8,5.8-6.5,5.8-6.4-1.8-6.4-5.8.5-2.7,1.1-3.7l4.7-7.8h4.8ZM27.6,61.3c0-1.4-.7-2.1-2.1-2.1s-2.1.7-2.1,2.1.7,2.1,2.1,2.1,2.1-.7,2.1-2.1Z"/>
    <path class="cls-3" d="M38.1,55.7c.5,0,.9,0,1.4,0,3.5,0,6.3,1.3,6.3,5.6s-2,5.8-5.9,5.8-5.7-2.1-5.8-5.4h3.8c0,1.1.7,1.6,1.9,1.6s1.8-.9,1.8-2c0-1.8-1.8-2.3-3.6-2.3-1.3,0-2.7,0-3.5.1v-9.1h10.5v3.6h-6.9v2.1Z"/>
    <path class="cls-3" d="M61,55.4v5.9c0,3.7-2.8,5.8-6.3,5.8s-6.3-2.1-6.3-5.8v-5.9c0-3.6,2.8-5.8,6.3-5.8s6.3,2.1,6.3,5.8ZM56.9,61.3v-5.7c0-1.4-1-2.1-2.2-2.1s-2.2.7-2.2,2.1v5.7c0,1.3.9,2,2.2,2s2.2-.7,2.2-2Z"/>
  </g>
</svg>