<?xml version="1.0" encoding="utf-8"?>
<!-- Generator: Adobe Illustrator 22.1.0, SVG Export Plug-In . SVG Version: 6.00 Build 0)  -->
<svg version="1.1" id="Layer_1" xmlns="http://www.w3.org/2000/svg" xmlns:xlink="http://www.w3.org/1999/xlink" x="0px" y="0px"
	 viewBox="0 0 484 121" style="enable-background:new 0 0 484 121;" xml:space="preserve">
<style type="text/css">
	.st0{fill:#E50046;}
	.st1{fill:#F2F2F2;}
</style>
<rect y="41" class="st0" width="484" height="80"/>
<rect class="st0" width="375" height="81"/>
<g>
	<path class="st1" d="M44,46.9c-0.7,0.5-1.6,0.9-2.7,1.1s-2.2,0.3-3.5,0.3c-1.5,0-2.9-0.3-4.2-0.8c-1.3-0.5-2.4-1.3-3.4-2.3
		c-1-1-1.7-2.4-2.3-4c-0.6-1.6-0.9-3.5-0.9-5.8c0-2.3,0.3-4.3,0.9-5.9s1.5-2.9,2.5-4c1-1,2.2-1.8,3.5-2.3c1.3-0.5,2.6-0.7,3.9-0.7
		c1.4,0,2.6,0.1,3.5,0.2c0.9,0.2,1.7,0.4,2.3,0.6l-0.7,2.6c-1.1-0.6-2.8-0.9-4.9-0.9c-1,0-1.9,0.2-2.9,0.5c-0.9,0.4-1.8,0.9-2.5,1.7
		c-0.7,0.8-1.3,1.9-1.8,3.2c-0.4,1.3-0.7,2.9-0.7,4.8c0,1.7,0.2,3.2,0.6,4.5c0.4,1.3,1,2.3,1.8,3.2c0.7,0.9,1.6,1.5,2.6,1.9
		c1,0.4,2.1,0.6,3.3,0.6c1.1,0,2-0.1,2.8-0.3s1.5-0.5,2-0.8L44,46.9z"/>
	<path class="st1" d="M57.5,32.6H52v15.3h-2.8V32.6h-5.6v-2.5h14L57.5,32.6L57.5,32.6z"/>
	<path class="st1" d="M59.6,39c0-3,0.7-5.3,2-6.9c1.3-1.6,3.3-2.4,5.8-2.4c1.3,0,2.5,0.2,3.5,0.7c1,0.4,1.8,1.1,2.4,1.9
		c0.6,0.8,1.1,1.8,1.4,2.9c0.3,1.1,0.5,2.4,0.5,3.8c0,3-0.7,5.3-2,6.9c-1.3,1.6-3.3,2.4-5.8,2.4c-1.3,0-2.5-0.2-3.5-0.7
		s-1.8-1.1-2.4-1.9S60.4,44,60,42.8C59.7,41.7,59.6,40.4,59.6,39z M62.5,39c0,0.9,0.1,1.8,0.3,2.6c0.2,0.8,0.5,1.5,0.8,2.2
		s0.9,1.1,1.5,1.5c0.6,0.4,1.4,0.6,2.2,0.6c3.2,0,4.8-2.2,4.8-6.8c0-0.9-0.1-1.8-0.3-2.6c-0.2-0.8-0.5-1.5-0.8-2.2
		c-0.4-0.6-0.9-1.1-1.5-1.5s-1.4-0.5-2.2-0.5C64.1,32.2,62.5,34.5,62.5,39z"/>
	<path class="st1" d="M90.4,37.4l0.1-2.2h-0.1L89,37.5l-8,10.4h-1.6V30.2h2.8V41l-0.1,2.1h0.1l1.4-2.2l8-10.7h1.7v17.7h-2.8V37.4z"
		/>
	<path class="st1" d="M113,37.4l0.2-3.4h-0.2l-1.3,2.7l-4.3,7h-1l-4.5-7l-1.2-2.7h-0.1l0.3,3.3v10.6h-2.6V30.2h2.8l5,7.9l1,2.1h0.1
		l1.1-2.1l4.6-7.9h2.8v17.7H113L113,37.4L113,37.4z"/>
	<path class="st1" d="M120.1,39c0-3,0.7-5.3,2-6.9c1.3-1.6,3.3-2.4,5.8-2.4c1.3,0,2.5,0.2,3.5,0.7c1,0.4,1.8,1.1,2.4,1.9
		c0.6,0.8,1.1,1.8,1.4,2.9c0.3,1.1,0.5,2.4,0.5,3.8c0,3-0.7,5.3-2,6.9c-1.3,1.6-3.3,2.4-5.8,2.4c-1.3,0-2.5-0.2-3.5-0.7
		s-1.8-1.1-2.4-1.9s-1.1-1.8-1.4-2.9C120.2,41.7,120.1,40.4,120.1,39z M123,39c0,0.9,0.1,1.8,0.3,2.6c0.2,0.8,0.5,1.5,0.8,2.2
		s0.9,1.1,1.5,1.5c0.6,0.4,1.4,0.6,2.2,0.6c3.2,0,4.8-2.2,4.8-6.8c0-0.9-0.1-1.8-0.3-2.6c-0.2-0.8-0.5-1.5-0.8-2.2
		c-0.4-0.6-0.9-1.1-1.5-1.5s-1.4-0.5-2.2-0.5C124.6,32.2,123,34.5,123,39z"/>
	<path class="st1" d="M152.2,46.7c-0.7,0.5-1.6,0.9-2.5,1.2c-1,0.3-2,0.4-3.1,0.4c-1.4,0-2.5-0.2-3.5-0.7c-0.9-0.4-1.7-1.1-2.3-1.9
		c-0.6-0.8-1-1.8-1.3-2.9c-0.3-1.1-0.4-2.4-0.4-3.8c0-3,0.7-5.3,2-6.9c1.3-1.6,3.2-2.4,5.7-2.4c1.1,0,2.1,0.1,2.9,0.3
		c0.8,0.2,1.5,0.4,2.1,0.8l-0.8,2.4c-0.5-0.3-1.1-0.5-1.8-0.7c-0.7-0.2-1.4-0.3-2.1-0.3c-3.4,0-5,2.3-5,6.8c0,0.9,0.1,1.8,0.3,2.6
		c0.2,0.8,0.5,1.5,0.9,2.2c0.4,0.6,1,1.1,1.6,1.5c0.7,0.4,1.5,0.6,2.5,0.6c0.9,0,1.6-0.1,2.3-0.4c0.7-0.3,1.2-0.6,1.6-0.9
		L152.2,46.7z"/>
	<path class="st1" d="M168.3,32.6h-5.6v15.3h-2.8V32.6h-5.6v-2.5h14L168.3,32.6L168.3,32.6z"/>
	<path class="st1" d="M174.3,36.9c0.6-0.1,1.1-0.2,1.6-0.2c0.5,0,1-0.1,1.5-0.1c1.2,0,2.3,0.1,3.1,0.4c0.9,0.3,1.5,0.6,2.1,1.1
		c0.5,0.5,0.9,1,1.2,1.7c0.2,0.7,0.4,1.3,0.4,2.1c0,2.2-0.6,3.7-1.9,4.7c-1.3,1-3.3,1.5-6,1.5c-1.5,0-3.1-0.1-4.7-0.2V30.2h2.8
		L174.3,36.9L174.3,36.9z M174.3,45.4c0.9,0.1,1.7,0.2,2.5,0.2c1.5,0,2.6-0.3,3.3-0.9c0.7-0.6,1.1-1.4,1.1-2.5c0-0.9-0.3-1.7-1-2.3
		c-0.7-0.6-1.8-0.9-3.2-0.9c-0.4,0-0.8,0-1.3,0c-0.5,0-0.9,0.1-1.3,0.2L174.3,45.4C174.3,45.4,174.3,45.4,174.3,45.4z"/>
	<path class="st1" d="M196.4,39c0-3,0.7-5.3,2-6.9c1.3-1.6,3.3-2.4,5.8-2.4c1.3,0,2.5,0.2,3.5,0.7c1,0.4,1.8,1.1,2.4,1.9
		c0.6,0.8,1.1,1.8,1.4,2.9c0.3,1.1,0.5,2.4,0.5,3.8c0,3-0.7,5.3-2,6.9c-1.3,1.6-3.3,2.4-5.8,2.4c-1.3,0-2.5-0.2-3.5-0.7
		s-1.8-1.1-2.4-1.9c-0.6-0.8-1.1-1.8-1.4-2.9C196.5,41.7,196.4,40.4,196.4,39z M199.3,39c0,0.9,0.1,1.8,0.3,2.6
		c0.2,0.8,0.5,1.5,0.8,2.2s0.9,1.1,1.5,1.5c0.6,0.4,1.4,0.6,2.2,0.6c3.2,0,4.8-2.2,4.8-6.8c0-0.9-0.1-1.8-0.3-2.6
		c-0.2-0.8-0.5-1.5-0.8-2.2c-0.4-0.6-0.9-1.1-1.5-1.5s-1.4-0.5-2.2-0.5C200.9,32.2,199.3,34.5,199.3,39z"/>
	<path class="st1" d="M218,33.3c0.8-1.1,1.6-1.9,2.6-2.4c0.9-0.5,2.1-0.7,3.5-0.7c2.2,0,3.8,0.7,5,2.1c1.2,1.4,1.8,3.5,1.8,6.3
		c0,3.2-0.7,5.6-2,7.2c-1.4,1.6-3.3,2.4-5.7,2.4c-2.6,0-4.6-0.9-5.9-2.7c-1.3-1.8-2-4.6-2-8.5c0-2,0.1-3.8,0.3-5.2
		c0.2-1.4,0.5-2.7,0.9-3.7c0.4-1,0.9-1.8,1.4-2.4c0.6-0.6,1.2-1.1,1.9-1.4c0.7-0.3,1.5-0.6,2.3-0.7s1.7-0.3,2.7-0.4
		c1.2-0.1,2.2-0.3,2.9-0.4c0.7-0.2,1.3-0.4,1.7-0.8l0.3,2.6c-0.2,0.2-0.5,0.4-0.8,0.5c-0.3,0.1-0.6,0.3-1,0.4
		c-0.4,0.1-0.9,0.2-1.4,0.2c-0.6,0.1-1.2,0.1-1.9,0.2c-1,0.1-1.9,0.2-2.7,0.4c-0.8,0.2-1.4,0.5-2,1c-0.6,0.5-1,1.2-1.3,2.2
		c-0.3,0.9-0.5,2.2-0.7,3.7L218,33.3L218,33.3z M218.3,39.1c0,0.9,0.1,1.8,0.3,2.6c0.2,0.8,0.5,1.6,0.9,2.2c0.4,0.6,0.9,1.1,1.5,1.5
		c0.6,0.4,1.3,0.5,2.2,0.5c1.6,0,2.8-0.6,3.6-1.8c0.8-1.2,1.2-2.9,1.2-5.2c0-0.9-0.1-1.7-0.2-2.5c-0.2-0.8-0.4-1.4-0.8-2
		c-0.4-0.6-0.8-1-1.3-1.3c-0.5-0.3-1.2-0.4-2-0.4c-1.8,0-3.2,0.5-4,1.6C218.7,35.4,218.3,37,218.3,39.1z"/>
	<path class="st1" d="M240.2,41.6l1,3.4h0.2l0.8-3.4l3.5-11.5h2.8l-5.2,15.9c-0.4,1.2-0.8,2.3-1.2,3.4c-0.4,1.1-0.8,2.1-1.3,2.9
		c-0.5,0.9-1,1.5-1.6,2c-0.6,0.5-1.3,0.8-2.1,0.8c-0.9,0-1.5-0.1-2.1-0.4l0.5-2.4c0.3,0.1,0.6,0.2,0.9,0.2c0.7,0,1.3-0.3,1.9-1
		c0.6-0.7,1.1-1.9,1.5-3.6l-7.1-17.7h3.3L240.2,41.6z"/>
	<path class="st1" d="M254,30.2V35c0,0.6,0,1.2,0.1,1.7c0.1,0.5,0.2,0.9,0.4,1.3s0.5,0.7,0.9,0.9s0.9,0.3,1.6,0.3
		c1.1,0,1.9-0.1,2.6-0.4s1.2-0.5,1.6-0.8v-7.9h2.8v17.7h-2.8v-7.4c-0.4,0.2-0.9,0.5-1.7,0.8c-0.7,0.3-1.8,0.4-3.1,0.4
		c-0.9,0-1.6-0.1-2.3-0.3s-1.2-0.5-1.7-1s-0.8-1.1-1-1.9c-0.2-0.8-0.3-1.8-0.3-2.9v-5.4L254,30.2L254,30.2z"/>
	<path class="st1" d="M282.3,46.5c-0.7,0.6-1.6,1-2.7,1.3c-1.1,0.3-2.2,0.5-3.4,0.5c-1.3,0-2.5-0.2-3.5-0.7c-1-0.4-1.8-1.1-2.4-1.9
		c-0.6-0.8-1.1-1.8-1.4-2.9c-0.3-1.1-0.5-2.4-0.5-3.8c0-3,0.7-5.3,2-6.9s3.3-2.4,5.8-2.4c0.8,0,1.6,0.1,2.4,0.3
		c0.8,0.2,1.5,0.5,2.2,1c0.6,0.5,1.2,1.2,1.6,2.1s0.6,2.1,0.6,3.6c0,0.8-0.1,1.6-0.2,2.6h-11.4c0,1,0.1,2,0.3,2.8
		c0.2,0.8,0.5,1.5,1,2c0.4,0.6,1,1,1.8,1.3c0.7,0.3,1.6,0.4,2.6,0.4c0.8,0,1.6-0.1,2.4-0.4c0.8-0.3,1.4-0.6,1.8-1L282.3,46.5z
		 M276.2,32.2c-1.4,0-2.5,0.4-3.4,1.1c-0.8,0.7-1.3,2-1.5,3.8h8.8c0-1.8-0.3-3.1-1-3.8C278.5,32.6,277.5,32.2,276.2,32.2z"/>
	<path class="st1" d="M298,40.1h-8v7.8h-2.8V30.2h2.8v7.4h8v-7.4h2.8v17.7H298V40.1z"/>
	<path class="st1" d="M317,37.4l0.1-2.2H317l-1.5,2.3l-8,10.4H306V30.2h2.8V41l-0.1,2.1h0.1l1.4-2.2l8-10.7h1.7v17.7H317L317,37.4
		L317,37.4z"/>
	<path class="st1" d="M334.1,40.5l-2.7,0.4l-4.7,6.9h-3.4l4.3-6.1l1.4-1.3c-1.2-0.2-2.3-0.7-3.1-1.5c-0.9-0.8-1.3-1.9-1.3-3.3
		c0-1.1,0.2-2,0.6-2.7c0.4-0.8,0.9-1.4,1.6-1.9c0.7-0.5,1.5-0.9,2.4-1.1c0.9-0.2,2-0.3,3.2-0.3c0.9,0,1.7,0.1,2.4,0.2
		c0.8,0.1,1.5,0.2,2.2,0.4v17.6h-2.8L334.1,40.5L334.1,40.5z M334.1,32.6c-0.3-0.1-0.6-0.2-1-0.3c-0.4-0.1-0.7-0.1-1-0.1
		c-1.5,0-2.7,0.3-3.5,0.8c-0.8,0.5-1.2,1.4-1.2,2.6c0,1.1,0.4,1.9,1.3,2.5c0.8,0.6,1.9,0.9,3.3,0.9c0,0,0.1,0,0.1,0s0.1,0,0.3,0
		c0.1,0,0.3,0,0.6,0c0.3,0,0.6,0,1.1-0.1L334.1,32.6L334.1,32.6z"/>
	<path class="st1" d="M136,96.4c0-8.3,0-16.5,0-24.8c3.6,0,7.3,0,10.9,0c11.9,0,11.9,18.5,0,18.5h-4.6v6.4
		C140.2,96.4,138.1,96.4,136,96.4z M146.9,77.2c-1.5,0-3.1,0-4.5,0c0,2,0,5.1,0,7.1h4.5C150.4,84.3,150.6,77.2,146.9,77.2z"/>
	<path class="st1" d="M161.2,95.7l3.9-8l-8.4-15.2v-1h7.1l4.7,9.2h0.2l4.3-9.2h6.9v1L168,96.4h-6.8L161.2,95.7L161.2,95.7z"/>
	<path class="st1" d="M193.8,80.2c11.9,0,11.9,16.1,0,16.1h-10.9V71.5h17.8v5.7h-11.5v3C189.2,80.2,193.8,80.2,193.8,80.2z
		 M189.2,85.8v4.9c1.5,0,3.1,0,4.5,0c3.5,0,3.5-4.9,0-4.9H189.2z"/>
	<path class="st1" d="M210,96.4h-6.2v-0.9L215,71.2h2.7l11.2,24.2v0.9h-6.2l-6.4-14.5L210,96.4z"/>
	<path class="st1" d="M247.4,77.2c-3.7,0-5.5,0-9.2,0v3.5h8.4c0,1.9,0,3.8,0,5.6h-8.4c0,1.5,0,2.9,0,4.4c3.7,0,5.8,0,9.5,0
		c0,1.8,0,3.8,0,5.6c-5.8,0-10.1,0-15.8,0c0-8.3,0-16.6,0-24.8c5.7,0,9.7,0,15.5,0C247.4,73.4,247.4,75.3,247.4,77.2z"/>
	<path class="st1" d="M255.3,96.4h-2.3V71.5c2.2,0,4.3,0,6.5,0v12.2l12.6-12.3h2.3v24.9c-2.2,0-4.4,0-6.6,0V84.2L255.3,96.4z
		 M262.1,63.8c-1.2,0.1-2.4,0.2-3.7,0.4c0.1,4,2.3,6.1,6.2,6.1c3.9,0,6.1-2.1,6.2-6.1c-1.2-0.1-2.4-0.3-3.7-0.4
		c-0.2,1.5-1.2,2-2.6,2C263.1,65.7,262.3,65.1,262.1,63.8z"/>
	<path class="st1" d="M306.7,83.5c2,1,3,2.9,3,5.1c0,4.3-2.7,7.8-7.7,7.8h-11.6V71.5h10.6c4.3,0,7.7,3.3,7.7,7.6
		C308.6,80.7,307.9,82.5,306.7,83.5z M296.4,77.2v4h4c2.5,0,2.5-4,0-4H296.4z M296.4,86.5v4.2h5.1c2.6,0,2.5-4.2,0-4.2H296.4z"/>
	<path class="st1" d="M346.3,71.5h2.3v24.9c-2.2,0-4.3,0-6.5,0V85.3l-5.3,5.5h-0.7l-5.3-5.5v11.1c-2.2,0-4.3,0-6.5,0V71.5h2.3
		l9.7,10.8L346.3,71.5z"/>
	<path class="st1" d="M370,77.2c-3.7,0-5.5,0-9.2,0v3.5h8.4c0,1.9,0,3.8,0,5.6h-8.4c0,1.5,0,2.9,0,4.4c3.7,0,5.8,0,9.5,0
		c0,1.8,0,3.8,0,5.6c-5.8,0-10.1,0-15.8,0c0-8.3,0-16.6,0-24.8c5.7,0,9.7,0,15.5,0C370,73.4,370,75.3,370,77.2z"/>
	<path class="st1" d="M386.4,71.3c5.1,0,10.7,2.8,11.7,9.4c-2.2,0-4.1,0-6.2,0c-0.9-2.5-2.8-3.7-5.4-3.7c-3.7,0-6.2,2.8-6.2,6.9
		c0,3.7,2.4,6.8,6.2,6.9c2.7,0,4.9-1.3,5.5-4c2.1,0,4.1,0,6.2,0c-0.9,7-6.5,9.8-11.8,9.8c-6.3,0-12.7-4.2-12.7-12.7
		C373.7,75.5,380.1,71.3,386.4,71.3z"/>
	<path class="st1" d="M405,87.6c-6.3-4.3-4.5-16,5.3-16c3.6,0,7.3,0,10.9,0c0,8.3,0,16.6,0,24.8c-2.1,0-4.2,0-6.4,0v-7.3h-3.3
		l-4.3,7.3h-7.1v-0.9L405,87.6z M414.8,83.3c0-2,0-4.1,0-6.1c-1.5,0-3.1,0-4.5,0c-3.6,0-3.4,6.1,0,6.1H414.8z"/>
	<path class="st1" d="M427.1,71.5h6.5v19h7.2v-19h6.5v19.3h2.5v8.3h-5.2v-2.8h-17.5L427.1,71.5L427.1,71.5z"/>
</g>
<g>
	<path class="st1" d="M32.4,88.8c0,1.6,1.1,2.4,2.8,2.4c1.7,0,2.7-1.3,2.8-3c-0.1-3.8-3.4-3.6-6.3-3.4v-0.8l3.7-7.3h-7.6v-5.2h15.8
		v0.9L39,80.9c3.9,1,5.1,4.2,5.1,7.4c0,4.2-3,8.6-8.7,8.6c-4.8,0-8.4-3.1-8.5-8H32.4z"/>
	<path class="st1" d="M61.9,80.1c0.7,0,1.3-0.1,2-0.1c5.2,0.1,9.3,1.9,9.3,8.3c0,4.2-2.9,8.6-8.7,8.6c-4.8,0-8.4-3.1-8.5-8h5.6
		c0,1.7,1.1,2.4,2.8,2.4c1.7,0,2.7-1.3,2.7-2.9c0-2.6-2.6-3.3-5.3-3.4c-2-0.1-4,0.1-5.2,0.2V71.6h15.5V77H61.9V80.1z"/>
	<path class="st1" d="M95.7,79.7v8.7c0,5.4-4.1,8.5-9.2,8.5c-5.1,0-9.3-3.1-9.3-8.5v-8.7c0-5.4,4.2-8.5,9.3-8.5
		C91.5,71.1,95.7,74.3,95.7,79.7z M89.7,88.3v-8.5c0-2-1.4-3-3.2-3c-1.9,0-3.3,1-3.3,3v8.5c0,2,1.4,3,3.3,3
		C88.2,91.2,89.7,90.3,89.7,88.3z"/>
	<path class="st1" d="M118.6,79.7v8.7c0,5.4-4.1,8.5-9.2,8.5c-5.1,0-9.3-3.1-9.3-8.5v-8.7c0-5.4,4.2-8.5,9.3-8.5
		C114.5,71.1,118.6,74.3,118.6,79.7z M112.6,88.3v-8.5c0-2-1.4-3-3.2-3c-1.9,0-3.3,1-3.3,3v8.5c0,2,1.4,3,3.3,3
		C111.2,91.2,112.6,90.3,112.6,88.3z"/>
</g>
</svg>
