<?xml version="1.0" encoding="utf-8"?>
<!-- Generator: Adobe Illustrator 22.1.0, SVG Export Plug-In . SVG Version: 6.00 Build 0)  -->
<svg version="1.1" id="Layer_1" xmlns="http://www.w3.org/2000/svg" xmlns:xlink="http://www.w3.org/1999/xlink" x="0px" y="0px"
	 viewBox="0 0 369 83" style="enable-background:new 0 0 369 83;" xml:space="preserve">
<style type="text/css">
	.st0{fill:#E50046;}
	.st1{fill:#F2F2F2;}
</style>
<rect class="st0" width="369" height="55"/>
<rect y="28" class="st0" width="185" height="55"/>
<g>
	<path class="st1" d="M30.7,31.3c-0.5,0.4-1.1,0.6-1.8,0.8c-0.7,0.1-1.5,0.2-2.4,0.2c-1,0-2-0.2-2.8-0.5c-0.9-0.3-1.6-0.9-2.3-1.6
		c-0.7-0.7-1.2-1.6-1.6-2.7s-0.6-2.4-0.6-3.9c0-1.6,0.2-2.9,0.6-4c0.4-1.1,1-2,1.7-2.7s1.5-1.2,2.3-1.5c0.9-0.3,1.7-0.5,2.6-0.5
		c1,0,1.7,0.1,2.4,0.2c0.6,0.1,1.1,0.2,1.6,0.4L30,17.2c-0.8-0.4-1.9-0.6-3.3-0.6c-0.7,0-1.3,0.1-1.9,0.4s-1.2,0.6-1.7,1.2
		c-0.5,0.5-0.9,1.3-1.2,2.1c-0.3,0.9-0.5,2-0.5,3.2c0,1.2,0.1,2.2,0.4,3s0.7,1.6,1.2,2.2s1.1,1,1.8,1.3c0.7,0.3,1.4,0.4,2.2,0.4
		c0.7,0,1.3-0.1,1.9-0.2c0.5-0.1,1-0.3,1.4-0.6L30.7,31.3z"/>
	<path class="st1" d="M40,21.6h-3.8V32h-1.9V21.6h-3.8V20H40L40,21.6L40,21.6z"/>
	<path class="st1" d="M41.4,26c0-2,0.5-3.6,1.4-4.7c0.9-1.1,2.2-1.6,3.9-1.6c0.9,0,1.7,0.1,2.3,0.4c0.7,0.3,1.2,0.7,1.6,1.3
		c0.4,0.6,0.8,1.2,1,2C51.8,24.1,52,25,52,26c0,2-0.5,3.6-1.4,4.7c-0.9,1.1-2.2,1.6-3.9,1.6c-0.9,0-1.7-0.1-2.3-0.4
		s-1.2-0.7-1.6-1.3c-0.4-0.6-0.8-1.2-1-2C41.5,27.8,41.4,26.9,41.4,26z M43.4,26c0,0.6,0.1,1.2,0.2,1.8c0.1,0.6,0.3,1,0.6,1.5
		s0.6,0.8,1,1c0.4,0.3,0.9,0.4,1.5,0.4c2.2,0,3.3-1.5,3.3-4.6c0-0.6-0.1-1.2-0.2-1.8c-0.1-0.6-0.3-1-0.6-1.5s-0.6-0.7-1-1
		c-0.4-0.2-0.9-0.4-1.5-0.4C44.5,21.3,43.4,22.9,43.4,26z"/>
	<path class="st1" d="M62.4,24.8l0.1-1.5h-0.1l-1,1.5L56,32h-1.1V20h1.9v7.3l-0.1,1.4h0.1l0.9-1.5l5.4-7.2h1.1v12h-1.9L62.4,24.8
		L62.4,24.8z"/>
	<path class="st1" d="M77.8,24.8l0.1-2.3h-0.1L77,24.4l-2.9,4.7h-0.7l-3-4.7l-0.8-1.8h-0.1l0.2,2.3V32h-1.8V20h1.9l3.4,5.4l0.7,1.4
		h0l0.7-1.4l3.1-5.3h1.9v12h-1.9L77.8,24.8L77.8,24.8z"/>
	<path class="st1" d="M82.7,26c0-2,0.5-3.6,1.4-4.7c0.9-1.1,2.2-1.6,3.9-1.6c0.9,0,1.7,0.1,2.3,0.4c0.7,0.3,1.2,0.7,1.6,1.3
		c0.4,0.6,0.8,1.2,1,2c0.2,0.8,0.3,1.6,0.3,2.6c0,2-0.5,3.6-1.4,4.7c-0.9,1.1-2.2,1.6-3.9,1.6c-0.9,0-1.7-0.1-2.3-0.4
		s-1.2-0.7-1.6-1.3c-0.4-0.6-0.8-1.2-1-2C82.8,27.8,82.7,26.9,82.7,26z M84.7,26c0,0.6,0.1,1.2,0.2,1.8c0.1,0.6,0.3,1,0.6,1.5
		s0.6,0.8,1,1c0.4,0.3,0.9,0.4,1.5,0.4c2.2,0,3.3-1.5,3.3-4.6c0-0.6-0.1-1.2-0.2-1.8c-0.1-0.6-0.3-1-0.6-1.5s-0.6-0.7-1-1
		c-0.4-0.2-0.9-0.4-1.5-0.4C85.8,21.3,84.7,22.9,84.7,26z"/>
	<path class="st1" d="M104.5,31.2c-0.5,0.4-1,0.6-1.7,0.8c-0.7,0.2-1.3,0.3-2.1,0.3c-0.9,0-1.7-0.1-2.4-0.4
		c-0.6-0.3-1.2-0.7-1.6-1.3c-0.4-0.6-0.7-1.2-0.9-2c-0.2-0.8-0.3-1.6-0.3-2.6c0-2,0.4-3.6,1.3-4.7s2.2-1.6,3.9-1.6
		c0.8,0,1.4,0.1,2,0.2c0.5,0.1,1,0.3,1.5,0.5l-0.6,1.7c-0.4-0.2-0.8-0.4-1.2-0.5c-0.4-0.1-0.9-0.2-1.4-0.2c-2.3,0-3.4,1.5-3.4,4.6
		c0,0.6,0.1,1.2,0.2,1.7s0.3,1,0.6,1.5c0.3,0.4,0.6,0.8,1.1,1c0.5,0.3,1,0.4,1.7,0.4c0.6,0,1.1-0.1,1.5-0.3c0.5-0.2,0.8-0.4,1.1-0.6
		L104.5,31.2z"/>
	<path class="st1" d="M115.5,21.6h-3.8V32h-1.9V21.6H106V20h9.5L115.5,21.6L115.5,21.6z"/>
	<path class="st1" d="M119.6,24.5c0.4-0.1,0.8-0.1,1.1-0.1s0.7,0,1,0c0.8,0,1.5,0.1,2.1,0.3s1,0.4,1.4,0.8c0.4,0.3,0.6,0.7,0.8,1.1
		s0.2,0.9,0.2,1.4c0,1.5-0.4,2.5-1.3,3.2c-0.9,0.7-2.2,1-4.1,1c-1,0-2.1,0-3.2-0.1v-12h1.9L119.6,24.5L119.6,24.5z M119.6,30.3
		c0.6,0.1,1.2,0.1,1.7,0.1c1,0,1.8-0.2,2.2-0.6c0.5-0.4,0.7-0.9,0.7-1.7c0-0.6-0.2-1.2-0.7-1.6s-1.2-0.6-2.2-0.6c-0.3,0-0.6,0-0.9,0
		s-0.6,0.1-0.9,0.1L119.6,30.3L119.6,30.3z"/>
	<path class="st1" d="M135.3,20h1.3l0.4,1.4h0.1c0.4-0.6,0.8-1,1.4-1.3s1.3-0.4,2-0.4c1.6,0,2.8,0.5,3.6,1.4
		c0.8,0.9,1.2,2.5,1.2,4.6c0,1-0.1,1.9-0.4,2.7c-0.3,0.8-0.6,1.5-1.1,2.1c-0.5,0.6-1.1,1-1.7,1.3c-0.7,0.3-1.4,0.5-2.3,0.5
		c-0.6,0-1.1,0-1.4-0.1c-0.3-0.1-0.7-0.2-1.1-0.4v5h-1.9L135.3,20L135.3,20z M140.1,21.3c-0.8,0-1.5,0.2-1.9,0.6s-0.8,1.1-1,1.9v6
		c0.3,0.2,0.6,0.4,1,0.5s0.9,0.2,1.5,0.2c1.1,0,2-0.4,2.6-1.2c0.6-0.8,1-2,1-3.6c0-0.7-0.1-1.3-0.2-1.8c-0.1-0.5-0.3-1-0.5-1.4
		c-0.2-0.4-0.6-0.7-1-0.9C141.2,21.4,140.7,21.3,140.1,21.3z"/>
	<path class="st1" d="M148.1,20.8c0.6-0.4,1.3-0.6,2.1-0.8c0.8-0.2,1.7-0.3,2.5-0.3c0.8,0,1.5,0.1,2,0.3c0.5,0.2,0.9,0.5,1.2,0.9
		c0.3,0.4,0.4,0.8,0.5,1.2s0.1,0.9,0.1,1.3c0,1,0,1.9-0.1,2.8s-0.1,1.8-0.1,2.6c0,0.6,0,1.2,0.1,1.7c0,0.5,0.1,1,0.3,1.5h-1.4
		l-0.5-1.7h-0.1c-0.1,0.2-0.3,0.4-0.5,0.7c-0.2,0.2-0.5,0.4-0.8,0.6c-0.3,0.2-0.7,0.3-1.1,0.4c-0.4,0.1-0.9,0.2-1.4,0.2
		c-0.5,0-1-0.1-1.4-0.2c-0.4-0.2-0.8-0.4-1.1-0.7c-0.3-0.3-0.6-0.7-0.8-1.1c-0.2-0.4-0.3-0.9-0.3-1.4c0-0.7,0.1-1.3,0.4-1.8
		c0.3-0.5,0.7-0.8,1.2-1.1c0.5-0.3,1.1-0.5,1.9-0.6c0.7-0.1,1.5-0.2,2.4-0.2c0.2,0,0.4,0,0.7,0c0.2,0,0.4,0,0.7,0
		c0-0.5,0.1-0.9,0.1-1.3c0-0.9-0.2-1.5-0.5-1.8c-0.4-0.4-1-0.5-1.9-0.5c-0.3,0-0.6,0-0.9,0.1c-0.3,0-0.6,0.1-1,0.2s-0.6,0.2-0.9,0.3
		c-0.3,0.1-0.6,0.2-0.8,0.4L148.1,20.8z M151.5,30.5c0.4,0,0.8-0.1,1.2-0.2c0.4-0.1,0.7-0.3,0.9-0.5c0.3-0.2,0.5-0.4,0.6-0.6
		c0.2-0.2,0.3-0.4,0.4-0.6v-2c-0.2,0-0.5,0-0.7,0c-0.2,0-0.5,0-0.7,0c-0.5,0-1,0-1.5,0.1c-0.5,0.1-0.9,0.2-1.2,0.3
		c-0.4,0.2-0.6,0.4-0.9,0.6c-0.2,0.3-0.3,0.6-0.3,1c0,0.6,0.2,1,0.6,1.4C150.4,30.3,150.9,30.5,151.5,30.5z"/>
	<path class="st1" d="M161.3,26.6V25h1.7c0.3,0,0.6,0,0.9-0.1c0.3-0.1,0.5-0.2,0.8-0.4c0.2-0.2,0.4-0.4,0.5-0.6
		c0.1-0.2,0.2-0.5,0.2-0.7c0-0.6-0.2-1.1-0.6-1.3c-0.4-0.3-1.1-0.4-1.9-0.4c-0.6,0-1.2,0.1-1.7,0.3c-0.5,0.2-0.9,0.4-1.2,0.5
		l-0.6-1.5c0.5-0.3,1-0.5,1.7-0.7c0.6-0.2,1.4-0.3,2.3-0.3c2.7,0,4,1,4,3c0,0.6-0.2,1.1-0.5,1.6c-0.4,0.5-0.9,0.9-1.5,1.1v0.1
		c0.9,0.2,1.6,0.5,2,1s0.6,1.2,0.6,2c0,0.5-0.1,1-0.3,1.4c-0.2,0.4-0.5,0.8-0.9,1.1c-0.4,0.3-0.9,0.6-1.6,0.8
		c-0.6,0.2-1.4,0.3-2.2,0.3c-0.8,0-1.5-0.1-2-0.2c-0.5-0.1-1-0.3-1.5-0.5l0.6-1.6c0.4,0.2,0.8,0.4,1.3,0.5s1.1,0.2,1.7,0.2
		c1,0,1.7-0.2,2.2-0.5s0.8-0.8,0.8-1.5c0-0.6-0.2-1-0.7-1.4c-0.5-0.3-1.3-0.5-2.4-0.5H161.3z"/>
	<path class="st1" d="M170.1,26c0-2,0.5-3.6,1.4-4.7c0.9-1.1,2.2-1.6,3.9-1.6c0.9,0,1.7,0.1,2.3,0.4c0.7,0.3,1.2,0.7,1.6,1.3
		c0.4,0.6,0.8,1.2,1,2c0.2,0.8,0.3,1.6,0.3,2.6c0,2-0.5,3.6-1.4,4.7c-0.9,1.1-2.2,1.6-3.9,1.6c-0.9,0-1.7-0.1-2.3-0.4
		s-1.2-0.7-1.6-1.3c-0.4-0.6-0.8-1.2-1-2C170.2,27.8,170.1,26.9,170.1,26z M172.1,26c0,0.6,0.1,1.2,0.2,1.8c0.1,0.6,0.3,1,0.6,1.5
		s0.6,0.8,1,1c0.4,0.3,0.9,0.4,1.5,0.4c2.2,0,3.3-1.5,3.3-4.6c0-0.6-0.1-1.2-0.2-1.8c-0.1-0.6-0.3-1-0.6-1.5s-0.6-0.7-1-1
		c-0.4-0.2-0.9-0.4-1.5-0.4C173.2,21.3,172.1,22.9,172.1,26z"/>
	<path class="st1" d="M183.6,20c0.6,0,1.1-0.1,1.8-0.1c0.6,0,1.4-0.1,2.3-0.1c1.6,0,2.7,0.2,3.4,0.7c0.7,0.5,1,1.2,1,2.2
		c0,0.6-0.2,1.1-0.5,1.6c-0.3,0.5-0.9,0.9-1.6,1.2v0.1c0.9,0.2,1.6,0.5,2,1c0.4,0.5,0.6,1.1,0.6,1.9c0,1.2-0.4,2.2-1.3,2.7
		c-0.9,0.6-2.2,0.8-4,0.8c-0.7,0-1.3,0-1.9-0.1c-0.6,0-1.1-0.1-1.7-0.1L183.6,20L183.6,20z M187.9,25c0.3,0,0.6,0,0.8-0.1
		c0.3-0.1,0.5-0.2,0.7-0.4c0.2-0.2,0.4-0.4,0.5-0.6c0.1-0.2,0.2-0.5,0.2-0.7c0-0.6-0.2-1.1-0.6-1.3c-0.4-0.2-1.1-0.4-2-0.4
		c-0.5,0-0.9,0-1.2,0c-0.3,0-0.6,0-0.9,0V25L187.9,25L187.9,25L187.9,25z M185.5,30.3c0.3,0,0.6,0.1,0.9,0.1c0.3,0,0.6,0,1,0
		c1.1,0,1.9-0.2,2.4-0.5c0.5-0.3,0.8-0.8,0.8-1.6c0-0.6-0.2-1-0.7-1.4c-0.4-0.4-1.2-0.5-2.3-0.5h-2.1V30.3z"/>
	<path class="st1" d="M194.9,26c0-2,0.5-3.6,1.4-4.7s2.2-1.6,3.9-1.6c0.9,0,1.7,0.1,2.3,0.4c0.7,0.3,1.2,0.7,1.6,1.3
		c0.4,0.6,0.8,1.2,1,2c0.2,0.8,0.3,1.6,0.3,2.6c0,2-0.5,3.6-1.4,4.7s-2.2,1.6-3.9,1.6c-0.9,0-1.7-0.1-2.3-0.4s-1.2-0.7-1.6-1.3
		c-0.4-0.6-0.8-1.2-1-2C195,27.8,194.9,26.9,194.9,26z M196.9,26c0,0.6,0.1,1.2,0.2,1.8c0.1,0.6,0.3,1,0.6,1.5s0.6,0.8,1,1
		c0.4,0.3,0.9,0.4,1.5,0.4c2.2,0,3.3-1.5,3.3-4.6c0-0.6-0.1-1.2-0.2-1.8c-0.1-0.6-0.3-1-0.6-1.5s-0.6-0.7-1-1
		c-0.4-0.2-0.9-0.4-1.5-0.4C198,21.3,196.9,22.9,196.9,26z"/>
	<path class="st1" d="M215.4,21.6h-5.1V32h-1.9V20h7V21.6z"/>
	<path class="st1" d="M216.8,26c0-2,0.5-3.6,1.4-4.7c0.9-1.1,2.2-1.6,3.9-1.6c0.9,0,1.7,0.1,2.3,0.4c0.7,0.3,1.2,0.7,1.6,1.3
		c0.4,0.6,0.8,1.2,1,2c0.2,0.8,0.3,1.6,0.3,2.6c0,2-0.5,3.6-1.4,4.7c-0.9,1.1-2.2,1.6-3.9,1.6c-0.9,0-1.7-0.1-2.3-0.4
		s-1.2-0.7-1.6-1.3c-0.4-0.6-0.8-1.2-1-2C216.9,27.8,216.8,26.9,216.8,26z M218.8,26c0,0.6,0.1,1.2,0.2,1.8c0.1,0.6,0.3,1,0.6,1.5
		s0.6,0.8,1,1c0.4,0.3,0.9,0.4,1.5,0.4c2.2,0,3.3-1.5,3.3-4.6c0-0.6-0.1-1.2-0.2-1.8c-0.1-0.6-0.3-1-0.6-1.5s-0.6-0.7-1-1
		c-0.4-0.2-0.9-0.4-1.5-0.4C219.9,21.3,218.8,22.9,218.8,26z"/>
	<path class="st1" d="M244,21.6h-5.3V32h-1.9V20h9.1v12H244L244,21.6L244,21.6z"/>
	<path class="st1" d="M249,26c0-2,0.5-3.6,1.4-4.7c0.9-1.1,2.2-1.6,3.9-1.6c0.9,0,1.7,0.1,2.3,0.4c0.7,0.3,1.2,0.7,1.6,1.3
		c0.4,0.6,0.8,1.2,1,2c0.2,0.8,0.3,1.6,0.3,2.6c0,2-0.5,3.6-1.4,4.7c-0.9,1.1-2.2,1.6-3.9,1.6c-0.9,0-1.7-0.1-2.3-0.4
		s-1.2-0.7-1.6-1.3c-0.4-0.6-0.8-1.2-1-2C249.1,27.8,249,26.9,249,26z M250.9,26c0,0.6,0.1,1.2,0.2,1.8c0.1,0.6,0.3,1,0.6,1.5
		c0.3,0.4,0.6,0.8,1,1c0.4,0.3,0.9,0.4,1.5,0.4c2.2,0,3.3-1.5,3.3-4.6c0-0.6-0.1-1.2-0.2-1.8c-0.1-0.6-0.3-1-0.6-1.5
		c-0.3-0.4-0.6-0.7-1-1c-0.4-0.2-0.9-0.4-1.5-0.4C252,21.3,250.9,22.9,250.9,26z"/>
	<path class="st1" d="M270.8,31.2c-0.5,0.4-1,0.6-1.7,0.8c-0.7,0.2-1.3,0.3-2.1,0.3c-0.9,0-1.7-0.1-2.4-0.4
		c-0.6-0.3-1.2-0.7-1.6-1.3c-0.4-0.6-0.7-1.2-0.9-2c-0.2-0.8-0.3-1.6-0.3-2.6c0-2,0.4-3.6,1.3-4.7s2.2-1.6,3.9-1.6
		c0.8,0,1.4,0.1,2,0.2c0.5,0.1,1,0.3,1.5,0.5L270,22c-0.4-0.2-0.8-0.4-1.2-0.5c-0.4-0.1-0.9-0.2-1.4-0.2c-2.3,0-3.4,1.5-3.4,4.6
		c0,0.6,0.1,1.2,0.2,1.7c0.1,0.6,0.3,1,0.6,1.5c0.3,0.4,0.6,0.8,1.1,1c0.5,0.3,1,0.4,1.7,0.4c0.6,0,1.1-0.1,1.5-0.3
		c0.5-0.2,0.8-0.4,1.1-0.6L270.8,31.2z"/>
	<path class="st1" d="M281.8,31c-0.5,0.4-1.1,0.7-1.8,0.9c-0.7,0.2-1.5,0.3-2.3,0.3c-0.9,0-1.7-0.1-2.4-0.4
		c-0.7-0.3-1.2-0.7-1.7-1.3c-0.4-0.6-0.8-1.2-1-2s-0.3-1.6-0.3-2.6c0-2,0.5-3.6,1.4-4.7c0.9-1.1,2.2-1.6,3.9-1.6
		c0.5,0,1.1,0.1,1.6,0.2c0.5,0.1,1,0.3,1.5,0.7c0.4,0.3,0.8,0.8,1.1,1.4c0.3,0.6,0.4,1.4,0.4,2.4c0,0.5,0,1.1-0.1,1.8h-7.7
		c0,0.7,0.1,1.3,0.2,1.9c0.1,0.5,0.4,1,0.7,1.4s0.7,0.7,1.2,0.9c0.5,0.2,1.1,0.3,1.8,0.3c0.5,0,1.1-0.1,1.6-0.3
		c0.5-0.2,1-0.4,1.2-0.7L281.8,31z M277.7,21.3c-0.9,0-1.7,0.2-2.3,0.7c-0.6,0.5-0.9,1.3-1,2.5h6c0-1.2-0.2-2.1-0.7-2.6
		C279.2,21.6,278.6,21.3,277.7,21.3z"/>
	<path class="st1" d="M300.9,35h-1.3l-0.4-3h-14V20h1.9v10.3h4.1V20h1.9v10.3h4.1V20h1.9v10.3h1.7L300.9,35L300.9,35z"/>
	<path class="st1" d="M312,31c-0.5,0.4-1.1,0.7-1.8,0.9c-0.7,0.2-1.5,0.3-2.3,0.3c-0.9,0-1.7-0.1-2.4-0.4c-0.7-0.3-1.2-0.7-1.7-1.3
		c-0.4-0.6-0.8-1.2-1-2c-0.2-0.8-0.3-1.6-0.3-2.6c0-2,0.5-3.6,1.4-4.7s2.2-1.6,3.9-1.6c0.5,0,1.1,0.1,1.6,0.2c0.5,0.1,1,0.3,1.5,0.7
		c0.4,0.3,0.8,0.8,1.1,1.4c0.3,0.6,0.4,1.4,0.4,2.4c0,0.5,0,1.1-0.1,1.8h-7.7c0,0.7,0.1,1.3,0.2,1.9c0.1,0.5,0.4,1,0.7,1.4
		c0.3,0.4,0.7,0.7,1.2,0.9c0.5,0.2,1.1,0.3,1.8,0.3c0.5,0,1.1-0.1,1.6-0.3c0.5-0.2,1-0.4,1.2-0.7L312,31z M307.8,21.3
		c-0.9,0-1.7,0.2-2.3,0.7c-0.6,0.5-0.9,1.3-1,2.5h6c0-1.2-0.2-2.1-0.7-2.6C309.3,21.6,308.7,21.3,307.8,21.3z"/>
	<path class="st1" d="M322.6,26.6h-5.4V32h-1.9V20h1.9v5h5.4v-5h1.9v12h-1.9V26.6z"/>
	<path class="st1" d="M335.6,24.8l0.1-1.5h-0.1l-1,1.5l-5.4,7.1h-1.1V20h1.9v7.3l-0.1,1.4h0.1l0.9-1.5l5.4-7.2h1.1v12h-1.9
		L335.6,24.8C335.6,24.8,335.6,24.8,335.6,24.8z"/>
	<path class="st1" d="M347.3,27l-1.8,0.3l-3.2,4.7H340l2.9-4.1l1-0.9c-0.8-0.1-1.5-0.5-2.1-1c-0.6-0.5-0.9-1.3-0.9-2.2
		c0-0.7,0.1-1.3,0.4-1.8c0.2-0.5,0.6-0.9,1.1-1.3c0.5-0.3,1-0.6,1.7-0.7c0.6-0.2,1.4-0.2,2.2-0.2c0.6,0,1.1,0,1.7,0.1
		c0.5,0.1,1,0.2,1.5,0.3V32h-1.9L347.3,27L347.3,27z M347.3,21.6c-0.2-0.1-0.4-0.1-0.7-0.2s-0.5-0.1-0.7-0.1c-1,0-1.8,0.2-2.3,0.6
		s-0.8,1-0.8,1.8c0,0.7,0.3,1.3,0.9,1.7c0.6,0.4,1.3,0.6,2.2,0.6c0,0,0,0,0.1,0c0,0,0.1,0,0.2,0c0.1,0,0.2,0,0.4,0
		c0.2,0,0.4,0,0.7,0L347.3,21.6L347.3,21.6z"/>
	<path class="st1" d="M70.5,66.8c0-5.6,0-11.2,0-16.8c2.4,0,4.9,0,7.4,0c8,0,8,12.5,0,12.5h-3.1v4.3C73.4,66.8,71.9,66.8,70.5,66.8z
		 M77.9,53.8c-1,0-2.1,0-3.1,0c0,1.4,0,3.4,0,4.8h3.1C80.2,58.6,80.4,53.8,77.9,53.8z"/>
	<path class="st1" d="M87.7,66.3l2.6-5.4l-5.7-10.3V50h4.8l3.2,6.2h0.1l2.9-6.2h4.7v0.6l-8,16.2h-4.6V66.3z"/>
	<path class="st1" d="M109.8,55.8c8,0,8,10.9,0,10.9h-7.4V49.9h12.1v3.8h-7.8v2H109.8z M106.7,59.6v3.3c1,0,2.1,0,3.1,0
		c2.4,0,2.4-3.3,0-3.3H106.7z"/>
	<path class="st1" d="M120.9,66.8h-4.2v-0.6l7.6-16.4h1.8l7.6,16.4v0.6h-4.2l-4.3-9.8L120.9,66.8z"/>
	<path class="st1" d="M146.3,53.8c-2.5,0-3.7,0-6.2,0v2.4h5.7c0,1.3,0,2.5,0,3.8h-5.7c0,1,0,1.9,0,3c2.5,0,3.9,0,6.4,0
		c0,1.2,0,2.5,0,3.8c-3.9,0-6.8,0-10.7,0c0-5.6,0-11.2,0-16.8c3.9,0,6.6,0,10.5,0C146.3,51.2,146.3,52.5,146.3,53.8z"/>
	<path class="st1" d="M151.7,66.8h-1.5V49.9c1.5,0,2.9,0,4.4,0v8.2l8.5-8.3h1.6v16.9c-1.5,0-3,0-4.4,0v-8.3L151.7,66.8z M156.3,44.7
		c-0.8,0-1.7,0.1-2.5,0.2c0.1,2.7,1.6,4.1,4.2,4.1c2.7,0,4.1-1.4,4.2-4.1c-0.8-0.1-1.6-0.2-2.5-0.2c-0.1,1-0.8,1.3-1.8,1.3
		C157,46,156.4,45.6,156.3,44.7z"/>
</g>
<g>
	<path class="st1" d="M23.2,55.7c0.5,0,0.9,0,1.4,0c3.5,0.1,6.3,1.3,6.3,5.6c0,2.8-2,5.8-5.9,5.8c-3.3,0-5.7-2.1-5.8-5.4H23
		c0,1.1,0.7,1.6,1.9,1.6c1.2,0,1.8-0.9,1.8-2c0-1.8-1.8-2.3-3.6-2.3c-1.3-0.1-2.7,0.1-3.5,0.1v-9.1h10.5v3.6h-6.9V55.7z"/>
	<path class="st1" d="M46.1,55.4v5.9c0,3.7-2.8,5.8-6.3,5.8c-3.5,0-6.3-2.1-6.3-5.8v-5.9c0-3.6,2.8-5.8,6.3-5.8
		C43.3,49.6,46.1,51.7,46.1,55.4z M42,61.2v-5.7c0-1.4-1-2.1-2.2-2.1c-1.3,0-2.2,0.7-2.2,2.1v5.7c0,1.3,0.9,2,2.2,2
		C41,63.2,42,62.6,42,61.2z"/>
	<path class="st1" d="M61.6,55.4v5.9c0,3.7-2.8,5.8-6.3,5.8c-3.5,0-6.3-2.1-6.3-5.8v-5.9c0-3.6,2.8-5.8,6.3-5.8
		C58.8,49.6,61.6,51.7,61.6,55.4z M57.5,61.2v-5.7c0-1.4-1-2.1-2.2-2.1c-1.3,0-2.2,0.7-2.2,2.1v5.7c0,1.3,0.9,2,2.2,2
		C56.6,63.2,57.5,62.6,57.5,61.2z"/>
</g>
</svg>
