<svg width="281" height="112" viewBox="0 0 281 112" fill="none" xmlns="http://www.w3.org/2000/svg">
<path d="M264.84 0H0V112H211.97V79H280.72V35H264.84V0Z" fill="#E50647"/>
<path d="M31.6897 71.3896C31.8098 76.8398 35.3596 79.5698 41.0496 79.5698C46.7395 79.5698 50.0496 75.1797 50.1795 69.5698C50.0603 57.5947 38.2283 58.0679 29.2351 58.4268L29.1795 58.4297V55.6196L40.1795 32.6196H16.2796V13.7798H68.9998V16.8599L53.7097 44.8599C66.8694 48.1699 70.7097 58.8599 70.7097 69.5098C70.8299 83.6196 60.7097 98.4297 41.5496 98.4297C36.3826 98.5972 31.2659 97.3672 26.7395 94.8696C22.5608 92.5469 19.0862 89.1396 16.6824 85.0073C14.2781 80.875 13.0335 76.1704 13.0799 71.3896H31.6897Z" fill="white"/>
<path fill-rule="evenodd" clip-rule="evenodd" d="M91.3699 22.0898C91.2303 19.9922 91.805 17.9092 92.9998 16.1797C93.555 15.4937 94.2649 14.9487 95.0716 14.5903C95.368 14.459 95.6741 14.354 95.9866 14.2764C96.2283 14.2158 96.4744 14.1719 96.7224 14.1445C97.0262 14.1113 97.3328 14.1025 97.6399 14.1196C98.1912 14.106 98.74 14.1626 99.2737 14.2876C99.4783 14.3354 99.6809 14.3936 99.8806 14.4614C99.9475 14.4839 100.014 14.5078 100.08 14.5327C100.208 14.5811 100.335 14.6333 100.46 14.6899C101.248 15.0591 101.935 15.6152 102.46 16.3101C103.005 17.063 103.395 17.9155 103.61 18.8198C103.73 19.3076 103.822 19.8018 103.886 20.2993C103.961 20.8926 103.996 21.4907 103.99 22.0898C104.126 24.1855 103.548 26.2651 102.35 27.9897C102.04 28.3682 101.683 28.7036 101.289 28.9883C100.968 29.2202 100.622 29.4189 100.256 29.5796C99.8098 29.7759 99.3416 29.9131 98.8631 29.9888C98.47 30.0513 98.0701 30.0718 97.6697 30.0498C97.1829 30.062 96.6975 30.0176 96.2234 29.9185C95.9383 29.8589 95.6575 29.7798 95.3826 29.6812C95.2161 29.6211 95.0515 29.5542 94.8899 29.48C94.0989 29.1147 93.4114 28.5581 92.8899 27.8599C92.3396 27.1104 91.9485 26.2559 91.74 25.3501C91.4803 24.2832 91.3557 23.188 91.3699 22.0898ZM93.3098 22.0898C93.305 22.9033 93.3885 23.7148 93.5598 24.5098C93.7107 25.2144 93.9739 25.8896 94.3401 26.5098C94.6746 27.0728 95.1375 27.5488 95.6897 27.8999C95.9685 28.0664 96.2674 28.1938 96.5769 28.2798C96.9373 28.3799 97.3123 28.4243 97.6897 28.4097C98.3113 28.437 98.93 28.3101 99.4905 28.0396C100.051 27.769 100.535 27.3638 100.9 26.8599C101.761 25.4258 102.145 23.7559 102 22.0898C102 21.2803 101.916 20.4727 101.75 19.6797C101.596 18.9731 101.326 18.2974 100.95 17.6797C100.722 17.3037 100.438 16.9673 100.108 16.6821C99.9456 16.542 99.7727 16.4141 99.5901 16.2998C98.9886 15.9346 98.2932 15.7539 97.5901 15.7798C96.9734 15.7573 96.3606 15.8872 95.8064 16.1577C95.2517 16.4277 94.7722 16.8306 94.4099 17.3301C93.5559 18.7632 93.1712 20.4272 93.3098 22.0898Z" fill="white"/>
<path d="M110.44 20.3301H113.88V18.79H105.25V20.3301H108.69V29.79H110.44V20.3301Z" fill="white"/>
<path d="M118.39 24.8398H117.39V29.79H115.62V18.79H117.39V23.79L118.33 23.48L121.85 18.8198H123.76L120.35 23.2402L119.43 23.96L120.57 24.8398L124.25 29.8398H122.07L118.39 24.8398Z" fill="white"/>
<path fill-rule="evenodd" clip-rule="evenodd" d="M127.34 18.79H126.13L126.179 34.1899H127.94V29.6099C128.262 29.7534 128.596 29.8672 128.94 29.9497C129.365 30.0269 129.797 30.0605 130.23 30.0498C130.945 30.0605 131.655 29.917 132.31 29.6299C132.692 29.4609 133.047 29.2393 133.365 28.9722L133.456 28.8931C133.501 28.854 133.544 28.814 133.587 28.7729C133.631 28.731 133.674 28.688 133.716 28.644C133.779 28.5781 133.841 28.5103 133.9 28.4399C134.354 27.8857 134.695 27.2466 134.9 26.5601C134.983 26.292 135.053 26.02 135.107 25.7456C135.151 25.5234 135.186 25.2998 135.211 25.0747L135.225 24.9429C135.238 24.8027 135.248 24.6611 135.253 24.5195C135.26 24.3696 135.262 24.2197 135.26 24.0698C135.39 22.5718 135.01 21.0737 134.179 19.8198C133.995 19.6167 133.792 19.4341 133.572 19.2739C133.301 19.0767 133.005 18.9131 132.691 18.7886C132.122 18.5635 131.51 18.4712 130.9 18.52C130.266 18.5098 129.638 18.6504 129.07 18.9297C128.692 19.1187 128.355 19.377 128.076 19.6904C127.96 19.8213 127.854 19.9614 127.76 20.1099H127.67L127.34 18.79ZM128.8 20.6499C129.295 20.2383 129.927 20.0278 130.57 20.0601C130.753 20.0547 130.936 20.0669 131.116 20.0967C131.257 20.1201 131.396 20.1538 131.532 20.1978C131.661 20.2393 131.787 20.29 131.909 20.3501C132.263 20.542 132.565 20.8164 132.79 21.1499C132.912 21.3481 133.016 21.5571 133.099 21.7739C133.178 21.9795 133.239 22.1924 133.28 22.4102C133.384 22.9468 133.434 23.4932 133.429 24.04C133.473 24.6509 133.411 25.2607 133.249 25.8428C133.097 26.3862 132.859 26.9058 132.54 27.3799C132.258 27.7471 131.891 28.041 131.472 28.2378C131.372 28.2847 131.27 28.3257 131.167 28.3604C131.098 28.3833 131.028 28.4038 130.958 28.4219C130.89 28.4395 130.821 28.4541 130.752 28.4668C130.547 28.5034 130.339 28.5181 130.13 28.5098C129.944 28.5166 129.758 28.5112 129.573 28.4932C129.308 28.4673 129.046 28.416 128.79 28.3398C128.462 28.2422 128.157 28.0825 127.889 27.8701V22.4199C128 21.749 128.318 21.1299 128.8 20.6499Z" fill="white"/>
<path fill-rule="evenodd" clip-rule="evenodd" d="M139.789 23C140.12 22.9424 140.454 22.9023 140.789 22.8799H141.72C142.356 22.8662 142.991 22.9541 143.599 23.1401C144.052 23.2783 144.468 23.5142 144.82 23.8301C144.992 23.9878 145.139 24.1694 145.258 24.3687C145.33 24.4902 145.392 24.6182 145.442 24.7515L145.47 24.8301C145.595 25.2451 145.659 25.6763 145.659 26.1099C145.708 26.6436 145.634 27.1812 145.443 27.6816C145.252 28.1826 144.95 28.6333 144.559 29C143.492 29.6895 142.226 30.0063 140.96 29.8999C140.02 29.8999 139.039 29.8501 138.03 29.77V18.77H139.789V23ZM140.69 28.3628C140.909 28.3784 141.129 28.3877 141.349 28.3901C142.041 28.4629 142.735 28.2695 143.289 27.8501C143.412 27.7065 143.516 27.5493 143.599 27.3823C143.759 27.064 143.843 26.7109 143.843 26.3501C143.843 25.8003 143.647 25.2681 143.289 24.8501C143.03 24.6343 142.73 24.4731 142.407 24.375C142.353 24.3589 142.298 24.3442 142.243 24.3315C142.192 24.3193 142.14 24.3091 142.088 24.3003C142.051 24.2944 142.014 24.2891 141.976 24.2847C141.788 24.2617 141.598 24.2603 141.409 24.2798H140.599C140.322 24.29 140.047 24.3335 139.78 24.4102L139.789 28.2603C140.088 28.3071 140.389 28.3413 140.69 28.3628Z" fill="white"/>
<path d="M147.4 18.7998H149.159V29.7998H147.4V18.7998Z" fill="white"/>
<path d="M156.12 20.3301H159.55V18.79H150.92V20.3301H154.36V29.79H156.12V20.3301Z" fill="white"/>
<path fill-rule="evenodd" clip-rule="evenodd" d="M163.05 23C163.381 22.9419 163.715 22.9019 164.05 22.8799H164.97C165.332 22.8716 165.693 22.8965 166.05 22.9536C166.32 22.9971 166.587 23.0591 166.85 23.1401C167.303 23.2764 167.72 23.5122 168.07 23.8301C168.371 24.1006 168.595 24.4453 168.72 24.8301C168.85 25.2441 168.914 25.6758 168.91 26.1099C168.937 26.4067 168.926 26.7051 168.878 26.9976C168.839 27.2305 168.778 27.4595 168.693 27.6816C168.503 28.1826 168.2 28.6333 167.81 29C166.743 29.6909 165.476 30.0078 164.21 29.8999C163.27 29.8999 162.3 29.8501 161.29 29.77V18.77H163.05V23ZM163.05 28.2603C163.566 28.3413 164.087 28.3848 164.61 28.3901C164.793 28.4092 164.976 28.4097 165.156 28.3921C165.328 28.3755 165.497 28.3428 165.662 28.2939C165.863 28.2349 166.056 28.1528 166.239 28.0488L166.322 28.0005L166.406 27.9463L166.467 27.9033L166.54 27.8501C166.897 27.4316 167.093 26.8999 167.093 26.3501C167.093 25.8003 166.897 25.2681 166.54 24.8501C166.491 24.8101 166.442 24.7715 166.391 24.7349L166.318 24.6836C166.253 24.6406 166.187 24.6006 166.118 24.564C165.972 24.4854 165.818 24.4209 165.658 24.3726C165.335 24.2744 164.995 24.2432 164.66 24.2798H163.85L163.794 24.2822L163.719 24.2871C163.629 24.2939 163.539 24.3047 163.45 24.3188C163.311 24.3408 163.175 24.3711 163.04 24.4102L163.05 28.2603Z" fill="white"/>
<path d="M170.66 18.7998H172.42V29.7998H170.66V18.7998Z" fill="white"/>
<path fill-rule="evenodd" clip-rule="evenodd" d="M183.396 29.2119C183.492 29.1538 183.587 29.0923 183.679 29.0273C183.734 28.9893 183.787 28.9502 183.84 28.9102L183.16 27.6299C182.829 27.9111 182.445 28.1221 182.03 28.25C181.75 28.3486 181.461 28.4194 181.169 28.4619C180.961 28.4922 180.751 28.5083 180.54 28.5098C179.981 28.5249 179.424 28.4331 178.9 28.2397C178.474 28.0698 178.099 27.7949 177.81 27.4399C177.517 27.0679 177.306 26.6387 177.19 26.1797C177.054 25.6167 176.99 25.0391 177 24.46H184.08C184.164 23.9307 184.207 23.396 184.21 22.8599C184.235 22.0962 184.109 21.335 183.84 20.6201C183.618 20.1084 183.275 19.6587 182.84 19.3101C182.662 19.1758 182.472 19.0591 182.273 18.9614C182.028 18.8413 181.768 18.75 181.5 18.6899C181.283 18.6411 181.063 18.6025 180.842 18.5747L180.748 18.5635L180.636 18.5522L180.517 18.5415L180.466 18.5376C180.311 18.5269 180.156 18.521 180 18.52C179.333 18.4834 178.667 18.5972 178.051 18.8535C177.434 19.1094 176.884 19.5015 176.44 20C175.528 21.2363 175.085 22.7568 175.19 24.29C175.177 25.0894 175.274 25.8872 175.48 26.6602C175.536 26.8828 175.607 27.1011 175.693 27.313C175.785 27.5396 175.893 27.7588 176.016 27.9697C176.12 28.1465 176.235 28.3169 176.36 28.48C176.528 28.6934 176.718 28.8877 176.925 29.0601C177.21 29.2969 177.528 29.4927 177.87 29.6401C178.56 29.9253 179.303 30.0649 180.05 30.0498C180.768 30.0562 181.483 29.9517 182.17 29.7397C182.353 29.689 182.533 29.6274 182.709 29.5562C182.837 29.5044 182.962 29.4473 183.084 29.3848C183.19 29.3311 183.294 29.2734 183.396 29.2119ZM177.97 20.7397C178.556 20.2661 179.297 20.0244 180.05 20.0601C180.381 20.041 180.713 20.0903 181.025 20.2061C181.336 20.3213 181.62 20.4995 181.86 20.73C182.35 21.4102 182.574 22.2461 182.49 23.0801H177.04C177.043 22.2104 177.375 21.3745 177.97 20.7397Z" fill="white"/>
<path d="M196.1 25.9102L196.72 28.0298H196.83L197.31 25.8901L199.46 18.79H201.22L198 28.6602C197.75 29.3799 197.5 30.0801 197.26 30.75C197.206 30.9058 197.148 31.0601 197.088 31.2134C197 31.436 196.906 31.6558 196.805 31.873C196.698 32.1055 196.582 32.3345 196.46 32.5601C196.208 33.0386 195.869 33.4663 195.46 33.8198C195.108 34.1343 194.652 34.3052 194.18 34.2998C193.74 34.312 193.302 34.2373 192.89 34.0801L193.19 32.5601C193.496 32.6787 193.833 32.6875 194.145 32.5854C194.457 32.4834 194.723 32.2764 194.9 32C195.384 31.3394 195.709 30.5767 195.85 29.77L191.43 18.77H193.43L196.1 25.9102Z" fill="white"/>
<path fill-rule="evenodd" clip-rule="evenodd" d="M204.32 18.79H203.11L203.15 34.1899H204.909V29.6099C205.057 29.6772 205.207 29.7378 205.361 29.791C205.54 29.8535 205.724 29.9067 205.909 29.9497C206.335 30.0273 206.767 30.0605 207.199 30.0498C207.915 30.0586 208.624 29.9155 209.28 29.6299C209.58 29.4971 209.864 29.3311 210.127 29.1362C210.189 29.0903 210.25 29.0425 210.309 28.9932C210.512 28.8262 210.699 28.6411 210.869 28.4399C211.324 27.8862 211.665 27.2471 211.869 26.5601C212.128 25.7559 212.253 24.9146 212.24 24.0698C212.37 22.5718 211.99 21.0737 211.159 19.8198C210.957 19.6235 210.738 19.4473 210.505 19.2925C210.309 19.1621 210.103 19.0464 209.889 18.9473C209.524 18.7783 209.137 18.6567 208.737 18.5869C208.319 18.5142 207.896 18.5 207.479 18.5425C206.984 18.5928 206.498 18.7227 206.04 18.9302C205.507 19.1978 205.058 19.606 204.74 20.1099H204.65L204.32 18.79ZM205.78 20.6499C206.273 20.2358 206.906 20.0249 207.55 20.0601C208.01 20.0464 208.467 20.1455 208.88 20.3501C209.235 20.5391 209.538 20.814 209.76 21.1499C209.821 21.2471 209.877 21.3467 209.929 21.4487C209.949 21.4873 209.968 21.5259 209.986 21.5649L210.021 21.645L210.05 21.7114C210.076 21.7769 210.101 21.8428 210.124 21.9092C210.181 22.0723 210.226 22.2397 210.26 22.4102C210.311 22.6738 210.349 22.9399 210.374 23.207C210.4 23.4839 210.412 23.7617 210.409 24.04C210.49 25.2212 210.177 26.3955 209.52 27.3799C209.237 27.7466 208.87 28.04 208.451 28.2368C208.399 28.2612 208.346 28.2842 208.293 28.3052L208.197 28.3418C208.074 28.3857 207.947 28.4219 207.819 28.4487C207.713 28.4712 207.605 28.4878 207.496 28.4985C207.368 28.5107 207.239 28.5146 207.11 28.5098C206.657 28.5273 206.204 28.4697 205.77 28.3398C205.442 28.2446 205.136 28.0845 204.869 27.8701V22.4199C204.975 21.7476 205.294 21.127 205.78 20.6499Z" fill="white"/>
<path fill-rule="evenodd" clip-rule="evenodd" d="M214.39 24.29C214.285 22.7573 214.728 21.2368 215.64 20C216.082 19.4956 216.633 19.0991 217.252 18.8408C217.871 18.5825 218.541 18.4692 219.21 18.5103C219.948 18.4956 220.68 18.6353 221.36 18.9199C221.948 19.1782 222.463 19.5767 222.86 20.0801C223.275 20.6235 223.575 21.2461 223.74 21.9102C223.794 22.1211 223.841 22.334 223.881 22.5483C223.898 22.6421 223.913 22.7358 223.928 22.8296C224 23.3091 224.034 23.7944 224.03 24.2803C224.129 25.8076 223.69 27.3218 222.79 28.5601C222.563 28.8154 222.308 29.043 222.031 29.2388C221.763 29.4272 221.474 29.5859 221.17 29.7119C220.838 29.8496 220.492 29.9453 220.139 29.9985C219.832 30.0449 219.521 30.0591 219.21 30.04C218.476 30.0562 217.746 29.9165 217.07 29.6299C216.478 29.375 215.959 28.9761 215.56 28.4702C215.145 27.9268 214.845 27.3037 214.68 26.6401C214.603 26.3418 214.541 26.04 214.494 25.7358C214.421 25.2578 214.387 24.7744 214.39 24.29ZM216.22 24.29C216.217 24.8276 216.27 25.3638 216.38 25.8901C216.476 26.3628 216.652 26.8159 216.9 27.23C216.98 27.3608 217.07 27.4849 217.168 27.6006C217.355 27.8184 217.574 28.0073 217.82 28.1602C218.243 28.4009 218.723 28.522 219.21 28.5103C221.21 28.5103 222.21 27.1201 222.21 24.29C222.212 24.0459 222.202 23.8022 222.181 23.5591C222.156 23.2573 222.112 22.957 222.05 22.6602C221.959 22.1855 221.783 21.7319 221.53 21.3203C221.441 21.1699 221.338 21.0293 221.221 20.9004C221.045 20.7046 220.839 20.5356 220.61 20.3999C220.185 20.166 219.705 20.0488 219.22 20.0601C217.227 20.02 216.227 21.4302 216.22 24.29Z" fill="white"/>
<path d="M228.57 24.8398H229.57L233.22 29.8101H235.4L231.72 24.8101L230.579 23.9302L231.5 23.21L234.909 18.79H233L229.51 23.48L228.559 23.79V18.79H226.8V29.79H228.57V24.8398Z" fill="white"/>
<path d="M244.18 23.27L244.25 21.9102H244.18L243.28 23.3198L238.33 29.79H237.33V18.79H239.09V25.5L239 26.79H239.09L239.95 25.4302L244.9 18.79H245.9V29.79H244.14L244.18 23.27Z" fill="white"/>
<path d="M97.7698 61.8003C98.3304 61.6499 98.8592 61.3989 99.3299 61.0601L98.6897 59.7202C98.5462 59.8286 98.3953 59.9272 98.2386 60.0151C98.0628 60.1138 97.8792 60.1992 97.6897 60.27C97.2351 60.4355 96.7537 60.5166 96.2698 60.5103C96.0916 60.5156 95.9138 60.5059 95.7386 60.4814C95.5203 60.4512 95.3055 60.3984 95.0979 60.3242C94.969 60.2778 94.8426 60.2231 94.72 60.1602C94.3152 59.9331 93.972 59.6104 93.72 59.2202C93.4529 58.8125 93.2664 58.3579 93.1697 57.8804C93.0564 57.3579 92.9993 56.8247 92.9998 56.29C92.9998 53.4702 94.0598 52.0601 96.18 52.0601L96.3133 52.0615C96.3572 52.0625 96.4012 52.064 96.4451 52.0664L96.5325 52.0713L96.5984 52.0762C96.68 52.083 96.7615 52.0913 96.843 52.1016C96.9158 52.1108 96.9886 52.1221 97.0613 52.1348C97.1136 52.1436 97.1653 52.1533 97.2171 52.1641C97.3118 52.1831 97.406 52.2051 97.4998 52.23C97.7073 52.2847 97.9104 52.353 98.1087 52.4346C98.2835 52.5063 98.4544 52.5884 98.6199 52.6802L99.1302 51.1602C98.7044 50.9482 98.2542 50.7905 97.7898 50.6899C97.4993 50.6299 97.2058 50.5854 96.9109 50.5571C96.6082 50.5278 96.304 50.5156 95.9998 50.52C95.3343 50.4775 94.6678 50.5889 94.052 50.8452C93.7644 50.9653 93.4915 51.1157 93.2376 51.293C92.948 51.4946 92.6834 51.7319 92.45 52C91.5496 53.2417 91.114 54.7603 91.22 56.29C91.2107 57.084 91.2947 57.876 91.47 58.6499L91.4988 58.7715C91.5139 58.8325 91.5305 58.8926 91.5476 58.9521C91.5662 59.0176 91.5862 59.0825 91.6077 59.147C91.6263 59.2031 91.6458 59.2588 91.6663 59.314C91.6883 59.3735 91.7112 59.4326 91.7356 59.4912C91.7786 59.5942 91.8245 59.6958 91.8738 59.7959C91.991 60.0337 92.1267 60.2622 92.2801 60.48C92.4554 60.7124 92.6565 60.9229 92.8787 61.1074C93.136 61.3213 93.4221 61.501 93.7298 61.6401C94.4085 61.9312 95.1419 62.0708 95.8802 62.0503C96.5183 62.0547 97.1546 61.9707 97.7698 61.8003Z" fill="white"/>
<path d="M114.25 52.3301H109.389V61.79H107.63V50.79H116V61.79H114.24L114.25 52.3301Z" fill="white"/>
<path fill-rule="evenodd" clip-rule="evenodd" d="M120.61 50.79H119.4V66.1899H121.179V61.6099C121.501 61.7549 121.836 61.8687 122.179 61.9497C122.605 62.0269 123.037 62.0605 123.47 62.0498C124.185 62.0586 124.894 61.9155 125.55 61.6299C125.998 61.4312 126.41 61.1597 126.768 60.8281C126.9 60.7065 127.024 60.5771 127.14 60.4399C127.591 59.8833 127.93 59.2451 128.14 58.5601C128.169 58.4658 128.197 58.3711 128.222 58.2759C128.243 58.1987 128.263 58.1211 128.282 58.043C128.352 57.748 128.406 57.4497 128.442 57.1494C128.486 56.792 128.505 56.4312 128.5 56.0698C128.631 54.5718 128.25 53.0737 127.42 51.8198C127.199 51.5767 126.95 51.3623 126.678 51.1807C126.634 51.1509 126.588 51.1216 126.542 51.0933C126.481 51.0562 126.419 51.021 126.356 50.9868C126.296 50.9546 126.235 50.9238 126.174 50.8945C126.14 50.8784 126.107 50.8633 126.074 50.8486L126.006 50.8198L125.931 50.7886C125.559 50.6411 125.168 50.5508 124.771 50.5195C124.675 50.5117 124.578 50.5078 124.481 50.5073C124.367 50.5063 124.254 50.5107 124.14 50.52C123.506 50.5098 122.879 50.6504 122.31 50.9297C122.254 50.9575 122.198 50.9873 122.143 51.0181C122.066 51.0625 121.99 51.1094 121.916 51.1597C121.857 51.2002 121.799 51.2427 121.742 51.2871C121.67 51.3442 121.599 51.4043 121.532 51.4673C121.422 51.5698 121.319 51.6802 121.223 51.7974C121.188 51.8403 121.155 51.8843 121.122 51.9297C121.079 51.9883 121.038 52.0483 121 52.1099H120.94L120.61 50.79ZM122.07 52.6499C122.563 52.2358 123.196 52.0249 123.84 52.0601C124.297 52.0337 124.753 52.1196 125.17 52.3101C125.527 52.4966 125.83 52.772 126.05 53.1099C126.297 53.4932 126.467 53.9214 126.55 54.3701C126.62 54.7339 126.666 55.1021 126.687 55.4717C126.692 55.5635 126.696 55.6558 126.698 55.748C126.699 55.832 126.7 55.916 126.699 56C126.794 57.1948 126.48 58.3862 125.81 59.3799C125.678 59.5513 125.527 59.7065 125.362 59.8433C125.173 59.9995 124.965 60.1318 124.741 60.2368C124.323 60.4331 123.862 60.5269 123.4 60.5098C122.947 60.5269 122.494 60.4692 122.06 60.3398C121.877 60.2871 121.701 60.2139 121.536 60.1226C121.404 60.0498 121.278 59.9653 121.159 59.8701V54.4199C121.265 53.7476 121.584 53.127 122.07 52.6499Z" fill="white"/>
<path d="M138.16 55.27L138.23 53.9102H138.16L137.26 55.3198L132.31 61.79H131.31V50.79H133.07V57.5L133 58.79H133.09L133.95 57.4302L138.9 50.79H139.9V61.79H138.14L138.16 55.27Z" fill="white"/>
<path d="M145.07 52.3301H149.74V50.79H143.31V61.79H145.07V52.3301Z" fill="white"/>
<path d="M156.89 52.3301H153.7C153.7 52.6016 153.682 52.8848 153.658 53.1792C153.635 53.458 153.607 53.7461 153.582 54.0435L153.56 54.3301C153.51 55.0498 153.45 55.75 153.37 56.46C153.29 57.1699 153.16 57.8501 153.01 58.46C152.888 59.0527 152.7 59.6294 152.45 60.1802C152.261 60.6338 151.978 61.043 151.62 61.3799C151.299 61.6753 150.876 61.8359 150.44 61.8301C150.313 61.8389 150.187 61.8433 150.06 61.8428C149.943 61.8428 149.826 61.8384 149.71 61.8301C149.521 61.8027 149.337 61.7524 149.16 61.6802L149.43 60.2002C149.614 60.2622 149.806 60.293 150 60.29C150.151 60.2886 150.299 60.2549 150.435 60.1909C150.572 60.127 150.693 60.0347 150.79 59.9199C151.103 59.501 151.316 59.0146 151.41 58.5C151.622 57.5444 151.769 56.5757 151.85 55.6001C151.97 54.3701 152.05 52.77 152.09 50.79H158.65V61.79H156.89V52.3301Z" fill="white"/>
<path fill-rule="evenodd" clip-rule="evenodd" d="M163.8 50.8496C163.116 50.9893 162.46 51.2427 161.86 51.5996L162.34 52.9697C162.405 52.9321 162.47 52.8965 162.536 52.8628C162.589 52.8359 162.642 52.8101 162.695 52.7852L162.778 52.7476L162.857 52.7144L162.91 52.6929L162.981 52.6655L163.05 52.6396C163.331 52.542 163.618 52.4619 163.91 52.3999C164.21 52.3296 164.5 52.2397 164.79 52.2397C165.055 52.2012 165.322 52.1812 165.59 52.1797C165.889 52.147 166.189 52.1689 166.476 52.2422C166.789 52.3223 167.086 52.4629 167.35 52.6597C167.564 52.9326 167.714 53.2466 167.791 53.5786C167.825 53.7231 167.845 53.8716 167.851 54.021C167.856 54.1333 167.852 54.2466 167.84 54.3599C167.84 54.4956 167.837 54.6313 167.831 54.7666C167.826 54.8809 167.82 54.9951 167.812 55.1094C167.806 55.1914 167.799 55.2734 167.791 55.355L167.77 55.5498C167.65 55.5308 167.529 55.5166 167.407 55.5088C167.328 55.5034 167.249 55.5005 167.17 55.5H166.56C165.82 55.4966 165.081 55.5532 164.35 55.6699C163.753 55.7544 163.175 55.9404 162.64 56.2197C162.184 56.4473 161.798 56.7925 161.52 57.2197C161.43 57.3804 161.355 57.5483 161.296 57.7207C161.241 57.8779 161.2 58.0396 161.172 58.2036C161.136 58.4126 161.122 58.626 161.13 58.8398C161.122 59.2856 161.207 59.7285 161.38 60.1396C161.436 60.272 161.503 60.3999 161.578 60.522C161.716 60.7451 161.884 60.9487 162.077 61.1274C162.378 61.4033 162.733 61.6118 163.12 61.7397C163.54 61.8911 163.984 61.9658 164.43 61.96C164.654 61.9629 164.877 61.9502 165.098 61.9219C165.247 61.9028 165.394 61.877 165.541 61.8438L165.68 61.8096C166.029 61.7241 166.365 61.5933 166.68 61.4199C166.942 61.2793 167.184 61.1045 167.4 60.8999C167.583 60.7134 167.748 60.5093 167.89 60.2896H168L168.5 61.8296H169.8C169.675 61.3921 169.595 60.9434 169.56 60.4897C169.511 59.978 169.487 59.4639 169.49 58.9497C169.49 58.1997 169.5 57.3999 169.56 56.5698C169.588 56.1836 169.603 55.791 169.611 55.3931C169.62 54.9355 169.62 54.4707 169.62 54C169.62 53.9336 169.619 53.8672 169.616 53.8008C169.613 53.7026 169.608 53.6045 169.599 53.5068C169.58 53.2729 169.547 53.04 169.5 52.8096C169.422 52.4155 169.258 52.0435 169.02 51.7197C168.744 51.3633 168.378 51.0869 167.96 50.9199C167.378 50.6895 166.755 50.584 166.13 50.6099C165.347 50.6074 164.566 50.688 163.8 50.8496ZM166.1 60.2598C165.744 60.373 165.373 60.4272 165 60.4199C164.491 60.4585 163.987 60.3008 163.59 59.98C163.412 59.8203 163.27 59.6245 163.175 59.4053C163.08 59.186 163.034 58.9487 163.04 58.71C163.029 58.3804 163.135 58.0581 163.34 57.7998C163.552 57.5474 163.824 57.3516 164.13 57.23C164.334 57.1455 164.545 57.0776 164.76 57.0273C164.931 56.9873 165.105 56.958 165.28 56.9399C165.721 56.8872 166.165 56.8608 166.61 56.8599H167.86V58.6797C167.775 58.8945 167.661 59.0967 167.52 59.2798C167.354 59.4932 167.159 59.6816 166.94 59.8398C166.681 60.019 166.399 60.1606 166.1 60.2598Z" fill="white"/>
<path d="M173 50.79H174.76V60.25H178.52V50.79H180.28V60.25H184V50.79H185.76V61.79H173V50.79Z" fill="white"/>
<path fill-rule="evenodd" clip-rule="evenodd" d="M195.51 61.7397C196.11 61.5693 196.673 61.2876 197.17 60.9097L196.54 59.6299C196.212 59.9092 195.831 60.1201 195.42 60.25C194.938 60.4185 194.431 60.5063 193.92 60.5098C193.361 60.5249 192.804 60.4331 192.28 60.2397C191.855 60.0698 191.479 59.7944 191.19 59.4399C191.019 59.2227 190.876 58.9858 190.763 58.7354C190.683 58.5566 190.618 58.3706 190.57 58.1797C190.434 57.6167 190.37 57.0391 190.38 56.46H197.44C197.524 55.9307 197.567 55.3955 197.57 54.8599C197.6 54.0957 197.474 53.3335 197.2 52.6196C196.982 52.1064 196.637 51.6558 196.2 51.3101C196.131 51.2583 196.06 51.209 195.988 51.1626C195.896 51.103 195.801 51.0479 195.704 50.9976C195.438 50.8594 195.154 50.7559 194.86 50.6899C194.724 50.6597 194.589 50.6333 194.452 50.6108C194.091 50.5522 193.726 50.522 193.36 50.52C193.237 50.5127 193.114 50.5103 192.991 50.5127C192.946 50.5137 192.901 50.5151 192.856 50.5176L192.774 50.5229C192.72 50.5269 192.666 50.5317 192.613 50.5376C192.196 50.583 191.785 50.687 191.395 50.8477C190.773 51.104 190.218 51.498 189.77 52C188.858 53.2363 188.415 54.7568 188.52 56.29C188.511 57.0894 188.608 57.8862 188.81 58.6597C188.976 59.3203 189.276 59.9395 189.69 60.48C189.872 60.7104 190.078 60.9189 190.305 61.1016C190.577 61.3193 190.878 61.501 191.2 61.6396C191.89 61.9253 192.633 62.0645 193.38 62.0498C194.101 62.0557 194.82 61.9512 195.51 61.7397ZM191.3 52.7397C191.887 52.2661 192.627 52.0244 193.38 52.0601C193.711 52.0405 194.043 52.0903 194.355 52.2056C194.666 52.3208 194.95 52.4995 195.19 52.73C195.68 53.4097 195.904 54.2456 195.82 55.0801H190.37C190.373 54.2104 190.705 53.3745 191.3 52.7397Z" fill="white"/>
<path d="M190.127 47.3799C190.076 47.5205 190.053 47.6699 190.06 47.8198C190.054 48.106 190.162 48.3833 190.36 48.5898C190.403 48.6294 190.449 48.665 190.498 48.6973C190.546 48.7295 190.597 48.7583 190.65 48.7827C190.802 48.8535 190.969 48.8911 191.14 48.8911C191.428 48.8911 191.706 48.7837 191.92 48.5898C192.118 48.3833 192.226 48.106 192.22 47.8198C192.227 47.6699 192.204 47.5205 192.152 47.3799C192.101 47.2388 192.022 47.1099 191.92 47C191.821 46.9067 191.706 46.833 191.583 46.7812C191.444 46.7227 191.293 46.6914 191.14 46.6914C190.958 46.6914 190.781 46.7349 190.622 46.8164C190.527 46.8647 190.439 46.9263 190.36 47C190.258 47.1099 190.179 47.2388 190.127 47.3799Z" fill="white"/>
<path d="M194.347 47.3799C194.327 47.4351 194.311 47.4917 194.3 47.5493C194.283 47.6382 194.276 47.729 194.28 47.8198C194.274 48.106 194.382 48.3833 194.58 48.5898C194.683 48.6899 194.805 48.7686 194.939 48.8198C195.073 48.8716 195.216 48.8955 195.36 48.8896C195.508 48.8975 195.657 48.875 195.796 48.8237C195.935 48.772 196.062 48.6924 196.17 48.5898C196.264 48.4854 196.338 48.3647 196.387 48.2349C196.437 48.1035 196.462 47.9629 196.46 47.8198C196.463 47.7471 196.459 47.6748 196.449 47.604L196.443 47.5698L196.437 47.5405L196.427 47.4941C196.42 47.4663 196.412 47.439 196.404 47.4121L196.389 47.3682C196.355 47.2764 196.31 47.189 196.255 47.1084L196.217 47.0562L196.17 47C196.063 46.896 195.936 46.8149 195.797 46.7617C195.658 46.7085 195.509 46.6841 195.36 46.6899C195.216 46.6855 195.072 46.7109 194.938 46.7642C194.804 46.8179 194.682 46.8979 194.58 47C194.55 47.0317 194.522 47.0654 194.497 47.1001C194.467 47.1406 194.44 47.1831 194.416 47.2275C194.39 47.2764 194.367 47.3271 194.347 47.3799Z" fill="white"/>
<path d="M207.05 56.9199H202.05V61.79H200.29V50.79H202.05V55.3799H207.05V50.79H208.81V61.79H207.05V56.9199Z" fill="white"/>
<path d="M213.92 56.9199H218.92L219 61.79H220.76V50.79H219V55.3799H214V50.79H212.16V61.79H213.92V56.9199Z" fill="white"/>
<path fill-rule="evenodd" clip-rule="evenodd" d="M225.829 55C226.16 54.9424 226.494 54.9023 226.829 54.8799H227.76C228.396 54.8662 229.031 54.9541 229.639 55.1401C230.092 55.2783 230.508 55.5142 230.86 55.8301C231.16 56.1006 231.385 56.4453 231.51 56.8301C231.635 57.2451 231.699 57.6763 231.699 58.1099C231.747 58.6436 231.674 59.1812 231.483 59.6816C231.292 60.1826 230.99 60.6333 230.599 61C229.925 61.4355 229.172 61.7222 228.389 61.8477C227.932 61.9209 227.466 61.939 227 61.8999C226.665 61.8999 226.325 61.8936 225.98 61.8818C225.829 61.8765 225.677 61.8706 225.525 61.8633C225.047 61.8408 224.562 61.8091 224.07 61.77V50.77H225.829V55ZM225.829 60.2603C226.346 60.3408 226.867 60.3843 227.389 60.3901C228.081 60.4629 228.775 60.2695 229.329 59.8501C229.687 59.4316 229.883 58.8999 229.883 58.3501C229.883 58.2627 229.878 58.1753 229.868 58.0889C229.817 57.6333 229.63 57.2017 229.329 56.8501C229.07 56.6343 228.77 56.4731 228.447 56.375C228.124 56.2773 227.785 56.2451 227.449 56.2798H226.639C226.362 56.29 226.087 56.3335 225.82 56.4102L225.829 60.2603Z" fill="white"/>
<path d="M233.44 50.7998H235.199V61.7998H233.44V50.7998Z" fill="white"/>
<path d="M247.81 53.1602L247.679 55.25L247.639 61.79H249.349V50.79H247.599L244.71 55.6699L244.05 56.9902L243.409 55.71L240.33 50.79H238.59V61.79H240.22V55.23L240.05 53.1602H240.13L240.86 54.8599L243.63 59.1699H244.25L246.909 54.8599L247.699 53.1602H247.81Z" fill="white"/>
<path d="M259.65 55.27L259.71 53.9102H259.65L258.74 55.3198L253.74 61.79H252.74V50.79H254.5V57.5L254.44 58.79H254.52L255.38 57.4302L260.38 50.79H261.38V61.79H259.62L259.65 55.27Z" fill="white"/>
<path d="M95.3997 84.3301H98.8299V82.79H90.2097V84.3301H93.6399V93.79H95.3997V84.3301Z" fill="white"/>
<path fill-rule="evenodd" clip-rule="evenodd" d="M100.39 83.6001C101.009 83.2378 101.685 82.9844 102.39 82.8501C103.153 82.6875 103.93 82.6069 104.71 82.6099C104.841 82.6045 104.972 82.605 105.103 82.6113C105.216 82.6167 105.327 82.626 105.439 82.6396L105.547 82.6538L105.628 82.6665C105.807 82.6958 105.984 82.7358 106.158 82.7866C106.29 82.8252 106.421 82.8696 106.55 82.9199C106.948 83.0947 107.292 83.3706 107.55 83.7202C107.791 84.043 107.958 84.415 108.04 84.8101C108.119 85.2017 108.159 85.6001 108.16 86C108.16 86.8799 108.16 87.7402 108.09 88.5698C108.02 89.3999 108 90.2002 108 91C108 91.2666 108 91.5137 108.008 91.7603C108.017 92.0137 108.034 92.2666 108.07 92.54C108.081 92.6484 108.094 92.7568 108.108 92.8647C108.131 93.0283 108.158 93.1914 108.19 93.354C108.224 93.5308 108.264 93.7061 108.31 93.8799H107L106.53 92.3398H106.42C106.345 92.4595 106.262 92.5742 106.173 92.6836C106.097 92.7769 106.016 92.8657 105.93 92.9502C105.844 93.0322 105.753 93.1094 105.658 93.1812C105.517 93.2891 105.367 93.3857 105.21 93.4702C104.895 93.6426 104.559 93.7734 104.21 93.8599C103.814 93.9575 103.408 94.0044 103 94C102.553 94.0054 102.11 93.9307 101.69 93.7798C101.318 93.6431 100.978 93.4321 100.69 93.1602C100.39 92.8784 100.152 92.5376 99.99 92.1602C99.8216 91.7476 99.7366 91.3057 99.74 90.8599C99.7176 90.293 99.8562 89.7314 100.14 89.2402C100.411 88.8115 100.795 88.4653 101.25 88.2402C101.785 87.9619 102.363 87.7759 102.96 87.6899C103.157 87.6587 103.355 87.6318 103.553 87.6094C103.645 87.5986 103.737 87.5889 103.829 87.5801C104.278 87.5381 104.729 87.5181 105.18 87.52H105.78C105.983 87.5054 106.187 87.5054 106.39 87.52C106.39 87.0801 106.45 86.6802 106.45 86.3301C106.512 85.7231 106.34 85.1152 105.97 84.6299C105.745 84.4624 105.495 84.3354 105.233 84.252C104.906 84.1484 104.557 84.1123 104.21 84.1499C103.939 84.1519 103.668 84.1719 103.4 84.21C103.173 84.21 102.932 84.269 102.688 84.3291L102.52 84.3701C102.232 84.4321 101.948 84.5122 101.67 84.6099C101.421 84.6982 101.179 84.8086 100.95 84.9399L100.39 83.6001ZM103.52 92.4199C103.893 92.4268 104.264 92.3726 104.62 92.2603C104.916 92.1631 105.196 92.0215 105.45 91.8398C105.671 91.6846 105.867 91.4956 106.03 91.2798C106.174 91.0972 106.292 90.895 106.38 90.6802V88.8599H105.12C104.676 88.8613 104.231 88.8877 103.79 88.9399C103.398 88.9819 103.014 89.0796 102.65 89.23C102.342 89.3535 102.067 89.5488 101.85 89.7998C101.653 90.0615 101.55 90.3823 101.56 90.71C101.552 90.9492 101.597 91.187 101.693 91.4067L101.712 91.4507C101.727 91.4834 101.744 91.5156 101.762 91.5469C101.793 91.603 101.827 91.6577 101.865 91.71C101.936 91.8086 102.018 91.8994 102.11 91.98C102.507 92.3013 103.011 92.4585 103.52 92.4199Z" fill="white"/>
<path d="M113.21 88.9199H118.21L118.24 93.79H120V82.79H118.21V87.3799H113.21V82.79H111.45V93.79H113.21V88.9199Z" fill="white"/>
<path d="M133.24 96.5801H132.05L131.72 93.79H123.36V82.79H125.119V92.25H129.889V82.79H131.65V92.25H133.24V96.5801Z" fill="white"/>
<path fill-rule="evenodd" clip-rule="evenodd" d="M136 84C135.105 85.2432 134.68 86.7632 134.8 88.29C134.803 89.0874 134.911 89.8809 135.12 90.6499C135.29 91.312 135.589 91.9341 136 92.48C136.381 92.9692 136.87 93.3628 137.43 93.6299C137.701 93.7441 137.981 93.835 138.266 93.9019C138.354 93.9224 138.443 93.9409 138.532 93.957C138.613 93.9722 138.695 93.9849 138.777 93.9956C138.865 94.0073 138.953 94.0166 139.041 94.0239C139.22 94.0386 139.4 94.0439 139.58 94.04C140.015 94.0659 140.45 94.0273 140.871 93.9268C141.097 93.8726 141.319 93.8003 141.535 93.7109C142.154 93.4546 142.706 93.061 143.15 92.5601C144.054 91.3242 144.494 89.8081 144.39 88.2803C144.4 87.4814 144.306 86.6846 144.11 85.9102C143.94 85.248 143.641 84.626 143.23 84.0801C142.827 83.5776 142.309 83.1797 141.72 82.9199C141.043 82.6348 140.314 82.4951 139.58 82.5103C139.397 82.499 139.213 82.499 139.031 82.5107C138.813 82.5249 138.597 82.5547 138.385 82.6006C138.123 82.6567 137.866 82.7368 137.617 82.8403C136.997 83.0986 136.444 83.4956 136 84ZM136.649 88.9497C136.63 88.7305 136.62 88.5103 136.62 88.29C136.62 85.4302 137.623 84.02 139.63 84.0601C140.093 84.0425 140.552 84.1504 140.958 84.3721C141.365 84.5938 141.704 84.9214 141.94 85.3203C142.184 85.7349 142.357 86.188 142.45 86.6602C142.564 87.1958 142.621 87.7422 142.62 88.29C142.62 91.1035 141.62 92.5103 139.62 92.5103C139.323 92.519 139.028 92.4775 138.747 92.3882C138.568 92.3311 138.394 92.2549 138.23 92.1602C137.852 91.9292 137.536 91.6099 137.31 91.23C137.057 90.8184 136.881 90.3647 136.79 89.8901C136.723 89.5796 136.676 89.2656 136.649 88.9497Z" fill="white"/>
<path fill-rule="evenodd" clip-rule="evenodd" d="M147.21 82.79H148.42L148.75 84.1099H148.83C149.098 83.6938 149.455 83.3428 149.872 83.0811L149.934 83.0425L149.994 83.0078C150.042 82.981 150.091 82.9551 150.14 82.9302C150.466 82.7827 150.805 82.6743 151.152 82.606C151.293 82.5781 151.436 82.5566 151.58 82.542C151.75 82.5249 151.922 82.5171 152.094 82.519C152.342 82.5215 152.59 82.5439 152.837 82.5869C153.357 82.6772 153.854 82.8555 154.309 83.1113C154.653 83.3047 154.973 83.5425 155.26 83.8198C156.09 85.0737 156.47 86.5718 156.34 88.0698C156.353 88.9146 156.228 89.7559 155.97 90.5601C155.765 91.2471 155.425 91.8862 154.97 92.4399C154.731 92.7222 154.458 92.9722 154.158 93.1846C153.912 93.3594 153.648 93.5088 153.37 93.6299C153.076 93.7583 152.771 93.8579 152.46 93.9282C152.081 94.0137 151.691 94.0547 151.3 94.0498C150.866 94.0786 150.43 94.062 150 94C149.912 93.98 149.824 93.9575 149.738 93.9326C149.665 93.9121 149.594 93.8896 149.522 93.8657C149.345 93.8062 149.17 93.7378 149 93.6602V98.2397H147.24L147.21 82.79ZM151.196 84.0762C151.082 84.0903 150.97 84.1123 150.86 84.1416C150.503 84.2363 150.168 84.4087 149.88 84.6499C149.627 84.8984 149.419 85.186 149.262 85.5C149.119 85.7881 149.02 86.0981 148.97 86.4199V91.8701C149.013 91.9053 149.057 91.939 149.103 91.9712C149.336 92.1353 149.595 92.2603 149.87 92.3398C150.304 92.4697 150.757 92.5273 151.21 92.5098C151.411 92.5171 151.612 92.5034 151.809 92.4697C151.926 92.4497 152.04 92.4229 152.153 92.3892C152.209 92.3721 152.265 92.3535 152.32 92.3335C152.398 92.3047 152.475 92.2725 152.552 92.2368C152.97 92.04 153.337 91.7466 153.62 91.3799C154.035 90.7573 154.313 90.0586 154.441 89.3306C154.515 88.9072 154.539 88.4741 154.51 88.04C154.514 87.4932 154.464 86.9468 154.36 86.4102C154.331 86.2656 154.295 86.123 154.25 85.9834C154.155 85.6909 154.024 85.4111 153.86 85.1499C153.638 84.814 153.335 84.5391 152.98 84.3501C152.567 84.1455 152.11 84.0464 151.65 84.0601C151.497 84.0518 151.345 84.0571 151.196 84.0762Z" fill="white"/>
<path fill-rule="evenodd" clip-rule="evenodd" d="M160.88 82.8501C160.193 82.9897 159.533 83.2432 158.93 83.6001L159.48 84.8999C159.709 84.7686 159.95 84.6582 160.199 84.5698C160.325 84.5259 160.452 84.4854 160.58 84.4482C160.736 84.4033 160.892 84.3643 161.05 84.3301L161.224 84.2881C161.466 84.2285 161.704 84.1699 161.93 84.1699C162.064 84.1509 162.199 84.1362 162.334 84.126C162.411 84.1206 162.488 84.1162 162.565 84.1138C162.623 84.1118 162.681 84.1104 162.74 84.1099C163.366 84.0425 163.994 84.2139 164.5 84.5898C164.577 84.6919 164.646 84.7993 164.706 84.9111C164.753 84.998 164.794 85.0869 164.829 85.1777C164.905 85.3711 164.954 85.5737 164.977 85.7808C164.996 85.9487 164.997 86.1196 164.98 86.29C164.98 86.4551 164.967 86.6313 164.952 86.8174C164.944 86.9341 164.934 87.0547 164.928 87.1787C164.923 87.2769 164.92 87.3774 164.92 87.48C164.809 87.4722 164.699 87.4683 164.589 87.4692C164.496 87.4697 164.403 87.4731 164.31 87.48H163.549C162.859 87.4849 162.171 87.5415 161.49 87.6499C160.893 87.7358 160.315 87.9219 159.78 88.2002C159.325 88.4253 158.941 88.7715 158.67 89.2002C158.498 89.4966 158.38 89.8188 158.318 90.1523C158.298 90.2622 158.283 90.3735 158.275 90.4858C158.271 90.543 158.269 90.6006 158.268 90.6582C158.267 90.7119 158.268 90.7656 158.27 90.8198C158.268 91.0156 158.284 91.2104 158.316 91.4023C158.341 91.5474 158.374 91.6909 158.417 91.832C158.447 91.9292 158.481 92.0254 158.52 92.1201C158.682 92.4976 158.92 92.8384 159.22 93.1201C159.508 93.3921 159.848 93.603 160.22 93.7402C160.403 93.8057 160.591 93.8569 160.781 93.8936C161.027 93.9404 161.278 93.9629 161.53 93.96C161.954 93.9653 162.378 93.915 162.79 93.8101C163.138 93.7236 163.474 93.5923 163.79 93.4199C164.052 93.2798 164.294 93.1045 164.51 92.8999C164.584 92.8267 164.656 92.7495 164.723 92.6694C164.824 92.5498 164.916 92.4229 165 92.29H165.11L165.58 93.8301H166.87C166.755 93.3901 166.675 92.9424 166.63 92.4902C166.599 92.2139 166.584 91.9585 166.576 91.7026C166.57 91.4585 166.57 91.2139 166.57 90.9502C166.57 90.4844 166.566 89.999 166.58 89.499C166.588 89.1943 166.603 88.8843 166.63 88.5698C166.655 88.2759 166.671 87.978 166.681 87.6772C166.692 87.3423 166.697 87.0029 166.699 86.6606L166.699 86C166.699 85.6001 166.659 85.2017 166.58 84.8101C166.498 84.415 166.331 84.043 166.09 83.7202C165.818 83.3638 165.455 83.0874 165.04 82.9199C164.454 82.6909 163.828 82.585 163.199 82.6099C162.42 82.6069 161.642 82.6875 160.88 82.8501ZM163.16 92.2603C162.804 92.3726 162.432 92.4268 162.06 92.4199C161.743 92.4438 161.428 92.3921 161.14 92.2725C161.057 92.2383 160.977 92.1982 160.899 92.1528C160.812 92.1021 160.729 92.0444 160.65 91.98C160.47 91.8223 160.327 91.6265 160.232 91.4067C160.21 91.356 160.191 91.3042 160.175 91.252C160.156 91.1943 160.141 91.1357 160.129 91.0767C160.106 90.9565 160.096 90.8335 160.1 90.71C160.095 90.5303 160.123 90.3525 160.182 90.1851C160.231 90.0479 160.301 89.918 160.39 89.7998C160.607 89.5488 160.882 89.3535 161.19 89.23C161.364 89.1582 161.543 89.0981 161.725 89.0508C161.923 88.999 162.125 88.9619 162.33 88.9399C162.771 88.8877 163.215 88.8613 163.66 88.8599H164.92V90.6802C164.831 90.895 164.714 91.0972 164.57 91.2798C164.407 91.4956 164.211 91.6846 163.99 91.8398C163.736 92.0215 163.456 92.1631 163.16 92.2603Z" fill="white"/>
<path d="M179.11 87.25L179.24 85.1602H179.13L178.34 86.8599L175.67 91.1699H175.06L172.29 86.8599L171.56 85.1602H171.47L171.65 87.23V93.79H170V82.79H171.74L174.82 87.71L175.46 88.9902L176.12 87.6699L179 82.79H180.76V93.79H179.05L179.11 87.25Z" fill="white"/>
<path d="M191.14 85.9102L191.07 87.27L191.1 93.79H192.86V82.79H191.86L186.86 89.4302L186 90.79H185.93L186 89.5V82.79H184.22V93.79H185.22L190.17 87.3198L191.07 85.9102H191.14Z" fill="white"/>
</svg>
