<?xml version="1.0" encoding="utf-8"?>
<!-- Generator: Adobe Illustrator 16.0.0, SVG Export Plug-In . SVG Version: 6.00 Build 0)  -->
<!DOCTYPE svg PUBLIC "-//W3C//DTD SVG 1.1//EN" "http://www.w3.org/Graphics/SVG/1.1/DTD/svg11.dtd">
<svg version="1.1" id="Layer_1" xmlns="http://www.w3.org/2000/svg" xmlns:xlink="http://www.w3.org/1999/xlink" x="0px" y="0px"
	 width="466px" height="156.648px" viewBox="0 0 466 156.648" enable-background="new 0 0 466 156.648" xml:space="preserve">
<polygon fill="#E50647" points="405,116 0,116 0.109,57 405,57 "/>
<rect y="0" fill="#E50647" width="466" height="71"/>
<g>
	<path fill="#FFFFFF" d="M45.189,23.727L34.718,48.63c-2.257,0-4.552,0-6.809,0l8.547-19.981H26.281c0-2.257,0-3.663,0-5.92H45.19
		L45.189,23.727L45.189,23.727z"/>
	<path fill="#FFFFFF" d="M70.237,31.794c12.396,0,12.396,16.799,0,16.836H58.841V22.728h18.612v5.92H65.464v3.146H70.237z
		 M65.464,37.64v5.069c1.517,0,3.183,0,4.736,0c3.664,0,3.626-5.069,0-5.069H65.464z"/>
	<path fill="#FFFFFF" d="M82.476,35.716c0-17.909,26.568-17.909,26.568,0C109.043,53.662,82.476,53.662,82.476,35.716z
		 M102.272,35.716c0-9.325-12.988-9.325-12.988,0C89.284,45.115,102.272,45.115,102.272,35.716z"/>
	<path fill="#FFFFFF" d="M115.957,48.63h-6.476v-0.962l11.656-25.273h2.849l11.693,25.273v0.962h-6.476l-6.66-15.171L115.957,48.63z
		"/>
	<path fill="#FFFFFF" d="M145.409,30.461h4.773c12.396,0,12.396,18.131,0,18.168c-3.811,0-7.66,0-11.396,0c0-8.659,0-17.28,0-25.902
		c2.183,0,4.403,0,6.623,0V30.461z M145.409,36.419c0,2.108,0,4.181,0,6.291c1.517,0,3.183,0.037,4.736,0
		c3.849-0.037,3.626-6.291,0-6.291H145.409z"/>
	<path fill="#FFFFFF" d="M163.334,22.728h6.771v19.796h6.253V22.728h6.771v19.796h6.253V22.728h6.771V48.63h-32.821V22.728H163.334z
		"/>
	<path fill="#FFFFFF" d="M204.7,48.667h-2.368V22.728c2.257,0,4.515,0,6.771,0V35.42l13.099-12.803h2.405V48.63
		c-2.257,0-4.551,0-6.846,0V35.901L204.7,48.667z"/>
	<path fill="#FFFFFF" d="M239.75,40.489l-4.736,8.142h-7.142v-0.999l8.362-12.729l-7.475-11.175v-0.999h6.883l4.106,6.734h0.185
		l4.146-6.734h6.845v0.999l-7.475,11.175l8.4,12.729v0.999h-7.143l-4.736-8.142H239.75z"/>
	<path fill="#FFFFFF" d="M287.37,48.63c-2.257,0-4.515,0-6.771,0V28.833h-7.994V48.63c-2.256,0-4.551,0-6.771,0V22.728
		c2.22,0,4.515,0,21.536,0L287.37,48.63L287.37,48.63z"/>
	<path fill="#FFFFFF" d="M296.914,48.63h-6.475v-0.962l11.655-25.273h2.85l11.692,25.273v0.962h-6.476l-6.66-15.171L296.914,48.63z"
		/>
	<path fill="#FFFFFF" d="M329.697,38.232h-3.183V48.63h-6.771V22.728h6.771v9.399h3.367c3.183-14.357,26.124-13.1,26.124,3.589
		C356.006,52.774,332.065,53.588,329.697,38.232z M349.234,35.716c0-9.325-12.988-9.325-12.988,0
		C336.246,45.115,349.234,45.115,349.234,35.716z"/>
	<path fill="#FFFFFF" d="M372.45,22.432c5.365,0,11.175,2.923,12.174,9.843c-2.258,0-4.256,0-6.513,0
		c-0.925-2.627-2.888-3.812-5.661-3.812c-3.886,0-6.438,2.923-6.438,7.216c0,3.811,2.517,7.141,6.438,7.178
		c2.812,0,5.068-1.405,5.771-4.181c2.221,0,4.255,0,6.513,0c-0.962,7.327-6.771,10.212-12.284,10.212
		c-6.587,0.037-13.247-4.403-13.284-13.209C359.203,26.873,365.863,22.432,372.45,22.432z"/>
	<path fill="#FFFFFF" d="M387.797,35.716c0-17.909,26.567-17.909,26.567,0C414.364,53.662,387.797,53.662,387.797,35.716z
		 M407.593,35.716c0-9.325-12.986-9.325-12.986,0C394.605,45.115,407.593,45.115,407.593,35.716z"/>
	<path fill="#FFFFFF" d="M436.068,35.161c2.108,1.072,3.107,2.997,3.107,5.291c-0.037,4.515-2.774,8.178-8.066,8.178h-12.138V22.728
		h11.064c4.477,0,8.065,3.479,8.065,7.956C438.104,32.238,437.326,34.125,436.068,35.161z M425.374,28.648v4.182h4.182
		c2.627,0,2.627-4.182-0.037-4.182H425.374z M425.374,38.343v4.403h5.292c2.664,0,2.627-4.403-0.037-4.403H425.374z"/>
	<path fill="#FFFFFF" d="M50.37,97.03c-2.257,0-4.514,0-6.771,0V86.632h-7.993V97.03c-2.257,0-4.551,0-6.771,0V71.128
		c2.22,0,4.515,0,6.771,0v9.398h7.993v-9.398c2.257,0,4.514,0,6.771,0V97.03z"/>
	<path fill="#FFFFFF" d="M71.644,93.773H61.432l-1.518,3.256h-6.475v-0.962l11.656-25.272h2.849l11.693,25.272v0.962h-6.476
		L71.644,93.773z M66.501,81.304l-2.923,6.809h5.92L66.501,81.304z"/>
	<path fill="#FFFFFF" d="M82.761,71.128h6.771v19.796h6.253V71.128h6.771v19.796h6.253V71.128h6.771V97.03H82.761V71.128z"/>
	<path fill="#FFFFFF" d="M137.911,77.048c-3.848,0-5.772,0-9.583,0v3.663h8.807c0,1.961,0,3.922,0,5.884h-8.807
		c0,1.517,0,2.997,0,4.551c3.811,0,6.031,0,9.917,0c0,1.924,0,3.922,0,5.883c-6.068,0-10.509,0-16.503,0c0-8.658,0-17.316,0-25.901
		c5.994,0,10.102,0,16.17,0C137.911,73.052,137.911,75.05,137.911,77.048z"/>
	<path fill="#FFFFFF" d="M150.419,97.03c-2.22,0-4.478,0-6.734,0V71.128c5.291,0,10.841,0,16.133,0c0,2.183,0,3.7,0,5.92h-9.398
		L150.419,97.03L150.419,97.03z"/>
	<path fill="#FFFFFF" d="M161.937,84.115c0-17.908,26.568-17.908,26.568,0C188.505,102.062,161.937,102.062,161.937,84.115z
		 M181.733,84.115c0-9.324-12.988-9.324-12.988,0C168.746,93.515,181.733,93.515,181.733,84.115z"/>
	<path fill="#FFFFFF" d="M203.673,71.128h6.771v19.796h7.511V71.128h6.771v20.167h2.627v8.659h-5.439V97.03h-18.242L203.673,71.128
		L203.673,71.128z"/>
	<path fill="#FFFFFF" d="M247.744,77.048c-3.848,0-5.771,0-9.583,0v3.663h8.807c0,1.961,0,3.922,0,5.884h-8.807
		c0,1.517,0,2.997,0,4.551c3.812,0,6.03,0,9.917,0c0,1.924,0,3.922,0,5.883c-6.068,0-10.51,0-16.503,0c0-8.658,0-17.316,0-25.901
		c5.993,0,10.102,0,16.17,0C247.744,73.052,247.744,75.05,247.744,77.048z"/>
	<path fill="#FFFFFF" d="M275.072,97.03c-2.258,0-4.514,0-6.771,0V86.632h-7.992V97.03c-2.258,0-4.552,0-6.771,0V71.128
		c2.22,0,4.515,0,6.771,0v9.398h7.992v-9.398c2.258,0,4.514,0,6.771,0V97.03z"/>
	<path fill="#FFFFFF" d="M278.479,77.048c0-1.998,0-3.959,0-5.92h19.242c0,1.961,0,3.922,0,5.92h-6.328V97.03
		c-2.184,0-4.367,0-6.55,0V77.048H278.479z"/>
	<path fill="#FFFFFF" d="M301.123,97.03c0-8.621,0-17.242,0-25.901c3.737,0,7.585,0,11.396,0c12.396,0.037,12.396,19.277,0,19.277
		h-4.772v6.624C305.525,97.03,303.306,97.03,301.123,97.03z M312.482,77.048c-1.555-0.037-3.22,0-4.736,0c0,2.108,0,5.292,0,7.399
		h4.736C316.108,84.448,316.331,77.085,312.482,77.048z"/>
	<path fill="#FFFFFF" d="M339.402,93.773H329.19l-1.519,3.256h-6.475v-0.962l11.655-25.272h2.85l11.692,25.272v0.962h-6.476
		L339.402,93.773z M334.26,81.304l-2.923,6.809h5.92L334.26,81.304z"/>
</g>
<g>
	<path fill="#FFFFFF" d="M145.616,147.722l0.054-1.116h-0.054l-0.738,1.152l-4.05,5.292H140v-9h1.44v5.49l-0.054,1.062h0.071
		l0.702-1.116l4.05-5.436h0.847v9h-1.44V147.722z"/>
	<path fill="#FFFFFF" d="M154.992,145.31h-2.609c-0.036,0.504-0.072,1.047-0.108,1.629c-0.036,0.582-0.09,1.164-0.162,1.746
		c-0.071,0.582-0.168,1.142-0.288,1.674c-0.12,0.534-0.272,1.006-0.459,1.413c-0.186,0.408-0.414,0.735-0.684,0.981
		s-0.591,0.369-0.963,0.369c-0.229,0-0.426-0.014-0.594-0.036c-0.169-0.024-0.318-0.066-0.45-0.126l0.216-1.206
		c0.144,0.048,0.3,0.072,0.468,0.072c0.24,0,0.456-0.104,0.648-0.308c0.191-0.204,0.359-0.591,0.504-1.161
		c0.144-0.568,0.264-1.357,0.36-2.365c0.096-1.01,0.161-2.322,0.197-3.942h5.364v9h-1.44V145.31L154.992,145.31z"/>
	<path fill="#FFFFFF" d="M164.77,147.722l0.054-1.116h-0.054l-0.738,1.152l-4.05,5.292h-0.828v-9h1.44v5.49l-0.054,1.062h0.071
		l0.702-1.116l4.05-5.436h0.847v9h-1.44V147.722L164.77,147.722z"/>
	<path fill="#FFFFFF" d="M181.743,155.336h-0.972l-0.271-2.286h-6.768l-0.271,2.286h-0.972v-3.546h1.063
		c0.096-0.133,0.222-0.369,0.378-0.711c0.155-0.344,0.309-0.822,0.459-1.44c0.149-0.618,0.281-1.386,0.396-2.304
		c0.115-0.918,0.183-2.014,0.207-3.285h5.437v7.74h1.313L181.743,155.336L181.743,155.336z M178.989,151.79v-6.48h-2.7
		c-0.023,0.504-0.065,1.054-0.126,1.647c-0.06,0.594-0.141,1.188-0.243,1.781c-0.102,0.595-0.23,1.154-0.387,1.684
		c-0.157,0.529-0.336,0.983-0.54,1.368H178.989z"/>
	<path fill="#FFFFFF" d="M189.198,145.31h-2.609c-0.036,0.504-0.072,1.047-0.108,1.629s-0.09,1.164-0.162,1.746
		c-0.071,0.582-0.168,1.142-0.288,1.674c-0.12,0.534-0.272,1.006-0.459,1.413c-0.186,0.408-0.414,0.735-0.684,0.981
		s-0.591,0.369-0.963,0.369c-0.229,0-0.426-0.014-0.594-0.036c-0.169-0.024-0.318-0.066-0.45-0.126l0.216-1.206
		c0.144,0.048,0.3,0.072,0.468,0.072c0.24,0,0.456-0.104,0.648-0.308c0.191-0.204,0.359-0.591,0.504-1.161
		c0.144-0.568,0.264-1.357,0.36-2.365c0.096-1.01,0.161-2.322,0.197-3.942h5.364v9h-1.44V145.31L189.198,145.31z"/>
	<path fill="#FFFFFF" d="M197.997,149.323l-1.386,0.217l-2.376,3.51h-1.746l2.159-3.078l0.721-0.666
		c-0.624-0.096-1.155-0.348-1.593-0.756s-0.657-0.96-0.657-1.656c0-0.54,0.093-1.002,0.278-1.386
		c0.187-0.384,0.453-0.702,0.802-0.954c0.348-0.252,0.762-0.435,1.241-0.549c0.48-0.114,1.021-0.171,1.62-0.171
		c0.444,0,0.858,0.029,1.242,0.09c0.384,0.061,0.762,0.126,1.134,0.198v8.928h-1.439V149.323L197.997,149.323z M197.997,145.273
		c-0.156-0.06-0.33-0.104-0.522-0.135c-0.191-0.029-0.359-0.045-0.504-0.045c-0.768,0-1.353,0.138-1.755,0.414
		c-0.402,0.276-0.603,0.714-0.603,1.313c0,0.539,0.213,0.957,0.639,1.251c0.426,0.295,0.987,0.44,1.683,0.44c0.012,0,0.03,0,0.055,0
		c0.023,0,0.071,0,0.144,0c0.073,0,0.174-0.003,0.306-0.009c0.133-0.006,0.318-0.016,0.559-0.027v-3.203H197.997z"/>
	<path fill="#FFFFFF" d="M212.613,145.31h-2.826v7.74h-1.439v-7.74h-2.826v-1.26h7.092L212.613,145.31L212.613,145.31z"/>
	<path fill="#FFFFFF" d="M220.828,152.33c-0.36,0.288-0.813,0.516-1.359,0.684c-0.546,0.168-1.125,0.252-1.736,0.252
		c-0.685,0-1.278-0.111-1.782-0.333s-0.918-0.54-1.242-0.954s-0.564-0.909-0.72-1.483c-0.156-0.576-0.234-1.226-0.234-1.944
		c0-1.536,0.342-2.706,1.026-3.51c0.684-0.805,1.662-1.206,2.934-1.206c0.408,0,0.816,0.045,1.225,0.135
		c0.407,0.09,0.773,0.261,1.098,0.513s0.588,0.609,0.792,1.071s0.306,1.071,0.306,1.827c0,0.396-0.036,0.834-0.107,1.313h-5.778
		c0,0.528,0.054,0.997,0.162,1.404c0.108,0.408,0.275,0.753,0.504,1.035c0.228,0.282,0.524,0.498,0.891,0.647
		c0.366,0.149,0.813,0.226,1.342,0.226c0.407,0,0.815-0.072,1.224-0.216c0.408-0.146,0.714-0.313,0.918-0.504L220.828,152.33z
		 M217.732,145.094c-0.709,0-1.275,0.187-1.701,0.558c-0.427,0.372-0.682,1.01-0.766,1.908h4.465c0-0.911-0.175-1.551-0.522-1.917
		C218.86,145.277,218.368,145.094,217.732,145.094z"/>
	<path fill="#FFFFFF" d="M225.76,148.441l-3.024-4.392h1.765l1.71,2.483l0.504,1.025l0.521-1.025l1.746-2.483h1.62l-3.042,4.32
		l3.222,4.68h-1.71l-1.907-2.736l-0.54-1.08l-0.559,1.08l-1.943,2.736h-1.603L225.76,148.441z"/>
	<path fill="#FFFFFF" d="M232.418,152.275c0-0.287,0.096-0.521,0.288-0.701c0.191-0.181,0.438-0.271,0.738-0.271
		c0.373,0,0.675,0.132,0.91,0.396c0.232,0.265,0.351,0.647,0.351,1.151c0,0.433-0.062,0.812-0.181,1.134
		c-0.119,0.324-0.275,0.604-0.469,0.838c-0.19,0.233-0.4,0.427-0.63,0.575c-0.228,0.15-0.456,0.263-0.684,0.333l-0.45-0.701
		c0.433-0.169,0.753-0.43,0.963-0.782c0.21-0.354,0.314-0.711,0.314-1.071c-0.107,0.036-0.209,0.054-0.306,0.054
		c-0.239,0-0.44-0.081-0.603-0.243C232.499,152.825,232.418,152.588,232.418,152.275z"/>
	<path fill="#FFFFFF" d="M244.046,149h-0.828v4.05h-1.44v-9h1.44v4.068l0.773-0.253l2.881-3.815h1.565l-2.791,3.618l-0.756,0.594
		l0.937,0.72l3.007,4.068h-1.781L244.046,149z"/>
	<path fill="#FFFFFF" d="M256.811,145.31h-2.826v7.74h-1.439v-7.74h-2.826v-1.26h7.092V145.31L256.811,145.31z"/>
	<path fill="#FFFFFF" d="M257.95,148.55c0-1.523,0.339-2.691,1.018-3.501c0.679-0.811,1.652-1.215,2.925-1.215
		c0.672,0,1.258,0.11,1.756,0.333c0.498,0.222,0.908,0.54,1.231,0.954c0.324,0.414,0.563,0.911,0.722,1.493
		c0.154,0.582,0.232,1.228,0.232,1.936c0,1.523-0.339,2.69-1.018,3.501c-0.678,0.81-1.652,1.215-2.924,1.215
		c-0.674,0-1.259-0.111-1.756-0.333c-0.498-0.222-0.908-0.54-1.232-0.954s-0.564-0.911-0.721-1.494
		C258.027,149.903,257.95,149.258,257.95,148.55z M259.443,148.55c0,0.456,0.046,0.895,0.136,1.313s0.231,0.785,0.423,1.099
		c0.191,0.313,0.443,0.563,0.757,0.756c0.312,0.192,0.689,0.288,1.134,0.288c1.633,0.012,2.448-1.141,2.448-3.456
		c0-0.468-0.046-0.912-0.136-1.332s-0.23-0.786-0.423-1.098c-0.192-0.313-0.444-0.563-0.757-0.747
		c-0.313-0.188-0.689-0.279-1.133-0.279C260.261,145.082,259.443,146.234,259.443,148.55z"/>
	<path fill="#FFFFFF" d="M277.75,145.31h-2.609c-0.035,0.504-0.072,1.047-0.107,1.629c-0.036,0.582-0.09,1.164-0.162,1.746
		c-0.071,0.582-0.168,1.142-0.288,1.674c-0.12,0.534-0.272,1.006-0.459,1.413c-0.187,0.408-0.414,0.735-0.685,0.981
		c-0.27,0.246-0.59,0.369-0.963,0.369c-0.229,0-0.426-0.014-0.594-0.036c-0.169-0.024-0.318-0.066-0.449-0.126l0.215-1.206
		c0.145,0.048,0.301,0.072,0.469,0.072c0.24,0,0.455-0.104,0.648-0.308c0.19-0.204,0.358-0.591,0.504-1.161
		c0.144-0.568,0.264-1.357,0.359-2.365c0.096-1.01,0.161-2.322,0.197-3.942h5.363v9h-1.439V145.31L277.75,145.31z"/>
	<path fill="#FFFFFF" d="M288.896,153.266c-0.648,0-1.203-0.099-1.666-0.297c-0.461-0.198-0.84-0.479-1.133-0.846
		c-0.296-0.366-0.518-0.812-0.666-1.332c-0.15-0.522-0.244-1.096-0.279-1.72h-1.801v3.979h-1.439v-9h1.439v3.762h1.817
		c0.097-1.283,0.447-2.268,1.054-2.952c0.605-0.684,1.51-1.024,2.709-1.024c0.659,0,1.221,0.11,1.684,0.333
		c0.462,0.222,0.84,0.54,1.134,0.954s0.507,0.912,0.64,1.494c0.133,0.581,0.197,1.227,0.197,1.935c0,1.524-0.303,2.691-0.908,3.501
		C291.07,152.86,290.145,153.266,288.896,153.266z M286.557,148.55c0,0.468,0.036,0.912,0.108,1.332
		c0.071,0.42,0.198,0.789,0.379,1.106s0.425,0.566,0.731,0.746c0.308,0.182,0.689,0.271,1.147,0.271
		c0.771,0,1.325-0.279,1.662-0.837c0.338-0.56,0.507-1.432,0.507-2.619c0-0.468-0.033-0.912-0.1-1.332
		c-0.067-0.42-0.184-0.789-0.354-1.107c-0.169-0.316-0.392-0.565-0.669-0.746c-0.276-0.181-0.633-0.271-1.065-0.271
		c-0.832,0-1.432,0.279-1.799,0.837C286.74,146.489,286.557,147.361,286.557,148.55z"/>
	<path fill="#FFFFFF" d="M295.805,145.651c0.396-0.574,0.834-0.979,1.314-1.215c0.479-0.232,1.08-0.351,1.8-0.351
		c1.104,0,1.953,0.359,2.547,1.08c0.594,0.72,0.892,1.781,0.892,3.186c0,1.62-0.346,2.845-1.034,3.672
		c-0.69,0.828-1.653,1.242-2.891,1.242c-1.319,0-2.31-0.456-2.97-1.368c-0.66-0.911-0.99-2.346-0.99-4.302
		c0-1.032,0.051-1.914,0.153-2.646c0.103-0.732,0.252-1.352,0.45-1.854c0.197-0.504,0.438-0.906,0.72-1.206
		c0.281-0.3,0.601-0.537,0.954-0.711s0.74-0.297,1.161-0.369c0.42-0.071,0.869-0.132,1.35-0.18c0.624-0.061,1.113-0.129,1.467-0.207
		c0.354-0.078,0.641-0.219,0.855-0.423l0.162,1.296c-0.12,0.106-0.252,0.198-0.396,0.27c-0.144,0.072-0.317,0.133-0.521,0.182
		c-0.204,0.048-0.447,0.09-0.729,0.126c-0.281,0.036-0.608,0.064-0.979,0.09c-0.518,0.036-0.97,0.099-1.359,0.188
		c-0.39,0.092-0.727,0.266-1.008,0.522c-0.281,0.258-0.504,0.624-0.666,1.098c-0.162,0.476-0.273,1.103-0.333,1.881H295.805
		L295.805,145.651z M295.967,148.567c0,0.457,0.049,0.896,0.145,1.314c0.097,0.42,0.242,0.789,0.441,1.106
		c0.197,0.317,0.452,0.566,0.764,0.746c0.313,0.182,0.68,0.271,1.1,0.271c0.828,0,1.442-0.297,1.845-0.892s0.604-1.474,0.604-2.638
		c0-0.456-0.043-0.876-0.126-1.26c-0.085-0.384-0.217-0.717-0.396-0.999c-0.179-0.282-0.408-0.498-0.684-0.647
		c-0.276-0.149-0.606-0.226-0.99-0.226c-0.937-0.012-1.62,0.261-2.052,0.819C296.184,146.723,295.967,147.523,295.967,148.567z"/>
	<path fill="#FFFFFF" d="M310.24,147.722l0.054-1.116h-0.054l-0.738,1.152l-4.05,5.292h-0.828v-9h1.44v5.49l-0.055,1.062h0.071
		l0.702-1.116l4.05-5.436h0.847v9h-1.439V147.722z"/>
	<path fill="#FFFFFF" d="M320.453,145.31h-2.826v7.74h-1.438v-7.74h-2.826v-1.26h7.092L320.453,145.31L320.453,145.31z"/>
	<path fill="#FFFFFF" d="M332.819,152.456c-0.36,0.264-0.786,0.465-1.278,0.603s-1.008,0.207-1.548,0.207
		c-0.696,0-1.284-0.111-1.766-0.333c-0.479-0.222-0.873-0.54-1.179-0.954s-0.528-0.911-0.666-1.494
		c-0.138-0.581-0.207-1.227-0.207-1.935c0-1.523,0.336-2.691,1.008-3.501c0.673-0.811,1.64-1.215,2.898-1.215
		c0.576,0,1.063,0.045,1.467,0.135s0.766,0.219,1.089,0.387l-0.414,1.242c-0.274-0.155-0.582-0.279-0.918-0.369
		s-0.695-0.135-1.08-0.135c-1.703,0-2.556,1.152-2.556,3.456c0,0.456,0.045,0.891,0.135,1.305c0.091,0.414,0.24,0.78,0.45,1.1
		c0.21,0.316,0.486,0.572,0.828,0.765s0.765,0.288,1.27,0.288c0.433,0,0.818-0.065,1.16-0.198c0.343-0.132,0.621-0.281,0.837-0.45
		L332.819,152.456z"/>
	<path fill="#FFFFFF" d="M334.777,144.05h0.989l0.271,1.08h0.071c0.275-0.42,0.633-0.741,1.07-0.963
		c0.438-0.223,0.938-0.333,1.503-0.333c1.2,0,2.095,0.354,2.683,1.062s0.883,1.866,0.883,3.476c0,0.756-0.1,1.437-0.298,2.043
		c-0.197,0.604-0.478,1.119-0.837,1.539s-0.795,0.743-1.306,0.972c-0.51,0.228-1.076,0.342-1.7,0.342
		c-0.444,0-0.796-0.025-1.054-0.081c-0.258-0.054-0.537-0.146-0.837-0.277v3.742h-1.439V144.05z M338.414,145.094
		c-0.612,0-1.096,0.159-1.449,0.478c-0.354,0.317-0.604,0.802-0.747,1.448v4.464c0.216,0.169,0.462,0.298,0.738,0.389
		c0.275,0.09,0.642,0.135,1.098,0.135c0.828,0,1.485-0.31,1.972-0.927c0.485-0.618,0.729-1.527,0.729-2.729
		c0-0.491-0.043-0.938-0.126-1.341c-0.084-0.401-0.22-0.744-0.405-1.026c-0.187-0.28-0.426-0.5-0.72-0.655
		C339.208,145.172,338.846,145.094,338.414,145.094z"/>
	<path fill="#FFFFFF" d="M344.478,144.716c0.456-0.276,0.986-0.479,1.594-0.612c0.604-0.132,1.237-0.197,1.897-0.197
		c0.623,0,1.125,0.084,1.504,0.253c0.377,0.168,0.666,0.387,0.863,0.655c0.197,0.271,0.33,0.567,0.396,0.893
		c0.063,0.323,0.098,0.646,0.098,0.972c0,0.72-0.019,1.422-0.053,2.106c-0.037,0.684-0.056,1.332-0.056,1.942
		c0,0.444,0.019,0.864,0.056,1.261c0.034,0.396,0.102,0.763,0.196,1.099h-1.063l-0.377-1.26h-0.09
		c-0.109,0.168-0.244,0.333-0.406,0.494s-0.355,0.307-0.584,0.433c-0.229,0.126-0.492,0.23-0.793,0.313
		c-0.299,0.084-0.642,0.126-1.025,0.126s-0.74-0.06-1.069-0.18c-0.331-0.12-0.616-0.291-0.856-0.513
		c-0.24-0.223-0.429-0.489-0.566-0.801c-0.139-0.313-0.207-0.666-0.207-1.063c0-0.527,0.107-0.969,0.324-1.323
		c0.216-0.354,0.52-0.636,0.908-0.846c0.391-0.21,0.858-0.36,1.405-0.45c0.545-0.09,1.147-0.135,1.809-0.135
		c0.168,0,0.334,0,0.494,0c0.162,0,0.328,0.012,0.496,0.036c0.035-0.36,0.055-0.686,0.055-0.973c0-0.659-0.133-1.121-0.396-1.387
		c-0.265-0.264-0.744-0.396-1.439-0.396c-0.205,0-0.424,0.016-0.658,0.046c-0.233,0.031-0.475,0.074-0.721,0.13
		s-0.479,0.124-0.701,0.204c-0.222,0.08-0.417,0.169-0.584,0.268L344.478,144.716z M347.034,151.934
		c0.336,0,0.635-0.045,0.899-0.135s0.49-0.204,0.685-0.342c0.19-0.139,0.352-0.291,0.477-0.459c0.127-0.168,0.219-0.33,0.279-0.486
		v-1.494c-0.168-0.012-0.34-0.021-0.514-0.025c-0.175-0.006-0.345-0.011-0.513-0.011c-0.373,0-0.735,0.021-1.09,0.063
		c-0.354,0.042-0.666,0.12-0.936,0.232c-0.271,0.114-0.486,0.271-0.648,0.47c-0.162,0.196-0.242,0.446-0.242,0.747
		c0,0.42,0.148,0.765,0.449,1.033C346.182,151.799,346.565,151.934,347.034,151.934z"/>
	<path fill="#FFFFFF" d="M353.481,144.067c0.42-0.022,0.86-0.054,1.321-0.09c0.463-0.036,1.035-0.054,1.72-0.054
		c1.188,0,2.04,0.183,2.557,0.549c0.516,0.366,0.772,0.921,0.772,1.665c0,0.42-0.122,0.831-0.368,1.233
		c-0.246,0.401-0.65,0.698-1.216,0.891v0.072c0.709,0.132,1.207,0.378,1.494,0.737c0.289,0.359,0.433,0.841,0.433,1.439
		c0,0.937-0.336,1.614-1.009,2.034c-0.672,0.42-1.68,0.63-3.022,0.63c-0.504,0-0.973-0.016-1.404-0.045
		c-0.432-0.03-0.856-0.063-1.276-0.1L353.481,144.067L353.481,144.067z M356.684,147.848c0.218,0,0.427-0.036,0.632-0.106
		c0.202-0.072,0.387-0.173,0.549-0.299s0.293-0.271,0.396-0.439s0.152-0.349,0.152-0.54c0-0.479-0.146-0.813-0.432-0.999
		c-0.289-0.187-0.794-0.279-1.513-0.279c-0.385,0-0.688,0.007-0.91,0.02c-0.221,0.012-0.434,0.022-0.639,0.035v2.609
		L356.684,147.848L356.684,147.848z M354.92,151.844c0.229,0.024,0.453,0.042,0.676,0.054c0.222,0.014,0.482,0.02,0.783,0.02
		c0.803,0,1.4-0.114,1.791-0.342c0.389-0.229,0.584-0.618,0.584-1.172c0-0.432-0.164-0.781-0.494-1.053
		c-0.33-0.27-0.916-0.404-1.756-0.404h-1.584V151.844L354.92,151.844z"/>
	<path fill="#FFFFFF" d="M367.969,149.072h-4.065v3.979h-1.441v-9h1.441v3.762h4.065v-3.762h1.441v9h-1.441V149.072z"/>
	<path fill="#FFFFFF" d="M377.749,147.722l0.053-1.116h-0.053l-0.738,1.152l-4.051,5.292h-0.828v-9h1.441v5.49l-0.056,1.062h0.072
		l0.701-1.116l4.051-5.436h0.847v9h-1.439V147.722z"/>
	<path fill="#FFFFFF" d="M381.901,144.067c0.42-0.022,0.86-0.054,1.321-0.09c0.463-0.036,1.035-0.054,1.72-0.054
		c1.188,0,2.041,0.183,2.557,0.549s0.773,0.921,0.773,1.665c0,0.42-0.123,0.831-0.369,1.233c-0.246,0.401-0.65,0.698-1.215,0.891
		v0.072c0.709,0.132,1.207,0.378,1.493,0.737c0.289,0.359,0.433,0.841,0.433,1.439c0,0.937-0.336,1.614-1.008,2.034
		c-0.673,0.42-1.681,0.63-3.023,0.63c-0.504,0-0.973-0.016-1.404-0.045c-0.432-0.03-0.856-0.063-1.276-0.1L381.901,144.067
		L381.901,144.067z M385.104,147.848c0.217,0,0.426-0.036,0.631-0.106c0.203-0.072,0.387-0.173,0.549-0.299s0.293-0.271,0.396-0.439
		s0.152-0.349,0.152-0.54c0-0.479-0.145-0.813-0.432-0.999c-0.289-0.187-0.793-0.279-1.513-0.279c-0.385,0-0.688,0.007-0.91,0.02
		c-0.221,0.012-0.434,0.022-0.639,0.035v2.609L385.104,147.848L385.104,147.848z M383.34,151.844
		c0.229,0.024,0.453,0.042,0.676,0.054c0.222,0.014,0.482,0.02,0.783,0.02c0.803,0,1.4-0.114,1.791-0.342
		c0.389-0.229,0.584-0.618,0.584-1.172c0-0.432-0.164-0.781-0.494-1.053c-0.33-0.27-0.916-0.404-1.756-0.404h-1.584V151.844
		L383.34,151.844z"/>
	<path fill="#FFFFFF" d="M390.926,144.716c0.455-0.276,0.986-0.479,1.592-0.612c0.605-0.132,1.24-0.197,1.9-0.197
		c0.623,0,1.125,0.084,1.502,0.253c0.379,0.168,0.666,0.387,0.863,0.655c0.199,0.271,0.33,0.567,0.396,0.893
		c0.066,0.324,0.101,0.646,0.101,0.972c0,0.72-0.019,1.422-0.056,2.106c-0.034,0.684-0.053,1.332-0.053,1.942
		c0,0.444,0.019,0.864,0.053,1.261c0.037,0.396,0.103,0.763,0.199,1.099h-1.063l-0.379-1.26h-0.091
		c-0.106,0.168-0.241,0.333-0.403,0.494s-0.357,0.307-0.586,0.433c-0.228,0.126-0.492,0.23-0.791,0.313
		c-0.301,0.084-0.644,0.126-1.025,0.126c-0.385,0-0.742-0.06-1.072-0.18s-0.614-0.291-0.854-0.513
		c-0.24-0.223-0.428-0.489-0.566-0.801c-0.139-0.313-0.207-0.666-0.207-1.063c0-0.527,0.107-0.969,0.324-1.323
		c0.217-0.354,0.521-0.636,0.908-0.846c0.391-0.21,0.858-0.36,1.404-0.45c0.547-0.09,1.149-0.135,1.811-0.135
		c0.166,0,0.332,0,0.494,0s0.326,0.012,0.494,0.036c0.037-0.36,0.055-0.686,0.055-0.973c0-0.659-0.133-1.121-0.396-1.387
		c-0.265-0.264-0.744-0.396-1.439-0.396c-0.205,0-0.424,0.016-0.656,0.046c-0.233,0.031-0.475,0.074-0.721,0.13
		s-0.48,0.124-0.701,0.204c-0.223,0.08-0.418,0.169-0.586,0.268L390.926,144.716z M393.481,151.934c0.336,0,0.637-0.045,0.899-0.135
		s0.492-0.204,0.685-0.342c0.192-0.139,0.352-0.291,0.479-0.459c0.125-0.168,0.219-0.33,0.277-0.486v-1.494
		c-0.168-0.012-0.338-0.021-0.513-0.025c-0.174-0.006-0.346-0.011-0.514-0.011c-0.371,0-0.734,0.021-1.088,0.063
		c-0.355,0.042-0.666,0.12-0.938,0.232c-0.27,0.114-0.485,0.271-0.646,0.47c-0.162,0.196-0.244,0.446-0.244,0.747
		c0,0.42,0.15,0.765,0.451,1.033C392.629,151.799,393.014,151.934,393.481,151.934z"/>
	<path fill="#FFFFFF" d="M405.981,145.31h-2.826v7.74h-1.439v-7.74h-2.826v-1.26h7.093L405.981,145.31L405.981,145.31z"/>
	<path fill="#FFFFFF" d="M409.11,147.488c0.289-0.048,0.563-0.081,0.828-0.1c0.264-0.018,0.516-0.027,0.756-0.027
		c0.625,0,1.151,0.069,1.584,0.207c0.432,0.14,0.782,0.327,1.053,0.567s0.465,0.525,0.586,0.854c0.119,0.33,0.18,0.682,0.18,1.054
		c0,1.092-0.325,1.884-0.979,2.376s-1.672,0.737-3.051,0.737c-0.771,0-1.566-0.035-2.396-0.107v-9h1.439V147.488L409.11,147.488z
		 M409.11,151.79c0.442,0.07,0.871,0.106,1.276,0.106c0.758,0,1.314-0.146,1.677-0.439c0.358-0.294,0.538-0.711,0.538-1.251
		c0-0.48-0.174-0.876-0.521-1.188c-0.348-0.312-0.896-0.468-1.639-0.468c-0.203,0-0.427,0.006-0.666,0.018
		c-0.24,0.014-0.461,0.049-0.666,0.108V151.79L409.11,151.79z"/>
</g>
</svg>
