<?xml version="1.0" encoding="utf-8"?>
<!-- Generator: Adobe Illustrator 22.1.0, SVG Export Plug-In . SVG Version: 6.00 Build 0)  -->
<svg version="1.1" id="Layer_1" xmlns="http://www.w3.org/2000/svg" xmlns:xlink="http://www.w3.org/1999/xlink" x="0px" y="0px"
	 viewBox="0 0 303 112" style="enable-background:new 0 0 303 112;" xml:space="preserve">
<style type="text/css">
	.st0{fill:#E50647;}
	.st1{fill:#F2F2F2;}
	.st2{fill:#FFFFFF;}
	.st3{enable-background:new    ;}
</style>
<rect y="35" class="st0" width="303" height="44"/>
<rect class="st0" width="303" height="44"/>
<rect y="65" class="st0" width="177" height="47"/>
<g>
	<path class="st1" d="M127.9,23.4V22h1.5c0.3,0,0.5,0,0.7-0.1s0.5-0.2,0.7-0.3c0.2-0.1,0.4-0.3,0.5-0.5s0.2-0.4,0.2-0.6
		c0-0.5-0.2-0.9-0.6-1.2c-0.4-0.2-0.9-0.3-1.7-0.3c-0.5,0-1,0.1-1.5,0.2s-0.8,0.3-1.1,0.5l-0.5-1.3c0.4-0.2,0.9-0.4,1.5-0.6
		s1.2-0.3,2-0.3c2.3,0,3.5,0.9,3.5,2.6c0,0.5-0.2,1-0.5,1.4s-0.8,0.8-1.4,1v0.1c0.8,0.2,1.4,0.4,1.7,0.9c0.3,0.4,0.5,1,0.5,1.7
		c0,0.4-0.1,0.9-0.3,1.2c-0.2,0.4-0.5,0.7-0.8,1c-0.4,0.3-0.8,0.5-1.4,0.7c-0.6,0.2-1.2,0.2-1.9,0.2s-1.3-0.1-1.8-0.2
		s-0.9-0.3-1.3-0.5l0.5-1.4c0.3,0.2,0.7,0.3,1.2,0.4s0.9,0.1,1.5,0.1c0.9,0,1.5-0.1,2-0.4c0.4-0.3,0.7-0.7,0.7-1.3
		c0-0.5-0.2-0.9-0.6-1.2s-1.1-0.4-2.1-0.4L127.9,23.4L127.9,23.4z"/>
	<path class="st1" d="M136.2,18.3c0.5-0.3,1.2-0.6,1.9-0.7c0.7-0.2,1.4-0.2,2.2-0.2c0.7,0,1.3,0.1,1.8,0.3c0.4,0.2,0.8,0.5,1,0.8
		s0.4,0.7,0.5,1c0.1,0.4,0.1,0.8,0.1,1.1c0,0.8,0,1.7-0.1,2.5s-0.1,1.6-0.1,2.3c0,0.5,0,1,0.1,1.5c0,0.5,0.1,0.9,0.2,1.3h-1.2
		l-0.4-1.5H142c-0.1,0.2-0.3,0.4-0.5,0.6s-0.4,0.4-0.7,0.5s-0.6,0.3-0.9,0.4c-0.4,0.1-0.7,0.1-1.2,0.1s-0.9-0.1-1.3-0.2
		c-0.4-0.1-0.7-0.3-1-0.6c-0.3-0.3-0.5-0.6-0.7-0.9c-0.2-0.4-0.2-0.8-0.2-1.2c0-0.6,0.1-1.1,0.4-1.5c0.3-0.4,0.6-0.7,1.1-1
		c0.5-0.2,1-0.4,1.6-0.5s1.3-0.2,2.1-0.2c0.2,0,0.4,0,0.6,0s0.4,0,0.6,0c0-0.4,0.1-0.8,0.1-1.1c0-0.8-0.2-1.3-0.5-1.6
		c-0.3-0.3-0.9-0.5-1.7-0.5c-0.2,0-0.5,0-0.8,0.1s-0.6,0.1-0.8,0.2c-0.3,0.1-0.6,0.1-0.8,0.2s-0.5,0.2-0.7,0.3L136.2,18.3z
		 M139.2,26.8c0.4,0,0.7-0.1,1.1-0.2c0.3-0.1,0.6-0.2,0.8-0.4c0.2-0.2,0.4-0.3,0.6-0.5c0.1-0.2,0.3-0.4,0.3-0.6v-1.7
		c-0.2,0-0.4,0-0.6,0c-0.2,0-0.4,0-0.6,0c-0.4,0-0.9,0-1.3,0.1s-0.8,0.1-1.1,0.3s-0.6,0.3-0.8,0.5s-0.3,0.5-0.3,0.9
		c0,0.5,0.2,0.9,0.5,1.2C138.2,26.6,138.6,26.8,139.2,26.8z"/>
	<path class="st1" d="M153.1,23.4h-4.7V28h-1.7V17.6h1.7V22h4.7v-4.4h1.7v10.5h-1.7V23.4z"/>
	<path class="st1" d="M163.3,23.7l-1.6,0.3l-2.8,4.1h-2l2.5-3.6l0.8-0.8c-0.7-0.1-1.3-0.4-1.9-0.9c-0.5-0.5-0.8-1.1-0.8-1.9
		c0-0.6,0.1-1.2,0.3-1.6s0.5-0.8,0.9-1.1c0.4-0.3,0.9-0.5,1.4-0.6c0.6-0.1,1.2-0.2,1.9-0.2c0.5,0,1,0,1.4,0.1s0.9,0.1,1.3,0.2v10.4
		H163L163.3,23.7L163.3,23.7z M163.3,19c-0.2-0.1-0.4-0.1-0.6-0.2s-0.4-0.1-0.6-0.1c-0.9,0-1.6,0.2-2,0.5c-0.5,0.3-0.7,0.8-0.7,1.5
		c0,0.6,0.2,1.1,0.7,1.5c0.5,0.3,1.2,0.5,2,0.5c0,0,0,0,0.1,0s0.1,0,0.2,0s0.2,0,0.4,0s0.4,0,0.7,0L163.3,19L163.3,19z"/>
	<path class="st1" d="M175.2,19h-3.3v9h-1.7v-9h-3.3v-1.5h8.3V19L175.2,19z"/>
	<path class="st1" d="M183.7,21.8l0.1-1.3h-0.1l-0.9,1.3l-4.7,6.2h-1V17.6h1.7V24l-0.1,1.2h0.1l0.8-1.3l4.7-6.3h1v10.5h-1.7
		L183.7,21.8L183.7,21.8z"/>
	<path class="st1" d="M193.9,23.7l-1.6,0.3l-2.8,4.1h-2l2.5-3.6l0.8-0.8c-0.7-0.1-1.3-0.4-1.9-0.9c-0.5-0.5-0.8-1.1-0.8-1.9
		c0-0.6,0.1-1.2,0.3-1.6s0.5-0.8,0.9-1.1c0.4-0.3,0.9-0.5,1.4-0.6c0.6-0.1,1.2-0.2,1.9-0.2c0.5,0,1,0,1.4,0.1s0.9,0.1,1.3,0.2v10.4
		h-1.7L193.9,23.7L193.9,23.7z M193.9,19c-0.2-0.1-0.4-0.1-0.6-0.2s-0.4-0.1-0.6-0.1c-0.9,0-1.6,0.2-2,0.5c-0.5,0.3-0.7,0.8-0.7,1.5
		c0,0.6,0.2,1.1,0.7,1.5c0.5,0.3,1.2,0.5,2,0.5c0,0,0,0,0.1,0s0.1,0,0.2,0s0.2,0,0.4,0s0.4,0,0.7,0L193.9,19L193.9,19z"/>
	<path class="st1" d="M204.2,17.6c0.5,0,1-0.1,1.5-0.1s1.2-0.1,2-0.1c1.4,0,2.4,0.2,3,0.6s0.9,1.1,0.9,1.9c0,0.5-0.1,1-0.4,1.4
		c-0.3,0.5-0.8,0.8-1.4,1v0.1c0.8,0.2,1.4,0.4,1.7,0.9s0.5,1,0.5,1.7c0,1.1-0.4,1.9-1.2,2.4s-2,0.7-3.5,0.7c-0.6,0-1.1,0-1.6-0.1
		c-0.5,0-1-0.1-1.5-0.1V17.6z M208,22c0.3,0,0.5,0,0.7-0.1s0.5-0.2,0.6-0.3s0.3-0.3,0.5-0.5s0.2-0.4,0.2-0.6c0-0.6-0.2-0.9-0.5-1.2
		c-0.3-0.2-0.9-0.3-1.8-0.3c-0.4,0-0.8,0-1.1,0s-0.5,0-0.7,0v3H208z M205.9,26.7c0.3,0,0.5,0,0.8,0.1c0.3,0,0.6,0,0.9,0
		c0.9,0,1.6-0.1,2.1-0.4s0.7-0.7,0.7-1.4c0-0.5-0.2-0.9-0.6-1.2c-0.4-0.3-1.1-0.5-2-0.5H206L205.9,26.7L205.9,26.7z"/>
	<path class="st1" d="M226.8,23.4H222V28h-1.7V17.6h1.7V22h4.7v-4.4h1.7v10.5h-1.7v-4.7H226.8z"/>
	<path class="st1" d="M239.3,27.2c-0.4,0.3-0.9,0.6-1.6,0.8c-0.6,0.2-1.3,0.3-2,0.3c-0.8,0-1.5-0.1-2.1-0.4s-1.1-0.6-1.4-1.1
		s-0.7-1.1-0.8-1.7c-0.2-0.7-0.3-1.4-0.3-2.3c0-1.8,0.4-3.2,1.2-4.1s1.9-1.4,3.4-1.4c0.5,0,1,0.1,1.4,0.2c0.5,0.1,0.9,0.3,1.3,0.6
		c0.4,0.3,0.7,0.7,0.9,1.3c0.2,0.5,0.4,1.3,0.4,2.1c0,0.5,0,1-0.1,1.5h-6.7c0,0.6,0.1,1.2,0.2,1.6s0.3,0.9,0.6,1.2
		c0.3,0.3,0.6,0.6,1,0.8c0.4,0.2,0.9,0.3,1.6,0.3c0.5,0,1-0.1,1.4-0.3c0.5-0.2,0.8-0.4,1.1-0.6L239.3,27.2z M235.7,18.8
		c-0.8,0-1.5,0.2-2,0.6s-0.8,1.2-0.9,2.2h5.2c0-1.1-0.2-1.8-0.6-2.2C237,19,236.5,18.8,235.7,18.8z"/>
	<path class="st1" d="M252,30.7h-1.1l-0.3-2.7h-7.9l-0.3,2.7h-1.1v-4.1h1.2c0.1-0.2,0.3-0.4,0.4-0.8c0.2-0.4,0.4-1,0.5-1.7
		s0.3-1.6,0.5-2.7c0.1-1.1,0.2-2.3,0.2-3.8h6.3v9h1.5L252,30.7L252,30.7z M248.8,26.6V19h-3.1c0,0.6-0.1,1.2-0.1,1.9
		c-0.1,0.7-0.2,1.4-0.3,2.1s-0.3,1.3-0.5,2s-0.4,1.1-0.6,1.6C244.1,26.6,248.8,26.6,248.8,26.6z"/>
	<path class="st1" d="M261.7,27.2c-0.4,0.3-0.9,0.6-1.6,0.8c-0.6,0.2-1.3,0.3-2,0.3c-0.8,0-1.5-0.1-2.1-0.4s-1.1-0.6-1.4-1.1
		s-0.7-1.1-0.8-1.7c-0.2-0.7-0.3-1.4-0.3-2.3c0-1.8,0.4-3.2,1.2-4.1s1.9-1.4,3.4-1.4c0.5,0,1,0.1,1.4,0.2c0.5,0.1,0.9,0.3,1.3,0.6
		c0.4,0.3,0.7,0.7,0.9,1.3c0.2,0.5,0.4,1.3,0.4,2.1c0,0.5,0,1-0.1,1.5h-6.7c0,0.6,0.1,1.2,0.2,1.6s0.3,0.9,0.6,1.2
		c0.3,0.3,0.6,0.6,1,0.8c0.4,0.2,0.9,0.3,1.6,0.3c0.5,0,1-0.1,1.4-0.3c0.5-0.2,0.8-0.4,1.1-0.6L261.7,27.2z M258.1,18.8
		c-0.8,0-1.5,0.2-2,0.6s-0.8,1.2-0.9,2.2h5.2c0-1.1-0.2-1.8-0.6-2.2C259.4,19,258.8,18.8,258.1,18.8z"/>
	<path class="st1" d="M270.8,19h-3c0,0.6-0.1,1.2-0.1,1.9c0,0.7-0.1,1.4-0.2,2c-0.1,0.7-0.2,1.3-0.3,2c-0.1,0.6-0.3,1.2-0.5,1.6
		c-0.2,0.5-0.5,0.9-0.8,1.1s-0.7,0.4-1.1,0.4c-0.3,0-0.5,0-0.7,0s-0.4-0.1-0.5-0.1l0.3-1.4c0.2,0.1,0.4,0.1,0.5,0.1
		c0.3,0,0.5-0.1,0.8-0.4c0.2-0.2,0.4-0.7,0.6-1.4c0.2-0.7,0.3-1.6,0.4-2.8s0.2-2.7,0.2-4.6h6.3v10.5H271L270.8,19L270.8,19z"/>
	<path class="st1" d="M283.8,28.3c-0.8,0-1.4-0.1-1.9-0.3s-1-0.6-1.3-1s-0.6-0.9-0.8-1.6c-0.2-0.6-0.3-1.3-0.3-2h-2.1V28h-1.7V17.6
		h1.7V22h2.1c0.1-1.5,0.5-2.6,1.2-3.4s1.8-1.2,3.2-1.2c0.8,0,1.4,0.1,2,0.4c0.5,0.3,1,0.6,1.3,1.1s0.6,1.1,0.7,1.7
		c0.2,0.7,0.2,1.4,0.2,2.3c0,1.8-0.4,3.1-1.1,4.1S285.3,28.3,283.8,28.3z M281.1,22.8c0,0.5,0,1.1,0.1,1.6s0.2,0.9,0.4,1.3
		c0.2,0.4,0.5,0.7,0.9,0.9c0.4,0.2,0.8,0.3,1.3,0.3c0.9,0,1.5-0.3,1.9-1s0.6-1.7,0.6-3.1c0-0.5,0-1.1-0.1-1.6s-0.2-0.9-0.4-1.3
		c-0.2-0.4-0.5-0.7-0.8-0.9c-0.3-0.2-0.7-0.3-1.2-0.3c-1,0-1.7,0.3-2.1,1S281.1,21.4,281.1,22.8z"/>
	<path class="st1" d="M97.4,52.2h-4.6v9h-1.7V50.8h8v10.5h-1.7C97.4,61.3,97.4,52.2,97.4,52.2z"/>
	<path class="st1" d="M102.2,50.8h1.2l0.3,1.3h0.1c0.3-0.5,0.7-0.9,1.3-1.1c0.5-0.3,1.1-0.4,1.8-0.4c1.4,0,2.4,0.4,3.1,1.2
		s1,2.2,1,4.1c0,0.9-0.1,1.7-0.3,2.4c-0.2,0.7-0.6,1.3-1,1.8s-0.9,0.9-1.5,1.1s-1.3,0.4-2,0.4c-0.5,0-0.9,0-1.2-0.1
		c-0.3-0.1-0.6-0.2-1-0.3v4.4h-1.7L102.2,50.8L102.2,50.8z M106.4,52c-0.7,0-1.3,0.2-1.7,0.6c-0.4,0.4-0.7,0.9-0.9,1.7v5.2
		c0.3,0.2,0.5,0.3,0.9,0.5s0.7,0.2,1.3,0.2c1,0,1.7-0.4,2.3-1.1s0.9-1.8,0.9-3.2c0-0.6,0-1.1-0.1-1.6s-0.3-0.9-0.5-1.2
		s-0.5-0.6-0.8-0.8C107.4,52.1,106.9,52,106.4,52z"/>
	<path class="st1" d="M113,56c0-1.8,0.4-3.1,1.2-4.1s1.9-1.4,3.4-1.4c0.8,0,1.5,0.1,2,0.4c0.6,0.3,1.1,0.6,1.4,1.1
		c0.4,0.5,0.7,1.1,0.8,1.7s0.3,1.4,0.3,2.3c0,1.8-0.4,3.1-1.2,4.1c-0.8,0.9-1.9,1.4-3.4,1.4c-0.8,0-1.5-0.1-2-0.4
		c-0.6-0.3-1.1-0.6-1.4-1.1s-0.7-1.1-0.8-1.7C113.1,57.6,113,56.8,113,56z M114.8,56c0,0.5,0.1,1,0.2,1.5s0.3,0.9,0.5,1.3
		s0.5,0.7,0.9,0.9s0.8,0.3,1.3,0.3c1.9,0,2.9-1.3,2.9-4c0-0.5-0.1-1.1-0.2-1.6s-0.3-0.9-0.5-1.3c-0.2-0.4-0.5-0.7-0.9-0.9
		s-0.8-0.3-1.3-0.3C115.7,52,114.8,53.3,114.8,56z"/>
	<path class="st1" d="M134.3,63.9h-1.1l-0.3-2.7H125l-0.3,2.7h-1.1v-4.1h1.2c0.1-0.2,0.3-0.4,0.4-0.8s0.4-1,0.5-1.7
		c0.2-0.7,0.3-1.6,0.5-2.7c0.1-1.1,0.2-2.3,0.2-3.8h6.3v9h1.5L134.3,63.9L134.3,63.9z M131.1,59.8v-7.6h-3.2c0,0.6-0.1,1.2-0.1,1.9
		c-0.1,0.7-0.2,1.4-0.3,2.1c-0.1,0.7-0.3,1.3-0.5,2s-0.4,1.1-0.6,1.6C126.4,59.8,131.1,59.8,131.1,59.8z"/>
	<path class="st1" d="M135.8,56c0-1.8,0.4-3.1,1.2-4.1s1.9-1.4,3.4-1.4c0.8,0,1.5,0.1,2,0.4c0.6,0.3,1.1,0.6,1.4,1.1
		c0.4,0.5,0.7,1.1,0.8,1.7c0.2,0.7,0.3,1.4,0.3,2.3c0,1.8-0.4,3.1-1.2,4.1s-1.9,1.4-3.4,1.4c-0.8,0-1.5-0.1-2-0.4
		c-0.6-0.3-1.1-0.6-1.4-1.1s-0.7-1.1-0.8-1.7S135.8,56.8,135.8,56z M137.5,56c0,0.5,0.1,1,0.2,1.5s0.3,0.9,0.5,1.3s0.5,0.7,0.9,0.9
		s0.8,0.3,1.3,0.3c1.9,0,2.9-1.3,2.9-4c0-0.5-0.1-1.1-0.2-1.6s-0.3-0.9-0.5-1.3c-0.2-0.4-0.5-0.7-0.9-0.9s-0.8-0.3-1.3-0.3
		C138.5,52,137.5,53.3,137.5,56z"/>
	<path class="st1" d="M153.4,52.2h-3c0,0.6-0.1,1.2-0.1,1.9s-0.1,1.4-0.2,2c-0.1,0.7-0.2,1.3-0.3,2c-0.1,0.6-0.3,1.2-0.5,1.6
		c-0.2,0.5-0.5,0.9-0.8,1.1s-0.7,0.4-1.1,0.4c-0.3,0-0.5,0-0.7,0s-0.4-0.1-0.5-0.1l0.3-1.4c0.2,0.1,0.4,0.1,0.5,0.1
		c0.3,0,0.5-0.1,0.8-0.4s0.4-0.7,0.6-1.4c0.2-0.7,0.3-1.6,0.4-2.8c0.1-1.2,0.2-2.7,0.2-4.6h6.3v10.5h-1.7L153.4,52.2L153.4,52.2z"/>
	<path class="st1" d="M162.1,56.6l-3.1,4.6h-1.9l3.3-4.8l0.7-0.6L160,55l-2.7-4.3h1.8l2.9,4.5h1.1v-4.5h1.6v4.7l1-0.3l2.9-4.5h1.8
		l-2.9,4.3l-0.8,0.7l1.1,0.8l3.1,4.7h-2l-3.1-4.7h-1.1v4.7h-1.6v-4.9L162.1,56.6z"/>
	<path class="st1" d="M179.4,55l0.1-1.3h-0.1l-0.9,1.3l-4.7,6.2h-1V50.8h1.7v6.4l-0.1,1.2h0.1l0.8-1.3l4.7-6.3h1v10.5h-1.7L179.4,55
		L179.4,55z"/>
	<path class="st1" d="M191.2,52.2h-3.3v9h-1.7v-9H183v-1.5h8.3L191.2,52.2L191.2,52.2z"/>
	<path class="st1" d="M200.8,60.4c-0.4,0.3-0.9,0.6-1.6,0.8c-0.6,0.2-1.3,0.3-2,0.3c-0.8,0-1.5-0.1-2.1-0.4
		c-0.6-0.3-1.1-0.6-1.4-1.1s-0.7-1.1-0.8-1.7c-0.2-0.7-0.3-1.4-0.3-2.3c0-1.8,0.4-3.2,1.2-4.1c0.8-0.9,1.9-1.4,3.4-1.4
		c0.5,0,1,0.1,1.4,0.2c0.5,0.1,0.9,0.3,1.3,0.6c0.4,0.3,0.7,0.7,0.9,1.2s0.4,1.2,0.4,2.1c0,0.5,0,1-0.1,1.5h-6.7
		c0,0.6,0.1,1.2,0.2,1.6s0.3,0.9,0.6,1.2s0.6,0.6,1,0.8s0.9,0.3,1.6,0.3c0.5,0,1-0.1,1.4-0.3s0.8-0.4,1.1-0.6L200.8,60.4z M197.2,52
		c-0.8,0-1.5,0.2-2,0.7c-0.5,0.4-0.8,1.2-0.9,2.2h5.2c0-1.1-0.2-1.8-0.6-2.2C198.5,52.2,197.9,52,197.2,52z"/>
	<path class="st1" d="M209.9,52.2h-3c0,0.6-0.1,1.2-0.1,1.9s-0.1,1.4-0.2,2c-0.1,0.7-0.2,1.3-0.3,2c-0.1,0.6-0.3,1.2-0.5,1.6
		c-0.2,0.5-0.5,0.9-0.8,1.1s-0.7,0.4-1.1,0.4c-0.3,0-0.5,0-0.7,0s-0.4-0.1-0.5-0.1l0.3-1.4c0.2,0.1,0.4,0.1,0.5,0.1
		c0.3,0,0.5-0.1,0.8-0.4s0.4-0.7,0.6-1.4c0.2-0.7,0.3-1.6,0.4-2.8c0.1-1.2,0.2-2.7,0.2-4.6h6.3v10.5h-1.7L209.9,52.2L209.9,52.2z"/>
	<path class="st1" d="M216.4,54.8c0.3-0.1,0.7-0.1,1-0.1s0.6,0,0.9,0c0.7,0,1.3,0.1,1.8,0.2c0.5,0.2,0.9,0.4,1.2,0.7s0.5,0.6,0.7,1
		c0.1,0.4,0.2,0.8,0.2,1.2c0,1.3-0.4,2.2-1.1,2.8c-0.8,0.6-1.9,0.9-3.6,0.9c-0.9,0-1.8,0-2.8-0.1V50.8h1.7L216.4,54.8L216.4,54.8z
		 M216.4,59.8c0.5,0.1,1,0.1,1.5,0.1c0.9,0,1.5-0.2,2-0.5c0.4-0.3,0.6-0.8,0.6-1.5c0-0.6-0.2-1-0.6-1.4c-0.4-0.4-1-0.5-1.9-0.5
		c-0.2,0-0.5,0-0.8,0s-0.5,0.1-0.8,0.1V59.8L216.4,59.8z"/>
	<path class="st1" d="M230.9,56.6h-4.7v4.6h-1.7V50.8h1.7v4.4h4.7v-4.4h1.7v10.5h-1.7V56.6z"/>
	<path class="st1" d="M235.2,56c0-1.8,0.4-3.1,1.2-4.1s1.9-1.4,3.4-1.4c0.8,0,1.5,0.1,2,0.4c0.6,0.3,1.1,0.6,1.4,1.1
		c0.4,0.5,0.7,1.1,0.8,1.7c0.2,0.7,0.3,1.4,0.3,2.3c0,1.8-0.4,3.1-1.2,4.1s-1.9,1.4-3.4,1.4c-0.8,0-1.5-0.1-2-0.4
		c-0.6-0.3-1.1-0.6-1.4-1.1s-0.7-1.1-0.8-1.7S235.2,56.8,235.2,56z M237,56c0,0.5,0.1,1,0.2,1.5s0.3,0.9,0.5,1.3s0.5,0.7,0.9,0.9
		s0.8,0.3,1.3,0.3c1.9,0,2.9-1.3,2.9-4c0-0.5-0.1-1.1-0.2-1.6s-0.3-0.9-0.5-1.3c-0.2-0.4-0.5-0.7-0.9-0.9s-0.8-0.3-1.3-0.3
		C237.9,52,237,53.3,237,56z"/>
	<path class="st1" d="M254.3,60.6c-0.4,0.3-0.9,0.5-1.5,0.7s-1.2,0.2-1.8,0.2c-0.8,0-1.5-0.1-2.1-0.4c-0.6-0.3-1-0.6-1.4-1.1
		s-0.6-1.1-0.8-1.7s-0.2-1.4-0.2-2.3c0-1.8,0.4-3.1,1.2-4.1s1.9-1.4,3.4-1.4c0.7,0,1.2,0.1,1.7,0.2c0.5,0.1,0.9,0.3,1.3,0.5
		l-0.5,1.4c-0.3-0.2-0.7-0.3-1.1-0.4c-0.4-0.1-0.8-0.2-1.3-0.2c-2,0-3,1.3-3,4c0,0.5,0.1,1,0.2,1.5c0.1,0.5,0.3,0.9,0.5,1.3
		s0.6,0.7,1,0.9s0.9,0.3,1.5,0.3c0.5,0,1-0.1,1.4-0.2s0.7-0.3,1-0.5L254.3,60.6z"/>
	<path class="st1" d="M264,52.2h-3.3v9H259v-9h-3.3v-1.5h8.3V52.2z"/>
	<path class="st1" d="M267.6,54.8c0.3-0.1,0.7-0.1,1-0.1s0.6,0,0.9,0c0.7,0,1.3,0.1,1.8,0.2c0.5,0.2,0.9,0.4,1.2,0.7s0.5,0.6,0.7,1
		c0.1,0.4,0.2,0.8,0.2,1.2c0,1.3-0.4,2.2-1.1,2.8c-0.8,0.6-2,0.9-3.6,0.9c-0.9,0-1.8,0-2.8-0.1V50.8h1.7L267.6,54.8L267.6,54.8z
		 M267.6,59.8c0.5,0.1,1,0.1,1.5,0.1c0.9,0,1.5-0.2,2-0.5c0.4-0.3,0.6-0.8,0.6-1.5c0-0.6-0.2-1-0.6-1.4s-1-0.5-1.9-0.5
		c-0.2,0-0.5,0-0.8,0s-0.5,0.1-0.8,0.1L267.6,59.8L267.6,59.8z"/>
	<path class="st1" d="M283.8,61.5c-0.8,0-1.4-0.1-1.9-0.3s-1-0.6-1.3-1s-0.6-0.9-0.8-1.6c-0.2-0.6-0.3-1.3-0.3-2h-2.1v4.6h-1.7V50.8
		h1.7v4.4h2.1c0.1-1.5,0.5-2.6,1.2-3.4s1.8-1.2,3.2-1.2c0.8,0,1.4,0.1,2,0.4c0.5,0.3,1,0.6,1.3,1.1s0.6,1.1,0.7,1.7
		c0.2,0.7,0.2,1.4,0.2,2.3c0,1.8-0.4,3.1-1.1,4.1S285.3,61.5,283.8,61.5z M281.1,56c0,0.5,0,1.1,0.1,1.6s0.2,0.9,0.4,1.3
		c0.2,0.4,0.5,0.7,0.9,0.9s0.8,0.3,1.3,0.3c0.9,0,1.5-0.3,1.9-1s0.6-1.7,0.6-3.1c0-0.5,0-1.1-0.1-1.6s-0.2-0.9-0.4-1.3
		s-0.5-0.7-0.8-0.9s-0.7-0.3-1.2-0.3c-1,0-1.7,0.3-2.1,1C281.3,53.6,281.1,54.6,281.1,56z"/>
	<path class="st1" d="M91.7,92.9h2.9V82.7l0.2-1.2l-0.8,1l-2.3,1.7l-0.8-1.1l4.6-3.6h0.8v13.4h2.9v1.6h-7.5
		C91.7,94.5,91.7,92.9,91.7,92.9z"/>
	<path class="st1" d="M101.6,93.6c0-0.3,0.1-0.6,0.3-0.8s0.5-0.3,0.9-0.3s0.8,0.2,1.1,0.5c0.3,0.3,0.4,0.8,0.4,1.3s-0.1,0.9-0.2,1.3
		s-0.3,0.7-0.5,1s-0.5,0.5-0.7,0.7c-0.3,0.2-0.5,0.3-0.8,0.4l-0.5-0.8c0.5-0.2,0.9-0.5,1.1-0.9s0.4-0.8,0.4-1.2
		c-0.1,0-0.2,0.1-0.4,0.1c-0.3,0-0.5-0.1-0.7-0.3C101.7,94.2,101.6,93.9,101.6,93.6z"/>
	<path class="st1" d="M109.6,93.2c1,0,1.8-0.3,2.4-0.8c0.6-0.6,0.9-1.4,0.9-2.4s-0.3-1.8-0.9-2.3s-1.5-0.8-2.6-0.8l-1.8,0.1v-7.3
		h6.6v1.6h-5v4.2h0.9c1.4,0,2.5,0.4,3.3,1.2s1.2,1.8,1.2,3.3c0,0.8-0.1,1.5-0.4,2.1s-0.6,1.1-1.1,1.5s-1,0.7-1.6,0.9s-1.3,0.3-2,0.3
		c-0.6,0-1.2,0-1.6-0.1s-0.8-0.2-1.2-0.3l0.4-1.4c0.3,0.1,0.7,0.2,1,0.3C108.6,93.2,109.1,93.2,109.6,93.2z"/>
	<path class="st1" d="M124.9,84v2.9c0,0.4,0,0.7,0.1,1s0.1,0.6,0.3,0.8s0.3,0.4,0.5,0.5s0.6,0.2,0.9,0.2c0.6,0,1.1-0.1,1.6-0.2
		c0.4-0.1,0.7-0.3,0.9-0.5V84h1.7v10.5h-1.7v-4.4c-0.2,0.1-0.6,0.3-1,0.5s-1,0.3-1.8,0.3c-0.5,0-1-0.1-1.4-0.2s-0.7-0.3-1-0.6
		c-0.3-0.3-0.5-0.7-0.6-1.1c-0.1-0.5-0.2-1-0.2-1.7V84H124.9L124.9,84z"/>
	<path class="st1" d="M133.9,84.7c0.5-0.3,1.2-0.6,1.9-0.7c0.7-0.2,1.4-0.2,2.2-0.2c0.7,0,1.3,0.1,1.8,0.3c0.4,0.2,0.8,0.5,1,0.8
		s0.4,0.7,0.5,1c0.1,0.4,0.1,0.8,0.1,1.1c0,0.8,0,1.7-0.1,2.5s-0.1,1.6-0.1,2.3c0,0.5,0,1,0.1,1.5c0,0.5,0.1,0.9,0.2,1.3h-1.2
		l-0.4-1.5h-0.1c-0.1,0.2-0.3,0.4-0.5,0.6s-0.4,0.4-0.7,0.5s-0.6,0.3-0.9,0.4c-0.4,0.1-0.7,0.1-1.2,0.1c-0.4,0-0.9-0.1-1.3-0.2
		c-0.4-0.1-0.7-0.3-1-0.6c-0.3-0.3-0.5-0.6-0.7-0.9s-0.2-0.8-0.2-1.2c0-0.6,0.1-1.1,0.4-1.5c0.3-0.4,0.6-0.7,1.1-1
		c0.5-0.2,1-0.4,1.6-0.5s1.3-0.2,2.1-0.2c0.2,0,0.4,0,0.6,0s0.4,0,0.6,0c0-0.4,0.1-0.8,0.1-1.1c0-0.8-0.2-1.3-0.5-1.6
		c-0.3-0.3-0.9-0.5-1.7-0.5c-0.2,0-0.5,0-0.8,0.1s-0.6,0.1-0.8,0.2s-0.6,0.1-0.8,0.2s-0.5,0.2-0.7,0.3L133.9,84.7z M136.8,93.2
		c0.4,0,0.7-0.1,1.1-0.2c0.3-0.1,0.6-0.2,0.8-0.4c0.2-0.2,0.4-0.3,0.6-0.5s0.3-0.4,0.3-0.6v-1.7c-0.2,0-0.4,0-0.6,0
		c-0.2,0-0.4,0-0.6,0c-0.4,0-0.9,0-1.3,0.1s-0.8,0.1-1.1,0.3s-0.6,0.3-0.8,0.5s-0.3,0.5-0.3,0.9c0,0.5,0.2,0.9,0.5,1.2
		C135.8,93,136.3,93.2,136.8,93.2z"/>
	<path class="st1" d="M151.5,93.8c-0.4,0.3-0.9,0.5-1.5,0.7s-1.2,0.2-1.8,0.2c-0.8,0-1.5-0.1-2.1-0.4s-1-0.6-1.4-1.1
		s-0.6-1.1-0.8-1.7c-0.2-0.7-0.2-1.4-0.2-2.3c0-1.8,0.4-3.1,1.2-4.1s1.9-1.4,3.4-1.4c0.7,0,1.2,0.1,1.7,0.2s0.9,0.3,1.3,0.5
		l-0.5,1.4c-0.3-0.2-0.7-0.3-1.1-0.4c-0.4-0.1-0.8-0.2-1.3-0.2c-2,0-3,1.3-3,4c0,0.5,0.1,1,0.2,1.5c0.1,0.5,0.3,0.9,0.5,1.3
		s0.6,0.7,1,0.9s0.9,0.3,1.5,0.3c0.5,0,1-0.1,1.4-0.2c0.4-0.2,0.7-0.3,1-0.5L151.5,93.8z"/>
	<path class="st1" d="M153.8,84.7c0.5-0.3,1.2-0.6,1.9-0.7c0.7-0.2,1.4-0.2,2.2-0.2c0.7,0,1.3,0.1,1.8,0.3c0.4,0.2,0.8,0.5,1,0.8
		s0.4,0.7,0.5,1c0.1,0.4,0.1,0.8,0.1,1.1c0,0.8,0,1.7-0.1,2.5s-0.1,1.6-0.1,2.3c0,0.5,0,1,0.1,1.5c0,0.5,0.1,0.9,0.2,1.3h-1.2
		l-0.4-1.5h-0.1c-0.1,0.2-0.3,0.4-0.5,0.6s-0.4,0.4-0.7,0.5s-0.6,0.3-0.9,0.4c-0.4,0.1-0.7,0.1-1.2,0.1c-0.4,0-0.9-0.1-1.3-0.2
		c-0.4-0.1-0.7-0.3-1-0.6c-0.3-0.3-0.5-0.6-0.7-0.9s-0.2-0.8-0.2-1.2c0-0.6,0.1-1.1,0.4-1.5c0.3-0.4,0.6-0.7,1.1-1
		c0.5-0.2,1-0.4,1.6-0.5s1.3-0.2,2.1-0.2c0.2,0,0.4,0,0.6,0s0.4,0,0.6,0c0-0.4,0.1-0.8,0.1-1.1c0-0.8-0.2-1.3-0.5-1.6
		c-0.3-0.3-0.9-0.5-1.7-0.5c-0.2,0-0.5,0-0.8,0.1s-0.6,0.1-0.8,0.2s-0.6,0.1-0.8,0.2s-0.5,0.2-0.7,0.3L153.8,84.7z M156.8,93.2
		c0.4,0,0.7-0.1,1.1-0.2c0.3-0.1,0.6-0.2,0.8-0.4c0.2-0.2,0.4-0.3,0.6-0.5s0.3-0.4,0.3-0.6v-1.7c-0.2,0-0.4,0-0.6,0
		c-0.2,0-0.4,0-0.6,0c-0.4,0-0.9,0-1.3,0.1s-0.8,0.1-1.1,0.3s-0.6,0.3-0.8,0.5s-0.3,0.5-0.3,0.9c0,0.5,0.2,0.9,0.5,1.2
		C155.8,93,156.3,93.2,156.8,93.2z"/>
</g>
<g>
	<path class="st2" d="M66.5,97.6c-6.5,0-13.2,0-19.7,0V81.9H10.7v-9.2l33.1-58h22.8v49.9h7.1c0,5.8,0,11.7,0,17.3h-7.1L66.5,97.6
		L66.5,97.6z M34.4,64.6h13.3V52.1l1.5-12.7H49L34.4,64.6z"/>
</g>
<g class="st3">
	<path class="st2" d="M99.3,16.7c0,0.7-0.1,1.5-0.4,2.3c-0.3,0.8-0.6,1.6-1.1,2.3c-0.4,0.8-0.9,1.6-1.5,2.3
		c-0.5,0.7-1.1,1.5-1.6,2.1l-1,0.9v0.1l1.3-0.2h4.6v1.6h-8.4v-0.6c0.3-0.3,0.7-0.7,1.1-1.2c0.4-0.5,0.9-1,1.4-1.6
		c0.5-0.6,0.9-1.2,1.4-1.8c0.5-0.7,0.9-1.3,1.2-2c0.4-0.7,0.7-1.3,0.9-2c0.2-0.7,0.3-1.3,0.3-1.9c0-0.7-0.2-1.3-0.6-1.7
		c-0.4-0.5-1-0.7-1.8-0.7c-0.5,0-1,0.1-1.6,0.3c-0.5,0.2-0.9,0.5-1.3,0.7l-0.7-1.2c0.5-0.4,1.1-0.7,1.7-1c0.7-0.2,1.4-0.4,2.2-0.4
		c0.6,0,1.1,0.1,1.6,0.3s0.9,0.4,1.2,0.7c0.3,0.3,0.6,0.7,0.7,1.1C99.2,15.7,99.3,16.2,99.3,16.7z"/>
</g>
<g class="st3">
	<path class="st2" d="M101.7,21.3h8.9v1.6h-8.9V21.3z"/>
</g>
<g class="st3">
	<path class="st2" d="M115.2,26.9c0.5,0,0.9-0.1,1.3-0.2s0.8-0.3,1.1-0.6c0.3-0.3,0.5-0.6,0.7-1s0.3-0.8,0.3-1.2
		c0-1-0.3-1.7-0.9-2.2c-0.6-0.5-1.4-0.7-2.4-0.7h-1.6v-0.6l3-4.7l1-0.9l-1.4,0.2h-4.2v-1.6h7.5V14l-3.3,5l-0.7,0.6v0l0.7-0.1
		c0.6,0,1.1,0.1,1.6,0.3c0.5,0.2,0.9,0.5,1.2,0.8c0.4,0.4,0.6,0.8,0.8,1.3c0.2,0.5,0.3,1.1,0.3,1.7c0,0.8-0.1,1.4-0.4,2
		c-0.3,0.6-0.6,1.1-1.1,1.5c-0.5,0.4-1,0.7-1.6,0.9c-0.6,0.2-1.3,0.3-2,0.3c-0.6,0-1.2,0-1.7-0.1c-0.5-0.1-0.9-0.2-1.3-0.4l0.4-1.5
		c0.3,0.2,0.7,0.3,1.1,0.4C114.1,26.8,114.6,26.9,115.2,26.9z"/>
</g>
</svg>
