<?xml version="1.0" encoding="utf-8"?>
<!-- Generator: Adobe Illustrator 14.0.0, SVG Export Plug-In . SVG Version: 6.00 Build 43363)  -->
<!DOCTYPE svg PUBLIC "-//W3C//DTD SVG 1.1//EN" "http://www.w3.org/Graphics/SVG/1.1/DTD/svg11.dtd">
<svg version="1.1" id="Layer_1" xmlns="http://www.w3.org/2000/svg" xmlns:xlink="http://www.w3.org/1999/xlink" x="0px" y="0px"
	 width="490px" height="111px" viewBox="-0.426 0 490 111" enable-background="new -0.426 0 490 111" xml:space="preserve">
<rect x="-0.426" y="32.426" fill="#E50647" width="489.465" height="44"/>
<rect x="-0.426" fill="#E50647" width="429.176" height="43"/>
<rect x="-0.426" y="65" fill="#E50647" width="388.676" height="46"/>
<g>
	<path fill="#FFFFFF" d="M37.88,42.982c19.32-1.186,38.05,2.727,38.167,27.381c0.118,14.223-9.957,28.92-29.157,28.92
		c-15.767,0-27.264-10.193-27.975-27.023h18.253c0.119,5.451,3.674,8.297,9.246,8.297c5.81,0,9.364-3.438,9.482-10.191
		c-0.237-4.979-2.847-7.588-7.468-8.893c-8.416-2.488-21.93-0.711-28.093-0.592V14.654h51.681V32.67H37.88V42.982z"/>
</g>
<g>
	<path fill="#FFFFFF" d="M100.939,20.865h-7.392v7.062h-1.826v-15.4h1.826v6.71h7.392v-6.71h1.826v15.4h-1.826V20.865z"/>
	<path fill="#FFFFFF" d="M106.153,17.741c0.557-0.338,1.206-0.587,1.947-0.748c0.741-0.162,1.514-0.242,2.321-0.242
		c0.762,0,1.375,0.103,1.837,0.308c0.462,0.206,0.814,0.474,1.056,0.803c0.242,0.33,0.403,0.693,0.484,1.09
		c0.081,0.396,0.121,0.792,0.121,1.188c0,0.88-0.022,1.738-0.066,2.574c-0.044,0.836-0.066,1.628-0.066,2.376
		c0,0.543,0.022,1.056,0.066,1.54c0.044,0.483,0.125,0.932,0.242,1.342h-1.298l-0.462-1.54h-0.11
		c-0.132,0.206-0.297,0.407-0.495,0.605c-0.198,0.197-0.437,0.374-0.715,0.527c-0.279,0.154-0.602,0.283-0.968,0.386
		c-0.367,0.102-0.785,0.153-1.254,0.153c-0.47,0-0.906-0.073-1.309-0.22c-0.404-0.146-0.752-0.355-1.045-0.627
		c-0.294-0.271-0.525-0.598-0.693-0.979c-0.168-0.381-0.253-0.813-0.253-1.298c0-0.645,0.132-1.184,0.396-1.617
		c0.264-0.432,0.634-0.776,1.111-1.033c0.476-0.257,1.048-0.44,1.716-0.551c0.667-0.109,1.404-0.165,2.211-0.165
		c0.205,0,0.407,0,0.605,0c0.198,0,0.399,0.016,0.605,0.045c0.044-0.44,0.066-0.837,0.066-1.188c0-0.807-0.162-1.371-0.484-1.694
		c-0.323-0.322-0.91-0.483-1.76-0.483c-0.25,0-0.517,0.019-0.803,0.057s-0.58,0.09-0.88,0.158c-0.301,0.068-0.587,0.151-0.858,0.249
		c-0.272,0.098-0.51,0.207-0.715,0.328L106.153,17.741z M109.277,26.562c0.41,0,0.777-0.055,1.1-0.165
		c0.322-0.109,0.601-0.249,0.836-0.418c0.234-0.168,0.429-0.355,0.583-0.561c0.154-0.205,0.267-0.403,0.341-0.594v-1.826
		c-0.206-0.015-0.415-0.025-0.627-0.033c-0.213-0.007-0.422-0.011-0.627-0.011c-0.455,0-0.898,0.025-1.331,0.077
		c-0.433,0.051-0.814,0.146-1.144,0.285c-0.33,0.14-0.594,0.33-0.792,0.572c-0.198,0.242-0.297,0.547-0.297,0.913
		c0,0.514,0.183,0.935,0.55,1.265S108.704,26.562,109.277,26.562z"/>
	<path fill="#FFFFFF" d="M117.24,27.926v-11h1.76v9.46h3.762v-9.46h1.76v9.46h3.762v-9.46h1.76v11H117.24z"/>
	<path fill="#FFFFFF" d="M140.297,21.415l0.066-1.364h-0.066l-0.902,1.408l-4.95,6.468h-1.012v-11h1.76v6.71l-0.066,1.298h0.088
		l0.858-1.364l4.95-6.644h1.034v11h-1.76V21.415z"/>
	<path fill="#FFFFFF" d="M157.94,18.466h-4.862v9.46h-1.76v-11h8.382v11h-1.76V18.466z"/>
	<path fill="#FFFFFF" d="M171.118,27.046c-0.44,0.352-0.994,0.631-1.661,0.836c-0.667,0.205-1.375,0.308-2.123,0.308
		c-0.836,0-1.562-0.136-2.178-0.406c-0.616-0.271-1.122-0.66-1.518-1.166c-0.396-0.507-0.69-1.111-0.88-1.815
		s-0.286-1.496-0.286-2.376c0-1.877,0.418-3.308,1.254-4.29s2.031-1.474,3.586-1.474c0.499,0,0.997,0.055,1.496,0.165
		c0.499,0.109,0.946,0.318,1.342,0.627c0.396,0.308,0.719,0.744,0.968,1.309c0.249,0.564,0.374,1.31,0.374,2.233
		c0,0.483-0.044,1.02-0.132,1.605h-7.062c0,0.646,0.066,1.218,0.198,1.716c0.132,0.499,0.337,0.921,0.616,1.266
		c0.279,0.345,0.642,0.608,1.089,0.792c0.447,0.184,0.993,0.274,1.639,0.274c0.499,0,0.998-0.088,1.496-0.264
		s0.873-0.381,1.122-0.616L171.118,27.046z M167.334,18.203c-0.866,0-1.559,0.228-2.079,0.682c-0.521,0.455-0.833,1.232-0.935,2.332
		h5.456c0-1.114-0.212-1.896-0.638-2.343C168.712,18.426,168.111,18.203,167.334,18.203z"/>
	<path fill="#FFFFFF" d="M183.504,30.72h-1.188l-0.33-2.794h-8.272l-0.33,2.794h-1.188v-4.334h1.298
		c0.117-0.161,0.271-0.451,0.462-0.869c0.19-0.418,0.377-1.004,0.561-1.76c0.183-0.755,0.344-1.694,0.484-2.816
		c0.139-1.122,0.224-2.46,0.253-4.015h6.644v9.46h1.606V30.72z M180.138,26.386v-7.92h-3.3c-0.029,0.616-0.081,1.287-0.154,2.013
		c-0.074,0.727-0.173,1.452-0.297,2.179c-0.125,0.726-0.282,1.411-0.473,2.057c-0.191,0.646-0.411,1.203-0.66,1.672H180.138z"/>
	<path fill="#FFFFFF" d="M185.506,17.741c0.557-0.338,1.206-0.587,1.947-0.748c0.741-0.162,1.514-0.242,2.321-0.242
		c0.762,0,1.375,0.103,1.837,0.308c0.462,0.206,0.814,0.474,1.056,0.803c0.242,0.33,0.403,0.693,0.484,1.09
		c0.081,0.396,0.121,0.792,0.121,1.188c0,0.88-0.022,1.738-0.066,2.574c-0.044,0.836-0.066,1.628-0.066,2.376
		c0,0.543,0.022,1.056,0.066,1.54c0.044,0.483,0.125,0.932,0.242,1.342h-1.298l-0.462-1.54h-0.11
		c-0.132,0.206-0.297,0.407-0.495,0.605c-0.198,0.197-0.437,0.374-0.715,0.527c-0.279,0.154-0.602,0.283-0.968,0.386
		c-0.367,0.102-0.785,0.153-1.254,0.153c-0.47,0-0.906-0.073-1.309-0.22c-0.404-0.146-0.752-0.355-1.045-0.627
		c-0.294-0.271-0.525-0.598-0.693-0.979c-0.168-0.381-0.253-0.813-0.253-1.298c0-0.645,0.132-1.184,0.396-1.617
		c0.264-0.432,0.634-0.776,1.111-1.033c0.476-0.257,1.048-0.44,1.716-0.551c0.667-0.109,1.404-0.165,2.211-0.165
		c0.205,0,0.407,0,0.605,0c0.198,0,0.399,0.016,0.605,0.045c0.044-0.44,0.066-0.837,0.066-1.188c0-0.807-0.162-1.371-0.484-1.694
		c-0.323-0.322-0.91-0.483-1.76-0.483c-0.25,0-0.517,0.019-0.803,0.057s-0.58,0.09-0.88,0.158c-0.301,0.068-0.587,0.151-0.858,0.249
		c-0.272,0.098-0.51,0.207-0.715,0.328L185.506,17.741z M188.63,26.562c0.41,0,0.777-0.055,1.1-0.165
		c0.322-0.109,0.601-0.249,0.836-0.418c0.234-0.168,0.429-0.355,0.583-0.561c0.154-0.205,0.267-0.403,0.341-0.594v-1.826
		c-0.206-0.015-0.415-0.025-0.627-0.033c-0.213-0.007-0.422-0.011-0.627-0.011c-0.455,0-0.898,0.025-1.331,0.077
		c-0.433,0.051-0.814,0.146-1.144,0.285c-0.33,0.14-0.594,0.33-0.792,0.572c-0.198,0.242-0.297,0.547-0.297,0.913
		c0,0.514,0.183,0.935,0.55,1.265S188.057,26.562,188.63,26.562z"/>
	<path fill="#FFFFFF" d="M203.017,18.466h-4.664v9.46h-1.76v-11h6.424V18.466z"/>
	<path fill="#FFFFFF" d="M203.743,22.426c0-1.862,0.414-3.289,1.243-4.279c0.829-0.989,2.021-1.484,3.575-1.484
		c0.821,0,1.536,0.136,2.145,0.406c0.608,0.272,1.111,0.66,1.507,1.166c0.396,0.507,0.689,1.115,0.88,1.826
		c0.19,0.712,0.286,1.5,0.286,2.365c0,1.862-0.415,3.289-1.243,4.279c-0.829,0.989-2.021,1.484-3.575,1.484
		c-0.822,0-1.537-0.136-2.145-0.406c-0.609-0.271-1.111-0.66-1.507-1.166c-0.396-0.507-0.69-1.115-0.88-1.826
		C203.839,24.08,203.743,23.292,203.743,22.426z M205.569,22.426c0,0.558,0.055,1.093,0.165,1.606
		c0.11,0.513,0.282,0.96,0.517,1.342c0.234,0.381,0.542,0.689,0.924,0.924s0.843,0.352,1.386,0.352
		c1.995,0.016,2.992-1.393,2.992-4.224c0-0.572-0.055-1.114-0.165-1.628c-0.11-0.514-0.283-0.961-0.517-1.342
		c-0.235-0.382-0.543-0.686-0.924-0.913c-0.382-0.228-0.844-0.341-1.386-0.341C206.567,18.188,205.569,19.596,205.569,22.426z"/>
	<path fill="#FFFFFF" d="M222.575,18.466h-4.664v9.46h-1.76v-11h6.424V18.466z"/>
	<path fill="#FFFFFF" d="M231.133,21.415l0.066-1.364h-0.066l-0.902,1.408l-4.95,6.468h-1.012v-11h1.76v6.71l-0.066,1.298h0.088
		l0.858-1.364l4.95-6.644h1.034v11h-1.76V21.415z"/>
	<path fill="#FFFFFF" d="M241.297,20.776h12.848v1.628h-12.848V20.776z"/>
	<path fill="#FFFFFF" d="M269.281,23.064h-4.972v4.862h-1.76v-11h1.76v4.598h4.972v-4.598h1.76v11h-1.76V23.064z"/>
	<path fill="#FFFFFF" d="M282.459,27.046c-0.439,0.352-0.994,0.631-1.66,0.836c-0.668,0.205-1.375,0.308-2.123,0.308
		c-0.836,0-1.563-0.136-2.178-0.406c-0.617-0.271-1.123-0.66-1.519-1.166c-0.396-0.507-0.69-1.111-0.88-1.815
		c-0.191-0.704-0.286-1.496-0.286-2.376c0-1.877,0.418-3.308,1.254-4.29s2.031-1.474,3.586-1.474c0.499,0,0.997,0.055,1.496,0.165
		c0.499,0.109,0.946,0.318,1.342,0.627c0.396,0.308,0.719,0.744,0.968,1.309c0.25,0.564,0.375,1.31,0.375,2.233
		c0,0.483-0.045,1.02-0.133,1.605h-7.063c0,0.646,0.066,1.218,0.199,1.716c0.131,0.499,0.337,0.921,0.615,1.266
		c0.279,0.345,0.642,0.608,1.09,0.792c0.447,0.184,0.992,0.274,1.639,0.274c0.498,0,0.997-0.088,1.496-0.264
		c0.498-0.176,0.872-0.381,1.121-0.616L282.459,27.046z M278.676,18.203c-0.866,0-1.559,0.228-2.08,0.682
		c-0.52,0.455-0.832,1.232-0.935,2.332h5.456c0-1.114-0.213-1.896-0.638-2.343C280.053,18.426,279.453,18.203,278.676,18.203z"/>
	<path fill="#FFFFFF" d="M284.748,22.426c0-1.862,0.414-3.289,1.242-4.279c0.828-0.989,2.021-1.484,3.575-1.484
		c0.821,0,1.536,0.136,2.146,0.406c0.607,0.272,1.11,0.66,1.506,1.166c0.396,0.507,0.689,1.115,0.881,1.826
		c0.19,0.712,0.285,1.5,0.285,2.365c0,1.862-0.414,3.289-1.242,4.279c-0.829,0.989-2.021,1.484-3.575,1.484
		c-0.821,0-1.536-0.136-2.146-0.406c-0.608-0.271-1.11-0.66-1.506-1.166c-0.396-0.507-0.69-1.115-0.881-1.826
		C284.843,24.08,284.748,23.292,284.748,22.426z M286.573,22.426c0,0.558,0.056,1.093,0.165,1.606
		c0.11,0.513,0.282,0.96,0.518,1.342c0.234,0.381,0.542,0.689,0.924,0.924c0.381,0.234,0.843,0.352,1.386,0.352
		c1.995,0.016,2.992-1.393,2.992-4.224c0-0.572-0.056-1.114-0.165-1.628c-0.11-0.514-0.283-0.961-0.518-1.342
		c-0.234-0.382-0.543-0.686-0.924-0.913s-0.844-0.341-1.386-0.341C287.57,18.188,286.573,19.596,286.573,22.426z"/>
	<path fill="#FFFFFF" d="M306.747,30.72h-1.188l-0.33-2.794h-8.272l-0.33,2.794h-1.188v-4.334h1.298
		c0.117-0.161,0.271-0.451,0.462-0.869s0.377-1.004,0.561-1.76c0.184-0.755,0.345-1.694,0.484-2.816s0.224-2.46,0.253-4.015h6.644
		v9.46h1.606V30.72z M303.381,26.386v-7.92h-3.3c-0.029,0.616-0.081,1.287-0.154,2.013c-0.073,0.727-0.172,1.452-0.297,2.179
		c-0.125,0.726-0.282,1.411-0.473,2.057s-0.411,1.203-0.66,1.672H303.381z"/>
	<path fill="#FFFFFF" d="M315.657,23.064h-4.972v4.862h-1.76v-11h1.76v4.598h4.972v-4.598h1.76v11h-1.76V23.064z"/>
	<path fill="#FFFFFF" d="M320.188,22.426c0-1.862,0.414-3.289,1.243-4.279c0.828-0.989,2.02-1.484,3.575-1.484
		c0.82,0,1.536,0.136,2.145,0.406c0.608,0.272,1.111,0.66,1.507,1.166c0.396,0.507,0.689,1.115,0.88,1.826
		c0.19,0.712,0.286,1.5,0.286,2.365c0,1.862-0.414,3.289-1.243,4.279c-0.828,0.989-2.021,1.484-3.574,1.484
		c-0.822,0-1.537-0.136-2.146-0.406c-0.608-0.271-1.111-0.66-1.507-1.166c-0.396-0.507-0.689-1.115-0.88-1.826
		C320.283,24.08,320.188,23.292,320.188,22.426z M322.014,22.426c0,0.558,0.055,1.093,0.165,1.606
		c0.109,0.513,0.282,0.96,0.517,1.342c0.234,0.381,0.543,0.689,0.924,0.924c0.382,0.234,0.844,0.352,1.387,0.352
		c1.994,0.016,2.991-1.393,2.991-4.224c0-0.572-0.055-1.114-0.165-1.628c-0.109-0.514-0.282-0.961-0.517-1.342
		c-0.234-0.382-0.543-0.686-0.924-0.913c-0.382-0.228-0.844-0.341-1.386-0.341C323.011,18.188,322.014,19.596,322.014,22.426z"/>
	<path fill="#FFFFFF" d="M335.368,22.976h-1.012v4.95h-1.76v-11h1.76v4.972l0.946-0.308l3.52-4.664h1.914l-3.41,4.422l-0.924,0.727
		l1.144,0.88l3.675,4.972h-2.179L335.368,22.976z"/>
	<path fill="#FFFFFF" d="M343.113,16.926h1.21l0.33,1.32h0.088c0.337-0.514,0.773-0.905,1.309-1.178
		c0.535-0.271,1.147-0.406,1.837-0.406c1.467,0,2.56,0.433,3.278,1.298s1.078,2.28,1.078,4.246c0,0.924-0.121,1.756-0.363,2.497
		c-0.242,0.74-0.583,1.367-1.022,1.881c-0.44,0.514-0.973,0.909-1.596,1.188s-1.316,0.418-2.079,0.418
		c-0.542,0-0.972-0.032-1.287-0.099s-0.656-0.18-1.022-0.341v4.576h-1.76V16.926z M347.556,18.203c-0.748,0-1.338,0.194-1.771,0.583
		s-0.737,0.979-0.913,1.771v5.456c0.264,0.206,0.564,0.363,0.902,0.473c0.337,0.11,0.784,0.165,1.342,0.165
		c1.012,0,1.814-0.377,2.409-1.133c0.594-0.755,0.891-1.866,0.891-3.333c0-0.601-0.052-1.147-0.154-1.639s-0.268-0.909-0.495-1.254
		s-0.521-0.612-0.88-0.804C348.528,18.297,348.085,18.203,347.556,18.203z"/>
	<path fill="#FFFFFF" d="M354.838,17.741c0.558-0.338,1.207-0.587,1.947-0.748c0.74-0.162,1.515-0.242,2.321-0.242
		c0.763,0,1.375,0.103,1.837,0.308c0.462,0.206,0.813,0.474,1.056,0.803c0.242,0.33,0.403,0.693,0.484,1.09
		c0.08,0.396,0.121,0.792,0.121,1.188c0,0.88-0.022,1.738-0.066,2.574s-0.065,1.628-0.065,2.376c0,0.543,0.021,1.056,0.065,1.54
		c0.044,0.483,0.125,0.932,0.242,1.342h-1.298l-0.462-1.54h-0.11c-0.132,0.206-0.297,0.407-0.495,0.605
		c-0.197,0.197-0.437,0.374-0.715,0.527c-0.278,0.154-0.602,0.283-0.968,0.386c-0.367,0.102-0.785,0.153-1.254,0.153
		c-0.47,0-0.906-0.073-1.31-0.22s-0.751-0.355-1.045-0.627c-0.293-0.271-0.524-0.598-0.692-0.979
		c-0.169-0.381-0.253-0.813-0.253-1.298c0-0.645,0.132-1.184,0.396-1.617c0.264-0.432,0.635-0.776,1.111-1.033
		s1.048-0.44,1.716-0.551c0.667-0.109,1.404-0.165,2.211-0.165c0.205,0,0.407,0,0.605,0c0.197,0,0.399,0.016,0.604,0.045
		c0.044-0.44,0.066-0.837,0.066-1.188c0-0.807-0.162-1.371-0.484-1.694c-0.323-0.322-0.909-0.483-1.76-0.483
		c-0.25,0-0.518,0.019-0.803,0.057c-0.286,0.038-0.58,0.09-0.881,0.158s-0.586,0.151-0.857,0.249s-0.51,0.207-0.715,0.328
		L354.838,17.741z M357.962,26.562c0.411,0,0.777-0.055,1.101-0.165c0.322-0.109,0.601-0.249,0.836-0.418
		c0.234-0.168,0.429-0.355,0.583-0.561s0.268-0.403,0.341-0.594v-1.826c-0.205-0.015-0.414-0.025-0.627-0.033
		c-0.213-0.007-0.422-0.011-0.627-0.011c-0.455,0-0.898,0.025-1.331,0.077c-0.433,0.051-0.814,0.146-1.144,0.285
		c-0.33,0.14-0.595,0.33-0.792,0.572c-0.198,0.242-0.298,0.547-0.298,0.913c0,0.514,0.184,0.935,0.551,1.265
		C356.921,26.397,357.39,26.562,357.962,26.562z"/>
	<path fill="#FFFFFF" d="M372.944,18.466h-3.454v9.46h-1.76v-9.46h-3.454v-1.54h8.668V18.466z"/>
	<path fill="#FFFFFF" d="M381.414,23.064h-4.972v4.862h-1.76v-11h1.76v4.598h4.972v-4.598h1.76v11h-1.76V23.064z"/>
	<path fill="#FFFFFF" d="M388.322,21.128c0.352-0.059,0.689-0.1,1.012-0.121c0.322-0.022,0.631-0.033,0.924-0.033
		c0.748,0,1.375,0.085,1.882,0.253c0.506,0.169,0.912,0.4,1.221,0.693c0.308,0.293,0.524,0.642,0.648,1.045
		c0.125,0.403,0.188,0.832,0.188,1.287c0,1.335-0.371,2.303-1.111,2.904s-1.939,0.901-3.597,0.901c-0.938,0-1.914-0.044-2.926-0.132
		v-11h1.76V21.128z M388.322,26.386c0.542,0.088,1.063,0.132,1.562,0.132c0.925,0,1.569-0.18,1.937-0.539
		c0.366-0.359,0.55-0.869,0.55-1.528c0-0.587-0.18-1.071-0.539-1.452c-0.359-0.382-0.986-0.572-1.881-0.572
		c-0.25,0-0.521,0.008-0.814,0.022c-0.293,0.015-0.564,0.059-0.813,0.132V26.386z M395.934,16.926h1.76v11h-1.76V16.926z"/>
	<path fill="#FFFFFF" d="M409.111,27.046c-0.439,0.352-0.993,0.631-1.66,0.836c-0.668,0.205-1.375,0.308-2.123,0.308
		c-0.837,0-1.563-0.136-2.179-0.406c-0.615-0.271-1.122-0.66-1.518-1.166c-0.396-0.507-0.689-1.111-0.88-1.815
		c-0.191-0.704-0.286-1.496-0.286-2.376c0-1.877,0.418-3.308,1.254-4.29s2.031-1.474,3.586-1.474c0.498,0,0.997,0.055,1.496,0.165
		c0.498,0.109,0.946,0.318,1.342,0.627c0.396,0.308,0.719,0.744,0.968,1.309c0.25,0.564,0.374,1.31,0.374,2.233
		c0,0.483-0.044,1.02-0.132,1.605h-7.062c0,0.646,0.065,1.218,0.197,1.716c0.133,0.499,0.338,0.921,0.616,1.266
		s0.642,0.608,1.089,0.792s0.994,0.274,1.64,0.274c0.498,0,0.997-0.088,1.496-0.264c0.498-0.176,0.872-0.381,1.122-0.616
		L409.111,27.046z M405.328,18.203c-0.866,0-1.559,0.228-2.079,0.682c-0.521,0.455-0.833,1.232-0.936,2.332h5.456
		c0-1.114-0.213-1.896-0.638-2.343C406.706,18.426,406.104,18.203,405.328,18.203z"/>
	<path fill="#FFFFFF" d="M94.788,56.055l0.619,2.111h0.11l0.485-2.133l2.142-7.107h1.76l-3.256,9.878
		c-0.25,0.719-0.495,1.414-0.737,2.09c-0.242,0.674-0.51,1.275-0.803,1.805c-0.293,0.527-0.624,0.949-0.99,1.264
		c-0.367,0.316-0.792,0.473-1.276,0.473c-0.528,0-0.961-0.072-1.298-0.219l0.308-1.518c0.19,0.072,0.374,0.109,0.55,0.109
		c0.411,0,0.807-0.217,1.188-0.648c0.381-0.434,0.696-1.178,0.946-2.234l-4.422-11h2.024L94.788,56.055z"/>
	<path fill="#FFFFFF" d="M102.941,48.926v2.992c0,0.396,0.022,0.752,0.066,1.066c0.044,0.316,0.132,0.587,0.264,0.814
		s0.322,0.403,0.572,0.528c0.249,0.124,0.579,0.187,0.99,0.187c0.66,0,1.203-0.073,1.628-0.22s0.748-0.309,0.968-0.484v-4.884h1.76
		v11h-1.76v-4.62c-0.235,0.146-0.583,0.309-1.045,0.484c-0.462,0.176-1.096,0.264-1.903,0.264c-0.542,0-1.02-0.059-1.43-0.176
		c-0.411-0.117-0.756-0.322-1.034-0.616c-0.279-0.293-0.488-0.682-0.627-1.166c-0.14-0.484-0.209-1.093-0.209-1.826v-3.344H102.941z
		"/>
	<path fill="#FFFFFF" d="M112.401,49.741c0.557-0.338,1.206-0.587,1.947-0.748c0.741-0.162,1.514-0.242,2.321-0.242
		c0.762,0,1.375,0.103,1.837,0.308c0.462,0.206,0.814,0.474,1.056,0.803c0.242,0.33,0.403,0.693,0.484,1.09
		c0.081,0.396,0.121,0.792,0.121,1.188c0,0.88-0.022,1.738-0.066,2.574c-0.044,0.836-0.066,1.627-0.066,2.375
		c0,0.543,0.022,1.057,0.066,1.541c0.044,0.482,0.125,0.932,0.242,1.342h-1.298l-0.462-1.541h-0.11
		c-0.132,0.207-0.297,0.408-0.495,0.605c-0.198,0.197-0.437,0.375-0.715,0.527c-0.279,0.154-0.602,0.283-0.968,0.387
		c-0.367,0.102-0.785,0.152-1.254,0.152c-0.47,0-0.906-0.072-1.309-0.219c-0.404-0.146-0.752-0.355-1.045-0.627
		c-0.294-0.271-0.525-0.598-0.693-0.98c-0.168-0.381-0.253-0.813-0.253-1.297c0-0.645,0.132-1.184,0.396-1.618
		c0.264-0.432,0.634-0.776,1.111-1.033c0.476-0.257,1.048-0.44,1.716-0.551c0.667-0.109,1.404-0.165,2.211-0.165
		c0.205,0,0.407,0,0.605,0c0.198,0,0.399,0.016,0.605,0.045c0.044-0.44,0.066-0.837,0.066-1.188c0-0.807-0.162-1.371-0.484-1.694
		c-0.323-0.322-0.91-0.483-1.76-0.483c-0.25,0-0.517,0.019-0.803,0.057s-0.58,0.09-0.88,0.158c-0.301,0.068-0.587,0.151-0.858,0.249
		c-0.272,0.098-0.51,0.207-0.715,0.328L112.401,49.741z M115.525,58.563c0.41,0,0.777-0.055,1.1-0.166
		c0.322-0.109,0.601-0.248,0.836-0.418c0.234-0.168,0.429-0.355,0.583-0.561c0.154-0.205,0.267-0.402,0.341-0.594v-1.826
		c-0.206-0.015-0.415-0.025-0.627-0.033c-0.213-0.007-0.422-0.011-0.627-0.011c-0.455,0-0.898,0.025-1.331,0.077
		c-0.433,0.051-0.814,0.146-1.144,0.285c-0.33,0.14-0.594,0.33-0.792,0.572c-0.198,0.242-0.297,0.546-0.297,0.914
		c0,0.514,0.183,0.934,0.55,1.264S114.952,58.563,115.525,58.563z"/>
	<path fill="#FFFFFF" d="M130.99,59.201c-0.44,0.322-0.96,0.568-1.562,0.736s-1.232,0.252-1.892,0.252
		c-0.851,0-1.57-0.135-2.156-0.406c-0.587-0.271-1.067-0.66-1.441-1.166s-0.646-1.115-0.814-1.826
		c-0.169-0.711-0.253-1.5-0.253-2.365c0-1.862,0.41-3.289,1.232-4.279c0.821-0.989,2.002-1.484,3.542-1.484
		c0.704,0,1.301,0.055,1.793,0.165c0.491,0.109,0.935,0.268,1.331,0.473l-0.506,1.518c-0.338-0.19-0.712-0.341-1.122-0.45
		c-0.411-0.11-0.851-0.165-1.32-0.165c-2.083,0-3.124,1.407-3.124,4.224c0,0.558,0.055,1.089,0.165,1.595
		c0.11,0.506,0.293,0.953,0.55,1.342c0.256,0.389,0.594,0.701,1.012,0.936s0.935,0.352,1.551,0.352c0.528,0,1.001-0.08,1.419-0.242
		s0.759-0.344,1.023-0.551L130.99,59.201z"/>
	<path fill="#FFFFFF" d="M140.076,50.466h-3.454v9.459h-1.76v-9.459h-3.454v-1.54h8.668V50.466z"/>
	<path fill="#FFFFFF" d="M148.546,55.064h-4.972v4.862h-1.76v-11h1.76v4.598h4.972v-4.598h1.76v11h-1.76V55.064z"/>
	<path fill="#FFFFFF" d="M160.558,53.415l0.066-1.364h-0.066l-0.902,1.408l-4.95,6.467h-1.012v-11h1.76v6.71l-0.066,1.297h0.088
		l0.858-1.364l4.95-6.644h1.034v11h-1.76V53.415z"/>
	<path fill="#FFFFFF" d="M168.477,54.976h-1.012v4.95h-1.76v-11h1.76v4.972l0.946-0.308l3.52-4.664h1.914l-3.41,4.422l-0.924,0.727
		l1.144,0.88l3.674,4.971h-2.178L168.477,54.976z"/>
	<path fill="#FFFFFF" d="M183.086,53.415l0.066-1.364h-0.066l-0.902,1.408l-4.95,6.467h-1.012v-11h1.76v6.71l-0.066,1.297h0.088
		l0.858-1.364l4.95-6.644h1.034v11h-1.76V53.415z"/>
	<path fill="#FFFFFF" d="M200.971,53.415l0.066-1.364h-0.066l-0.902,1.408l-4.95,6.467h-1.012v-11h1.76v6.71l-0.066,1.297h0.088
		l0.858-1.364l4.95-6.644h1.034v11h-1.76V53.415z"/>
	<path fill="#FFFFFF" d="M218.615,50.466h-4.862v9.459h-1.76v-11h8.382v11h-1.76V50.466z"/>
	<path fill="#FFFFFF" d="M223.147,54.426c0-1.862,0.414-3.289,1.243-4.279c0.829-0.989,2.021-1.484,3.575-1.484
		c0.821,0,1.536,0.136,2.145,0.406c0.608,0.272,1.111,0.66,1.507,1.166c0.396,0.507,0.689,1.115,0.88,1.826
		c0.19,0.712,0.286,1.5,0.286,2.365c0,1.863-0.415,3.289-1.243,4.279c-0.829,0.99-2.021,1.484-3.575,1.484
		c-0.822,0-1.537-0.135-2.145-0.406c-0.609-0.271-1.111-0.66-1.507-1.166s-0.69-1.115-0.88-1.826S223.147,55.292,223.147,54.426z
		 M224.972,54.426c0,0.558,0.055,1.093,0.165,1.607c0.11,0.512,0.282,0.959,0.517,1.342c0.234,0.381,0.542,0.689,0.924,0.924
		s0.843,0.352,1.386,0.352c1.995,0.016,2.992-1.393,2.992-4.224c0-0.572-0.055-1.114-0.165-1.628
		c-0.11-0.514-0.283-0.961-0.517-1.342c-0.235-0.382-0.543-0.686-0.924-0.913c-0.382-0.228-0.844-0.341-1.386-0.341
		C225.97,50.188,224.972,51.596,224.972,54.426z"/>
	<path fill="#FFFFFF" d="M236.567,50.884c0.484-0.704,1.019-1.199,1.606-1.485c0.586-0.286,1.32-0.429,2.2-0.429
		c1.349,0,2.387,0.44,3.113,1.32s1.089,2.178,1.089,3.894c0,1.98-0.422,3.476-1.265,4.488c-0.844,1.012-2.021,1.518-3.531,1.518
		c-1.614,0-2.824-0.557-3.63-1.672c-0.807-1.113-1.21-2.867-1.21-5.257c0-1.261,0.062-2.339,0.187-3.234
		c0.125-0.895,0.308-1.649,0.55-2.266c0.242-0.616,0.535-1.107,0.88-1.474c0.345-0.367,0.733-0.656,1.166-0.869
		s0.906-0.363,1.419-0.451c0.514-0.088,1.063-0.161,1.65-0.22c0.762-0.073,1.36-0.158,1.793-0.253
		c0.432-0.096,0.781-0.268,1.045-0.518l0.198,1.584c-0.146,0.132-0.308,0.242-0.484,0.33c-0.176,0.088-0.389,0.162-0.638,0.22
		c-0.25,0.06-0.547,0.11-0.891,0.154c-0.345,0.044-0.745,0.081-1.199,0.11c-0.631,0.044-1.185,0.121-1.661,0.23
		c-0.477,0.11-0.887,0.323-1.232,0.639s-0.616,0.763-0.814,1.342c-0.198,0.579-0.333,1.346-0.407,2.299H236.567z M236.764,54.449
		c0,0.557,0.059,1.093,0.176,1.606c0.117,0.514,0.297,0.965,0.539,1.354c0.242,0.389,0.553,0.691,0.935,0.912
		c0.381,0.221,0.828,0.33,1.342,0.33c1.012,0,1.764-0.363,2.255-1.09c0.491-0.725,0.737-1.799,0.737-3.222
		c0-0.558-0.052-1.07-0.154-1.54s-0.264-0.876-0.484-1.221s-0.499-0.608-0.836-0.792c-0.337-0.184-0.741-0.275-1.21-0.275
		c-1.144-0.015-1.98,0.319-2.508,1.001C237.029,52.193,236.764,53.172,236.764,54.449z"/>
	<path fill="#FFFFFF" d="M255.377,59.047c-0.44,0.352-0.994,0.631-1.661,0.836c-0.667,0.205-1.375,0.307-2.123,0.307
		c-0.836,0-1.562-0.135-2.178-0.406c-0.616-0.271-1.122-0.66-1.518-1.166s-0.69-1.111-0.88-1.814
		c-0.19-0.705-0.286-1.497-0.286-2.376c0-1.877,0.418-3.308,1.254-4.29s2.031-1.474,3.586-1.474c0.499,0,0.997,0.055,1.496,0.165
		c0.499,0.109,0.946,0.318,1.342,0.627c0.396,0.308,0.719,0.744,0.968,1.309c0.249,0.564,0.374,1.31,0.374,2.233
		c0,0.483-0.044,1.02-0.132,1.605h-7.062c0,0.646,0.066,1.218,0.198,1.716c0.132,0.498,0.337,0.92,0.616,1.266
		c0.279,0.344,0.642,0.607,1.089,0.791c0.447,0.184,0.993,0.275,1.639,0.275c0.499,0,0.998-0.088,1.496-0.264
		s0.873-0.381,1.122-0.617L255.377,59.047z M251.593,50.203c-0.866,0-1.559,0.228-2.079,0.682c-0.521,0.455-0.833,1.232-0.935,2.332
		h5.456c0-1.114-0.212-1.896-0.638-2.343C252.971,50.426,252.37,50.203,251.593,50.203z"/>
	<path fill="#FFFFFF" d="M267.762,62.721h-1.188l-0.33-2.795h-8.272l-0.33,2.795h-1.188v-4.334h1.298
		c0.117-0.162,0.271-0.451,0.462-0.869c0.19-0.418,0.377-1.004,0.561-1.76c0.183-0.755,0.344-1.694,0.484-2.816
		c0.139-1.122,0.224-2.46,0.253-4.015h6.644v9.46h1.606V62.721z M264.396,58.387v-7.92h-3.3c-0.029,0.616-0.081,1.287-0.154,2.013
		c-0.074,0.727-0.173,1.452-0.297,2.179c-0.125,0.726-0.282,1.411-0.473,2.057c-0.191,0.645-0.411,1.203-0.66,1.672H264.396z"/>
	<path fill="#FFFFFF" d="M276.804,53.415l0.066-1.364h-0.066l-0.902,1.408l-4.949,6.467h-1.013v-11h1.761v6.71l-0.066,1.297h0.088
		l0.857-1.364l4.951-6.644h1.033v11h-1.76V53.415z"/>
	<path fill="#FFFFFF" d="M288.97,50.466h-3.455v9.459h-1.76v-9.459h-3.453v-1.54h8.668V50.466z"/>
	<path fill="#FFFFFF" d="M298.386,59.047c-0.44,0.352-0.994,0.631-1.661,0.836c-0.668,0.205-1.375,0.307-2.123,0.307
		c-0.836,0-1.562-0.135-2.178-0.406s-1.122-0.66-1.519-1.166c-0.396-0.506-0.689-1.111-0.88-1.814
		c-0.19-0.705-0.286-1.497-0.286-2.376c0-1.877,0.418-3.308,1.254-4.29s2.031-1.474,3.586-1.474c0.499,0,0.998,0.055,1.496,0.165
		c0.499,0.109,0.946,0.318,1.343,0.627c0.396,0.308,0.718,0.744,0.968,1.309c0.249,0.564,0.374,1.31,0.374,2.233
		c0,0.483-0.044,1.02-0.132,1.605h-7.063c0,0.646,0.066,1.218,0.198,1.716c0.132,0.498,0.337,0.92,0.616,1.266
		c0.278,0.344,0.641,0.607,1.089,0.791c0.447,0.184,0.993,0.275,1.639,0.275c0.499,0,0.997-0.088,1.496-0.264
		s0.872-0.381,1.122-0.617L298.386,59.047z M294.602,50.203c-0.866,0-1.559,0.228-2.079,0.682c-0.521,0.455-0.832,1.232-0.936,2.332
		h5.457c0-1.114-0.213-1.896-0.639-2.343C295.981,50.426,295.38,50.203,294.602,50.203z"/>
	<path fill="#FFFFFF" d="M306.967,50.466h-3.19c-0.044,0.616-0.088,1.279-0.132,1.991c-0.044,0.711-0.11,1.423-0.198,2.134
		c-0.088,0.712-0.205,1.394-0.352,2.045c-0.147,0.654-0.334,1.229-0.562,1.729c-0.228,0.498-0.506,0.898-0.836,1.197
		c-0.33,0.301-0.723,0.451-1.177,0.451c-0.278,0-0.521-0.014-0.726-0.043c-0.206-0.029-0.39-0.08-0.551-0.154l0.265-1.475
		c0.176,0.059,0.366,0.088,0.571,0.088c0.294,0,0.558-0.123,0.792-0.373s0.44-0.723,0.616-1.42c0.176-0.696,0.322-1.661,0.44-2.892
		c0.117-1.232,0.198-2.838,0.242-4.818h6.556v11h-1.76V50.466z"/>
	<path fill="#FFFFFF" d="M318.978,53.415l0.066-1.364h-0.066l-0.901,1.408l-4.95,6.467h-1.012v-11h1.76v6.71l-0.066,1.297h0.088
		l0.858-1.364l4.95-6.644h1.034v11h-1.761V53.415z"/>
	<path fill="#FFFFFF" d="M339.46,48.046c0,0.366-0.059,0.74-0.177,1.122c-0.117,0.382-0.293,0.736-0.527,1.066
		c-0.235,0.33-0.536,0.62-0.902,0.869c-0.366,0.25-0.8,0.44-1.298,0.572v0.088c0.44,0.073,0.861,0.198,1.265,0.374
		s0.76,0.418,1.067,0.727c0.308,0.308,0.558,0.682,0.748,1.121c0.19,0.44,0.286,0.961,0.286,1.563c0,0.792-0.165,1.477-0.495,2.057
		s-0.763,1.053-1.298,1.418c-0.536,0.367-1.148,0.639-1.837,0.814c-0.689,0.176-1.394,0.264-2.112,0.264c-0.25,0-0.543,0-0.88,0
		c-0.338,0-0.689-0.01-1.056-0.033c-0.367-0.021-0.734-0.051-1.101-0.088c-0.366-0.035-0.689-0.09-0.968-0.164V44.659
		c0.542-0.089,1.173-0.162,1.892-0.221s1.504-0.088,2.354-0.088c0.572,0,1.155,0.048,1.749,0.144
		c0.594,0.095,1.133,0.278,1.617,0.55c0.483,0.271,0.883,0.648,1.198,1.133S339.46,47.284,339.46,48.046z M333.145,51.302
		c0.249,0,0.55-0.007,0.902-0.022c0.352-0.014,0.646-0.036,0.88-0.065c0.352-0.117,0.682-0.261,0.99-0.429
		c0.308-0.169,0.583-0.367,0.824-0.595c0.242-0.227,0.433-0.491,0.572-0.792c0.14-0.3,0.209-0.627,0.209-0.979
		c0-0.484-0.092-0.884-0.274-1.199c-0.184-0.315-0.43-0.568-0.737-0.759s-0.66-0.326-1.056-0.407c-0.396-0.08-0.8-0.121-1.21-0.121
		c-0.484,0-0.928,0.011-1.331,0.033c-0.404,0.022-0.708,0.055-0.913,0.099v5.236H333.145z M334.355,58.518
		c0.47,0,0.924-0.055,1.364-0.164c0.439-0.109,0.828-0.287,1.166-0.527c0.337-0.242,0.604-0.539,0.803-0.893
		c0.198-0.352,0.297-0.77,0.297-1.253c0-0.602-0.121-1.085-0.362-1.452c-0.242-0.366-0.558-0.652-0.946-0.857
		s-0.825-0.345-1.31-0.418c-0.483-0.073-0.968-0.11-1.451-0.11h-1.914v5.523c0.103,0.029,0.249,0.051,0.439,0.064
		c0.19,0.016,0.396,0.029,0.616,0.045c0.22,0.014,0.447,0.025,0.682,0.033S334.179,58.518,334.355,58.518z"/>
	<path fill="#FFFFFF" d="M350.35,59.201c-0.44,0.322-0.961,0.568-1.563,0.736s-1.231,0.252-1.892,0.252
		c-0.851,0-1.569-0.135-2.156-0.406s-1.067-0.66-1.441-1.166c-0.373-0.506-0.646-1.115-0.813-1.826
		c-0.169-0.711-0.253-1.5-0.253-2.365c0-1.862,0.41-3.289,1.231-4.279c0.821-0.989,2.002-1.484,3.542-1.484
		c0.704,0,1.302,0.055,1.793,0.165c0.491,0.109,0.936,0.268,1.331,0.473l-0.506,1.518c-0.337-0.19-0.711-0.341-1.122-0.45
		c-0.41-0.11-0.851-0.165-1.319-0.165c-2.083,0-3.124,1.407-3.124,4.224c0,0.558,0.055,1.089,0.165,1.595
		c0.109,0.506,0.293,0.953,0.55,1.342c0.256,0.389,0.594,0.701,1.012,0.936s0.936,0.352,1.551,0.352c0.528,0,1.001-0.08,1.419-0.242
		s0.76-0.344,1.023-0.551L350.35,59.201z"/>
	<path fill="#FFFFFF" d="M360.294,59.047c-0.439,0.352-0.993,0.631-1.66,0.836c-0.668,0.205-1.375,0.307-2.123,0.307
		c-0.837,0-1.563-0.135-2.179-0.406c-0.615-0.271-1.122-0.66-1.518-1.166c-0.396-0.506-0.689-1.111-0.88-1.814
		c-0.191-0.705-0.286-1.497-0.286-2.376c0-1.877,0.418-3.308,1.254-4.29s2.031-1.474,3.586-1.474c0.498,0,0.997,0.055,1.496,0.165
		c0.498,0.109,0.946,0.318,1.342,0.627c0.396,0.308,0.719,0.744,0.968,1.309c0.25,0.564,0.374,1.31,0.374,2.233
		c0,0.483-0.044,1.02-0.132,1.605h-7.062c0,0.646,0.065,1.218,0.197,1.716c0.133,0.498,0.338,0.92,0.616,1.266
		c0.278,0.344,0.642,0.607,1.089,0.791s0.994,0.275,1.64,0.275c0.498,0,0.997-0.088,1.496-0.264
		c0.498-0.176,0.872-0.381,1.122-0.617L360.294,59.047z M356.51,50.203c-0.866,0-1.559,0.228-2.079,0.682
		c-0.521,0.455-0.833,1.232-0.936,2.332h5.456c0-1.114-0.213-1.896-0.638-2.343C357.888,50.426,357.287,50.203,356.51,50.203z"/>
	<path fill="#FFFFFF" d="M363.44,48.926h1.21l0.33,1.32h0.088c0.337-0.514,0.773-0.905,1.309-1.178
		c0.535-0.271,1.147-0.406,1.837-0.406c1.467,0,2.56,0.433,3.278,1.298s1.078,2.28,1.078,4.246c0,0.924-0.121,1.756-0.363,2.497
		c-0.242,0.74-0.583,1.367-1.022,1.881c-0.44,0.514-0.973,0.91-1.596,1.188c-0.623,0.279-1.316,0.418-2.079,0.418
		c-0.542,0-0.972-0.031-1.287-0.098s-0.656-0.18-1.022-0.342v4.576h-1.76V48.926z M367.884,50.203c-0.748,0-1.338,0.194-1.771,0.583
		s-0.737,0.979-0.913,1.771v5.456c0.264,0.207,0.564,0.363,0.902,0.473c0.337,0.111,0.784,0.166,1.342,0.166
		c1.012,0,1.814-0.377,2.409-1.133c0.594-0.756,0.891-1.867,0.891-3.333c0-0.601-0.052-1.147-0.154-1.639s-0.268-0.909-0.495-1.254
		s-0.521-0.612-0.88-0.804C368.855,50.297,368.412,50.203,367.884,50.203z"/>
	<path fill="#FFFFFF" d="M374.725,54.426c0-1.862,0.414-3.289,1.243-4.279c0.828-0.989,2.02-1.484,3.575-1.484
		c0.82,0,1.536,0.136,2.145,0.406c0.608,0.272,1.111,0.66,1.507,1.166c0.396,0.507,0.689,1.115,0.88,1.826
		c0.19,0.712,0.286,1.5,0.286,2.365c0,1.863-0.414,3.289-1.243,4.279c-0.828,0.99-2.021,1.484-3.574,1.484
		c-0.822,0-1.537-0.135-2.146-0.406s-1.111-0.66-1.507-1.166c-0.396-0.506-0.689-1.115-0.88-1.826
		C374.82,56.08,374.725,55.292,374.725,54.426z M376.552,54.426c0,0.558,0.055,1.093,0.165,1.607
		c0.109,0.512,0.282,0.959,0.517,1.342c0.234,0.381,0.543,0.689,0.924,0.924c0.382,0.234,0.844,0.352,1.387,0.352
		c1.994,0.016,2.991-1.393,2.991-4.224c0-0.572-0.055-1.114-0.165-1.628c-0.109-0.514-0.282-0.961-0.517-1.342
		c-0.234-0.382-0.543-0.686-0.924-0.913c-0.382-0.228-0.844-0.341-1.386-0.341C377.549,50.188,376.552,51.596,376.552,54.426z"/>
	<path fill="#FFFFFF" d="M394.635,59.201c-0.44,0.322-0.961,0.568-1.563,0.736s-1.231,0.252-1.892,0.252
		c-0.851,0-1.569-0.135-2.156-0.406s-1.067-0.66-1.441-1.166c-0.373-0.506-0.646-1.115-0.813-1.826
		c-0.169-0.711-0.253-1.5-0.253-2.365c0-1.862,0.41-3.289,1.231-4.279c0.821-0.989,2.002-1.484,3.542-1.484
		c0.704,0,1.302,0.055,1.793,0.165c0.491,0.109,0.936,0.268,1.331,0.473l-0.506,1.518c-0.337-0.19-0.711-0.341-1.122-0.45
		c-0.41-0.11-0.851-0.165-1.319-0.165c-2.083,0-3.124,1.407-3.124,4.224c0,0.558,0.055,1.089,0.165,1.595
		c0.109,0.506,0.293,0.953,0.55,1.342c0.256,0.389,0.594,0.701,1.012,0.936s0.936,0.352,1.551,0.352c0.528,0,1.001-0.08,1.419-0.242
		s0.76-0.344,1.023-0.551L394.635,59.201z"/>
	<path fill="#FFFFFF" d="M404.052,59.201c-0.44,0.322-0.961,0.568-1.563,0.736s-1.231,0.252-1.892,0.252
		c-0.851,0-1.569-0.135-2.156-0.406s-1.067-0.66-1.441-1.166c-0.373-0.506-0.646-1.115-0.813-1.826
		c-0.169-0.711-0.253-1.5-0.253-2.365c0-1.862,0.41-3.289,1.231-4.279c0.821-0.989,2.002-1.484,3.542-1.484
		c0.704,0,1.302,0.055,1.793,0.165c0.491,0.109,0.936,0.268,1.331,0.473l-0.506,1.518c-0.337-0.19-0.711-0.341-1.122-0.45
		c-0.41-0.11-0.851-0.165-1.319-0.165c-2.083,0-3.124,1.407-3.124,4.224c0,0.558,0.055,1.089,0.165,1.595
		c0.109,0.506,0.293,0.953,0.55,1.342c0.256,0.389,0.594,0.701,1.012,0.936s0.936,0.352,1.551,0.352c0.528,0,1.001-0.08,1.419-0.242
		s0.76-0.344,1.023-0.551L404.052,59.201z"/>
	<path fill="#FFFFFF" d="M413.335,53.415l0.066-1.364h-0.066l-0.901,1.408l-4.95,6.467h-1.012v-11h1.76v6.71l-0.066,1.297h0.088
		l0.858-1.364l4.95-6.644h1.034v11h-1.761V53.415z"/>
	<path fill="#FFFFFF" d="M425.346,53.415l0.066-1.364h-0.066l-0.901,1.408l-4.95,6.467h-1.012v-11h1.76v6.71l-0.066,1.297h0.088
		l0.858-1.364l4.95-6.644h1.034v11h-1.761V53.415z M421.012,44.482c0.146,0.675,0.399,1.145,0.76,1.408
		c0.358,0.264,0.773,0.396,1.242,0.396c0.47,0,0.888-0.14,1.255-0.418c0.366-0.279,0.615-0.733,0.747-1.364l1.32,0.418
		c-0.132,0.851-0.51,1.504-1.133,1.958c-0.624,0.455-1.368,0.682-2.233,0.682c-0.396,0-0.788-0.051-1.177-0.153
		s-0.737-0.257-1.045-0.463c-0.308-0.205-0.572-0.469-0.792-0.792c-0.22-0.322-0.367-0.703-0.44-1.144L421.012,44.482z"/>
	<path fill="#FFFFFF" d="M437.997,59.201c-0.44,0.322-0.961,0.568-1.563,0.736s-1.231,0.252-1.892,0.252
		c-0.851,0-1.569-0.135-2.156-0.406s-1.067-0.66-1.441-1.166c-0.373-0.506-0.646-1.115-0.813-1.826
		c-0.169-0.711-0.253-1.5-0.253-2.365c0-1.862,0.41-3.289,1.231-4.279c0.821-0.989,2.002-1.484,3.542-1.484
		c0.704,0,1.302,0.055,1.793,0.165c0.491,0.109,0.936,0.268,1.331,0.473l-0.506,1.518c-0.337-0.19-0.711-0.341-1.122-0.45
		c-0.41-0.11-0.851-0.165-1.319-0.165c-2.083,0-3.124,1.407-3.124,4.224c0,0.558,0.055,1.089,0.165,1.595
		c0.109,0.506,0.293,0.953,0.55,1.342c0.256,0.389,0.594,0.701,1.012,0.936s0.936,0.352,1.551,0.352c0.528,0,1.001-0.08,1.419-0.242
		s0.76-0.344,1.023-0.551L437.997,59.201z"/>
	<path fill="#FFFFFF" d="M443.188,54.976h-1.012v4.95h-1.76v-11h1.76v4.972l0.946-0.308l3.52-4.664h1.914l-3.41,4.422l-0.924,0.727
		l1.144,0.88l3.675,4.971h-2.179L443.188,54.976z"/>
	<path fill="#FFFFFF" d="M457.796,53.415l0.066-1.364h-0.066l-0.901,1.408l-4.95,6.467h-1.012v-11h1.76v6.71l-0.066,1.297h0.088
		l0.858-1.364l4.95-6.644h1.034v11h-1.761V53.415z"/>
	<path fill="#FFFFFF" d="M465.826,54.294l-3.696-5.368h2.156l2.09,3.036l0.616,1.254l0.638-1.254l2.134-3.036h1.98l-3.718,5.28
		l3.938,5.719h-2.09l-2.332-3.344l-0.66-1.32l-0.682,1.32l-2.376,3.344h-1.958L465.826,54.294z"/>
	<path fill="#FFFFFF" d="M92.689,80.926v2.992c0,0.396,0.022,0.752,0.066,1.066c0.044,0.316,0.132,0.588,0.264,0.814
		c0.132,0.229,0.322,0.404,0.572,0.529c0.249,0.123,0.579,0.186,0.99,0.186c0.66,0,1.203-0.072,1.628-0.219s0.748-0.309,0.968-0.484
		v-4.885h1.76v11h-1.76v-4.619c-0.235,0.146-0.583,0.309-1.045,0.484c-0.462,0.176-1.096,0.264-1.903,0.264
		c-0.542,0-1.02-0.059-1.43-0.176c-0.411-0.117-0.756-0.322-1.034-0.617c-0.279-0.293-0.488-0.682-0.627-1.166
		c-0.14-0.484-0.209-1.092-0.209-1.826v-3.344H92.689z"/>
	<path fill="#FFFFFF" d="M110.355,91.047c-0.44,0.352-0.994,0.631-1.661,0.836c-0.667,0.205-1.375,0.307-2.123,0.307
		c-0.836,0-1.562-0.135-2.178-0.406c-0.616-0.271-1.122-0.66-1.518-1.166s-0.69-1.111-0.88-1.814
		c-0.19-0.705-0.286-1.496-0.286-2.377c0-1.877,0.418-3.307,1.254-4.289s2.031-1.475,3.586-1.475c0.499,0,0.997,0.055,1.496,0.166
		c0.499,0.109,0.946,0.318,1.342,0.627c0.396,0.307,0.719,0.744,0.968,1.309c0.249,0.564,0.374,1.309,0.374,2.232
		c0,0.484-0.044,1.02-0.132,1.605h-7.062c0,0.646,0.066,1.219,0.198,1.717s0.337,0.92,0.616,1.266
		c0.279,0.344,0.642,0.607,1.089,0.791c0.447,0.184,0.993,0.275,1.639,0.275c0.499,0,0.998-0.088,1.496-0.264
		s0.873-0.381,1.122-0.617L110.355,91.047z M106.571,82.203c-0.866,0-1.559,0.227-2.079,0.682s-0.833,1.232-0.935,2.332h5.456
		c0-1.115-0.212-1.896-0.638-2.344C107.949,82.426,107.348,82.203,106.571,82.203z"/>
	<path fill="#FFFFFF" d="M122.586,85.393l0.132-2.09h-0.11l-0.792,1.693l-2.662,4.313h-0.616l-2.772-4.313l-0.726-1.693h-0.088
		l0.176,2.068v6.555H113.5v-11h1.738l3.08,4.928l0.638,1.277H119l0.66-1.32l2.882-4.885h1.76v11h-1.716V85.393z"/>
	<path fill="#FFFFFF" d="M134.312,82.467h-4.862v9.459h-1.76v-11h8.382v11h-1.76V82.467z"/>
	<path fill="#FFFFFF" d="M146.324,85.414l0.066-1.363h-0.066l-0.902,1.408l-4.95,6.467h-1.012v-11h1.76v6.711l-0.066,1.297h0.088
		l0.858-1.363l4.95-6.645h1.034v11h-1.76V85.414z"/>
	<path fill="#FFFFFF" d="M150.856,86.426c0-1.861,0.414-3.289,1.243-4.279c0.829-0.988,2.021-1.484,3.575-1.484
		c0.821,0,1.536,0.137,2.145,0.406c0.608,0.273,1.111,0.66,1.507,1.166c0.396,0.508,0.689,1.115,0.88,1.826
		c0.19,0.713,0.286,1.5,0.286,2.365c0,1.863-0.415,3.289-1.243,4.279c-0.829,0.99-2.021,1.484-3.575,1.484
		c-0.822,0-1.537-0.135-2.145-0.406c-0.609-0.271-1.111-0.66-1.507-1.166s-0.69-1.115-0.88-1.826S150.856,87.291,150.856,86.426z
		 M152.681,86.426c0,0.559,0.055,1.094,0.165,1.607c0.11,0.512,0.282,0.959,0.517,1.342c0.234,0.381,0.542,0.689,0.924,0.924
		s0.843,0.352,1.386,0.352c1.995,0.016,2.992-1.393,2.992-4.225c0-0.572-0.055-1.113-0.165-1.627
		c-0.11-0.514-0.283-0.961-0.517-1.342c-0.235-0.383-0.543-0.686-0.924-0.914c-0.382-0.227-0.844-0.34-1.386-0.34
		C153.679,82.188,152.681,83.596,152.681,86.426z"/>
	<path fill="#FFFFFF" d="M169.995,87.064h-4.972v4.861h-1.76v-11h1.76v4.598h4.972v-4.598h1.76v11h-1.76V87.064z"/>
	<path fill="#FFFFFF" d="M174.968,81.74c0.557-0.338,1.206-0.586,1.947-0.748s1.514-0.242,2.321-0.242
		c0.762,0,1.375,0.104,1.837,0.309s0.814,0.473,1.056,0.803c0.242,0.33,0.403,0.693,0.484,1.09c0.081,0.395,0.121,0.791,0.121,1.188
		c0,0.879-0.022,1.738-0.066,2.574c-0.044,0.836-0.066,1.627-0.066,2.375c0,0.543,0.022,1.057,0.066,1.541
		c0.044,0.482,0.125,0.932,0.242,1.342h-1.298l-0.462-1.541h-0.11c-0.132,0.207-0.297,0.408-0.495,0.605
		c-0.198,0.197-0.437,0.375-0.715,0.527c-0.279,0.154-0.602,0.283-0.968,0.387c-0.367,0.102-0.785,0.152-1.254,0.152
		c-0.47,0-0.906-0.072-1.309-0.219c-0.404-0.146-0.752-0.355-1.045-0.627c-0.294-0.271-0.525-0.598-0.693-0.98
		c-0.168-0.381-0.253-0.813-0.253-1.297c0-0.645,0.132-1.184,0.396-1.617c0.264-0.432,0.634-0.777,1.111-1.033
		c0.476-0.258,1.048-0.441,1.716-0.551c0.667-0.109,1.404-0.166,2.211-0.166c0.205,0,0.407,0,0.605,0
		c0.198,0,0.399,0.016,0.605,0.045c0.044-0.439,0.066-0.836,0.066-1.188c0-0.807-0.162-1.371-0.484-1.695
		c-0.323-0.322-0.91-0.482-1.76-0.482c-0.25,0-0.517,0.018-0.803,0.057c-0.286,0.037-0.58,0.09-0.88,0.158
		c-0.301,0.068-0.587,0.15-0.858,0.248c-0.272,0.098-0.51,0.207-0.715,0.328L174.968,81.74z M178.092,90.563
		c0.41,0,0.777-0.055,1.1-0.166c0.322-0.109,0.601-0.248,0.836-0.418c0.234-0.168,0.429-0.355,0.583-0.561
		c0.154-0.205,0.267-0.402,0.341-0.594v-1.826c-0.206-0.014-0.415-0.025-0.627-0.033c-0.213-0.006-0.422-0.01-0.627-0.01
		c-0.455,0-0.898,0.025-1.331,0.076s-0.814,0.146-1.144,0.285c-0.33,0.141-0.594,0.33-0.792,0.572
		c-0.198,0.242-0.297,0.547-0.297,0.914c0,0.514,0.183,0.934,0.55,1.264S177.519,90.563,178.092,90.563z"/>
	<path fill="#FFFFFF" d="M193.073,82.467h-3.454v9.459h-1.76v-9.459h-3.454v-1.541h8.668V82.467z"/>
	<path fill="#FFFFFF" d="M193.844,86.426c0-1.861,0.414-3.289,1.243-4.279c0.829-0.988,2.021-1.484,3.575-1.484
		c0.821,0,1.536,0.137,2.145,0.406c0.608,0.273,1.111,0.66,1.507,1.166c0.396,0.508,0.689,1.115,0.88,1.826
		c0.19,0.713,0.286,1.5,0.286,2.365c0,1.863-0.415,3.289-1.243,4.279c-0.829,0.99-2.021,1.484-3.575,1.484
		c-0.822,0-1.537-0.135-2.145-0.406c-0.609-0.271-1.111-0.66-1.507-1.166s-0.69-1.115-0.88-1.826S193.844,87.291,193.844,86.426z
		 M195.669,86.426c0,0.559,0.055,1.094,0.165,1.607c0.11,0.512,0.282,0.959,0.517,1.342c0.234,0.381,0.542,0.689,0.924,0.924
		s0.843,0.352,1.386,0.352c1.995,0.016,2.992-1.393,2.992-4.225c0-0.572-0.055-1.113-0.165-1.627
		c-0.11-0.514-0.283-0.961-0.517-1.342c-0.235-0.383-0.543-0.686-0.924-0.914c-0.382-0.227-0.844-0.34-1.386-0.34
		C196.667,82.188,195.669,83.596,195.669,86.426z"/>
	<path fill="#FFFFFF" d="M206.251,80.949c0.513-0.029,1.052-0.066,1.617-0.111c0.564-0.043,1.265-0.066,2.101-0.066
		c1.452,0,2.493,0.225,3.124,0.672c0.63,0.447,0.946,1.125,0.946,2.035c0,0.514-0.15,1.016-0.451,1.506
		c-0.301,0.492-0.795,0.855-1.485,1.09v0.088c0.865,0.162,1.474,0.463,1.826,0.902s0.528,1.027,0.528,1.76
		c0,1.145-0.411,1.973-1.232,2.486s-2.054,0.77-3.696,0.77c-0.616,0-1.188-0.018-1.716-0.055c-0.528-0.037-1.049-0.076-1.562-0.121
		V80.949z M210.167,85.568c0.264,0,0.521-0.045,0.77-0.133s0.473-0.209,0.671-0.361c0.198-0.154,0.359-0.334,0.484-0.539
		c0.125-0.207,0.187-0.426,0.187-0.66c0-0.588-0.176-0.994-0.528-1.223c-0.352-0.227-0.968-0.34-1.848-0.34
		c-0.47,0-0.84,0.008-1.111,0.021c-0.271,0.016-0.532,0.029-0.781,0.045v3.189H210.167z M208.011,90.453
		c0.278,0.029,0.553,0.051,0.825,0.064c0.271,0.016,0.59,0.023,0.957,0.023c0.982,0,1.712-0.141,2.189-0.418
		c0.477-0.279,0.715-0.756,0.715-1.432c0-0.527-0.202-0.957-0.605-1.287c-0.404-0.328-1.119-0.494-2.145-0.494h-1.936V90.453z"/>
	<path fill="#FFFFFF" d="M229.725,82.467h-4.862v9.459h-1.76v-11h8.382v11h-1.76V82.467z"/>
	<path fill="#FFFFFF" d="M234.257,86.426c0-1.861,0.414-3.289,1.243-4.279c0.829-0.988,2.021-1.484,3.575-1.484
		c0.821,0,1.536,0.137,2.145,0.406c0.608,0.273,1.111,0.66,1.507,1.166c0.396,0.508,0.689,1.115,0.88,1.826
		c0.19,0.713,0.286,1.5,0.286,2.365c0,1.863-0.415,3.289-1.243,4.279c-0.829,0.99-2.021,1.484-3.575,1.484
		c-0.822,0-1.537-0.135-2.145-0.406c-0.609-0.271-1.111-0.66-1.507-1.166s-0.69-1.115-0.88-1.826S234.257,87.291,234.257,86.426z
		 M236.083,86.426c0,0.559,0.055,1.094,0.165,1.607c0.11,0.512,0.282,0.959,0.517,1.342c0.234,0.381,0.542,0.689,0.924,0.924
		s0.843,0.352,1.386,0.352c1.995,0.016,2.992-1.393,2.992-4.225c0-0.572-0.055-1.113-0.165-1.627
		c-0.11-0.514-0.283-0.961-0.517-1.342c-0.235-0.383-0.543-0.686-0.924-0.914c-0.382-0.227-0.844-0.34-1.386-0.34
		C237.08,82.188,236.083,83.596,236.083,86.426z"/>
	<path fill="#FFFFFF" d="M252.715,76.525h8.36v1.629h-6.534v4.619c0.25-0.043,0.558-0.088,0.924-0.131
		c0.366-0.045,0.718-0.066,1.056-0.066c0.748,0,1.459,0.07,2.134,0.209c0.674,0.141,1.269,0.377,1.782,0.715s0.92,0.797,1.221,1.375
		c0.3,0.58,0.451,1.309,0.451,2.189c0,0.879-0.154,1.639-0.462,2.277c-0.308,0.637-0.719,1.158-1.232,1.561
		c-0.513,0.404-1.111,0.705-1.793,0.902c-0.682,0.199-1.397,0.297-2.145,0.297c-0.25,0-0.532-0.004-0.847-0.01
		c-0.316-0.008-0.646-0.025-0.99-0.055c-0.345-0.031-0.682-0.063-1.012-0.1c-0.33-0.037-0.635-0.092-0.913-0.166V76.525z
		 M256.697,90.518c0.469,0,0.917-0.064,1.342-0.197s0.795-0.326,1.111-0.584c0.315-0.256,0.564-0.582,0.748-0.979
		c0.183-0.396,0.275-0.857,0.275-1.385c0-0.676-0.106-1.223-0.319-1.641c-0.212-0.418-0.495-0.744-0.847-0.979
		s-0.759-0.393-1.221-0.473s-0.942-0.121-1.441-0.121c-0.132,0-0.286,0.008-0.462,0.021c-0.176,0.016-0.352,0.029-0.528,0.045
		c-0.176,0.014-0.337,0.033-0.484,0.055s-0.257,0.041-0.33,0.055v6.051c0.103,0.029,0.238,0.051,0.407,0.066
		c0.168,0.014,0.352,0.029,0.55,0.043c0.198,0.016,0.399,0.021,0.605,0.021S256.506,90.518,256.697,90.518z"/>
	<path fill="#FFFFFF" d="M264.638,80.926h1.21l0.33,1.32h0.088c0.337-0.514,0.773-0.904,1.309-1.178
		c0.535-0.27,1.147-0.406,1.836-0.406c1.467,0,2.561,0.434,3.279,1.299c0.718,0.865,1.078,2.279,1.078,4.246
		c0,0.924-0.121,1.756-0.363,2.496s-0.584,1.367-1.023,1.881s-0.972,0.91-1.596,1.188c-0.623,0.279-1.316,0.418-2.078,0.418
		c-0.543,0-0.972-0.031-1.287-0.098c-0.315-0.066-0.657-0.18-1.023-0.342v4.576h-1.76V80.926z M269.083,82.203
		c-0.748,0-1.339,0.193-1.771,0.582c-0.433,0.389-0.737,0.979-0.913,1.771v5.455c0.264,0.207,0.564,0.363,0.902,0.473
		c0.337,0.111,0.785,0.166,1.342,0.166c1.012,0,1.815-0.377,2.409-1.133c0.595-0.756,0.892-1.867,0.892-3.334
		c0-0.6-0.053-1.146-0.154-1.639c-0.104-0.49-0.268-0.908-0.495-1.254c-0.228-0.344-0.521-0.611-0.88-0.803
		S269.611,82.203,269.083,82.203z"/>
	<path fill="#FFFFFF" d="M284.57,91.047c-0.439,0.352-0.994,0.631-1.661,0.836s-1.375,0.307-2.123,0.307
		c-0.836,0-1.562-0.135-2.178-0.406s-1.122-0.66-1.519-1.166c-0.396-0.506-0.689-1.111-0.88-1.814
		c-0.19-0.705-0.286-1.496-0.286-2.377c0-1.877,0.418-3.307,1.254-4.289s2.031-1.475,3.586-1.475c0.499,0,0.998,0.055,1.496,0.166
		c0.499,0.109,0.946,0.318,1.342,0.627c0.396,0.307,0.719,0.744,0.969,1.309c0.249,0.564,0.374,1.309,0.374,2.232
		c0,0.484-0.044,1.02-0.132,1.605h-7.063c0,0.646,0.066,1.219,0.198,1.717s0.337,0.92,0.616,1.266
		c0.278,0.344,0.641,0.607,1.089,0.791c0.447,0.184,0.993,0.275,1.639,0.275c0.499,0,0.997-0.088,1.496-0.264
		s0.872-0.381,1.122-0.617L284.57,91.047z M280.786,82.203c-0.866,0-1.559,0.227-2.079,0.682s-0.832,1.232-0.936,2.332h5.457
		c0-1.115-0.213-1.896-0.639-2.344S281.563,82.203,280.786,82.203z"/>
	<path fill="#FFFFFF" d="M294.58,85.414l0.066-1.363h-0.066l-0.902,1.408l-4.949,6.467h-1.012v-11h1.76v6.711l-0.066,1.297h0.088
		l0.858-1.363l4.95-6.645h1.034v11h-1.761V85.414z M290.246,76.482c0.146,0.674,0.4,1.145,0.76,1.408s0.773,0.396,1.242,0.396
		c0.47,0,0.888-0.141,1.254-0.418c0.367-0.279,0.617-0.734,0.748-1.365l1.32,0.418c-0.132,0.852-0.51,1.504-1.133,1.959
		s-1.367,0.682-2.232,0.682c-0.396,0-0.789-0.051-1.178-0.154c-0.389-0.102-0.736-0.256-1.045-0.463
		c-0.309-0.205-0.572-0.469-0.792-0.791s-0.366-0.703-0.44-1.145L290.246,76.482z"/>
	<path fill="#FFFFFF" d="M302.5,86.977h-1.012v4.949h-1.76v-11h1.76v4.973l0.946-0.309l3.52-4.664h1.914l-3.41,4.422l-0.924,0.727
		l1.144,0.881l3.675,4.971h-2.179L302.5,86.977z"/>
	<path fill="#FFFFFF" d="M309.364,84.775h5.324v1.629h-5.324V84.775z"/>
	<path fill="#FFFFFF" d="M326.656,94.721h-1.188l-0.33-2.795h-8.272l-0.33,2.795h-1.188v-4.334h1.298
		c0.117-0.162,0.271-0.451,0.462-0.869s0.377-1.004,0.561-1.76s0.345-1.695,0.484-2.816c0.14-1.123,0.224-2.461,0.253-4.016h6.644
		v9.461h1.606V94.721z M323.29,90.387v-7.92h-3.3c-0.029,0.615-0.081,1.287-0.154,2.012c-0.073,0.727-0.172,1.453-0.297,2.18
		c-0.125,0.725-0.282,1.41-0.473,2.057c-0.19,0.645-0.411,1.203-0.66,1.672H323.29z"/>
	<path fill="#FFFFFF" d="M328.657,81.74c0.558-0.338,1.207-0.586,1.947-0.748s1.515-0.242,2.321-0.242
		c0.763,0,1.375,0.104,1.837,0.309s0.813,0.473,1.056,0.803s0.403,0.693,0.484,1.09c0.08,0.395,0.121,0.791,0.121,1.188
		c0,0.879-0.022,1.738-0.066,2.574s-0.065,1.627-0.065,2.375c0,0.543,0.021,1.057,0.065,1.541c0.044,0.482,0.125,0.932,0.242,1.342
		h-1.298l-0.462-1.541h-0.11c-0.132,0.207-0.297,0.408-0.495,0.605c-0.197,0.197-0.437,0.375-0.715,0.527
		c-0.278,0.154-0.602,0.283-0.968,0.387c-0.367,0.102-0.785,0.152-1.254,0.152c-0.47,0-0.906-0.072-1.31-0.219
		s-0.751-0.355-1.045-0.627c-0.293-0.271-0.524-0.598-0.692-0.98c-0.169-0.381-0.253-0.813-0.253-1.297
		c0-0.645,0.132-1.184,0.396-1.617c0.264-0.432,0.635-0.777,1.111-1.033c0.477-0.258,1.048-0.441,1.716-0.551
		c0.667-0.109,1.404-0.166,2.211-0.166c0.205,0,0.407,0,0.605,0c0.197,0,0.399,0.016,0.604,0.045
		c0.044-0.439,0.066-0.836,0.066-1.188c0-0.807-0.162-1.371-0.484-1.695c-0.323-0.322-0.909-0.482-1.76-0.482
		c-0.25,0-0.518,0.018-0.803,0.057c-0.286,0.037-0.58,0.09-0.881,0.158s-0.586,0.15-0.857,0.248s-0.51,0.207-0.715,0.328
		L328.657,81.74z M331.781,90.563c0.411,0,0.777-0.055,1.101-0.166c0.322-0.109,0.601-0.248,0.836-0.418
		c0.234-0.168,0.429-0.355,0.583-0.561s0.268-0.402,0.341-0.594v-1.826c-0.205-0.014-0.414-0.025-0.627-0.033
		c-0.213-0.006-0.422-0.01-0.627-0.01c-0.455,0-0.898,0.025-1.331,0.076s-0.814,0.146-1.144,0.285
		c-0.33,0.141-0.595,0.33-0.792,0.572c-0.198,0.242-0.298,0.547-0.298,0.914c0,0.514,0.184,0.934,0.551,1.264
		C330.74,90.396,331.21,90.563,331.781,90.563z"/>
	<path fill="#FFFFFF" d="M346.477,87.064h-4.972v4.861h-1.76v-11h1.76v4.598h4.972v-4.598h1.76v11h-1.76V87.064z"/>
	<path fill="#FFFFFF" d="M359.128,91.201c-0.44,0.322-0.961,0.568-1.563,0.736s-1.231,0.252-1.892,0.252
		c-0.851,0-1.569-0.135-2.156-0.406s-1.067-0.66-1.441-1.166c-0.373-0.506-0.646-1.115-0.813-1.826
		c-0.169-0.711-0.253-1.5-0.253-2.365c0-1.861,0.41-3.289,1.231-4.279c0.821-0.988,2.002-1.484,3.542-1.484
		c0.704,0,1.302,0.055,1.793,0.166c0.491,0.109,0.936,0.268,1.331,0.473l-0.506,1.518c-0.337-0.191-0.711-0.342-1.122-0.451
		c-0.41-0.109-0.851-0.164-1.319-0.164c-2.083,0-3.124,1.406-3.124,4.223c0,0.559,0.055,1.09,0.165,1.596
		c0.109,0.506,0.293,0.953,0.55,1.342c0.256,0.389,0.594,0.701,1.012,0.936s0.936,0.352,1.551,0.352c0.528,0,1.001-0.08,1.419-0.242
		s0.76-0.344,1.023-0.551L359.128,91.201z"/>
	<path fill="#FFFFFF" d="M364.482,88.055l0.618,2.111h0.11l0.486-2.133l2.142-7.107h1.76l-3.256,9.879
		c-0.249,0.719-0.495,1.414-0.737,2.09c-0.241,0.674-0.51,1.275-0.803,1.805c-0.293,0.527-0.623,0.949-0.99,1.264
		c-0.366,0.316-0.792,0.473-1.275,0.473c-0.528,0-0.961-0.072-1.298-0.219l0.308-1.518c0.19,0.072,0.374,0.109,0.55,0.109
		c0.411,0,0.807-0.217,1.188-0.648c0.381-0.434,0.696-1.178,0.945-2.234l-4.422-11h2.024L364.482,88.055z"/>
</g>
</svg>
