<?xml version="1.0" encoding="utf-8"?>
<!-- Generator: Adobe Illustrator 14.0.0, SVG Export Plug-In . SVG Version: 6.00 Build 43363)  -->
<!DOCTYPE svg PUBLIC "-//W3C//DTD SVG 1.1//EN" "http://www.w3.org/Graphics/SVG/1.1/DTD/svg11.dtd">
<svg version="1.1" id="Layer_1" xmlns="http://www.w3.org/2000/svg" xmlns:xlink="http://www.w3.org/1999/xlink" x="0px" y="0px"
	 width="387.5px" height="111px" viewBox="0 0 387.5 111" enable-background="new 0 0 387.5 111" xml:space="preserve">
<rect x="0" y="35" fill="#E50647" width="283.833" height="44"/>
<rect x="0" fill="#E50647" width="185" height="44"/>
<rect x="0" y="64" fill="#E50647" width="387.5" height="47"/>
<g>
	<path fill="#FFFFFF" d="M76.605,19.335L43.061,99.105c-7.23,0-14.579,0-21.81,0L48.632,35.1H16.036c0-7.23,0-11.735,0-18.965
		h60.569V19.335z"/>
</g>
<g>
	<path fill="#FFFFFF" d="M95.784,23.748l0.572,1.958h0.11l0.44-2.024l2.948-8.052h1.87L97.83,25.64
		c-0.396,1.042-0.745,1.911-1.045,2.607c-0.301,0.697-0.605,1.262-0.913,1.694s-0.638,0.741-0.99,0.924
		c-0.352,0.183-0.785,0.275-1.298,0.275c-0.484,0-0.869-0.041-1.155-0.121c-0.286-0.08-0.554-0.201-0.803-0.363l0.55-1.518
		c0.293,0.162,0.564,0.264,0.814,0.308c0.249,0.044,0.476,0.066,0.682,0.066c0.411,0,0.755-0.209,1.034-0.627
		c0.278-0.418,0.521-1.038,0.726-1.859L89.734,15.63h2.112L95.784,23.748z"/>
	<path fill="#FFFFFF" d="M104.056,20.03v2.992c0,0.396,0.022,0.751,0.066,1.067c0.044,0.315,0.132,0.587,0.264,0.814
		c0.132,0.228,0.322,0.403,0.572,0.528c0.249,0.125,0.579,0.187,0.99,0.187c0.66,0,1.203-0.073,1.628-0.22s0.748-0.308,0.968-0.484
		V20.03h1.76v11h-1.76v-4.62c-0.235,0.147-0.583,0.308-1.045,0.484c-0.462,0.176-1.096,0.264-1.903,0.264
		c-0.542,0-1.02-0.059-1.43-0.176c-0.411-0.117-0.756-0.323-1.034-0.616c-0.279-0.293-0.488-0.682-0.627-1.166
		c-0.14-0.484-0.209-1.092-0.209-1.826V20.03H104.056z"/>
	<path fill="#FFFFFF" d="M113.516,20.844c0.557-0.337,1.206-0.586,1.947-0.748c0.741-0.161,1.514-0.242,2.321-0.242
		c0.762,0,1.375,0.103,1.837,0.308c0.462,0.206,0.814,0.473,1.056,0.803c0.242,0.33,0.403,0.693,0.484,1.089
		c0.081,0.396,0.121,0.792,0.121,1.188c0,0.88-0.022,1.738-0.066,2.574c-0.044,0.836-0.066,1.628-0.066,2.376
		c0,0.542,0.022,1.056,0.066,1.54c0.044,0.484,0.125,0.932,0.242,1.342h-1.298l-0.462-1.54h-0.11
		c-0.132,0.206-0.297,0.407-0.495,0.605c-0.198,0.198-0.437,0.374-0.715,0.528c-0.279,0.154-0.602,0.282-0.968,0.385
		c-0.367,0.103-0.785,0.154-1.254,0.154c-0.47,0-0.906-0.073-1.309-0.22c-0.404-0.146-0.752-0.355-1.045-0.627
		c-0.294-0.271-0.525-0.598-0.693-0.979s-0.253-0.814-0.253-1.298c0-0.645,0.132-1.184,0.396-1.617
		c0.264-0.433,0.634-0.777,1.111-1.034c0.476-0.256,1.048-0.44,1.716-0.55c0.667-0.11,1.404-0.165,2.211-0.165
		c0.205,0,0.407,0,0.605,0c0.198,0,0.399,0.015,0.605,0.044c0.044-0.44,0.066-0.836,0.066-1.188c0-0.807-0.162-1.371-0.484-1.694
		c-0.323-0.323-0.91-0.484-1.76-0.484c-0.25,0-0.517,0.019-0.803,0.057c-0.286,0.038-0.58,0.09-0.88,0.158
		c-0.301,0.068-0.587,0.151-0.858,0.249c-0.272,0.098-0.51,0.207-0.715,0.328L113.516,20.844z M116.64,29.666
		c0.41,0,0.777-0.055,1.1-0.165c0.322-0.11,0.601-0.25,0.836-0.418c0.234-0.168,0.429-0.355,0.583-0.561
		c0.154-0.206,0.267-0.403,0.341-0.594v-1.826c-0.206-0.014-0.415-0.025-0.627-0.033c-0.213-0.007-0.422-0.011-0.627-0.011
		c-0.455,0-0.898,0.026-1.331,0.077c-0.433,0.052-0.814,0.147-1.144,0.286c-0.33,0.14-0.594,0.33-0.792,0.572
		c-0.198,0.242-0.297,0.547-0.297,0.913c0,0.514,0.183,0.935,0.55,1.265S116.068,29.666,116.64,29.666z"/>
	<path fill="#FFFFFF" d="M132.105,30.304c-0.44,0.323-0.96,0.569-1.562,0.737c-0.602,0.168-1.232,0.253-1.892,0.253
		c-0.851,0-1.57-0.136-2.156-0.407c-0.587-0.271-1.067-0.66-1.441-1.166s-0.646-1.114-0.814-1.826
		c-0.169-0.711-0.253-1.5-0.253-2.365c0-1.862,0.41-3.289,1.232-4.279c0.821-0.99,2.002-1.485,3.542-1.485
		c0.704,0,1.301,0.055,1.793,0.165c0.491,0.11,0.935,0.268,1.331,0.473l-0.506,1.518c-0.338-0.19-0.712-0.341-1.122-0.451
		c-0.411-0.11-0.851-0.165-1.32-0.165c-2.083,0-3.124,1.408-3.124,4.224c0,0.558,0.055,1.089,0.165,1.595
		c0.11,0.506,0.293,0.953,0.55,1.342c0.256,0.389,0.594,0.701,1.012,0.935c0.418,0.235,0.935,0.352,1.551,0.352
		c0.528,0,1.001-0.081,1.419-0.242c0.418-0.161,0.759-0.344,1.023-0.55L132.105,30.304z"/>
	<path fill="#FFFFFF" d="M141.191,21.57h-3.454v9.46h-1.76v-9.46h-3.454v-1.54h8.668V21.57z"/>
	<path fill="#FFFFFF" d="M149.793,24.518l0.066-1.364h-0.066l-0.902,1.408l-4.95,6.468h-1.012v-11h1.76v6.71l-0.066,1.298h0.088
		l0.858-1.364l4.95-6.644h1.034v11h-1.76V24.518z"/>
	<path fill="#FFFFFF" d="M162.971,30.15c-0.44,0.352-0.994,0.631-1.661,0.836c-0.667,0.205-1.375,0.308-2.123,0.308
		c-0.836,0-1.562-0.136-2.178-0.407c-0.616-0.271-1.122-0.66-1.518-1.166s-0.69-1.111-0.88-1.815s-0.286-1.496-0.286-2.376
		c0-1.877,0.418-3.307,1.254-4.29c0.836-0.982,2.031-1.474,3.586-1.474c0.499,0,0.997,0.055,1.496,0.165
		c0.499,0.11,0.946,0.319,1.342,0.627c0.396,0.308,0.719,0.745,0.968,1.309c0.249,0.565,0.374,1.309,0.374,2.233
		c0,0.484-0.044,1.02-0.132,1.606h-7.062c0,0.646,0.066,1.218,0.198,1.716s0.337,0.92,0.616,1.265
		c0.279,0.345,0.642,0.608,1.089,0.792c0.447,0.183,0.993,0.275,1.639,0.275c0.499,0,0.998-0.088,1.496-0.264
		c0.499-0.176,0.873-0.381,1.122-0.616L162.971,30.15z M159.187,21.306c-0.866,0-1.559,0.228-2.079,0.682s-0.833,1.232-0.935,2.332
		h5.456c0-1.114-0.212-1.896-0.638-2.343C160.566,21.53,159.965,21.306,159.187,21.306z"/>
	<path fill="#FFFFFF" d="M91.274,52.052c0.513-0.029,1.052-0.066,1.617-0.11c0.564-0.044,1.265-0.066,2.101-0.066
		c1.452,0,2.493,0.224,3.124,0.671c0.63,0.447,0.946,1.125,0.946,2.035c0,0.514-0.15,1.016-0.451,1.507s-0.795,0.854-1.485,1.089
		v0.088c0.865,0.162,1.474,0.463,1.826,0.902s0.528,1.026,0.528,1.76c0,1.145-0.411,1.973-1.232,2.486s-2.054,0.77-3.696,0.77
		c-0.616,0-1.188-0.019-1.716-0.055c-0.528-0.037-1.049-0.077-1.562-0.121V52.052z M95.19,56.672c0.264,0,0.521-0.044,0.77-0.133
		c0.25-0.088,0.473-0.209,0.671-0.362c0.198-0.153,0.359-0.333,0.484-0.539c0.125-0.205,0.187-0.425,0.187-0.66
		c0-0.587-0.176-0.994-0.528-1.221c-0.352-0.227-0.968-0.341-1.848-0.341c-0.47,0-0.84,0.007-1.111,0.022s-0.532,0.029-0.781,0.044
		v3.19H95.19z M93.034,61.556c0.278,0.03,0.553,0.052,0.825,0.065c0.271,0.016,0.59,0.022,0.957,0.022
		c0.982,0,1.712-0.14,2.189-0.418s0.715-0.755,0.715-1.43c0-0.528-0.202-0.957-0.605-1.287c-0.404-0.33-1.119-0.495-2.145-0.495
		h-1.936V61.556z"/>
	<path fill="#FFFFFF" d="M101.636,57.529c0-1.862,0.414-3.289,1.243-4.278c0.829-0.99,2.021-1.485,3.575-1.485
		c0.821,0,1.536,0.136,2.145,0.407c0.608,0.271,1.111,0.66,1.507,1.166s0.689,1.115,0.88,1.826c0.19,0.712,0.286,1.5,0.286,2.365
		c0,1.863-0.415,3.289-1.243,4.279c-0.829,0.99-2.021,1.485-3.575,1.485c-0.822,0-1.537-0.136-2.145-0.407
		c-0.609-0.271-1.111-0.66-1.507-1.166s-0.69-1.114-0.88-1.826C101.731,59.184,101.636,58.396,101.636,57.529z M103.462,57.529
		c0,0.559,0.055,1.094,0.165,1.606c0.11,0.514,0.282,0.961,0.517,1.343c0.234,0.381,0.542,0.689,0.924,0.924
		s0.843,0.352,1.386,0.352c1.995,0.015,2.992-1.394,2.992-4.225c0-0.571-0.055-1.113-0.165-1.627
		c-0.11-0.513-0.283-0.96-0.517-1.342c-0.235-0.381-0.543-0.685-0.924-0.913c-0.382-0.228-0.844-0.341-1.386-0.341
		C104.459,53.292,103.462,54.699,103.462,57.529z"/>
	<path fill="#FFFFFF" d="M129.377,51.15c0,0.367-0.059,0.741-0.176,1.122c-0.118,0.381-0.293,0.737-0.528,1.067
		c-0.235,0.33-0.536,0.62-0.902,0.869s-0.799,0.44-1.298,0.572v0.088c0.44,0.074,0.861,0.198,1.265,0.374
		c0.403,0.176,0.759,0.418,1.067,0.726c0.308,0.308,0.557,0.683,0.748,1.122c0.19,0.439,0.286,0.961,0.286,1.563
		c0,0.791-0.165,1.477-0.495,2.057s-0.763,1.053-1.298,1.419c-0.536,0.366-1.148,0.638-1.837,0.813s-1.394,0.264-2.112,0.264
		c-0.25,0-0.543,0-0.88,0c-0.338,0-0.69-0.01-1.056-0.032c-0.367-0.022-0.733-0.052-1.1-0.088c-0.367-0.037-0.689-0.092-0.968-0.165
		V47.762c0.542-0.088,1.173-0.161,1.892-0.22c0.718-0.059,1.503-0.088,2.354-0.088c0.572,0,1.155,0.048,1.749,0.143
		c0.594,0.096,1.133,0.279,1.617,0.55s0.883,0.649,1.199,1.133C129.219,49.764,129.377,50.387,129.377,51.15z M123.063,54.406
		c0.25,0,0.55-0.007,0.902-0.022s0.645-0.037,0.88-0.066c0.352-0.117,0.682-0.26,0.99-0.429c0.308-0.168,0.583-0.366,0.825-0.594
		s0.433-0.491,0.572-0.792c0.14-0.301,0.209-0.627,0.209-0.979c0-0.484-0.092-0.884-0.275-1.199
		c-0.184-0.315-0.429-0.568-0.737-0.759s-0.66-0.326-1.056-0.407c-0.396-0.081-0.799-0.121-1.21-0.121
		c-0.484,0-0.928,0.011-1.331,0.033s-0.708,0.055-0.913,0.099v5.236H123.063z M124.273,61.621c0.469,0,0.924-0.055,1.364-0.164
		c0.44-0.11,0.829-0.286,1.166-0.528c0.337-0.241,0.605-0.539,0.803-0.892c0.198-0.352,0.297-0.77,0.297-1.254
		c0-0.601-0.121-1.084-0.363-1.451c-0.242-0.367-0.558-0.652-0.946-0.858c-0.389-0.205-0.825-0.345-1.309-0.418
		s-0.968-0.11-1.452-0.11h-1.914v5.522c0.103,0.03,0.25,0.052,0.44,0.065c0.19,0.016,0.396,0.03,0.616,0.045
		c0.22,0.015,0.447,0.025,0.682,0.033C123.892,61.618,124.097,61.621,124.273,61.621z"/>
	<path fill="#FFFFFF" d="M140.267,62.304c-0.44,0.323-0.96,0.569-1.562,0.737s-1.232,0.253-1.892,0.253
		c-0.851,0-1.57-0.136-2.156-0.407c-0.587-0.271-1.067-0.66-1.441-1.166s-0.646-1.114-0.814-1.826
		c-0.169-0.711-0.253-1.499-0.253-2.365c0-1.862,0.41-3.289,1.232-4.278c0.821-0.99,2.002-1.485,3.542-1.485
		c0.704,0,1.301,0.055,1.793,0.165c0.491,0.11,0.935,0.268,1.331,0.473l-0.506,1.518c-0.338-0.19-0.712-0.341-1.122-0.451
		c-0.411-0.11-0.851-0.165-1.32-0.165c-2.083,0-3.124,1.408-3.124,4.224c0,0.559,0.055,1.09,0.165,1.596
		c0.11,0.506,0.293,0.953,0.55,1.342c0.256,0.389,0.594,0.701,1.012,0.936s0.935,0.352,1.551,0.352c0.528,0,1.001-0.08,1.419-0.242
		c0.418-0.161,0.759-0.344,1.023-0.55L140.267,62.304z"/>
	<path fill="#FFFFFF" d="M150.212,62.15c-0.44,0.352-0.994,0.631-1.661,0.836c-0.667,0.205-1.375,0.308-2.123,0.308
		c-0.836,0-1.562-0.136-2.178-0.407c-0.616-0.271-1.122-0.66-1.518-1.166s-0.69-1.111-0.88-1.814
		c-0.19-0.705-0.286-1.496-0.286-2.377c0-1.877,0.418-3.307,1.254-4.29c0.836-0.982,2.031-1.474,3.586-1.474
		c0.499,0,0.997,0.055,1.496,0.165c0.499,0.11,0.946,0.319,1.342,0.627c0.396,0.308,0.719,0.745,0.968,1.309
		c0.249,0.565,0.374,1.309,0.374,2.233c0,0.484-0.044,1.02-0.132,1.605h-7.062c0,0.646,0.066,1.219,0.198,1.717
		s0.337,0.92,0.616,1.266c0.279,0.344,0.642,0.607,1.089,0.791c0.447,0.184,0.993,0.275,1.639,0.275
		c0.499,0,0.998-0.088,1.496-0.264s0.873-0.382,1.122-0.616L150.212,62.15z M146.427,53.306c-0.866,0-1.559,0.228-2.079,0.682
		s-0.833,1.232-0.935,2.333h5.456c0-1.115-0.212-1.896-0.638-2.344C147.806,53.53,147.205,53.306,146.427,53.306z"/>
	<path fill="#FFFFFF" d="M153.357,52.03h1.21l0.33,1.32h0.088c0.337-0.513,0.773-0.905,1.309-1.177
		c0.535-0.271,1.147-0.407,1.837-0.407c1.467,0,2.56,0.433,3.278,1.298c0.718,0.865,1.078,2.281,1.078,4.246
		c0,0.925-0.121,1.757-0.363,2.497c-0.242,0.74-0.583,1.368-1.023,1.881c-0.44,0.514-0.972,0.91-1.595,1.188
		s-1.316,0.418-2.079,0.418c-0.543,0-0.972-0.033-1.287-0.099c-0.315-0.066-0.657-0.18-1.023-0.342v4.576h-1.76V52.03z
		 M157.802,53.306c-0.748,0-1.339,0.195-1.771,0.583c-0.433,0.389-0.737,0.979-0.913,1.771v5.456
		c0.264,0.206,0.564,0.363,0.902,0.474s0.785,0.165,1.342,0.165c1.012,0,1.815-0.377,2.409-1.133
		c0.594-0.756,0.891-1.867,0.891-3.334c0-0.601-0.052-1.146-0.154-1.638c-0.103-0.491-0.268-0.909-0.495-1.254
		c-0.228-0.345-0.521-0.612-0.88-0.803C158.773,53.401,158.329,53.306,157.802,53.306z"/>
	<path fill="#FFFFFF" d="M164.643,57.529c0-1.862,0.414-3.289,1.243-4.278c0.829-0.99,2.021-1.485,3.575-1.485
		c0.821,0,1.536,0.136,2.145,0.407c0.608,0.271,1.111,0.66,1.507,1.166s0.689,1.115,0.88,1.826c0.19,0.712,0.286,1.5,0.286,2.365
		c0,1.863-0.415,3.289-1.243,4.279c-0.829,0.99-2.021,1.485-3.575,1.485c-0.822,0-1.537-0.136-2.145-0.407
		c-0.609-0.271-1.111-0.66-1.507-1.166s-0.69-1.114-0.88-1.826C164.739,59.184,164.643,58.396,164.643,57.529z M166.469,57.529
		c0,0.559,0.055,1.094,0.165,1.606c0.11,0.514,0.282,0.961,0.517,1.343c0.234,0.381,0.542,0.689,0.924,0.924
		s0.843,0.352,1.386,0.352c1.995,0.015,2.992-1.394,2.992-4.225c0-0.571-0.055-1.113-0.165-1.627
		c-0.11-0.513-0.283-0.96-0.517-1.342c-0.235-0.381-0.543-0.685-0.924-0.913c-0.382-0.228-0.844-0.341-1.386-0.341
		C167.467,53.292,166.469,54.699,166.469,57.529z"/>
	<path fill="#FFFFFF" d="M184.552,62.304c-0.44,0.323-0.96,0.569-1.562,0.737s-1.232,0.253-1.892,0.253
		c-0.851,0-1.57-0.136-2.156-0.407c-0.587-0.271-1.067-0.66-1.441-1.166s-0.646-1.114-0.814-1.826
		c-0.169-0.711-0.253-1.499-0.253-2.365c0-1.862,0.41-3.289,1.232-4.278c0.821-0.99,2.002-1.485,3.542-1.485
		c0.704,0,1.301,0.055,1.793,0.165c0.491,0.11,0.935,0.268,1.331,0.473l-0.506,1.518c-0.338-0.19-0.712-0.341-1.122-0.451
		c-0.411-0.11-0.851-0.165-1.32-0.165c-2.083,0-3.124,1.408-3.124,4.224c0,0.559,0.055,1.09,0.165,1.596
		c0.11,0.506,0.293,0.953,0.55,1.342c0.256,0.389,0.594,0.701,1.012,0.936s0.935,0.352,1.551,0.352c0.528,0,1.001-0.08,1.419-0.242
		c0.418-0.161,0.759-0.344,1.023-0.55L184.552,62.304z"/>
	<path fill="#FFFFFF" d="M193.969,62.304c-0.439,0.323-0.961,0.569-1.563,0.737s-1.231,0.253-1.891,0.253
		c-0.852,0-1.57-0.136-2.157-0.407c-0.587-0.271-1.067-0.66-1.441-1.166s-0.646-1.114-0.814-1.826
		c-0.169-0.711-0.253-1.499-0.253-2.365c0-1.862,0.41-3.289,1.232-4.278c0.821-0.99,2.002-1.485,3.542-1.485
		c0.704,0,1.301,0.055,1.793,0.165c0.491,0.11,0.936,0.268,1.331,0.473l-0.506,1.518c-0.338-0.19-0.712-0.341-1.122-0.451
		c-0.411-0.11-0.852-0.165-1.32-0.165c-2.083,0-3.124,1.408-3.124,4.224c0,0.559,0.055,1.09,0.165,1.596
		c0.11,0.506,0.293,0.953,0.55,1.342c0.256,0.389,0.594,0.701,1.012,0.936s0.935,0.352,1.551,0.352c0.527,0,1.001-0.08,1.419-0.242
		c0.418-0.161,0.759-0.344,1.022-0.55L193.969,62.304z"/>
	<path fill="#FFFFFF" d="M203.253,56.518l0.065-1.364h-0.065l-0.902,1.409l-4.95,6.467h-1.012v-11h1.76v6.71l-0.065,1.297h0.088
		l0.858-1.363l4.949-6.644h1.034v11h-1.76V56.518z"/>
	<path fill="#FFFFFF" d="M215.264,56.518l0.065-1.364h-0.065l-0.902,1.409l-4.95,6.467H208.4v-11h1.76v6.71l-0.065,1.297h0.088
		l0.858-1.363l4.949-6.644h1.034v11h-1.76V56.518z M210.93,47.586c0.146,0.675,0.399,1.144,0.759,1.408
		c0.359,0.264,0.773,0.396,1.243,0.396s0.888-0.139,1.254-0.418c0.366-0.278,0.616-0.733,0.748-1.364l1.319,0.418
		c-0.131,0.851-0.51,1.503-1.133,1.958s-1.367,0.682-2.232,0.682c-0.396,0-0.789-0.051-1.178-0.154
		c-0.389-0.103-0.736-0.256-1.045-0.462c-0.308-0.205-0.571-0.469-0.791-0.792c-0.221-0.322-0.367-0.704-0.44-1.144L210.93,47.586z"
		/>
	<path fill="#FFFFFF" d="M227.914,62.304c-0.439,0.323-0.961,0.569-1.563,0.737s-1.231,0.253-1.891,0.253
		c-0.852,0-1.57-0.136-2.156-0.407c-0.588-0.271-1.067-0.66-1.441-1.166s-0.646-1.114-0.814-1.826
		c-0.168-0.711-0.252-1.499-0.252-2.365c0-1.862,0.41-3.289,1.231-4.278c0.821-0.99,2.002-1.485,3.542-1.485
		c0.704,0,1.301,0.055,1.793,0.165c0.491,0.11,0.936,0.268,1.331,0.473l-0.506,1.518c-0.338-0.19-0.712-0.341-1.122-0.451
		c-0.411-0.11-0.852-0.165-1.32-0.165c-2.082,0-3.124,1.408-3.124,4.224c0,0.559,0.056,1.09,0.165,1.596
		c0.11,0.506,0.293,0.953,0.551,1.342c0.256,0.389,0.594,0.701,1.012,0.936s0.935,0.352,1.551,0.352c0.527,0,1.001-0.08,1.419-0.242
		c0.418-0.161,0.759-0.344,1.022-0.55L227.914,62.304z"/>
	<path fill="#FFFFFF" d="M233.105,58.08h-1.012v4.949h-1.76v-11h1.76v4.972l0.946-0.309l3.521-4.664h1.914l-3.41,4.421l-0.924,0.727
		l1.144,0.88l3.674,4.972h-2.178L233.105,58.08z"/>
	<path fill="#FFFFFF" d="M247.714,56.518l0.065-1.364h-0.065l-0.902,1.409l-4.95,6.467h-1.012v-11h1.76v6.71l-0.065,1.297h0.088
		l0.858-1.363l4.949-6.644h1.034v11h-1.76V56.518z"/>
	<path fill="#FFFFFF" d="M255.744,57.398l-3.696-5.369h2.156l2.09,3.036l0.616,1.254l0.638-1.254l2.134-3.036h1.98l-3.719,5.28
		l3.938,5.72h-2.09l-2.332-3.344l-0.66-1.32l-0.682,1.32l-2.376,3.344h-1.958L255.744,57.398z"/>
	<path fill="#FFFFFF" d="M93.056,79.63v5.104c0,2.009,0.909,3.014,2.728,3.014c0.689,0,1.334-0.092,1.936-0.275
		c0.601-0.184,1.092-0.429,1.474-0.736V79.63h1.826v15.399h-1.826v-6.644c-0.396,0.22-0.917,0.44-1.562,0.66s-1.386,0.33-2.222,0.33
		c-0.616,0-1.181-0.069-1.694-0.209c-0.514-0.14-0.954-0.374-1.32-0.704s-0.653-0.773-0.858-1.331
		c-0.206-0.558-0.308-1.247-0.308-2.067V79.63H93.056z"/>
	<path fill="#FFFFFF" d="M112.614,94.15c-0.44,0.352-0.994,0.631-1.661,0.836c-0.667,0.205-1.375,0.308-2.123,0.308
		c-0.836,0-1.562-0.136-2.178-0.407c-0.616-0.271-1.122-0.66-1.518-1.166s-0.69-1.111-0.88-1.814
		c-0.19-0.705-0.286-1.496-0.286-2.377c0-1.877,0.418-3.307,1.254-4.289s2.031-1.475,3.586-1.475c0.499,0,0.997,0.055,1.496,0.165
		c0.499,0.11,0.946,0.319,1.342,0.627s0.719,0.745,0.968,1.31c0.249,0.564,0.374,1.309,0.374,2.232c0,0.484-0.044,1.02-0.132,1.605
		h-7.062c0,0.646,0.066,1.219,0.198,1.717s0.337,0.92,0.616,1.266c0.279,0.344,0.642,0.607,1.089,0.791
		c0.447,0.184,0.993,0.275,1.639,0.275c0.499,0,0.998-0.088,1.496-0.264s0.873-0.382,1.122-0.616L112.614,94.15z M108.83,85.306
		c-0.866,0-1.559,0.228-2.079,0.683c-0.521,0.454-0.833,1.231-0.935,2.332h5.456c0-1.115-0.212-1.896-0.638-2.344
		C110.208,85.529,109.607,85.306,108.83,85.306z"/>
	<path fill="#FFFFFF" d="M124.845,88.496l0.132-2.09h-0.11l-0.792,1.693l-2.662,4.313h-0.616l-2.772-4.313l-0.726-1.693h-0.088
		l0.176,2.067v6.556h-1.628v-11h1.738l3.08,4.929l0.638,1.276h0.044l0.66-1.32l2.882-4.885h1.76v11h-1.716V88.496z"/>
	<path fill="#FFFFFF" d="M136.572,85.57h-4.862v9.459h-1.76v-11h8.382v11h-1.76V85.57z"/>
	<path fill="#FFFFFF" d="M148.583,88.518l0.066-1.363h-0.066l-0.902,1.408l-4.95,6.467h-1.012v-11h1.76v6.711l-0.066,1.297h0.088
		l0.858-1.363l4.95-6.645h1.034v11h-1.76V88.518z"/>
	<path fill="#FFFFFF" d="M153.115,89.529c0-1.861,0.414-3.289,1.243-4.278c0.829-0.99,2.021-1.485,3.575-1.485
		c0.821,0,1.536,0.136,2.145,0.407c0.608,0.271,1.111,0.66,1.507,1.166s0.689,1.114,0.88,1.825c0.19,0.713,0.286,1.5,0.286,2.365
		c0,1.863-0.415,3.289-1.243,4.279c-0.829,0.99-2.021,1.485-3.575,1.485c-0.822,0-1.537-0.136-2.145-0.407
		c-0.609-0.271-1.111-0.66-1.507-1.166s-0.69-1.114-0.88-1.826C153.21,91.184,153.115,90.396,153.115,89.529z M154.941,89.529
		c0,0.559,0.055,1.094,0.165,1.606c0.11,0.514,0.282,0.961,0.517,1.343c0.234,0.381,0.542,0.689,0.924,0.924
		s0.843,0.352,1.386,0.352c1.995,0.015,2.992-1.394,2.992-4.225c0-0.571-0.055-1.113-0.165-1.627
		c-0.11-0.514-0.283-0.961-0.517-1.343c-0.235-0.381-0.543-0.685-0.924-0.913c-0.382-0.227-0.844-0.341-1.386-0.341
		C155.938,85.291,154.941,86.699,154.941,89.529z"/>
	<path fill="#FFFFFF" d="M172.255,90.168h-4.972v4.861h-1.76v-11h1.76v4.599h4.972v-4.599h1.76v11h-1.76V90.168z"/>
	<path fill="#FFFFFF" d="M177.227,84.844c0.557-0.338,1.206-0.586,1.947-0.748c0.741-0.161,1.514-0.242,2.321-0.242
		c0.762,0,1.375,0.104,1.837,0.309s0.814,0.473,1.056,0.803c0.242,0.33,0.403,0.693,0.484,1.089
		c0.081,0.396,0.121,0.792,0.121,1.188c0,0.879-0.022,1.738-0.066,2.574c-0.044,0.836-0.066,1.627-0.066,2.375
		c0,0.543,0.022,1.057,0.066,1.541c0.044,0.483,0.125,0.932,0.242,1.342h-1.298l-0.462-1.541h-0.11
		c-0.132,0.206-0.297,0.408-0.495,0.605c-0.198,0.198-0.437,0.374-0.715,0.528c-0.279,0.153-0.602,0.282-0.968,0.385
		c-0.367,0.103-0.785,0.153-1.254,0.153c-0.47,0-0.906-0.072-1.309-0.219c-0.404-0.146-0.752-0.355-1.045-0.627
		c-0.294-0.271-0.525-0.598-0.693-0.979s-0.253-0.813-0.253-1.298c0-0.646,0.132-1.185,0.396-1.617
		c0.264-0.433,0.634-0.777,1.111-1.034c0.476-0.257,1.048-0.44,1.716-0.55c0.667-0.109,1.404-0.165,2.211-0.165
		c0.205,0,0.407,0,0.605,0c0.198,0,0.399,0.015,0.605,0.044c0.044-0.439,0.066-0.836,0.066-1.188c0-0.807-0.162-1.371-0.484-1.694
		c-0.323-0.323-0.91-0.484-1.76-0.484c-0.25,0-0.517,0.019-0.803,0.058c-0.286,0.037-0.58,0.09-0.88,0.158
		c-0.301,0.068-0.587,0.15-0.858,0.248c-0.272,0.099-0.51,0.207-0.715,0.328L177.227,84.844z M180.351,93.666
		c0.41,0,0.777-0.055,1.1-0.165c0.322-0.11,0.601-0.249,0.836-0.418c0.234-0.169,0.429-0.355,0.583-0.562
		c0.154-0.205,0.267-0.402,0.341-0.594v-1.826c-0.206-0.014-0.415-0.025-0.627-0.033c-0.213-0.007-0.422-0.011-0.627-0.011
		c-0.455,0-0.898,0.026-1.331,0.077c-0.433,0.052-0.814,0.146-1.144,0.286s-0.594,0.33-0.792,0.571
		c-0.198,0.242-0.297,0.547-0.297,0.914c0,0.514,0.183,0.935,0.55,1.265S179.779,93.666,180.351,93.666z"/>
	<path fill="#FFFFFF" d="M195.332,85.57h-3.453v9.459h-1.76V85.57h-3.454v-1.541h8.667V85.57z"/>
	<path fill="#FFFFFF" d="M196.894,84.844c0.557-0.338,1.206-0.586,1.947-0.748c0.74-0.161,1.514-0.242,2.32-0.242
		c0.763,0,1.375,0.104,1.838,0.309c0.461,0.205,0.813,0.473,1.056,0.803c0.241,0.33,0.403,0.693,0.483,1.089
		c0.081,0.396,0.121,0.792,0.121,1.188c0,0.879-0.021,1.738-0.066,2.574c-0.043,0.836-0.065,1.627-0.065,2.375
		c0,0.543,0.022,1.057,0.065,1.541c0.045,0.483,0.125,0.932,0.242,1.342h-1.297l-0.463-1.541h-0.109
		c-0.133,0.206-0.297,0.408-0.495,0.605c-0.198,0.198-0.437,0.374-0.716,0.528c-0.278,0.153-0.602,0.282-0.967,0.385
		c-0.367,0.103-0.785,0.153-1.254,0.153c-0.471,0-0.906-0.072-1.31-0.219s-0.752-0.355-1.045-0.627
		c-0.294-0.271-0.524-0.598-0.693-0.979s-0.253-0.813-0.253-1.298c0-0.646,0.133-1.185,0.396-1.617s0.634-0.777,1.111-1.034
		c0.476-0.257,1.048-0.44,1.715-0.55c0.668-0.109,1.404-0.165,2.211-0.165c0.205,0,0.408,0,0.605,0c0.198,0,0.399,0.015,0.605,0.044
		c0.043-0.439,0.065-0.836,0.065-1.188c0-0.807-0.161-1.371-0.483-1.694c-0.323-0.323-0.91-0.484-1.76-0.484
		c-0.25,0-0.518,0.019-0.804,0.058c-0.286,0.037-0.579,0.09-0.88,0.158s-0.587,0.15-0.857,0.248
		c-0.272,0.099-0.51,0.207-0.716,0.328L196.894,84.844z M200.018,93.666c0.41,0,0.777-0.055,1.101-0.165
		c0.322-0.11,0.601-0.249,0.836-0.418c0.234-0.169,0.428-0.355,0.582-0.562c0.154-0.205,0.268-0.402,0.342-0.594v-1.826
		c-0.206-0.014-0.415-0.025-0.627-0.033c-0.213-0.007-0.422-0.011-0.627-0.011c-0.455,0-0.898,0.026-1.332,0.077
		c-0.432,0.052-0.813,0.146-1.144,0.286s-0.594,0.33-0.792,0.571c-0.197,0.242-0.297,0.547-0.297,0.914
		c0,0.514,0.184,0.935,0.55,1.265S199.446,93.666,200.018,93.666z"/>
	<path fill="#FFFFFF" d="M210.864,89.398l-3.696-5.369h2.156l2.09,3.037l0.616,1.254l0.638-1.254l2.135-3.037h1.979l-3.718,5.28
		l3.938,5.72h-2.09l-2.332-3.344l-0.66-1.32l-0.682,1.32l-2.376,3.344h-1.958L210.864,89.398z"/>
	<path fill="#FFFFFF" d="M231.215,85.57h-4.862v9.459h-1.761v-11h8.383v11h-1.76V85.57z"/>
	<path fill="#FFFFFF" d="M235.746,89.529c0-1.861,0.414-3.289,1.242-4.278c0.829-0.99,2.021-1.485,3.576-1.485
		c0.82,0,1.535,0.136,2.145,0.407c0.608,0.271,1.111,0.66,1.507,1.166s0.689,1.114,0.88,1.825c0.191,0.713,0.286,1.5,0.286,2.365
		c0,1.863-0.415,3.289-1.243,4.279s-2.021,1.485-3.574,1.485c-0.822,0-1.537-0.136-2.146-0.407s-1.11-0.66-1.507-1.166
		s-0.689-1.114-0.881-1.826C235.842,91.184,235.746,90.396,235.746,89.529z M237.572,89.529c0,0.559,0.055,1.094,0.164,1.606
		c0.111,0.514,0.283,0.961,0.518,1.343c0.234,0.381,0.543,0.689,0.924,0.924s0.844,0.352,1.387,0.352
		c1.994,0.015,2.992-1.394,2.992-4.225c0-0.571-0.056-1.113-0.166-1.627c-0.109-0.514-0.282-0.961-0.517-1.343
		c-0.235-0.381-0.543-0.685-0.924-0.913c-0.382-0.227-0.844-0.341-1.386-0.341C238.569,85.291,237.572,86.699,237.572,89.529z"/>
	<path fill="#FFFFFF" d="M254.204,79.63h8.36v1.628h-6.535v4.62c0.25-0.044,0.559-0.089,0.925-0.132
		c0.366-0.045,0.718-0.066,1.056-0.066c0.748,0,1.459,0.07,2.135,0.209c0.674,0.14,1.268,0.378,1.781,0.715
		c0.514,0.338,0.92,0.796,1.221,1.375c0.301,0.58,0.451,1.309,0.451,2.189c0,0.88-0.154,1.639-0.462,2.277
		c-0.308,0.638-0.719,1.158-1.231,1.562c-0.514,0.403-1.111,0.704-1.793,0.901c-0.682,0.199-1.397,0.297-2.146,0.297
		c-0.249,0-0.532-0.003-0.847-0.01c-0.316-0.008-0.646-0.026-0.99-0.056s-0.682-0.063-1.012-0.099
		c-0.33-0.037-0.635-0.092-0.913-0.165V79.63z M258.185,93.621c0.47,0,0.917-0.065,1.342-0.197c0.426-0.132,0.796-0.326,1.111-0.583
		s0.564-0.583,0.748-0.979c0.184-0.396,0.275-0.857,0.275-1.386c0-0.675-0.106-1.221-0.319-1.639
		c-0.212-0.418-0.495-0.744-0.847-0.979c-0.352-0.234-0.76-0.393-1.221-0.473c-0.463-0.08-0.943-0.121-1.441-0.121
		c-0.132,0-0.286,0.008-0.462,0.021c-0.177,0.016-0.353,0.03-0.528,0.045s-0.338,0.033-0.484,0.055s-0.256,0.041-0.33,0.055v6.051
		c0.104,0.029,0.238,0.051,0.408,0.065c0.168,0.015,0.352,0.03,0.549,0.044c0.199,0.016,0.4,0.021,0.605,0.021
		S257.995,93.621,258.185,93.621z"/>
	<path fill="#FFFFFF" d="M266.127,84.029h1.211l0.33,1.32h0.088c0.337-0.514,0.773-0.905,1.309-1.177s1.147-0.407,1.837-0.407
		c1.467,0,2.56,0.434,3.278,1.299s1.078,2.28,1.078,4.245c0,0.925-0.121,1.757-0.363,2.497s-0.583,1.368-1.023,1.881
		c-0.439,0.514-0.971,0.91-1.595,1.188s-1.316,0.418-2.079,0.418c-0.543,0-0.972-0.033-1.287-0.099
		c-0.314-0.066-0.656-0.18-1.022-0.342v4.576h-1.761V84.029z M270.572,85.306c-0.748,0-1.34,0.194-1.771,0.583
		c-0.434,0.389-0.737,0.979-0.913,1.771v5.455c0.264,0.206,0.564,0.363,0.901,0.474c0.338,0.11,0.785,0.165,1.343,0.165
		c1.012,0,1.815-0.377,2.409-1.133s0.891-1.867,0.891-3.334c0-0.601-0.052-1.146-0.154-1.639c-0.103-0.49-0.268-0.908-0.494-1.254
		c-0.229-0.344-0.521-0.611-0.881-0.803C271.543,85.401,271.099,85.306,270.572,85.306z"/>
	<path fill="#FFFFFF" d="M286.059,94.15c-0.44,0.352-0.994,0.631-1.661,0.836c-0.668,0.205-1.375,0.308-2.123,0.308
		c-0.836,0-1.563-0.136-2.178-0.407c-0.616-0.271-1.122-0.66-1.518-1.166c-0.396-0.506-0.69-1.111-0.881-1.814
		c-0.19-0.705-0.285-1.496-0.285-2.377c0-1.877,0.418-3.307,1.254-4.289s2.031-1.475,3.586-1.475c0.498,0,0.996,0.055,1.496,0.165
		c0.498,0.11,0.945,0.319,1.342,0.627c0.396,0.308,0.719,0.745,0.968,1.31s0.374,1.309,0.374,2.232c0,0.484-0.044,1.02-0.133,1.605
		h-7.062c0,0.646,0.066,1.219,0.198,1.717s0.338,0.92,0.615,1.266c0.279,0.344,0.643,0.607,1.09,0.791s0.993,0.275,1.639,0.275
		c0.498,0,0.998-0.088,1.496-0.264s0.873-0.382,1.122-0.616L286.059,94.15z M282.275,85.306c-0.865,0-1.559,0.228-2.079,0.683
		c-0.521,0.454-0.833,1.231-0.935,2.332h5.455c0-1.115-0.212-1.896-0.637-2.344C283.654,85.529,283.052,85.306,282.275,85.306z"/>
	<path fill="#FFFFFF" d="M296.069,88.518l0.065-1.363h-0.065l-0.902,1.408l-4.95,6.467h-1.012v-11h1.76v6.711l-0.065,1.297h0.088
		l0.858-1.363l4.949-6.645h1.034v11h-1.76V88.518z M291.735,79.586c0.146,0.675,0.399,1.145,0.759,1.408s0.773,0.396,1.243,0.396
		s0.888-0.14,1.254-0.418s0.616-0.733,0.748-1.364l1.319,0.418c-0.131,0.852-0.51,1.504-1.133,1.959
		c-0.623,0.454-1.367,0.682-2.232,0.682c-0.396,0-0.789-0.051-1.178-0.154c-0.389-0.103-0.736-0.256-1.045-0.462
		c-0.308-0.205-0.571-0.47-0.791-0.792c-0.221-0.322-0.367-0.704-0.44-1.145L291.735,79.586z"/>
	<path fill="#FFFFFF" d="M303.988,90.08h-1.012v4.949h-1.76v-11h1.76v4.973l0.946-0.309l3.521-4.664h1.914l-3.41,4.422l-0.924,0.727
		l1.144,0.88l3.674,4.972h-2.178L303.988,90.08z"/>
	<path fill="#FFFFFF" d="M310.853,87.88h5.324v1.628h-5.324V87.88z"/>
	<path fill="#FFFFFF" d="M330.499,97.867h-1.254l-0.33-2.838h-10.802l-0.33,2.838h-1.276v-4.465h1.562
		c0.117-0.162,0.298-0.539,0.539-1.134c0.242-0.594,0.484-1.444,0.727-2.552s0.458-2.493,0.648-4.158
		c0.191-1.664,0.287-3.641,0.287-5.929h8.228v13.772h2.002V97.867z M326.671,93.402V81.258h-4.687
		c-0.043,1.613-0.128,3.065-0.252,4.355c-0.125,1.291-0.275,2.432-0.451,3.422s-0.375,1.844-0.594,2.563
		c-0.221,0.719-0.448,1.32-0.683,1.805H326.671z"/>
	<path fill="#FFFFFF" d="M332.633,84.844c0.557-0.338,1.206-0.586,1.947-0.748c0.74-0.161,1.514-0.242,2.32-0.242
		c0.763,0,1.375,0.104,1.838,0.309c0.461,0.205,0.813,0.473,1.056,0.803c0.241,0.33,0.403,0.693,0.483,1.089
		c0.081,0.396,0.121,0.792,0.121,1.188c0,0.879-0.021,1.738-0.066,2.574c-0.043,0.836-0.065,1.627-0.065,2.375
		c0,0.543,0.022,1.057,0.065,1.541c0.045,0.483,0.125,0.932,0.242,1.342h-1.297l-0.463-1.541h-0.109
		c-0.133,0.206-0.297,0.408-0.495,0.605c-0.198,0.198-0.437,0.374-0.716,0.528c-0.278,0.153-0.602,0.282-0.967,0.385
		c-0.367,0.103-0.785,0.153-1.254,0.153c-0.471,0-0.906-0.072-1.31-0.219s-0.752-0.355-1.045-0.627
		c-0.294-0.271-0.524-0.598-0.693-0.979s-0.253-0.813-0.253-1.298c0-0.646,0.133-1.185,0.396-1.617s0.634-0.777,1.111-1.034
		c0.476-0.257,1.048-0.44,1.715-0.55c0.668-0.109,1.404-0.165,2.211-0.165c0.205,0,0.408,0,0.605,0c0.198,0,0.399,0.015,0.605,0.044
		c0.043-0.439,0.065-0.836,0.065-1.188c0-0.807-0.161-1.371-0.483-1.694c-0.323-0.323-0.91-0.484-1.76-0.484
		c-0.25,0-0.518,0.019-0.804,0.058c-0.286,0.037-0.579,0.09-0.88,0.158s-0.587,0.15-0.857,0.248
		c-0.272,0.099-0.51,0.207-0.716,0.328L332.633,84.844z M335.757,93.666c0.41,0,0.777-0.055,1.101-0.165
		c0.322-0.11,0.601-0.249,0.836-0.418c0.234-0.169,0.428-0.355,0.582-0.562c0.154-0.205,0.268-0.402,0.342-0.594v-1.826
		c-0.206-0.014-0.415-0.025-0.627-0.033c-0.213-0.007-0.422-0.011-0.627-0.011c-0.455,0-0.898,0.026-1.332,0.077
		c-0.432,0.052-0.813,0.146-1.144,0.286s-0.594,0.33-0.792,0.571c-0.197,0.242-0.297,0.547-0.297,0.914
		c0,0.514,0.184,0.935,0.55,1.265S335.184,93.666,335.757,93.666z"/>
	<path fill="#FFFFFF" d="M350.452,90.168h-4.972v4.861h-1.76v-11h1.76v4.599h4.972v-4.599h1.761v11h-1.761V90.168z"/>
	<path fill="#FFFFFF" d="M363.101,94.304c-0.439,0.323-0.96,0.569-1.562,0.737s-1.231,0.253-1.892,0.253
		c-0.852,0-1.57-0.136-2.156-0.407c-0.587-0.271-1.066-0.66-1.441-1.166c-0.373-0.506-0.645-1.114-0.813-1.826
		c-0.169-0.711-0.253-1.499-0.253-2.365c0-1.861,0.41-3.289,1.232-4.278c0.82-0.99,2.002-1.485,3.541-1.485
		c0.705,0,1.302,0.055,1.793,0.165c0.492,0.11,0.936,0.269,1.332,0.474l-0.506,1.518c-0.338-0.19-0.713-0.342-1.123-0.451
		s-0.851-0.165-1.32-0.165c-2.082,0-3.123,1.408-3.123,4.224c0,0.559,0.055,1.09,0.164,1.596c0.111,0.506,0.294,0.953,0.551,1.342
		c0.256,0.389,0.594,0.701,1.012,0.936s0.936,0.352,1.551,0.352c0.528,0,1.002-0.08,1.42-0.242c0.418-0.161,0.758-0.344,1.022-0.55
		L363.101,94.304z"/>
	<path fill="#FFFFFF" d="M368.458,91.158l0.618,2.111h0.111l0.484-2.134l2.143-7.106h1.76l-3.256,9.879
		c-0.25,0.719-0.494,1.415-0.736,2.09c-0.242,0.674-0.51,1.275-0.804,1.804s-0.624,0.95-0.989,1.265
		c-0.367,0.315-0.793,0.473-1.276,0.473c-0.528,0-0.961-0.072-1.298-0.219l0.308-1.519c0.19,0.073,0.374,0.11,0.55,0.11
		c0.41,0,0.807-0.217,1.188-0.649c0.381-0.433,0.696-1.177,0.946-2.233l-4.422-11h2.023L368.458,91.158z"/>
</g>
</svg>
