<?xml version="1.0" encoding="utf-8"?>
<!-- Generator: Adobe Illustrator 16.0.0, SVG Export Plug-In . SVG Version: 6.00 Build 0)  -->
<!DOCTYPE svg PUBLIC "-//W3C//DTD SVG 1.1 Basic//EN" "http://www.w3.org/Graphics/SVG/1.1/DTD/svg11-basic.dtd" [
	<!ENTITY ns_flows "http://ns.adobe.com/Flows/1.0/">
	<!ENTITY ns_extend "http://ns.adobe.com/Extensibility/1.0/">
	<!ENTITY ns_ai "http://ns.adobe.com/AdobeIllustrator/10.0/">
	<!ENTITY ns_graphs "http://ns.adobe.com/Graphs/1.0/">
]>
<svg version="1.1" baseProfile="basic" id="Layer_1" xmlns:x="&ns_extend;" xmlns:i="&ns_ai;" xmlns:graph="&ns_graphs;"
	 xmlns="http://www.w3.org/2000/svg" xmlns:xlink="http://www.w3.org/1999/xlink" xmlns:a="http://ns.adobe.com/AdobeSVGViewerExtensions/3.0/"
	 x="0px" y="0px" width="303px" height="112px" viewBox="0 0 303 112" xml:space="preserve">
<rect y="35" style="fill:#E50647;" width="303" height="44"/>
<rect style="fill:#E50647;" width="282" height="44"/>
<rect y="65" style="fill:#E50647;" width="177" height="47"/>
<g>
	<path style="fill:#F2F2F2;" d="M94.347,26.845c0.476,0,0.917-0.07,1.323-0.211c0.406-0.14,0.756-0.346,1.05-0.619
		s0.525-0.599,0.693-0.977s0.252-0.791,0.252-1.239c0-0.979-0.291-1.708-0.872-2.184s-1.383-0.714-2.404-0.714h-1.554v-0.609
		l3.024-4.662l0.966-0.924l-1.365,0.21h-4.158v-1.554h7.497v0.609l-3.339,5.019l-0.735,0.608v0.043l0.714-0.147
		c0.56,0.015,1.078,0.115,1.554,0.304c0.476,0.189,0.889,0.463,1.239,0.82c0.35,0.356,0.623,0.783,0.819,1.28
		c0.196,0.497,0.294,1.061,0.294,1.69c0,0.756-0.133,1.428-0.399,2.016c-0.266,0.588-0.627,1.082-1.082,1.48
		c-0.455,0.399-0.991,0.704-1.606,0.914c-0.616,0.21-1.268,0.314-1.953,0.314c-0.63,0-1.197-0.049-1.701-0.146
		s-0.945-0.224-1.323-0.378l0.441-1.491c0.322,0.154,0.704,0.283,1.145,0.389S93.801,26.845,94.347,26.845z"/>
	<path style="fill:#F2F2F2;" d="M109.109,23.379v-1.364h1.47c0.252,0,0.5-0.043,0.745-0.127s0.465-0.199,0.662-0.346
		c0.196-0.147,0.354-0.322,0.473-0.525c0.119-0.203,0.178-0.416,0.178-0.641c0-0.546-0.189-0.931-0.567-1.154
		c-0.378-0.225-0.945-0.336-1.701-0.336c-0.546,0-1.046,0.081-1.501,0.244s-0.808,0.319-1.06,0.469l-0.483-1.281
		c0.42-0.237,0.914-0.447,1.48-0.629c0.567-0.182,1.243-0.273,2.027-0.273c2.324,0,3.486,0.861,3.486,2.583
		c0,0.49-0.158,0.97-0.473,1.438s-0.766,0.802-1.354,0.998v0.084c0.826,0.154,1.403,0.447,1.732,0.881
		c0.329,0.435,0.494,1.009,0.494,1.723c0,0.448-0.091,0.861-0.273,1.238c-0.182,0.379-0.455,0.708-0.819,0.988
		c-0.364,0.279-0.823,0.5-1.375,0.66c-0.553,0.162-1.194,0.242-1.922,0.242c-0.714,0-1.305-0.063-1.774-0.189
		c-0.469-0.125-0.893-0.279-1.271-0.461l0.483-1.387c0.322,0.182,0.71,0.322,1.166,0.42s0.949,0.147,1.48,0.147
		c0.854,0,1.505-0.147,1.953-0.441s0.672-0.741,0.672-1.344c0-0.504-0.21-0.899-0.63-1.187s-1.113-0.431-2.079-0.431H109.109z"/>
	<path style="fill:#F2F2F2;" d="M117.388,18.339c0.532-0.322,1.151-0.56,1.858-0.714c0.707-0.153,1.445-0.231,2.215-0.231
		c0.728,0,1.313,0.099,1.753,0.295c0.441,0.195,0.777,0.451,1.008,0.766c0.231,0.315,0.385,0.662,0.462,1.04
		c0.077,0.378,0.115,0.756,0.115,1.134c0,0.84-0.021,1.659-0.063,2.457s-0.063,1.555-0.063,2.268c0,0.519,0.021,1.008,0.063,1.471
		c0.042,0.462,0.119,0.889,0.231,1.281h-1.239l-0.441-1.471h-0.105c-0.126,0.196-0.284,0.389-0.473,0.578
		c-0.189,0.188-0.417,0.356-0.683,0.504c-0.266,0.146-0.574,0.27-0.924,0.367c-0.35,0.098-0.749,0.146-1.197,0.146
		c-0.448,0-0.865-0.07-1.25-0.209c-0.385-0.141-0.718-0.34-0.998-0.6c-0.28-0.258-0.501-0.57-0.662-0.934
		c-0.161-0.364-0.242-0.777-0.242-1.239c0-0.616,0.126-1.13,0.378-1.544c0.252-0.412,0.605-0.742,1.061-0.986
		c0.455-0.245,1.001-0.42,1.638-0.525c0.637-0.105,1.34-0.157,2.11-0.157c0.196,0,0.389,0,0.578,0s0.381,0.015,0.578,0.042
		c0.042-0.42,0.063-0.799,0.063-1.135c0-0.77-0.154-1.309-0.462-1.616c-0.308-0.308-0.869-0.462-1.68-0.462
		c-0.238,0-0.494,0.018-0.767,0.054s-0.553,0.087-0.84,0.151c-0.287,0.064-0.56,0.145-0.819,0.238
		c-0.259,0.093-0.487,0.197-0.683,0.313L117.388,18.339z M120.37,26.761c0.392,0,0.742-0.053,1.05-0.158
		c0.308-0.105,0.574-0.238,0.798-0.398c0.224-0.161,0.41-0.34,0.557-0.536s0.255-0.385,0.326-0.567v-1.742
		c-0.196-0.014-0.396-0.025-0.599-0.031c-0.203-0.008-0.403-0.012-0.599-0.012c-0.434,0-0.857,0.025-1.271,0.074
		s-0.777,0.141-1.092,0.273s-0.567,0.314-0.756,0.545c-0.189,0.231-0.284,0.522-0.284,0.872c0,0.49,0.175,0.893,0.525,1.208
		C119.375,26.603,119.823,26.761,120.37,26.761z"/>
	<path style="fill:#F2F2F2;" d="M134.313,23.421h-4.746v4.641h-1.68v-10.5h1.68v4.39h4.746v-4.39h1.68v10.5h-1.68V23.421z"/>
	<path style="fill:#F2F2F2;" d="M144.552,23.715l-1.617,0.252l-2.772,4.095h-2.037l2.52-3.59l0.84-0.777
		c-0.728-0.112-1.347-0.406-1.858-0.883c-0.511-0.475-0.767-1.119-0.767-1.932c0-0.63,0.108-1.168,0.326-1.617
		c0.217-0.447,0.528-0.818,0.935-1.113c0.406-0.293,0.889-0.507,1.449-0.641c0.56-0.133,1.19-0.199,1.89-0.199
		c0.518,0,1.001,0.035,1.449,0.105c0.448,0.07,0.889,0.146,1.323,0.23v10.416h-1.68V23.715z M144.552,18.99
		c-0.182-0.07-0.385-0.122-0.609-0.157s-0.42-0.053-0.588-0.053c-0.896,0-1.579,0.16-2.047,0.482
		c-0.469,0.322-0.704,0.834-0.704,1.533c0,0.63,0.249,1.117,0.746,1.459c0.497,0.344,1.151,0.516,1.963,0.516
		c0.014,0,0.035,0,0.063,0c0.028,0,0.084,0,0.168,0s0.203-0.004,0.357-0.012c0.154-0.006,0.371-0.017,0.651-0.031V18.99z"/>
	<path style="fill:#F2F2F2;" d="M156.371,19.032h-3.297v9.029h-1.68v-9.029h-3.297v-1.471h8.274V19.032z"/>
	<path style="fill:#F2F2F2;" d="M164.872,21.847l0.063-1.303h-0.063l-0.861,1.344l-4.725,6.174h-0.966v-10.5H160v6.405l-0.063,1.239
		h0.084l0.819-1.303l4.725-6.342h0.987v10.5h-1.68V21.847z"/>
	<path style="fill:#F2F2F2;" d="M175.101,23.715l-1.617,0.252l-2.772,4.095h-2.037l2.52-3.59l0.84-0.777
		c-0.728-0.112-1.347-0.406-1.858-0.883c-0.511-0.475-0.767-1.119-0.767-1.932c0-0.63,0.108-1.168,0.326-1.617
		c0.217-0.447,0.528-0.818,0.935-1.113c0.406-0.293,0.889-0.507,1.449-0.641c0.56-0.133,1.19-0.199,1.89-0.199
		c0.518,0,1.001,0.035,1.449,0.105c0.448,0.07,0.889,0.146,1.323,0.23v10.416h-1.68V23.715z M175.101,18.99
		c-0.182-0.07-0.385-0.122-0.609-0.157s-0.42-0.053-0.588-0.053c-0.896,0-1.579,0.16-2.047,0.482
		c-0.469,0.322-0.704,0.834-0.704,1.533c0,0.63,0.249,1.117,0.746,1.459c0.497,0.344,1.151,0.516,1.963,0.516
		c0.014,0,0.035,0,0.063,0c0.028,0,0.084,0,0.168,0s0.203-0.004,0.357-0.012c0.154-0.006,0.371-0.017,0.651-0.031V18.99z"/>
	<path style="fill:#F2F2F2;" d="M185.453,17.583c0.49-0.027,1.004-0.063,1.543-0.105c0.539-0.041,1.208-0.063,2.005-0.063
		c1.386,0,2.38,0.213,2.982,0.641s0.903,1.074,0.903,1.942c0,0.49-0.144,0.97-0.43,1.438c-0.287,0.469-0.76,0.816-1.417,1.039v0.084
		c0.826,0.154,1.407,0.441,1.743,0.861c0.336,0.42,0.504,0.98,0.504,1.68c0,1.092-0.392,1.883-1.176,2.373s-1.96,0.735-3.528,0.735
		c-0.588,0-1.134-0.018-1.638-0.052c-0.504-0.035-1.001-0.074-1.491-0.116V17.583z M189.191,21.993c0.252,0,0.497-0.042,0.735-0.126
		s0.452-0.2,0.641-0.347s0.343-0.318,0.462-0.515s0.179-0.405,0.179-0.63c0-0.56-0.168-0.948-0.504-1.166
		c-0.336-0.217-0.924-0.324-1.764-0.324c-0.448,0-0.802,0.006-1.061,0.021c-0.259,0.014-0.508,0.028-0.746,0.042v3.045H189.191z
		 M187.133,26.655c0.266,0.027,0.528,0.049,0.788,0.063c0.259,0.014,0.563,0.021,0.914,0.021c0.938,0,1.634-0.133,2.089-0.399
		c0.455-0.266,0.683-0.721,0.683-1.364c0-0.504-0.193-0.914-0.578-1.229c-0.385-0.315-1.067-0.473-2.047-0.473h-1.848V26.655z"/>
	<path style="fill:#F2F2F2;" d="M207.965,23.421h-4.746v4.641h-1.68v-10.5h1.68v4.39h4.746v-4.39h1.68v10.5h-1.68V23.421z"/>
	<path style="fill:#F2F2F2;" d="M220.55,27.222c-0.42,0.336-0.949,0.603-1.586,0.799c-0.637,0.195-1.313,0.293-2.026,0.293
		c-0.798,0-1.491-0.129-2.079-0.389c-0.588-0.258-1.071-0.629-1.449-1.112s-0.658-1.061-0.84-1.732
		c-0.182-0.672-0.273-1.429-0.273-2.269c0-1.791,0.399-3.156,1.197-4.095c0.798-0.938,1.939-1.407,3.423-1.407
		c0.476,0,0.952,0.053,1.428,0.158c0.476,0.105,0.903,0.305,1.281,0.598c0.378,0.295,0.686,0.711,0.924,1.25
		c0.238,0.539,0.357,1.25,0.357,2.131c0,0.463-0.042,0.975-0.126,1.533h-6.741c0,0.617,0.063,1.162,0.189,1.639
		s0.322,0.879,0.588,1.207c0.266,0.33,0.612,0.582,1.04,0.756c0.427,0.176,0.948,0.264,1.564,0.264c0.476,0,0.952-0.084,1.428-0.253
		c0.476-0.168,0.833-0.364,1.071-0.588L220.55,27.222z M216.938,18.78c-0.826,0-1.488,0.217-1.984,0.65
		c-0.497,0.435-0.795,1.176-0.893,2.227h5.208c0-1.064-0.203-1.81-0.609-2.236C218.254,18.993,217.68,18.78,216.938,18.78z"/>
	<path style="fill:#F2F2F2;" d="M233.211,30.729h-1.134l-0.315-2.668h-7.896l-0.315,2.668h-1.134v-4.138h1.239
		c0.112-0.153,0.259-0.431,0.441-0.829c0.182-0.399,0.36-0.959,0.535-1.68c0.175-0.721,0.329-1.617,0.462-2.688
		c0.133-1.071,0.213-2.349,0.241-3.833h6.342v9.03h1.533V30.729z M229.998,26.592v-7.56h-3.15c-0.028,0.588-0.077,1.229-0.147,1.922
		c-0.07,0.692-0.165,1.385-0.284,2.078c-0.119,0.693-0.27,1.348-0.452,1.964s-0.392,1.147-0.63,1.596H229.998z"/>
	<path style="fill:#F2F2F2;" d="M242.923,27.222c-0.42,0.336-0.949,0.603-1.586,0.799c-0.637,0.195-1.313,0.293-2.026,0.293
		c-0.798,0-1.491-0.129-2.079-0.389c-0.588-0.258-1.071-0.629-1.449-1.112s-0.658-1.061-0.84-1.732
		c-0.182-0.672-0.273-1.429-0.273-2.269c0-1.791,0.399-3.156,1.197-4.095c0.798-0.938,1.939-1.407,3.423-1.407
		c0.476,0,0.952,0.053,1.428,0.158c0.476,0.105,0.903,0.305,1.281,0.598c0.378,0.295,0.686,0.711,0.924,1.25
		c0.238,0.539,0.357,1.25,0.357,2.131c0,0.463-0.042,0.975-0.126,1.533h-6.741c0,0.617,0.063,1.162,0.189,1.639
		s0.322,0.879,0.588,1.207c0.266,0.33,0.612,0.582,1.04,0.756c0.427,0.176,0.948,0.264,1.564,0.264c0.476,0,0.952-0.084,1.428-0.253
		c0.476-0.168,0.833-0.364,1.071-0.588L242.923,27.222z M239.311,18.78c-0.826,0-1.488,0.217-1.984,0.65
		c-0.497,0.435-0.795,1.176-0.893,2.227h5.208c0-1.064-0.203-1.81-0.609-2.236C240.627,18.993,240.053,18.78,239.311,18.78z"/>
	<path style="fill:#F2F2F2;" d="M252.035,19.032h-3.045c-0.042,0.588-0.084,1.221-0.126,1.9s-0.105,1.357-0.189,2.037
		c-0.084,0.68-0.196,1.33-0.336,1.953s-0.318,1.172-0.535,1.648c-0.217,0.477-0.483,0.857-0.798,1.145s-0.689,0.43-1.124,0.43
		c-0.266,0-0.497-0.014-0.693-0.041c-0.196-0.029-0.371-0.077-0.525-0.147l0.252-1.407c0.168,0.057,0.35,0.084,0.546,0.084
		c0.28,0,0.532-0.119,0.756-0.357c0.224-0.237,0.42-0.689,0.588-1.354c0.168-0.665,0.308-1.586,0.42-2.762
		c0.112-1.176,0.189-2.709,0.231-4.6h6.258v10.5h-1.68V19.032z"/>
	<path style="fill:#F2F2F2;" d="M265.013,28.313c-0.756,0-1.404-0.115-1.943-0.346c-0.539-0.231-0.98-0.561-1.323-0.987
		c-0.343-0.427-0.602-0.944-0.777-1.554c-0.175-0.609-0.284-1.277-0.326-2.006h-2.1v4.641h-1.68v-10.5h1.68v4.39h2.121
		c0.112-1.498,0.521-2.646,1.229-3.444c0.707-0.798,1.76-1.197,3.161-1.197c0.77,0,1.424,0.13,1.963,0.389
		c0.539,0.26,0.98,0.631,1.323,1.113c0.343,0.482,0.591,1.064,0.746,1.743c0.154,0.679,0.231,1.432,0.231,2.257
		c0,1.779-0.354,3.141-1.061,4.085S266.469,28.313,265.013,28.313z M262.283,22.812c0,0.547,0.042,1.064,0.126,1.555
		c0.084,0.49,0.232,0.92,0.443,1.291c0.21,0.371,0.495,0.662,0.854,0.871c0.358,0.211,0.805,0.316,1.339,0.316
		c0.9,0,1.546-0.326,1.94-0.977c0.393-0.652,0.59-1.67,0.59-3.057c0-0.545-0.039-1.063-0.116-1.554
		c-0.078-0.489-0.214-0.921-0.411-1.292c-0.197-0.37-0.457-0.66-0.78-0.871c-0.323-0.209-0.738-0.314-1.244-0.314
		c-0.97,0-1.669,0.325-2.098,0.977C262.497,20.407,262.283,21.426,262.283,22.812z"/>
	<path style="fill:#F2F2F2;" d="M97.371,52.232h-4.641v9.03h-1.68v-10.5h8.001v10.5h-1.68V52.232z"/>
	<path style="fill:#F2F2F2;" d="M102.194,50.763h1.155l0.315,1.26h0.084c0.322-0.49,0.738-0.865,1.25-1.123
		c0.511-0.26,1.095-0.389,1.753-0.389c1.4,0,2.443,0.412,3.129,1.238c0.686,0.826,1.029,2.178,1.029,4.053
		c0,0.883-0.116,1.678-0.347,2.384c-0.231,0.707-0.556,1.306-0.977,1.796c-0.42,0.49-0.927,0.868-1.522,1.134
		s-1.256,0.399-1.984,0.399c-0.518,0-0.928-0.031-1.229-0.095c-0.301-0.063-0.626-0.171-0.977-0.325v4.367h-1.68V50.763z
		 M106.436,51.979c-0.714,0-1.278,0.187-1.69,0.557c-0.413,0.371-0.704,0.936-0.872,1.691v5.207
		c0.252,0.197,0.539,0.348,0.861,0.452c0.322,0.104,0.749,0.157,1.281,0.157c0.966,0,1.732-0.359,2.299-1.081
		c0.567-0.722,0.851-1.782,0.851-3.182c0-0.573-0.049-1.095-0.147-1.564c-0.098-0.469-0.255-0.868-0.472-1.197
		c-0.217-0.329-0.498-0.584-0.84-0.767C107.363,52.071,106.94,51.979,106.436,51.979z"/>
	<path style="fill:#F2F2F2;" d="M113.042,56.013c0-1.778,0.396-3.141,1.187-4.085s1.929-1.417,3.413-1.417
		c0.784,0,1.466,0.129,2.047,0.389c0.581,0.258,1.061,0.629,1.438,1.112c0.378,0.483,0.658,1.063,0.84,1.743
		c0.182,0.68,0.273,1.432,0.273,2.258c0,1.777-0.396,3.139-1.187,4.084c-0.791,0.945-1.929,1.418-3.413,1.418
		c-0.784,0-1.467-0.13-2.047-0.389c-0.581-0.26-1.061-0.631-1.438-1.113s-0.658-1.064-0.84-1.743
		C113.134,57.591,113.042,56.839,113.042,56.013z M114.786,56.013c0,0.531,0.053,1.043,0.158,1.533s0.269,0.916,0.493,1.28
		s0.518,0.658,0.882,0.882c0.364,0.225,0.805,0.336,1.323,0.336c1.904,0.014,2.856-1.33,2.856-4.031
		c0-0.547-0.052-1.064-0.157-1.555s-0.27-0.916-0.494-1.281c-0.224-0.363-0.518-0.654-0.882-0.871
		c-0.364-0.217-0.805-0.326-1.323-0.326C115.738,51.966,114.786,53.311,114.786,56.013z"/>
	<path style="fill:#F2F2F2;" d="M134.299,63.929h-1.134l-0.315-2.666h-7.896l-0.315,2.666h-1.134v-4.137h1.239
		c0.112-0.154,0.259-0.43,0.441-0.829c0.182-0.399,0.36-0.959,0.535-1.681c0.175-0.721,0.329-1.617,0.462-2.688
		c0.133-1.07,0.213-2.349,0.241-3.832h6.342v9.029h1.533V63.929z M131.086,59.792v-7.56h-3.15c-0.028,0.588-0.077,1.229-0.147,1.921
		c-0.07,0.693-0.165,1.387-0.284,2.08c-0.119,0.692-0.27,1.347-0.452,1.963s-0.392,1.148-0.63,1.596H131.086z"/>
	<path style="fill:#F2F2F2;" d="M135.758,56.013c0-1.778,0.396-3.141,1.187-4.085s1.929-1.417,3.413-1.417
		c0.784,0,1.466,0.129,2.047,0.389c0.581,0.258,1.061,0.629,1.438,1.112c0.378,0.483,0.658,1.063,0.84,1.743
		c0.182,0.68,0.273,1.432,0.273,2.258c0,1.777-0.396,3.139-1.187,4.084c-0.791,0.945-1.929,1.418-3.413,1.418
		c-0.784,0-1.467-0.13-2.047-0.389c-0.581-0.26-1.061-0.631-1.438-1.113s-0.658-1.064-0.84-1.743
		C135.849,57.591,135.758,56.839,135.758,56.013z M137.501,56.013c0,0.531,0.053,1.043,0.158,1.533s0.269,0.916,0.493,1.28
		s0.518,0.658,0.882,0.882c0.364,0.225,0.805,0.336,1.323,0.336c1.904,0.014,2.856-1.33,2.856-4.031
		c0-0.547-0.052-1.064-0.157-1.555s-0.27-0.916-0.494-1.281c-0.224-0.363-0.518-0.654-0.882-0.871
		c-0.364-0.217-0.805-0.326-1.323-0.326C138.453,51.966,137.501,53.311,137.501,56.013z"/>
	<path style="fill:#F2F2F2;" d="M153.434,52.232h-3.045c-0.042,0.588-0.084,1.222-0.126,1.9s-0.105,1.358-0.189,2.037
		c-0.084,0.679-0.196,1.33-0.336,1.952c-0.14,0.623-0.318,1.174-0.535,1.648c-0.217,0.477-0.483,0.858-0.798,1.145
		c-0.315,0.287-0.689,0.432-1.124,0.432c-0.266,0-0.497-0.015-0.693-0.043c-0.196-0.027-0.371-0.076-0.525-0.146l0.252-1.407
		c0.168,0.056,0.35,0.084,0.546,0.084c0.28,0,0.532-0.118,0.756-0.356c0.224-0.238,0.42-0.689,0.588-1.355
		c0.168-0.664,0.308-1.585,0.42-2.761c0.112-1.177,0.189-2.709,0.231-4.599h6.258v10.5h-1.68V52.232z"/>
	<path style="fill:#F2F2F2;" d="M162.071,56.621l-3.087,4.642h-1.932l3.318-4.81l0.714-0.63l-1.071-0.798l-2.73-4.263h1.785
		l2.898,4.535h1.092v-4.535h1.638v4.746l0.987-0.295l2.919-4.451h1.764l-2.856,4.263l-0.819,0.672l1.071,0.84l3.108,4.726h-1.995
		l-3.087-4.726h-1.092v4.726h-1.638v-4.936L162.071,56.621z"/>
	<path style="fill:#F2F2F2;" d="M179.35,55.046l0.063-1.302h-0.063l-0.861,1.345l-4.725,6.174h-0.966v-10.5h1.68v6.404l-0.063,1.239
		h0.084l0.819-1.302l4.725-6.342h0.987v10.5h-1.68V55.046z"/>
	<path style="fill:#F2F2F2;" d="M191.242,52.232h-3.297v9.03h-1.68v-9.03h-3.297v-1.47h8.274V52.232z"/>
	<path style="fill:#F2F2F2;" d="M200.803,60.423c-0.42,0.336-0.949,0.602-1.586,0.797c-0.637,0.196-1.313,0.295-2.026,0.295
		c-0.798,0-1.491-0.13-2.079-0.389c-0.588-0.26-1.071-0.631-1.449-1.113s-0.658-1.061-0.84-1.732
		c-0.182-0.672-0.273-1.428-0.273-2.268c0-1.793,0.399-3.157,1.197-4.096c0.798-0.938,1.939-1.406,3.423-1.406
		c0.476,0,0.952,0.052,1.428,0.156c0.476,0.105,0.903,0.305,1.281,0.6c0.378,0.293,0.686,0.711,0.924,1.249
		c0.238,0.539,0.357,1.249,0.357,2.132c0,0.462-0.042,0.973-0.126,1.533h-6.741c0,0.615,0.063,1.162,0.189,1.638
		s0.322,0.878,0.588,1.208c0.266,0.328,0.612,0.58,1.04,0.756c0.427,0.175,0.948,0.262,1.564,0.262c0.476,0,0.952-0.084,1.428-0.252
		c0.476-0.168,0.833-0.363,1.071-0.588L200.803,60.423z M197.191,51.979c-0.826,0-1.488,0.218-1.984,0.652
		c-0.497,0.434-0.795,1.176-0.893,2.226h5.208c0-1.063-0.203-1.81-0.609-2.237C198.507,52.194,197.933,51.979,197.191,51.979z"/>
	<path style="fill:#F2F2F2;" d="M209.915,52.232h-3.045c-0.042,0.588-0.084,1.222-0.126,1.9s-0.105,1.358-0.189,2.037
		c-0.084,0.679-0.196,1.33-0.336,1.952c-0.14,0.623-0.318,1.174-0.535,1.648c-0.217,0.477-0.483,0.858-0.798,1.145
		c-0.315,0.287-0.689,0.432-1.124,0.432c-0.266,0-0.497-0.015-0.693-0.043c-0.196-0.027-0.371-0.076-0.525-0.146l0.252-1.407
		c0.168,0.056,0.35,0.084,0.546,0.084c0.28,0,0.532-0.118,0.756-0.356c0.224-0.238,0.42-0.689,0.588-1.355
		c0.168-0.664,0.308-1.585,0.42-2.761c0.112-1.177,0.189-2.709,0.231-4.599h6.258v10.5h-1.68V52.232z"/>
	<path style="fill:#F2F2F2;" d="M216.425,54.773c0.336-0.056,0.658-0.095,0.966-0.116c0.308-0.021,0.602-0.031,0.882-0.031
		c0.728,0,1.344,0.081,1.848,0.242c0.504,0.16,0.914,0.381,1.229,0.661s0.542,0.612,0.682,0.997c0.14,0.386,0.21,0.795,0.21,1.229
		c0,1.274-0.381,2.198-1.144,2.772c-0.764,0.574-1.95,0.86-3.56,0.86c-0.896,0-1.827-0.041-2.793-0.125v-10.5h1.68V54.773z
		 M216.425,59.792c0.518,0.084,1.015,0.126,1.491,0.126c0.882,0,1.533-0.171,1.953-0.515c0.42-0.342,0.63-0.829,0.63-1.459
		c0-0.561-0.203-1.021-0.609-1.387c-0.406-0.363-1.043-0.545-1.911-0.545c-0.238,0-0.497,0.007-0.777,0.021
		c-0.28,0.015-0.54,0.056-0.777,0.126V59.792z"/>
	<path style="fill:#F2F2F2;" d="M230.896,56.621h-4.746v4.642h-1.68v-10.5h1.68v4.389h4.746v-4.389h1.68v10.5h-1.68V56.621z"/>
	<path style="fill:#F2F2F2;" d="M235.228,56.013c0-1.778,0.396-3.141,1.187-4.085s1.929-1.417,3.413-1.417
		c0.784,0,1.466,0.129,2.047,0.389c0.581,0.258,1.061,0.629,1.438,1.112c0.378,0.483,0.658,1.063,0.84,1.743
		c0.182,0.68,0.273,1.432,0.273,2.258c0,1.777-0.396,3.139-1.187,4.084c-0.791,0.945-1.929,1.418-3.413,1.418
		c-0.784,0-1.467-0.13-2.047-0.389c-0.581-0.26-1.061-0.631-1.438-1.113s-0.658-1.064-0.84-1.743
		C235.319,57.591,235.228,56.839,235.228,56.013z M236.971,56.013c0,0.531,0.053,1.043,0.158,1.533s0.269,0.916,0.493,1.28
		s0.518,0.658,0.882,0.882c0.364,0.225,0.805,0.336,1.323,0.336c1.904,0.014,2.856-1.33,2.856-4.031
		c0-0.547-0.052-1.064-0.157-1.555s-0.27-0.916-0.494-1.281c-0.224-0.363-0.518-0.654-0.882-0.871
		c-0.364-0.217-0.805-0.326-1.323-0.326C237.923,51.966,236.971,53.311,236.971,56.013z"/>
	<path style="fill:#F2F2F2;" d="M254.318,60.569c-0.42,0.309-0.917,0.543-1.491,0.703c-0.574,0.161-1.176,0.242-1.806,0.242
		c-0.812,0-1.498-0.13-2.058-0.389c-0.56-0.26-1.019-0.631-1.375-1.113s-0.616-1.064-0.777-1.743
		c-0.161-0.679-0.242-1.431-0.242-2.257c0-1.778,0.392-3.141,1.176-4.085c0.784-0.944,1.911-1.417,3.381-1.417
		c0.672,0,1.242,0.052,1.711,0.156c0.469,0.105,0.893,0.256,1.271,0.452l-0.483,1.449c-0.322-0.183-0.679-0.325-1.071-0.431
		c-0.392-0.105-0.813-0.158-1.26-0.158c-1.988,0-2.982,1.345-2.982,4.033c0,0.531,0.053,1.039,0.158,1.521
		c0.105,0.483,0.28,0.91,0.525,1.281c0.245,0.371,0.567,0.669,0.966,0.893c0.399,0.225,0.893,0.336,1.48,0.336
		c0.504,0,0.956-0.076,1.354-0.23s0.725-0.329,0.977-0.525L254.318,60.569z"/>
	<path style="fill:#F2F2F2;" d="M263.978,52.232h-3.297v9.03h-1.68v-9.03h-3.297v-1.47h8.274V52.232z"/>
	<path style="fill:#F2F2F2;" d="M267.607,54.773c0.336-0.056,0.658-0.095,0.966-0.116c0.308-0.021,0.602-0.031,0.882-0.031
		c0.728,0,1.344,0.081,1.848,0.242c0.504,0.16,0.914,0.381,1.229,0.661s0.542,0.612,0.682,0.997c0.14,0.386,0.21,0.795,0.21,1.229
		c0,1.274-0.381,2.198-1.144,2.772c-0.764,0.574-1.95,0.86-3.56,0.86c-0.896,0-1.827-0.041-2.793-0.125v-10.5h1.68V54.773z
		 M267.607,59.792c0.518,0.084,1.015,0.126,1.491,0.126c0.882,0,1.533-0.171,1.953-0.515c0.42-0.342,0.63-0.829,0.63-1.459
		c0-0.561-0.203-1.021-0.609-1.387c-0.406-0.363-1.043-0.545-1.911-0.545c-0.238,0-0.497,0.007-0.777,0.021
		c-0.28,0.015-0.54,0.056-0.777,0.126V59.792z"/>
	<path style="fill:#F2F2F2;" d="M283.8,61.515c-0.756,0-1.404-0.115-1.943-0.348c-0.539-0.23-0.98-0.559-1.323-0.986
		c-0.343-0.427-0.602-0.945-0.777-1.555c-0.175-0.608-0.284-1.277-0.326-2.005h-2.1v4.642h-1.68v-10.5h1.68v4.389h2.121
		c0.112-1.498,0.521-2.646,1.229-3.444s1.76-1.196,3.161-1.196c0.77,0,1.424,0.129,1.963,0.389c0.539,0.258,0.98,0.629,1.323,1.112
		c0.343,0.483,0.591,1.063,0.746,1.743c0.154,0.68,0.231,1.432,0.231,2.258c0,1.777-0.354,3.139-1.061,4.084
		S285.255,61.515,283.8,61.515z M281.07,56.013c0,0.545,0.042,1.063,0.126,1.554c0.084,0.49,0.232,0.921,0.443,1.292
		c0.21,0.371,0.495,0.66,0.854,0.871c0.358,0.209,0.805,0.314,1.339,0.314c0.9,0,1.546-0.325,1.94-0.977
		c0.393-0.65,0.59-1.669,0.59-3.055c0-0.547-0.039-1.064-0.116-1.555c-0.078-0.49-0.214-0.92-0.411-1.291s-0.457-0.662-0.78-0.871
		c-0.323-0.211-0.738-0.316-1.244-0.316c-0.97,0-1.669,0.326-2.098,0.977C281.284,53.608,281.07,54.626,281.07,56.013z"/>
	<path style="fill:#F2F2F2;" d="M91.701,92.908h2.94V82.745l0.21-1.24l-0.84,0.987l-2.31,1.659l-0.798-1.07l4.62-3.57h0.756v13.397
		h2.877v1.554h-7.455V92.908z"/>
	<path style="fill:#F2F2F2;" d="M101.64,93.56c0-0.336,0.112-0.609,0.336-0.819c0.224-0.21,0.511-0.315,0.861-0.315
		c0.434,0,0.788,0.154,1.061,0.463c0.273,0.308,0.409,0.756,0.409,1.344c0,0.504-0.07,0.945-0.21,1.322
		c-0.14,0.379-0.322,0.704-0.546,0.977c-0.224,0.273-0.469,0.498-0.735,0.673c-0.266,0.175-0.532,0.304-0.798,0.388l-0.525-0.818
		c0.504-0.196,0.878-0.501,1.124-0.914c0.245-0.412,0.368-0.829,0.368-1.249c-0.126,0.042-0.245,0.063-0.357,0.063
		c-0.28,0-0.515-0.095-0.704-0.284C101.734,94.2,101.64,93.924,101.64,93.56z"/>
	<path style="fill:#F2F2F2;" d="M109.596,93.245c0.966,0,1.764-0.281,2.394-0.841c0.63-0.56,0.945-1.372,0.945-2.437
		c0-1.021-0.312-1.784-0.935-2.289c-0.623-0.504-1.48-0.756-2.572-0.756l-1.764,0.105v-7.266h6.552v1.554h-4.977v4.179l0.903-0.041
		c1.386,0.014,2.478,0.398,3.276,1.154s1.197,1.842,1.197,3.255c0,0.784-0.133,1.48-0.399,2.09
		c-0.266,0.608-0.626,1.116-1.081,1.522c-0.456,0.406-0.991,0.714-1.607,0.924s-1.274,0.314-1.974,0.314
		c-0.63,0-1.163-0.035-1.596-0.104c-0.434-0.07-0.84-0.175-1.218-0.315l0.441-1.428c0.322,0.126,0.668,0.221,1.04,0.283
		C108.591,93.213,109.05,93.245,109.596,93.245z"/>
	<path style="fill:#F2F2F2;" d="M124.884,83.962v2.856c0,0.378,0.021,0.718,0.063,1.019s0.126,0.561,0.252,0.777
		s0.308,0.385,0.546,0.504s0.553,0.178,0.945,0.178c0.63,0,1.147-0.069,1.554-0.209c0.406-0.141,0.714-0.295,0.924-0.463v-4.662
		h1.68v10.5h-1.68v-4.41c-0.224,0.141-0.557,0.295-0.998,0.463s-1.047,0.252-1.816,0.252c-0.518,0-0.974-0.057-1.365-0.168
		c-0.392-0.112-0.721-0.309-0.987-0.588c-0.266-0.28-0.466-0.651-0.599-1.113c-0.133-0.462-0.2-1.043-0.2-1.743v-3.192H124.884z"/>
	<path style="fill:#F2F2F2;" d="M133.851,84.739c0.532-0.322,1.151-0.56,1.858-0.714c0.707-0.153,1.445-0.231,2.215-0.231
		c0.728,0,1.313,0.099,1.753,0.295c0.441,0.195,0.777,0.451,1.008,0.766c0.231,0.315,0.385,0.662,0.462,1.04
		c0.077,0.378,0.115,0.756,0.115,1.134c0,0.84-0.021,1.659-0.063,2.457s-0.063,1.555-0.063,2.268c0,0.519,0.021,1.008,0.063,1.471
		c0.042,0.462,0.119,0.889,0.231,1.281h-1.239l-0.441-1.471h-0.105c-0.126,0.196-0.284,0.389-0.473,0.578
		c-0.189,0.188-0.417,0.356-0.683,0.504c-0.266,0.146-0.574,0.27-0.924,0.367c-0.35,0.098-0.749,0.146-1.197,0.146
		c-0.448,0-0.865-0.07-1.25-0.209c-0.385-0.141-0.718-0.34-0.998-0.6c-0.28-0.258-0.501-0.57-0.662-0.934
		c-0.161-0.364-0.242-0.777-0.242-1.239c0-0.616,0.126-1.13,0.378-1.544c0.252-0.412,0.605-0.742,1.061-0.986
		c0.455-0.245,1.001-0.42,1.638-0.525c0.637-0.105,1.34-0.157,2.11-0.157c0.196,0,0.389,0,0.578,0s0.381,0.015,0.578,0.042
		c0.042-0.42,0.063-0.799,0.063-1.135c0-0.77-0.154-1.309-0.462-1.616c-0.308-0.308-0.869-0.462-1.68-0.462
		c-0.238,0-0.494,0.018-0.767,0.054s-0.553,0.087-0.84,0.151c-0.287,0.064-0.56,0.145-0.819,0.238
		c-0.259,0.093-0.487,0.197-0.683,0.313L133.851,84.739z M136.833,93.161c0.392,0,0.742-0.053,1.05-0.158
		c0.308-0.105,0.574-0.238,0.798-0.398c0.224-0.161,0.41-0.34,0.557-0.536s0.255-0.385,0.326-0.567v-1.742
		c-0.196-0.014-0.396-0.025-0.599-0.031c-0.203-0.008-0.403-0.012-0.599-0.012c-0.434,0-0.857,0.025-1.271,0.074
		s-0.777,0.141-1.092,0.273s-0.567,0.314-0.756,0.545c-0.189,0.231-0.284,0.522-0.284,0.872c0,0.49,0.175,0.893,0.525,1.208
		C135.838,93.003,136.286,93.161,136.833,93.161z"/>
	<path style="fill:#F2F2F2;" d="M151.532,93.77c-0.42,0.308-0.917,0.542-1.491,0.704c-0.574,0.16-1.176,0.24-1.806,0.24
		c-0.812,0-1.498-0.129-2.058-0.389c-0.56-0.258-1.019-0.629-1.375-1.112s-0.616-1.063-0.777-1.743
		c-0.161-0.679-0.242-1.432-0.242-2.258c0-1.777,0.392-3.139,1.176-4.084c0.784-0.945,1.911-1.418,3.381-1.418
		c0.672,0,1.242,0.053,1.711,0.158s0.893,0.256,1.271,0.451l-0.483,1.449c-0.322-0.182-0.679-0.326-1.071-0.431
		c-0.392-0.104-0.813-0.157-1.26-0.157c-1.988,0-2.982,1.344-2.982,4.031c0,0.533,0.053,1.04,0.158,1.523
		c0.105,0.482,0.28,0.91,0.525,1.281c0.245,0.371,0.567,0.668,0.966,0.892s0.893,0.337,1.48,0.337c0.504,0,0.956-0.078,1.354-0.232
		c0.399-0.153,0.725-0.328,0.977-0.524L151.532,93.77z"/>
	<path style="fill:#F2F2F2;" d="M153.815,84.739c0.532-0.322,1.151-0.56,1.858-0.714c0.707-0.153,1.445-0.231,2.215-0.231
		c0.728,0,1.313,0.099,1.753,0.295c0.441,0.195,0.777,0.451,1.008,0.766c0.231,0.315,0.385,0.662,0.462,1.04
		c0.077,0.378,0.115,0.756,0.115,1.134c0,0.84-0.021,1.659-0.063,2.457s-0.063,1.555-0.063,2.268c0,0.519,0.021,1.008,0.063,1.471
		c0.042,0.462,0.119,0.889,0.231,1.281h-1.239l-0.441-1.471h-0.105c-0.126,0.196-0.284,0.389-0.473,0.578
		c-0.189,0.188-0.417,0.356-0.683,0.504c-0.266,0.146-0.574,0.27-0.924,0.367c-0.35,0.098-0.749,0.146-1.197,0.146
		c-0.448,0-0.865-0.07-1.25-0.209c-0.385-0.141-0.718-0.34-0.998-0.6c-0.28-0.258-0.501-0.57-0.662-0.934
		c-0.161-0.364-0.242-0.777-0.242-1.239c0-0.616,0.126-1.13,0.378-1.544c0.252-0.412,0.605-0.742,1.061-0.986
		c0.455-0.245,1.001-0.42,1.638-0.525c0.637-0.105,1.34-0.157,2.11-0.157c0.196,0,0.389,0,0.578,0s0.381,0.015,0.578,0.042
		c0.042-0.42,0.063-0.799,0.063-1.135c0-0.77-0.154-1.309-0.462-1.616c-0.308-0.308-0.869-0.462-1.68-0.462
		c-0.238,0-0.494,0.018-0.767,0.054s-0.553,0.087-0.84,0.151c-0.287,0.064-0.56,0.145-0.819,0.238
		c-0.259,0.093-0.487,0.197-0.683,0.313L153.815,84.739z M156.797,93.161c0.392,0,0.742-0.053,1.05-0.158
		c0.308-0.105,0.574-0.238,0.798-0.398c0.224-0.161,0.41-0.34,0.557-0.536s0.255-0.385,0.326-0.567v-1.742
		c-0.196-0.014-0.396-0.025-0.599-0.031c-0.203-0.008-0.403-0.012-0.599-0.012c-0.434,0-0.857,0.025-1.271,0.074
		s-0.777,0.141-1.092,0.273s-0.567,0.314-0.756,0.545c-0.189,0.231-0.284,0.522-0.284,0.872c0,0.49,0.175,0.893,0.525,1.208
		C155.803,93.003,156.25,93.161,156.797,93.161z"/>
</g>
<g>
	<path style="fill:#FFFFFF;" d="M66.534,97.624c-6.519,0-13.156,0-19.676,0V81.859H10.707v-9.245l33.07-57.961h22.757v49.9h7.112
		c0,5.809,0,11.734,0,17.306h-7.112V97.624z M34.413,64.554h13.275V52.108l1.541-12.683h-0.237L34.413,64.554z"/>
</g>
</svg>
