<?xml version="1.0" encoding="UTF-8" standalone="no"?>
<!-- Generator: Adobe Illustrator 14.0.0, SVG Export Plug-In . SVG Version: 6.00 Build 43363)  -->

<svg
   xmlns:dc="http://purl.org/dc/elements/1.1/"
   xmlns:cc="http://creativecommons.org/ns#"
   xmlns:rdf="http://www.w3.org/1999/02/22-rdf-syntax-ns#"
   xmlns:svg="http://www.w3.org/2000/svg"
   xmlns="http://www.w3.org/2000/svg"
   xmlns:sodipodi="http://sodipodi.sourceforge.net/DTD/sodipodi-0.dtd"
   xmlns:inkscape="http://www.inkscape.org/namespaces/inkscape"
   version="1.1"
   id="Layer_1"
   x="0px"
   y="0px"
   width="512px"
   height="112px"
   viewBox="-41.64 476.945 512 112"
   enable-background="new -41.64 476.945 512 112"
   xml:space="preserve"
   inkscape:version="0.48.5 r10040"
   sodipodi:docname="slider-text-01.svg"><metadata
     id="metadata199"><rdf:RDF><cc:Work
         rdf:about=""><dc:format>image/svg+xml</dc:format><dc:type
           rdf:resource="http://purl.org/dc/dcmitype/StillImage" /></cc:Work></rdf:RDF></metadata><defs
     id="defs197" /><sodipodi:namedview
     pagecolor="#ffffff"
     bordercolor="#666666"
     borderopacity="1"
     objecttolerance="10"
     gridtolerance="10"
     guidetolerance="10"
     inkscape:pageopacity="0"
     inkscape:pageshadow="2"
     inkscape:window-width="1920"
     inkscape:window-height="1148"
     id="namedview195"
     showgrid="false"
     inkscape:zoom="1.8009126"
     inkscape:cx="426.53259"
     inkscape:cy="33.09568"
     inkscape:window-x="-4"
     inkscape:window-y="-3"
     inkscape:window-maximized="1"
     inkscape:current-layer="Layer_1" /><polygon
     style="fill:#e50647"
     id="polygon5"
     points="-41.64,511.645 469.506,511.645 469.727,555.705 -41.42,555.705 " /><polygon
     style="fill:#e50647"
     id="polygon7"
     points="-41.64,476.945 424.891,476.945 425.092,520.137 -41.44,520.137 " /><polygon
     style="fill:#e50647"
     id="polygon9"
     points="391.121,516.417 391.309,588.232 -41.454,588.232 -41.64,516.417 "
     transform="matrix(1.0192381,0,0,1,0.80107395,0)" /><g
     id="g11"><path
       style="fill:#ffffff"
       inkscape:connector-curvature="0"
       id="path13"
       d="m -12.962,508.536 v -17.188 h 31.885 v 65.666 h 12.563 v 17.307 H -14.03 v -17.307 h 12.327 v -48.478 h -11.259 z" /></g><g
     id="g15"><path
       style="fill:#ffffff"
       inkscape:connector-curvature="0"
       id="path17"
       d="m 60.403,499.105 v -1.54 h 0.352 c 0.132,0 0.293,0 0.484,0 0.19,0 0.385,-0.007 0.583,-0.022 0.198,-0.014 0.388,-0.025 0.572,-0.033 0.184,-0.008 0.333,-0.025 0.451,-0.055 0.381,-0.058 0.74,-0.157 1.078,-0.297 0.337,-0.139 0.63,-0.319 0.88,-0.539 0.249,-0.22 0.447,-0.477 0.594,-0.77 0.146,-0.293 0.22,-0.616 0.22,-0.968 0,-0.484 -0.081,-0.887 -0.242,-1.21 -0.161,-0.323 -0.385,-0.583 -0.671,-0.781 -0.286,-0.198 -0.616,-0.337 -0.99,-0.418 -0.374,-0.081 -0.774,-0.121 -1.199,-0.121 -0.792,0 -1.467,0.055 -2.024,0.165 -0.558,0.11 -1.005,0.246 -1.342,0.407 l -0.484,-1.452 c 0.293,-0.161 0.821,-0.326 1.584,-0.495 0.763,-0.168 1.621,-0.253 2.574,-0.253 0.586,0 1.162,0.063 1.727,0.187 0.564,0.125 1.07,0.33 1.518,0.616 0.447,0.286 0.806,0.675 1.078,1.166 0.272,0.491 0.407,1.096 0.407,1.815 0,0.733 -0.242,1.434 -0.726,2.101 -0.484,0.667 -1.21,1.147 -2.178,1.441 v 0.088 c 1.041,0.147 1.862,0.536 2.464,1.166 0.601,0.631 0.902,1.474 0.902,2.53 0,0.836 -0.165,1.559 -0.495,2.167 -0.33,0.609 -0.763,1.111 -1.298,1.507 -0.536,0.396 -1.151,0.686 -1.848,0.869 -0.697,0.184 -1.404,0.275 -2.123,0.275 -0.968,0 -1.764,-0.055 -2.387,-0.165 -0.624,-0.11 -1.141,-0.246 -1.551,-0.407 l 0.462,-1.628 c 0.337,0.155 0.81,0.29 1.419,0.402 0.608,0.113 1.345,0.17 2.211,0.17 0.455,0 0.902,-0.063 1.342,-0.187 0.44,-0.124 0.833,-0.315 1.177,-0.572 0.344,-0.256 0.623,-0.575 0.836,-0.957 0.212,-0.381 0.319,-0.836 0.319,-1.364 0,-0.924 -0.323,-1.603 -0.968,-2.035 -0.646,-0.433 -1.489,-0.686 -2.53,-0.759 -0.176,-0.015 -0.341,-0.026 -0.495,-0.033 -0.154,-0.007 -0.312,-0.011 -0.473,-0.011 h -1.21 z" /><path
       style="fill:#ffffff"
       inkscape:connector-curvature="0"
       id="path19"
       d="m 77.805,499.875 0.066,-1.364 h -0.066 l -0.902,1.408 -4.95,6.468 h -1.012 v -11 h 1.76 v 6.71 l -0.066,1.298 h 0.088 l 0.858,-1.364 4.95,-6.644 h 1.034 v 11 h -1.76 v -6.512 z" /><path
       style="fill:#ffffff"
       inkscape:connector-curvature="0"
       id="path21"
       d="m 92.038,499.853 0.132,-2.09 h -0.11 l -0.792,1.694 -2.662,4.312 H 87.99 l -2.772,-4.312 -0.726,-1.694 h -0.088 l 0.176,2.068 v 6.556 h -1.628 v -11 h 1.738 l 3.08,4.928 0.638,1.276 h 0.044 l 0.66,-1.32 2.882,-4.884 h 1.76 v 11 h -1.716 v -6.534 z" /><path
       style="fill:#ffffff"
       inkscape:connector-curvature="0"
       id="path23"
       d="m 103.874,501.525 h -4.972 v 4.862 h -1.76 v -11 h 1.76 v 4.598 h 4.972 v -4.598 h 1.76 v 11 h -1.76 v -4.862 z" /><path
       style="fill:#ffffff"
       inkscape:connector-curvature="0"
       id="path25"
       d="m 117.052,505.507 c -0.44,0.352 -0.994,0.631 -1.661,0.836 -0.667,0.205 -1.375,0.308 -2.123,0.308 -0.836,0 -1.562,-0.136 -2.178,-0.407 -0.616,-0.271 -1.122,-0.66 -1.518,-1.166 -0.396,-0.506 -0.69,-1.111 -0.88,-1.815 -0.19,-0.704 -0.286,-1.496 -0.286,-2.376 0,-1.877 0.418,-3.307 1.254,-4.29 0.836,-0.982 2.031,-1.474 3.586,-1.474 0.499,0 0.997,0.055 1.496,0.165 0.499,0.11 0.946,0.319 1.342,0.627 0.396,0.308 0.719,0.745 0.968,1.309 0.249,0.565 0.374,1.309 0.374,2.233 0,0.484 -0.044,1.02 -0.132,1.606 h -7.062 c 0,0.646 0.066,1.218 0.198,1.716 0.132,0.498 0.337,0.92 0.616,1.265 0.279,0.345 0.642,0.608 1.089,0.792 0.447,0.183 0.993,0.275 1.639,0.275 0.499,0 0.998,-0.088 1.496,-0.264 0.499,-0.176 0.873,-0.381 1.122,-0.616 l 0.66,1.276 z m -3.784,-8.844 c -0.866,0 -1.559,0.228 -2.079,0.682 -0.52,0.454 -0.833,1.232 -0.935,2.332 h 5.456 c 0,-1.114 -0.212,-1.896 -0.638,-2.343 -0.426,-0.447 -1.027,-0.671 -1.804,-0.671 z" /><path
       style="fill:#ffffff"
       inkscape:connector-curvature="0"
       id="path27"
       d="m 127.987,505.507 c -0.44,0.352 -0.994,0.631 -1.661,0.836 -0.667,0.205 -1.375,0.308 -2.123,0.308 -0.836,0 -1.562,-0.136 -2.178,-0.407 -0.616,-0.271 -1.122,-0.66 -1.518,-1.166 -0.396,-0.506 -0.69,-1.111 -0.88,-1.815 -0.19,-0.704 -0.286,-1.496 -0.286,-2.376 0,-1.877 0.418,-3.307 1.254,-4.29 0.836,-0.982 2.031,-1.474 3.586,-1.474 0.499,0 0.997,0.055 1.496,0.165 0.499,0.11 0.946,0.319 1.342,0.627 0.396,0.308 0.719,0.745 0.968,1.309 0.249,0.565 0.374,1.309 0.374,2.233 0,0.484 -0.044,1.02 -0.132,1.606 h -7.062 c 0,0.646 0.066,1.218 0.198,1.716 0.132,0.498 0.337,0.92 0.616,1.265 0.279,0.345 0.642,0.608 1.089,0.792 0.447,0.183 0.993,0.275 1.639,0.275 0.499,0 0.998,-0.088 1.496,-0.264 0.499,-0.176 0.873,-0.381 1.122,-0.616 l 0.66,1.276 z m -3.785,-8.844 c -0.866,0 -1.559,0.228 -2.079,0.682 -0.52,0.454 -0.833,1.232 -0.935,2.332 h 5.456 c 0,-1.114 -0.212,-1.896 -0.638,-2.343 -0.425,-0.447 -1.026,-0.671 -1.804,-0.671 z" /><path
       style="fill:#ffffff"
       inkscape:connector-curvature="0"
       id="path29"
       d="m 143.87,499.875 0.066,-1.364 h -0.066 l -0.902,1.408 -4.95,6.468 h -1.012 v -11 h 1.76 v 6.71 l -0.066,1.298 h 0.088 l 0.858,-1.364 4.95,-6.644 h 1.034 v 11 h -1.76 v -6.512 z" /><path
       style="fill:#ffffff"
       inkscape:connector-curvature="0"
       id="path31"
       d="m 154.892,495.409 c 0.513,-0.029 1.052,-0.066 1.617,-0.11 0.564,-0.044 1.265,-0.066 2.101,-0.066 1.452,0 2.493,0.224 3.124,0.671 0.63,0.447 0.946,1.125 0.946,2.035 0,0.514 -0.15,1.016 -0.451,1.507 -0.301,0.492 -0.795,0.854 -1.485,1.089 v 0.088 c 0.865,0.162 1.474,0.462 1.826,0.902 0.352,0.44 0.528,1.026 0.528,1.76 0,1.144 -0.411,1.973 -1.232,2.486 -0.821,0.514 -2.054,0.77 -3.696,0.77 -0.616,0 -1.188,-0.019 -1.716,-0.055 -0.528,-0.037 -1.049,-0.077 -1.562,-0.121 v -10.956 z m 3.916,4.62 c 0.264,0 0.521,-0.044 0.77,-0.132 0.25,-0.088 0.473,-0.209 0.671,-0.363 0.198,-0.154 0.359,-0.333 0.484,-0.539 0.125,-0.205 0.187,-0.425 0.187,-0.66 0,-0.587 -0.176,-0.994 -0.528,-1.221 -0.352,-0.227 -0.968,-0.341 -1.848,-0.341 -0.47,0 -0.84,0.007 -1.111,0.022 -0.271,0.015 -0.532,0.029 -0.781,0.044 v 3.19 h 2.156 z m -2.156,4.884 c 0.278,0.03 0.553,0.052 0.825,0.066 0.271,0.015 0.59,0.022 0.957,0.022 0.982,0 1.712,-0.139 2.189,-0.418 0.477,-0.278 0.715,-0.755 0.715,-1.43 0,-0.528 -0.202,-0.957 -0.605,-1.287 -0.404,-0.33 -1.119,-0.495 -2.145,-0.495 h -1.936 v 3.542 z" /><path
       style="fill:#ffffff"
       inkscape:connector-curvature="0"
       id="path33"
       d="m 173.899,505.507 c -0.439,0.352 -0.994,0.631 -1.661,0.836 -0.667,0.205 -1.375,0.308 -2.123,0.308 -0.836,0 -1.562,-0.136 -2.178,-0.407 -0.616,-0.271 -1.122,-0.66 -1.518,-1.166 -0.396,-0.506 -0.69,-1.111 -0.88,-1.815 -0.19,-0.704 -0.286,-1.496 -0.286,-2.376 0,-1.877 0.418,-3.307 1.254,-4.29 0.836,-0.982 2.031,-1.474 3.586,-1.474 0.499,0 0.997,0.055 1.496,0.165 0.499,0.11 0.946,0.319 1.342,0.627 0.396,0.308 0.719,0.745 0.968,1.309 0.25,0.565 0.375,1.309 0.375,2.233 0,0.484 -0.045,1.02 -0.133,1.606 h -7.062 c 0,0.646 0.066,1.218 0.198,1.716 0.132,0.498 0.337,0.92 0.616,1.265 0.279,0.345 0.642,0.608 1.089,0.792 0.447,0.183 0.993,0.275 1.639,0.275 0.499,0 0.998,-0.088 1.496,-0.264 0.499,-0.176 0.873,-0.381 1.122,-0.616 l 0.66,1.276 z m -3.784,-8.844 c -0.866,0 -1.559,0.228 -2.079,0.682 -0.52,0.454 -0.833,1.232 -0.935,2.332 h 5.456 c 0,-1.114 -0.212,-1.896 -0.638,-2.343 -0.425,-0.447 -1.026,-0.671 -1.804,-0.671 z" /><path
       style="fill:#ffffff"
       inkscape:connector-curvature="0"
       id="path35"
       d="m 184.305,505.661 c -0.439,0.323 -0.96,0.569 -1.562,0.737 -0.602,0.168 -1.231,0.253 -1.892,0.253 -0.852,0 -1.57,-0.136 -2.156,-0.407 -0.587,-0.271 -1.066,-0.66 -1.441,-1.166 -0.373,-0.506 -0.645,-1.114 -0.813,-1.826 -0.168,-0.712 -0.253,-1.5 -0.253,-2.365 0,-1.862 0.41,-3.289 1.232,-4.279 0.82,-0.99 2.002,-1.485 3.541,-1.485 0.705,0 1.302,0.055 1.793,0.165 0.492,0.11 0.936,0.268 1.332,0.473 l -0.506,1.518 c -0.338,-0.19 -0.713,-0.341 -1.123,-0.451 -0.41,-0.11 -0.851,-0.165 -1.32,-0.165 -2.082,0 -3.123,1.408 -3.123,4.224 0,0.558 0.055,1.089 0.164,1.595 0.111,0.506 0.294,0.953 0.551,1.342 0.256,0.389 0.594,0.701 1.012,0.935 0.418,0.235 0.936,0.352 1.551,0.352 0.528,0 1.002,-0.081 1.42,-0.242 0.418,-0.161 0.758,-0.344 1.022,-0.55 l 0.571,1.342 z" /><path
       style="fill:#ffffff"
       inkscape:connector-curvature="0"
       id="path37"
       d="m 194.25,505.507 c -0.44,0.352 -0.994,0.631 -1.661,0.836 -0.668,0.205 -1.375,0.308 -2.123,0.308 -0.836,0 -1.563,-0.136 -2.178,-0.407 -0.616,-0.271 -1.122,-0.66 -1.518,-1.166 -0.396,-0.506 -0.69,-1.111 -0.881,-1.815 -0.191,-0.704 -0.285,-1.496 -0.285,-2.376 0,-1.877 0.418,-3.307 1.254,-4.29 0.836,-0.982 2.031,-1.474 3.586,-1.474 0.498,0 0.996,0.055 1.496,0.165 0.498,0.11 0.945,0.319 1.342,0.627 0.396,0.308 0.719,0.745 0.968,1.309 0.249,0.565 0.374,1.309 0.374,2.233 0,0.484 -0.044,1.02 -0.133,1.606 h -7.062 c 0,0.646 0.066,1.218 0.198,1.716 0.132,0.498 0.338,0.92 0.615,1.265 0.279,0.345 0.643,0.608 1.09,0.792 0.447,0.183 0.993,0.275 1.639,0.275 0.498,0 0.998,-0.088 1.496,-0.264 0.498,-0.176 0.873,-0.381 1.122,-0.616 l 0.661,1.276 z m -3.784,-8.844 c -0.865,0 -1.559,0.228 -2.079,0.682 -0.52,0.454 -0.833,1.232 -0.935,2.332 h 5.455 c 0,-1.114 -0.212,-1.896 -0.637,-2.343 -0.426,-0.447 -1.027,-0.671 -1.804,-0.671 z" /><path
       style="fill:#ffffff"
       inkscape:connector-curvature="0"
       id="path39"
       d="m 204.128,501.525 h -4.973 v 4.862 h -1.76 v -11 h 1.76 v 4.598 h 4.973 v -4.598 h 1.76 v 11 h -1.76 v -4.862 z" /><path
       style="fill:#ffffff"
       inkscape:connector-curvature="0"
       id="path41"
       d="m 216.006,501.525 h -4.97 v 4.862 h -1.761 v -11 h 1.761 v 4.598 h 4.97 v -4.598 h 1.762 v 11 h -1.762 v -4.862 z" /><path
       style="fill:#ffffff"
       inkscape:connector-curvature="0"
       id="path43"
       d="m 229.186,505.507 c -0.441,0.352 -0.994,0.631 -1.662,0.836 -0.668,0.205 -1.375,0.308 -2.123,0.308 -0.836,0 -1.563,-0.136 -2.178,-0.407 -0.615,-0.271 -1.121,-0.66 -1.518,-1.166 -0.397,-0.506 -0.689,-1.111 -0.881,-1.815 -0.189,-0.704 -0.285,-1.496 -0.285,-2.376 0,-1.877 0.418,-3.307 1.254,-4.29 0.836,-0.982 2.031,-1.474 3.586,-1.474 0.498,0 0.996,0.055 1.496,0.165 0.498,0.11 0.945,0.319 1.342,0.627 0.396,0.308 0.719,0.745 0.969,1.309 0.248,0.565 0.373,1.309 0.373,2.233 0,0.484 -0.043,1.02 -0.133,1.606 h -7.061 c 0,0.646 0.066,1.218 0.197,1.716 0.133,0.499 0.338,0.92 0.615,1.265 0.279,0.345 0.643,0.608 1.09,0.792 0.447,0.183 0.994,0.275 1.639,0.275 0.498,0 0.998,-0.088 1.496,-0.264 0.498,-0.176 0.873,-0.381 1.123,-0.616 l 0.661,1.276 z m -3.785,-8.844 c -0.865,0 -1.559,0.228 -2.078,0.682 -0.521,0.455 -0.834,1.232 -0.936,2.332 h 5.455 c 0,-1.114 -0.211,-1.896 -0.637,-2.343 -0.425,-0.447 -1.027,-0.671 -1.804,-0.671 z" /><path
       style="fill:#ffffff"
       inkscape:connector-curvature="0"
       id="path45"
       d="m 240.119,505.507 c -0.439,0.352 -0.994,0.631 -1.66,0.836 -0.668,0.205 -1.375,0.308 -2.123,0.308 -0.836,0 -1.563,-0.136 -2.178,-0.407 -0.617,-0.271 -1.123,-0.66 -1.52,-1.166 -0.395,-0.506 -0.689,-1.111 -0.879,-1.815 -0.191,-0.704 -0.287,-1.496 -0.287,-2.376 0,-1.877 0.418,-3.307 1.254,-4.29 0.836,-0.982 2.031,-1.474 3.586,-1.474 0.5,0 0.998,0.055 1.496,0.165 0.5,0.11 0.947,0.319 1.342,0.627 0.396,0.308 0.719,0.745 0.969,1.309 0.25,0.565 0.375,1.309 0.375,2.233 0,0.484 -0.045,1.02 -0.133,1.606 h -7.063 c 0,0.646 0.066,1.218 0.199,1.716 0.131,0.499 0.336,0.92 0.615,1.265 0.279,0.345 0.641,0.608 1.09,0.792 0.447,0.183 0.992,0.275 1.639,0.275 0.498,0 0.996,-0.088 1.496,-0.264 0.498,-0.176 0.871,-0.381 1.121,-0.616 l 0.661,1.276 z m -3.783,-8.844 c -0.867,0 -1.559,0.228 -2.08,0.682 -0.52,0.455 -0.832,1.232 -0.936,2.332 h 5.457 c 0,-1.114 -0.213,-1.896 -0.639,-2.343 -0.425,-0.447 -1.024,-0.671 -1.802,-0.671 z" /><path
       style="fill:#ffffff"
       inkscape:connector-curvature="0"
       id="path47"
       d="m 249.139,506.387 v -11 h 1.76 v 9.46 h 3.762 v -9.46 h 1.76 v 9.46 h 3.764 v -9.46 h 1.76 v 11 h -12.806 z" /><path
       style="fill:#ffffff"
       inkscape:connector-curvature="0"
       id="path49"
       d="m 264.715,500.887 c 0,-1.862 0.414,-3.289 1.242,-4.279 0.828,-0.99 2.02,-1.485 3.576,-1.485 0.82,0 1.535,0.136 2.145,0.407 0.607,0.271 1.111,0.66 1.506,1.166 0.396,0.506 0.689,1.115 0.881,1.826 0.189,0.712 0.285,1.5 0.285,2.365 0,1.863 -0.414,3.289 -1.242,4.279 -0.828,0.99 -2.021,1.485 -3.574,1.485 -0.822,0 -1.537,-0.136 -2.146,-0.407 -0.607,-0.271 -1.111,-0.66 -1.506,-1.166 -0.396,-0.506 -0.689,-1.114 -0.881,-1.826 -0.192,-0.712 -0.286,-1.499 -0.286,-2.365 z m 1.826,0 c 0,0.558 0.055,1.093 0.164,1.606 0.109,0.514 0.283,0.961 0.518,1.342 0.235,0.381 0.543,0.689 0.924,0.924 0.381,0.235 0.844,0.352 1.387,0.352 1.994,0.015 2.99,-1.394 2.99,-4.224 0,-0.572 -0.055,-1.114 -0.164,-1.628 -0.109,-0.513 -0.283,-0.96 -0.518,-1.342 -0.234,-0.381 -0.543,-0.685 -0.924,-0.913 -0.381,-0.228 -0.844,-0.341 -1.385,-0.341 -1.996,-0.014 -2.992,1.394 -2.992,4.224 z" /><path
       style="fill:#ffffff"
       inkscape:connector-curvature="0"
       id="path51"
       d="m 280.102,502.515 0.619,2.112 h 0.109 l 0.486,-2.134 2.143,-7.106 h 1.76 l -3.256,9.878 c -0.25,0.719 -0.496,1.416 -0.738,2.09 -0.24,0.675 -0.51,1.276 -0.803,1.804 -0.293,0.528 -0.623,0.95 -0.99,1.265 -0.365,0.315 -0.791,0.473 -1.275,0.473 -0.527,0 -0.961,-0.073 -1.297,-0.22 l 0.307,-1.518 c 0.191,0.073 0.375,0.11 0.551,0.11 0.41,0 0.807,-0.216 1.188,-0.649 0.381,-0.433 0.697,-1.177 0.945,-2.233 l -4.422,-11 h 2.025 l 2.648,7.128 z" /><path
       style="fill:#ffffff"
       inkscape:connector-curvature="0"
       id="path53"
       d="m 291.576,500.887 c 0,-1.862 0.414,-3.289 1.244,-4.279 0.828,-0.99 2.02,-1.485 3.574,-1.485 0.82,0 1.537,0.136 2.145,0.407 0.609,0.271 1.111,0.66 1.508,1.166 0.397,0.506 0.689,1.115 0.879,1.826 0.191,0.712 0.287,1.5 0.287,2.365 0,1.863 -0.414,3.289 -1.244,4.279 -0.828,0.99 -2.02,1.485 -3.574,1.485 -0.822,0 -1.537,-0.136 -2.145,-0.407 -0.609,-0.271 -1.111,-0.66 -1.508,-1.166 -0.397,-0.506 -0.689,-1.114 -0.879,-1.826 -0.191,-0.711 -0.287,-1.499 -0.287,-2.365 z m 1.827,0 c 0,0.558 0.055,1.093 0.166,1.606 0.109,0.514 0.281,0.961 0.516,1.342 0.235,0.381 0.543,0.689 0.924,0.924 0.383,0.235 0.844,0.352 1.387,0.352 1.994,0.015 2.992,-1.394 2.992,-4.224 0,-0.572 -0.055,-1.114 -0.166,-1.628 -0.109,-0.513 -0.281,-0.96 -0.516,-1.342 -0.234,-0.381 -0.543,-0.685 -0.924,-0.913 -0.383,-0.228 -0.844,-0.341 -1.387,-0.341 -1.994,-0.014 -2.992,1.394 -2.992,4.224 z" /><path
       style="fill:#ffffff"
       inkscape:connector-curvature="0"
       id="path55"
       d="m 310.651,496.927 h -3.455 v 9.46 h -1.76 v -9.46 h -3.453 v -1.54 h 8.668 v 1.54 z" /><path
       style="fill:#ffffff"
       inkscape:connector-curvature="0"
       id="path57"
       d="m 320.824,502.515 0.617,2.112 h 0.111 l 0.486,-2.134 2.141,-7.106 h 1.76 l -3.256,9.878 c -0.248,0.719 -0.494,1.416 -0.736,2.09 -0.242,0.675 -0.51,1.276 -0.803,1.804 -0.293,0.528 -0.623,0.95 -0.99,1.265 -0.367,0.315 -0.793,0.473 -1.275,0.473 -0.529,0 -0.961,-0.073 -1.299,-0.22 l 0.309,-1.518 c 0.189,0.073 0.373,0.11 0.549,0.11 0.412,0 0.807,-0.216 1.189,-0.649 0.381,-0.433 0.695,-1.177 0.945,-2.233 l -4.422,-11 h 2.023 l 2.651,7.128 z" /><path
       style="fill:#ffffff"
       inkscape:connector-curvature="0"
       id="path59"
       d="m 328.977,495.387 v 2.992 c 0,0.396 0.021,0.751 0.066,1.067 0.043,0.315 0.131,0.587 0.264,0.814 0.131,0.228 0.322,0.403 0.572,0.528 0.248,0.125 0.578,0.187 0.99,0.187 0.658,0 1.201,-0.073 1.627,-0.22 0.426,-0.147 0.748,-0.308 0.969,-0.484 v -4.884 h 1.76 v 11 h -1.76 v -4.62 c -0.236,0.147 -0.584,0.308 -1.045,0.484 -0.463,0.176 -1.098,0.264 -1.904,0.264 -0.543,0 -1.02,-0.059 -1.43,-0.176 -0.41,-0.117 -0.756,-0.323 -1.033,-0.616 -0.279,-0.293 -0.488,-0.682 -0.627,-1.166 -0.141,-0.484 -0.209,-1.092 -0.209,-1.826 v -3.344 h 1.76 z" /><path
       style="fill:#ffffff"
       inkscape:connector-curvature="0"
       id="path61"
       d="m 346.643,505.507 c -0.439,0.352 -0.994,0.631 -1.66,0.836 -0.668,0.205 -1.375,0.308 -2.123,0.308 -0.838,0 -1.563,-0.136 -2.18,-0.407 -0.615,-0.271 -1.121,-0.66 -1.518,-1.166 -0.397,-0.506 -0.689,-1.111 -0.879,-1.815 -0.191,-0.704 -0.287,-1.496 -0.287,-2.376 0,-1.877 0.418,-3.307 1.254,-4.29 0.836,-0.982 2.031,-1.474 3.586,-1.474 0.498,0 0.998,0.055 1.496,0.165 0.498,0.11 0.947,0.319 1.342,0.627 0.396,0.308 0.719,0.745 0.969,1.309 0.25,0.565 0.373,1.309 0.373,2.233 0,0.484 -0.043,1.02 -0.131,1.606 h -7.063 c 0,0.646 0.066,1.218 0.197,1.716 0.133,0.499 0.338,0.92 0.617,1.265 0.277,0.345 0.641,0.608 1.088,0.792 0.447,0.183 0.994,0.275 1.641,0.275 0.498,0 0.996,-0.088 1.496,-0.264 0.498,-0.176 0.871,-0.381 1.121,-0.616 l 0.661,1.276 z m -3.783,-8.844 c -0.867,0 -1.559,0.228 -2.08,0.682 -0.521,0.454 -0.832,1.232 -0.936,2.332 h 5.457 c 0,-1.114 -0.213,-1.896 -0.639,-2.343 -0.425,-0.447 -1.027,-0.671 -1.802,-0.671 z" /><path
       style="fill:#ffffff"
       inkscape:connector-curvature="0"
       id="path63"
       d="m 356.52,501.525 h -4.971 v 4.862 h -1.76 v -11 h 1.76 v 4.598 h 4.971 v -4.598 h 1.76 v 11 h -1.76 v -4.862 z" /><path
       style="fill:#ffffff"
       inkscape:connector-curvature="0"
       id="path65"
       d="m 368.531,499.875 0.066,-1.364 h -0.066 l -0.9,1.408 -4.951,6.468 h -1.012 v -11 h 1.76 v 6.71 l -0.066,1.298 h 0.088 l 0.859,-1.364 4.949,-6.644 h 1.035 v 11 h -1.762 v -6.512 z" /><path
       style="fill:#ffffff"
       inkscape:connector-curvature="0"
       id="path67"
       d="m 376.451,501.437 h -1.012 v 4.95 h -1.76 v -11 h 1.76 v 4.972 l 0.947,-0.308 3.52,-4.664 h 1.914 l -3.41,4.422 -0.924,0.726 1.143,0.88 3.676,4.972 h -2.18 l -3.674,-4.95 z" /><path
       style="fill:#ffffff"
       inkscape:connector-curvature="0"
       id="path69"
       d="m 383.338,500.887 c 0,-1.862 0.414,-3.289 1.244,-4.279 0.828,-0.99 2.02,-1.485 3.574,-1.485 0.82,0 1.537,0.136 2.145,0.407 0.609,0.271 1.111,0.66 1.508,1.166 0.397,0.506 0.689,1.115 0.879,1.826 0.191,0.712 0.287,1.5 0.287,2.365 0,1.863 -0.414,3.289 -1.244,4.279 -0.828,0.99 -2.02,1.485 -3.574,1.485 -0.822,0 -1.537,-0.136 -2.145,-0.407 -0.609,-0.271 -1.111,-0.66 -1.508,-1.166 -0.397,-0.506 -0.689,-1.114 -0.879,-1.826 -0.191,-0.711 -0.287,-1.499 -0.287,-2.365 z m 1.826,0 c 0,0.558 0.055,1.093 0.166,1.606 0.109,0.514 0.281,0.961 0.516,1.342 0.235,0.381 0.543,0.689 0.924,0.924 0.383,0.235 0.844,0.352 1.387,0.352 1.994,0.015 2.992,-1.394 2.992,-4.224 0,-0.572 -0.055,-1.114 -0.166,-1.628 -0.109,-0.513 -0.281,-0.96 -0.516,-1.342 -0.234,-0.381 -0.543,-0.685 -0.924,-0.913 -0.383,-0.228 -0.844,-0.341 -1.387,-0.341 -1.994,-0.014 -2.992,1.394 -2.992,4.224 z" /><path
       style="fill:#ffffff"
       inkscape:connector-curvature="0"
       id="path71"
       d="m 395.746,495.409 c 0.512,-0.029 1.051,-0.066 1.615,-0.11 0.564,-0.044 1.266,-0.066 2.102,-0.066 1.453,0 2.494,0.224 3.125,0.671 0.629,0.447 0.945,1.125 0.945,2.035 0,0.514 -0.15,1.016 -0.451,1.507 -0.301,0.492 -0.795,0.854 -1.484,1.089 v 0.088 c 0.865,0.162 1.473,0.462 1.826,0.902 0.352,0.44 0.527,1.026 0.527,1.76 0,1.144 -0.41,1.973 -1.232,2.486 -0.82,0.514 -2.053,0.77 -3.695,0.77 -0.615,0 -1.188,-0.019 -1.717,-0.055 -0.527,-0.037 -1.049,-0.077 -1.561,-0.121 v -10.956 z m 3.916,4.62 c 0.264,0 0.52,-0.044 0.77,-0.132 0.248,-0.088 0.473,-0.209 0.67,-0.363 0.199,-0.154 0.359,-0.333 0.484,-0.539 0.125,-0.205 0.188,-0.425 0.188,-0.66 0,-0.587 -0.176,-0.994 -0.527,-1.221 -0.354,-0.227 -0.969,-0.341 -1.85,-0.341 -0.469,0 -0.84,0.007 -1.109,0.022 -0.271,0.015 -0.533,0.029 -0.781,0.044 v 3.19 h 2.155 z m -2.156,4.884 c 0.277,0.03 0.553,0.052 0.824,0.066 0.271,0.015 0.59,0.022 0.957,0.022 0.982,0 1.713,-0.139 2.189,-0.418 0.477,-0.278 0.715,-0.755 0.715,-1.43 0,-0.528 -0.201,-0.957 -0.605,-1.287 -0.402,-0.33 -1.119,-0.495 -2.145,-0.495 h -1.936 v 3.542 z" /><path
       style="fill:#ffffff"
       inkscape:connector-curvature="0"
       id="path73"
       d="m 406.108,505.441 c 0,-0.352 0.117,-0.638 0.352,-0.858 0.234,-0.22 0.535,-0.33 0.902,-0.33 0.455,0 0.826,0.161 1.111,0.484 0.285,0.323 0.43,0.792 0.43,1.408 0,0.528 -0.074,0.99 -0.221,1.386 -0.147,0.396 -0.338,0.737 -0.572,1.023 -0.234,0.286 -0.49,0.521 -0.77,0.704 -0.279,0.183 -0.559,0.319 -0.836,0.407 l -0.551,-0.858 c 0.529,-0.206 0.92,-0.524 1.178,-0.957 0.256,-0.433 0.385,-0.869 0.385,-1.309 -0.133,0.044 -0.256,0.066 -0.373,0.066 -0.295,0 -0.539,-0.099 -0.738,-0.297 -0.198,-0.198 -0.297,-0.487 -0.297,-0.869 z" /><path
       style="fill:#ffffff"
       inkscape:connector-curvature="0"
       id="path75"
       d="m 58.863,529.201 c 0.557,-0.337 1.206,-0.586 1.947,-0.748 0.741,-0.161 1.514,-0.242 2.321,-0.242 0.762,0 1.375,0.103 1.837,0.308 0.462,0.206 0.814,0.473 1.056,0.803 0.242,0.33 0.403,0.693 0.484,1.089 0.081,0.396 0.121,0.792 0.121,1.188 0,0.88 -0.022,1.738 -0.066,2.575 -0.044,0.836 -0.066,1.627 -0.066,2.375 0,0.543 0.022,1.057 0.066,1.541 0.044,0.484 0.125,0.932 0.242,1.342 h -1.298 l -0.462,-1.541 h -0.11 c -0.132,0.207 -0.297,0.408 -0.495,0.605 -0.198,0.199 -0.437,0.375 -0.715,0.529 -0.279,0.152 -0.602,0.281 -0.968,0.385 -0.367,0.102 -0.785,0.152 -1.254,0.152 -0.47,0 -0.906,-0.072 -1.309,-0.219 -0.404,-0.146 -0.752,-0.355 -1.045,-0.627 -0.294,-0.271 -0.525,-0.598 -0.693,-0.979 -0.168,-0.383 -0.253,-0.814 -0.253,-1.299 0,-0.645 0.132,-1.184 0.396,-1.617 0.264,-0.432 0.634,-0.777 1.111,-1.033 0.476,-0.258 1.048,-0.441 1.716,-0.551 0.667,-0.109 1.404,-0.164 2.211,-0.164 0.205,0 0.407,0 0.605,0 0.198,0 0.399,0.014 0.605,0.043 0.044,-0.439 0.066,-0.836 0.066,-1.188 0,-0.807 -0.162,-1.371 -0.484,-1.694 -0.323,-0.323 -0.91,-0.484 -1.76,-0.484 -0.25,0 -0.517,0.019 -0.803,0.057 -0.286,0.038 -0.58,0.09 -0.88,0.158 -0.301,0.068 -0.587,0.151 -0.858,0.249 -0.272,0.098 -0.51,0.207 -0.715,0.327 l -0.55,-1.34 z m 3.124,8.822 c 0.41,0 0.777,-0.055 1.1,-0.164 0.322,-0.111 0.601,-0.25 0.836,-0.418 0.234,-0.17 0.429,-0.355 0.583,-0.563 0.154,-0.205 0.267,-0.402 0.341,-0.594 v -1.826 c -0.206,-0.014 -0.415,-0.025 -0.627,-0.033 -0.213,-0.006 -0.422,-0.01 -0.627,-0.01 -0.455,0 -0.898,0.025 -1.331,0.076 -0.433,0.053 -0.814,0.146 -1.144,0.287 -0.33,0.139 -0.594,0.33 -0.792,0.57 -0.198,0.242 -0.297,0.547 -0.297,0.914 0,0.514 0.183,0.936 0.55,1.266 0.367,0.33 0.836,0.495 1.408,0.495 z" /><path
       style="fill:#ffffff"
       inkscape:connector-curvature="0"
       id="path77"
       d="m 82.337,529.927 h -3.454 v 9.459 h -1.76 v -9.459 h -3.454 v -1.54 h 8.668 v 1.54 z" /><path
       style="fill:#ffffff"
       inkscape:connector-curvature="0"
       id="path79"
       d="m 83.899,529.201 c 0.557,-0.337 1.206,-0.586 1.947,-0.748 0.741,-0.161 1.514,-0.242 2.321,-0.242 0.762,0 1.375,0.103 1.837,0.308 0.462,0.206 0.814,0.473 1.056,0.803 0.242,0.33 0.403,0.693 0.484,1.089 0.081,0.396 0.121,0.792 0.121,1.188 0,0.88 -0.022,1.738 -0.066,2.575 -0.044,0.836 -0.066,1.627 -0.066,2.375 0,0.543 0.022,1.057 0.066,1.541 0.044,0.484 0.125,0.932 0.242,1.342 h -1.298 l -0.462,-1.541 h -0.11 c -0.132,0.207 -0.297,0.408 -0.495,0.605 -0.198,0.199 -0.437,0.375 -0.715,0.529 -0.279,0.152 -0.602,0.281 -0.968,0.385 -0.367,0.102 -0.785,0.152 -1.254,0.152 -0.47,0 -0.906,-0.072 -1.309,-0.219 -0.404,-0.146 -0.752,-0.355 -1.045,-0.627 -0.294,-0.271 -0.525,-0.598 -0.693,-0.979 -0.168,-0.383 -0.253,-0.814 -0.253,-1.299 0,-0.645 0.132,-1.184 0.396,-1.617 0.264,-0.432 0.634,-0.777 1.111,-1.033 0.476,-0.258 1.048,-0.441 1.716,-0.551 0.667,-0.109 1.404,-0.164 2.211,-0.164 0.205,0 0.407,0 0.605,0 0.198,0 0.399,0.014 0.605,0.043 0.044,-0.439 0.066,-0.836 0.066,-1.188 0,-0.807 -0.162,-1.371 -0.484,-1.694 -0.323,-0.323 -0.91,-0.484 -1.76,-0.484 -0.25,0 -0.517,0.019 -0.803,0.057 -0.286,0.038 -0.58,0.09 -0.88,0.158 -0.301,0.068 -0.587,0.151 -0.858,0.249 -0.272,0.098 -0.51,0.207 -0.715,0.327 l -0.55,-1.34 z m 3.124,8.822 c 0.41,0 0.777,-0.055 1.1,-0.164 0.322,-0.111 0.601,-0.25 0.836,-0.418 0.234,-0.17 0.429,-0.355 0.583,-0.563 0.154,-0.205 0.267,-0.402 0.341,-0.594 v -1.826 c -0.206,-0.014 -0.415,-0.025 -0.627,-0.033 -0.213,-0.006 -0.422,-0.01 -0.627,-0.01 -0.455,0 -0.898,0.025 -1.331,0.076 -0.433,0.053 -0.814,0.146 -1.144,0.287 -0.33,0.139 -0.594,0.33 -0.792,0.57 -0.198,0.242 -0.297,0.547 -0.297,0.914 0,0.514 0.183,0.936 0.55,1.266 0.367,0.33 0.835,0.495 1.408,0.495 z" /><path
       style="fill:#ffffff"
       inkscape:connector-curvature="0"
       id="path81"
       d="m 97.758,534.438 h -1.012 v 4.949 h -1.76 v -11 h 1.76 v 4.972 l 0.946,-0.308 3.52,-4.664 h 1.914 l -3.41,4.422 -0.924,0.726 1.144,0.881 3.674,4.971 h -2.178 l -3.674,-4.949 z" /><path
       style="fill:#ffffff"
       inkscape:connector-curvature="0"
       id="path83"
       d="m 109.088,534.525 -3.234,4.861 h -2.024 l 3.476,-5.037 0.748,-0.66 -1.122,-0.836 -2.86,-4.466 h 1.87 l 3.036,4.752 h 1.144 v -4.752 h 1.716 v 4.972 l 1.034,-0.308 3.058,-4.664 h 1.848 l -2.992,4.466 -0.858,0.704 1.122,0.881 3.256,4.949 h -2.09 l -3.234,-4.949 h -1.144 v 4.949 h -1.716 v -5.17 l -1.034,0.308 z" /><path
       style="fill:#ffffff"
       inkscape:connector-curvature="0"
       id="path85"
       d="m 127.877,538.508 c -0.44,0.352 -0.994,0.631 -1.661,0.836 -0.667,0.205 -1.375,0.309 -2.123,0.309 -0.836,0 -1.562,-0.137 -2.178,-0.408 -0.616,-0.271 -1.122,-0.66 -1.518,-1.166 -0.396,-0.506 -0.69,-1.111 -0.88,-1.814 -0.19,-0.705 -0.286,-1.496 -0.286,-2.377 0,-1.877 0.418,-3.307 1.254,-4.29 0.836,-0.983 2.031,-1.474 3.586,-1.474 0.499,0 0.997,0.055 1.496,0.165 0.499,0.11 0.946,0.319 1.342,0.627 0.396,0.308 0.719,0.745 0.968,1.309 0.249,0.564 0.374,1.309 0.374,2.232 0,0.484 -0.044,1.02 -0.132,1.606 h -7.062 c 0,0.646 0.066,1.219 0.198,1.717 0.132,0.498 0.337,0.92 0.616,1.266 0.279,0.344 0.642,0.607 1.089,0.791 0.447,0.184 0.993,0.275 1.639,0.275 0.499,0 0.998,-0.088 1.496,-0.264 0.498,-0.176 0.873,-0.381 1.122,-0.615 l 0.66,1.275 z m -3.784,-8.845 c -0.866,0 -1.559,0.228 -2.079,0.682 -0.521,0.455 -0.833,1.232 -0.935,2.332 h 5.456 c 0,-1.114 -0.212,-1.896 -0.638,-2.343 -0.426,-0.447 -1.027,-0.671 -1.804,-0.671 z" /><path
       style="fill:#ffffff"
       inkscape:connector-curvature="0"
       id="path87"
       d="m 136.72,529.201 c 0.557,-0.337 1.206,-0.586 1.947,-0.748 0.741,-0.161 1.514,-0.242 2.321,-0.242 0.762,0 1.375,0.103 1.837,0.308 0.462,0.206 0.814,0.473 1.056,0.803 0.242,0.33 0.403,0.693 0.484,1.089 0.081,0.396 0.121,0.792 0.121,1.188 0,0.88 -0.022,1.738 -0.066,2.575 -0.044,0.836 -0.066,1.627 -0.066,2.375 0,0.543 0.022,1.057 0.066,1.541 0.044,0.484 0.125,0.932 0.242,1.342 h -1.298 l -0.462,-1.541 h -0.11 c -0.132,0.207 -0.297,0.408 -0.495,0.605 -0.198,0.199 -0.437,0.375 -0.715,0.529 -0.279,0.152 -0.602,0.281 -0.968,0.385 -0.367,0.102 -0.785,0.152 -1.254,0.152 -0.47,0 -0.906,-0.072 -1.309,-0.219 -0.404,-0.146 -0.752,-0.355 -1.045,-0.627 -0.294,-0.271 -0.525,-0.598 -0.693,-0.979 -0.168,-0.383 -0.253,-0.814 -0.253,-1.299 0,-0.645 0.132,-1.184 0.396,-1.617 0.264,-0.432 0.634,-0.777 1.111,-1.033 0.476,-0.258 1.048,-0.441 1.716,-0.551 0.667,-0.109 1.404,-0.164 2.211,-0.164 0.205,0 0.407,0 0.605,0 0.198,0 0.399,0.014 0.605,0.043 0.044,-0.439 0.066,-0.836 0.066,-1.188 0,-0.807 -0.162,-1.371 -0.484,-1.694 -0.323,-0.323 -0.91,-0.484 -1.76,-0.484 -0.25,0 -0.517,0.019 -0.803,0.057 -0.286,0.038 -0.58,0.09 -0.88,0.158 -0.301,0.068 -0.587,0.151 -0.858,0.249 -0.272,0.098 -0.51,0.207 -0.715,0.327 l -0.55,-1.34 z m 3.124,8.822 c 0.41,0 0.777,-0.055 1.1,-0.164 0.322,-0.111 0.601,-0.25 0.836,-0.418 0.234,-0.17 0.429,-0.355 0.583,-0.563 0.154,-0.205 0.267,-0.402 0.341,-0.594 v -1.826 c -0.206,-0.014 -0.415,-0.025 -0.627,-0.033 -0.213,-0.006 -0.422,-0.01 -0.627,-0.01 -0.455,0 -0.898,0.025 -1.331,0.076 -0.433,0.053 -0.814,0.146 -1.144,0.287 -0.33,0.139 -0.594,0.33 -0.792,0.57 -0.198,0.242 -0.297,0.547 -0.297,0.914 0,0.514 0.183,0.936 0.55,1.266 0.367,0.33 0.836,0.495 1.408,0.495 z" /><path
       style="fill:#ffffff"
       inkscape:connector-curvature="0"
       id="path89"
       d="m 154.826,529.927 h -3.454 v 9.459 h -1.76 v -9.459 h -3.454 v -1.54 h 8.668 v 1.54 z" /><path
       style="fill:#ffffff"
       inkscape:connector-curvature="0"
       id="path91"
       d="m 164.462,529.927 h -3.454 v 9.459 h -1.76 v -9.459 h -3.454 v -1.54 h 8.668 v 1.54 z" /><path
       style="fill:#ffffff"
       inkscape:connector-curvature="0"
       id="path93"
       d="m 173.878,538.508 c -0.439,0.352 -0.994,0.631 -1.661,0.836 -0.667,0.205 -1.375,0.309 -2.123,0.309 -0.836,0 -1.562,-0.137 -2.178,-0.408 -0.616,-0.271 -1.122,-0.66 -1.518,-1.166 -0.396,-0.506 -0.69,-1.111 -0.88,-1.814 -0.19,-0.705 -0.286,-1.496 -0.286,-2.377 0,-1.877 0.418,-3.307 1.254,-4.29 0.836,-0.983 2.031,-1.474 3.586,-1.474 0.499,0 0.997,0.055 1.496,0.165 0.499,0.11 0.946,0.319 1.342,0.627 0.396,0.308 0.719,0.745 0.968,1.309 0.25,0.564 0.375,1.309 0.375,2.232 0,0.484 -0.045,1.02 -0.133,1.606 h -7.062 c 0,0.646 0.066,1.219 0.198,1.717 0.132,0.498 0.337,0.92 0.616,1.266 0.279,0.344 0.642,0.607 1.089,0.791 0.447,0.184 0.993,0.275 1.639,0.275 0.499,0 0.998,-0.088 1.496,-0.264 0.498,-0.176 0.873,-0.381 1.122,-0.615 l 0.66,1.275 z m -3.784,-8.845 c -0.866,0 -1.559,0.228 -2.079,0.682 -0.521,0.455 -0.833,1.232 -0.935,2.332 h 5.456 c 0,-1.114 -0.212,-1.896 -0.638,-2.343 -0.426,-0.447 -1.027,-0.671 -1.804,-0.671 z" /><path
       style="fill:#ffffff"
       inkscape:connector-curvature="0"
       id="path95"
       d="m 184.284,538.662 c -0.439,0.322 -0.961,0.568 -1.563,0.736 -0.602,0.168 -1.231,0.254 -1.891,0.254 -0.852,0 -1.57,-0.137 -2.156,-0.408 -0.588,-0.271 -1.067,-0.66 -1.441,-1.166 -0.374,-0.506 -0.646,-1.113 -0.814,-1.826 -0.168,-0.711 -0.252,-1.498 -0.252,-2.365 0,-1.862 0.41,-3.289 1.231,-4.278 0.821,-0.99 2.002,-1.485 3.542,-1.485 0.704,0 1.301,0.055 1.793,0.165 0.491,0.11 0.936,0.268 1.331,0.473 l -0.506,1.518 c -0.338,-0.19 -0.712,-0.341 -1.122,-0.451 -0.411,-0.11 -0.852,-0.165 -1.32,-0.165 -2.082,0 -3.124,1.409 -3.124,4.224 0,0.559 0.056,1.09 0.165,1.596 0.11,0.506 0.293,0.953 0.551,1.342 0.256,0.389 0.594,0.701 1.012,0.936 0.418,0.235 0.935,0.352 1.551,0.352 0.527,0 1.001,-0.08 1.419,-0.242 0.418,-0.16 0.759,-0.344 1.022,-0.549 l 0.572,1.339 z" /><path
       style="fill:#ffffff"
       inkscape:connector-curvature="0"
       id="path97"
       d="m 193.37,529.927 h -3.454 v 9.459 h -1.76 v -9.459 h -3.454 v -1.54 h 8.668 v 1.54 z" /><path
       style="fill:#ffffff"
       inkscape:connector-curvature="0"
       id="path99"
       d="m 194.932,529.201 c 0.557,-0.337 1.205,-0.586 1.946,-0.748 0.741,-0.161 1.515,-0.242 2.321,-0.242 0.762,0 1.375,0.103 1.837,0.308 0.462,0.206 0.813,0.473 1.056,0.803 0.243,0.33 0.403,0.693 0.484,1.089 0.08,0.396 0.121,0.792 0.121,1.188 0,0.88 -0.021,1.738 -0.066,2.575 -0.044,0.836 -0.066,1.627 -0.066,2.375 0,0.543 0.022,1.057 0.066,1.541 0.045,0.484 0.125,0.932 0.242,1.342 h -1.298 l -0.462,-1.541 h -0.11 c -0.132,0.207 -0.297,0.408 -0.495,0.605 -0.197,0.199 -0.437,0.375 -0.715,0.529 -0.279,0.152 -0.602,0.281 -0.968,0.385 -0.366,0.102 -0.784,0.152 -1.254,0.152 -0.47,0 -0.905,-0.072 -1.31,-0.219 -0.403,-0.146 -0.752,-0.355 -1.045,-0.627 -0.293,-0.272 -0.524,-0.598 -0.693,-0.979 -0.168,-0.383 -0.252,-0.814 -0.252,-1.299 0,-0.645 0.132,-1.184 0.396,-1.617 0.265,-0.432 0.634,-0.777 1.111,-1.033 0.476,-0.258 1.048,-0.441 1.716,-0.551 0.667,-0.109 1.404,-0.164 2.211,-0.164 0.205,0 0.407,0 0.605,0 0.197,0 0.398,0.014 0.604,0.043 0.044,-0.439 0.065,-0.836 0.065,-1.188 0,-0.807 -0.161,-1.371 -0.483,-1.694 -0.323,-0.323 -0.909,-0.484 -1.76,-0.484 -0.25,0 -0.517,0.019 -0.804,0.057 -0.285,0.038 -0.579,0.09 -0.879,0.158 -0.301,0.068 -0.588,0.151 -0.858,0.249 -0.272,0.098 -0.51,0.207 -0.716,0.327 l -0.547,-1.34 z m 3.123,8.822 c 0.41,0 0.777,-0.055 1.101,-0.164 0.322,-0.111 0.601,-0.25 0.836,-0.418 0.234,-0.17 0.429,-0.355 0.583,-0.563 0.154,-0.205 0.268,-0.402 0.341,-0.594 v -1.826 c -0.206,-0.014 -0.415,-0.025 -0.627,-0.033 -0.213,-0.006 -0.422,-0.01 -0.627,-0.01 -0.454,0 -0.898,0.025 -1.331,0.076 -0.433,0.053 -0.814,0.146 -1.145,0.287 -0.33,0.139 -0.594,0.33 -0.791,0.57 -0.198,0.242 -0.297,0.547 -0.297,0.914 0,0.514 0.183,0.936 0.549,1.266 0.367,0.331 0.836,0.495 1.408,0.495 z" /><path
       style="fill:#ffffff"
       inkscape:connector-curvature="0"
       id="path101"
       d="m 215.897,542.182 h -1.187 l -0.33,-2.795 h -8.36 v -11 h 1.761 v 9.46 h 4.773 v -9.46 h 1.76 v 9.46 h 1.583 v 4.335 z" /><path
       style="fill:#ffffff"
       inkscape:connector-curvature="0"
       id="path103"
       d="m 224.94,532.875 0.066,-1.363 h -0.066 l -0.902,1.408 -4.949,6.467 h -1.014 v -11 h 1.762 v 6.71 l -0.066,1.297 h 0.088 l 0.857,-1.363 4.951,-6.644 h 1.033 v 11 h -1.76 v -6.512 z" /><path
       style="fill:#ffffff"
       inkscape:connector-curvature="0"
       id="path105"
       d="m 235.565,534.834 -1.693,0.264 -2.904,4.289 h -2.135 l 2.641,-3.762 0.881,-0.814 c -0.764,-0.117 -1.412,-0.424 -1.947,-0.924 -0.535,-0.499 -0.803,-1.172 -0.803,-2.024 0,-0.66 0.113,-1.225 0.34,-1.693 0.229,-0.469 0.555,-0.858 0.979,-1.166 0.426,-0.308 0.932,-0.532 1.52,-0.671 0.586,-0.139 1.246,-0.209 1.979,-0.209 0.543,0 1.049,0.037 1.52,0.11 0.469,0.073 0.93,0.154 1.385,0.242 v 10.912 h -1.76 v -4.554 z m 0,-4.951 c -0.189,-0.073 -0.402,-0.128 -0.637,-0.165 -0.236,-0.037 -0.441,-0.055 -0.617,-0.055 -0.939,0 -1.654,0.169 -2.145,0.506 -0.492,0.338 -0.736,0.873 -0.736,1.605 0,0.66 0.26,1.17 0.779,1.529 0.521,0.36 1.207,0.54 2.059,0.54 0.014,0 0.035,0 0.064,0 0.029,0 0.088,0 0.178,0 0.088,0 0.211,-0.004 0.373,-0.012 0.162,-0.006 0.389,-0.018 0.682,-0.033 v -3.915 z" /><path
       style="fill:#ffffff"
       inkscape:connector-curvature="0"
       id="path107"
       d="m 249.182,534.438 h -1.012 v 4.949 h -1.76 v -11 h 1.76 v 4.972 l 0.947,-0.308 3.52,-4.664 h 1.914 l -3.41,4.422 -0.924,0.726 1.143,0.881 3.676,4.971 h -2.18 l -3.674,-4.949 z" /><path
       style="fill:#ffffff"
       inkscape:connector-curvature="0"
       id="path109"
       d="m 260.17,535.516 0.617,2.111 h 0.111 l 0.486,-2.133 2.141,-7.107 h 1.76 l -3.256,9.878 c -0.248,0.719 -0.494,1.416 -0.736,2.09 -0.242,0.674 -0.51,1.275 -0.803,1.805 -0.293,0.527 -0.623,0.949 -0.99,1.264 -0.367,0.316 -0.793,0.473 -1.275,0.473 -0.529,0 -0.961,-0.072 -1.299,-0.219 l 0.309,-1.518 c 0.189,0.072 0.373,0.109 0.549,0.109 0.412,0 0.807,-0.217 1.189,-0.648 0.381,-0.434 0.695,-1.178 0.945,-2.234 l -4.422,-11 h 2.023 l 2.651,7.129 z" /><path
       style="fill:#ffffff"
       inkscape:connector-curvature="0"
       id="path111"
       d="m 267.178,528.387 h 1.211 l 0.33,1.32 h 0.088 c 0.336,-0.513 0.773,-0.905 1.309,-1.177 0.536,-0.272 1.146,-0.407 1.836,-0.407 1.467,0 2.561,0.433 3.279,1.298 0.718,0.865 1.078,2.281 1.078,4.247 0,0.924 -0.121,1.756 -0.363,2.496 -0.242,0.74 -0.584,1.369 -1.023,1.881 -0.439,0.514 -0.973,0.91 -1.596,1.189 -0.623,0.277 -1.316,0.418 -2.078,0.418 -0.543,0 -0.973,-0.033 -1.287,-0.1 -0.316,-0.066 -0.656,-0.18 -1.023,-0.342 v 4.576 h -1.76 v -15.399 z m 4.443,1.276 c -0.748,0 -1.338,0.195 -1.77,0.583 -0.434,0.388 -0.738,0.979 -0.914,1.771 v 5.456 c 0.264,0.207 0.564,0.363 0.902,0.475 0.338,0.109 0.785,0.164 1.342,0.164 1.012,0 1.814,-0.377 2.41,-1.133 0.594,-0.756 0.891,-1.867 0.891,-3.334 0,-0.6 -0.053,-1.147 -0.154,-1.638 -0.104,-0.491 -0.268,-0.909 -0.496,-1.254 -0.227,-0.345 -0.52,-0.612 -0.879,-0.803 -0.359,-0.191 -0.802,-0.287 -1.332,-0.287 z" /><path
       style="fill:#ffffff"
       inkscape:connector-curvature="0"
       id="path113"
       d="m 278.903,529.201 c 0.559,-0.337 1.207,-0.586 1.947,-0.748 0.74,-0.161 1.516,-0.242 2.322,-0.242 0.762,0 1.375,0.103 1.836,0.308 0.463,0.206 0.814,0.473 1.057,0.803 0.243,0.33 0.402,0.693 0.484,1.089 0.08,0.396 0.121,0.792 0.121,1.188 0,0.88 -0.023,1.738 -0.066,2.575 -0.045,0.836 -0.066,1.627 -0.066,2.375 0,0.543 0.021,1.057 0.066,1.541 0.043,0.484 0.125,0.932 0.242,1.342 h -1.299 l -0.461,-1.541 h -0.111 c -0.131,0.207 -0.297,0.408 -0.494,0.605 -0.197,0.199 -0.438,0.375 -0.715,0.529 -0.279,0.152 -0.602,0.281 -0.969,0.385 -0.367,0.102 -0.785,0.152 -1.254,0.152 -0.469,0 -0.906,-0.072 -1.309,-0.219 -0.404,-0.146 -0.752,-0.355 -1.045,-0.627 -0.293,-0.272 -0.525,-0.598 -0.693,-0.979 -0.168,-0.383 -0.252,-0.814 -0.252,-1.299 0,-0.645 0.131,-1.184 0.395,-1.617 0.264,-0.432 0.635,-0.777 1.111,-1.033 0.477,-0.258 1.049,-0.441 1.717,-0.551 0.666,-0.109 1.404,-0.164 2.211,-0.164 0.205,0 0.406,0 0.605,0 0.197,0 0.398,0.014 0.604,0.043 0.045,-0.439 0.066,-0.836 0.066,-1.188 0,-0.807 -0.162,-1.371 -0.484,-1.694 -0.322,-0.323 -0.908,-0.484 -1.76,-0.484 -0.25,0 -0.518,0.019 -0.803,0.057 -0.285,0.038 -0.58,0.09 -0.881,0.158 -0.301,0.068 -0.586,0.151 -0.857,0.249 -0.271,0.098 -0.51,0.207 -0.715,0.327 l -0.55,-1.34 z m 3.125,8.822 c 0.41,0 0.777,-0.055 1.1,-0.164 0.322,-0.111 0.602,-0.25 0.836,-0.418 0.234,-0.17 0.43,-0.355 0.584,-0.563 0.154,-0.205 0.268,-0.402 0.34,-0.594 v -1.826 c -0.205,-0.014 -0.414,-0.025 -0.627,-0.033 -0.213,-0.006 -0.422,-0.01 -0.627,-0.01 -0.455,0 -0.898,0.025 -1.33,0.076 -0.434,0.053 -0.814,0.146 -1.145,0.287 -0.33,0.139 -0.594,0.33 -0.791,0.57 -0.199,0.242 -0.299,0.547 -0.299,0.914 0,0.514 0.184,0.936 0.551,1.266 0.367,0.33 0.835,0.495 1.408,0.495 z" /><path
       style="fill:#ffffff"
       inkscape:connector-curvature="0"
       id="path115"
       d="m 297.01,529.927 h -3.455 v 9.459 h -1.76 v -9.459 h -3.453 v -1.54 h 8.668 v 1.54 z" /><path
       style="fill:#ffffff"
       inkscape:connector-curvature="0"
       id="path117"
       d="m 297.78,533.887 c 0,-1.862 0.414,-3.289 1.244,-4.278 0.828,-0.99 2.02,-1.485 3.574,-1.485 0.82,0 1.537,0.136 2.145,0.407 0.609,0.271 1.111,0.66 1.508,1.166 0.397,0.506 0.689,1.115 0.879,1.826 0.191,0.712 0.287,1.5 0.287,2.365 0,1.863 -0.414,3.289 -1.244,4.279 -0.828,0.99 -2.02,1.486 -3.574,1.486 -0.822,0 -1.537,-0.137 -2.145,-0.408 -0.609,-0.271 -1.111,-0.66 -1.508,-1.166 -0.397,-0.506 -0.689,-1.113 -0.879,-1.826 -0.192,-0.712 -0.287,-1.499 -0.287,-2.366 z m 1.826,0 c 0,0.559 0.055,1.094 0.166,1.607 0.109,0.514 0.281,0.961 0.516,1.342 0.235,0.381 0.543,0.689 0.924,0.924 0.383,0.234 0.844,0.352 1.387,0.352 1.994,0.016 2.992,-1.393 2.992,-4.225 0,-0.571 -0.055,-1.114 -0.166,-1.627 -0.109,-0.514 -0.281,-0.961 -0.516,-1.342 -0.235,-0.381 -0.543,-0.686 -0.924,-0.913 -0.383,-0.228 -0.844,-0.341 -1.387,-0.341 -1.994,-0.015 -2.992,1.392 -2.992,4.223 z" /><path
       style="fill:#ffffff"
       inkscape:connector-curvature="0"
       id="path119"
       d="m 310.188,528.387 h 1.211 l 0.33,1.32 h 0.088 c 0.336,-0.513 0.773,-0.905 1.309,-1.177 0.536,-0.272 1.146,-0.407 1.836,-0.407 1.467,0 2.561,0.433 3.279,1.298 0.718,0.865 1.078,2.281 1.078,4.247 0,0.924 -0.121,1.756 -0.363,2.496 -0.242,0.74 -0.584,1.369 -1.023,1.881 -0.439,0.514 -0.973,0.91 -1.596,1.189 -0.623,0.277 -1.316,0.418 -2.078,0.418 -0.543,0 -0.973,-0.033 -1.287,-0.1 -0.316,-0.066 -0.656,-0.18 -1.023,-0.342 v 4.576 h -1.76 v -15.399 z m 4.443,1.276 c -0.748,0 -1.338,0.195 -1.77,0.583 -0.434,0.388 -0.738,0.979 -0.914,1.771 v 5.456 c 0.264,0.207 0.564,0.363 0.902,0.475 0.338,0.109 0.785,0.164 1.342,0.164 1.012,0 1.814,-0.377 2.41,-1.133 0.594,-0.756 0.891,-1.867 0.891,-3.334 0,-0.6 -0.053,-1.147 -0.154,-1.638 -0.104,-0.491 -0.268,-0.909 -0.496,-1.254 -0.227,-0.345 -0.52,-0.612 -0.879,-0.803 -0.359,-0.191 -0.803,-0.287 -1.332,-0.287 z" /><path
       style="fill:#ffffff"
       inkscape:connector-curvature="0"
       id="path121"
       d="m 321.912,529.201 c 0.559,-0.337 1.207,-0.586 1.947,-0.748 0.74,-0.161 1.516,-0.242 2.322,-0.242 0.762,0 1.375,0.103 1.836,0.308 0.463,0.206 0.814,0.473 1.057,0.803 0.243,0.33 0.402,0.693 0.484,1.089 0.08,0.396 0.121,0.792 0.121,1.188 0,0.88 -0.023,1.738 -0.066,2.575 -0.045,0.836 -0.066,1.627 -0.066,2.375 0,0.543 0.021,1.057 0.066,1.541 0.043,0.484 0.125,0.932 0.242,1.342 h -1.299 l -0.461,-1.541 h -0.111 c -0.131,0.207 -0.297,0.408 -0.494,0.605 -0.197,0.199 -0.438,0.375 -0.715,0.529 -0.279,0.152 -0.602,0.281 -0.969,0.385 -0.367,0.102 -0.785,0.152 -1.254,0.152 -0.469,0 -0.906,-0.072 -1.309,-0.219 -0.404,-0.146 -0.752,-0.355 -1.045,-0.627 -0.293,-0.272 -0.525,-0.598 -0.693,-0.979 -0.168,-0.383 -0.252,-0.814 -0.252,-1.299 0,-0.645 0.131,-1.184 0.395,-1.617 0.264,-0.432 0.635,-0.777 1.111,-1.033 0.477,-0.258 1.049,-0.441 1.717,-0.551 0.666,-0.109 1.404,-0.164 2.211,-0.164 0.205,0 0.406,0 0.605,0 0.197,0 0.398,0.014 0.604,0.043 0.045,-0.439 0.066,-0.836 0.066,-1.188 0,-0.807 -0.162,-1.371 -0.484,-1.694 -0.322,-0.323 -0.908,-0.484 -1.76,-0.484 -0.25,0 -0.518,0.019 -0.803,0.057 -0.285,0.038 -0.58,0.09 -0.881,0.158 -0.301,0.068 -0.586,0.151 -0.857,0.249 -0.271,0.098 -0.51,0.207 -0.715,0.327 l -0.55,-1.34 z m 3.125,8.822 c 0.41,0 0.777,-0.055 1.1,-0.164 0.322,-0.111 0.602,-0.25 0.836,-0.418 0.234,-0.17 0.43,-0.355 0.584,-0.563 0.154,-0.205 0.268,-0.402 0.34,-0.594 v -1.826 c -0.205,-0.014 -0.414,-0.025 -0.627,-0.033 -0.213,-0.006 -0.422,-0.01 -0.627,-0.01 -0.455,0 -0.898,0.025 -1.33,0.076 -0.434,0.053 -0.814,0.146 -1.145,0.287 -0.33,0.139 -0.594,0.33 -0.791,0.57 -0.199,0.242 -0.299,0.547 -0.299,0.914 0,0.514 0.184,0.936 0.551,1.266 0.367,0.33 0.836,0.495 1.408,0.495 z" /><path
       style="fill:#ffffff"
       inkscape:connector-curvature="0"
       id="path123"
       d="m 342.086,532.853 0.133,-2.09 h -0.111 l -0.791,1.693 -2.662,4.313 h -0.615 l -2.773,-4.313 -0.725,-1.693 h -0.088 l 0.176,2.068 v 6.555 H 333 v -11 h 1.738 l 3.08,4.929 0.639,1.276 h 0.043 l 0.66,-1.321 2.883,-4.884 h 1.76 v 11 h -1.717 v -6.533 z" /><path
       style="fill:#ffffff"
       inkscape:connector-curvature="0"
       id="path125"
       d="m 354.055,532.875 0.066,-1.363 h -0.066 l -0.902,1.408 -4.949,6.467 h -1.012 v -11 h 1.76 v 6.71 l -0.066,1.297 h 0.088 l 0.857,-1.363 4.951,-6.644 h 1.033 v 11 h -1.76 v -6.512 z" /><path
       style="fill:#ffffff"
       inkscape:connector-curvature="0"
       id="path127"
       d="m 374.955,542.182 h -1.189 l -0.33,-2.795 h -8.359 v -11 h 1.76 v 9.46 h 4.773 v -9.46 h 1.762 v 9.46 h 1.584 v 4.335 z" /><path
       style="fill:#ffffff"
       inkscape:connector-curvature="0"
       id="path129"
       d="m 385.162,538.508 c -0.439,0.352 -0.994,0.631 -1.66,0.836 -0.668,0.205 -1.375,0.309 -2.123,0.309 -0.838,0 -1.563,-0.137 -2.18,-0.408 -0.615,-0.271 -1.121,-0.66 -1.518,-1.166 -0.397,-0.506 -0.689,-1.111 -0.879,-1.814 -0.191,-0.705 -0.287,-1.496 -0.287,-2.377 0,-1.877 0.418,-3.307 1.254,-4.29 0.836,-0.983 2.031,-1.474 3.586,-1.474 0.498,0 0.998,0.055 1.496,0.165 0.498,0.11 0.947,0.319 1.342,0.627 0.396,0.308 0.719,0.745 0.969,1.309 0.25,0.564 0.373,1.309 0.373,2.232 0,0.484 -0.043,1.02 -0.131,1.606 h -7.063 c 0,0.646 0.066,1.219 0.197,1.717 0.133,0.498 0.338,0.92 0.617,1.266 0.277,0.344 0.641,0.607 1.088,0.791 0.447,0.184 0.994,0.275 1.641,0.275 0.498,0 0.996,-0.088 1.496,-0.264 0.498,-0.176 0.871,-0.381 1.121,-0.615 l 0.661,1.275 z m -3.783,-8.845 c -0.867,0 -1.559,0.228 -2.08,0.682 -0.521,0.455 -0.832,1.232 -0.936,2.332 h 5.457 c 0,-1.114 -0.213,-1.896 -0.639,-2.343 -0.425,-0.447 -1.026,-0.671 -1.802,-0.671 z" /><path
       style="fill:#ffffff"
       inkscape:connector-curvature="0"
       id="path131"
       d="m 395.039,534.525 h -4.971 v 4.861 h -1.76 v -11 h 1.76 v 4.599 h 4.971 v -4.599 h 1.76 v 11 h -1.76 v -4.861 z" /><path
       style="fill:#ffffff"
       inkscape:connector-curvature="0"
       id="path133"
       d="m 407.205,529.927 h -3.453 v 9.459 h -1.76 v -9.459 h -3.455 v -1.54 h 8.668 v 1.54 z" /><path
       style="fill:#ffffff"
       inkscape:connector-curvature="0"
       id="path135"
       d="m 408.944,528.387 h 1.211 l 0.33,1.32 h 0.088 c 0.336,-0.513 0.773,-0.905 1.309,-1.177 0.536,-0.272 1.146,-0.407 1.836,-0.407 1.467,0 2.561,0.433 3.279,1.298 0.718,0.865 1.078,2.281 1.078,4.247 0,0.924 -0.121,1.756 -0.363,2.496 -0.242,0.74 -0.584,1.369 -1.023,1.881 -0.439,0.514 -0.973,0.91 -1.596,1.189 -0.623,0.277 -1.316,0.418 -2.078,0.418 -0.543,0 -0.973,-0.033 -1.287,-0.1 -0.316,-0.066 -0.656,-0.18 -1.023,-0.342 v 4.576 h -1.76 v -15.399 z m 4.443,1.276 c -0.748,0 -1.338,0.195 -1.77,0.583 -0.434,0.388 -0.738,0.979 -0.914,1.771 v 5.456 c 0.264,0.207 0.564,0.363 0.902,0.475 0.338,0.109 0.785,0.164 1.342,0.164 1.012,0 1.814,-0.377 2.41,-1.133 0.594,-0.756 0.891,-1.867 0.891,-3.334 0,-0.6 -0.053,-1.147 -0.154,-1.638 -0.104,-0.491 -0.268,-0.909 -0.496,-1.254 -0.227,-0.345 -0.52,-0.612 -0.879,-0.803 -0.359,-0.191 -0.803,-0.287 -1.332,-0.287 z" /><path
       style="fill:#ffffff"
       inkscape:connector-curvature="0"
       id="path137"
       d="m 420.668,529.201 c 0.559,-0.337 1.207,-0.586 1.947,-0.748 0.74,-0.161 1.516,-0.242 2.322,-0.242 0.762,0 1.375,0.103 1.836,0.308 0.463,0.206 0.814,0.473 1.057,0.803 0.243,0.33 0.402,0.693 0.484,1.089 0.08,0.396 0.121,0.792 0.121,1.188 0,0.88 -0.023,1.738 -0.066,2.575 -0.045,0.836 -0.066,1.627 -0.066,2.375 0,0.543 0.021,1.057 0.066,1.541 0.043,0.484 0.125,0.932 0.242,1.342 h -1.299 l -0.461,-1.541 h -0.111 c -0.131,0.207 -0.297,0.408 -0.494,0.605 -0.197,0.199 -0.438,0.375 -0.715,0.529 -0.279,0.152 -0.602,0.281 -0.969,0.385 -0.367,0.102 -0.785,0.152 -1.254,0.152 -0.469,0 -0.906,-0.072 -1.309,-0.219 -0.404,-0.146 -0.752,-0.355 -1.045,-0.627 -0.293,-0.272 -0.525,-0.598 -0.693,-0.979 -0.168,-0.383 -0.252,-0.814 -0.252,-1.299 0,-0.645 0.131,-1.184 0.395,-1.617 0.264,-0.432 0.635,-0.777 1.111,-1.033 0.477,-0.258 1.049,-0.441 1.717,-0.551 0.666,-0.109 1.404,-0.164 2.211,-0.164 0.205,0 0.406,0 0.605,0 0.197,0 0.398,0.014 0.604,0.043 0.045,-0.439 0.066,-0.836 0.066,-1.188 0,-0.807 -0.162,-1.371 -0.484,-1.694 -0.322,-0.323 -0.908,-0.484 -1.76,-0.484 -0.25,0 -0.518,0.019 -0.803,0.057 -0.285,0.038 -0.58,0.09 -0.881,0.158 -0.301,0.068 -0.586,0.151 -0.857,0.249 -0.271,0.098 -0.51,0.207 -0.715,0.327 l -0.55,-1.34 z m 3.125,8.822 c 0.41,0 0.777,-0.055 1.1,-0.164 0.322,-0.111 0.602,-0.25 0.836,-0.418 0.234,-0.17 0.43,-0.355 0.584,-0.563 0.154,-0.205 0.268,-0.402 0.34,-0.594 v -1.826 c -0.205,-0.014 -0.414,-0.025 -0.627,-0.033 -0.213,-0.006 -0.422,-0.01 -0.627,-0.01 -0.455,0 -0.898,0.025 -1.33,0.076 -0.434,0.053 -0.814,0.146 -1.145,0.287 -0.33,0.139 -0.594,0.33 -0.791,0.57 -0.199,0.242 -0.299,0.547 -0.299,0.914 0,0.514 0.184,0.936 0.551,1.266 0.367,0.33 0.836,0.495 1.408,0.495 z" /><path
       style="fill:#ffffff"
       inkscape:connector-curvature="0"
       id="path139"
       d="m 436.774,532.238 h 12.848 v 1.627 h -12.848 v -1.627 z" /><path
       style="fill:#ffffff"
       inkscape:connector-curvature="0"
       id="path141"
       d="m 60.183,561.387 v 2.992 c 0,0.396 0.022,0.752 0.066,1.068 0.044,0.314 0.132,0.586 0.264,0.813 0.132,0.229 0.322,0.404 0.572,0.529 0.249,0.125 0.579,0.186 0.99,0.186 0.66,0 1.203,-0.072 1.628,-0.219 0.425,-0.147 0.748,-0.309 0.968,-0.484 v -4.885 h 1.76 v 11 h -1.76 v -4.619 c -0.235,0.146 -0.583,0.309 -1.045,0.484 -0.462,0.176 -1.096,0.264 -1.903,0.264 -0.542,0 -1.02,-0.059 -1.43,-0.176 -0.411,-0.117 -0.756,-0.322 -1.034,-0.617 -0.279,-0.293 -0.488,-0.682 -0.627,-1.166 -0.14,-0.482 -0.209,-1.092 -0.209,-1.824 v -3.346 h 1.76 z" /><path
       style="fill:#ffffff"
       inkscape:connector-curvature="0"
       id="path143"
       d="m 77.849,571.508 c -0.44,0.352 -0.994,0.631 -1.661,0.836 -0.667,0.205 -1.375,0.309 -2.123,0.309 -0.836,0 -1.562,-0.137 -2.178,-0.408 -0.616,-0.271 -1.122,-0.66 -1.518,-1.166 -0.396,-0.506 -0.69,-1.111 -0.88,-1.814 -0.19,-0.705 -0.286,-1.496 -0.286,-2.377 0,-1.877 0.418,-3.307 1.254,-4.289 0.836,-0.982 2.031,-1.475 3.586,-1.475 0.499,0 0.997,0.055 1.496,0.166 0.499,0.109 0.946,0.318 1.342,0.627 0.396,0.307 0.719,0.744 0.968,1.309 0.249,0.564 0.374,1.309 0.374,2.232 0,0.484 -0.044,1.02 -0.132,1.605 h -7.062 c 0,0.646 0.066,1.219 0.198,1.717 0.132,0.498 0.337,0.92 0.616,1.266 0.279,0.344 0.642,0.607 1.089,0.791 0.447,0.184 0.993,0.275 1.639,0.275 0.499,0 0.998,-0.088 1.496,-0.264 0.498,-0.176 0.873,-0.381 1.122,-0.615 l 0.66,1.275 z m -3.784,-8.844 c -0.866,0 -1.559,0.227 -2.079,0.682 -0.52,0.455 -0.833,1.232 -0.935,2.332 h 5.456 c 0,-1.115 -0.212,-1.896 -0.638,-2.344 -0.426,-0.447 -1.027,-0.67 -1.804,-0.67 z" /><path
       style="fill:#ffffff"
       inkscape:connector-curvature="0"
       id="path145"
       d="m 90.08,565.854 0.132,-2.09 h -0.11 l -0.792,1.693 -2.662,4.313 h -0.616 l -2.772,-4.313 -0.726,-1.693 h -0.088 l 0.176,2.068 v 6.555 h -1.628 v -11 h 1.738 l 3.08,4.93 0.638,1.275 h 0.044 l 0.66,-1.32 2.882,-4.885 h 1.76 v 11 H 90.08 v -6.533 z" /><path
       style="fill:#ffffff"
       inkscape:connector-curvature="0"
       id="path147"
       d="m 101.806,562.928 h -4.862 v 9.459 h -1.76 v -11 h 8.382 v 11 h -1.76 v -9.459 z" /><path
       style="fill:#ffffff"
       inkscape:connector-curvature="0"
       id="path149"
       d="m 113.818,565.875 0.066,-1.363 h -0.066 l -0.902,1.408 -4.95,6.467 h -1.012 v -11 h 1.76 v 6.711 l -0.066,1.297 h 0.088 l 0.858,-1.363 4.95,-6.645 h 1.034 v 11 h -1.76 v -6.512 z" /><path
       style="fill:#ffffff"
       inkscape:connector-curvature="0"
       id="path151"
       d="m 118.35,566.887 c 0,-1.861 0.414,-3.289 1.243,-4.277 0.829,-0.99 2.021,-1.486 3.575,-1.486 0.821,0 1.536,0.137 2.145,0.408 0.608,0.271 1.111,0.66 1.507,1.166 0.396,0.506 0.689,1.113 0.88,1.824 0.19,0.713 0.286,1.5 0.286,2.365 0,1.863 -0.415,3.289 -1.243,4.279 -0.829,0.99 -2.021,1.486 -3.575,1.486 -0.822,0 -1.537,-0.137 -2.145,-0.408 -0.609,-0.271 -1.111,-0.66 -1.507,-1.166 -0.396,-0.506 -0.69,-1.113 -0.88,-1.826 -0.191,-0.711 -0.286,-1.498 -0.286,-2.365 z m 1.826,0 c 0,0.559 0.055,1.094 0.165,1.607 0.11,0.514 0.282,0.961 0.517,1.342 0.234,0.381 0.542,0.689 0.924,0.924 0.382,0.235 0.843,0.352 1.386,0.352 1.995,0.016 2.992,-1.393 2.992,-4.225 0,-0.57 -0.055,-1.113 -0.165,-1.627 -0.11,-0.514 -0.283,-0.961 -0.517,-1.342 -0.235,-0.381 -0.543,-0.686 -0.924,-0.914 -0.382,-0.227 -0.844,-0.34 -1.386,-0.34 -1.995,-0.016 -2.992,1.393 -2.992,4.223 z" /><path
       style="fill:#ffffff"
       inkscape:connector-curvature="0"
       id="path153"
       d="m 137.49,567.525 h -4.972 v 4.861 h -1.76 v -11 h 1.76 v 4.6 h 4.972 v -4.6 h 1.76 v 11 h -1.76 v -4.861 z" /><path
       style="fill:#ffffff"
       inkscape:connector-curvature="0"
       id="path155"
       d="m 142.462,562.201 c 0.557,-0.338 1.206,-0.586 1.947,-0.748 0.741,-0.16 1.514,-0.242 2.321,-0.242 0.762,0 1.375,0.104 1.837,0.309 0.462,0.205 0.814,0.473 1.056,0.803 0.242,0.33 0.403,0.693 0.484,1.09 0.081,0.395 0.121,0.791 0.121,1.188 0,0.879 -0.022,1.738 -0.066,2.574 -0.044,0.836 -0.066,1.627 -0.066,2.375 0,0.543 0.022,1.057 0.066,1.541 0.044,0.484 0.125,0.932 0.242,1.342 h -1.298 l -0.462,-1.541 h -0.11 c -0.132,0.207 -0.297,0.408 -0.495,0.605 -0.198,0.199 -0.437,0.375 -0.715,0.529 -0.279,0.152 -0.602,0.281 -0.968,0.385 -0.367,0.102 -0.785,0.152 -1.254,0.152 -0.47,0 -0.906,-0.072 -1.309,-0.219 -0.404,-0.146 -0.752,-0.355 -1.045,-0.627 -0.294,-0.271 -0.525,-0.598 -0.693,-0.979 -0.168,-0.383 -0.253,-0.814 -0.253,-1.299 0,-0.645 0.132,-1.184 0.396,-1.617 0.264,-0.432 0.634,-0.777 1.111,-1.033 0.476,-0.258 1.048,-0.441 1.716,-0.551 0.667,-0.109 1.404,-0.164 2.211,-0.164 0.205,0 0.407,0 0.605,0 0.198,0 0.399,0.014 0.605,0.043 0.044,-0.439 0.066,-0.836 0.066,-1.188 0,-0.807 -0.162,-1.371 -0.484,-1.693 -0.323,-0.324 -0.91,-0.484 -1.76,-0.484 -0.25,0 -0.517,0.018 -0.803,0.057 -0.286,0.037 -0.58,0.09 -0.88,0.158 -0.301,0.068 -0.587,0.15 -0.858,0.248 -0.272,0.1 -0.51,0.207 -0.715,0.328 l -0.55,-1.342 z m 3.124,8.822 c 0.41,0 0.777,-0.055 1.1,-0.164 0.322,-0.111 0.601,-0.25 0.836,-0.418 0.234,-0.17 0.429,-0.355 0.583,-0.563 0.154,-0.205 0.267,-0.402 0.341,-0.594 v -1.826 c -0.206,-0.014 -0.415,-0.025 -0.627,-0.033 -0.213,-0.006 -0.422,-0.01 -0.627,-0.01 -0.455,0 -0.898,0.025 -1.331,0.076 -0.433,0.053 -0.814,0.146 -1.144,0.287 -0.33,0.139 -0.594,0.33 -0.792,0.57 -0.198,0.242 -0.297,0.547 -0.297,0.914 0,0.514 0.183,0.936 0.55,1.266 0.367,0.33 0.835,0.495 1.408,0.495 z" /><path
       style="fill:#ffffff"
       inkscape:connector-curvature="0"
       id="path157"
       d="m 162.635,565.854 0.132,-2.09 h -0.11 l -0.792,1.693 -2.662,4.313 h -0.616 l -2.772,-4.313 -0.726,-1.693 h -0.088 l 0.176,2.068 v 6.555 h -1.628 v -11 h 1.738 l 3.08,4.93 0.638,1.275 h 0.044 l 0.66,-1.32 2.882,-4.885 h 1.76 v 11 h -1.716 v -6.533 z" /><path
       style="fill:#ffffff"
       inkscape:connector-curvature="0"
       id="path159"
       d="m 174.603,565.875 0.065,-1.363 h -0.065 l -0.902,1.408 -4.95,6.467 h -1.012 v -11 h 1.76 v 6.711 l -0.066,1.297 h 0.088 l 0.858,-1.363 4.95,-6.645 h 1.034 v 11 h -1.76 v -6.512 z" /><path
       style="fill:#ffffff"
       inkscape:connector-curvature="0"
       id="path161"
       d="m 194.711,565.854 0.132,-2.09 h -0.109 l -0.793,1.693 -2.661,4.313 h -0.616 l -2.771,-4.313 -0.727,-1.693 h -0.088 l 0.176,2.068 v 6.555 h -1.628 v -11 h 1.738 l 3.08,4.93 0.638,1.275 h 0.044 l 0.66,-1.32 2.882,-4.885 h 1.76 v 11 h -1.716 v -6.533 z" /><path
       style="fill:#ffffff"
       inkscape:connector-curvature="0"
       id="path163"
       d="m 206.678,565.875 0.066,-1.363 h -0.066 l -0.902,1.408 -4.949,6.467 h -1.012 v -11 h 1.76 v 6.711 l -0.066,1.297 h 0.088 l 0.858,-1.363 4.95,-6.645 h 1.033 v 11 h -1.76 v -6.512 z" /><path
       style="fill:#ffffff"
       inkscape:connector-curvature="0"
       id="path165"
       d="m 211.827,561.387 h 1.209 l 0.33,1.32 h 0.088 c 0.338,-0.514 0.773,-0.904 1.31,-1.176 0.536,-0.271 1.147,-0.408 1.836,-0.408 1.467,0 2.561,0.434 3.279,1.299 0.717,0.865 1.078,2.281 1.078,4.246 0,0.924 -0.121,1.756 -0.363,2.496 -0.242,0.74 -0.584,1.369 -1.023,1.881 -0.439,0.514 -0.973,0.91 -1.596,1.189 -0.623,0.277 -1.316,0.418 -2.078,0.418 -0.543,0 -0.973,-0.033 -1.287,-0.1 -0.316,-0.066 -0.657,-0.18 -1.023,-0.342 v 4.576 h -1.76 v -15.399 z m 4.443,1.277 c -0.748,0 -1.338,0.193 -1.77,0.582 -0.433,0.389 -0.737,0.979 -0.913,1.771 v 5.455 c 0.264,0.207 0.564,0.363 0.902,0.475 0.337,0.109 0.785,0.164 1.341,0.164 1.012,0 1.814,-0.377 2.408,-1.133 0.596,-0.756 0.893,-1.867 0.893,-3.334 0,-0.6 -0.053,-1.146 -0.154,-1.639 -0.104,-0.49 -0.268,-0.908 -0.496,-1.254 -0.227,-0.344 -0.52,-0.611 -0.879,-0.803 -0.36,-0.188 -0.803,-0.284 -1.332,-0.284 z" /><path
       style="fill:#ffffff"
       inkscape:connector-curvature="0"
       id="path167"
       d="m 223.551,562.201 c 0.559,-0.338 1.207,-0.586 1.947,-0.748 0.74,-0.16 1.514,-0.242 2.322,-0.242 0.762,0 1.375,0.104 1.836,0.309 0.463,0.205 0.814,0.473 1.057,0.803 0.243,0.33 0.402,0.693 0.484,1.09 0.08,0.395 0.121,0.791 0.121,1.188 0,0.879 -0.023,1.738 -0.066,2.574 -0.045,0.836 -0.066,1.627 -0.066,2.375 0,0.543 0.021,1.057 0.066,1.541 0.043,0.484 0.123,0.932 0.242,1.342 h -1.299 l -0.461,-1.541 h -0.111 c -0.131,0.207 -0.297,0.408 -0.494,0.605 -0.199,0.199 -0.438,0.375 -0.715,0.529 -0.279,0.152 -0.602,0.281 -0.969,0.385 -0.367,0.102 -0.785,0.152 -1.254,0.152 -0.469,0 -0.906,-0.072 -1.309,-0.219 -0.404,-0.146 -0.752,-0.355 -1.045,-0.627 -0.295,-0.271 -0.525,-0.598 -0.693,-0.979 -0.168,-0.383 -0.254,-0.814 -0.254,-1.299 0,-0.645 0.133,-1.184 0.396,-1.617 0.264,-0.432 0.635,-0.777 1.111,-1.033 0.477,-0.258 1.049,-0.441 1.717,-0.551 0.666,-0.109 1.404,-0.164 2.211,-0.164 0.205,0 0.406,0 0.604,0 0.199,0 0.4,0.014 0.605,0.043 0.045,-0.439 0.066,-0.836 0.066,-1.188 0,-0.807 -0.162,-1.371 -0.484,-1.693 -0.322,-0.324 -0.91,-0.484 -1.76,-0.484 -0.25,0 -0.518,0.018 -0.803,0.057 -0.287,0.037 -0.58,0.09 -0.881,0.158 -0.301,0.068 -0.586,0.15 -0.857,0.248 -0.271,0.1 -0.51,0.207 -0.715,0.328 l -0.549,-1.342 z m 3.125,8.822 c 0.41,0 0.777,-0.055 1.1,-0.164 0.322,-0.111 0.602,-0.25 0.836,-0.418 0.234,-0.17 0.43,-0.355 0.584,-0.563 0.152,-0.205 0.266,-0.402 0.34,-0.594 v -1.826 c -0.205,-0.014 -0.414,-0.025 -0.627,-0.033 -0.213,-0.006 -0.422,-0.01 -0.627,-0.01 -0.455,0 -0.898,0.025 -1.33,0.076 -0.434,0.053 -0.814,0.146 -1.145,0.287 -0.33,0.139 -0.594,0.33 -0.793,0.57 -0.197,0.242 -0.297,0.547 -0.297,0.914 0,0.514 0.184,0.936 0.551,1.266 0.367,0.33 0.836,0.495 1.408,0.495 z" /><path
       style="fill:#ffffff"
       inkscape:connector-curvature="0"
       id="path169"
       d="m 247.135,562.928 h -4.861 v 9.459 h -1.76 v -11 h 8.381 v 11 h -1.76 v -9.459 z" /><path
       style="fill:#ffffff"
       inkscape:connector-curvature="0"
       id="path171"
       d="m 251.666,566.887 c 0,-1.861 0.414,-3.289 1.244,-4.277 0.828,-0.99 2.02,-1.486 3.574,-1.486 0.82,0 1.537,0.137 2.145,0.408 0.609,0.271 1.111,0.66 1.508,1.166 0.397,0.506 0.689,1.113 0.879,1.824 0.191,0.713 0.287,1.5 0.287,2.365 0,1.863 -0.414,3.289 -1.244,4.279 -0.828,0.99 -2.02,1.486 -3.574,1.486 -0.822,0 -1.537,-0.137 -2.145,-0.408 -0.609,-0.271 -1.111,-0.66 -1.508,-1.166 -0.397,-0.506 -0.689,-1.113 -0.879,-1.826 -0.191,-0.711 -0.287,-1.498 -0.287,-2.365 z m 1.826,0 c 0,0.559 0.055,1.094 0.166,1.607 0.109,0.514 0.281,0.961 0.516,1.342 0.235,0.381 0.543,0.689 0.924,0.924 0.383,0.234 0.844,0.352 1.387,0.352 1.994,0.016 2.992,-1.393 2.992,-4.225 0,-0.57 -0.055,-1.113 -0.166,-1.627 -0.109,-0.514 -0.281,-0.961 -0.516,-1.342 -0.235,-0.381 -0.543,-0.686 -0.924,-0.914 -0.383,-0.227 -0.844,-0.34 -1.387,-0.34 -1.994,-0.016 -2.992,1.393 -2.992,4.223 z" /><path
       style="fill:#ffffff"
       inkscape:connector-curvature="0"
       id="path173"
       d="m 270.961,563.346 c 0.484,-0.705 1.02,-1.199 1.605,-1.484 0.586,-0.287 1.32,-0.43 2.199,-0.43 1.35,0 2.389,0.439 3.113,1.32 0.727,0.879 1.09,2.178 1.09,3.893 0,1.98 -0.422,3.477 -1.266,4.488 -0.844,1.011 -2.02,1.52 -3.531,1.52 -1.613,0 -2.822,-0.559 -3.629,-1.674 -0.807,-1.113 -1.211,-2.867 -1.211,-5.258 0,-1.26 0.063,-2.338 0.188,-3.232 0.125,-0.894 0.309,-1.65 0.551,-2.268 0.24,-0.615 0.535,-1.107 0.879,-1.473 0.344,-0.367 0.732,-0.656 1.166,-0.869 0.432,-0.213 0.906,-0.363 1.42,-0.451 0.512,-0.088 1.063,-0.162 1.648,-0.221 0.764,-0.072 1.361,-0.156 1.793,-0.252 0.434,-0.096 0.781,-0.268 1.045,-0.518 l 0.199,1.584 c -0.146,0.133 -0.309,0.242 -0.484,0.33 -0.175,0.088 -0.389,0.162 -0.639,0.221 -0.248,0.059 -0.545,0.109 -0.891,0.152 -0.344,0.045 -0.744,0.082 -1.199,0.111 -0.631,0.043 -1.184,0.121 -1.66,0.23 -0.476,0.109 -0.889,0.322 -1.232,0.639 -0.344,0.314 -0.615,0.762 -0.814,1.342 -0.197,0.58 -0.334,1.346 -0.406,2.299 h 0.066 z m 0.197,3.564 c 0,0.557 0.059,1.092 0.176,1.605 0.117,0.513 0.297,0.965 0.539,1.354 0.242,0.389 0.555,0.691 0.936,0.912 0.381,0.221 0.828,0.33 1.342,0.33 1.012,0 1.764,-0.363 2.256,-1.09 0.49,-0.725 0.736,-1.799 0.736,-3.223 0,-0.557 -0.051,-1.07 -0.154,-1.539 -0.103,-0.469 -0.264,-0.877 -0.484,-1.221 -0.219,-0.346 -0.498,-0.609 -0.836,-0.793 -0.338,-0.184 -0.74,-0.275 -1.209,-0.275 -1.145,-0.014 -1.98,0.32 -2.508,1.002 -0.53,0.682 -0.794,1.661 -0.794,2.938 z" /><path
       style="fill:#ffffff"
       inkscape:connector-curvature="0"
       id="path175"
       d="m 281.74,561.387 h 1.211 l 0.33,1.32 h 0.088 c 0.336,-0.514 0.773,-0.904 1.309,-1.176 0.536,-0.272 1.146,-0.408 1.836,-0.408 1.467,0 2.561,0.434 3.279,1.299 0.718,0.865 1.078,2.281 1.078,4.246 0,0.924 -0.121,1.756 -0.363,2.496 -0.242,0.74 -0.584,1.369 -1.023,1.881 -0.439,0.514 -0.973,0.91 -1.596,1.189 -0.623,0.277 -1.316,0.418 -2.078,0.418 -0.543,0 -0.973,-0.033 -1.287,-0.1 -0.316,-0.066 -0.656,-0.18 -1.023,-0.342 v 4.576 h -1.76 v -15.399 z m 4.444,1.277 c -0.748,0 -1.338,0.193 -1.77,0.582 -0.434,0.389 -0.738,0.979 -0.914,1.771 v 5.455 c 0.264,0.207 0.564,0.363 0.902,0.475 0.338,0.109 0.785,0.164 1.342,0.164 1.012,0 1.814,-0.377 2.41,-1.133 0.594,-0.756 0.891,-1.867 0.891,-3.334 0,-0.6 -0.053,-1.146 -0.154,-1.639 -0.104,-0.49 -0.268,-0.908 -0.496,-1.254 -0.227,-0.344 -0.52,-0.611 -0.879,-0.803 -0.36,-0.188 -0.803,-0.284 -1.332,-0.284 z" /><path
       style="fill:#ffffff"
       inkscape:connector-curvature="0"
       id="path177"
       d="m 301.672,571.508 c -0.439,0.352 -0.994,0.631 -1.66,0.836 -0.668,0.205 -1.375,0.309 -2.123,0.309 -0.838,0 -1.563,-0.137 -2.18,-0.408 -0.615,-0.271 -1.121,-0.66 -1.518,-1.166 -0.397,-0.506 -0.689,-1.111 -0.879,-1.814 -0.191,-0.705 -0.287,-1.496 -0.287,-2.377 0,-1.877 0.418,-3.307 1.254,-4.289 0.836,-0.982 2.031,-1.475 3.586,-1.475 0.498,0 0.998,0.055 1.496,0.166 0.498,0.109 0.947,0.318 1.342,0.627 0.396,0.307 0.719,0.744 0.969,1.309 0.25,0.565 0.373,1.309 0.373,2.232 0,0.484 -0.043,1.02 -0.131,1.605 h -7.063 c 0,0.646 0.066,1.219 0.197,1.717 0.133,0.498 0.338,0.92 0.617,1.266 0.277,0.344 0.641,0.607 1.088,0.791 0.447,0.184 0.994,0.275 1.641,0.275 0.498,0 0.996,-0.088 1.496,-0.264 0.498,-0.176 0.871,-0.381 1.121,-0.615 l 0.661,1.275 z m -3.783,-8.844 c -0.867,0 -1.559,0.227 -2.08,0.682 -0.521,0.455 -0.832,1.232 -0.936,2.332 h 5.457 c 0,-1.115 -0.213,-1.896 -0.639,-2.344 -0.426,-0.448 -1.027,-0.67 -1.802,-0.67 z" /><path
       style="fill:#ffffff"
       inkscape:connector-curvature="0"
       id="path179"
       d="m 311.682,565.875 0.066,-1.363 h -0.066 l -0.9,1.408 -4.951,6.467 h -1.012 v -11 h 1.76 v 6.711 l -0.066,1.297 h 0.088 l 0.859,-1.363 4.949,-6.645 h 1.035 v 11 h -1.762 v -6.512 z m -4.334,-8.932 c 0.146,0.676 0.4,1.145 0.76,1.408 0.36,0.263 0.773,0.396 1.242,0.396 0.471,0 0.889,-0.141 1.256,-0.418 0.365,-0.279 0.615,-0.734 0.746,-1.365 l 1.32,0.418 c -0.131,0.852 -0.51,1.504 -1.133,1.959 -0.623,0.455 -1.367,0.682 -2.232,0.682 -0.396,0 -0.789,-0.051 -1.178,-0.154 -0.389,-0.102 -0.736,-0.256 -1.045,-0.461 -0.307,-0.205 -0.572,-0.471 -0.791,-0.793 -0.221,-0.322 -0.367,-0.703 -0.441,-1.145 l 1.496,-0.527 z" /><path
       style="fill:#ffffff"
       inkscape:connector-curvature="0"
       id="path181"
       d="m 319.602,567.438 h -1.012 v 4.949 h -1.76 v -11 h 1.76 v 4.973 l 0.947,-0.309 3.52,-4.664 h 1.914 l -3.41,4.422 -0.924,0.727 1.143,0.881 3.676,4.971 h -2.18 l -3.674,-4.95 z" /><path
       style="fill:#ffffff"
       inkscape:connector-curvature="0"
       id="path183"
       d="m 326.467,565.238 h 5.324 v 1.627 h -5.324 v -1.627 z" /><path
       style="fill:#ffffff"
       inkscape:connector-curvature="0"
       id="path185"
       d="m 343.758,575.182 h -1.188 l -0.33,-2.795 h -8.271 l -0.33,2.795 h -1.188 v -4.334 h 1.297 c 0.117,-0.162 0.271,-0.451 0.463,-0.869 0.189,-0.418 0.377,-1.004 0.561,-1.76 0.184,-0.756 0.344,-1.693 0.484,-2.816 0.139,-1.121 0.223,-2.461 0.252,-4.016 h 6.645 v 9.461 h 1.605 v 4.334 z m -3.365,-4.334 v -7.92 h -3.301 c -0.029,0.615 -0.08,1.287 -0.154,2.014 -0.072,0.725 -0.172,1.451 -0.297,2.178 -0.125,0.725 -0.281,1.41 -0.473,2.057 -0.189,0.645 -0.41,1.203 -0.66,1.672 h 4.885 z" /><path
       style="fill:#ffffff"
       inkscape:connector-curvature="0"
       id="path187"
       d="m 345.76,562.201 c 0.557,-0.338 1.207,-0.586 1.947,-0.748 0.74,-0.16 1.514,-0.242 2.32,-0.242 0.764,0 1.375,0.104 1.838,0.309 0.461,0.205 0.813,0.473 1.055,0.803 0.242,0.33 0.404,0.693 0.484,1.09 0.08,0.395 0.121,0.791 0.121,1.188 0,0.879 -0.021,1.738 -0.066,2.574 -0.043,0.836 -0.064,1.627 -0.064,2.375 0,0.543 0.021,1.057 0.064,1.541 0.045,0.484 0.125,0.932 0.242,1.342 h -1.297 l -0.463,-1.541 h -0.109 c -0.133,0.207 -0.297,0.408 -0.496,0.605 -0.197,0.199 -0.436,0.375 -0.715,0.529 -0.277,0.152 -0.602,0.281 -0.967,0.385 -0.367,0.102 -0.785,0.152 -1.254,0.152 -0.471,0 -0.906,-0.072 -1.311,-0.219 -0.402,-0.146 -0.75,-0.355 -1.045,-0.627 -0.293,-0.271 -0.523,-0.598 -0.691,-0.979 -0.17,-0.383 -0.254,-0.814 -0.254,-1.299 0,-0.645 0.133,-1.184 0.396,-1.617 0.264,-0.432 0.635,-0.777 1.111,-1.033 0.477,-0.258 1.047,-0.441 1.715,-0.551 0.668,-0.11 1.404,-0.164 2.211,-0.164 0.205,0 0.408,0 0.605,0 0.197,0 0.4,0.014 0.605,0.043 0.043,-0.439 0.066,-0.836 0.066,-1.188 0,-0.807 -0.162,-1.371 -0.484,-1.693 -0.324,-0.324 -0.91,-0.484 -1.76,-0.484 -0.25,0 -0.518,0.018 -0.803,0.057 -0.287,0.037 -0.58,0.09 -0.881,0.158 -0.301,0.068 -0.586,0.15 -0.857,0.248 -0.271,0.1 -0.51,0.207 -0.715,0.328 l -0.548,-1.342 z m 3.123,8.822 c 0.412,0 0.777,-0.055 1.102,-0.164 0.322,-0.111 0.6,-0.25 0.836,-0.418 0.234,-0.17 0.428,-0.355 0.582,-0.563 0.154,-0.205 0.268,-0.402 0.342,-0.594 v -1.826 c -0.205,-0.014 -0.414,-0.025 -0.627,-0.033 -0.213,-0.006 -0.422,-0.01 -0.627,-0.01 -0.455,0 -0.898,0.025 -1.332,0.076 -0.432,0.053 -0.814,0.146 -1.143,0.287 -0.33,0.139 -0.596,0.33 -0.793,0.57 -0.197,0.242 -0.297,0.547 -0.297,0.914 0,0.514 0.184,0.936 0.551,1.266 0.365,0.331 0.836,0.495 1.406,0.495 z" /><path
       style="fill:#ffffff"
       inkscape:connector-curvature="0"
       id="path189"
       d="m 363.578,567.525 h -4.971 v 4.861 h -1.76 v -11 h 1.76 v 4.6 h 4.971 v -4.6 h 1.76 v 11 h -1.76 v -4.861 z" /><path
       style="fill:#ffffff"
       inkscape:connector-curvature="0"
       id="path191"
       d="m 376.229,571.662 c -0.439,0.322 -0.961,0.568 -1.563,0.736 -0.602,0.168 -1.23,0.254 -1.891,0.254 -0.852,0 -1.57,-0.137 -2.156,-0.408 -0.588,-0.271 -1.068,-0.66 -1.441,-1.166 -0.373,-0.506 -0.646,-1.113 -0.814,-1.826 -0.168,-0.711 -0.252,-1.498 -0.252,-2.365 0,-1.861 0.41,-3.289 1.23,-4.277 0.822,-0.99 2.002,-1.486 3.543,-1.486 0.703,0 1.301,0.055 1.793,0.166 0.49,0.109 0.936,0.268 1.33,0.473 l -0.506,1.518 c -0.336,-0.189 -0.711,-0.342 -1.121,-0.451 -0.41,-0.109 -0.852,-0.164 -1.32,-0.164 -2.082,0 -3.123,1.408 -3.123,4.223 0,0.559 0.055,1.09 0.164,1.596 0.109,0.506 0.293,0.953 0.551,1.342 0.256,0.389 0.594,0.701 1.012,0.936 0.418,0.235 0.936,0.352 1.551,0.352 0.527,0 1,-0.08 1.418,-0.242 0.418,-0.16 0.76,-0.344 1.023,-0.549 l 0.572,1.338 z" /><path
       style="fill:#ffffff"
       inkscape:connector-curvature="0"
       id="path193"
       d="m 381.584,568.516 0.619,2.111 h 0.109 l 0.486,-2.133 2.143,-7.107 h 1.76 l -3.256,9.879 c -0.25,0.719 -0.496,1.416 -0.738,2.09 -0.24,0.674 -0.51,1.275 -0.803,1.805 -0.293,0.527 -0.623,0.949 -0.99,1.264 -0.365,0.316 -0.791,0.473 -1.275,0.473 -0.527,0 -0.961,-0.072 -1.297,-0.219 l 0.307,-1.518 c 0.191,0.072 0.375,0.109 0.551,0.109 0.41,0 0.807,-0.217 1.188,-0.648 0.381,-0.434 0.697,-1.178 0.945,-2.234 l -4.422,-11 h 2.025 l 2.648,7.128 z" /></g></svg>