<?xml version="1.0" encoding="utf-8"?>
<!-- Generator: Adobe Illustrator 14.0.0, SVG Export Plug-In . SVG Version: 6.00 Build 43363)  -->
<!DOCTYPE svg PUBLIC "-//W3C//DTD SVG 1.1//EN" "http://www.w3.org/Graphics/SVG/1.1/DTD/svg11.dtd">
<svg version="1.1" id="Layer_1" xmlns="http://www.w3.org/2000/svg" xmlns:xlink="http://www.w3.org/1999/xlink" x="0px" y="0px"
	 width="493.557px" height="112px" viewBox="50.36 476.945 493.557 112" enable-background="new 50.36 476.945 493.557 112"
	 xml:space="preserve">
<rect x="50.36" y="511.945" fill="#E50647" width="493.557" height="44"/>
<rect x="50.36" y="476.945" fill="#E50647" width="462" height="43"/>
<rect x="50.36" y="540.945" fill="#E50647" width="291.94" height="48"/>
<g>
	<path fill="#FFFFFF" d="M82.047,548.336c0.119,5.451,3.677,8.178,9.361,8.178c5.811,0,9.011-4.385,9.13-9.957
		c-0.118-11.971-11.972-11.497-20.979-11.142v-2.845l11.021-22.995H66.638v-18.847h52.744v3.08l-15.289,27.976
		c13.156,3.316,16.949,13.984,16.949,24.653c0.115,14.104-9.957,28.922-29.159,28.922c-6.28,0-10.785-1.307-14.814-3.559
		c-7.82-4.385-13.631-12.801-13.631-23.469C69.602,548.336,76.002,548.336,82.047,548.336z"/>
</g>
<g>
	<path fill="#FFFFFF" d="M141.73,499.031c0-2.566,0.542-4.535,1.628-5.907c1.085-1.371,2.633-2.057,4.642-2.057
		c1.085,0,2.024,0.189,2.816,0.571s1.448,0.92,1.969,1.617c0.521,0.696,0.905,1.532,1.155,2.508c0.25,0.977,0.374,2.064,0.374,3.268
		c0,2.566-0.546,4.536-1.64,5.906c-1.093,1.371-2.65,2.058-4.675,2.058c-1.07,0-1.999-0.19-2.783-0.571
		c-0.784-0.382-1.438-0.921-1.958-1.617c-0.521-0.695-0.905-1.531-1.154-2.508C141.855,501.323,141.73,500.234,141.73,499.031z
		 M143.666,499.031c0,0.851,0.084,1.658,0.253,2.42c0.168,0.763,0.43,1.434,0.781,2.014c0.353,0.579,0.803,1.041,1.354,1.386
		c0.55,0.346,1.198,0.518,1.946,0.518c1.364,0,2.436-0.518,3.212-1.551c0.777-1.034,1.166-2.629,1.166-4.785
		c0-0.836-0.084-1.64-0.253-2.409s-0.433-1.444-0.792-2.023c-0.358-0.578-0.813-1.041-1.363-1.386
		c-0.551-0.345-1.207-0.518-1.97-0.518c-1.35,0-2.409,0.518-3.179,1.551S143.666,496.875,143.666,499.031z"/>
	<path fill="#FFFFFF" d="M164.258,497.271h-3.453v9.46h-1.761v-9.46h-3.454v-1.54h8.668V497.271L164.258,497.271z"/>
	<path fill="#FFFFFF" d="M168.768,501.781h-1.013v4.95h-1.76v-11h1.76v4.972l0.946-0.309l3.521-4.663h1.914l-3.41,4.422
		l-0.924,0.727l1.144,0.88l3.674,4.973h-2.178L168.768,501.781z"/>
	<path fill="#FFFFFF" d="M176.512,495.731h1.21l0.329,1.319h0.089c0.337-0.514,0.772-0.904,1.309-1.178
		c0.535-0.271,1.147-0.406,1.837-0.406c1.467,0,2.561,0.434,3.278,1.298c0.718,0.865,1.078,2.28,1.078,4.246
		c0,0.924-0.121,1.756-0.363,2.497c-0.242,0.74-0.583,1.367-1.023,1.881c-0.439,0.515-0.972,0.909-1.595,1.188
		s-1.315,0.418-2.079,0.418c-0.543,0-0.972-0.032-1.287-0.099c-0.314-0.066-0.656-0.181-1.022-0.342v4.576h-1.76V495.731
		L176.512,495.731z M180.956,497.008c-0.748,0-1.339,0.194-1.771,0.583c-0.434,0.39-0.737,0.979-0.913,1.771v5.456
		c0.264,0.206,0.563,0.362,0.901,0.473s0.785,0.165,1.343,0.165c1.012,0,1.814-0.377,2.408-1.133
		c0.595-0.755,0.892-1.866,0.892-3.333c0-0.602-0.052-1.147-0.154-1.64c-0.103-0.49-0.268-0.908-0.495-1.254
		c-0.228-0.345-0.521-0.611-0.88-0.804C181.927,497.103,181.484,497.008,180.956,497.008z"/>
	<path fill="#FFFFFF" d="M190.174,499.934c0.353-0.059,0.689-0.1,1.013-0.121c0.322-0.021,0.631-0.032,0.924-0.032
		c0.748,0,1.375,0.085,1.881,0.253c0.506,0.169,0.913,0.399,1.221,0.692c0.309,0.293,0.524,0.643,0.649,1.046
		c0.125,0.402,0.187,0.831,0.187,1.286c0,1.335-0.371,2.304-1.11,2.904c-0.74,0.601-1.939,0.901-3.598,0.901
		c-0.938,0-1.914-0.044-2.926-0.132v-11h1.76V499.934L190.174,499.934z M190.174,505.191c0.542,0.088,1.063,0.132,1.563,0.132
		c0.924,0,1.569-0.181,1.936-0.539c0.366-0.359,0.551-0.869,0.551-1.528c0-0.587-0.181-1.071-0.539-1.452
		c-0.359-0.382-0.986-0.571-1.882-0.571c-0.25,0-0.521,0.008-0.813,0.021c-0.293,0.015-0.565,0.059-0.814,0.132V505.191
		L190.174,505.191z M197.785,495.731h1.76v11h-1.76V495.731z"/>
	<path fill="#FFFFFF" d="M209.951,497.271h-3.454v9.46h-1.76v-9.46h-3.454v-1.54h8.668V497.271L209.951,497.271z"/>
	<path fill="#FFFFFF" d="M213.449,499.934c0.352-0.059,0.689-0.1,1.012-0.121c0.323-0.021,0.631-0.032,0.924-0.032
		c0.748,0,1.375,0.085,1.882,0.253c0.506,0.169,0.913,0.399,1.221,0.692s0.523,0.643,0.648,1.046
		c0.125,0.402,0.188,0.831,0.188,1.286c0,1.335-0.371,2.304-1.111,2.904c-0.739,0.601-1.938,0.901-3.597,0.901
		c-0.939,0-1.914-0.044-2.926-0.132v-11h1.76V499.934L213.449,499.934z M213.449,505.191c0.542,0.088,1.063,0.132,1.563,0.132
		c0.924,0,1.568-0.181,1.936-0.539c0.366-0.359,0.55-0.869,0.55-1.528c0-0.587-0.18-1.071-0.539-1.452
		c-0.358-0.382-0.985-0.571-1.881-0.571c-0.25,0-0.521,0.008-0.813,0.021c-0.293,0.015-0.565,0.059-0.814,0.132V505.191
		L213.449,505.191z M221.061,495.731h1.76v11h-1.76V495.731z"/>
	<path fill="#FFFFFF" d="M234.239,505.852c-0.44,0.353-0.994,0.632-1.661,0.836c-0.667,0.205-1.375,0.309-2.123,0.309
		c-0.836,0-1.562-0.136-2.178-0.406s-1.122-0.66-1.519-1.166c-0.396-0.507-0.689-1.11-0.88-1.814
		c-0.189-0.704-0.286-1.496-0.286-2.376c0-1.877,0.419-3.309,1.255-4.29c0.836-0.982,2.03-1.475,3.586-1.475
		c0.499,0,0.997,0.056,1.496,0.165s0.945,0.318,1.342,0.627c0.396,0.309,0.719,0.744,0.968,1.31c0.249,0.563,0.374,1.31,0.374,2.232
		c0,0.483-0.044,1.021-0.132,1.605h-7.063c0,0.646,0.066,1.218,0.198,1.716c0.132,0.499,0.337,0.921,0.616,1.266
		c0.279,0.346,0.642,0.608,1.089,0.792c0.447,0.185,0.993,0.274,1.639,0.274c0.499,0,0.998-0.088,1.496-0.264
		c0.498-0.177,0.873-0.382,1.122-0.616L234.239,505.852z M230.455,497.008c-0.866,0-1.559,0.229-2.079,0.683
		s-0.833,1.231-0.935,2.332h5.456c0-1.114-0.212-1.896-0.639-2.344C231.833,497.231,231.232,497.008,230.455,497.008z"/>
	<path fill="#FFFFFF" d="M246.502,502.859l0.619,2.111h0.11l0.484-2.134l2.143-7.105h1.76l-3.256,9.878
		c-0.25,0.719-0.495,1.415-0.737,2.09s-0.51,1.275-0.803,1.805c-0.293,0.527-0.624,0.949-0.99,1.265
		c-0.367,0.315-0.792,0.474-1.275,0.474c-0.528,0-0.961-0.073-1.299-0.22l0.309-1.519c0.189,0.073,0.374,0.109,0.55,0.109
		c0.411,0,0.807-0.217,1.188-0.648c0.381-0.434,0.695-1.178,0.945-2.232l-4.422-11h2.024L246.502,502.859z"/>
	<path fill="#FFFFFF" d="M253.51,495.731h1.211l0.329,1.319h0.089c0.337-0.514,0.772-0.904,1.309-1.178
		c0.535-0.271,1.146-0.406,1.837-0.406c1.467,0,2.56,0.434,3.278,1.298c0.718,0.865,1.078,2.28,1.078,4.246
		c0,0.924-0.121,1.756-0.363,2.497c-0.242,0.74-0.583,1.367-1.023,1.881c-0.439,0.515-0.972,0.909-1.595,1.188
		s-1.316,0.418-2.079,0.418c-0.543,0-0.972-0.032-1.287-0.099c-0.314-0.066-0.656-0.181-1.022-0.342v4.576h-1.761V495.731
		L253.51,495.731z M257.955,497.008c-0.748,0-1.339,0.194-1.771,0.583c-0.434,0.39-0.737,0.979-0.913,1.771v5.456
		c0.264,0.206,0.563,0.362,0.901,0.473c0.337,0.11,0.785,0.165,1.343,0.165c1.012,0,1.814-0.377,2.408-1.133
		c0.595-0.755,0.892-1.866,0.892-3.333c0-0.602-0.052-1.147-0.154-1.64c-0.103-0.49-0.268-0.908-0.495-1.254
		c-0.228-0.345-0.521-0.611-0.88-0.804C258.926,497.103,258.483,497.008,257.955,497.008z"/>
	<path fill="#FFFFFF" d="M264.796,501.231c0-1.862,0.414-3.289,1.243-4.279c0.829-0.989,2.021-1.484,3.575-1.484
		c0.821,0,1.536,0.136,2.145,0.406c0.608,0.272,1.111,0.66,1.508,1.166c0.396,0.507,0.688,1.115,0.88,1.826
		c0.189,0.712,0.286,1.5,0.286,2.364c0,1.862-0.415,3.289-1.243,4.279c-0.829,0.989-2.021,1.484-3.575,1.484
		c-0.822,0-1.537-0.136-2.146-0.406s-1.11-0.66-1.507-1.166c-0.396-0.507-0.689-1.115-0.88-1.826S264.796,502.097,264.796,501.231z
		 M266.622,501.231c0,0.558,0.055,1.093,0.165,1.605s0.282,0.96,0.518,1.342c0.233,0.381,0.542,0.689,0.924,0.924
		c0.382,0.235,0.843,0.353,1.386,0.353c1.995,0.016,2.992-1.394,2.992-4.224c0-0.572-0.056-1.114-0.165-1.629
		c-0.11-0.514-0.283-0.961-0.518-1.342c-0.234-0.382-0.543-0.686-0.924-0.913c-0.382-0.228-0.844-0.341-1.386-0.341
		C267.619,496.993,266.622,498.401,266.622,501.231z"/>
	<path fill="#FFFFFF" d="M279.976,501.781h-1.013v4.95h-1.76v-11h1.76v4.972l0.946-0.309l3.521-4.663h1.914l-3.41,4.422
		l-0.925,0.727l1.145,0.88l3.674,4.973h-2.178L279.976,501.781z"/>
	<path fill="#FFFFFF" d="M294.584,500.22l0.066-1.363h-0.066l-0.901,1.407l-4.95,6.469h-1.012v-11h1.76v6.71l-0.066,1.298h0.088
		l0.858-1.364l4.95-6.644h1.034v11h-1.761V500.22z"/>
	<path fill="#FFFFFF" d="M313.108,506.006c-0.439,0.322-0.961,0.568-1.563,0.736c-0.602,0.169-1.231,0.253-1.893,0.253
		c-0.851,0-1.568-0.136-2.154-0.406c-0.588-0.271-1.067-0.66-1.44-1.166c-0.375-0.507-0.646-1.115-0.814-1.826
		c-0.168-0.712-0.252-1.5-0.252-2.364c0-1.862,0.41-3.289,1.23-4.279c0.821-0.989,2.001-1.484,3.542-1.484
		c0.703,0,1.302,0.056,1.793,0.165c0.49,0.109,0.935,0.269,1.33,0.474l-0.506,1.518c-0.338-0.19-0.711-0.341-1.121-0.45
		c-0.412-0.109-0.852-0.165-1.319-0.165c-2.085,0-3.125,1.407-3.125,4.225c0,0.558,0.057,1.089,0.165,1.595
		c0.109,0.506,0.294,0.954,0.55,1.342c0.258,0.39,0.596,0.701,1.014,0.937c0.418,0.234,0.934,0.352,1.551,0.352
		c0.527,0,1-0.08,1.418-0.241c0.418-0.162,0.761-0.345,1.023-0.551L313.108,506.006z"/>
	<path fill="#FFFFFF" d="M328.024,497.271h-4.863v9.46h-1.76v-11h8.383v11h-1.76V497.271L328.024,497.271z"/>
	<path fill="#FFFFFF" d="M333.171,495.731h1.211l0.33,1.319h0.088c0.336-0.514,0.773-0.904,1.31-1.178
		c0.534-0.271,1.146-0.406,1.836-0.406c1.467,0,2.561,0.434,3.278,1.298c0.719,0.865,1.078,2.28,1.078,4.246
		c0,0.924-0.121,1.756-0.362,2.497c-0.242,0.74-0.585,1.367-1.023,1.881c-0.439,0.515-0.973,0.909-1.596,1.188
		s-1.316,0.418-2.078,0.418c-0.543,0-0.974-0.032-1.287-0.099c-0.316-0.066-0.656-0.181-1.023-0.342v4.576h-1.76L333.171,495.731
		L333.171,495.731z M337.614,497.008c-0.748,0-1.338,0.194-1.771,0.583c-0.434,0.39-0.737,0.979-0.914,1.771v5.456
		c0.265,0.206,0.564,0.362,0.902,0.473s0.785,0.165,1.342,0.165c1.012,0,1.814-0.377,2.41-1.133
		c0.594-0.755,0.891-1.866,0.891-3.333c0-0.602-0.053-1.147-0.153-1.64c-0.104-0.49-0.269-0.908-0.496-1.254
		c-0.228-0.345-0.521-0.611-0.879-0.804C338.587,497.103,338.142,497.008,337.614,497.008z"/>
	<path fill="#FFFFFF" d="M344.458,501.231c0-1.862,0.414-3.289,1.242-4.279c0.828-0.989,2.02-1.484,3.576-1.484
		c0.819,0,1.534,0.136,2.145,0.406c0.607,0.272,1.111,0.66,1.506,1.166c0.396,0.507,0.689,1.115,0.881,1.826
		c0.189,0.712,0.285,1.5,0.285,2.364c0,1.862-0.414,3.289-1.242,4.279c-0.827,0.989-2.021,1.484-3.573,1.484
		c-0.822,0-1.537-0.136-2.146-0.406c-0.606-0.271-1.111-0.66-1.506-1.166c-0.396-0.507-0.689-1.115-0.881-1.826
		C344.552,502.885,344.458,502.097,344.458,501.231z M346.284,501.231c0,0.558,0.055,1.093,0.164,1.605
		c0.108,0.513,0.283,0.96,0.518,1.342c0.234,0.381,0.543,0.689,0.924,0.924c0.382,0.235,0.845,0.353,1.388,0.353
		c1.994,0.016,2.989-1.394,2.989-4.224c0-0.572-0.055-1.114-0.164-1.629c-0.108-0.514-0.282-0.961-0.518-1.342
		c-0.234-0.382-0.543-0.686-0.924-0.913c-0.381-0.227-0.844-0.341-1.385-0.341C347.28,496.993,346.284,498.401,346.284,501.231z"/>
	<path fill="#FFFFFF" d="M361.815,506.819c-0.25,0.088-0.511,0.14-0.781,0.153c-0.271,0.015-0.519,0.021-0.736,0.021
		c-1.336,0-2.36-0.469-3.08-1.407c-0.719-0.938-1.078-2.391-1.078-4.355c0-1.878,0.396-3.292,1.188-4.246
		c0.793-0.953,1.936-1.431,3.432-1.431c0.41,0,0.765,0.029,1.058,0.088v-4.313h1.672v4.334c0.264-0.044,0.498-0.073,0.703-0.088
		c0.207-0.014,0.403-0.021,0.596-0.021c1.451,0,2.543,0.422,3.277,1.266c0.731,0.844,1.1,2.239,1.1,4.19
		c0,0.925-0.1,1.756-0.297,2.497c-0.197,0.74-0.488,1.367-0.869,1.881c-0.381,0.515-0.848,0.909-1.396,1.188
		c-0.552,0.278-1.187,0.418-1.902,0.418c-0.133,0-0.328-0.011-0.584-0.032s-0.465-0.063-0.627-0.121v4.29h-1.672v-4.313H361.815z
		 M360.737,505.543c0.176,0,0.352-0.007,0.526-0.021c0.176-0.015,0.367-0.045,0.572-0.089v-8.338
		c-0.176-0.028-0.34-0.052-0.494-0.065c-0.153-0.015-0.342-0.021-0.561-0.021c-0.91,0-1.617,0.341-2.123,1.022
		c-0.506,0.683-0.76,1.749-0.76,3.201c0,0.615,0.055,1.188,0.164,1.716c0.11,0.527,0.282,0.985,0.518,1.375
		c0.235,0.389,0.531,0.688,0.891,0.901C359.831,505.438,360.253,505.543,360.737,505.543z M364.456,497.008
		c-0.176,0-0.334,0.003-0.475,0.011c-0.14,0.009-0.312,0.04-0.517,0.1v8.359c0.146,0.029,0.312,0.049,0.494,0.056
		c0.184,0.008,0.385,0.011,0.605,0.011c0.938,0,1.646-0.388,2.122-1.165c0.478-0.777,0.716-1.899,0.716-3.366
		c0-1.247-0.218-2.226-0.648-2.938C366.321,497.363,365.554,497.008,364.456,497.008z"/>
	<path fill="#FFFFFF" d="M379.853,505.852c-0.438,0.353-0.991,0.632-1.659,0.836c-0.668,0.205-1.375,0.309-2.123,0.309
		c-0.836,0-1.563-0.136-2.179-0.406c-0.614-0.271-1.123-0.66-1.518-1.166c-0.396-0.507-0.689-1.11-0.881-1.814
		c-0.192-0.704-0.285-1.496-0.285-2.376c0-1.877,0.418-3.309,1.254-4.29c0.836-0.982,2.031-1.475,3.586-1.475
		c0.498,0,0.996,0.056,1.496,0.165c0.498,0.109,0.945,0.318,1.342,0.627s0.72,0.744,0.967,1.31c0.25,0.563,0.375,1.31,0.375,2.232
		c0,0.483-0.045,1.021-0.133,1.605h-7.061c0,0.646,0.063,1.218,0.197,1.716c0.133,0.499,0.338,0.921,0.614,1.266
		c0.279,0.346,0.644,0.608,1.09,0.792c0.447,0.185,0.994,0.274,1.64,0.274c0.498,0,0.998-0.088,1.496-0.264
		c0.498-0.177,0.873-0.382,1.123-0.616L379.853,505.852z M376.071,497.008c-0.865,0-1.56,0.229-2.078,0.683
		c-0.521,0.454-0.834,1.231-0.937,2.332h5.455c0-1.114-0.213-1.896-0.637-2.344C377.45,497.231,376.847,497.008,376.071,497.008z"/>
	<path fill="#FFFFFF" d="M390.26,506.006c-0.438,0.322-0.961,0.568-1.563,0.736c-0.603,0.169-1.23,0.253-1.892,0.253
		c-0.852,0-1.569-0.136-2.155-0.406c-0.588-0.271-1.068-0.66-1.441-1.166c-0.373-0.507-0.646-1.115-0.814-1.826
		c-0.168-0.712-0.252-1.5-0.252-2.364c0-1.862,0.41-3.289,1.23-4.279c0.822-0.989,2.002-1.484,3.543-1.484
		c0.703,0,1.301,0.056,1.793,0.165c0.49,0.109,0.936,0.269,1.33,0.474l-0.506,1.518c-0.336-0.19-0.711-0.341-1.121-0.45
		s-0.853-0.165-1.32-0.165c-2.082,0-3.123,1.407-3.123,4.225c0,0.558,0.056,1.089,0.164,1.595c0.109,0.506,0.293,0.954,0.551,1.342
		c0.257,0.39,0.595,0.701,1.013,0.937c0.418,0.234,0.936,0.352,1.551,0.352c0.527,0,1-0.08,1.418-0.241
		c0.418-0.162,0.76-0.345,1.022-0.551L390.26,506.006z"/>
	<path fill="#FFFFFF" d="M399.677,506.006c-0.438,0.322-0.961,0.568-1.563,0.736c-0.603,0.169-1.23,0.253-1.892,0.253
		c-0.852,0-1.569-0.136-2.155-0.406c-0.589-0.271-1.068-0.66-1.441-1.166c-0.373-0.507-0.646-1.115-0.813-1.826
		c-0.169-0.712-0.253-1.5-0.253-2.364c0-1.862,0.41-3.289,1.23-4.279c0.822-0.989,2.002-1.484,3.543-1.484
		c0.703,0,1.301,0.056,1.793,0.165c0.49,0.109,0.937,0.269,1.33,0.474l-0.506,1.518c-0.336-0.19-0.711-0.341-1.121-0.45
		s-0.853-0.165-1.32-0.165c-2.082,0-3.123,1.407-3.123,4.225c0,0.558,0.056,1.089,0.164,1.595c0.109,0.506,0.293,0.954,0.551,1.342
		c0.257,0.39,0.595,0.701,1.013,0.937c0.418,0.234,0.936,0.352,1.551,0.352c0.527,0,1-0.08,1.418-0.241
		c0.418-0.162,0.76-0.345,1.023-0.551L399.677,506.006z"/>
	<path fill="#FFFFFF" d="M408.96,500.22l0.066-1.363h-0.066l-0.9,1.407l-4.95,6.469h-1.013v-11h1.761v6.71l-0.066,1.298h0.088
		l0.859-1.364l4.949-6.644h1.034v11h-1.762V500.22L408.96,500.22z"/>
	<path fill="#FFFFFF" d="M413.493,501.231c0-1.862,0.414-3.289,1.242-4.279c0.828-0.989,2.02-1.484,3.575-1.484
		c0.82,0,1.535,0.136,2.146,0.406c0.606,0.272,1.111,0.66,1.506,1.166c0.396,0.507,0.689,1.115,0.881,1.826
		c0.189,0.712,0.285,1.5,0.285,2.364c0,1.862-0.414,3.289-1.242,4.279c-0.828,0.989-2.021,1.484-3.573,1.484
		c-0.822,0-1.537-0.136-2.146-0.406c-0.607-0.271-1.111-0.66-1.506-1.166c-0.396-0.507-0.689-1.115-0.881-1.826
		C413.587,502.885,413.493,502.097,413.493,501.231z M415.319,501.231c0,0.558,0.055,1.093,0.164,1.605
		c0.108,0.513,0.282,0.96,0.518,1.342c0.234,0.381,0.543,0.689,0.924,0.924c0.381,0.235,0.844,0.353,1.388,0.353
		c1.993,0.016,2.989-1.394,2.989-4.224c0-0.572-0.055-1.114-0.164-1.629c-0.108-0.514-0.282-0.961-0.518-1.342
		c-0.234-0.382-0.543-0.686-0.924-0.913c-0.381-0.227-0.845-0.341-1.386-0.341C416.315,496.993,415.319,498.401,415.319,501.231z"/>
	<path fill="#FFFFFF" d="M432.632,501.869h-4.971v4.862h-1.76v-11h1.76v4.598h4.971v-4.598h1.76v11h-1.76V501.869z"/>
	<path fill="#FFFFFF" d="M437.603,496.546c0.558-0.338,1.207-0.587,1.947-0.748c0.74-0.162,1.515-0.242,2.32-0.242
		c0.764,0,1.375,0.104,1.838,0.309c0.461,0.206,0.813,0.474,1.055,0.803c0.242,0.33,0.404,0.693,0.484,1.09s0.121,0.792,0.121,1.188
		c0,0.88-0.021,1.737-0.066,2.573c-0.043,0.837-0.063,1.629-0.063,2.376c0,0.544,0.021,1.057,0.063,1.54
		c0.045,0.483,0.125,0.933,0.242,1.343h-1.297l-0.463-1.54h-0.109c-0.133,0.206-0.297,0.407-0.496,0.604
		c-0.196,0.197-0.436,0.374-0.715,0.527c-0.277,0.154-0.602,0.283-0.967,0.386c-0.367,0.103-0.785,0.153-1.254,0.153
		c-0.471,0-0.906-0.073-1.312-0.22c-0.401-0.146-0.75-0.355-1.045-0.628c-0.293-0.271-0.522-0.598-0.69-0.979
		c-0.17-0.381-0.254-0.813-0.254-1.298c0-0.646,0.133-1.185,0.396-1.617c0.264-0.432,0.635-0.776,1.111-1.033
		c0.476-0.257,1.047-0.439,1.715-0.551c0.668-0.109,1.404-0.165,2.211-0.165c0.205,0,0.408,0,0.604,0c0.197,0,0.4,0.016,0.605,0.045
		c0.043-0.439,0.066-0.837,0.066-1.188c0-0.808-0.162-1.371-0.484-1.694c-0.324-0.322-0.91-0.483-1.76-0.483
		c-0.25,0-0.519,0.02-0.804,0.058c-0.286,0.038-0.579,0.09-0.881,0.158c-0.301,0.067-0.586,0.15-0.856,0.249
		c-0.271,0.098-0.51,0.207-0.715,0.327L437.603,496.546z M440.726,505.367c0.412,0,0.777-0.055,1.103-0.165
		c0.322-0.109,0.6-0.249,0.836-0.418c0.234-0.168,0.428-0.355,0.582-0.562s0.268-0.402,0.342-0.594v-1.826
		c-0.205-0.015-0.414-0.024-0.627-0.033c-0.213-0.007-0.422-0.011-0.627-0.011c-0.455,0-0.898,0.025-1.332,0.077
		c-0.432,0.051-0.813,0.146-1.143,0.285c-0.33,0.14-0.597,0.33-0.793,0.572c-0.197,0.241-0.298,0.547-0.298,0.913
		c0,0.514,0.185,0.935,0.552,1.265C439.685,505.202,440.157,505.367,440.726,505.367z"/>
	<path fill="#FFFFFF" d="M454.61,497.271h-3.191c-0.043,0.615-0.088,1.278-0.131,1.99c-0.045,0.711-0.111,1.423-0.199,2.135
		s-0.205,1.394-0.352,2.046s-0.334,1.229-0.562,1.728c-0.229,0.498-0.506,0.898-0.836,1.198c-0.33,0.301-0.723,0.451-1.178,0.451
		c-0.277,0-0.521-0.016-0.726-0.044c-0.207-0.029-0.391-0.08-0.551-0.154l0.265-1.475c0.176,0.06,0.366,0.089,0.571,0.089
		c0.293,0,0.558-0.124,0.791-0.374c0.234-0.249,0.441-0.723,0.617-1.419s0.322-1.661,0.439-2.894
		c0.116-1.231,0.198-2.838,0.241-4.817h6.558v11h-1.76v-9.46H454.61z"/>
	<path fill="#FFFFFF" d="M459.581,496.546c0.559-0.338,1.207-0.587,1.947-0.748c0.739-0.162,1.516-0.242,2.321-0.242
		c0.763,0,1.375,0.104,1.836,0.309c0.464,0.206,0.814,0.474,1.058,0.803c0.242,0.33,0.401,0.693,0.483,1.09
		c0.08,0.396,0.121,0.792,0.121,1.188c0,0.88-0.022,1.737-0.065,2.573c-0.045,0.837-0.066,1.629-0.066,2.376
		c0,0.544,0.021,1.057,0.066,1.54c0.043,0.483,0.125,0.933,0.242,1.343h-1.3l-0.461-1.54h-0.11
		c-0.132,0.206-0.297,0.407-0.494,0.604s-0.438,0.374-0.715,0.527c-0.279,0.154-0.603,0.283-0.97,0.386
		c-0.366,0.103-0.784,0.153-1.254,0.153c-0.469,0-0.905-0.073-1.309-0.22c-0.404-0.146-0.752-0.355-1.045-0.628
		c-0.293-0.271-0.525-0.598-0.693-0.979s-0.252-0.813-0.252-1.298c0-0.646,0.131-1.185,0.396-1.617
		c0.264-0.432,0.635-0.776,1.11-1.033c0.477-0.257,1.049-0.439,1.717-0.551c0.666-0.109,1.404-0.165,2.212-0.165
		c0.204,0,0.405,0,0.604,0c0.197,0,0.398,0.016,0.604,0.045c0.045-0.439,0.065-0.837,0.065-1.188c0-0.808-0.162-1.371-0.483-1.694
		c-0.322-0.322-0.908-0.483-1.761-0.483c-0.25,0-0.518,0.02-0.803,0.058s-0.58,0.09-0.881,0.158
		c-0.301,0.067-0.586,0.15-0.857,0.249c-0.271,0.098-0.51,0.207-0.715,0.327L459.581,496.546z M462.706,505.367
		c0.41,0,0.777-0.055,1.1-0.165c0.322-0.109,0.603-0.249,0.836-0.418c0.234-0.168,0.431-0.355,0.584-0.562
		c0.154-0.206,0.269-0.402,0.341-0.594v-1.826c-0.205-0.015-0.414-0.024-0.627-0.033c-0.214-0.007-0.423-0.011-0.628-0.011
		c-0.454,0-0.897,0.025-1.329,0.077c-0.435,0.051-0.814,0.146-1.146,0.285c-0.33,0.14-0.594,0.33-0.791,0.572
		c-0.199,0.241-0.299,0.547-0.299,0.913c0,0.514,0.184,0.935,0.551,1.265S462.134,505.367,462.706,505.367z"/>
	<path fill="#FFFFFF" d="M479.755,500.197l0.133-2.09h-0.11l-0.791,1.693l-2.662,4.313h-0.615l-2.773-4.313l-0.725-1.693h-0.088
		l0.176,2.067v6.557h-1.629v-11h1.738l3.08,4.928l0.639,1.275h0.043l0.66-1.319l2.883-4.884h1.76v11h-1.717L479.755,500.197
		L479.755,500.197z"/>
	<path fill="#FFFFFF" d="M491.722,500.22l0.066-1.363h-0.066l-0.901,1.407l-4.949,6.469h-1.012v-11h1.76v6.71l-0.066,1.298h0.088
		l0.857-1.364l4.951-6.644h1.033v11h-1.761V500.22L491.722,500.22z"/>
	<path fill="#FFFFFF" d="M149.21,529.271h-3.454v9.46h-1.76v-9.46h-3.454v-1.54h8.668V529.271L149.21,529.271z"/>
	<path fill="#FFFFFF" d="M150.948,527.754c0.513-0.029,1.052-0.065,1.617-0.109c0.563-0.045,1.265-0.066,2.101-0.066
		c1.452,0,2.493,0.224,3.124,0.671c0.63,0.448,0.946,1.126,0.946,2.035c0,0.514-0.15,1.016-0.451,1.507
		c-0.301,0.492-0.795,0.854-1.485,1.09v0.088c0.865,0.161,1.475,0.462,1.826,0.901c0.353,0.44,0.528,1.027,0.528,1.761
		c0,1.145-0.411,1.974-1.232,2.485c-0.82,0.514-2.054,0.771-3.695,0.771c-0.616,0-1.188-0.019-1.717-0.056
		c-0.527-0.036-1.049-0.076-1.562-0.121V527.754z M154.864,532.373c0.264,0,0.521-0.044,0.77-0.132s0.474-0.209,0.672-0.362
		c0.197-0.154,0.358-0.334,0.483-0.539c0.125-0.206,0.188-0.426,0.188-0.66c0-0.587-0.177-0.994-0.528-1.222
		c-0.352-0.227-0.968-0.341-1.848-0.341c-0.471,0-0.841,0.008-1.111,0.021c-0.271,0.015-0.532,0.029-0.781,0.044v3.189
		L154.864,532.373L154.864,532.373z M152.708,537.258c0.278,0.029,0.553,0.051,0.825,0.065c0.272,0.014,0.59,0.021,0.957,0.021
		c0.982,0,1.712-0.14,2.189-0.418c0.477-0.278,0.715-0.756,0.715-1.431c0-0.527-0.202-0.957-0.605-1.287
		c-0.404-0.329-1.119-0.494-2.145-0.494h-1.937V537.258L152.708,537.258z"/>
	<path fill="#FFFFFF" d="M161.31,533.231c0-1.862,0.414-3.289,1.243-4.279c0.828-0.989,2.021-1.484,3.574-1.484
		c0.821,0,1.536,0.136,2.146,0.406c0.607,0.272,1.11,0.66,1.507,1.166c0.396,0.507,0.688,1.115,0.88,1.826
		c0.19,0.712,0.286,1.5,0.286,2.365c0,1.861-0.415,3.288-1.243,4.278c-0.829,0.989-2.021,1.484-3.575,1.484
		c-0.821,0-1.537-0.136-2.145-0.406c-0.609-0.271-1.111-0.66-1.507-1.166c-0.396-0.507-0.69-1.115-0.88-1.826
		C161.406,534.885,161.31,534.097,161.31,533.231z M163.136,533.231c0,0.558,0.055,1.093,0.164,1.605
		c0.11,0.513,0.282,0.96,0.518,1.342c0.233,0.381,0.542,0.689,0.924,0.925c0.382,0.234,0.843,0.352,1.386,0.352
		c1.995,0.016,2.992-1.393,2.992-4.224c0-0.572-0.055-1.114-0.165-1.628c-0.109-0.515-0.283-0.962-0.517-1.343
		c-0.235-0.382-0.543-0.686-0.924-0.913c-0.383-0.228-0.845-0.341-1.387-0.341C164.134,528.993,163.136,530.401,163.136,533.231z"/>
	<path fill="#FFFFFF" d="M173.718,527.731h1.211l0.329,1.319h0.089c0.337-0.514,0.772-0.904,1.309-1.178
		c0.535-0.271,1.147-0.406,1.837-0.406c1.467,0,2.561,0.434,3.278,1.298c0.718,0.865,1.078,2.28,1.078,4.246
		c0,0.924-0.121,1.756-0.363,2.497c-0.242,0.74-0.583,1.367-1.023,1.881c-0.439,0.515-0.972,0.909-1.595,1.188
		c-0.623,0.278-1.316,0.418-2.079,0.418c-0.543,0-0.972-0.032-1.287-0.099c-0.314-0.066-0.656-0.181-1.022-0.342v4.576h-1.76
		L173.718,527.731L173.718,527.731z M178.162,529.008c-0.748,0-1.339,0.194-1.771,0.583c-0.434,0.39-0.737,0.979-0.913,1.771v5.456
		c0.264,0.206,0.563,0.362,0.901,0.473c0.337,0.11,0.785,0.165,1.343,0.165c1.012,0,1.814-0.377,2.408-1.133
		c0.595-0.755,0.892-1.866,0.892-3.333c0-0.602-0.052-1.147-0.154-1.64c-0.103-0.49-0.268-0.908-0.495-1.254
		c-0.228-0.345-0.521-0.611-0.88-0.804C179.133,529.104,178.69,529.008,178.162,529.008z"/>
	<path fill="#FFFFFF" d="M186.763,527.731v2.991c0,0.396,0.021,0.752,0.065,1.066c0.044,0.316,0.132,0.587,0.264,0.814
		c0.133,0.227,0.322,0.402,0.572,0.527c0.249,0.124,0.579,0.188,0.99,0.188c0.66,0,1.203-0.073,1.628-0.221
		c0.425-0.146,0.748-0.309,0.968-0.483v-4.884h1.761v11h-1.761v-4.62c-0.234,0.146-0.583,0.309-1.045,0.483
		c-0.462,0.177-1.096,0.265-1.902,0.265c-0.542,0-1.021-0.06-1.431-0.177c-0.411-0.116-0.756-0.321-1.034-0.615
		c-0.278-0.293-0.487-0.683-0.627-1.166c-0.14-0.484-0.209-1.094-0.209-1.826v-3.344L186.763,527.731L186.763,527.731z"/>
	<path fill="#FFFFFF" d="M204.429,537.852c-0.44,0.353-0.994,0.632-1.661,0.836c-0.667,0.205-1.375,0.309-2.123,0.309
		c-0.836,0-1.563-0.136-2.179-0.406c-0.615-0.271-1.121-0.66-1.518-1.166c-0.396-0.507-0.69-1.111-0.88-1.814
		c-0.19-0.704-0.286-1.496-0.286-2.376c0-1.878,0.418-3.309,1.254-4.29c0.836-0.982,2.031-1.475,3.586-1.475
		c0.499,0,0.997,0.056,1.496,0.165s0.946,0.318,1.342,0.627c0.396,0.309,0.72,0.744,0.969,1.31c0.249,0.563,0.374,1.31,0.374,2.232
		c0,0.483-0.045,1.021-0.133,1.605h-7.062c0,0.646,0.065,1.218,0.198,1.716c0.132,0.499,0.337,0.921,0.615,1.266
		c0.279,0.346,0.643,0.608,1.09,0.792c0.446,0.185,0.992,0.274,1.639,0.274c0.499,0,0.998-0.088,1.496-0.264
		c0.498-0.177,0.873-0.382,1.122-0.616L204.429,537.852z M200.645,529.008c-0.866,0-1.56,0.229-2.079,0.683
		c-0.521,0.454-0.833,1.231-0.936,2.331h5.456c0-1.113-0.212-1.896-0.638-2.343C202.024,529.231,201.423,529.008,200.645,529.008z"
		/>
	<path fill="#FFFFFF" d="M214.835,538.006c-0.439,0.322-0.96,0.568-1.562,0.736c-0.603,0.169-1.232,0.253-1.893,0.253
		c-0.851,0-1.569-0.136-2.155-0.406c-0.587-0.271-1.067-0.66-1.441-1.166c-0.374-0.507-0.646-1.115-0.813-1.826
		c-0.17-0.712-0.254-1.5-0.254-2.364c0-1.862,0.41-3.289,1.232-4.279c0.821-0.989,2.002-1.484,3.542-1.484
		c0.704,0,1.301,0.056,1.793,0.165c0.491,0.109,0.936,0.269,1.331,0.474l-0.506,1.518c-0.338-0.19-0.712-0.341-1.122-0.45
		c-0.411-0.109-0.851-0.165-1.32-0.165c-2.083,0-3.124,1.407-3.124,4.225c0,0.558,0.056,1.089,0.165,1.595
		c0.11,0.506,0.293,0.954,0.55,1.342c0.257,0.39,0.595,0.701,1.013,0.937c0.418,0.234,0.935,0.352,1.551,0.352
		c0.528,0,1.001-0.08,1.419-0.241c0.418-0.162,0.759-0.345,1.023-0.551L214.835,538.006z"/>
	<path fill="#FFFFFF" d="M220.027,533.781h-1.012v4.95h-1.761v-11h1.761v4.972l0.945-0.309l3.521-4.663h1.914l-3.41,4.422
		l-0.924,0.727l1.144,0.88l3.674,4.973h-2.178L220.027,533.781z"/>
	<path fill="#FFFFFF" d="M226.914,533.231c0-1.862,0.414-3.289,1.243-4.279c0.829-0.989,2.021-1.484,3.575-1.484
		c0.821,0,1.536,0.136,2.145,0.406c0.608,0.272,1.111,0.66,1.507,1.166c0.396,0.507,0.689,1.115,0.881,1.826
		c0.189,0.712,0.285,1.5,0.285,2.365c0,1.861-0.415,3.288-1.242,4.278c-0.829,0.989-2.021,1.484-3.575,1.484
		c-0.822,0-1.537-0.136-2.146-0.406s-1.11-0.66-1.507-1.166c-0.396-0.507-0.689-1.115-0.88-1.826
		C227.009,534.885,226.914,534.097,226.914,533.231z M228.74,533.231c0,0.558,0.055,1.093,0.165,1.605s0.282,0.96,0.517,1.342
		c0.234,0.381,0.542,0.689,0.925,0.925c0.382,0.234,0.843,0.352,1.386,0.352c1.995,0.016,2.992-1.393,2.992-4.224
		c0-0.572-0.056-1.114-0.165-1.628c-0.11-0.515-0.283-0.962-0.518-1.343c-0.234-0.382-0.543-0.686-0.924-0.913
		c-0.382-0.228-0.844-0.341-1.386-0.341C229.737,528.993,228.74,530.401,228.74,533.231z"/>
	<path fill="#FFFFFF" d="M246.186,532.22l0.065-1.364h-0.065l-0.902,1.408l-4.95,6.469h-1.012v-11h1.76v6.71l-0.065,1.298h0.088
		l0.857-1.364l4.95-6.644h1.034v11h-1.76V532.22L246.186,532.22z M241.852,523.287c0.146,0.675,0.398,1.145,0.759,1.408
		c0.36,0.263,0.772,0.396,1.243,0.396c0.469,0,0.887-0.14,1.254-0.418c0.367-0.279,0.616-0.732,0.748-1.364l1.319,0.418
		c-0.132,0.852-0.51,1.505-1.133,1.958c-0.624,0.455-1.368,0.683-2.232,0.683c-0.396,0-0.789-0.051-1.178-0.153
		c-0.388-0.102-0.736-0.257-1.045-0.463c-0.308-0.205-0.571-0.469-0.792-0.792c-0.22-0.322-0.366-0.703-0.439-1.144L241.852,523.287
		z"/>
	<path fill="#FFFFFF" d="M264.709,538.006c-0.439,0.322-0.96,0.568-1.562,0.736c-0.603,0.169-1.232,0.253-1.893,0.253
		c-0.851,0-1.569-0.136-2.155-0.406c-0.587-0.271-1.067-0.66-1.441-1.166c-0.374-0.507-0.646-1.115-0.814-1.826
		c-0.169-0.712-0.253-1.5-0.253-2.364c0-1.862,0.41-3.289,1.232-4.279c0.821-0.989,2.002-1.484,3.542-1.484
		c0.704,0,1.301,0.056,1.793,0.165c0.491,0.109,0.935,0.269,1.331,0.474l-0.506,1.518c-0.338-0.19-0.712-0.341-1.122-0.45
		c-0.411-0.109-0.852-0.165-1.32-0.165c-2.083,0-3.124,1.407-3.124,4.225c0,0.558,0.056,1.089,0.165,1.595
		c0.11,0.506,0.293,0.954,0.55,1.342c0.257,0.39,0.595,0.701,1.013,0.937c0.418,0.234,0.935,0.352,1.551,0.352
		c0.528,0,1.001-0.08,1.419-0.241c0.418-0.162,0.759-0.345,1.022-0.551L264.709,538.006z"/>
	<path fill="#FFFFFF" d="M271.573,538.819c-0.25,0.088-0.51,0.14-0.781,0.153c-0.271,0.015-0.517,0.021-0.736,0.021
		c-1.335,0-2.361-0.469-3.08-1.407c-0.72-0.938-1.078-2.391-1.078-4.356c0-1.877,0.396-3.291,1.188-4.245
		c0.792-0.953,1.937-1.431,3.433-1.431c0.411,0,0.763,0.029,1.056,0.088v-4.313h1.672v4.334c0.264-0.044,0.499-0.073,0.704-0.088
		c0.205-0.014,0.403-0.021,0.594-0.021c1.452,0,2.544,0.422,3.278,1.266c0.733,0.844,1.1,2.239,1.1,4.19
		c0,0.924-0.099,1.756-0.297,2.497c-0.198,0.74-0.487,1.367-0.869,1.881c-0.382,0.515-0.847,0.909-1.396,1.188
		c-0.55,0.278-1.186,0.418-1.903,0.418c-0.132,0-0.327-0.011-0.583-0.032c-0.257-0.021-0.466-0.063-0.627-0.121v4.29h-1.672V538.819
		z M270.495,537.543c0.176,0,0.353-0.007,0.528-0.021c0.176-0.016,0.366-0.044,0.572-0.089v-8.338
		c-0.177-0.028-0.342-0.052-0.495-0.065c-0.154-0.016-0.342-0.021-0.562-0.021c-0.91,0-1.617,0.341-2.123,1.022
		c-0.506,0.683-0.759,1.749-0.759,3.201c0,0.615,0.055,1.188,0.165,1.716c0.11,0.527,0.282,0.985,0.517,1.375
		c0.234,0.389,0.531,0.688,0.892,0.901C269.59,537.438,270.01,537.543,270.495,537.543z M274.213,529.008
		c-0.176,0-0.334,0.003-0.473,0.011c-0.14,0.009-0.312,0.04-0.517,0.1v8.359c0.146,0.029,0.312,0.049,0.494,0.056
		c0.184,0.008,0.386,0.011,0.605,0.011c0.938,0,1.646-0.388,2.123-1.165s0.715-1.898,0.715-3.366c0-1.247-0.216-2.226-0.648-2.938
		C276.079,529.363,275.313,529.008,274.213,529.008z"/>
	<path fill="#FFFFFF" d="M289.613,537.852c-0.44,0.353-0.994,0.632-1.661,0.836c-0.667,0.205-1.375,0.309-2.123,0.309
		c-0.836,0-1.562-0.136-2.178-0.406s-1.122-0.66-1.519-1.166c-0.396-0.507-0.689-1.111-0.88-1.814
		c-0.189-0.704-0.286-1.496-0.286-2.376c0-1.878,0.418-3.309,1.255-4.29c0.836-0.982,2.03-1.475,3.586-1.475
		c0.499,0,0.997,0.056,1.495,0.165c0.499,0.109,0.946,0.318,1.343,0.627c0.396,0.309,0.719,0.744,0.968,1.31
		c0.249,0.563,0.374,1.31,0.374,2.232c0,0.483-0.044,1.021-0.132,1.605h-7.063c0,0.646,0.066,1.218,0.198,1.716
		c0.132,0.499,0.337,0.921,0.616,1.266c0.278,0.346,0.642,0.608,1.089,0.792c0.447,0.185,0.993,0.274,1.639,0.274
		c0.499,0,0.998-0.088,1.496-0.264c0.498-0.177,0.873-0.382,1.122-0.616L289.613,537.852z M285.829,529.008
		c-0.866,0-1.559,0.229-2.079,0.683s-0.833,1.231-0.935,2.331h5.456c0-1.113-0.212-1.896-0.639-2.343
		C287.207,529.231,286.606,529.008,285.829,529.008z"/>
	<path fill="#FFFFFF" d="M292.759,527.731h1.21l0.33,1.319h0.089c0.337-0.514,0.772-0.904,1.309-1.178
		c0.535-0.271,1.146-0.406,1.837-0.406c1.467,0,2.56,0.434,3.278,1.298c0.718,0.865,1.078,2.28,1.078,4.246
		c0,0.924-0.121,1.756-0.363,2.497c-0.242,0.74-0.583,1.367-1.023,1.881c-0.439,0.515-0.972,0.909-1.595,1.188
		c-0.623,0.278-1.316,0.418-2.079,0.418c-0.543,0-0.972-0.032-1.287-0.099c-0.314-0.066-0.657-0.181-1.022-0.342v4.576h-1.761
		V527.731L292.759,527.731z M297.203,529.008c-0.748,0-1.339,0.194-1.771,0.583c-0.434,0.39-0.737,0.979-0.913,1.771v5.456
		c0.264,0.206,0.563,0.362,0.901,0.473c0.337,0.11,0.785,0.165,1.343,0.165c1.012,0,1.814-0.377,2.408-1.133
		c0.595-0.755,0.892-1.866,0.892-3.333c0-0.602-0.052-1.147-0.154-1.64c-0.103-0.49-0.268-0.908-0.495-1.254
		c-0.228-0.345-0.521-0.611-0.88-0.804C298.174,529.104,297.731,529.008,297.203,529.008z"/>
	<path fill="#FFFFFF" d="M306.421,531.934c0.353-0.059,0.689-0.1,1.012-0.12c0.322-0.022,0.632-0.033,0.925-0.033
		c0.748,0,1.375,0.085,1.881,0.253c0.506,0.169,0.914,0.399,1.221,0.692c0.309,0.294,0.525,0.643,0.65,1.046
		c0.123,0.402,0.186,0.831,0.186,1.286c0,1.335-0.369,2.304-1.109,2.904c-0.741,0.603-1.94,0.901-3.598,0.901
		c-0.938,0-1.914-0.044-2.926-0.133v-11h1.76L306.421,531.934L306.421,531.934z M306.421,537.191
		c0.543,0.088,1.063,0.132,1.563,0.132c0.924,0,1.567-0.181,1.936-0.539c0.368-0.359,0.551-0.869,0.551-1.528
		c0-0.587-0.182-1.071-0.539-1.452c-0.36-0.382-0.987-0.571-1.883-0.571c-0.248,0-0.52,0.008-0.813,0.021
		c-0.295,0.015-0.564,0.059-0.814,0.132L306.421,537.191L306.421,537.191z M314.032,527.731h1.76v11h-1.76V527.731z"/>
	<path fill="#FFFFFF" d="M328.353,543.571c-0.674-0.704-1.245-1.479-1.715-2.321c-0.471-0.843-0.848-1.708-1.135-2.596
		c-0.285-0.888-0.494-1.782-0.627-2.685c-0.131-0.901-0.197-1.764-0.197-2.585c0-0.807,0.066-1.657,0.197-2.553
		c0.133-0.895,0.346-1.793,0.639-2.694s0.679-1.786,1.154-2.65c0.476-0.865,1.062-1.672,1.75-2.42l1.057,0.771
		c-0.588,0.747-1.075,1.521-1.463,2.32c-0.389,0.8-0.701,1.609-0.936,2.432c-0.235,0.822-0.4,1.639-0.496,2.452
		c-0.096,0.814-0.143,1.596-0.143,2.344c0,0.704,0.055,1.472,0.165,2.3c0.109,0.828,0.285,1.656,0.527,2.485
		c0.242,0.828,0.558,1.64,0.945,2.432s0.854,1.511,1.397,2.155L328.353,543.571z"/>
	<path fill="#FFFFFF" d="M340.3,532.197l0.133-2.09h-0.11l-0.791,1.693l-2.662,4.313h-0.615l-2.772-4.313l-0.726-1.693h-0.088
		l0.176,2.067v6.557h-1.629v-11h1.738l3.08,4.928l0.639,1.275h0.043l0.66-1.319l2.883-4.884h1.76v11H340.3V532.197z"/>
	<path fill="#FFFFFF" d="M348.647,534.859l0.618,2.111h0.109l0.486-2.134l2.143-7.105h1.76l-3.256,9.878
		c-0.25,0.719-0.496,1.415-0.738,2.09c-0.239,0.675-0.51,1.275-0.803,1.805c-0.293,0.527-0.623,0.949-0.99,1.266
		c-0.364,0.314-0.791,0.473-1.274,0.473c-0.527,0-0.961-0.073-1.297-0.22l0.307-1.519c0.191,0.073,0.375,0.109,0.551,0.109
		c0.41,0,0.808-0.217,1.188-0.648c0.381-0.434,0.697-1.178,0.945-2.232l-4.423-11h2.025L348.647,534.859z"/>
	<path fill="#FFFFFF" d="M356.712,533.825v-1.431h1.539c0.264,0,0.525-0.044,0.781-0.132s0.487-0.209,0.692-0.362
		c0.205-0.154,0.369-0.337,0.494-0.551c0.125-0.213,0.188-0.437,0.188-0.671c0-0.571-0.197-0.976-0.595-1.21
		c-0.396-0.233-0.989-0.353-1.78-0.353c-0.572,0-1.099,0.086-1.574,0.257s-0.846,0.335-1.111,0.491l-0.506-1.342
		c0.441-0.249,0.957-0.47,1.551-0.66c0.597-0.19,1.304-0.286,2.123-0.286c2.437,0,3.652,0.902,3.652,2.706
		c0,0.514-0.164,1.016-0.494,1.507c-0.33,0.492-0.803,0.84-1.42,1.045v0.089c0.865,0.161,1.471,0.469,1.816,0.924
		c0.344,0.454,0.516,1.057,0.516,1.805c0,0.47-0.096,0.901-0.285,1.298c-0.19,0.396-0.477,0.741-0.856,1.034
		c-0.384,0.294-0.863,0.523-1.441,0.692c-0.58,0.168-1.252,0.253-2.014,0.253c-0.748,0-1.367-0.065-1.859-0.197
		c-0.49-0.133-0.934-0.294-1.33-0.484l0.506-1.451c0.338,0.19,0.744,0.337,1.222,0.439c0.477,0.102,0.993,0.153,1.551,0.153
		c0.895,0,1.576-0.153,2.047-0.462c0.469-0.309,0.703-0.776,0.703-1.407c0-0.528-0.222-0.942-0.66-1.243
		c-0.439-0.302-1.166-0.451-2.178-0.451H356.712L356.712,533.825z"/>
	<path fill="#FFFFFF" d="M367.118,531.934c0.352-0.059,0.688-0.1,1.012-0.12c0.322-0.022,0.631-0.033,0.924-0.033
		c0.748,0,1.375,0.085,1.881,0.253c0.507,0.169,0.912,0.399,1.222,0.692c0.309,0.293,0.524,0.643,0.647,1.046
		c0.125,0.402,0.188,0.831,0.188,1.286c0,1.335-0.371,2.304-1.111,2.904s-1.938,0.901-3.596,0.901c-0.939,0-1.914-0.044-2.926-0.133
		v-11h1.76L367.118,531.934L367.118,531.934z M367.118,537.191c0.541,0.088,1.063,0.132,1.561,0.132c0.927,0,1.57-0.181,1.938-0.539
		c0.365-0.359,0.549-0.869,0.549-1.528c0-0.587-0.18-1.071-0.539-1.452c-0.359-0.382-0.986-0.571-1.881-0.571
		c-0.25,0-0.521,0.008-0.814,0.021c-0.293,0.015-0.563,0.059-0.813,0.132L367.118,537.191L367.118,537.191z M374.728,527.731h1.761
		v11h-1.761V527.731z"/>
	<path fill="#FFFFFF" d="M382.649,533.781h-1.013v4.95h-1.76v-11h1.76v4.972l0.945-0.309l3.52-4.663h1.914l-3.409,4.422
		l-0.925,0.727l1.146,0.88l3.674,4.973h-2.178L382.649,533.781z"/>
	<path fill="#FFFFFF" d="M390.218,528.546c0.558-0.338,1.207-0.587,1.947-0.748c0.74-0.162,1.514-0.242,2.32-0.242
		c0.764,0,1.375,0.104,1.838,0.309c0.461,0.206,0.813,0.474,1.055,0.803c0.242,0.33,0.404,0.693,0.484,1.09s0.121,0.792,0.121,1.188
		c0,0.88-0.021,1.737-0.066,2.573c-0.043,0.837-0.064,1.628-0.064,2.376c0,0.543,0.021,1.057,0.064,1.54
		c0.045,0.483,0.125,0.933,0.242,1.343h-1.297l-0.463-1.54h-0.109c-0.133,0.206-0.297,0.406-0.496,0.604
		c-0.197,0.197-0.436,0.374-0.715,0.527c-0.277,0.153-0.603,0.283-0.967,0.386c-0.367,0.102-0.785,0.153-1.254,0.153
		c-0.472,0-0.906-0.073-1.312-0.221c-0.402-0.146-0.75-0.354-1.045-0.627c-0.293-0.271-0.523-0.598-0.691-0.979
		c-0.17-0.381-0.254-0.813-0.254-1.298c0-0.646,0.133-1.185,0.396-1.617c0.264-0.432,0.635-0.776,1.11-1.033
		c0.477-0.257,1.048-0.439,1.716-0.551c0.668-0.109,1.403-0.165,2.211-0.165c0.205,0,0.407,0,0.604,0s0.4,0.016,0.605,0.045
		c0.043-0.44,0.065-0.837,0.065-1.188c0-0.808-0.162-1.371-0.483-1.694c-0.324-0.322-0.91-0.483-1.761-0.483
		c-0.25,0-0.518,0.02-0.803,0.058c-0.287,0.038-0.58,0.09-0.881,0.157c-0.301,0.068-0.586,0.151-0.857,0.25
		c-0.271,0.098-0.51,0.206-0.715,0.327L390.218,528.546z M393.341,537.367c0.412,0,0.777-0.055,1.103-0.165
		c0.321-0.109,0.6-0.249,0.836-0.418c0.233-0.168,0.428-0.355,0.582-0.562c0.153-0.206,0.268-0.402,0.342-0.594v-1.826
		c-0.205-0.015-0.414-0.024-0.627-0.033c-0.213-0.007-0.422-0.011-0.627-0.011c-0.455,0-0.898,0.025-1.332,0.077
		c-0.433,0.051-0.814,0.146-1.144,0.285c-0.33,0.14-0.596,0.33-0.793,0.572c-0.196,0.242-0.297,0.547-0.297,0.913
		c0,0.514,0.185,0.935,0.551,1.265C392.3,537.202,392.769,537.367,393.341,537.367z"/>
	<path fill="#FFFFFF" d="M408.036,533.869h-4.971v4.862h-1.761v-11h1.761v4.598h4.971v-4.598h1.76v11h-1.76V533.869z"/>
	<path fill="#FFFFFF" d="M420.202,529.271h-3.453v9.46h-1.76v-9.46h-3.455v-1.54h8.668V529.271z"/>
	<path fill="#FFFFFF" d="M423.7,531.934c0.352-0.059,0.688-0.1,1.012-0.12c0.322-0.022,0.631-0.033,0.924-0.033
		c0.748,0,1.375,0.085,1.883,0.253c0.507,0.169,0.912,0.399,1.222,0.692c0.307,0.294,0.522,0.643,0.647,1.046
		c0.125,0.402,0.188,0.831,0.188,1.286c0,1.335-0.371,2.304-1.111,2.904s-1.938,0.901-3.598,0.901c-0.938,0-1.914-0.044-2.926-0.133
		v-11h1.76L423.7,531.934L423.7,531.934z M423.7,537.191c0.543,0.088,1.063,0.132,1.563,0.132c0.925,0,1.568-0.181,1.937-0.539
		c0.368-0.359,0.551-0.869,0.551-1.528c0-0.587-0.18-1.071-0.539-1.452c-0.359-0.382-0.986-0.571-1.881-0.571
		c-0.25,0-0.521,0.008-0.814,0.021s-0.563,0.059-0.813,0.132v3.806H423.7z M431.312,527.731h1.761v11h-1.761V527.731z"/>
	<path fill="#FFFFFF" d="M435.844,537.785c0-0.353,0.117-0.639,0.353-0.857c0.233-0.221,0.535-0.33,0.901-0.33
		c0.455,0,0.826,0.161,1.111,0.483c0.285,0.323,0.43,0.792,0.43,1.408c0,0.527-0.073,0.989-0.221,1.386
		c-0.146,0.396-0.338,0.737-0.572,1.023c-0.233,0.285-0.489,0.521-0.77,0.703c-0.28,0.184-0.56,0.319-0.836,0.407l-0.551-0.857
		c0.528-0.205,0.92-0.524,1.178-0.957c0.256-0.434,0.385-0.869,0.385-1.31c-0.133,0.044-0.256,0.065-0.373,0.065
		c-0.295,0-0.539-0.1-0.738-0.297C435.944,538.456,435.844,538.167,435.844,537.785z"/>
	<path fill="#FFFFFF" d="M452.081,529.271h-3.455v9.46h-1.76v-9.46h-3.453v-1.54h8.668V529.271z"/>
	<path fill="#FFFFFF" d="M453.64,528.546c0.56-0.338,1.207-0.587,1.947-0.748c0.74-0.162,1.516-0.242,2.322-0.242
		c0.762,0,1.375,0.104,1.836,0.309c0.463,0.206,0.813,0.474,1.057,0.803c0.242,0.33,0.402,0.693,0.484,1.09
		c0.08,0.396,0.121,0.792,0.121,1.188c0,0.88-0.023,1.737-0.066,2.573c-0.045,0.837-0.065,1.628-0.065,2.376
		c0,0.543,0.021,1.057,0.065,1.54c0.043,0.483,0.125,0.933,0.242,1.343h-1.299l-0.461-1.54h-0.111
		c-0.131,0.206-0.297,0.406-0.494,0.604c-0.196,0.197-0.438,0.374-0.715,0.527c-0.279,0.153-0.602,0.283-0.969,0.386
		c-0.367,0.102-0.785,0.153-1.254,0.153s-0.906-0.073-1.31-0.221c-0.403-0.146-0.752-0.354-1.045-0.627
		c-0.293-0.271-0.524-0.598-0.692-0.979s-0.252-0.813-0.252-1.298c0-0.646,0.131-1.185,0.395-1.617
		c0.264-0.432,0.635-0.776,1.111-1.033c0.476-0.257,1.049-0.439,1.717-0.551c0.666-0.109,1.404-0.165,2.211-0.165
		c0.205,0,0.406,0,0.605,0c0.196,0,0.397,0.016,0.604,0.045c0.045-0.44,0.066-0.837,0.066-1.188c0-0.808-0.162-1.371-0.484-1.694
		c-0.322-0.322-0.908-0.483-1.76-0.483c-0.25,0-0.519,0.02-0.804,0.058c-0.284,0.038-0.579,0.09-0.881,0.157
		c-0.301,0.068-0.586,0.151-0.856,0.25c-0.271,0.098-0.511,0.206-0.715,0.327L453.64,528.546z M456.765,537.367
		c0.41,0,0.777-0.055,1.101-0.165c0.321-0.109,0.602-0.249,0.836-0.418c0.233-0.168,0.43-0.355,0.584-0.562s0.268-0.402,0.34-0.594
		v-1.826c-0.205-0.015-0.414-0.024-0.627-0.033c-0.213-0.007-0.422-0.011-0.627-0.011c-0.455,0-0.898,0.025-1.33,0.077
		c-0.434,0.051-0.814,0.146-1.145,0.285c-0.33,0.14-0.595,0.33-0.791,0.572c-0.199,0.242-0.3,0.547-0.3,0.913
		c0,0.514,0.185,0.935,0.552,1.265C455.724,537.201,456.194,537.367,456.765,537.367z"/>
	<path fill="#FFFFFF" d="M471.462,533.869h-4.971v4.862h-1.76v-11h1.76v4.598h4.971v-4.598h1.76v11h-1.76V533.869z"/>
	<path fill="#FFFFFF" d="M486.489,541.525H485.3l-0.33-2.794h-8.358v-11h1.76v9.46h4.772v-9.46h1.763v9.46h1.584L486.489,541.525
		L486.489,541.525z"/>
	<path fill="#FFFFFF" d="M488.05,533.231c0-1.862,0.414-3.289,1.244-4.279c0.828-0.989,2.021-1.484,3.574-1.484
		c0.819,0,1.537,0.136,2.145,0.406c0.609,0.272,1.111,0.66,1.508,1.166c0.396,0.507,0.689,1.115,0.88,1.826
		c0.19,0.712,0.286,1.5,0.286,2.365c0,1.861-0.413,3.288-1.243,4.278c-0.828,0.989-2.021,1.484-3.574,1.484
		c-0.822,0-1.537-0.136-2.146-0.406s-1.11-0.66-1.508-1.166c-0.396-0.507-0.688-1.115-0.879-1.826
		C488.144,534.885,488.05,534.097,488.05,533.231z M489.876,533.231c0,0.558,0.055,1.093,0.166,1.605
		c0.109,0.513,0.281,0.96,0.516,1.342c0.234,0.381,0.543,0.689,0.925,0.925c0.383,0.233,0.844,0.352,1.387,0.352
		c1.994,0.016,2.992-1.393,2.992-4.224c0-0.572-0.056-1.114-0.166-1.628c-0.109-0.515-0.281-0.962-0.517-1.343
		c-0.233-0.382-0.543-0.686-0.924-0.913c-0.383-0.228-0.844-0.341-1.387-0.341C490.874,528.993,489.876,530.401,489.876,533.231z"/>
	<path fill="#FFFFFF" d="M500.458,527.731h1.211l0.33,1.319h0.088c0.336-0.514,0.773-0.904,1.31-1.178
		c0.534-0.271,1.146-0.406,1.836-0.406c1.467,0,2.561,0.434,3.278,1.298c0.718,0.865,1.078,2.28,1.078,4.246
		c0,0.924-0.121,1.756-0.363,2.497c-0.241,0.74-0.584,1.367-1.022,1.881c-0.439,0.515-0.973,0.909-1.596,1.188
		c-0.623,0.278-1.316,0.418-2.078,0.418c-0.543,0-0.974-0.032-1.287-0.099c-0.316-0.066-0.656-0.181-1.023-0.342v4.576h-1.76
		L500.458,527.731L500.458,527.731z M504.901,529.008c-0.748,0-1.339,0.194-1.771,0.583c-0.434,0.39-0.738,0.979-0.914,1.771v5.456
		c0.265,0.206,0.564,0.362,0.902,0.473s0.785,0.165,1.342,0.165c1.012,0,1.814-0.377,2.41-1.133
		c0.594-0.755,0.891-1.866,0.891-3.333c0-0.602-0.053-1.147-0.153-1.64c-0.104-0.49-0.269-0.908-0.496-1.254
		c-0.228-0.345-0.521-0.611-0.879-0.804C505.874,529.104,505.429,529.008,504.901,529.008z"/>
	<path fill="#FFFFFF" d="M514.12,531.934c0.352-0.059,0.688-0.1,1.012-0.12c0.322-0.022,0.631-0.033,0.924-0.033
		c0.748,0,1.375,0.085,1.882,0.253c0.506,0.169,0.911,0.399,1.221,0.692c0.309,0.293,0.524,0.643,0.647,1.046
		c0.125,0.402,0.188,0.831,0.188,1.286c0,1.335-0.371,2.304-1.111,2.904s-1.938,0.901-3.596,0.901c-0.939,0-1.914-0.044-2.926-0.133
		v-11h1.76L514.12,531.934L514.12,531.934z M514.12,537.191c0.541,0.088,1.063,0.132,1.561,0.132c0.927,0,1.57-0.181,1.938-0.539
		c0.365-0.359,0.549-0.869,0.549-1.528c0-0.587-0.18-1.071-0.539-1.452c-0.359-0.382-0.986-0.571-1.881-0.571
		c-0.25,0-0.521,0.008-0.814,0.021c-0.293,0.015-0.563,0.059-0.813,0.132L514.12,537.191L514.12,537.191z M521.731,527.731h1.76v11
		h-1.76V527.731z"/>
	<path fill="#FFFFFF" d="M526.261,537.785c0-0.353,0.117-0.639,0.353-0.857c0.233-0.221,0.535-0.33,0.901-0.33
		c0.455,0,0.826,0.161,1.111,0.483c0.285,0.323,0.43,0.792,0.43,1.408c0,0.527-0.073,0.989-0.221,1.386
		c-0.146,0.396-0.338,0.737-0.572,1.023c-0.233,0.285-0.489,0.521-0.77,0.703c-0.28,0.184-0.56,0.319-0.836,0.407l-0.551-0.857
		c0.528-0.205,0.92-0.524,1.178-0.957c0.256-0.434,0.385-0.869,0.385-1.31c-0.133,0.044-0.256,0.065-0.373,0.065
		c-0.295,0-0.539-0.1-0.738-0.297C526.362,538.456,526.261,538.167,526.261,537.785z"/>
	<path fill="#FFFFFF" d="M142.016,560.546c0.557-0.338,1.206-0.587,1.946-0.748c0.741-0.162,1.515-0.242,2.321-0.242
		c0.762,0,1.375,0.104,1.837,0.309c0.462,0.206,0.814,0.474,1.057,0.803c0.241,0.33,0.402,0.693,0.483,1.09s0.121,0.792,0.121,1.188
		c0,0.88-0.022,1.737-0.066,2.573c-0.044,0.837-0.065,1.628-0.065,2.376c0,0.543,0.021,1.057,0.065,1.54
		c0.045,0.483,0.125,0.933,0.242,1.343h-1.298l-0.462-1.54h-0.11c-0.132,0.206-0.297,0.406-0.495,0.604
		c-0.197,0.197-0.437,0.374-0.715,0.527s-0.602,0.283-0.968,0.386c-0.367,0.102-0.785,0.153-1.254,0.153
		c-0.47,0-0.906-0.073-1.309-0.221c-0.404-0.146-0.752-0.354-1.045-0.627c-0.295-0.271-0.525-0.598-0.693-0.979
		s-0.253-0.813-0.253-1.298c0-0.646,0.132-1.185,0.396-1.617c0.265-0.432,0.635-0.776,1.111-1.033
		c0.476-0.257,1.048-0.439,1.716-0.551c0.667-0.109,1.404-0.165,2.211-0.165c0.205,0,0.407,0,0.605,0
		c0.197,0,0.398,0.016,0.604,0.045c0.044-0.44,0.066-0.837,0.066-1.188c0-0.808-0.162-1.371-0.484-1.694
		c-0.323-0.322-0.91-0.483-1.76-0.483c-0.25,0-0.517,0.02-0.803,0.058s-0.58,0.09-0.88,0.157c-0.302,0.068-0.588,0.151-0.858,0.25
		c-0.272,0.098-0.51,0.206-0.715,0.327L142.016,560.546z M145.14,569.367c0.409,0,0.776-0.055,1.1-0.165
		c0.322-0.109,0.601-0.249,0.836-0.418c0.234-0.168,0.429-0.355,0.583-0.562c0.154-0.205,0.267-0.402,0.341-0.594v-1.826
		c-0.206-0.015-0.415-0.024-0.627-0.033c-0.213-0.007-0.422-0.011-0.627-0.011c-0.455,0-0.897,0.025-1.331,0.077
		c-0.433,0.051-0.813,0.146-1.144,0.285c-0.33,0.14-0.594,0.33-0.792,0.572s-0.297,0.547-0.297,0.913
		c0,0.514,0.183,0.935,0.55,1.265S144.568,569.367,145.14,569.367z"/>
	<path fill="#FFFFFF" d="M155.876,565.781h-1.012v4.95h-1.76v-11h1.76v4.972l0.946-0.309l3.52-4.663h1.914l-3.41,4.422l-0.924,0.727
		l1.145,0.88l3.674,4.973h-2.179L155.876,565.781z"/>
	<path fill="#FFFFFF" d="M170.638,561.271h-3.454v9.46h-1.761v-9.46h-3.453v-1.54h8.668V561.271L170.638,561.271z"/>
	<path fill="#FFFFFF" d="M180.054,569.852c-0.44,0.353-0.994,0.632-1.661,0.836c-0.667,0.205-1.375,0.309-2.123,0.309
		c-0.836,0-1.563-0.136-2.179-0.406c-0.615-0.271-1.121-0.66-1.518-1.166c-0.396-0.507-0.69-1.111-0.88-1.814
		c-0.19-0.704-0.286-1.496-0.286-2.376c0-1.878,0.418-3.309,1.254-4.29c0.836-0.982,2.031-1.475,3.586-1.475
		c0.499,0,0.997,0.056,1.496,0.165s0.946,0.318,1.342,0.627c0.396,0.309,0.72,0.744,0.969,1.31c0.249,0.563,0.374,1.31,0.374,2.232
		c0,0.483-0.045,1.021-0.133,1.605h-7.062c0,0.646,0.065,1.218,0.198,1.716c0.132,0.499,0.337,0.921,0.615,1.266
		c0.279,0.346,0.643,0.608,1.09,0.792c0.446,0.185,0.992,0.274,1.639,0.274c0.499,0,0.998-0.088,1.496-0.264
		c0.498-0.177,0.873-0.382,1.122-0.616L180.054,569.852z M176.27,561.008c-0.866,0-1.56,0.229-2.079,0.683
		c-0.521,0.454-0.833,1.231-0.936,2.331h5.456c0-1.113-0.212-1.896-0.638-2.343S177.047,561.008,176.27,561.008z"/>
	<path fill="#FFFFFF" d="M183.2,559.731h1.21l0.33,1.319h0.088c0.337-0.514,0.773-0.904,1.31-1.178
		c0.534-0.271,1.146-0.406,1.837-0.406c1.467,0,2.56,0.434,3.277,1.298c0.719,0.865,1.078,2.28,1.078,4.246
		c0,0.924-0.121,1.756-0.363,2.497c-0.241,0.74-0.583,1.367-1.022,1.881c-0.44,0.515-0.972,0.909-1.595,1.188
		c-0.623,0.278-1.316,0.418-2.079,0.418c-0.543,0-0.973-0.032-1.287-0.099c-0.315-0.066-0.657-0.181-1.023-0.342v4.576h-1.76
		V559.731L183.2,559.731z M187.644,561.008c-0.748,0-1.339,0.194-1.771,0.583c-0.433,0.39-0.736,0.979-0.913,1.771v5.456
		c0.265,0.206,0.564,0.362,0.902,0.473c0.337,0.11,0.785,0.165,1.342,0.165c1.012,0,1.815-0.377,2.409-1.133
		c0.594-0.755,0.891-1.866,0.891-3.333c0-0.602-0.052-1.147-0.153-1.64c-0.104-0.49-0.269-0.908-0.495-1.254
		c-0.229-0.345-0.521-0.611-0.88-0.804C188.615,561.104,188.172,561.008,187.644,561.008z"/>
	<path fill="#FFFFFF" d="M196.862,563.934c0.352-0.059,0.688-0.1,1.012-0.12c0.323-0.022,0.631-0.033,0.924-0.033
		c0.748,0,1.375,0.085,1.882,0.253c0.506,0.169,0.912,0.399,1.221,0.692c0.308,0.294,0.523,0.643,0.648,1.046
		c0.125,0.402,0.188,0.831,0.188,1.286c0,1.335-0.371,2.304-1.111,2.904s-1.938,0.901-3.597,0.901c-0.939,0-1.914-0.044-2.926-0.133
		v-11h1.76V563.934L196.862,563.934z M196.862,569.191c0.542,0.088,1.063,0.132,1.562,0.132c0.925,0,1.569-0.181,1.937-0.539
		c0.366-0.359,0.55-0.869,0.55-1.528c0-0.587-0.18-1.071-0.539-1.452c-0.358-0.382-0.986-0.571-1.881-0.571
		c-0.25,0-0.521,0.008-0.814,0.021c-0.293,0.015-0.564,0.059-0.813,0.132V569.191L196.862,569.191z M204.473,559.731h1.76v11h-1.76
		V559.731z"/>
	<path fill="#FFFFFF" d="M209.006,569.785c0-0.353,0.117-0.639,0.353-0.857c0.233-0.221,0.535-0.33,0.901-0.33
		c0.455,0,0.825,0.161,1.111,0.483c0.286,0.323,0.429,0.792,0.429,1.408c0,0.527-0.073,0.989-0.22,1.386
		c-0.146,0.396-0.337,0.737-0.572,1.023c-0.234,0.285-0.491,0.521-0.77,0.703c-0.279,0.185-0.558,0.319-0.836,0.407l-0.55-0.857
		c0.527-0.205,0.92-0.524,1.177-0.957c0.256-0.434,0.385-0.869,0.385-1.31c-0.132,0.044-0.257,0.065-0.374,0.065
		c-0.293,0-0.539-0.1-0.737-0.297C209.105,570.455,209.006,570.167,209.006,569.785z"/>
	<path fill="#FFFFFF" d="M221.612,565.1l-3.696-5.367h2.156l2.09,3.035l0.616,1.255l0.638-1.255l2.134-3.035h1.98l-3.718,5.279
		l3.938,5.721h-2.09l-2.332-3.345l-0.66-1.319l-0.682,1.319l-2.376,3.345h-1.958L221.612,565.1z"/>
	<path fill="#FFFFFF" d="M233.061,566.859l0.619,2.111h0.109l0.485-2.134l2.142-7.105h1.76l-3.256,9.878
		c-0.25,0.719-0.495,1.415-0.736,2.09c-0.242,0.675-0.511,1.275-0.804,1.805c-0.293,0.527-0.624,0.949-0.989,1.266
		c-0.367,0.314-0.792,0.473-1.276,0.473c-0.528,0-0.961-0.073-1.298-0.22l0.308-1.519c0.19,0.073,0.374,0.109,0.55,0.109
		c0.411,0,0.808-0.217,1.188-0.648c0.381-0.434,0.696-1.178,0.946-2.232l-4.422-11h2.023L233.061,566.859z"/>
	<path fill="#FFFFFF" d="M249.486,573.525h-1.188l-0.33-2.794h-8.271l-0.33,2.794h-1.188v-4.334h1.299
		c0.116-0.161,0.271-0.451,0.462-0.869c0.189-0.418,0.377-1.004,0.561-1.76s0.344-1.694,0.484-2.816
		c0.139-1.122,0.224-2.46,0.253-4.015h6.644v9.46h1.606V573.525z M246.119,569.191v-7.92h-3.3c-0.029,0.615-0.081,1.286-0.154,2.013
		c-0.074,0.727-0.173,1.452-0.297,2.179c-0.125,0.727-0.282,1.411-0.473,2.057c-0.191,0.646-0.411,1.203-0.66,1.673L246.119,569.191
		L246.119,569.191z"/>
	<path fill="#FFFFFF" d="M251.047,565.231c0-1.862,0.414-3.289,1.243-4.279c0.829-0.989,2.021-1.484,3.575-1.484
		c0.821,0,1.536,0.136,2.145,0.406c0.608,0.272,1.111,0.66,1.508,1.166c0.396,0.507,0.688,1.115,0.88,1.826
		c0.189,0.712,0.286,1.5,0.286,2.365c0,1.861-0.415,3.288-1.243,4.278c-0.829,0.989-2.021,1.484-3.575,1.484
		c-0.822,0-1.537-0.136-2.146-0.406s-1.11-0.66-1.507-1.166c-0.396-0.507-0.689-1.115-0.88-1.826S251.047,566.097,251.047,565.231z
		 M252.873,565.231c0,0.558,0.056,1.093,0.165,1.605c0.11,0.513,0.282,0.96,0.518,1.342c0.233,0.381,0.542,0.689,0.924,0.925
		c0.382,0.234,0.843,0.352,1.386,0.352c1.995,0.016,2.992-1.393,2.992-4.224c0-0.572-0.056-1.114-0.165-1.628
		c-0.11-0.515-0.283-0.962-0.518-1.343c-0.234-0.382-0.543-0.686-0.924-0.913c-0.382-0.228-0.844-0.341-1.386-0.341
		C253.87,560.993,252.873,562.401,252.873,565.231z"/>
	<path fill="#FFFFFF" d="M266.909,565.869l-3.234,4.862h-2.023l3.476-5.038l0.748-0.66l-1.122-0.836l-2.859-4.466h1.87l3.035,4.752
		h1.145v-4.752h1.716v4.972l1.034-0.309l3.058-4.663h1.849l-2.992,4.466l-0.858,0.704l1.122,0.88l3.256,4.95h-2.09l-3.233-4.95
		h-1.145v4.95h-1.716v-5.171L266.909,565.869z"/>
	<path fill="#FFFFFF" d="M284.553,565.869h-4.973v4.862h-1.76v-11h1.76v4.598h4.972v-4.598h1.761v11h-1.761L284.553,565.869
		L284.553,565.869z"/>
	<path fill="#FFFFFF" d="M296.565,564.22l0.065-1.364h-0.065l-0.902,1.408l-4.95,6.469h-1.012v-11h1.76v6.71l-0.065,1.298h0.088
		l0.857-1.364l4.95-6.644h1.034v11h-1.76V564.22z"/>
	<path fill="#FFFFFF" d="M304.485,565.781h-1.012v4.95h-1.761v-11h1.761v4.972l0.945-0.309l3.521-4.663h1.913l-3.409,4.422
		l-0.924,0.727l1.145,0.88l3.674,4.973h-2.178L304.485,565.781z"/>
	<path fill="#FFFFFF" d="M319.093,564.22l0.066-1.364h-0.066l-0.901,1.408l-4.949,6.469h-1.012v-11h1.76v6.71l-0.066,1.298h0.088
		l0.857-1.364l4.951-6.644h1.032v11h-1.76V564.22L319.093,564.22z"/>
	<path fill="#FFFFFF" d="M323.712,555.067c0.676,0.704,1.246,1.478,1.717,2.32c0.47,0.845,0.847,1.709,1.134,2.597
		c0.284,0.888,0.493,1.781,0.627,2.684c0.133,0.902,0.196,1.765,0.196,2.586c0,0.807-0.063,1.657-0.196,2.552
		c-0.134,0.896-0.347,1.793-0.64,2.694c-0.293,0.902-0.678,1.786-1.153,2.651c-0.477,0.864-1.062,1.672-1.75,2.42l-1.056-0.771
		c0.586-0.748,1.078-1.524,1.474-2.332c0.396-0.807,0.709-1.621,0.936-2.441c0.229-0.821,0.389-1.636,0.484-2.442
		c0.096-0.806,0.143-1.584,0.143-2.331c0-0.704-0.059-1.467-0.176-2.288s-0.297-1.649-0.539-2.486
		c-0.242-0.836-0.553-1.649-0.937-2.441c-0.381-0.792-0.842-1.51-1.385-2.155L323.712,555.067z"/>
</g>
</svg>
