<?xml version="1.0" encoding="utf-8"?>
<!-- Generator: Adobe Illustrator 16.0.0, SVG Export Plug-In . SVG Version: 6.00 Build 0)  -->
<!DOCTYPE svg PUBLIC "-//W3C//DTD SVG 1.1//EN" "http://www.w3.org/Graphics/SVG/1.1/DTD/svg11.dtd" [
	<!ENTITY ns_flows "http://ns.adobe.com/Flows/1.0/">
	<!ENTITY ns_extend "http://ns.adobe.com/Extensibility/1.0/">
	<!ENTITY ns_ai "http://ns.adobe.com/AdobeIllustrator/10.0/">
	<!ENTITY ns_graphs "http://ns.adobe.com/Graphs/1.0/">
]>
<svg version="1.1" id="Layer_1" xmlns:x="&ns_extend;" xmlns:i="&ns_ai;" xmlns:graph="&ns_graphs;"
	 xmlns="http://www.w3.org/2000/svg" xmlns:xlink="http://www.w3.org/1999/xlink" xmlns:a="http://ns.adobe.com/AdobeSVGViewerExtensions/3.0/"
	 x="0px" y="0px" width="561.531px" height="130.27px" viewBox="0 0 561.531 130.27"
	 style="enable-background:new 0 0 561.531 130.27;" xml:space="preserve">
<polygon style="fill:#E50647;" points="561.531,82.14 0.242,82.14 0,38.08 561.29,38.08 "/>
<polygon style="fill:#E50647;" points="537.531,46.573 0.231,46.573 0,3.382 537.3,3.382 "/>
<polygon style="fill:#E50647;" points="267.513,114.667 0.115,114.667 0,42.853 267.398,42.853 "/>
<g>
	<rect x="100.218" y="18.125" style="fill:none;" width="461.198" height="110.168"/>
	<path style="fill:#F2F2F2;" d="M102.003,18.124h8.001v1.554h-6.258v4.809h5.733v1.554h-5.733v5.229h6.363v1.554h-8.106V18.124z"/>
	<path style="fill:#F2F2F2;" d="M116.942,28.183l-3.087,4.641h-1.932l3.318-4.809l0.714-0.63l-1.071-0.798l-2.73-4.263h1.785
		l2.898,4.536h1.092v-4.536h1.638v4.746l0.987-0.294l2.919-4.452h1.764l-2.856,4.263l-0.819,0.672l1.071,0.84l3.108,4.725h-1.995
		l-3.087-4.725h-1.092v4.725h-1.638v-4.935L116.942,28.183z"/>
	<path style="fill:#F2F2F2;" d="M134.826,31.984c-0.42,0.336-0.949,0.602-1.586,0.798s-1.313,0.294-2.026,0.294
		c-0.798,0-1.491-0.129-2.079-0.389c-0.588-0.259-1.071-0.63-1.449-1.113s-0.658-1.061-0.84-1.732
		c-0.182-0.672-0.273-1.428-0.273-2.268c0-1.792,0.399-3.157,1.197-4.095c0.798-0.938,1.939-1.407,3.423-1.407
		c0.476,0,0.952,0.052,1.428,0.157c0.476,0.105,0.903,0.305,1.281,0.599s0.686,0.711,0.924,1.25c0.238,0.539,0.357,1.25,0.357,2.131
		c0,0.462-0.042,0.974-0.126,1.533h-6.741c0,0.616,0.063,1.162,0.189,1.638s0.322,0.878,0.588,1.208s0.612,0.581,1.04,0.756
		c0.427,0.175,0.948,0.263,1.564,0.263c0.476,0,0.952-0.084,1.428-0.252c0.476-0.168,0.833-0.364,1.071-0.588L134.826,31.984z
		 M131.214,23.542c-0.826,0-1.488,0.217-1.984,0.651c-0.497,0.434-0.795,1.176-0.893,2.226h5.208c0-1.064-0.203-1.81-0.609-2.237
		C132.53,23.755,131.956,23.542,131.214,23.542z"/>
	<path style="fill:#F2F2F2;" d="M140.417,28.099h-0.966v4.725h-1.68v-10.5h1.68v4.746l0.903-0.294l3.36-4.452h1.827l-3.255,4.221
		l-0.882,0.693l1.092,0.84l3.507,4.746h-2.079L140.417,28.099z"/>
	<path style="fill:#F2F2F2;" d="M148.012,22.345c0.49-0.028,1.004-0.063,1.543-0.105c0.539-0.042,1.208-0.063,2.005-0.063
		c1.386,0,2.38,0.213,2.982,0.641s0.903,1.074,0.903,1.942c0,0.49-0.144,0.97-0.43,1.438c-0.287,0.469-0.76,0.816-1.417,1.04v0.084
		c0.826,0.154,1.407,0.441,1.743,0.861c0.336,0.42,0.504,0.98,0.504,1.68c0,1.092-0.392,1.883-1.176,2.373s-1.96,0.735-3.528,0.735
		c-0.588,0-1.134-0.018-1.638-0.052c-0.504-0.035-1.001-0.074-1.491-0.116V22.345z M151.75,26.755c0.252,0,0.497-0.042,0.735-0.126
		s0.452-0.2,0.641-0.347s0.343-0.318,0.462-0.515c0.119-0.196,0.179-0.406,0.179-0.63c0-0.56-0.168-0.948-0.504-1.166
		c-0.336-0.217-0.924-0.325-1.764-0.325c-0.448,0-0.802,0.007-1.061,0.021c-0.259,0.014-0.508,0.028-0.746,0.042v3.045H151.75z
		 M149.692,31.417c0.266,0.028,0.528,0.049,0.788,0.063c0.259,0.014,0.563,0.021,0.914,0.021c0.938,0,1.634-0.133,2.089-0.399
		c0.455-0.266,0.683-0.721,0.683-1.365c0-0.504-0.193-0.914-0.578-1.229c-0.385-0.315-1.067-0.473-2.047-0.473h-1.848V31.417z"/>
	<path style="fill:#F2F2F2;" d="M158.517,23.101c0.532-0.322,1.151-0.56,1.858-0.714c0.707-0.154,1.445-0.231,2.215-0.231
		c0.728,0,1.313,0.098,1.753,0.294c0.441,0.196,0.777,0.452,1.008,0.767s0.385,0.662,0.462,1.04
		c0.077,0.378,0.115,0.756,0.115,1.134c0,0.84-0.021,1.659-0.063,2.457s-0.063,1.554-0.063,2.268c0,0.518,0.021,1.008,0.063,1.47
		c0.042,0.462,0.119,0.889,0.231,1.281h-1.239l-0.441-1.47h-0.105c-0.126,0.196-0.284,0.389-0.473,0.578s-0.417,0.357-0.683,0.504
		s-0.574,0.27-0.924,0.368c-0.35,0.098-0.749,0.147-1.197,0.147c-0.448,0-0.865-0.07-1.25-0.21c-0.385-0.14-0.718-0.339-0.998-0.599
		c-0.28-0.259-0.501-0.57-0.662-0.935c-0.161-0.364-0.242-0.777-0.242-1.239c0-0.616,0.126-1.13,0.378-1.543
		c0.252-0.413,0.605-0.742,1.061-0.987c0.455-0.245,1.001-0.42,1.638-0.525c0.637-0.105,1.34-0.157,2.11-0.157
		c0.196,0,0.389,0,0.578,0s0.381,0.014,0.578,0.042c0.042-0.42,0.063-0.798,0.063-1.134c0-0.77-0.154-1.309-0.462-1.617
		c-0.308-0.308-0.869-0.462-1.68-0.462c-0.238,0-0.494,0.018-0.767,0.054s-0.553,0.086-0.84,0.151
		c-0.287,0.065-0.56,0.144-0.819,0.238c-0.259,0.093-0.487,0.198-0.683,0.313L158.517,23.101z M161.499,31.522
		c0.392,0,0.742-0.053,1.05-0.158c0.308-0.105,0.574-0.238,0.798-0.399c0.224-0.161,0.41-0.339,0.557-0.536
		c0.147-0.196,0.255-0.385,0.326-0.567V28.12c-0.196-0.014-0.396-0.024-0.599-0.031c-0.203-0.007-0.403-0.011-0.599-0.011
		c-0.434,0-0.857,0.025-1.271,0.074c-0.413,0.049-0.777,0.14-1.092,0.273c-0.315,0.133-0.567,0.315-0.756,0.546
		s-0.284,0.522-0.284,0.872c0,0.49,0.175,0.893,0.525,1.208S160.952,31.522,161.499,31.522z"/>
	<path style="fill:#F2F2F2;" d="M168.995,22.324h1.155l0.315,1.26h0.084c0.322-0.49,0.738-0.864,1.25-1.123
		c0.511-0.259,1.095-0.389,1.753-0.389c1.4,0,2.443,0.413,3.129,1.239c0.686,0.826,1.029,2.177,1.029,4.053
		c0,0.882-0.116,1.677-0.347,2.383c-0.231,0.707-0.556,1.306-0.977,1.796c-0.42,0.49-0.927,0.868-1.522,1.134
		s-1.256,0.399-1.984,0.399c-0.518,0-0.928-0.031-1.229-0.094c-0.301-0.063-0.626-0.171-0.977-0.326v4.368h-1.68V22.324z
		 M173.236,23.542c-0.714,0-1.278,0.186-1.69,0.557c-0.413,0.371-0.704,0.935-0.872,1.69v5.208c0.252,0.196,0.539,0.347,0.861,0.452
		c0.322,0.105,0.749,0.158,1.281,0.158c0.966,0,1.732-0.36,2.299-1.082c0.567-0.721,0.851-1.782,0.851-3.182
		c0-0.574-0.049-1.095-0.147-1.564c-0.098-0.469-0.255-0.868-0.472-1.197c-0.217-0.329-0.498-0.584-0.84-0.766
		C174.164,23.633,173.74,23.542,173.236,23.542z"/>
	<path style="fill:#F2F2F2;" d="M187.386,23.794h-3.297v9.03h-1.68v-9.03h-3.297v-1.47h8.274V23.794z"/>
	<path style="fill:#F2F2F2;" d="M189.253,23.101c0.532-0.322,1.151-0.56,1.858-0.714c0.707-0.154,1.445-0.231,2.215-0.231
		c0.728,0,1.313,0.098,1.753,0.294c0.441,0.196,0.777,0.452,1.008,0.767s0.385,0.662,0.462,1.04
		c0.077,0.378,0.115,0.756,0.115,1.134c0,0.84-0.021,1.659-0.063,2.457s-0.063,1.554-0.063,2.268c0,0.518,0.021,1.008,0.063,1.47
		c0.042,0.462,0.119,0.889,0.231,1.281h-1.239l-0.441-1.47h-0.105c-0.126,0.196-0.284,0.389-0.473,0.578s-0.417,0.357-0.683,0.504
		s-0.574,0.27-0.924,0.368c-0.35,0.098-0.749,0.147-1.197,0.147c-0.448,0-0.865-0.07-1.25-0.21c-0.385-0.14-0.718-0.339-0.998-0.599
		c-0.28-0.259-0.501-0.57-0.662-0.935c-0.161-0.364-0.242-0.777-0.242-1.239c0-0.616,0.126-1.13,0.378-1.543
		c0.252-0.413,0.605-0.742,1.061-0.987c0.455-0.245,1.001-0.42,1.638-0.525c0.637-0.105,1.34-0.157,2.11-0.157
		c0.196,0,0.389,0,0.578,0s0.381,0.014,0.578,0.042c0.042-0.42,0.063-0.798,0.063-1.134c0-0.77-0.154-1.309-0.462-1.617
		c-0.308-0.308-0.869-0.462-1.68-0.462c-0.238,0-0.494,0.018-0.767,0.054s-0.553,0.086-0.84,0.151
		c-0.287,0.065-0.56,0.144-0.819,0.238c-0.259,0.093-0.487,0.198-0.683,0.313L189.253,23.101z M192.235,31.522
		c0.392,0,0.742-0.053,1.05-0.158c0.308-0.105,0.574-0.238,0.798-0.399c0.224-0.161,0.41-0.339,0.557-0.536
		c0.147-0.196,0.255-0.385,0.326-0.567V28.12c-0.196-0.014-0.396-0.024-0.599-0.031c-0.203-0.007-0.403-0.011-0.599-0.011
		c-0.434,0-0.857,0.025-1.271,0.074c-0.413,0.049-0.777,0.14-1.092,0.273c-0.315,0.133-0.567,0.315-0.756,0.546
		s-0.284,0.522-0.284,0.872c0,0.49,0.175,0.893,0.525,1.208S191.689,31.522,192.235,31.522z"/>
	<path style="fill:#F2F2F2;" d="M205.956,23.794h-3.045c-0.042,0.588-0.084,1.221-0.126,1.9s-0.105,1.358-0.189,2.037
		c-0.084,0.679-0.196,1.33-0.336,1.953c-0.14,0.623-0.318,1.173-0.535,1.648c-0.217,0.477-0.483,0.858-0.798,1.145
		c-0.315,0.287-0.689,0.431-1.124,0.431c-0.266,0-0.497-0.014-0.693-0.042c-0.196-0.028-0.371-0.077-0.525-0.147l0.252-1.407
		c0.168,0.056,0.35,0.084,0.546,0.084c0.28,0,0.532-0.119,0.756-0.357c0.224-0.238,0.42-0.689,0.588-1.354
		c0.168-0.665,0.308-1.585,0.42-2.761c0.112-1.176,0.189-2.709,0.231-4.599h6.258v10.5h-1.68V23.794z"/>
	<path style="fill:#F2F2F2;" d="M212.466,26.335c0.336-0.056,0.658-0.095,0.966-0.116c0.308-0.021,0.602-0.032,0.882-0.032
		c0.728,0,1.344,0.081,1.848,0.242c0.504,0.161,0.914,0.382,1.229,0.662c0.315,0.28,0.542,0.612,0.682,0.998s0.21,0.794,0.21,1.229
		c0,1.274-0.381,2.198-1.144,2.772c-0.764,0.574-1.95,0.861-3.56,0.861c-0.896,0-1.827-0.042-2.793-0.126v-10.5h1.68V26.335z
		 M212.466,31.354c0.518,0.084,1.015,0.126,1.491,0.126c0.882,0,1.533-0.171,1.953-0.514c0.42-0.343,0.63-0.83,0.63-1.459
		c0-0.56-0.203-1.022-0.609-1.386c-0.406-0.364-1.043-0.546-1.911-0.546c-0.238,0-0.497,0.007-0.777,0.021
		c-0.28,0.014-0.54,0.056-0.777,0.126V31.354z"/>
	<path style="fill:#F2F2F2;" d="M226.937,28.183h-4.746v4.641h-1.68v-10.5h1.68v4.389h4.746v-4.389h1.68v10.5h-1.68V28.183z"/>
	<path style="fill:#F2F2F2;" d="M231.62,23.101c0.532-0.322,1.151-0.56,1.858-0.714c0.707-0.154,1.445-0.231,2.215-0.231
		c0.728,0,1.313,0.098,1.753,0.294c0.441,0.196,0.777,0.452,1.008,0.767s0.385,0.662,0.462,1.04
		c0.077,0.378,0.115,0.756,0.115,1.134c0,0.84-0.021,1.659-0.063,2.457s-0.063,1.554-0.063,2.268c0,0.518,0.021,1.008,0.063,1.47
		c0.042,0.462,0.119,0.889,0.231,1.281h-1.239l-0.441-1.47h-0.105c-0.126,0.196-0.284,0.389-0.473,0.578s-0.417,0.357-0.683,0.504
		s-0.574,0.27-0.924,0.368c-0.35,0.098-0.749,0.147-1.197,0.147c-0.448,0-0.865-0.07-1.25-0.21c-0.385-0.14-0.718-0.339-0.998-0.599
		c-0.28-0.259-0.501-0.57-0.662-0.935c-0.161-0.364-0.242-0.777-0.242-1.239c0-0.616,0.126-1.13,0.378-1.543
		c0.252-0.413,0.605-0.742,1.061-0.987c0.455-0.245,1.001-0.42,1.638-0.525c0.637-0.105,1.34-0.157,2.11-0.157
		c0.196,0,0.389,0,0.578,0s0.381,0.014,0.578,0.042c0.042-0.42,0.063-0.798,0.063-1.134c0-0.77-0.154-1.309-0.462-1.617
		c-0.308-0.308-0.869-0.462-1.68-0.462c-0.238,0-0.494,0.018-0.767,0.054s-0.553,0.086-0.84,0.151
		c-0.287,0.065-0.56,0.144-0.819,0.238c-0.259,0.093-0.487,0.198-0.683,0.313L231.62,23.101z M234.602,31.522
		c0.392,0,0.742-0.053,1.05-0.158c0.308-0.105,0.574-0.238,0.798-0.399c0.224-0.161,0.41-0.339,0.557-0.536
		c0.147-0.196,0.255-0.385,0.326-0.567V28.12c-0.196-0.014-0.396-0.024-0.599-0.031c-0.203-0.007-0.403-0.011-0.599-0.011
		c-0.434,0-0.857,0.025-1.271,0.074c-0.413,0.049-0.777,0.14-1.092,0.273c-0.315,0.133-0.567,0.315-0.756,0.546
		s-0.284,0.522-0.284,0.872c0,0.49,0.175,0.893,0.525,1.208S234.055,31.522,234.602,31.522z"/>
	<path style="fill:#F2F2F2;" d="M247.636,28.477l-1.617,0.252l-2.772,4.095h-2.037l2.52-3.591l0.84-0.777
		c-0.728-0.112-1.347-0.406-1.858-0.882c-0.511-0.476-0.767-1.12-0.767-1.932c0-0.63,0.108-1.168,0.326-1.617
		c0.217-0.448,0.528-0.819,0.935-1.113c0.406-0.294,0.889-0.507,1.449-0.641c0.56-0.133,1.19-0.199,1.89-0.199
		c0.518,0,1.001,0.035,1.449,0.105c0.448,0.07,0.889,0.147,1.323,0.231v10.416h-1.68V28.477z M247.636,23.752
		c-0.182-0.07-0.385-0.123-0.609-0.158c-0.224-0.035-0.42-0.053-0.588-0.053c-0.896,0-1.579,0.161-2.047,0.483
		c-0.469,0.322-0.704,0.833-0.704,1.533c0,0.63,0.249,1.117,0.746,1.459c0.497,0.343,1.151,0.515,1.963,0.515
		c0.014,0,0.035,0,0.063,0c0.028,0,0.084,0,0.168,0s0.203-0.003,0.357-0.011c0.154-0.007,0.371-0.017,0.651-0.031V23.752z"/>
	<path style="fill:#F2F2F2;" d="M257.821,23.101c0.532-0.322,1.151-0.56,1.858-0.714c0.707-0.154,1.445-0.231,2.215-0.231
		c0.728,0,1.313,0.098,1.753,0.294c0.441,0.196,0.777,0.452,1.008,0.767s0.385,0.662,0.462,1.04
		c0.077,0.378,0.115,0.756,0.115,1.134c0,0.84-0.021,1.659-0.063,2.457s-0.063,1.554-0.063,2.268c0,0.518,0.021,1.008,0.063,1.47
		c0.042,0.462,0.119,0.889,0.231,1.281h-1.239l-0.441-1.47h-0.105c-0.126,0.196-0.284,0.389-0.473,0.578s-0.417,0.357-0.683,0.504
		s-0.574,0.27-0.924,0.368c-0.35,0.098-0.749,0.147-1.197,0.147c-0.448,0-0.865-0.07-1.25-0.21c-0.385-0.14-0.718-0.339-0.998-0.599
		c-0.28-0.259-0.501-0.57-0.662-0.935c-0.161-0.364-0.242-0.777-0.242-1.239c0-0.616,0.126-1.13,0.378-1.543
		c0.252-0.413,0.605-0.742,1.061-0.987c0.455-0.245,1.001-0.42,1.638-0.525c0.637-0.105,1.34-0.157,2.11-0.157
		c0.196,0,0.389,0,0.578,0s0.381,0.014,0.578,0.042c0.042-0.42,0.063-0.798,0.063-1.134c0-0.77-0.154-1.309-0.462-1.617
		c-0.308-0.308-0.869-0.462-1.68-0.462c-0.238,0-0.494,0.018-0.767,0.054s-0.553,0.086-0.84,0.151
		c-0.287,0.065-0.56,0.144-0.819,0.238c-0.259,0.093-0.487,0.198-0.683,0.313L257.821,23.101z M260.803,31.522
		c0.392,0,0.742-0.053,1.05-0.158c0.308-0.105,0.574-0.238,0.798-0.399c0.224-0.161,0.41-0.339,0.557-0.536
		c0.147-0.196,0.255-0.385,0.326-0.567V28.12c-0.196-0.014-0.396-0.024-0.599-0.031c-0.203-0.007-0.403-0.011-0.599-0.011
		c-0.434,0-0.857,0.025-1.271,0.074c-0.413,0.049-0.777,0.14-1.092,0.273c-0.315,0.133-0.567,0.315-0.756,0.546
		s-0.284,0.522-0.284,0.872c0,0.49,0.175,0.893,0.525,1.208S260.256,31.522,260.803,31.522z"/>
	<path style="fill:#F2F2F2;" d="M275.359,23.794h-3.297v9.03h-1.68v-9.03h-3.297v-1.47h8.274V23.794z"/>
	<path style="fill:#F2F2F2;" d="M284.805,23.794h-3.297v9.03h-1.68v-9.03h-3.297v-1.47h8.274V23.794z"/>
	<path style="fill:#F2F2F2;" d="M294.366,31.984c-0.42,0.336-0.949,0.602-1.586,0.798s-1.313,0.294-2.026,0.294
		c-0.798,0-1.491-0.129-2.079-0.389c-0.588-0.259-1.071-0.63-1.449-1.113s-0.658-1.061-0.84-1.732
		c-0.182-0.672-0.273-1.428-0.273-2.268c0-1.792,0.399-3.157,1.197-4.095c0.798-0.938,1.939-1.407,3.423-1.407
		c0.476,0,0.952,0.052,1.428,0.157c0.476,0.105,0.903,0.305,1.281,0.599s0.686,0.711,0.924,1.25c0.238,0.539,0.357,1.25,0.357,2.131
		c0,0.462-0.042,0.974-0.126,1.533h-6.741c0,0.616,0.063,1.162,0.189,1.638s0.322,0.878,0.588,1.208s0.612,0.581,1.04,0.756
		c0.427,0.175,0.948,0.263,1.564,0.263c0.476,0,0.952-0.084,1.428-0.252c0.476-0.168,0.833-0.364,1.071-0.588L294.366,31.984z
		 M290.754,23.542c-0.826,0-1.488,0.217-1.984,0.651c-0.497,0.434-0.795,1.176-0.893,2.226h5.208c0-1.064-0.203-1.81-0.609-2.237
		C292.07,23.755,291.496,23.542,290.754,23.542z"/>
	<path style="fill:#F2F2F2;" d="M304.605,32.131c-0.42,0.308-0.917,0.542-1.491,0.704c-0.574,0.161-1.176,0.241-1.806,0.241
		c-0.812,0-1.498-0.129-2.058-0.389c-0.56-0.259-1.019-0.63-1.375-1.113s-0.616-1.064-0.777-1.743
		c-0.161-0.679-0.242-1.431-0.242-2.257c0-1.778,0.392-3.14,1.176-4.084c0.784-0.945,1.911-1.417,3.381-1.417
		c0.672,0,1.242,0.052,1.711,0.157c0.469,0.105,0.893,0.256,1.271,0.452l-0.483,1.449c-0.322-0.182-0.679-0.326-1.071-0.431
		c-0.392-0.105-0.813-0.158-1.26-0.158c-1.988,0-2.982,1.344-2.982,4.032c0,0.532,0.053,1.04,0.158,1.522s0.28,0.91,0.525,1.281
		c0.245,0.371,0.567,0.668,0.966,0.892c0.399,0.224,0.893,0.336,1.48,0.336c0.504,0,0.956-0.077,1.354-0.231
		c0.399-0.154,0.725-0.329,0.977-0.525L304.605,32.131z"/>
	<path style="fill:#F2F2F2;" d="M314.265,23.794h-3.297v9.03h-1.68v-9.03h-3.297v-1.47h8.274V23.794z"/>
	<path style="fill:#F2F2F2;" d="M316.132,23.101c0.532-0.322,1.151-0.56,1.858-0.714c0.707-0.154,1.445-0.231,2.215-0.231
		c0.728,0,1.313,0.098,1.753,0.294c0.441,0.196,0.777,0.452,1.008,0.767s0.385,0.662,0.462,1.04
		c0.077,0.378,0.115,0.756,0.115,1.134c0,0.84-0.021,1.659-0.063,2.457s-0.063,1.554-0.063,2.268c0,0.518,0.021,1.008,0.063,1.47
		c0.042,0.462,0.119,0.889,0.231,1.281h-1.239l-0.441-1.47h-0.105c-0.126,0.196-0.284,0.389-0.473,0.578s-0.417,0.357-0.683,0.504
		s-0.574,0.27-0.924,0.368c-0.35,0.098-0.749,0.147-1.197,0.147c-0.448,0-0.865-0.07-1.25-0.21c-0.385-0.14-0.718-0.339-0.998-0.599
		c-0.28-0.259-0.501-0.57-0.662-0.935c-0.161-0.364-0.242-0.777-0.242-1.239c0-0.616,0.126-1.13,0.378-1.543
		c0.252-0.413,0.605-0.742,1.061-0.987c0.455-0.245,1.001-0.42,1.638-0.525c0.637-0.105,1.34-0.157,2.11-0.157
		c0.196,0,0.389,0,0.578,0s0.381,0.014,0.578,0.042c0.042-0.42,0.063-0.798,0.063-1.134c0-0.77-0.154-1.309-0.462-1.617
		c-0.308-0.308-0.869-0.462-1.68-0.462c-0.238,0-0.494,0.018-0.767,0.054s-0.553,0.086-0.84,0.151
		c-0.287,0.065-0.56,0.144-0.819,0.238c-0.259,0.093-0.487,0.198-0.683,0.313L316.132,23.101z M319.114,31.522
		c0.392,0,0.742-0.053,1.05-0.158c0.308-0.105,0.574-0.238,0.798-0.399c0.224-0.161,0.41-0.339,0.557-0.536
		c0.147-0.196,0.255-0.385,0.326-0.567V28.12c-0.196-0.014-0.396-0.024-0.599-0.031c-0.203-0.007-0.403-0.011-0.599-0.011
		c-0.434,0-0.857,0.025-1.271,0.074c-0.413,0.049-0.777,0.14-1.092,0.273c-0.315,0.133-0.567,0.315-0.756,0.546
		s-0.284,0.522-0.284,0.872c0,0.49,0.175,0.893,0.525,1.208S318.568,31.522,319.114,31.522z"/>
	<path style="fill:#F2F2F2;" d="M336.061,35.491h-1.134l-0.315-2.667h-7.98v-10.5h1.68v9.03h4.557v-9.03h1.68v9.03h1.512V35.491z"/>
	<path style="fill:#F2F2F2;" d="M344.756,26.608l0.063-1.302h-0.063l-0.861,1.344l-4.725,6.174h-0.966v-10.5h1.68v6.405
		l-0.063,1.239h0.084l0.819-1.302l4.725-6.342h0.987v10.5h-1.68V26.608z"/>
	<path style="fill:#F2F2F2;" d="M354.986,28.477l-1.617,0.252l-2.772,4.095h-2.037l2.52-3.591l0.84-0.777
		c-0.728-0.112-1.347-0.406-1.858-0.882c-0.511-0.476-0.767-1.12-0.767-1.932c0-0.63,0.108-1.168,0.326-1.617
		c0.217-0.448,0.528-0.819,0.935-1.113c0.406-0.294,0.889-0.507,1.449-0.641c0.56-0.133,1.19-0.199,1.89-0.199
		c0.518,0,1.001,0.035,1.449,0.105c0.448,0.07,0.889,0.147,1.323,0.231v10.416h-1.68V28.477z M354.986,23.752
		c-0.182-0.07-0.385-0.123-0.609-0.158c-0.224-0.035-0.42-0.053-0.588-0.053c-0.896,0-1.579,0.161-2.047,0.483
		c-0.469,0.322-0.704,0.833-0.704,1.533c0,0.63,0.249,1.117,0.746,1.459c0.497,0.343,1.151,0.515,1.963,0.515
		c0.014,0,0.035,0,0.063,0c0.028,0,0.084,0,0.168,0s0.203-0.003,0.357-0.011c0.154-0.007,0.371-0.017,0.651-0.031V23.752z"/>
	<path style="fill:#F2F2F2;" d="M368.435,29.128l0.59,2.016h0.105l0.464-2.037l2.044-6.783h1.68l-3.108,9.429
		c-0.238,0.686-0.472,1.351-0.703,1.995s-0.487,1.218-0.767,1.722c-0.28,0.504-0.595,0.906-0.945,1.208
		c-0.35,0.301-0.756,0.452-1.218,0.452c-0.504,0-0.917-0.07-1.239-0.21l0.294-1.449c0.182,0.07,0.357,0.105,0.525,0.105
		c0.392,0,0.77-0.207,1.134-0.62s0.665-1.124,0.903-2.131l-4.221-10.5h1.932L368.435,29.128z"/>
	<path style="fill:#F2F2F2;" d="M376.728,22.324v2.856c0,0.378,0.021,0.718,0.063,1.019c0.042,0.301,0.126,0.56,0.252,0.777
		c0.126,0.217,0.308,0.385,0.546,0.504c0.238,0.119,0.553,0.179,0.945,0.179c0.63,0,1.147-0.07,1.554-0.21
		c0.406-0.14,0.714-0.294,0.924-0.462v-4.662h1.68v10.5h-1.68v-4.41c-0.224,0.14-0.557,0.294-0.998,0.462
		c-0.441,0.168-1.047,0.252-1.816,0.252c-0.518,0-0.974-0.056-1.365-0.168c-0.392-0.112-0.721-0.308-0.987-0.588
		c-0.266-0.28-0.466-0.651-0.599-1.113c-0.133-0.462-0.2-1.043-0.2-1.743v-3.192H376.728z"/>
	<path style="fill:#F2F2F2;" d="M393.598,31.984c-0.42,0.336-0.949,0.602-1.586,0.798s-1.313,0.294-2.026,0.294
		c-0.798,0-1.491-0.129-2.079-0.389c-0.588-0.259-1.071-0.63-1.449-1.113s-0.658-1.061-0.84-1.732
		c-0.182-0.672-0.273-1.428-0.273-2.268c0-1.792,0.399-3.157,1.197-4.095c0.798-0.938,1.939-1.407,3.423-1.407
		c0.476,0,0.952,0.052,1.428,0.157c0.476,0.105,0.903,0.305,1.281,0.599s0.686,0.711,0.924,1.25c0.238,0.539,0.357,1.25,0.357,2.131
		c0,0.462-0.042,0.974-0.126,1.533h-6.741c0,0.616,0.063,1.162,0.189,1.638s0.322,0.878,0.588,1.208s0.612,0.581,1.04,0.756
		c0.427,0.175,0.948,0.263,1.564,0.263c0.476,0,0.952-0.084,1.428-0.252c0.476-0.168,0.833-0.364,1.071-0.588L393.598,31.984z
		 M389.985,23.542c-0.826,0-1.488,0.217-1.984,0.651c-0.497,0.434-0.795,1.176-0.893,2.226h5.208c0-1.064-0.203-1.81-0.609-2.237
		C391.301,23.755,390.728,23.542,389.985,23.542z"/>
	<path style="fill:#F2F2F2;" d="M402.968,28.183h-4.746v4.641h-1.68v-10.5h1.68v4.389h4.746v-4.389h1.68v10.5h-1.68V28.183z"/>
	<path style="fill:#F2F2F2;" d="M414.35,26.608l0.063-1.302h-0.063l-0.861,1.344l-4.725,6.174h-0.966v-10.5h1.68v6.405l-0.063,1.239
		h0.084l0.819-1.302l4.725-6.342h0.987v10.5h-1.68V26.608z"/>
	<path style="fill:#F2F2F2;" d="M421.815,28.099h-0.966v4.725h-1.68v-10.5h1.68v4.746l0.903-0.294l3.36-4.452h1.827l-3.255,4.221
		l-0.882,0.693l1.092,0.84l3.507,4.746h-2.079L421.815,28.099z"/>
	<path style="fill:#F2F2F2;" d="M428.257,27.574c0-1.778,0.396-3.14,1.187-4.084s1.929-1.417,3.413-1.417
		c0.784,0,1.467,0.129,2.047,0.389c0.58,0.259,1.061,0.63,1.439,1.113c0.377,0.483,0.656,1.064,0.84,1.743
		c0.182,0.679,0.271,1.432,0.271,2.257c0,1.778-0.395,3.14-1.186,4.084s-1.93,1.417-3.413,1.417c-0.784,0-1.467-0.129-2.047-0.389
		c-0.581-0.259-1.061-0.63-1.438-1.113s-0.658-1.064-0.84-1.743C428.349,29.152,428.257,28.4,428.257,27.574z M430,27.574
		c0,0.532,0.053,1.043,0.158,1.533s0.269,0.917,0.493,1.281c0.224,0.364,0.518,0.658,0.882,0.882
		c0.364,0.224,0.805,0.336,1.323,0.336c1.905,0.014,2.856-1.33,2.856-4.032c0-0.546-0.053-1.064-0.158-1.554
		c-0.104-0.49-0.27-0.917-0.492-1.281c-0.225-0.364-0.52-0.654-0.883-0.872c-0.363-0.217-0.805-0.326-1.323-0.326
		C430.953,23.528,430,24.872,430,27.574z"/>
	<path style="fill:#F2F2F2;" d="M440.077,22.345c0.489-0.028,1.004-0.063,1.543-0.105s1.208-0.063,2.006-0.063
		c1.386,0,2.38,0.213,2.982,0.641c0.602,0.427,0.902,1.074,0.902,1.942c0,0.49-0.144,0.97-0.431,1.438
		c-0.287,0.469-0.759,0.816-1.417,1.04v0.084c0.826,0.154,1.407,0.441,1.743,0.861s0.504,0.98,0.504,1.68
		c0,1.092-0.393,1.883-1.176,2.373c-0.784,0.49-1.961,0.735-3.528,0.735c-0.588,0-1.134-0.018-1.638-0.052
		c-0.505-0.035-1.002-0.074-1.491-0.116V22.345z M443.815,26.755c0.252,0,0.496-0.042,0.734-0.126s0.451-0.2,0.641-0.347
		s0.343-0.318,0.462-0.515c0.119-0.196,0.179-0.406,0.179-0.63c0-0.56-0.168-0.948-0.504-1.166
		c-0.336-0.217-0.924-0.325-1.765-0.325c-0.448,0-0.801,0.007-1.06,0.021c-0.26,0.014-0.508,0.028-0.746,0.042v3.045H443.815z
		 M441.756,31.417c0.266,0.028,0.528,0.049,0.788,0.063c0.259,0.014,0.563,0.021,0.913,0.021c0.938,0,1.635-0.133,2.09-0.399
		c0.454-0.266,0.682-0.721,0.682-1.365c0-0.504-0.192-0.914-0.577-1.229s-1.067-0.473-2.048-0.473h-1.848V31.417z"/>
	<path style="fill:#F2F2F2;" d="M462.588,28.183h-4.746v4.641h-1.68v-10.5h1.68v4.389h4.746v-4.389h1.68v10.5h-1.68V28.183z"/>
	<path style="fill:#F2F2F2;" d="M467.271,23.101c0.531-0.322,1.151-0.56,1.858-0.714c0.707-0.154,1.445-0.231,2.216-0.231
		c0.728,0,1.313,0.098,1.753,0.294c0.441,0.196,0.777,0.452,1.008,0.767c0.231,0.315,0.385,0.662,0.462,1.04
		s0.116,0.756,0.116,1.134c0,0.84-0.021,1.659-0.063,2.457s-0.063,1.554-0.063,2.268c0,0.518,0.021,1.008,0.063,1.47
		c0.042,0.462,0.119,0.889,0.231,1.281h-1.239l-0.441-1.47h-0.104c-0.126,0.196-0.283,0.389-0.473,0.578
		c-0.188,0.189-0.417,0.357-0.683,0.504s-0.574,0.27-0.924,0.368c-0.351,0.098-0.749,0.147-1.197,0.147s-0.864-0.07-1.249-0.21
		c-0.386-0.14-0.718-0.339-0.998-0.599c-0.28-0.259-0.5-0.57-0.661-0.935c-0.161-0.364-0.241-0.777-0.241-1.239
		c0-0.616,0.126-1.13,0.378-1.543s0.605-0.742,1.061-0.987c0.454-0.245,1-0.42,1.638-0.525c0.637-0.105,1.341-0.157,2.11-0.157
		c0.196,0,0.389,0,0.578,0c0.188,0,0.381,0.014,0.577,0.042c0.042-0.42,0.063-0.798,0.063-1.134c0-0.77-0.154-1.309-0.462-1.617
		s-0.868-0.462-1.68-0.462c-0.238,0-0.493,0.018-0.767,0.054c-0.272,0.036-0.553,0.086-0.84,0.151s-0.561,0.144-0.819,0.238
		c-0.259,0.093-0.486,0.198-0.683,0.313L467.271,23.101z M470.252,31.522c0.393,0,0.742-0.053,1.051-0.158
		c0.308-0.105,0.573-0.238,0.798-0.399c0.224-0.161,0.409-0.339,0.557-0.536c0.146-0.196,0.255-0.385,0.325-0.567V28.12
		c-0.196-0.014-0.396-0.024-0.599-0.031s-0.402-0.011-0.599-0.011c-0.434,0-0.857,0.025-1.271,0.074
		c-0.413,0.049-0.777,0.14-1.092,0.273c-0.315,0.133-0.567,0.315-0.756,0.546c-0.189,0.231-0.284,0.522-0.284,0.872
		c0,0.49,0.176,0.893,0.525,1.208S469.707,31.522,470.252,31.522z"/>
	<path style="fill:#F2F2F2;" d="M477.771,32.824v-10.5h1.68v9.03h3.591v-9.03h1.681v9.03h3.591v-9.03h1.68v10.5H477.771z"/>
	<path style="fill:#F2F2F2;" d="M500.899,31.984c-0.42,0.336-0.949,0.602-1.586,0.798s-1.313,0.294-2.026,0.294
		c-0.798,0-1.491-0.129-2.079-0.389c-0.588-0.259-1.071-0.63-1.449-1.113s-0.658-1.061-0.84-1.732s-0.272-1.428-0.272-2.268
		c0-1.792,0.398-3.157,1.196-4.095c0.799-0.938,1.939-1.407,3.424-1.407c0.476,0,0.951,0.052,1.428,0.157
		c0.476,0.105,0.903,0.305,1.281,0.599s0.686,0.711,0.924,1.25c0.237,0.539,0.356,1.25,0.356,2.131c0,0.462-0.042,0.974-0.126,1.533
		h-6.74c0,0.616,0.063,1.162,0.188,1.638s0.322,0.878,0.588,1.208s0.612,0.581,1.04,0.756c0.427,0.175,0.948,0.263,1.564,0.263
		c0.476,0,0.951-0.084,1.428-0.252c0.476-0.168,0.833-0.364,1.071-0.588L500.899,31.984z M497.287,23.542
		c-0.826,0-1.487,0.217-1.984,0.651s-0.795,1.176-0.893,2.226h5.208c0-1.064-0.203-1.81-0.609-2.237
		C498.602,23.755,498.029,23.542,497.287,23.542z"/>
	<path style="fill:#F2F2F2;" d="M509.975,23.794h-4.452v9.03h-1.68v-10.5h6.132V23.794z"/>
	<path style="fill:#F2F2F2;" d="M511.262,27.574c0-1.778,0.396-3.14,1.187-4.084c0.79-0.945,1.928-1.417,3.412-1.417
		c0.784,0,1.467,0.129,2.048,0.389c0.58,0.259,1.061,0.63,1.438,1.113s0.657,1.064,0.84,1.743c0.182,0.679,0.272,1.432,0.272,2.257
		c0,1.778-0.396,3.14-1.187,4.084s-1.929,1.417-3.412,1.417c-0.784,0-1.467-0.129-2.048-0.389c-0.581-0.259-1.061-0.63-1.438-1.113
		s-0.658-1.064-0.84-1.743C511.353,29.152,511.262,28.4,511.262,27.574z M513.005,27.574c0,0.532,0.052,1.043,0.157,1.533
		c0.104,0.49,0.27,0.917,0.493,1.281c0.224,0.364,0.518,0.658,0.882,0.882c0.364,0.224,0.806,0.336,1.323,0.336
		c1.904,0.014,2.856-1.33,2.856-4.032c0-0.546-0.053-1.064-0.158-1.554c-0.104-0.49-0.27-0.917-0.493-1.281
		c-0.224-0.364-0.519-0.654-0.882-0.872c-0.364-0.217-0.806-0.326-1.323-0.326C513.957,23.528,513.005,24.872,513.005,27.574z"/>
	<path style="fill:#F2F2F2;" d="M111.264,68.691h-1.134l-0.315-2.667h-7.98v-10.5h1.68v9.03h4.557v-9.03h1.68v9.03h1.512V68.691z"/>
	<path style="fill:#F2F2F2;" d="M120.966,65.184c-0.42,0.336-0.949,0.602-1.586,0.798s-1.313,0.294-2.026,0.294
		c-0.798,0-1.491-0.129-2.079-0.389c-0.588-0.259-1.071-0.63-1.449-1.113s-0.658-1.061-0.84-1.732
		c-0.182-0.672-0.273-1.428-0.273-2.268c0-1.792,0.399-3.157,1.197-4.095c0.798-0.938,1.939-1.407,3.423-1.407
		c0.476,0,0.952,0.052,1.428,0.157c0.476,0.105,0.903,0.305,1.281,0.599s0.686,0.711,0.924,1.25c0.238,0.539,0.357,1.25,0.357,2.131
		c0,0.462-0.042,0.974-0.126,1.533h-6.741c0,0.616,0.063,1.162,0.189,1.638s0.322,0.878,0.588,1.208s0.612,0.581,1.04,0.756
		c0.427,0.175,0.948,0.263,1.564,0.263c0.476,0,0.952-0.084,1.428-0.252c0.476-0.168,0.833-0.364,1.071-0.588L120.966,65.184z
		 M117.354,56.742c-0.826,0-1.488,0.217-1.984,0.651c-0.497,0.434-0.795,1.176-0.893,2.226h5.208c0-1.064-0.203-1.81-0.609-2.237
		C118.67,56.956,118.096,56.742,117.354,56.742z"/>
	<path style="fill:#F2F2F2;" d="M130.336,61.383h-4.746v4.641h-1.68v-10.5h1.68v4.389h4.746v-4.389h1.68v10.5h-1.68V61.383z"/>
	<path style="fill:#F2F2F2;" d="M142.239,56.994h-3.297v9.03h-1.68v-9.03h-3.297v-1.47h8.274V56.994z"/>
	<path style="fill:#F2F2F2;" d="M144.188,55.524h1.155l0.315,1.26h0.084c0.322-0.49,0.738-0.864,1.25-1.123
		c0.511-0.259,1.095-0.389,1.753-0.389c1.4,0,2.443,0.413,3.129,1.239c0.686,0.826,1.029,2.177,1.029,4.053
		c0,0.882-0.116,1.677-0.347,2.383c-0.231,0.707-0.556,1.306-0.977,1.796c-0.42,0.49-0.927,0.868-1.522,1.134
		s-1.256,0.399-1.984,0.399c-0.518,0-0.928-0.031-1.229-0.094c-0.301-0.063-0.626-0.171-0.977-0.326v4.368h-1.68V55.524z
		 M148.43,56.742c-0.714,0-1.278,0.186-1.69,0.557c-0.413,0.371-0.704,0.935-0.872,1.69v5.208c0.252,0.196,0.539,0.347,0.861,0.452
		c0.322,0.105,0.749,0.158,1.281,0.158c0.966,0,1.732-0.36,2.299-1.082c0.567-0.721,0.851-1.782,0.851-3.182
		c0-0.574-0.049-1.095-0.147-1.564c-0.098-0.469-0.255-0.868-0.472-1.197c-0.217-0.329-0.498-0.584-0.84-0.766
		C149.357,56.833,148.934,56.742,148.43,56.742z"/>
	<path style="fill:#F2F2F2;" d="M155.477,56.301c0.532-0.322,1.151-0.56,1.858-0.714c0.707-0.154,1.445-0.231,2.215-0.231
		c0.728,0,1.313,0.098,1.753,0.294c0.441,0.196,0.777,0.452,1.008,0.767s0.385,0.662,0.462,1.04
		c0.077,0.378,0.115,0.756,0.115,1.134c0,0.84-0.021,1.659-0.063,2.457s-0.063,1.554-0.063,2.268c0,0.518,0.021,1.008,0.063,1.47
		c0.042,0.462,0.119,0.889,0.231,1.281h-1.239l-0.441-1.47h-0.105c-0.126,0.196-0.284,0.389-0.473,0.578s-0.417,0.357-0.683,0.504
		s-0.574,0.27-0.924,0.368c-0.35,0.098-0.749,0.147-1.197,0.147c-0.448,0-0.865-0.07-1.25-0.21c-0.385-0.14-0.718-0.339-0.998-0.599
		c-0.28-0.259-0.501-0.57-0.662-0.935c-0.161-0.364-0.242-0.777-0.242-1.239c0-0.616,0.126-1.13,0.378-1.543
		c0.252-0.413,0.605-0.742,1.061-0.987c0.455-0.245,1.001-0.42,1.638-0.525c0.637-0.105,1.34-0.157,2.11-0.157
		c0.196,0,0.389,0,0.578,0s0.381,0.014,0.578,0.042c0.042-0.42,0.063-0.798,0.063-1.134c0-0.77-0.154-1.309-0.462-1.617
		c-0.308-0.308-0.869-0.462-1.68-0.462c-0.238,0-0.494,0.018-0.767,0.054s-0.553,0.086-0.84,0.151
		c-0.287,0.065-0.56,0.144-0.819,0.238c-0.259,0.093-0.487,0.198-0.683,0.313L155.477,56.301z M158.459,64.722
		c0.392,0,0.742-0.053,1.05-0.158c0.308-0.105,0.574-0.238,0.798-0.399c0.224-0.161,0.41-0.339,0.557-0.536
		c0.147-0.196,0.255-0.385,0.326-0.567V61.32c-0.196-0.014-0.396-0.024-0.599-0.031c-0.203-0.007-0.403-0.011-0.599-0.011
		c-0.434,0-0.857,0.025-1.271,0.074c-0.413,0.049-0.777,0.14-1.092,0.273c-0.315,0.133-0.567,0.315-0.756,0.546
		s-0.284,0.522-0.284,0.872c0,0.49,0.175,0.893,0.525,1.208S157.913,64.722,158.459,64.722z"/>
	<path style="fill:#F2F2F2;" d="M174.313,61.299h-0.966v4.725h-1.68v-10.5h1.68v4.746l0.903-0.294l3.36-4.452h1.827l-3.255,4.221
		l-0.882,0.693l1.092,0.84l3.507,4.746h-2.079L174.313,61.299z"/>
	<path style="fill:#F2F2F2;" d="M185.474,62.328l0.59,2.016h0.105l0.464-2.037l2.044-6.783h1.68l-3.108,9.429
		c-0.238,0.686-0.472,1.351-0.703,1.995s-0.487,1.218-0.767,1.722c-0.28,0.504-0.595,0.906-0.945,1.208
		c-0.35,0.301-0.756,0.452-1.218,0.452c-0.504,0-0.917-0.07-1.239-0.21l0.294-1.449c0.182,0.07,0.357,0.105,0.525,0.105
		c0.392,0,0.77-0.207,1.134-0.62s0.665-1.124,0.903-2.131l-4.221-10.5h1.932L185.474,62.328z"/>
	<path style="fill:#F2F2F2;" d="M192.377,55.524h1.155l0.315,1.26h0.084c0.322-0.49,0.738-0.864,1.25-1.123
		c0.511-0.259,1.095-0.389,1.753-0.389c1.4,0,2.443,0.413,3.129,1.239c0.686,0.826,1.029,2.177,1.029,4.053
		c0,0.882-0.116,1.677-0.347,2.383c-0.231,0.707-0.556,1.306-0.977,1.796c-0.42,0.49-0.927,0.868-1.522,1.134
		s-1.256,0.399-1.984,0.399c-0.518,0-0.928-0.031-1.229-0.094c-0.301-0.063-0.626-0.171-0.977-0.326v4.368h-1.68V55.524z
		 M196.619,56.742c-0.714,0-1.278,0.186-1.69,0.557c-0.413,0.371-0.704,0.935-0.872,1.69v5.208c0.252,0.196,0.539,0.347,0.861,0.452
		c0.322,0.105,0.749,0.158,1.281,0.158c0.966,0,1.732-0.36,2.299-1.082c0.567-0.721,0.851-1.782,0.851-3.182
		c0-0.574-0.049-1.095-0.147-1.564c-0.098-0.469-0.255-0.868-0.472-1.197c-0.217-0.329-0.498-0.584-0.84-0.766
		C197.546,56.833,197.123,56.742,196.619,56.742z"/>
	<path style="fill:#F2F2F2;" d="M203.667,56.301c0.532-0.322,1.151-0.56,1.858-0.714c0.707-0.154,1.445-0.231,2.215-0.231
		c0.728,0,1.313,0.098,1.753,0.294c0.441,0.196,0.777,0.452,1.008,0.767s0.385,0.662,0.462,1.04
		c0.077,0.378,0.115,0.756,0.115,1.134c0,0.84-0.021,1.659-0.063,2.457s-0.063,1.554-0.063,2.268c0,0.518,0.021,1.008,0.063,1.47
		c0.042,0.462,0.119,0.889,0.231,1.281h-1.239l-0.441-1.47h-0.105c-0.126,0.196-0.284,0.389-0.473,0.578s-0.417,0.357-0.683,0.504
		s-0.574,0.27-0.924,0.368c-0.35,0.098-0.749,0.147-1.197,0.147c-0.448,0-0.865-0.07-1.25-0.21c-0.385-0.14-0.718-0.339-0.998-0.599
		c-0.28-0.259-0.501-0.57-0.662-0.935c-0.161-0.364-0.242-0.777-0.242-1.239c0-0.616,0.126-1.13,0.378-1.543
		c0.252-0.413,0.605-0.742,1.061-0.987c0.455-0.245,1.001-0.42,1.638-0.525c0.637-0.105,1.34-0.157,2.11-0.157
		c0.196,0,0.389,0,0.578,0s0.381,0.014,0.578,0.042c0.042-0.42,0.063-0.798,0.063-1.134c0-0.77-0.154-1.309-0.462-1.617
		c-0.308-0.308-0.869-0.462-1.68-0.462c-0.238,0-0.494,0.018-0.767,0.054s-0.553,0.086-0.84,0.151
		c-0.287,0.065-0.56,0.144-0.819,0.238c-0.259,0.093-0.487,0.198-0.683,0.313L203.667,56.301z M206.649,64.722
		c0.392,0,0.742-0.053,1.05-0.158c0.308-0.105,0.574-0.238,0.798-0.399c0.224-0.161,0.41-0.339,0.557-0.536
		c0.147-0.196,0.255-0.385,0.326-0.567V61.32c-0.196-0.014-0.396-0.024-0.599-0.031c-0.203-0.007-0.403-0.011-0.599-0.011
		c-0.434,0-0.857,0.025-1.271,0.074c-0.413,0.049-0.777,0.14-1.092,0.273c-0.315,0.133-0.567,0.315-0.756,0.546
		s-0.284,0.522-0.284,0.872c0,0.49,0.175,0.893,0.525,1.208S206.103,64.722,206.649,64.722z"/>
	<path style="fill:#F2F2F2;" d="M221.206,56.994h-3.297v9.03h-1.68v-9.03h-3.297v-1.47h8.274V56.994z"/>
	<path style="fill:#F2F2F2;" d="M222.514,60.774c0-1.778,0.396-3.14,1.187-4.084s1.929-1.417,3.413-1.417
		c0.784,0,1.466,0.129,2.047,0.389c0.581,0.259,1.061,0.63,1.438,1.113c0.378,0.483,0.658,1.064,0.84,1.743
		c0.182,0.679,0.273,1.432,0.273,2.257c0,1.778-0.396,3.14-1.187,4.084c-0.791,0.945-1.929,1.417-3.413,1.417
		c-0.784,0-1.467-0.129-2.047-0.389c-0.581-0.259-1.061-0.63-1.438-1.113s-0.658-1.064-0.84-1.743
		C222.605,62.353,222.514,61.6,222.514,60.774z M224.257,60.774c0,0.532,0.053,1.043,0.158,1.533s0.269,0.917,0.493,1.281
		c0.224,0.364,0.518,0.658,0.882,0.882c0.364,0.224,0.805,0.336,1.323,0.336c1.904,0.014,2.856-1.33,2.856-4.032
		c0-0.546-0.052-1.064-0.157-1.554c-0.105-0.49-0.27-0.917-0.494-1.281c-0.224-0.364-0.518-0.654-0.882-0.872
		c-0.364-0.217-0.805-0.326-1.323-0.326C225.209,56.728,224.257,58.072,224.257,60.774z"/>
	<path style="fill:#F2F2F2;" d="M234.299,55.524h1.155l0.315,1.26h0.084c0.322-0.49,0.738-0.864,1.25-1.123
		c0.511-0.259,1.095-0.389,1.753-0.389c1.4,0,2.443,0.413,3.129,1.239c0.686,0.826,1.029,2.177,1.029,4.053
		c0,0.882-0.116,1.677-0.347,2.383c-0.231,0.707-0.556,1.306-0.977,1.796c-0.42,0.49-0.927,0.868-1.522,1.134
		s-1.256,0.399-1.984,0.399c-0.518,0-0.928-0.031-1.229-0.094c-0.301-0.063-0.626-0.171-0.977-0.326v4.368h-1.68V55.524z
		 M238.541,56.742c-0.714,0-1.278,0.186-1.69,0.557c-0.413,0.371-0.704,0.935-0.872,1.69v5.208c0.252,0.196,0.539,0.347,0.861,0.452
		c0.322,0.105,0.749,0.158,1.281,0.158c0.966,0,1.732-0.36,2.299-1.082c0.567-0.721,0.851-1.782,0.851-3.182
		c0-0.574-0.049-1.095-0.147-1.564c-0.098-0.469-0.255-0.868-0.472-1.197c-0.217-0.329-0.498-0.584-0.84-0.766
		C239.468,56.833,239.044,56.742,238.541,56.742z"/>
	<path style="fill:#F2F2F2;" d="M245.588,56.301c0.532-0.322,1.151-0.56,1.858-0.714c0.707-0.154,1.445-0.231,2.215-0.231
		c0.728,0,1.313,0.098,1.753,0.294c0.441,0.196,0.777,0.452,1.008,0.767s0.385,0.662,0.462,1.04
		c0.077,0.378,0.115,0.756,0.115,1.134c0,0.84-0.021,1.659-0.063,2.457s-0.063,1.554-0.063,2.268c0,0.518,0.021,1.008,0.063,1.47
		c0.042,0.462,0.119,0.889,0.231,1.281h-1.239l-0.441-1.47h-0.105c-0.126,0.196-0.284,0.389-0.473,0.578s-0.417,0.357-0.683,0.504
		s-0.574,0.27-0.924,0.368c-0.35,0.098-0.749,0.147-1.197,0.147c-0.448,0-0.865-0.07-1.25-0.21c-0.385-0.14-0.718-0.339-0.998-0.599
		c-0.28-0.259-0.501-0.57-0.662-0.935c-0.161-0.364-0.242-0.777-0.242-1.239c0-0.616,0.126-1.13,0.378-1.543
		c0.252-0.413,0.605-0.742,1.061-0.987c0.455-0.245,1.001-0.42,1.638-0.525c0.637-0.105,1.34-0.157,2.11-0.157
		c0.196,0,0.389,0,0.578,0s0.381,0.014,0.578,0.042c0.042-0.42,0.063-0.798,0.063-1.134c0-0.77-0.154-1.309-0.462-1.617
		c-0.308-0.308-0.869-0.462-1.68-0.462c-0.238,0-0.494,0.018-0.767,0.054s-0.553,0.086-0.84,0.151
		c-0.287,0.065-0.56,0.144-0.819,0.238c-0.259,0.093-0.487,0.198-0.683,0.313L245.588,56.301z M248.57,64.722
		c0.392,0,0.742-0.053,1.05-0.158c0.308-0.105,0.574-0.238,0.798-0.399c0.224-0.161,0.41-0.339,0.557-0.536
		c0.147-0.196,0.255-0.385,0.326-0.567V61.32c-0.196-0.014-0.396-0.024-0.599-0.031c-0.203-0.007-0.403-0.011-0.599-0.011
		c-0.434,0-0.857,0.025-1.271,0.074c-0.413,0.049-0.777,0.14-1.092,0.273c-0.315,0.133-0.567,0.315-0.756,0.546
		s-0.284,0.522-0.284,0.872c0,0.49,0.175,0.893,0.525,1.208S248.024,64.722,248.57,64.722z"/>
	<path style="fill:#F2F2F2;" d="M264.761,59.787l0.126-1.995h-0.105l-0.756,1.617l-2.541,4.116h-0.588l-2.646-4.116l-0.693-1.617
		h-0.084l0.168,1.974v6.258h-1.554v-10.5h1.659l2.94,4.704l0.609,1.218h0.042l0.63-1.26l2.751-4.662h1.68v10.5h-1.638V59.787z"/>
	<path style="fill:#F2F2F2;" d="M276.09,59.808l0.063-1.302h-0.063l-0.861,1.344l-4.725,6.174h-0.966v-10.5h1.68v6.405l-0.063,1.239
		h0.084l0.819-1.302l4.725-6.342h0.987v10.5h-1.68V59.808z"/>
	<path style="fill:#F2F2F2;" d="M286.611,66.024v-10.5h1.68v9.03h3.591v-9.03h1.68v9.03h3.591v-9.03h1.68v10.5H286.611z"/>
	<path style="fill:#F2F2F2;" d="M304.629,61.299h-0.966v4.725h-1.68v-10.5h1.68v4.746l0.903-0.294l3.36-4.452h1.827l-3.255,4.221
		l-0.882,0.693l1.092,0.84l3.507,4.746h-2.079L304.629,61.299z"/>
	<path style="fill:#F2F2F2;" d="M311.072,60.774c0-1.778,0.396-3.14,1.187-4.084s1.929-1.417,3.413-1.417
		c0.784,0,1.466,0.129,2.047,0.389c0.581,0.259,1.061,0.63,1.438,1.113c0.378,0.483,0.658,1.064,0.84,1.743
		c0.182,0.679,0.273,1.432,0.273,2.257c0,1.778-0.396,3.14-1.187,4.084c-0.791,0.945-1.929,1.417-3.413,1.417
		c-0.784,0-1.467-0.129-2.047-0.389c-0.581-0.259-1.061-0.63-1.438-1.113s-0.658-1.064-0.84-1.743
		C311.163,62.353,311.072,61.6,311.072,60.774z M312.815,60.774c0,0.532,0.053,1.043,0.158,1.533s0.269,0.917,0.493,1.281
		c0.224,0.364,0.518,0.658,0.882,0.882c0.364,0.224,0.805,0.336,1.323,0.336c1.904,0.014,2.856-1.33,2.856-4.032
		c0-0.546-0.052-1.064-0.157-1.554c-0.105-0.49-0.27-0.917-0.494-1.281c-0.224-0.364-0.518-0.654-0.882-0.872
		c-0.364-0.217-0.805-0.326-1.323-0.326C313.767,56.728,312.815,58.072,312.815,60.774z"/>
	<path style="fill:#F2F2F2;" d="M328.748,56.994h-3.045c-0.042,0.588-0.084,1.221-0.126,1.9s-0.105,1.358-0.189,2.037
		c-0.084,0.679-0.196,1.33-0.336,1.953c-0.14,0.623-0.318,1.173-0.535,1.648c-0.217,0.477-0.483,0.858-0.798,1.145
		c-0.315,0.287-0.689,0.431-1.124,0.431c-0.266,0-0.497-0.014-0.693-0.042c-0.196-0.028-0.371-0.077-0.525-0.147l0.252-1.407
		c0.168,0.056,0.35,0.084,0.546,0.084c0.28,0,0.532-0.119,0.756-0.357c0.224-0.238,0.42-0.689,0.588-1.354
		c0.168-0.665,0.308-1.585,0.42-2.761c0.112-1.176,0.189-2.709,0.231-4.599h6.258v10.5h-1.68V56.994z"/>
	<path style="fill:#F2F2F2;" d="M335.257,59.535c0.336-0.056,0.658-0.095,0.966-0.116c0.308-0.021,0.602-0.032,0.882-0.032
		c0.714,0,1.313,0.081,1.795,0.242c0.483,0.161,0.872,0.382,1.166,0.662c0.294,0.28,0.5,0.612,0.62,0.998
		c0.119,0.385,0.178,0.794,0.178,1.229c0,1.274-0.354,2.198-1.061,2.772s-1.852,0.861-3.433,0.861c-0.896,0-1.827-0.042-2.793-0.126
		v-10.5h1.68V59.535z M335.257,64.554c0.518,0.084,1.015,0.126,1.491,0.126c0.882,0,1.498-0.171,1.848-0.514
		c0.35-0.343,0.525-0.83,0.525-1.459c0-0.56-0.172-1.022-0.515-1.386c-0.343-0.364-0.942-0.546-1.795-0.546
		c-0.238,0-0.497,0.007-0.777,0.021c-0.28,0.014-0.54,0.056-0.777,0.126V64.554z M342.523,55.524h1.68v10.5h-1.68V55.524z"/>
	<path style="fill:#F2F2F2;" d="M353.905,59.199h12.264v1.554h-12.264V59.199z"/>
	<path style="fill:#F2F2F2;" d="M376.963,55.524v2.856c0,0.378,0.021,0.718,0.063,1.019c0.042,0.301,0.126,0.56,0.252,0.777
		c0.126,0.217,0.308,0.385,0.546,0.504c0.238,0.119,0.553,0.179,0.945,0.179c0.63,0,1.147-0.07,1.554-0.21
		c0.406-0.14,0.714-0.294,0.924-0.462v-4.662h1.68v10.5h-1.68v-4.41c-0.224,0.14-0.557,0.294-0.998,0.462
		c-0.441,0.168-1.047,0.252-1.816,0.252c-0.518,0-0.974-0.056-1.365-0.168c-0.392-0.112-0.721-0.308-0.987-0.588
		c-0.266-0.28-0.466-0.651-0.599-1.113c-0.133-0.462-0.2-1.043-0.2-1.743v-3.192H376.963z"/>
	<path style="fill:#F2F2F2;" d="M393.832,65.184c-0.42,0.336-0.949,0.602-1.586,0.798s-1.313,0.294-2.026,0.294
		c-0.798,0-1.491-0.129-2.079-0.389c-0.588-0.259-1.071-0.63-1.449-1.113s-0.658-1.061-0.84-1.732
		c-0.182-0.672-0.273-1.428-0.273-2.268c0-1.792,0.399-3.157,1.197-4.095c0.798-0.938,1.939-1.407,3.423-1.407
		c0.476,0,0.952,0.052,1.428,0.157c0.476,0.105,0.903,0.305,1.281,0.599s0.686,0.711,0.924,1.25c0.238,0.539,0.357,1.25,0.357,2.131
		c0,0.462-0.042,0.974-0.126,1.533h-6.741c0,0.616,0.063,1.162,0.189,1.638s0.322,0.878,0.588,1.208s0.612,0.581,1.04,0.756
		c0.427,0.175,0.948,0.263,1.564,0.263c0.476,0,0.952-0.084,1.428-0.252c0.476-0.168,0.833-0.364,1.071-0.588L393.832,65.184z
		 M390.22,56.742c-0.826,0-1.488,0.217-1.984,0.651c-0.497,0.434-0.795,1.176-0.893,2.226h5.208c0-1.064-0.203-1.81-0.609-2.237
		C391.536,56.956,390.962,56.742,390.22,56.742z"/>
	<path style="fill:#F2F2F2;" d="M405.449,59.787l0.126-1.995h-0.105l-0.756,1.617l-2.541,4.116h-0.588l-2.646-4.116l-0.693-1.617
		h-0.084l0.168,1.974v6.258h-1.554v-10.5h1.659l2.94,4.704l0.609,1.218h0.042l0.63-1.26l2.751-4.662h1.68v10.5h-1.638V59.787z"/>
	<path style="fill:#F2F2F2;" d="M416.541,56.994H411.9v9.03h-1.68v-10.5h8.001v10.5h-1.68V56.994z"/>
	<path style="fill:#F2F2F2;" d="M427.917,59.808l0.063-1.302h-0.063l-0.861,1.344l-4.725,6.174h-0.966v-10.5h1.68v6.405
		l-0.063,1.239h0.084l0.819-1.302l4.725-6.342h0.987v10.5h-1.68V59.808z"/>
	<path style="fill:#F2F2F2;" d="M432.242,60.774c0-1.778,0.396-3.14,1.187-4.084c0.79-0.945,1.928-1.417,3.412-1.417
		c0.784,0,1.467,0.129,2.048,0.389c0.58,0.259,1.061,0.63,1.438,1.113s0.657,1.064,0.84,1.743c0.182,0.679,0.272,1.432,0.272,2.257
		c0,1.778-0.396,3.14-1.187,4.084s-1.929,1.417-3.412,1.417c-0.784,0-1.467-0.129-2.048-0.389c-0.581-0.259-1.06-0.63-1.438-1.113
		c-0.377-0.483-0.658-1.064-0.84-1.743C432.333,62.353,432.242,61.6,432.242,60.774z M433.986,60.774
		c0,0.532,0.053,1.043,0.157,1.533s0.27,0.917,0.493,1.281c0.224,0.364,0.518,0.658,0.882,0.882
		c0.364,0.224,0.806,0.336,1.323,0.336c1.904,0.014,2.856-1.33,2.856-4.032c0-0.546-0.053-1.064-0.158-1.554
		c-0.104-0.49-0.27-0.917-0.493-1.281c-0.224-0.364-0.519-0.654-0.882-0.872c-0.364-0.217-0.806-0.326-1.323-0.326
		C434.937,56.728,433.986,58.072,433.986,60.774z"/>
	<path style="fill:#F2F2F2;" d="M450.488,61.383h-4.746v4.641h-1.68v-10.5h1.68v4.389h4.746v-4.389h1.68v10.5h-1.68V61.383z"/>
	<path style="fill:#F2F2F2;" d="M455.17,56.301c0.531-0.322,1.151-0.56,1.858-0.714c0.707-0.154,1.445-0.231,2.216-0.231
		c0.728,0,1.313,0.098,1.753,0.294c0.441,0.196,0.777,0.452,1.008,0.767c0.231,0.315,0.385,0.662,0.462,1.04
		s0.116,0.756,0.116,1.134c0,0.84-0.021,1.659-0.063,2.457s-0.063,1.554-0.063,2.268c0,0.518,0.021,1.008,0.063,1.47
		c0.042,0.462,0.119,0.889,0.231,1.281h-1.239l-0.441-1.47h-0.104c-0.126,0.196-0.283,0.389-0.473,0.578
		c-0.188,0.189-0.417,0.357-0.683,0.504s-0.574,0.27-0.924,0.368c-0.351,0.098-0.749,0.147-1.197,0.147s-0.864-0.07-1.249-0.21
		c-0.386-0.14-0.718-0.339-0.998-0.599c-0.28-0.259-0.5-0.57-0.661-0.935c-0.161-0.364-0.241-0.777-0.241-1.239
		c0-0.616,0.126-1.13,0.378-1.543s0.605-0.742,1.061-0.987c0.454-0.245,1-0.42,1.638-0.525c0.637-0.105,1.341-0.157,2.11-0.157
		c0.196,0,0.389,0,0.578,0c0.188,0,0.381,0.014,0.577,0.042c0.042-0.42,0.063-0.798,0.063-1.134c0-0.77-0.154-1.309-0.462-1.617
		s-0.868-0.462-1.68-0.462c-0.238,0-0.493,0.018-0.767,0.054c-0.272,0.036-0.553,0.086-0.84,0.151s-0.561,0.144-0.819,0.238
		c-0.259,0.093-0.486,0.198-0.683,0.313L455.17,56.301z M458.152,64.722c0.393,0,0.742-0.053,1.051-0.158
		c0.308-0.105,0.573-0.238,0.798-0.399c0.224-0.161,0.409-0.339,0.557-0.536c0.146-0.196,0.255-0.385,0.325-0.567V61.32
		c-0.196-0.014-0.396-0.024-0.599-0.031s-0.402-0.011-0.599-0.011c-0.434,0-0.857,0.025-1.271,0.074
		c-0.413,0.049-0.777,0.14-1.092,0.273c-0.315,0.133-0.567,0.315-0.756,0.546c-0.189,0.231-0.284,0.522-0.284,0.872
		c0,0.49,0.176,0.893,0.525,1.208S457.606,64.722,458.152,64.722z"/>
	<path style="fill:#F2F2F2;" d="M474.343,59.787l0.126-1.995h-0.105l-0.756,1.617l-2.541,4.116h-0.588l-2.646-4.116l-0.693-1.617
		h-0.084l0.168,1.974v6.258h-1.554v-10.5h1.659l2.939,4.704l0.609,1.218h0.042l0.63-1.26l2.751-4.662h1.68v10.5h-1.638V59.787z"/>
	<path style="fill:#F2F2F2;" d="M485.673,59.808l0.063-1.302h-0.063l-0.861,1.344l-4.725,6.174h-0.966v-10.5h1.68v6.405
		l-0.063,1.239h0.084l0.818-1.302l4.726-6.342h0.986v10.5h-1.68V59.808z"/>
	<path style="fill:#F2F2F2;" d="M504.868,59.787l0.126-1.995h-0.105l-0.756,1.617l-2.541,4.116h-0.588l-2.646-4.116l-0.693-1.617
		h-0.084l0.168,1.974v6.258h-1.554v-10.5h1.659l2.939,4.704l0.609,1.218h0.042l0.63-1.26l2.751-4.662h1.68v10.5h-1.638V59.787z"/>
	<path style="fill:#F2F2F2;" d="M516.197,59.808l0.063-1.302h-0.063l-0.861,1.344l-4.725,6.174h-0.966v-10.5h1.68v6.405
		l-0.063,1.239h0.084l0.818-1.302l4.726-6.342h0.986v10.5h-1.68V59.808z"/>
	<path style="fill:#F2F2F2;" d="M521.016,55.524h1.155l0.314,1.26h0.084c0.322-0.49,0.738-0.864,1.25-1.123
		c0.511-0.259,1.095-0.389,1.753-0.389c1.4,0,2.443,0.413,3.129,1.239c0.687,0.826,1.029,2.177,1.029,4.053
		c0,0.882-0.115,1.677-0.347,2.383c-0.23,0.707-0.557,1.306-0.977,1.796c-0.42,0.49-0.928,0.868-1.522,1.134
		s-1.257,0.399-1.984,0.399c-0.518,0-0.928-0.031-1.229-0.094s-0.627-0.171-0.977-0.326v4.368h-1.68V55.524z M525.258,56.742
		c-0.715,0-1.278,0.186-1.69,0.557c-0.413,0.371-0.704,0.935-0.872,1.69v5.208c0.252,0.196,0.539,0.347,0.861,0.452
		c0.321,0.105,0.749,0.158,1.281,0.158c0.966,0,1.732-0.36,2.299-1.082c0.567-0.721,0.851-1.782,0.851-3.182
		c0-0.574-0.049-1.095-0.146-1.564c-0.099-0.469-0.256-0.868-0.473-1.197c-0.218-0.329-0.497-0.584-0.84-0.766
		C526.185,56.833,525.762,56.742,525.258,56.742z"/>
	<path style="fill:#F2F2F2;" d="M532.305,56.301c0.531-0.322,1.151-0.56,1.858-0.714c0.707-0.154,1.445-0.231,2.216-0.231
		c0.728,0,1.313,0.098,1.753,0.294c0.441,0.196,0.777,0.452,1.008,0.767c0.231,0.315,0.385,0.662,0.462,1.04
		s0.116,0.756,0.116,1.134c0,0.84-0.021,1.659-0.063,2.457s-0.063,1.554-0.063,2.268c0,0.518,0.021,1.008,0.063,1.47
		c0.042,0.462,0.119,0.889,0.231,1.281h-1.239l-0.441-1.47h-0.104c-0.126,0.196-0.283,0.389-0.473,0.578
		c-0.188,0.189-0.417,0.357-0.683,0.504s-0.574,0.27-0.924,0.368c-0.351,0.098-0.749,0.147-1.197,0.147s-0.864-0.07-1.249-0.21
		c-0.386-0.14-0.718-0.339-0.998-0.599c-0.28-0.259-0.5-0.57-0.661-0.935c-0.161-0.364-0.241-0.777-0.241-1.239
		c0-0.616,0.126-1.13,0.378-1.543s0.605-0.742,1.061-0.987c0.454-0.245,1-0.42,1.638-0.525c0.637-0.105,1.341-0.157,2.11-0.157
		c0.196,0,0.389,0,0.578,0c0.188,0,0.381,0.014,0.577,0.042c0.042-0.42,0.063-0.798,0.063-1.134c0-0.77-0.154-1.309-0.462-1.617
		s-0.868-0.462-1.68-0.462c-0.238,0-0.493,0.018-0.767,0.054c-0.272,0.036-0.553,0.086-0.84,0.151s-0.561,0.144-0.819,0.238
		c-0.259,0.093-0.486,0.198-0.683,0.313L532.305,56.301z M535.287,64.722c0.393,0,0.742-0.053,1.051-0.158
		c0.308-0.105,0.573-0.238,0.798-0.399c0.224-0.161,0.409-0.339,0.557-0.536c0.146-0.196,0.255-0.385,0.325-0.567V61.32
		c-0.196-0.014-0.396-0.024-0.599-0.031s-0.402-0.011-0.599-0.011c-0.434,0-0.857,0.025-1.271,0.074
		c-0.413,0.049-0.777,0.14-1.092,0.273c-0.315,0.133-0.567,0.315-0.756,0.546c-0.189,0.231-0.284,0.522-0.284,0.872
		c0,0.49,0.176,0.893,0.525,1.208S534.741,64.722,535.287,64.722z"/>
	<path style="fill:#F2F2F2;" d="M108.156,90.194h-4.641v9.03h-1.68v-10.5h8.001v10.5h-1.68V90.194z"/>
	<path style="fill:#F2F2F2;" d="M112.505,93.974c0-1.778,0.396-3.14,1.187-4.084s1.929-1.417,3.413-1.417
		c0.784,0,1.466,0.129,2.047,0.389c0.581,0.259,1.061,0.63,1.438,1.113c0.378,0.483,0.658,1.064,0.84,1.743
		c0.182,0.679,0.273,1.432,0.273,2.257c0,1.778-0.396,3.14-1.187,4.084c-0.791,0.945-1.929,1.417-3.413,1.417
		c-0.784,0-1.467-0.129-2.047-0.389c-0.581-0.259-1.061-0.63-1.438-1.113s-0.658-1.064-0.84-1.743
		C112.596,95.553,112.505,94.8,112.505,93.974z M114.248,93.974c0,0.532,0.053,1.043,0.158,1.533s0.269,0.917,0.493,1.281
		c0.224,0.364,0.518,0.658,0.882,0.882c0.364,0.224,0.805,0.336,1.323,0.336c1.904,0.014,2.856-1.33,2.856-4.032
		c0-0.546-0.052-1.064-0.157-1.554c-0.105-0.49-0.27-0.917-0.494-1.281c-0.224-0.364-0.518-0.654-0.882-0.872
		c-0.364-0.217-0.805-0.326-1.323-0.326C115.2,89.928,114.248,91.272,114.248,93.974z"/>
	<path style="fill:#F2F2F2;" d="M130.922,90.593c0.462-0.672,0.973-1.145,1.533-1.417c0.56-0.273,1.26-0.41,2.1-0.41
		c1.288,0,2.279,0.42,2.972,1.26c0.693,0.84,1.04,2.079,1.04,3.717c0,1.89-0.403,3.318-1.208,4.284
		c-0.805,0.966-1.929,1.449-3.371,1.449c-1.54,0-2.695-0.532-3.465-1.596c-0.77-1.063-1.155-2.737-1.155-5.019
		c0-1.204,0.06-2.233,0.179-3.087c0.119-0.854,0.294-1.575,0.525-2.163c0.231-0.588,0.511-1.057,0.84-1.407
		c0.329-0.35,0.7-0.626,1.113-0.83c0.413-0.203,0.864-0.346,1.354-0.43c0.49-0.084,1.015-0.154,1.575-0.21
		c0.728-0.07,1.298-0.15,1.711-0.241c0.413-0.091,0.745-0.255,0.998-0.494l0.189,1.512c-0.14,0.126-0.294,0.231-0.462,0.315
		c-0.168,0.084-0.371,0.154-0.609,0.21c-0.238,0.056-0.521,0.105-0.851,0.147s-0.71,0.077-1.145,0.105
		c-0.602,0.042-1.13,0.116-1.585,0.221s-0.847,0.308-1.176,0.609c-0.329,0.301-0.588,0.728-0.777,1.281
		c-0.189,0.553-0.319,1.285-0.389,2.195H130.922z M131.111,93.995c0,0.532,0.056,1.043,0.168,1.533
		c0.112,0.49,0.284,0.92,0.515,1.292s0.528,0.661,0.893,0.871c0.364,0.21,0.791,0.315,1.281,0.315c0.966,0,1.684-0.347,2.152-1.04
		c0.469-0.693,0.704-1.719,0.704-3.077c0-0.532-0.049-1.022-0.147-1.47c-0.098-0.448-0.252-0.836-0.462-1.166
		c-0.21-0.329-0.476-0.581-0.798-0.756c-0.322-0.175-0.707-0.262-1.155-0.262c-1.092-0.014-1.89,0.304-2.394,0.955
		C131.363,91.843,131.111,92.777,131.111,93.995z"/>
	<path style="fill:#F2F2F2;" d="M141.153,88.724h1.155l0.315,1.26h0.084c0.322-0.49,0.738-0.864,1.25-1.123
		c0.511-0.259,1.095-0.389,1.753-0.389c1.4,0,2.443,0.413,3.129,1.239c0.686,0.826,1.029,2.177,1.029,4.053
		c0,0.882-0.116,1.677-0.347,2.383c-0.231,0.707-0.556,1.306-0.977,1.796c-0.42,0.49-0.927,0.868-1.522,1.134
		s-1.256,0.399-1.984,0.399c-0.518,0-0.928-0.031-1.229-0.094c-0.301-0.063-0.626-0.171-0.977-0.326v4.368h-1.68V88.724z
		 M145.395,89.942c-0.714,0-1.278,0.186-1.69,0.557c-0.413,0.371-0.704,0.935-0.872,1.69v5.208c0.252,0.196,0.539,0.347,0.861,0.452
		c0.322,0.105,0.749,0.158,1.281,0.158c0.966,0,1.732-0.36,2.299-1.082c0.567-0.721,0.851-1.782,0.851-3.182
		c0-0.574-0.049-1.095-0.147-1.564c-0.098-0.469-0.255-0.868-0.472-1.197c-0.217-0.329-0.498-0.584-0.84-0.766
		C146.322,90.033,145.899,89.942,145.395,89.942z"/>
	<path style="fill:#F2F2F2;" d="M160.255,98.384c-0.42,0.336-0.949,0.602-1.586,0.798s-1.313,0.294-2.026,0.294
		c-0.798,0-1.491-0.129-2.079-0.389c-0.588-0.259-1.071-0.63-1.449-1.113s-0.658-1.061-0.84-1.732
		c-0.182-0.672-0.273-1.428-0.273-2.268c0-1.792,0.399-3.157,1.197-4.095c0.798-0.938,1.939-1.407,3.423-1.407
		c0.476,0,0.952,0.052,1.428,0.157c0.476,0.105,0.903,0.305,1.281,0.599s0.686,0.711,0.924,1.25c0.238,0.539,0.357,1.25,0.357,2.131
		c0,0.462-0.042,0.974-0.126,1.533h-6.741c0,0.616,0.063,1.162,0.189,1.638s0.322,0.878,0.588,1.208s0.612,0.581,1.04,0.756
		c0.427,0.175,0.948,0.263,1.564,0.263c0.476,0,0.952-0.084,1.428-0.252c0.476-0.168,0.833-0.364,1.071-0.588L160.255,98.384z
		 M156.643,89.942c-0.826,0-1.488,0.217-1.984,0.651c-0.497,0.434-0.795,1.176-0.893,2.226h5.208c0-1.064-0.203-1.81-0.609-2.237
		C157.958,90.156,157.385,89.942,156.643,89.942z"/>
	<path style="fill:#F2F2F2;" d="M169.75,93.008l0.063-1.302h-0.063l-0.861,1.344l-4.725,6.174h-0.966v-10.5h1.68v6.405l-0.063,1.239
		h0.084l0.819-1.302l4.725-6.342h0.987v10.5h-1.68V93.008z M165.614,84.482c0.14,0.645,0.381,1.092,0.724,1.344
		s0.738,0.378,1.187,0.378s0.847-0.133,1.197-0.399c0.35-0.266,0.588-0.7,0.714-1.302l1.26,0.399
		c-0.126,0.812-0.486,1.435-1.081,1.869c-0.595,0.434-1.306,0.651-2.132,0.651c-0.378,0-0.752-0.049-1.124-0.147
		c-0.371-0.098-0.703-0.245-0.998-0.441c-0.294-0.196-0.546-0.448-0.756-0.756c-0.21-0.308-0.35-0.672-0.42-1.092L165.614,84.482z"
		/>
	<path style="fill:#F2F2F2;" d="M177.216,94.499h-0.966v4.725h-1.68v-10.5h1.68v4.746l0.903-0.294l3.36-4.452h1.827l-3.255,4.221
		l-0.882,0.693l1.092,0.84l3.507,4.746h-2.079L177.216,94.499z"/>
	<path style="fill:#F2F2F2;" d="M183.079,92.399h5.082v1.554h-5.082V92.399z"/>
	<path style="fill:#F2F2F2;" d="M199.522,101.891h-1.134l-0.315-2.667h-7.896l-0.315,2.667h-1.134v-4.137h1.239
		c0.112-0.154,0.259-0.43,0.441-0.829c0.182-0.399,0.36-0.959,0.535-1.68c0.175-0.721,0.329-1.617,0.462-2.688
		c0.133-1.071,0.213-2.349,0.241-3.833h6.342v9.03h1.533V101.891z M196.309,97.754v-7.56h-3.15
		c-0.028,0.588-0.077,1.229-0.147,1.921c-0.07,0.693-0.165,1.386-0.284,2.079c-0.119,0.693-0.27,1.347-0.452,1.963
		s-0.392,1.148-0.63,1.596H196.309z"/>
	<path style="fill:#F2F2F2;" d="M201.817,89.501c0.532-0.322,1.151-0.56,1.858-0.714c0.707-0.154,1.445-0.231,2.215-0.231
		c0.728,0,1.313,0.098,1.753,0.294c0.441,0.196,0.777,0.452,1.008,0.767s0.385,0.662,0.462,1.04
		c0.077,0.378,0.115,0.756,0.115,1.134c0,0.84-0.021,1.659-0.063,2.457s-0.063,1.554-0.063,2.268c0,0.518,0.021,1.008,0.063,1.47
		c0.042,0.462,0.119,0.889,0.231,1.281h-1.239l-0.441-1.47h-0.105c-0.126,0.196-0.284,0.389-0.473,0.578s-0.417,0.357-0.683,0.504
		s-0.574,0.27-0.924,0.368c-0.35,0.098-0.749,0.147-1.197,0.147c-0.448,0-0.865-0.07-1.25-0.21c-0.385-0.14-0.718-0.339-0.998-0.599
		c-0.28-0.259-0.501-0.57-0.662-0.935c-0.161-0.364-0.242-0.777-0.242-1.239c0-0.616,0.126-1.13,0.378-1.543
		c0.252-0.413,0.605-0.742,1.061-0.987c0.455-0.245,1.001-0.42,1.638-0.525c0.637-0.105,1.34-0.157,2.11-0.157
		c0.196,0,0.389,0,0.578,0s0.381,0.014,0.578,0.042c0.042-0.42,0.063-0.798,0.063-1.134c0-0.77-0.154-1.309-0.462-1.617
		c-0.308-0.308-0.869-0.462-1.68-0.462c-0.238,0-0.494,0.018-0.767,0.054s-0.553,0.086-0.84,0.151
		c-0.287,0.065-0.56,0.144-0.819,0.238c-0.259,0.093-0.487,0.198-0.683,0.313L201.817,89.501z M204.799,97.922
		c0.392,0,0.742-0.053,1.05-0.158c0.308-0.105,0.574-0.238,0.798-0.399c0.224-0.161,0.41-0.339,0.557-0.536
		c0.147-0.196,0.255-0.385,0.326-0.567V94.52c-0.196-0.014-0.396-0.024-0.599-0.031c-0.203-0.007-0.403-0.011-0.599-0.011
		c-0.434,0-0.857,0.025-1.271,0.074c-0.413,0.049-0.777,0.14-1.092,0.273c-0.315,0.133-0.567,0.315-0.756,0.546
		s-0.284,0.522-0.284,0.872c0,0.49,0.175,0.893,0.525,1.208S204.253,97.922,204.799,97.922z"/>
	<path style="fill:#F2F2F2;" d="M218.743,94.583h-4.746v4.641h-1.68v-10.5h1.68v4.389h4.746v-4.389h1.68v10.5h-1.68V94.583z"/>
	<path style="fill:#F2F2F2;" d="M230.851,98.531c-0.42,0.308-0.917,0.542-1.491,0.704c-0.574,0.161-1.176,0.241-1.806,0.241
		c-0.812,0-1.498-0.129-2.058-0.389c-0.56-0.259-1.019-0.63-1.375-1.113s-0.616-1.064-0.777-1.743
		c-0.161-0.679-0.242-1.431-0.242-2.257c0-1.778,0.392-3.14,1.176-4.084c0.784-0.945,1.911-1.417,3.381-1.417
		c0.672,0,1.242,0.052,1.711,0.157c0.469,0.105,0.893,0.256,1.271,0.452l-0.483,1.449c-0.322-0.182-0.679-0.326-1.071-0.431
		c-0.392-0.105-0.813-0.158-1.26-0.158c-1.988,0-2.982,1.344-2.982,4.032c0,0.532,0.053,1.04,0.158,1.522s0.28,0.91,0.525,1.281
		c0.245,0.371,0.567,0.668,0.966,0.892c0.399,0.224,0.893,0.336,1.48,0.336c0.504,0,0.956-0.077,1.354-0.231
		c0.399-0.154,0.725-0.329,0.977-0.525L230.851,98.531z"/>
	<path style="fill:#F2F2F2;" d="M236.759,95.528l0.59,2.016h0.105l0.464-2.037l2.044-6.783h1.68l-3.108,9.429
		c-0.238,0.686-0.472,1.351-0.703,1.995s-0.487,1.218-0.767,1.722c-0.28,0.504-0.595,0.906-0.945,1.208
		c-0.35,0.301-0.756,0.452-1.218,0.452c-0.504,0-0.917-0.07-1.239-0.21l0.294-1.449c0.182,0.07,0.357,0.105,0.525,0.105
		c0.392,0,0.77-0.207,1.134-0.62s0.665-1.124,0.903-2.131l-4.221-10.5h1.932L236.759,95.528z"/>
</g>
<g>
	<path style="fill:#FFFFFF;" d="M28.678,34.971V17.784h31.885v65.665h12.564v17.306H27.611V83.449h12.327V34.971H28.678z"/>
</g>
</svg>
