<?xml version="1.0" encoding="utf-8"?>
<!-- Generator: Adobe Illustrator 16.0.0, SVG Export Plug-In . SVG Version: 6.00 Build 0)  -->
<!DOCTYPE svg PUBLIC "-//W3C//DTD SVG 1.1//EN" "http://www.w3.org/Graphics/SVG/1.1/DTD/svg11.dtd">
<svg version="1.1" id="Layer_1" xmlns="http://www.w3.org/2000/svg" xmlns:xlink="http://www.w3.org/1999/xlink" x="0px" y="0px"
	 width="380px" height="111px" viewBox="0 0 380 111" enable-background="new 0 0 380 111" xml:space="preserve">
<rect y="35" fill="#E50647" width="286" height="44"/>
<rect fill="#E50647" width="347" height="44"/>
<rect y="64" fill="#E50647" width="380" height="47"/>
<path fill="#F2F2F2" d="M95.354,21.111L95.9,22.98h0.105l0.42-1.933l2.814-7.687h1.784l-3.717,9.556
	c-0.378,0.994-0.711,1.823-0.997,2.488c-0.287,0.665-0.578,1.204-0.872,1.617s-0.608,0.707-0.944,0.882
	c-0.336,0.176-0.75,0.263-1.24,0.263c-0.461,0-0.828-0.038-1.102-0.116c-0.273-0.076-0.529-0.191-0.767-0.346l0.524-1.449
	c0.28,0.154,0.539,0.252,0.777,0.294c0.238,0.042,0.455,0.063,0.65,0.063c0.393,0,0.722-0.199,0.988-0.599
	c0.266-0.399,0.496-0.99,0.692-1.774L89.58,13.361h2.016L95.354,21.111z"/>
<path fill="#F2F2F2" d="M103.521,17.563v2.855c0,0.378,0.021,0.718,0.063,1.019c0.043,0.302,0.127,0.56,0.252,0.776
	c0.127,0.218,0.309,0.386,0.547,0.504c0.238,0.119,0.553,0.18,0.945,0.18c0.629,0,1.146-0.07,1.553-0.211
	c0.406-0.139,0.715-0.293,0.925-0.461v-4.662h1.68v10.5h-1.68v-4.41c-0.224,0.14-0.557,0.293-0.997,0.461
	c-0.441,0.169-1.047,0.253-1.816,0.253c-0.519,0-0.975-0.056-1.365-0.168c-0.393-0.112-0.722-0.308-0.987-0.589
	c-0.267-0.279-0.466-0.65-0.599-1.112s-0.199-1.043-0.199-1.743v-3.191L103.521,17.563L103.521,17.563z"/>
<path fill="#F2F2F2" d="M112.488,18.339c0.531-0.321,1.151-0.56,1.858-0.714c0.706-0.154,1.445-0.23,2.216-0.23
	c0.728,0,1.313,0.098,1.753,0.293c0.44,0.197,0.777,0.452,1.009,0.768c0.23,0.314,0.385,0.661,0.461,1.039
	c0.077,0.378,0.115,0.756,0.115,1.134c0,0.84-0.021,1.659-0.063,2.457s-0.063,1.554-0.063,2.269c0,0.518,0.021,1.008,0.063,1.47
	c0.042,0.462,0.119,0.89,0.23,1.28h-1.238l-0.441-1.47h-0.104c-0.126,0.196-0.284,0.389-0.473,0.577
	c-0.188,0.189-0.417,0.357-0.683,0.504s-0.574,0.271-0.924,0.368s-0.749,0.147-1.197,0.147c-0.447,0-0.864-0.07-1.249-0.211
	c-0.386-0.139-0.718-0.339-0.997-0.598c-0.281-0.26-0.502-0.57-0.662-0.936c-0.161-0.363-0.242-0.776-0.242-1.238
	c0-0.615,0.127-1.131,0.379-1.543c0.252-0.414,0.605-0.742,1.061-0.988c0.455-0.244,1-0.42,1.638-0.524
	c0.637-0.104,1.341-0.157,2.11-0.157c0.195,0,0.389,0,0.578,0c0.188,0,0.381,0.014,0.577,0.042c0.042-0.42,0.063-0.798,0.063-1.134
	c0-0.77-0.154-1.309-0.463-1.617c-0.308-0.309-0.868-0.463-1.68-0.463c-0.238,0-0.494,0.019-0.767,0.055s-0.554,0.086-0.84,0.151
	c-0.287,0.065-0.56,0.144-0.819,0.237c-0.259,0.094-0.486,0.198-0.682,0.313L112.488,18.339z M115.471,26.76
	c0.391,0,0.741-0.053,1.049-0.157c0.309-0.104,0.574-0.237,0.799-0.399c0.224-0.16,0.409-0.339,0.557-0.535
	c0.146-0.195,0.255-0.385,0.325-0.566v-1.744c-0.196-0.014-0.396-0.023-0.599-0.031c-0.203-0.006-0.402-0.01-0.599-0.01
	c-0.435,0-0.857,0.024-1.271,0.073c-0.413,0.05-0.777,0.14-1.092,0.272c-0.314,0.134-0.566,0.315-0.756,0.547
	c-0.189,0.23-0.283,0.521-0.283,0.871c0,0.49,0.174,0.893,0.524,1.207C114.477,26.603,114.924,26.76,115.471,26.76z"/>
<path fill="#F2F2F2" d="M130.17,27.369c-0.42,0.309-0.918,0.543-1.491,0.703c-0.574,0.161-1.177,0.242-1.806,0.242
	c-0.813,0-1.498-0.13-2.059-0.389c-0.561-0.26-1.019-0.631-1.375-1.113c-0.357-0.482-0.617-1.064-0.777-1.743
	c-0.161-0.679-0.242-1.431-0.242-2.257c0-1.778,0.393-3.141,1.177-4.085c0.784-0.944,1.911-1.417,3.381-1.417
	c0.672,0,1.242,0.052,1.712,0.156c0.469,0.105,0.893,0.256,1.27,0.452l-0.482,1.449c-0.322-0.183-0.68-0.325-1.07-0.431
	c-0.393-0.105-0.813-0.158-1.261-0.158c-1.987,0-2.981,1.345-2.981,4.033c0,0.531,0.053,1.039,0.157,1.521
	c0.104,0.483,0.28,0.91,0.524,1.281c0.245,0.371,0.567,0.669,0.967,0.893c0.398,0.225,0.893,0.336,1.48,0.336
	c0.504,0,0.955-0.076,1.354-0.23c0.399-0.154,0.725-0.329,0.977-0.525L130.17,27.369z"/>
<path fill="#F2F2F2" d="M139.829,19.032h-3.297v9.03h-1.681v-9.03h-3.297v-1.47h8.274L139.829,19.032L139.829,19.032z"/>
<path fill="#F2F2F2" d="M148.33,21.846l0.063-1.302h-0.063l-0.861,1.345l-4.725,6.174h-0.967v-10.5h1.68v6.404l-0.063,1.239h0.084
	l0.819-1.302l4.725-6.342h0.987v10.5h-1.68L148.33,21.846L148.33,21.846z"/>
<path fill="#F2F2F2" d="M160.908,27.223c-0.42,0.336-0.948,0.602-1.586,0.797c-0.637,0.196-1.313,0.295-2.025,0.295
	c-0.799,0-1.491-0.13-2.08-0.389c-0.588-0.26-1.07-0.631-1.448-1.113s-0.658-1.061-0.841-1.732
	c-0.182-0.672-0.272-1.428-0.272-2.268c0-1.793,0.399-3.157,1.197-4.096c0.798-0.938,1.938-1.406,3.423-1.406
	c0.477,0,0.952,0.052,1.428,0.156c0.477,0.105,0.903,0.305,1.281,0.6c0.378,0.293,0.686,0.711,0.924,1.249
	c0.238,0.539,0.357,1.249,0.357,2.132c0,0.462-0.042,0.973-0.126,1.533h-6.741c0,0.615,0.063,1.162,0.189,1.638
	c0.125,0.476,0.321,0.878,0.588,1.208c0.266,0.328,0.611,0.58,1.039,0.756c0.428,0.175,0.948,0.262,1.564,0.262
	c0.477,0,0.952-0.084,1.428-0.252c0.477-0.168,0.833-0.363,1.071-0.588L160.908,27.223z M157.297,18.779
	c-0.826,0-1.488,0.218-1.984,0.652c-0.498,0.434-0.795,1.176-0.893,2.226h5.207c0-1.063-0.203-1.81-0.608-2.237
	C158.612,18.994,158.039,18.779,157.297,18.779z"/>
<path fill="#F2F2F2" d="M172.615,24.366l0.59,2.016h0.105l0.463-2.036l2.045-6.783h1.68l-3.107,9.429
	c-0.238,0.687-0.473,1.351-0.703,1.995c-0.231,0.644-0.487,1.218-0.768,1.722c-0.279,0.504-0.595,0.906-0.944,1.208
	c-0.351,0.301-0.757,0.451-1.218,0.451c-0.504,0-0.918-0.07-1.239-0.21l0.294-1.449c0.182,0.069,0.357,0.104,0.525,0.104
	c0.391,0,0.77-0.206,1.133-0.619c0.365-0.413,0.666-1.123,0.904-2.131l-4.222-10.5h1.933L172.615,24.366z"/>
<path fill="#F2F2F2" d="M180.908,17.563v2.855c0,0.378,0.021,0.718,0.063,1.019c0.042,0.302,0.126,0.56,0.252,0.776
	c0.126,0.218,0.308,0.386,0.546,0.504c0.238,0.119,0.553,0.18,0.945,0.18c0.63,0,1.147-0.07,1.554-0.211
	c0.406-0.139,0.714-0.293,0.925-0.461v-4.662h1.68v10.5h-1.68v-4.41c-0.225,0.14-0.557,0.293-0.998,0.461
	c-0.441,0.169-1.047,0.253-1.816,0.253c-0.518,0-0.974-0.056-1.365-0.168c-0.393-0.112-0.721-0.308-0.986-0.589
	c-0.267-0.279-0.467-0.65-0.6-1.112c-0.133-0.462-0.199-1.043-0.199-1.743v-3.191L180.908,17.563L180.908,17.563z"/>
<path fill="#F2F2F2" d="M197.777,27.223c-0.42,0.336-0.947,0.602-1.586,0.797c-0.637,0.196-1.313,0.295-2.025,0.295
	c-0.798,0-1.49-0.13-2.079-0.389c-0.588-0.26-1.071-0.631-1.448-1.113c-0.379-0.482-0.658-1.061-0.841-1.732
	c-0.182-0.672-0.272-1.428-0.272-2.268c0-1.793,0.398-3.157,1.197-4.096c0.797-0.938,1.938-1.406,3.422-1.406
	c0.478,0,0.953,0.052,1.43,0.156c0.476,0.105,0.902,0.305,1.279,0.6c0.379,0.293,0.688,0.711,0.926,1.249
	c0.236,0.539,0.355,1.249,0.355,2.132c0,0.462-0.041,0.973-0.125,1.533h-6.742c0,0.615,0.063,1.162,0.189,1.638
	s0.322,0.878,0.588,1.208c0.266,0.328,0.612,0.58,1.039,0.756c0.428,0.175,0.949,0.262,1.564,0.262c0.477,0,0.953-0.084,1.429-0.252
	c0.476-0.168,0.833-0.363,1.071-0.588L197.777,27.223z M194.166,18.779c-0.826,0-1.488,0.218-1.984,0.652
	c-0.496,0.434-0.795,1.176-0.893,2.226h5.208c0-1.063-0.203-1.81-0.608-2.237C195.482,18.994,194.908,18.779,194.166,18.779z"/>
<path fill="#F2F2F2" d="M207.148,23.421h-4.746v4.642h-1.68v-10.5h1.68v4.389h4.746v-4.389h1.68v10.5h-1.68V23.421z"/>
<path fill="#F2F2F2" d="M218.529,21.846l0.063-1.302h-0.063l-0.86,1.345l-4.726,6.174h-0.965v-10.5h1.68v6.404l-0.063,1.239h0.084
	l0.818-1.302l4.725-6.342h0.987v10.5h-1.681V21.846z"/>
<path fill="#F2F2F2" d="M225.996,23.337h-0.967v4.726h-1.68v-10.5h1.68v4.746l0.902-0.295l3.36-4.451h1.826l-3.255,4.221
	l-0.883,0.693l1.093,0.84l3.508,4.746h-2.08L225.996,23.337z"/>
<path fill="#F2F2F2" d="M232.438,22.813c0-1.778,0.396-3.141,1.188-4.085s1.929-1.417,3.412-1.417c0.784,0,1.467,0.129,2.047,0.389
	c0.582,0.258,1.062,0.629,1.438,1.112c0.379,0.483,0.658,1.063,0.84,1.743c0.183,0.68,0.273,1.432,0.273,2.258
	c0,1.777-0.396,3.139-1.188,4.084s-1.928,1.418-3.412,1.418c-0.784,0-1.467-0.13-2.047-0.389c-0.582-0.26-1.061-0.631-1.439-1.113
	c-0.377-0.482-0.658-1.064-0.84-1.743C232.529,24.391,232.438,23.639,232.438,22.813z M234.182,22.813
	c0,0.531,0.053,1.043,0.157,1.533c0.104,0.49,0.269,0.916,0.493,1.28s0.518,0.658,0.883,0.882c0.363,0.225,0.805,0.336,1.322,0.336
	c1.904,0.014,2.855-1.33,2.855-4.031c0-0.547-0.053-1.064-0.156-1.555c-0.105-0.49-0.271-0.916-0.494-1.281
	c-0.225-0.363-0.518-0.654-0.883-0.871c-0.363-0.217-0.805-0.326-1.322-0.326C235.133,18.766,234.182,20.11,234.182,22.813z"/>
<path fill="#F2F2F2" d="M244.257,17.583c0.489-0.028,1.005-0.063,1.544-0.104c0.538-0.043,1.207-0.063,2.006-0.063
	c1.385,0,2.379,0.214,2.98,0.641c0.604,0.427,0.902,1.074,0.902,1.942c0,0.49-0.144,0.97-0.431,1.438
	c-0.286,0.47-0.76,0.815-1.417,1.04v0.084c0.825,0.154,1.407,0.44,1.743,0.86s0.504,0.979,0.504,1.681
	c0,1.092-0.394,1.883-1.176,2.373c-0.785,0.49-1.961,0.734-3.528,0.734c-0.588,0-1.134-0.018-1.638-0.053
	c-0.504-0.035-1.002-0.073-1.491-0.115L244.257,17.583L244.257,17.583z M247.994,21.993c0.252,0,0.497-0.042,0.734-0.126
	c0.238-0.084,0.453-0.199,0.642-0.347s0.343-0.318,0.462-0.515c0.119-0.195,0.18-0.406,0.18-0.63c0-0.56-0.169-0.948-0.505-1.165
	c-0.337-0.217-0.925-0.326-1.765-0.326c-0.447,0-0.801,0.008-1.061,0.021c-0.26,0.014-0.509,0.027-0.746,0.042v3.045L247.994,21.993
	L247.994,21.993z M245.938,26.654c0.267,0.029,0.527,0.05,0.787,0.063c0.258,0.015,0.563,0.021,0.914,0.021
	c0.938,0,1.633-0.133,2.088-0.398c0.455-0.265,0.685-0.721,0.685-1.365c0-0.504-0.193-0.913-0.578-1.229
	c-0.385-0.314-1.067-0.473-2.047-0.473h-1.849V26.654z"/>
<path fill="#F2F2F2" d="M260.343,17.583c0.489-0.028,1.005-0.063,1.544-0.104c0.538-0.043,1.207-0.063,2.006-0.063
	c1.385,0,2.379,0.214,2.98,0.641c0.604,0.427,0.902,1.074,0.902,1.942c0,0.49-0.144,0.97-0.43,1.438
	c-0.287,0.47-0.761,0.815-1.418,1.04v0.084c0.825,0.154,1.407,0.44,1.743,0.86s0.504,0.979,0.504,1.681
	c0,1.092-0.393,1.883-1.176,2.373c-0.785,0.49-1.961,0.734-3.528,0.734c-0.588,0-1.134-0.018-1.638-0.053
	c-0.504-0.035-1.002-0.073-1.491-0.115L260.343,17.583L260.343,17.583z M264.08,21.993c0.252,0,0.497-0.042,0.734-0.126
	c0.238-0.084,0.453-0.199,0.642-0.347s0.343-0.318,0.462-0.515c0.119-0.195,0.18-0.406,0.18-0.63c0-0.56-0.169-0.948-0.505-1.165
	c-0.337-0.217-0.925-0.326-1.765-0.326c-0.447,0-0.801,0.008-1.061,0.021c-0.26,0.014-0.509,0.027-0.746,0.042v3.045L264.08,21.993
	L264.08,21.993z M262.021,26.654c0.268,0.029,0.528,0.05,0.789,0.063c0.258,0.015,0.563,0.021,0.912,0.021
	c0.938,0,1.635-0.133,2.09-0.398c0.455-0.265,0.684-0.721,0.684-1.365c0-0.504-0.193-0.913-0.578-1.229
	c-0.385-0.314-1.066-0.473-2.047-0.473h-1.85V26.654L262.021,26.654z"/>
<path fill="#F2F2F2" d="M277.395,19.432c0.463-0.673,0.974-1.145,1.533-1.418c0.561-0.273,1.26-0.41,2.1-0.41
	c1.289,0,2.279,0.42,2.973,1.26c0.691,0.841,1.04,2.08,1.04,3.718c0,1.89-0.403,3.317-1.208,4.284
	c-0.807,0.966-1.93,1.449-3.37,1.449c-1.541,0-2.694-0.532-3.465-1.597c-0.771-1.063-1.156-2.737-1.156-5.02
	c0-1.204,0.062-2.232,0.181-3.088c0.117-0.854,0.293-1.574,0.523-2.162c0.23-0.588,0.512-1.057,0.84-1.407
	c0.329-0.35,0.7-0.626,1.113-0.829c0.413-0.203,0.863-0.347,1.354-0.431c0.49-0.084,1.016-0.154,1.575-0.21
	c0.728-0.07,1.298-0.15,1.712-0.242c0.412-0.09,0.744-0.255,0.997-0.493l0.188,1.513c-0.141,0.125-0.293,0.23-0.463,0.314
	c-0.168,0.084-0.37,0.154-0.607,0.21c-0.238,0.056-0.521,0.104-0.852,0.147c-0.328,0.041-0.711,0.076-1.146,0.104
	c-0.603,0.042-1.13,0.116-1.585,0.221s-0.847,0.308-1.176,0.608c-0.329,0.302-0.588,0.729-0.775,1.281
	c-0.189,0.553-0.32,1.285-0.39,2.195h0.063V19.432z M277.584,22.833c0,0.532,0.055,1.043,0.168,1.533
	c0.111,0.49,0.283,0.921,0.514,1.292c0.231,0.371,0.529,0.66,0.894,0.871c0.364,0.209,0.791,0.314,1.28,0.314
	c0.968,0,1.685-0.346,2.152-1.039c0.469-0.693,0.703-1.719,0.703-3.076c0-0.532-0.049-1.022-0.146-1.471
	c-0.098-0.447-0.252-0.836-0.461-1.166c-0.211-0.328-0.477-0.58-0.799-0.756c-0.322-0.174-0.707-0.262-1.154-0.262
	c-1.092-0.014-1.891,0.305-2.395,0.955C277.836,20.681,277.584,21.615,277.584,22.833z"/>
<path fill="#F2F2F2" d="M287.624,18.339c0.532-0.321,1.151-0.56,1.858-0.714s1.444-0.23,2.215-0.23c0.729,0,1.313,0.098,1.754,0.293
	c0.441,0.197,0.777,0.452,1.008,0.768c0.23,0.314,0.385,0.661,0.463,1.039c0.076,0.378,0.115,0.756,0.115,1.134
	c0,0.84-0.021,1.659-0.063,2.457c-0.043,0.798-0.063,1.554-0.063,2.269c0,0.518,0.021,1.008,0.063,1.47
	c0.041,0.462,0.118,0.89,0.23,1.28h-1.239l-0.44-1.47h-0.104c-0.126,0.196-0.282,0.389-0.474,0.577
	c-0.188,0.189-0.415,0.357-0.682,0.504c-0.268,0.147-0.574,0.271-0.925,0.368c-0.351,0.098-0.749,0.147-1.196,0.147
	c-0.449,0-0.865-0.07-1.25-0.211c-0.385-0.139-0.718-0.339-0.998-0.598c-0.278-0.26-0.5-0.57-0.66-0.936
	c-0.162-0.363-0.241-0.776-0.241-1.238c0-0.615,0.125-1.131,0.377-1.543c0.253-0.414,0.604-0.742,1.062-0.988
	c0.454-0.244,1.002-0.42,1.639-0.524s1.34-0.157,2.109-0.157c0.196,0,0.389,0,0.577,0s0.382,0.014,0.578,0.042
	c0.042-0.42,0.063-0.798,0.063-1.134c0-0.77-0.154-1.309-0.461-1.617c-0.31-0.309-0.869-0.463-1.682-0.463
	c-0.238,0-0.492,0.019-0.768,0.055c-0.273,0.036-0.553,0.086-0.84,0.151c-0.287,0.065-0.561,0.144-0.817,0.237
	c-0.261,0.094-0.487,0.198-0.685,0.313L287.624,18.339z M290.605,26.76c0.393,0,0.742-0.053,1.051-0.157
	c0.307-0.104,0.572-0.237,0.797-0.399c0.225-0.16,0.41-0.339,0.557-0.535c0.147-0.195,0.256-0.385,0.326-0.566v-1.744
	c-0.195-0.014-0.396-0.023-0.6-0.031c-0.202-0.006-0.402-0.01-0.598-0.01c-0.435,0-0.857,0.024-1.271,0.073
	c-0.413,0.05-0.776,0.14-1.092,0.272c-0.315,0.134-0.567,0.315-0.756,0.547c-0.188,0.23-0.285,0.521-0.285,0.871
	c0,0.49,0.177,0.893,0.525,1.207C289.611,26.603,290.061,26.76,290.605,26.76z"/>
<path fill="#F2F2F2" d="M305.162,19.032h-3.297v9.03h-1.681v-9.03h-3.296v-1.47h8.272L305.162,19.032L305.162,19.032z"/>
<path fill="#F2F2F2" d="M312.248,19.032h-3.045c-0.043,0.588-0.084,1.222-0.127,1.9c-0.041,0.679-0.104,1.358-0.189,2.037
	c-0.084,0.679-0.194,1.33-0.336,1.952c-0.14,0.623-0.317,1.174-0.535,1.648c-0.217,0.477-0.481,0.858-0.798,1.145
	c-0.314,0.287-0.688,0.432-1.124,0.432c-0.266,0-0.496-0.015-0.691-0.043c-0.196-0.027-0.371-0.076-0.524-0.146l0.252-1.407
	c0.168,0.056,0.351,0.084,0.545,0.084c0.28,0,0.533-0.118,0.757-0.356c0.225-0.238,0.42-0.689,0.589-1.355
	c0.168-0.664,0.308-1.585,0.42-2.761c0.111-1.177,0.188-2.709,0.23-4.599h6.258v10.5h-1.68L312.248,19.032L312.248,19.032z"/>
<path fill="#F2F2F2" d="M316.931,18.339c0.532-0.321,1.151-0.56,1.858-0.714s1.445-0.23,2.215-0.23c0.729,0,1.313,0.098,1.754,0.293
	c0.441,0.197,0.777,0.452,1.008,0.768c0.231,0.314,0.386,0.661,0.464,1.039c0.075,0.378,0.114,0.756,0.114,1.134
	c0,0.84-0.021,1.659-0.063,2.457s-0.063,1.554-0.063,2.269c0,0.518,0.021,1.008,0.063,1.47c0.042,0.462,0.119,0.89,0.23,1.28h-1.238
	l-0.44-1.47h-0.105c-0.126,0.196-0.282,0.389-0.473,0.577c-0.188,0.189-0.416,0.357-0.683,0.504
	c-0.268,0.147-0.574,0.271-0.925,0.368c-0.351,0.098-0.748,0.147-1.195,0.147c-0.449,0-0.865-0.07-1.25-0.211
	c-0.385-0.139-0.718-0.339-0.998-0.598c-0.279-0.26-0.5-0.57-0.661-0.936c-0.161-0.363-0.241-0.776-0.241-1.238
	c0-0.615,0.125-1.131,0.377-1.543c0.253-0.414,0.605-0.742,1.062-0.988c0.455-0.244,1.002-0.42,1.639-0.524s1.34-0.157,2.11-0.157
	c0.195,0,0.389,0,0.577,0s0.382,0.014,0.577,0.042c0.042-0.42,0.063-0.798,0.063-1.134c0-0.77-0.154-1.309-0.461-1.617
	c-0.31-0.309-0.869-0.463-1.681-0.463c-0.238,0-0.493,0.019-0.768,0.055c-0.273,0.036-0.553,0.086-0.84,0.151
	c-0.287,0.065-0.562,0.144-0.818,0.237c-0.26,0.094-0.486,0.198-0.684,0.313L316.931,18.339z M319.912,26.76
	c0.393,0,0.742-0.053,1.051-0.157c0.307-0.104,0.573-0.237,0.797-0.399c0.226-0.16,0.41-0.339,0.558-0.535
	c0.146-0.195,0.256-0.385,0.325-0.566v-1.744c-0.195-0.014-0.396-0.023-0.599-0.031c-0.203-0.006-0.403-0.01-0.599-0.01
	c-0.435,0-0.857,0.024-1.271,0.073c-0.413,0.05-0.775,0.14-1.092,0.272c-0.315,0.134-0.567,0.315-0.756,0.547
	c-0.188,0.23-0.284,0.521-0.284,0.871c0,0.49,0.176,0.893,0.525,1.207C318.918,26.603,319.366,26.76,319.912,26.76z"/>
<path fill="#F2F2F2" d="M330.385,22.686l-3.526-5.123h2.058l1.995,2.897l0.588,1.197l0.609-1.197l2.037-2.897h1.89l-3.55,5.039
	l3.76,5.461h-1.995l-2.226-3.192l-0.632-1.261l-0.649,1.261l-2.269,3.192h-1.868L330.385,22.686z"/>
<path fill="#F2F2F2" d="M97.602,55.047l0.063-1.303h-0.063l-0.861,1.344l-4.725,6.174H91.05v-10.5h1.68v6.405l-0.063,1.239h0.084
	l0.82-1.303l4.725-6.342h0.986v10.5h-1.68V55.047z"/>
<path fill="#F2F2F2" d="M108.123,50.783c0.489-0.027,1.004-0.063,1.543-0.105c0.539-0.041,1.207-0.063,2.006-0.063
	c1.385,0,2.379,0.213,2.981,0.641c0.602,0.428,0.903,1.074,0.903,1.942c0,0.49-0.145,0.97-0.431,1.438
	c-0.287,0.469-0.76,0.816-1.417,1.039v0.084c0.825,0.154,1.406,0.441,1.742,0.861c0.336,0.42,0.504,0.979,0.504,1.68
	c0,1.093-0.392,1.884-1.176,2.373c-0.784,0.49-1.96,0.735-3.527,0.735c-0.588,0-1.135-0.018-1.639-0.053
	c-0.504-0.035-1.001-0.074-1.49-0.115L108.123,50.783L108.123,50.783z M111.86,55.193c0.252,0,0.497-0.042,0.735-0.126
	c0.238-0.084,0.451-0.2,0.641-0.347c0.188-0.146,0.342-0.318,0.461-0.515c0.119-0.197,0.18-0.405,0.18-0.63
	c0-0.56-0.168-0.948-0.504-1.166c-0.337-0.217-0.925-0.324-1.765-0.324c-0.448,0-0.802,0.006-1.061,0.021
	c-0.259,0.014-0.508,0.028-0.745,0.042v3.045H111.86z M109.803,59.855c0.266,0.026,0.527,0.049,0.787,0.063
	c0.259,0.014,0.563,0.021,0.914,0.021c0.938,0,1.634-0.133,2.089-0.399c0.455-0.267,0.683-0.722,0.683-1.364
	c0-0.504-0.193-0.914-0.578-1.229c-0.385-0.315-1.066-0.473-2.047-0.473h-1.848V59.855z"/>
<path fill="#F2F2F2" d="M135.117,50.783c0.489-0.027,1.004-0.063,1.543-0.105c0.539-0.041,1.207-0.063,2.006-0.063
	c1.385,0,2.379,0.213,2.981,0.641c0.602,0.428,0.903,1.074,0.903,1.942c0,0.49-0.145,0.97-0.431,1.438
	c-0.287,0.469-0.76,0.816-1.417,1.039v0.084c0.825,0.154,1.406,0.441,1.742,0.861c0.336,0.42,0.504,0.979,0.504,1.68
	c0,1.093-0.392,1.884-1.176,2.373c-0.784,0.49-1.96,0.735-3.527,0.735c-0.588,0-1.135-0.018-1.639-0.053
	c-0.504-0.035-1.001-0.074-1.49-0.115L135.117,50.783L135.117,50.783z M138.854,55.193c0.252,0,0.497-0.042,0.735-0.126
	c0.238-0.084,0.451-0.2,0.641-0.347c0.188-0.146,0.342-0.318,0.461-0.515c0.119-0.197,0.18-0.405,0.18-0.63
	c0-0.56-0.168-0.948-0.504-1.166c-0.337-0.217-0.925-0.324-1.765-0.324c-0.448,0-0.802,0.006-1.061,0.021
	c-0.259,0.014-0.508,0.028-0.745,0.042v3.045H138.854z M136.797,59.855c0.266,0.026,0.527,0.049,0.787,0.063
	c0.259,0.014,0.563,0.021,0.914,0.021c0.938,0,1.634-0.133,2.089-0.399c0.455-0.267,0.683-0.722,0.683-1.364
	c0-0.504-0.193-0.914-0.578-1.229c-0.385-0.315-1.066-0.473-2.047-0.473h-1.848V59.855z"/>
<path fill="#F2F2F2" d="M118.036,56.012c0-1.777,0.396-3.139,1.187-4.083c0.791-0.945,1.929-1.418,3.412-1.418
	c0.785,0,1.467,0.13,2.048,0.389c0.581,0.26,1.061,0.631,1.438,1.113c0.379,0.482,0.658,1.064,0.84,1.743
	c0.182,0.679,0.273,1.432,0.273,2.257c0,1.779-0.396,3.141-1.187,4.086c-0.791,0.943-1.929,1.416-3.413,1.416
	c-0.783,0-1.467-0.129-2.047-0.389c-0.581-0.258-1.061-0.629-1.438-1.111c-0.377-0.484-0.658-1.063-0.841-1.744
	C118.127,57.591,118.036,56.838,118.036,56.012z M119.779,56.012c0,0.533,0.053,1.043,0.158,1.533
	c0.104,0.49,0.269,0.918,0.492,1.281c0.225,0.363,0.519,0.658,0.883,0.882c0.363,0.224,0.805,0.337,1.322,0.337
	c1.904,0.014,2.856-1.33,2.856-4.033c0-0.545-0.052-1.063-0.157-1.554c-0.105-0.489-0.27-0.917-0.494-1.28
	c-0.224-0.364-0.518-0.654-0.881-0.872c-0.365-0.217-0.806-0.325-1.324-0.325C120.731,51.967,119.779,53.311,119.779,56.012z"/>
<path fill="#F2F2F2" d="M153.031,60.568c-0.42,0.309-0.917,0.543-1.49,0.705c-0.574,0.16-1.177,0.24-1.807,0.24
	c-0.813,0-1.498-0.13-2.059-0.39c-0.56-0.258-1.018-0.629-1.375-1.112c-0.357-0.482-0.616-1.063-0.777-1.742
	c-0.16-0.68-0.241-1.433-0.241-2.258c0-1.778,0.392-3.14,1.177-4.084c0.783-0.945,1.91-1.418,3.381-1.418
	c0.672,0,1.242,0.053,1.711,0.158c0.469,0.105,0.893,0.256,1.271,0.451l-0.483,1.449c-0.322-0.182-0.679-0.326-1.07-0.431
	c-0.393-0.104-0.813-0.157-1.26-0.157c-1.988,0-2.982,1.344-2.982,4.031c0,0.533,0.053,1.04,0.158,1.523
	c0.104,0.482,0.279,0.91,0.524,1.281c0.245,0.371,0.567,0.668,0.966,0.892s0.893,0.337,1.48,0.337c0.504,0,0.955-0.078,1.354-0.232
	c0.399-0.152,0.725-0.328,0.977-0.523L153.031,60.568z"/>
<path fill="#F2F2F2" d="M162.75,60.422c-0.42,0.336-0.948,0.604-1.586,0.799c-0.637,0.195-1.313,0.293-2.025,0.293
	c-0.799,0-1.491-0.129-2.08-0.389c-0.588-0.258-1.07-0.629-1.448-1.111c-0.378-0.484-0.658-1.062-0.841-1.732
	c-0.182-0.672-0.272-1.43-0.272-2.27c0-1.791,0.399-3.156,1.197-4.095c0.798-0.938,1.938-1.407,3.423-1.407
	c0.477,0,0.952,0.053,1.428,0.158c0.477,0.105,0.903,0.305,1.281,0.598c0.378,0.295,0.686,0.711,0.924,1.25
	c0.238,0.539,0.357,1.25,0.357,2.131c0,0.463-0.042,0.975-0.126,1.533h-6.741c0,0.617,0.063,1.162,0.189,1.639
	c0.125,0.478,0.321,0.879,0.588,1.207c0.266,0.33,0.611,0.582,1.039,0.756c0.428,0.177,0.948,0.265,1.564,0.265
	c0.477,0,0.952-0.084,1.428-0.253c0.477-0.168,0.833-0.363,1.071-0.588L162.75,60.422z M159.139,51.98
	c-0.826,0-1.488,0.217-1.984,0.65c-0.498,0.435-0.795,1.176-0.893,2.227h5.207c0-1.064-0.203-1.81-0.608-2.236
	C160.454,52.193,159.881,51.98,159.139,51.98z"/>
<path fill="#F2F2F2" d="M165.694,50.762h1.155l0.314,1.26h0.084c0.322-0.489,0.738-0.863,1.25-1.123
	c0.51-0.259,1.095-0.389,1.753-0.389c1.399,0,2.442,0.414,3.13,1.239c0.686,0.826,1.028,2.177,1.028,4.054
	c0,0.88-0.116,1.675-0.347,2.382s-0.557,1.307-0.977,1.797c-0.42,0.488-0.928,0.867-1.522,1.133
	c-0.594,0.267-1.257,0.398-1.984,0.398c-0.519,0-0.928-0.031-1.229-0.094c-0.302-0.063-0.626-0.172-0.977-0.326v4.369h-1.68V50.762
	H165.694z M169.935,51.98c-0.713,0-1.277,0.186-1.689,0.557c-0.414,0.371-0.704,0.934-0.872,1.689v5.209
	c0.252,0.194,0.539,0.346,0.861,0.451c0.321,0.104,0.749,0.157,1.28,0.157c0.967,0,1.732-0.36,2.3-1.082
	c0.568-0.722,0.851-1.78,0.851-3.182c0-0.574-0.049-1.096-0.146-1.564c-0.099-0.469-0.256-0.868-0.473-1.197
	c-0.217-0.328-0.498-0.584-0.84-0.766C170.863,52.071,170.439,51.98,169.935,51.98z"/>
<path fill="#F2F2F2" d="M176.543,56.012c0-1.777,0.395-3.139,1.186-4.083c0.791-0.945,1.93-1.418,3.413-1.418
	c0.784,0,1.466,0.13,2.048,0.389c0.58,0.26,1.061,0.631,1.438,1.113c0.379,0.482,0.658,1.064,0.841,1.743
	c0.182,0.679,0.272,1.432,0.272,2.257c0,1.779-0.396,3.141-1.186,4.086c-0.791,0.943-1.93,1.416-3.413,1.416
	c-0.784,0-1.467-0.129-2.048-0.389c-0.58-0.258-1.061-0.629-1.438-1.111c-0.379-0.484-0.658-1.063-0.841-1.744
	C176.634,57.591,176.543,56.838,176.543,56.012z M178.285,56.012c0,0.533,0.053,1.043,0.158,1.533
	c0.105,0.49,0.27,0.918,0.493,1.281c0.224,0.363,0.519,0.658,0.882,0.882c0.364,0.224,0.805,0.337,1.323,0.337
	c1.903,0.014,2.856-1.33,2.856-4.033c0-0.545-0.053-1.063-0.158-1.554c-0.104-0.489-0.27-0.917-0.493-1.28
	c-0.224-0.364-0.519-0.654-0.882-0.872c-0.364-0.217-0.805-0.325-1.323-0.325C179.238,51.967,178.285,53.311,178.285,56.012z"/>
<path fill="#F2F2F2" d="M195.633,60.568c-0.42,0.309-0.916,0.543-1.49,0.705c-0.573,0.16-1.176,0.24-1.807,0.24
	c-0.813,0-1.498-0.13-2.058-0.39c-0.56-0.258-1.019-0.629-1.376-1.112c-0.356-0.482-0.615-1.063-0.776-1.742
	c-0.161-0.68-0.241-1.433-0.241-2.258c0-1.778,0.392-3.14,1.175-4.084c0.783-0.945,1.912-1.418,3.381-1.418
	c0.673,0,1.242,0.053,1.712,0.158s0.893,0.256,1.271,0.451l-0.482,1.449c-0.322-0.182-0.68-0.326-1.071-0.431
	c-0.392-0.104-0.813-0.157-1.26-0.157c-1.988,0-2.982,1.344-2.982,4.031c0,0.533,0.054,1.04,0.158,1.523
	c0.104,0.482,0.278,0.91,0.524,1.281c0.244,0.371,0.566,0.668,0.966,0.892s0.893,0.337,1.479,0.337c0.504,0,0.956-0.078,1.355-0.232
	c0.398-0.152,0.725-0.328,0.977-0.523L195.633,60.568z"/>
<path fill="#F2F2F2" d="M204.871,60.568c-0.42,0.309-0.917,0.543-1.49,0.705c-0.574,0.16-1.177,0.24-1.807,0.24
	c-0.813,0-1.498-0.13-2.059-0.39c-0.561-0.258-1.019-0.629-1.375-1.112c-0.357-0.482-0.617-1.063-0.777-1.742
	s-0.241-1.433-0.241-2.258c0-1.778,0.392-3.14,1.177-4.084c0.783-0.945,1.91-1.418,3.381-1.418c0.672,0,1.242,0.053,1.711,0.158
	c0.47,0.105,0.894,0.256,1.271,0.451l-0.482,1.449c-0.322-0.182-0.68-0.326-1.07-0.431c-0.393-0.104-0.813-0.157-1.26-0.157
	c-1.988,0-2.982,1.344-2.982,4.031c0,0.533,0.053,1.04,0.158,1.523c0.104,0.482,0.279,0.91,0.523,1.281
	c0.245,0.371,0.567,0.668,0.967,0.892c0.398,0.224,0.893,0.337,1.479,0.337c0.504,0,0.955-0.078,1.354-0.232
	c0.398-0.152,0.725-0.328,0.977-0.523L204.871,60.568z"/>
<path fill="#F2F2F2" d="M213.68,55.047l0.063-1.303h-0.063l-0.859,1.344l-4.727,6.174h-0.965v-10.5h1.68v6.405l-0.063,1.239h0.084
	l0.818-1.303l4.726-6.342h0.987v10.5h-1.682V55.047z"/>
<path fill="#F2F2F2" d="M225.053,55.047l0.063-1.303h-0.063l-0.86,1.344l-4.726,6.174H218.5v-10.5h1.68v6.405l-0.063,1.239h0.084
	l0.818-1.303l4.725-6.342h0.988v10.5h-1.682v-6.215H225.053z M220.915,46.52c0.14,0.645,0.381,1.093,0.724,1.345
	c0.344,0.252,0.738,0.378,1.188,0.378c0.446,0,0.847-0.133,1.196-0.398c0.351-0.266,0.589-0.7,0.714-1.303l1.26,0.399
	c-0.125,0.812-0.485,1.435-1.08,1.868c-0.596,0.435-1.307,0.652-2.133,0.652c-0.377,0-0.752-0.05-1.123-0.148
	s-0.703-0.244-0.998-0.44c-0.293-0.196-0.545-0.448-0.756-0.756c-0.209-0.308-0.351-0.672-0.42-1.092L220.915,46.52z"/>
<path fill="#F2F2F2" d="M237.127,60.568c-0.42,0.309-0.918,0.543-1.49,0.705c-0.574,0.16-1.178,0.24-1.807,0.24
	c-0.813,0-1.498-0.13-2.059-0.39c-0.562-0.258-1.02-0.629-1.375-1.112c-0.357-0.482-0.617-1.063-0.777-1.742
	c-0.161-0.68-0.242-1.433-0.242-2.258c0-1.778,0.393-3.14,1.178-4.084c0.783-0.945,1.91-1.418,3.381-1.418
	c0.672,0,1.242,0.053,1.711,0.158c0.47,0.105,0.894,0.256,1.271,0.451l-0.481,1.449c-0.322-0.182-0.68-0.326-1.07-0.431
	c-0.393-0.104-0.813-0.157-1.262-0.157c-1.986,0-2.98,1.344-2.98,4.031c0,0.533,0.053,1.04,0.157,1.523
	c0.104,0.482,0.28,0.91,0.524,1.281s0.566,0.668,0.967,0.892c0.397,0.224,0.893,0.337,1.479,0.337c0.504,0,0.955-0.078,1.354-0.232
	c0.398-0.152,0.725-0.328,0.977-0.523L237.127,60.568z"/>
<path fill="#F2F2F2" d="M242.029,56.537h-0.967v4.725h-1.68v-10.5h1.68v4.746l0.904-0.293l3.358-4.453h1.828l-3.257,4.222
	l-0.881,0.692l1.092,0.839l3.507,4.746h-2.078L242.029,56.537z"/>
<path fill="#F2F2F2" d="M256.178,55.047l0.063-1.303h-0.063l-0.86,1.344l-4.726,6.174h-0.966v-10.5h1.681v6.405l-0.063,1.239h0.084
	l0.819-1.303l4.726-6.342h0.985v10.5h-1.68V55.047z"/>
<path fill="#F2F2F2" d="M263.844,55.887l-3.529-5.125h2.06l1.994,2.898l0.588,1.197l0.608-1.197l2.037-2.898h1.892l-3.55,5.041
	l3.759,5.458h-1.994l-2.228-3.191l-0.629-1.26l-0.651,1.26l-2.269,3.191h-1.869L263.844,55.887z"/>
<path fill="#F2F2F2" d="M92.75,79.762v4.873c0,1.918,0.869,2.877,2.604,2.877c0.658,0,1.274-0.088,1.849-0.263
	c0.573-0.175,1.043-0.409,1.406-0.704v-6.783h1.743v14.701h-1.743v-6.342c-0.378,0.209-0.875,0.42-1.49,0.629
	c-0.617,0.211-1.324,0.314-2.121,0.314c-0.588,0-1.127-0.065-1.617-0.199c-0.49-0.133-0.91-0.356-1.26-0.672
	c-0.351-0.314-0.623-0.738-0.819-1.271c-0.196-0.532-0.294-1.19-0.294-1.976V79.76h1.742V79.762z"/>
<path fill="#F2F2F2" d="M111.311,93.623c-0.42,0.336-0.949,0.602-1.586,0.797c-0.637,0.195-1.313,0.295-2.026,0.295
	c-0.798,0-1.491-0.13-2.079-0.389c-0.588-0.26-1.07-0.631-1.449-1.113c-0.377-0.482-0.658-1.061-0.84-1.732
	c-0.182-0.67-0.273-1.428-0.273-2.268c0-1.793,0.4-3.156,1.197-4.096c0.799-0.938,1.939-1.406,3.424-1.406
	c0.476,0,0.951,0.053,1.428,0.156c0.476,0.105,0.902,0.305,1.281,0.6c0.377,0.293,0.686,0.711,0.924,1.249
	c0.238,0.539,0.357,1.249,0.357,2.132c0,0.463-0.043,0.973-0.127,1.533h-6.74c0,0.615,0.063,1.162,0.188,1.639
	c0.125,0.476,0.321,0.877,0.588,1.207c0.267,0.328,0.612,0.58,1.04,0.756c0.427,0.176,0.947,0.263,1.564,0.263
	c0.476,0,0.951-0.084,1.428-0.252c0.476-0.168,0.832-0.363,1.07-0.589L111.311,93.623z M107.698,85.18
	c-0.826,0-1.487,0.219-1.984,0.652s-0.795,1.176-0.893,2.227h5.208c0-1.063-0.203-1.811-0.609-2.238
	C109.014,85.395,108.44,85.18,107.698,85.18z"/>
<path fill="#F2F2F2" d="M122.928,88.227l0.126-1.996h-0.104l-0.756,1.617l-2.541,4.115h-0.589l-2.646-4.115l-0.693-1.617h-0.084
	l0.168,1.976v6.258h-1.554v-10.5h1.659l2.939,4.703l0.609,1.22h0.042l0.63-1.261l2.751-4.662h1.681v10.5h-1.639L122.928,88.227
	L122.928,88.227z"/>
<path fill="#F2F2F2" d="M134.02,85.434h-4.641v9.029h-1.68v-10.5h8.001v10.5h-1.681L134.02,85.434L134.02,85.434z"/>
<path fill="#F2F2F2" d="M145.396,88.246l0.063-1.303h-0.063l-0.86,1.346l-4.726,6.174h-0.966v-10.5h1.68v6.404l-0.063,1.238h0.084
	l0.818-1.301l4.725-6.343h0.988v10.5h-1.681L145.396,88.246L145.396,88.246z"/>
<path fill="#F2F2F2" d="M149.721,89.213c0-1.777,0.396-3.141,1.188-4.085s1.928-1.417,3.412-1.417c0.784,0,1.467,0.129,2.047,0.389
	c0.582,0.258,1.061,0.629,1.439,1.112s0.658,1.063,0.84,1.743s0.273,1.432,0.273,2.258c0,1.777-0.396,3.139-1.188,4.084
	s-1.928,1.418-3.412,1.418c-0.784,0-1.467-0.13-2.047-0.389c-0.582-0.26-1.061-0.631-1.439-1.113
	c-0.377-0.482-0.658-1.064-0.84-1.742C149.812,90.791,149.721,90.039,149.721,89.213z M151.465,89.213
	c0,0.531,0.053,1.043,0.157,1.533s0.269,0.916,0.493,1.279c0.224,0.365,0.518,0.658,0.883,0.883
	c0.363,0.225,0.805,0.336,1.322,0.336c1.904,0.014,2.855-1.33,2.855-4.031c0-0.547-0.052-1.064-0.156-1.555
	c-0.105-0.49-0.271-0.916-0.494-1.281c-0.225-0.363-0.518-0.654-0.882-0.871c-0.364-0.217-0.806-0.326-1.323-0.326
	C152.416,85.166,151.465,86.512,151.465,89.213z"/>
<path fill="#F2F2F2" d="M167.966,89.82h-4.746v4.643h-1.68v-10.5h1.68v4.389h4.746v-4.389h1.681v10.5h-1.681V89.82z"/>
<path fill="#F2F2F2" d="M172.648,84.738c0.532-0.32,1.152-0.559,1.859-0.713c0.706-0.154,1.445-0.23,2.215-0.23
	c0.729,0,1.313,0.098,1.754,0.293c0.44,0.197,0.777,0.452,1.008,0.768c0.23,0.314,0.385,0.662,0.462,1.039
	c0.077,0.379,0.115,0.756,0.115,1.135c0,0.84-0.021,1.658-0.063,2.457c-0.041,0.798-0.063,1.554-0.063,2.269
	c0,0.519,0.021,1.009,0.063,1.47c0.043,0.463,0.119,0.891,0.231,1.28h-1.239l-0.44-1.47h-0.104
	c-0.127,0.195-0.284,0.389-0.473,0.576c-0.189,0.189-0.417,0.357-0.684,0.504c-0.266,0.148-0.574,0.271-0.924,0.369
	c-0.35,0.097-0.748,0.146-1.196,0.146c-0.448,0-0.864-0.07-1.249-0.211c-0.386-0.139-0.719-0.339-0.998-0.598
	c-0.28-0.26-0.501-0.57-0.662-0.936c-0.16-0.363-0.241-0.777-0.241-1.238c0-0.615,0.126-1.131,0.378-1.543
	c0.252-0.414,0.605-0.742,1.061-0.988c0.455-0.244,1.001-0.42,1.639-0.523c0.637-0.105,1.34-0.158,2.109-0.158
	c0.196,0,0.389,0,0.578,0s0.381,0.015,0.578,0.043c0.041-0.42,0.063-0.799,0.063-1.135c0-0.77-0.154-1.309-0.462-1.617
	c-0.308-0.308-0.868-0.463-1.681-0.463c-0.238,0-0.493,0.02-0.766,0.055c-0.273,0.037-0.554,0.086-0.84,0.152
	c-0.287,0.064-0.561,0.143-0.819,0.236c-0.258,0.093-0.487,0.197-0.683,0.313L172.648,84.738z M175.631,93.16
	c0.392,0,0.742-0.053,1.05-0.157c0.308-0.104,0.573-0.237,0.798-0.399c0.225-0.16,0.41-0.338,0.557-0.535
	c0.146-0.194,0.256-0.385,0.326-0.565v-1.744c-0.197-0.014-0.396-0.022-0.6-0.03c-0.203-0.006-0.402-0.01-0.598-0.01
	c-0.435,0-0.857,0.023-1.271,0.072c-0.412,0.05-0.776,0.141-1.092,0.271c-0.314,0.135-0.566,0.315-0.756,0.547
	c-0.188,0.23-0.283,0.521-0.283,0.871c0,0.49,0.175,0.894,0.525,1.207C174.637,93.003,175.084,93.16,175.631,93.16z"/>
<path fill="#F2F2F2" d="M190.188,85.434h-3.297v9.029h-1.68v-9.029h-3.297v-1.471h8.273L190.188,85.434L190.188,85.434z"/>
<path fill="#F2F2F2" d="M192.055,84.738c0.531-0.32,1.15-0.559,1.857-0.713s1.445-0.23,2.216-0.23c0.728,0,1.313,0.098,1.753,0.293
	c0.441,0.197,0.777,0.452,1.01,0.768c0.23,0.314,0.385,0.662,0.461,1.039c0.076,0.379,0.115,0.756,0.115,1.135
	c0,0.84-0.021,1.658-0.063,2.457c-0.043,0.798-0.063,1.554-0.063,2.269c0,0.519,0.021,1.009,0.063,1.47
	c0.041,0.463,0.119,0.891,0.229,1.28h-1.237l-0.441-1.47h-0.105c-0.125,0.195-0.283,0.389-0.473,0.576
	c-0.188,0.189-0.416,0.357-0.682,0.504c-0.268,0.148-0.574,0.271-0.924,0.369c-0.352,0.098-0.75,0.146-1.197,0.146
	c-0.448,0-0.865-0.07-1.25-0.211c-0.385-0.139-0.717-0.339-0.997-0.598c-0.28-0.26-0.501-0.57-0.661-0.936
	c-0.162-0.363-0.242-0.777-0.242-1.238c0-0.615,0.126-1.131,0.378-1.543c0.253-0.414,0.605-0.742,1.062-0.988
	c0.455-0.244,1.001-0.42,1.638-0.523c0.638-0.105,1.341-0.158,2.11-0.158c0.195,0,0.39,0,0.578,0c0.188,0,0.381,0.015,0.576,0.043
	c0.043-0.42,0.063-0.799,0.063-1.135c0-0.77-0.154-1.309-0.462-1.617c-0.309-0.309-0.869-0.463-1.68-0.463
	c-0.238,0-0.494,0.02-0.769,0.055c-0.272,0.037-0.553,0.086-0.84,0.152c-0.287,0.064-0.56,0.143-0.817,0.236
	c-0.261,0.094-0.486,0.197-0.684,0.313L192.055,84.738z M195.036,93.16c0.392,0,0.741-0.053,1.05-0.157s0.574-0.237,0.798-0.399
	c0.224-0.16,0.409-0.338,0.558-0.535c0.146-0.194,0.254-0.385,0.324-0.565v-1.744c-0.195-0.014-0.396-0.022-0.598-0.03
	c-0.203-0.006-0.402-0.01-0.6-0.01c-0.435,0-0.857,0.023-1.271,0.072c-0.414,0.05-0.776,0.141-1.092,0.271
	c-0.315,0.135-0.567,0.315-0.756,0.547c-0.188,0.23-0.284,0.521-0.284,0.871c0,0.49,0.175,0.894,0.523,1.207
	C194.042,93.003,194.49,93.16,195.036,93.16z"/>
<path fill="#F2F2F2" d="M205.509,89.086l-3.528-5.123h2.06l1.994,2.896l0.588,1.197l0.608-1.197l2.037-2.896h1.892l-3.55,5.039
	l3.759,5.461h-1.994l-2.228-3.191l-0.629-1.262l-0.651,1.262l-2.269,3.191h-1.869L205.509,89.086z"/>
<path fill="#F2F2F2" d="M225.5,85.434h-4.641v9.029h-1.68v-10.5h8v10.5h-1.68V85.434z"/>
<path fill="#F2F2F2" d="M229.85,89.213c0-1.777,0.396-3.141,1.187-4.085s1.93-1.417,3.413-1.417c0.783,0,1.466,0.129,2.048,0.389
	c0.58,0.258,1.062,0.629,1.438,1.112c0.379,0.483,0.657,1.063,0.84,1.743s0.272,1.432,0.272,2.258c0,1.777-0.396,3.139-1.187,4.084
	s-1.93,1.418-3.412,1.418c-0.784,0-1.467-0.13-2.049-0.389c-0.58-0.26-1.061-0.631-1.438-1.113
	c-0.379-0.482-0.658-1.064-0.841-1.742C229.939,90.791,229.85,90.039,229.85,89.213z M231.592,89.213
	c0,0.531,0.053,1.043,0.158,1.533s0.27,0.916,0.493,1.279c0.223,0.365,0.519,0.658,0.882,0.883s0.805,0.336,1.323,0.336
	c1.903,0.014,2.856-1.33,2.856-4.031c0-0.547-0.054-1.064-0.158-1.555s-0.271-0.916-0.494-1.281
	c-0.223-0.363-0.519-0.654-0.881-0.871c-0.364-0.217-0.806-0.326-1.323-0.326C232.545,85.166,231.592,86.512,231.592,89.213z"/>
<path fill="#F2F2F2" d="M247.469,79.762h7.979v1.555h-6.237v4.41c0.238-0.041,0.532-0.084,0.883-0.125
	c0.35-0.043,0.686-0.063,1.008-0.063c0.713,0,1.394,0.065,2.037,0.198c0.644,0.135,1.211,0.361,1.7,0.685
	c0.49,0.322,0.878,0.761,1.165,1.313s0.432,1.248,0.432,2.088c0,0.842-0.146,1.564-0.44,2.175c-0.294,0.608-0.687,1.106-1.177,1.491
	c-0.489,0.385-1.061,0.672-1.711,0.859c-0.651,0.189-1.334,0.284-2.049,0.284c-0.238,0-0.508-0.004-0.809-0.011
	c-0.301-0.008-0.615-0.023-0.943-0.053c-0.33-0.029-0.652-0.061-0.967-0.096s-0.605-0.086-0.871-0.156V79.762z M251.27,93.118
	c0.447,0,0.875-0.063,1.281-0.188c0.405-0.127,0.76-0.312,1.061-0.557c0.302-0.245,0.539-0.557,0.714-0.936
	c0.176-0.377,0.263-0.818,0.263-1.322c0-0.645-0.102-1.166-0.304-1.564c-0.203-0.398-0.474-0.711-0.81-0.936
	c-0.336-0.223-0.725-0.373-1.166-0.45c-0.44-0.077-0.899-0.116-1.375-0.116c-0.127,0-0.272,0.008-0.44,0.021
	c-0.168,0.013-0.336,0.027-0.504,0.041c-0.169,0.016-0.322,0.033-0.464,0.054c-0.139,0.021-0.243,0.038-0.313,0.052v5.775
	c0.099,0.027,0.228,0.049,0.39,0.063c0.16,0.016,0.336,0.029,0.524,0.043s0.381,0.021,0.577,0.021
	C250.898,93.119,251.087,93.118,251.27,93.118z"/>
<path fill="#F2F2F2" d="M258.787,83.963h1.154l0.314,1.26h0.084c0.321-0.49,0.738-0.865,1.249-1.123
	c0.513-0.26,1.097-0.389,1.754-0.389c1.4,0,2.443,0.412,3.13,1.238c0.686,0.826,1.028,2.178,1.028,4.053
	c0,0.883-0.115,1.678-0.347,2.385s-0.557,1.305-0.978,1.795c-0.42,0.49-0.927,0.868-1.522,1.135
	c-0.594,0.266-1.256,0.398-1.983,0.398c-0.519,0-0.928-0.031-1.229-0.095c-0.301-0.063-0.627-0.171-0.977-0.325v4.367h-1.68V83.963
	H258.787z M263.029,85.18c-0.715,0-1.278,0.188-1.691,0.557c-0.412,0.371-0.703,0.937-0.871,1.691v5.207
	c0.252,0.197,0.539,0.348,0.861,0.452s0.748,0.157,1.281,0.157c0.965,0,1.731-0.359,2.299-1.081
	c0.566-0.722,0.851-1.782,0.851-3.183c0-0.572-0.05-1.094-0.147-1.563s-0.254-0.868-0.471-1.196
	c-0.219-0.33-0.498-0.584-0.842-0.768C263.956,85.271,263.533,85.18,263.029,85.18z"/>
<path fill="#F2F2F2" d="M277.889,93.623c-0.42,0.336-0.949,0.602-1.586,0.797s-1.313,0.295-2.025,0.295
	c-0.799,0-1.491-0.13-2.079-0.389c-0.589-0.26-1.07-0.631-1.449-1.113c-0.377-0.482-0.658-1.061-0.84-1.732
	c-0.183-0.67-0.273-1.428-0.273-2.268c0-1.793,0.4-3.156,1.197-4.096c0.799-0.938,1.938-1.406,3.424-1.406
	c0.476,0,0.951,0.053,1.429,0.156c0.476,0.105,0.901,0.305,1.28,0.6c0.377,0.293,0.687,0.711,0.925,1.249
	c0.237,0.539,0.356,1.249,0.356,2.132c0,0.463-0.043,0.973-0.127,1.533h-6.74c0,0.615,0.063,1.162,0.188,1.639
	c0.125,0.476,0.32,0.877,0.588,1.207c0.267,0.328,0.611,0.58,1.039,0.756s0.947,0.263,1.564,0.263c0.477,0,0.951-0.084,1.428-0.252
	s0.832-0.363,1.07-0.589L277.889,93.623z M274.275,85.18c-0.825,0-1.486,0.219-1.983,0.652s-0.795,1.176-0.894,2.227h5.209
	c0-1.063-0.203-1.811-0.609-2.238C275.592,85.395,275.02,85.18,274.275,85.18z"/>
<path fill="#F2F2F2" d="M287.385,88.246l0.063-1.303h-0.063l-0.861,1.346l-4.725,6.174h-0.967v-10.5h1.68v6.404l-0.063,1.238h0.084
	l0.818-1.301l4.726-6.343h0.987v10.5h-1.681L287.385,88.246L287.385,88.246z M283.248,79.721c0.139,0.645,0.381,1.092,0.725,1.344
	c0.342,0.252,0.737,0.379,1.187,0.379c0.448,0,0.848-0.133,1.196-0.399c0.351-0.267,0.588-0.698,0.715-1.302l1.26,0.398
	c-0.126,0.813-0.486,1.437-1.081,1.869c-0.597,0.434-1.306,0.65-2.132,0.65c-0.378,0-0.753-0.049-1.124-0.146
	c-0.371-0.097-0.703-0.244-0.997-0.441c-0.294-0.194-0.546-0.446-0.756-0.756c-0.211-0.307-0.352-0.672-0.42-1.092L283.248,79.721z"
	/>
<path fill="#F2F2F2" d="M294.85,89.736h-0.966v4.727h-1.68v-10.5h1.68v4.746l0.903-0.295l3.359-4.451h1.827l-3.256,4.221
	l-0.882,0.693l1.092,0.84l3.507,4.746h-2.077L294.85,89.736z"/>
<path fill="#F2F2F2" d="M300.713,87.637h5.082v1.555h-5.082V87.637z"/>
<path fill="#F2F2F2" d="M319.793,97.172h-1.197l-0.313-2.709h-10.312l-0.314,2.709h-1.218v-4.264h1.489
	c0.112-0.154,0.283-0.514,0.516-1.082c0.23-0.566,0.462-1.379,0.692-2.436c0.231-1.058,0.438-2.379,0.619-3.97
	c0.184-1.589,0.272-3.476,0.272-5.659h7.854v13.145h1.911L319.793,97.172L319.793,97.172z M316.139,92.908V81.316h-4.473
	c-0.042,1.539-0.123,2.926-0.242,4.158c-0.118,1.231-0.262,2.319-0.43,3.266c-0.168,0.945-0.357,1.76-0.566,2.445
	c-0.211,0.688-0.428,1.26-0.651,1.723H316.139z"/>
<path fill="#F2F2F2" d="M322.195,84.738c0.531-0.32,1.151-0.559,1.858-0.713c0.706-0.154,1.445-0.23,2.215-0.23
	c0.729,0,1.313,0.098,1.755,0.293c0.439,0.197,0.776,0.452,1.008,0.768c0.229,0.314,0.385,0.662,0.462,1.039
	c0.077,0.379,0.115,0.756,0.115,1.135c0,0.84-0.021,1.658-0.063,2.457c-0.041,0.798-0.063,1.554-0.063,2.269
	c0,0.519,0.021,1.009,0.063,1.47c0.043,0.463,0.119,0.891,0.231,1.28h-1.239l-0.44-1.47h-0.104
	c-0.127,0.195-0.284,0.389-0.474,0.576c-0.188,0.189-0.417,0.357-0.684,0.504c-0.266,0.148-0.574,0.271-0.924,0.369
	c-0.351,0.097-0.748,0.146-1.196,0.146s-0.864-0.07-1.249-0.211c-0.386-0.139-0.719-0.339-0.998-0.598
	c-0.279-0.26-0.501-0.57-0.662-0.936c-0.159-0.363-0.24-0.777-0.24-1.238c0-0.615,0.126-1.131,0.378-1.543
	c0.252-0.414,0.604-0.742,1.061-0.988c0.455-0.244,1.001-0.42,1.639-0.523c0.638-0.105,1.341-0.158,2.109-0.158
	c0.196,0,0.389,0,0.578,0s0.381,0.015,0.578,0.043c0.041-0.42,0.063-0.799,0.063-1.135c0-0.77-0.153-1.309-0.462-1.617
	c-0.308-0.308-0.868-0.463-1.681-0.463c-0.238,0-0.493,0.02-0.766,0.055c-0.273,0.037-0.555,0.086-0.841,0.152
	c-0.286,0.064-0.561,0.143-0.818,0.236c-0.258,0.093-0.487,0.197-0.684,0.313L322.195,84.738z M325.178,93.16
	c0.393,0,0.742-0.053,1.05-0.157c0.309-0.104,0.573-0.237,0.799-0.399c0.225-0.16,0.409-0.338,0.557-0.535
	c0.146-0.194,0.256-0.385,0.326-0.565v-1.744c-0.197-0.014-0.396-0.022-0.601-0.03c-0.202-0.006-0.401-0.01-0.598-0.01
	c-0.435,0-0.856,0.023-1.271,0.072c-0.412,0.05-0.776,0.141-1.093,0.271c-0.313,0.135-0.565,0.315-0.756,0.547
	c-0.188,0.23-0.283,0.521-0.283,0.871c0,0.49,0.176,0.894,0.525,1.207C324.184,93.003,324.631,93.16,325.178,93.16z"/>
<path fill="#F2F2F2" d="M339.121,89.82h-4.746v4.643h-1.68v-10.5h1.68v4.389h4.746v-4.389h1.68v10.5h-1.68V89.82z"/>
<path fill="#F2F2F2" d="M351.229,93.77c-0.421,0.31-0.918,0.543-1.491,0.703c-0.574,0.162-1.177,0.242-1.807,0.242
	c-0.812,0-1.498-0.13-2.058-0.389c-0.561-0.26-1.02-0.631-1.376-1.113s-0.616-1.064-0.776-1.742
	c-0.162-0.68-0.242-1.432-0.242-2.258c0-1.777,0.394-3.141,1.177-4.085c0.784-0.944,1.912-1.417,3.381-1.417
	c0.672,0,1.242,0.053,1.712,0.156c0.47,0.105,0.893,0.256,1.271,0.451l-0.481,1.449c-0.322-0.183-0.68-0.324-1.071-0.431
	c-0.391-0.106-0.813-0.157-1.261-0.157c-1.987,0-2.981,1.344-2.981,4.032c0,0.531,0.054,1.039,0.157,1.521
	c0.105,0.483,0.28,0.91,0.525,1.281c0.244,0.371,0.565,0.67,0.966,0.893c0.399,0.226,0.893,0.337,1.479,0.337
	c0.505,0,0.956-0.076,1.354-0.229c0.398-0.154,0.725-0.33,0.977-0.525L351.229,93.77z"/>
<path fill="#F2F2F2" d="M357.137,90.768l0.591,2.016h0.104l0.465-2.036l2.044-6.783h1.682l-3.109,9.429
	c-0.237,0.688-0.472,1.352-0.703,1.996c-0.23,0.643-0.486,1.217-0.766,1.721c-0.281,0.504-0.597,0.906-0.945,1.209
	c-0.35,0.301-0.756,0.451-1.219,0.451c-0.504,0-0.916-0.07-1.238-0.211l0.294-1.449c0.182,0.07,0.356,0.104,0.524,0.104
	c0.393,0,0.77-0.206,1.135-0.618c0.363-0.414,0.664-1.123,0.902-2.132l-4.222-10.5h1.933L357.137,90.768z"/>
<g>
	<path fill="#FFFFFF" d="M76.605,19.335L43.061,99.105c-7.23,0-14.579,0-21.809,0L48.632,35.1H16.036c0-7.23,0-11.735,0-18.965
		h60.569V19.335z"/>
</g>
</svg>
