<?xml version="1.0" encoding="utf-8"?>
<!-- Generator: Adobe Illustrator 14.0.0, SVG Export Plug-In . SVG Version: 6.00 Build 43363)  -->
<!DOCTYPE svg PUBLIC "-//W3C//DTD SVG 1.1//EN" "http://www.w3.org/Graphics/SVG/1.1/DTD/svg11.dtd">
<svg version="1.1" id="Layer_1" xmlns="http://www.w3.org/2000/svg" xmlns:xlink="http://www.w3.org/1999/xlink" x="0px" y="0px"
	 width="607.834px" height="112px" viewBox="50.36 476.945 607.834 112" enable-background="new 50.36 476.945 607.834 112"
	 xml:space="preserve">
<rect x="50.36" y="511.945" fill="#E50647" width="607.834" height="44"/>
<rect x="50.36" y="476.945" fill="#E50647" width="506.373" height="43"/>
<rect x="50.36" y="540.945" fill="#E50647" width="393.779" height="48"/>
<g>
	<path fill="#FFFFFF" d="M82.047,548.336c0.119,5.451,3.675,8.178,9.361,8.178c5.811,0,9.011-4.385,9.13-9.957
		c-0.118-11.971-11.972-11.497-20.98-11.142v-2.845l11.023-22.995H66.638v-18.846h52.746v3.081l-15.29,27.974
		c13.157,3.318,16.95,13.986,16.95,24.654c0.115,14.104-9.957,28.921-29.159,28.921c-6.282,0-10.787-1.305-14.816-3.557
		c-7.82-4.385-13.631-12.801-13.631-23.469C69.602,548.336,76.002,548.336,82.047,548.336z"/>
</g>
<g>
	<path fill="#FFFFFF" d="M143.953,491.628c0.557-0.132,1.158-0.22,1.804-0.264c0.646-0.044,1.283-0.066,1.914-0.066
		c0.674,0,1.36,0.066,2.057,0.198c0.696,0.132,1.331,0.374,1.903,0.726c0.572,0.352,1.038,0.836,1.397,1.452
		c0.359,0.616,0.539,1.401,0.539,2.354c0,0.939-0.168,1.731-0.506,2.376c-0.337,0.646-0.785,1.17-1.342,1.573
		c-0.558,0.403-1.196,0.693-1.914,0.869c-0.719,0.176-1.46,0.264-2.222,0.264c-0.074,0-0.194,0-0.363,0
		c-0.169,0-0.345-0.003-0.528-0.011c-0.184-0.007-0.363-0.019-0.539-0.033c-0.176-0.014-0.301-0.029-0.374-0.044v5.852h-1.826
		V491.628z M147.715,492.882c-0.381,0-0.748,0.008-1.1,0.022c-0.352,0.015-0.631,0.052-0.836,0.11v6.38
		c0.073,0.03,0.19,0.048,0.352,0.055c0.161,0.007,0.33,0.015,0.506,0.022c0.176,0.007,0.344,0.011,0.506,0.011
		c0.161,0,0.278,0,0.352,0c0.499,0,0.993-0.047,1.485-0.143c0.491-0.095,0.935-0.267,1.331-0.517s0.715-0.602,0.957-1.056
		c0.242-0.455,0.363-1.034,0.363-1.738c0-0.601-0.114-1.103-0.341-1.507c-0.228-0.403-0.528-0.726-0.902-0.968
		c-0.374-0.242-0.796-0.415-1.265-0.517C148.653,492.934,148.184,492.882,147.715,492.882z"/>
	<path fill="#FFFFFF" d="M163.313,505.995c-0.44,0.352-0.994,0.631-1.661,0.836c-0.667,0.205-1.375,0.308-2.123,0.308
		c-0.836,0-1.562-0.136-2.178-0.407c-0.616-0.271-1.122-0.66-1.518-1.166s-0.69-1.111-0.88-1.815s-0.286-1.496-0.286-2.376
		c0-1.877,0.418-3.307,1.254-4.29c0.836-0.982,2.031-1.474,3.586-1.474c0.499,0,0.997,0.055,1.496,0.165
		c0.499,0.11,0.946,0.319,1.342,0.627c0.396,0.308,0.719,0.745,0.968,1.309c0.249,0.565,0.374,1.309,0.374,2.233
		c0,0.484-0.044,1.02-0.132,1.606h-7.062c0,0.646,0.066,1.218,0.198,1.716s0.337,0.92,0.616,1.265
		c0.279,0.345,0.642,0.608,1.089,0.792c0.447,0.183,0.993,0.275,1.639,0.275c0.499,0,0.998-0.088,1.496-0.264
		c0.499-0.176,0.873-0.381,1.122-0.616L163.313,505.995z M159.529,497.15c-0.866,0-1.559,0.228-2.079,0.682
		s-0.833,1.232-0.935,2.332h5.456c0-1.114-0.212-1.896-0.638-2.343C160.907,497.375,160.306,497.15,159.529,497.15z"/>
	<path fill="#FFFFFF" d="M172.883,497.415h-4.664v9.46h-1.76v-11h6.424V497.415z"/>
	<path fill="#FFFFFF" d="M177.82,503.002l0.619,2.112h0.11l0.485-2.134l2.142-7.106h1.76l-3.256,9.878
		c-0.25,0.719-0.495,1.416-0.737,2.09c-0.242,0.675-0.51,1.276-0.803,1.804s-0.624,0.95-0.99,1.265
		c-0.367,0.315-0.792,0.473-1.276,0.473c-0.528,0-0.961-0.073-1.298-0.22l0.308-1.518c0.19,0.073,0.374,0.11,0.55,0.11
		c0.411,0,0.807-0.216,1.188-0.649c0.381-0.433,0.696-1.177,0.946-2.233l-4.422-11h2.024L177.82,503.002z"/>
	<path fill="#FFFFFF" d="M190.438,497.415h-3.19c-0.044,0.616-0.088,1.28-0.132,1.991c-0.044,0.712-0.11,1.423-0.198,2.134
		c-0.088,0.711-0.206,1.394-0.352,2.046c-0.147,0.653-0.334,1.229-0.561,1.727c-0.228,0.499-0.506,0.898-0.836,1.199
		c-0.33,0.301-0.722,0.451-1.177,0.451c-0.279,0-0.521-0.015-0.726-0.044c-0.206-0.029-0.389-0.081-0.55-0.154l0.264-1.474
		c0.176,0.059,0.367,0.088,0.572,0.088c0.293,0,0.557-0.125,0.792-0.374c0.234-0.249,0.44-0.722,0.616-1.419
		c0.176-0.696,0.323-1.661,0.44-2.893c0.117-1.232,0.198-2.838,0.242-4.818h6.556v11h-1.76V497.415z"/>
	<path fill="#FFFFFF" d="M201.064,502.32l-1.694,0.264l-2.904,4.29h-2.134l2.64-3.762l0.88-0.814
		c-0.763-0.117-1.412-0.425-1.947-0.924c-0.536-0.499-0.803-1.173-0.803-2.024c0-0.66,0.113-1.225,0.341-1.694
		s0.554-0.858,0.979-1.166c0.425-0.308,0.932-0.532,1.518-0.671c0.586-0.139,1.247-0.209,1.98-0.209c0.542,0,1.049,0.037,1.518,0.11
		s0.931,0.154,1.386,0.242v10.912h-1.76V502.32z M201.064,497.371c-0.19-0.073-0.403-0.128-0.638-0.165
		c-0.235-0.037-0.44-0.055-0.616-0.055c-0.939,0-1.654,0.169-2.145,0.506c-0.492,0.337-0.737,0.873-0.737,1.606
		c0,0.66,0.26,1.169,0.781,1.529s1.207,0.539,2.057,0.539c0.015,0,0.037,0,0.066,0s0.088,0,0.176,0c0.088,0,0.212-0.003,0.374-0.011
		c0.161-0.007,0.388-0.018,0.682-0.033V497.371z"/>
	<path fill="#FFFFFF" d="M206.036,495.875h1.21l0.33,1.32h0.088c0.337-0.513,0.773-0.905,1.309-1.177
		c0.535-0.271,1.147-0.407,1.837-0.407c1.467,0,2.56,0.433,3.278,1.298c0.718,0.865,1.078,2.281,1.078,4.246
		c0,0.924-0.121,1.757-0.363,2.497c-0.242,0.741-0.583,1.368-1.023,1.881s-0.972,0.909-1.595,1.188
		c-0.624,0.278-1.316,0.418-2.079,0.418c-0.543,0-0.972-0.033-1.287-0.099c-0.315-0.066-0.657-0.18-1.023-0.341v4.576h-1.76V495.875
		z M210.48,497.15c-0.748,0-1.339,0.195-1.771,0.583c-0.433,0.389-0.737,0.979-0.913,1.771v5.456
		c0.264,0.206,0.564,0.363,0.902,0.473s0.785,0.165,1.342,0.165c1.012,0,1.815-0.377,2.409-1.133
		c0.594-0.755,0.891-1.866,0.891-3.333c0-0.601-0.052-1.147-0.154-1.639c-0.103-0.491-0.268-0.909-0.495-1.254
		c-0.228-0.345-0.521-0.612-0.88-0.803C211.451,497.246,211.008,497.15,210.48,497.15z"/>
	<path fill="#FFFFFF" d="M224.669,502.013h-4.972v4.862h-1.76v-11h1.76v4.598h4.972v-4.598h1.76v11h-1.76V502.013z"/>
	<path fill="#FFFFFF" d="M231.577,500.077c0.352-0.059,0.689-0.099,1.012-0.121s0.631-0.033,0.924-0.033
		c0.748,0,1.375,0.084,1.881,0.253c0.506,0.169,0.913,0.4,1.221,0.693c0.308,0.293,0.524,0.642,0.649,1.045
		c0.125,0.403,0.187,0.833,0.187,1.287c0,1.334-0.371,2.303-1.111,2.904c-0.741,0.602-1.939,0.902-3.597,0.902
		c-0.939,0-1.914-0.044-2.926-0.132v-11h1.76V500.077z M231.577,505.334c0.542,0.088,1.063,0.132,1.562,0.132
		c0.924,0,1.569-0.179,1.936-0.539c0.366-0.359,0.55-0.869,0.55-1.529c0-0.586-0.18-1.07-0.539-1.452
		c-0.359-0.381-0.986-0.572-1.881-0.572c-0.25,0-0.521,0.007-0.814,0.022c-0.293,0.015-0.565,0.059-0.814,0.132V505.334z
		 M239.189,495.875h1.76v11h-1.76V495.875z"/>
	<path fill="#FFFFFF" d="M252.367,505.995c-0.44,0.352-0.994,0.631-1.661,0.836c-0.667,0.205-1.375,0.308-2.123,0.308
		c-0.836,0-1.562-0.136-2.178-0.407c-0.616-0.271-1.122-0.66-1.518-1.166s-0.69-1.111-0.88-1.815s-0.286-1.496-0.286-2.376
		c0-1.877,0.418-3.307,1.254-4.29c0.836-0.982,2.031-1.474,3.586-1.474c0.499,0,0.997,0.055,1.496,0.165
		c0.499,0.11,0.946,0.319,1.342,0.627c0.396,0.308,0.719,0.745,0.968,1.309c0.249,0.565,0.374,1.309,0.374,2.233
		c0,0.484-0.044,1.02-0.132,1.606h-7.062c0,0.646,0.066,1.218,0.198,1.716s0.337,0.92,0.616,1.265
		c0.279,0.345,0.642,0.608,1.089,0.792c0.447,0.183,0.993,0.275,1.639,0.275c0.499,0,0.998-0.088,1.496-0.264
		c0.499-0.176,0.873-0.381,1.122-0.616L252.367,505.995z M248.583,497.15c-0.866,0-1.559,0.228-2.079,0.682
		s-0.833,1.232-0.935,2.332h5.456c0-1.114-0.212-1.896-0.638-2.343C249.961,497.375,249.36,497.15,248.583,497.15z"/>
	<path fill="#FFFFFF" d="M262.399,497.833c0.484-0.704,1.019-1.199,1.606-1.485c0.586-0.286,1.32-0.429,2.2-0.429
		c1.349,0,2.387,0.44,3.113,1.32c0.726,0.88,1.089,2.178,1.089,3.894c0,1.98-0.422,3.476-1.265,4.488
		c-0.844,1.012-2.021,1.518-3.531,1.518c-1.614,0-2.824-0.558-3.63-1.672c-0.807-1.114-1.21-2.867-1.21-5.258
		c0-1.261,0.062-2.339,0.187-3.234c0.125-0.895,0.308-1.65,0.55-2.266c0.242-0.616,0.535-1.107,0.88-1.474
		c0.345-0.366,0.733-0.656,1.166-0.869c0.433-0.213,0.906-0.363,1.419-0.451c0.514-0.088,1.063-0.161,1.65-0.22
		c0.762-0.073,1.36-0.157,1.793-0.253c0.432-0.095,0.781-0.267,1.045-0.517l0.198,1.584c-0.146,0.132-0.308,0.242-0.484,0.33
		c-0.176,0.088-0.389,0.162-0.638,0.22c-0.25,0.059-0.547,0.11-0.891,0.154c-0.345,0.044-0.745,0.081-1.199,0.11
		c-0.631,0.044-1.185,0.121-1.661,0.231c-0.477,0.11-0.887,0.323-1.232,0.638c-0.345,0.315-0.616,0.763-0.814,1.342
		c-0.198,0.58-0.333,1.346-0.407,2.299H262.399z M262.597,501.396c0,0.558,0.059,1.093,0.176,1.606
		c0.117,0.514,0.297,0.965,0.539,1.353c0.242,0.389,0.553,0.693,0.935,0.913c0.381,0.22,0.828,0.33,1.342,0.33
		c1.012,0,1.764-0.363,2.255-1.089c0.491-0.726,0.737-1.8,0.737-3.223c0-0.557-0.052-1.07-0.154-1.54
		c-0.103-0.469-0.264-0.876-0.484-1.221c-0.22-0.344-0.499-0.608-0.836-0.792c-0.337-0.183-0.741-0.275-1.21-0.275
		c-1.144-0.015-1.98,0.319-2.508,1.001C262.861,499.142,262.597,500.121,262.597,501.396z"/>
	<path fill="#FFFFFF" d="M281.209,505.995c-0.44,0.352-0.994,0.631-1.661,0.836c-0.667,0.205-1.375,0.308-2.123,0.308
		c-0.836,0-1.562-0.136-2.178-0.407c-0.616-0.271-1.122-0.66-1.518-1.166s-0.69-1.111-0.88-1.815s-0.286-1.496-0.286-2.376
		c0-1.877,0.418-3.307,1.254-4.29c0.836-0.982,2.031-1.474,3.586-1.474c0.499,0,0.997,0.055,1.496,0.165
		c0.499,0.11,0.946,0.319,1.342,0.627c0.396,0.308,0.719,0.745,0.968,1.309c0.249,0.565,0.374,1.309,0.374,2.233
		c0,0.484-0.044,1.02-0.132,1.606h-7.062c0,0.646,0.066,1.218,0.198,1.716s0.337,0.92,0.616,1.265
		c0.279,0.345,0.642,0.608,1.089,0.792c0.447,0.183,0.993,0.275,1.639,0.275c0.499,0,0.998-0.088,1.496-0.264
		c0.499-0.176,0.873-0.381,1.122-0.616L281.209,505.995z M277.425,497.15c-0.866,0-1.559,0.228-2.079,0.682
		s-0.833,1.232-0.935,2.332h5.456c0-1.114-0.212-1.896-0.638-2.343C278.803,497.375,278.202,497.15,277.425,497.15z"/>
	<path fill="#FFFFFF" d="M291.615,506.148c-0.44,0.323-0.96,0.569-1.562,0.737c-0.602,0.168-1.232,0.253-1.892,0.253
		c-0.851,0-1.57-0.136-2.156-0.407c-0.587-0.271-1.067-0.66-1.441-1.166s-0.646-1.114-0.814-1.826
		c-0.169-0.711-0.253-1.5-0.253-2.365c0-1.862,0.41-3.289,1.232-4.279c0.821-0.99,2.002-1.485,3.542-1.485
		c0.704,0,1.301,0.055,1.793,0.165c0.491,0.11,0.935,0.268,1.331,0.473l-0.506,1.518c-0.338-0.19-0.712-0.341-1.122-0.451
		c-0.411-0.11-0.851-0.165-1.32-0.165c-2.083,0-3.124,1.408-3.124,4.224c0,0.558,0.055,1.089,0.165,1.595
		c0.11,0.506,0.293,0.953,0.55,1.342c0.256,0.389,0.594,0.701,1.012,0.935c0.418,0.235,0.935,0.352,1.551,0.352
		c0.528,0,1.001-0.081,1.419-0.242c0.418-0.161,0.759-0.344,1.023-0.55L291.615,506.148z"/>
	<path fill="#FFFFFF" d="M300.656,497.415h-4.862v9.46h-1.76v-11h8.382v11h-1.76V497.415z"/>
	<path fill="#FFFFFF" d="M311.722,497.415h-3.19c-0.044,0.616-0.088,1.28-0.132,1.991c-0.044,0.712-0.11,1.423-0.198,2.134
		c-0.088,0.711-0.206,1.394-0.352,2.046c-0.147,0.653-0.334,1.229-0.561,1.727c-0.228,0.499-0.506,0.898-0.836,1.199
		c-0.33,0.301-0.722,0.451-1.177,0.451c-0.279,0-0.521-0.015-0.726-0.044c-0.206-0.029-0.389-0.081-0.55-0.154l0.264-1.474
		c0.176,0.059,0.367,0.088,0.572,0.088c0.293,0,0.557-0.125,0.792-0.374c0.234-0.249,0.44-0.722,0.616-1.419
		c0.176-0.696,0.323-1.661,0.44-2.893c0.117-1.232,0.198-2.838,0.242-4.818h6.556v11h-1.76V497.415z"/>
	<path fill="#FFFFFF" d="M316.695,496.688c0.557-0.337,1.206-0.586,1.947-0.748c0.741-0.161,1.514-0.242,2.321-0.242
		c0.762,0,1.375,0.103,1.837,0.308c0.462,0.206,0.814,0.473,1.056,0.803c0.242,0.33,0.403,0.693,0.484,1.089
		c0.081,0.396,0.121,0.792,0.121,1.188c0,0.88-0.022,1.738-0.066,2.574c-0.044,0.836-0.066,1.628-0.066,2.376
		c0,0.542,0.022,1.056,0.066,1.54c0.044,0.484,0.125,0.932,0.242,1.342h-1.298l-0.462-1.54h-0.11
		c-0.132,0.206-0.297,0.407-0.495,0.605c-0.198,0.198-0.437,0.374-0.715,0.528c-0.279,0.154-0.602,0.282-0.968,0.385
		c-0.367,0.103-0.785,0.154-1.254,0.154c-0.47,0-0.906-0.073-1.309-0.22c-0.404-0.146-0.752-0.355-1.045-0.627
		c-0.294-0.271-0.525-0.598-0.693-0.979s-0.253-0.814-0.253-1.298c0-0.645,0.132-1.184,0.396-1.617
		c0.264-0.433,0.634-0.777,1.111-1.034c0.476-0.256,1.048-0.44,1.716-0.55c0.667-0.11,1.404-0.165,2.211-0.165
		c0.205,0,0.407,0,0.605,0c0.198,0,0.399,0.015,0.605,0.044c0.044-0.44,0.066-0.836,0.066-1.188c0-0.807-0.162-1.371-0.484-1.694
		c-0.323-0.323-0.91-0.484-1.76-0.484c-0.25,0-0.517,0.019-0.803,0.057c-0.286,0.038-0.58,0.09-0.88,0.158
		c-0.301,0.068-0.587,0.151-0.858,0.249c-0.272,0.098-0.51,0.207-0.715,0.328L316.695,496.688z M319.819,505.511
		c0.41,0,0.777-0.055,1.1-0.165c0.322-0.11,0.601-0.25,0.836-0.418c0.234-0.168,0.429-0.355,0.583-0.561
		c0.154-0.206,0.267-0.403,0.341-0.594v-1.826c-0.206-0.014-0.415-0.025-0.627-0.033c-0.213-0.007-0.422-0.011-0.627-0.011
		c-0.455,0-0.898,0.026-1.331,0.077c-0.433,0.052-0.814,0.147-1.144,0.286c-0.33,0.14-0.594,0.33-0.792,0.572
		c-0.198,0.242-0.297,0.547-0.297,0.913c0,0.514,0.183,0.935,0.55,1.265S319.246,505.511,319.819,505.511z"/>
	<path fill="#FFFFFF" d="M334.8,497.415h-3.454v9.46h-1.76v-9.46h-3.454v-1.54h8.668V497.415z"/>
	<path fill="#FFFFFF" d="M343.27,502.013h-4.972v4.862h-1.76v-11h1.76v4.598h4.972v-4.598h1.76v11h-1.76V502.013z"/>
	<path fill="#FFFFFF" d="M350.178,500.077c0.352-0.059,0.689-0.099,1.012-0.121s0.631-0.033,0.924-0.033
		c0.748,0,1.375,0.084,1.881,0.253c0.506,0.169,0.913,0.4,1.221,0.693c0.308,0.293,0.524,0.642,0.649,1.045
		c0.125,0.403,0.187,0.833,0.187,1.287c0,1.334-0.371,2.303-1.111,2.904c-0.741,0.602-1.939,0.902-3.597,0.902
		c-0.939,0-1.914-0.044-2.926-0.132v-11h1.76V500.077z M350.178,505.334c0.542,0.088,1.063,0.132,1.562,0.132
		c0.924,0,1.569-0.179,1.936-0.539c0.366-0.359,0.55-0.869,0.55-1.529c0-0.586-0.18-1.07-0.539-1.452
		c-0.359-0.381-0.986-0.572-1.881-0.572c-0.25,0-0.521,0.007-0.814,0.022c-0.293,0.015-0.565,0.059-0.814,0.132V505.334z
		 M357.79,495.875h1.76v11h-1.76V495.875z"/>
	<path fill="#FFFFFF" d="M370.968,505.995c-0.44,0.352-0.994,0.631-1.661,0.836c-0.667,0.205-1.375,0.308-2.123,0.308
		c-0.836,0-1.562-0.136-2.178-0.407c-0.616-0.271-1.122-0.66-1.518-1.166s-0.69-1.111-0.88-1.815s-0.286-1.496-0.286-2.376
		c0-1.877,0.418-3.307,1.254-4.29c0.836-0.982,2.031-1.474,3.586-1.474c0.499,0,0.997,0.055,1.496,0.165
		c0.499,0.11,0.946,0.319,1.342,0.627c0.396,0.308,0.719,0.745,0.968,1.309c0.249,0.565,0.374,1.309,0.374,2.233
		c0,0.484-0.044,1.02-0.132,1.606h-7.062c0,0.646,0.066,1.218,0.198,1.716s0.337,0.92,0.616,1.265
		c0.279,0.345,0.642,0.608,1.089,0.792c0.447,0.183,0.993,0.275,1.639,0.275c0.499,0,0.998-0.088,1.496-0.264
		c0.499-0.176,0.873-0.381,1.122-0.616L370.968,505.995z M367.183,497.15c-0.866,0-1.559,0.228-2.079,0.682
		s-0.833,1.232-0.935,2.332h5.456c0-1.114-0.212-1.896-0.638-2.343C368.562,497.375,367.961,497.15,367.183,497.15z"/>
	<path fill="#FFFFFF" d="M379.371,501.375c0-1.862,0.414-3.289,1.243-4.279c0.829-0.99,2.02-1.485,3.575-1.485
		c0.822,0,1.537,0.136,2.146,0.407s1.11,0.66,1.507,1.166s0.689,1.115,0.881,1.826c0.189,0.712,0.285,1.5,0.285,2.365
		c0,1.863-0.414,3.289-1.242,4.279c-0.83,0.99-2.021,1.485-3.576,1.485c-0.821,0-1.536-0.136-2.145-0.407
		c-0.609-0.271-1.111-0.66-1.507-1.166s-0.69-1.114-0.88-1.826S379.371,502.24,379.371,501.375z M381.197,501.375
		c0,0.558,0.055,1.093,0.165,1.606c0.11,0.514,0.282,0.961,0.517,1.342c0.234,0.381,0.542,0.689,0.924,0.924
		c0.382,0.235,0.843,0.352,1.386,0.352c1.995,0.015,2.992-1.394,2.992-4.224c0-0.572-0.055-1.114-0.164-1.628
		c-0.111-0.513-0.283-0.96-0.518-1.342c-0.234-0.381-0.543-0.685-0.924-0.913c-0.382-0.228-0.844-0.341-1.387-0.341
		C382.195,497.136,381.197,498.544,381.197,501.375z"/>
	<path fill="#FFFFFF" d="M398.446,497.415h-3.454v9.46h-1.76v-9.46h-3.454v-1.54h8.668V497.415z"/>
	<path fill="#FFFFFF" d="M402.955,501.924h-1.012v4.95h-1.76v-11h1.76v4.972l0.945-0.308l3.521-4.664h1.914l-3.41,4.422
		l-0.924,0.726l1.144,0.88l3.674,4.972h-2.178L402.955,501.924z"/>
	<path fill="#FFFFFF" d="M410.699,495.875h1.209l0.33,1.32h0.088c0.338-0.513,0.773-0.905,1.31-1.177
		c0.535-0.271,1.147-0.407,1.837-0.407c1.467,0,2.56,0.433,3.278,1.298c0.718,0.865,1.078,2.281,1.078,4.246
		c0,0.924-0.121,1.757-0.363,2.497c-0.241,0.741-0.583,1.368-1.022,1.881c-0.44,0.513-0.973,0.909-1.596,1.188
		c-0.623,0.278-1.316,0.418-2.078,0.418c-0.543,0-0.973-0.033-1.287-0.099c-0.316-0.066-0.657-0.18-1.023-0.341v4.576h-1.76V495.875
		z M415.143,497.15c-0.748,0-1.338,0.195-1.771,0.583c-0.433,0.389-0.737,0.979-0.913,1.771v5.456
		c0.264,0.206,0.564,0.363,0.902,0.473c0.337,0.11,0.784,0.165,1.342,0.165c1.012,0,1.814-0.377,2.408-1.133
		c0.595-0.755,0.892-1.866,0.892-3.333c0-0.601-0.052-1.147-0.153-1.639c-0.104-0.491-0.269-0.909-0.496-1.254
		c-0.227-0.345-0.521-0.612-0.879-0.803C416.115,497.246,415.671,497.15,415.143,497.15z"/>
	<path fill="#FFFFFF" d="M424.362,500.077c0.352-0.059,0.688-0.099,1.012-0.121c0.322-0.022,0.631-0.033,0.924-0.033
		c0.748,0,1.375,0.084,1.881,0.253c0.506,0.169,0.913,0.4,1.221,0.693c0.309,0.293,0.524,0.642,0.649,1.045
		c0.124,0.403,0.187,0.833,0.187,1.287c0,1.334-0.37,2.303-1.111,2.904c-0.74,0.602-1.939,0.902-3.596,0.902
		c-0.939,0-1.914-0.044-2.927-0.132v-11h1.761V500.077z M424.362,505.334c0.542,0.088,1.063,0.132,1.562,0.132
		c0.924,0,1.569-0.179,1.937-0.539c0.365-0.359,0.549-0.869,0.549-1.529c0-0.586-0.18-1.07-0.539-1.452
		c-0.359-0.381-0.986-0.572-1.881-0.572c-0.249,0-0.521,0.007-0.813,0.022c-0.294,0.015-0.565,0.059-0.813,0.132V505.334z
		 M431.973,495.875h1.76v11h-1.76V495.875z"/>
	<path fill="#FFFFFF" d="M444.139,497.415h-3.454v9.46h-1.76v-9.46h-3.454v-1.54h8.668V497.415z"/>
	<path fill="#FFFFFF" d="M447.637,500.077c0.352-0.059,0.689-0.099,1.012-0.121s0.631-0.033,0.924-0.033
		c0.748,0,1.375,0.084,1.882,0.253c0.506,0.169,0.912,0.4,1.221,0.693c0.308,0.293,0.524,0.642,0.648,1.045
		c0.125,0.403,0.188,0.833,0.188,1.287c0,1.334-0.371,2.303-1.111,2.904c-0.74,0.602-1.939,0.902-3.597,0.902
		c-0.938,0-1.914-0.044-2.926-0.132v-11h1.76V500.077z M447.637,505.334c0.542,0.088,1.063,0.132,1.562,0.132
		c0.925,0,1.569-0.179,1.937-0.539c0.366-0.359,0.55-0.869,0.55-1.529c0-0.586-0.18-1.07-0.539-1.452
		c-0.359-0.381-0.986-0.572-1.881-0.572c-0.25,0-0.521,0.007-0.814,0.022c-0.293,0.015-0.564,0.059-0.813,0.132V505.334z
		 M455.249,495.875h1.76v11h-1.76V495.875z"/>
	<path fill="#FFFFFF" d="M468.426,505.995c-0.439,0.352-0.993,0.631-1.66,0.836c-0.668,0.205-1.375,0.308-2.123,0.308
		c-0.837,0-1.563-0.136-2.179-0.407c-0.615-0.271-1.122-0.66-1.518-1.166c-0.396-0.506-0.689-1.111-0.88-1.815
		c-0.191-0.704-0.286-1.496-0.286-2.376c0-1.877,0.418-3.307,1.254-4.29c0.836-0.982,2.031-1.474,3.586-1.474
		c0.498,0,0.997,0.055,1.496,0.165c0.498,0.11,0.946,0.319,1.342,0.627c0.396,0.308,0.719,0.745,0.968,1.309
		c0.25,0.565,0.374,1.309,0.374,2.233c0,0.484-0.044,1.02-0.132,1.606h-7.062c0,0.646,0.065,1.218,0.197,1.716
		c0.133,0.499,0.338,0.92,0.616,1.265s0.642,0.608,1.089,0.792c0.447,0.183,0.994,0.275,1.64,0.275c0.498,0,0.997-0.088,1.496-0.264
		c0.498-0.176,0.872-0.381,1.122-0.616L468.426,505.995z M464.643,497.15c-0.866,0-1.559,0.228-2.079,0.682
		c-0.521,0.455-0.833,1.232-0.936,2.332h5.456c0-1.114-0.213-1.896-0.638-2.343C466.021,497.375,465.419,497.15,464.643,497.15z"/>
	<path fill="#FFFFFF" d="M480.69,503.002l0.618,2.112h0.11l0.486-2.134l2.142-7.106h1.76l-3.256,9.878
		c-0.249,0.719-0.495,1.416-0.737,2.09c-0.241,0.675-0.51,1.276-0.803,1.804s-0.623,0.95-0.99,1.265
		c-0.366,0.315-0.792,0.473-1.275,0.473c-0.528,0-0.961-0.073-1.298-0.22l0.308-1.518c0.19,0.073,0.374,0.11,0.55,0.11
		c0.411,0,0.807-0.216,1.188-0.649c0.381-0.433,0.696-1.177,0.945-2.233l-4.422-11h2.024L480.69,503.002z"/>
	<path fill="#FFFFFF" d="M487.698,495.875h1.21l0.33,1.32h0.088c0.337-0.513,0.773-0.905,1.309-1.177s1.147-0.407,1.837-0.407
		c1.467,0,2.56,0.433,3.278,1.298s1.078,2.281,1.078,4.246c0,0.924-0.121,1.757-0.363,2.497c-0.242,0.741-0.583,1.368-1.022,1.881
		c-0.44,0.513-0.973,0.909-1.596,1.188c-0.623,0.278-1.316,0.418-2.079,0.418c-0.542,0-0.972-0.033-1.287-0.099
		s-0.656-0.18-1.022-0.341v4.576h-1.76V495.875z M492.142,497.15c-0.748,0-1.338,0.195-1.771,0.583
		c-0.433,0.389-0.737,0.979-0.913,1.771v5.456c0.264,0.206,0.564,0.363,0.902,0.473c0.337,0.11,0.784,0.165,1.342,0.165
		c1.012,0,1.814-0.377,2.409-1.133c0.594-0.755,0.891-1.866,0.891-3.333c0-0.601-0.052-1.147-0.154-1.639s-0.268-0.909-0.495-1.254
		s-0.521-0.612-0.88-0.803C493.114,497.246,492.67,497.15,492.142,497.15z"/>
	<path fill="#FFFFFF" d="M498.984,501.375c0-1.862,0.414-3.289,1.243-4.279c0.828-0.99,2.02-1.485,3.575-1.485
		c0.82,0,1.536,0.136,2.145,0.407s1.111,0.66,1.507,1.166c0.396,0.506,0.689,1.115,0.88,1.826c0.19,0.712,0.286,1.5,0.286,2.365
		c0,1.863-0.414,3.289-1.243,4.279c-0.828,0.99-2.021,1.485-3.574,1.485c-0.822,0-1.537-0.136-2.146-0.407
		c-0.608-0.271-1.111-0.66-1.507-1.166c-0.396-0.506-0.689-1.114-0.88-1.826C499.078,503.028,498.984,502.24,498.984,501.375z
		 M500.81,501.375c0,0.558,0.055,1.093,0.165,1.606c0.109,0.514,0.282,0.961,0.517,1.342s0.543,0.689,0.924,0.924
		c0.382,0.235,0.844,0.352,1.387,0.352c1.994,0.015,2.991-1.394,2.991-4.224c0-0.572-0.055-1.114-0.165-1.628
		c-0.109-0.513-0.282-0.96-0.517-1.342c-0.234-0.381-0.543-0.685-0.924-0.913c-0.382-0.228-0.844-0.341-1.386-0.341
		C501.807,497.136,500.81,498.544,500.81,501.375z"/>
	<path fill="#FFFFFF" d="M514.163,501.924h-1.012v4.95h-1.76v-11h1.76v4.972l0.946-0.308l3.52-4.664h1.914l-3.41,4.422l-0.924,0.726
		l1.144,0.88l3.675,4.972h-2.179L514.163,501.924z"/>
	<path fill="#FFFFFF" d="M528.771,500.362l0.066-1.364h-0.066l-0.901,1.408l-4.95,6.468h-1.012v-11h1.76v6.71l-0.066,1.298h0.088
		l0.858-1.364l4.95-6.644h1.034v11h-1.761V500.362z"/>
	<path fill="#FFFFFF" d="M151.279,538.148c-0.44,0.322-0.96,0.568-1.562,0.737c-0.602,0.168-1.232,0.253-1.892,0.253
		c-0.851,0-1.57-0.136-2.156-0.407c-0.587-0.271-1.067-0.66-1.441-1.166s-0.646-1.114-0.814-1.825
		c-0.169-0.712-0.253-1.5-0.253-2.366c0-1.862,0.41-3.289,1.232-4.279c0.821-0.99,2.002-1.485,3.542-1.485
		c0.704,0,1.301,0.055,1.793,0.165c0.491,0.11,0.935,0.268,1.331,0.473l-0.506,1.518c-0.338-0.19-0.712-0.341-1.122-0.451
		c-0.411-0.11-0.851-0.165-1.32-0.165c-2.083,0-3.124,1.408-3.124,4.224c0,0.557,0.055,1.088,0.165,1.595
		c0.11,0.506,0.293,0.953,0.55,1.342c0.256,0.389,0.594,0.7,1.012,0.935c0.418,0.235,0.935,0.353,1.551,0.353
		c0.528,0,1.001-0.081,1.419-0.242s0.759-0.345,1.023-0.55L151.279,538.148z"/>
	<path fill="#FFFFFF" d="M166.195,529.415h-4.862v9.46h-1.76v-11h8.382v11h-1.76V529.415z"/>
	<path fill="#FFFFFF" d="M171.342,527.875h1.21l0.33,1.32h0.088c0.337-0.513,0.773-0.905,1.309-1.177
		c0.535-0.271,1.147-0.407,1.837-0.407c1.467,0,2.56,0.433,3.278,1.298c0.718,0.865,1.078,2.281,1.078,4.246
		c0,0.924-0.121,1.757-0.363,2.497c-0.242,0.741-0.583,1.368-1.023,1.882c-0.44,0.513-0.972,0.908-1.595,1.188
		c-0.624,0.278-1.316,0.418-2.079,0.418c-0.543,0-0.972-0.033-1.287-0.1c-0.315-0.065-0.657-0.18-1.023-0.34v4.575h-1.76V527.875z
		 M175.786,529.15c-0.748,0-1.339,0.195-1.771,0.583c-0.433,0.389-0.737,0.979-0.913,1.771v5.457
		c0.264,0.205,0.564,0.363,0.902,0.473s0.785,0.165,1.342,0.165c1.012,0,1.815-0.378,2.409-1.134
		c0.594-0.754,0.891-1.865,0.891-3.333c0-0.601-0.052-1.147-0.154-1.639c-0.103-0.491-0.268-0.909-0.495-1.254
		c-0.228-0.345-0.521-0.612-0.88-0.803C176.758,529.246,176.314,529.15,175.786,529.15z"/>
	<path fill="#FFFFFF" d="M182.628,533.375c0-1.862,0.414-3.289,1.243-4.279c0.829-0.99,2.021-1.485,3.575-1.485
		c0.821,0,1.536,0.136,2.145,0.407c0.608,0.271,1.111,0.66,1.507,1.166s0.689,1.115,0.88,1.826c0.19,0.712,0.286,1.5,0.286,2.365
		c0,1.863-0.415,3.29-1.243,4.279c-0.829,0.99-2.021,1.485-3.575,1.485c-0.822,0-1.537-0.136-2.145-0.407
		c-0.609-0.271-1.111-0.66-1.507-1.166s-0.69-1.114-0.88-1.825C182.723,535.028,182.628,534.24,182.628,533.375z M184.454,533.375
		c0,0.557,0.055,1.092,0.165,1.606c0.11,0.514,0.282,0.961,0.517,1.342c0.234,0.382,0.542,0.689,0.924,0.924
		c0.381,0.235,0.843,0.353,1.386,0.353c1.995,0.015,2.992-1.394,2.992-4.224c0-0.572-0.055-1.114-0.165-1.628
		c-0.11-0.513-0.283-0.96-0.517-1.342c-0.235-0.381-0.543-0.685-0.924-0.913c-0.382-0.228-0.844-0.341-1.386-0.341
		C185.451,529.136,184.454,530.544,184.454,533.375z"/>
	<path fill="#FFFFFF" d="M199.986,538.963c-0.25,0.088-0.51,0.139-0.781,0.154c-0.271,0.014-0.517,0.021-0.737,0.021
		c-1.335,0-2.361-0.469-3.08-1.408c-0.719-0.938-1.078-2.391-1.078-4.356c0-1.877,0.396-3.292,1.188-4.246
		c0.792-0.953,1.936-1.43,3.432-1.43c0.411,0,0.763,0.029,1.056,0.088v-4.312h1.672v4.334c0.264-0.044,0.499-0.073,0.704-0.088
		c0.205-0.015,0.403-0.022,0.594-0.022c1.452,0,2.544,0.421,3.278,1.265c0.733,0.844,1.1,2.241,1.1,4.191
		c0,0.924-0.099,1.757-0.297,2.497c-0.198,0.741-0.488,1.368-0.869,1.882c-0.382,0.513-0.847,0.908-1.397,1.188
		c-0.55,0.278-1.185,0.418-1.903,0.418c-0.132,0-0.327-0.012-0.583-0.033c-0.257-0.021-0.466-0.063-0.627-0.121v4.29h-1.672V538.963
		z M198.908,537.687c0.176,0,0.352-0.007,0.528-0.022c0.176-0.014,0.366-0.043,0.572-0.088v-8.338
		c-0.176-0.029-0.341-0.051-0.495-0.066c-0.154-0.014-0.341-0.022-0.561-0.022c-0.91,0-1.617,0.341-2.123,1.023
		c-0.506,0.682-0.759,1.749-0.759,3.201c0,0.616,0.055,1.188,0.165,1.715c0.11,0.529,0.282,0.987,0.517,1.375
		c0.234,0.39,0.531,0.69,0.891,0.902C198.002,537.58,198.424,537.687,198.908,537.687z M202.626,529.15
		c-0.176,0-0.334,0.004-0.473,0.011c-0.14,0.007-0.312,0.041-0.517,0.099v8.36c0.146,0.029,0.312,0.047,0.495,0.055
		c0.183,0.008,0.385,0.011,0.605,0.011c0.938,0,1.646-0.389,2.123-1.166c0.477-0.777,0.715-1.899,0.715-3.366
		c0-1.246-0.216-2.225-0.649-2.937C204.492,529.506,203.726,529.15,202.626,529.15z"/>
	<path fill="#FFFFFF" d="M218.026,537.994c-0.44,0.353-0.994,0.631-1.661,0.836c-0.667,0.205-1.375,0.309-2.123,0.309
		c-0.836,0-1.562-0.136-2.178-0.407c-0.616-0.271-1.122-0.66-1.518-1.166s-0.69-1.11-0.88-1.815
		c-0.19-0.703-0.286-1.496-0.286-2.375c0-1.877,0.418-3.307,1.254-4.29c0.836-0.982,2.031-1.474,3.586-1.474
		c0.499,0,0.997,0.055,1.496,0.165c0.499,0.11,0.946,0.319,1.342,0.627c0.396,0.308,0.719,0.745,0.968,1.309
		c0.249,0.565,0.374,1.309,0.374,2.233c0,0.484-0.044,1.02-0.132,1.606h-7.062c0,0.646,0.066,1.217,0.198,1.716
		s0.337,0.921,0.616,1.265c0.279,0.346,0.642,0.609,1.089,0.793c0.447,0.183,0.993,0.274,1.639,0.274
		c0.499,0,0.998-0.088,1.496-0.265c0.499-0.176,0.873-0.381,1.122-0.615L218.026,537.994z M214.241,529.15
		c-0.866,0-1.559,0.228-2.079,0.682s-0.833,1.232-0.935,2.332h5.456c0-1.114-0.212-1.896-0.638-2.343
		C215.62,529.375,215.019,529.15,214.241,529.15z"/>
	<path fill="#FFFFFF" d="M228.431,538.148c-0.44,0.322-0.96,0.568-1.562,0.737c-0.602,0.168-1.232,0.253-1.892,0.253
		c-0.851,0-1.57-0.136-2.156-0.407c-0.587-0.271-1.067-0.66-1.441-1.166s-0.646-1.114-0.814-1.825
		c-0.169-0.712-0.253-1.5-0.253-2.366c0-1.862,0.41-3.289,1.232-4.279c0.821-0.99,2.002-1.485,3.542-1.485
		c0.704,0,1.301,0.055,1.793,0.165c0.491,0.11,0.935,0.268,1.331,0.473l-0.506,1.518c-0.338-0.19-0.712-0.341-1.122-0.451
		c-0.411-0.11-0.851-0.165-1.32-0.165c-2.083,0-3.124,1.408-3.124,4.224c0,0.557,0.055,1.088,0.165,1.595
		c0.11,0.506,0.293,0.953,0.55,1.342c0.256,0.389,0.594,0.7,1.012,0.935c0.418,0.235,0.935,0.353,1.551,0.353
		c0.528,0,1.001-0.081,1.419-0.242s0.759-0.345,1.023-0.55L228.431,538.148z"/>
	<path fill="#FFFFFF" d="M237.847,538.148c-0.44,0.322-0.96,0.568-1.562,0.737c-0.602,0.168-1.232,0.253-1.892,0.253
		c-0.851,0-1.57-0.136-2.156-0.407c-0.587-0.271-1.067-0.66-1.441-1.166s-0.646-1.114-0.814-1.825
		c-0.169-0.712-0.253-1.5-0.253-2.366c0-1.862,0.41-3.289,1.232-4.279c0.821-0.99,2.002-1.485,3.542-1.485
		c0.704,0,1.301,0.055,1.793,0.165c0.491,0.11,0.935,0.268,1.331,0.473l-0.506,1.518c-0.338-0.19-0.712-0.341-1.122-0.451
		c-0.411-0.11-0.851-0.165-1.32-0.165c-2.083,0-3.124,1.408-3.124,4.224c0,0.557,0.055,1.088,0.165,1.595
		c0.11,0.506,0.293,0.953,0.55,1.342c0.256,0.389,0.594,0.7,1.012,0.935c0.418,0.235,0.935,0.353,1.551,0.353
		c0.528,0,1.001-0.081,1.419-0.242s0.759-0.345,1.023-0.55L237.847,538.148z"/>
	<path fill="#FFFFFF" d="M247.132,532.362l0.066-1.364h-0.066l-0.902,1.408l-4.95,6.468h-1.012v-11h1.76v6.709l-0.066,1.299h0.088
		l0.858-1.364l4.95-6.644h1.034v11h-1.76V532.362z"/>
	<path fill="#FFFFFF" d="M251.663,533.375c0-1.862,0.414-3.289,1.243-4.279c0.829-0.99,2.021-1.485,3.575-1.485
		c0.821,0,1.536,0.136,2.145,0.407c0.608,0.271,1.111,0.66,1.507,1.166s0.689,1.115,0.88,1.826c0.19,0.712,0.286,1.5,0.286,2.365
		c0,1.863-0.415,3.29-1.243,4.279c-0.829,0.99-2.021,1.485-3.575,1.485c-0.822,0-1.537-0.136-2.145-0.407
		c-0.609-0.271-1.111-0.66-1.507-1.166s-0.69-1.114-0.88-1.825C251.759,535.028,251.663,534.24,251.663,533.375z M253.489,533.375
		c0,0.557,0.055,1.092,0.165,1.606c0.11,0.514,0.282,0.961,0.517,1.342c0.234,0.382,0.542,0.689,0.924,0.924
		c0.381,0.235,0.843,0.353,1.386,0.353c1.995,0.015,2.992-1.394,2.992-4.224c0-0.572-0.055-1.114-0.165-1.628
		c-0.11-0.513-0.283-0.96-0.517-1.342c-0.235-0.381-0.543-0.685-0.924-0.913c-0.382-0.228-0.844-0.341-1.386-0.341
		C254.487,529.136,253.489,530.544,253.489,533.375z"/>
	<path fill="#FFFFFF" d="M270.803,534.013h-4.972v4.862h-1.76v-11h1.76v4.598h4.972v-4.598h1.76v11h-1.76V534.013z"/>
	<path fill="#FFFFFF" d="M275.775,528.688c0.557-0.337,1.206-0.586,1.947-0.748c0.741-0.161,1.514-0.242,2.321-0.242
		c0.762,0,1.375,0.103,1.837,0.308c0.462,0.206,0.814,0.473,1.056,0.803c0.242,0.33,0.403,0.693,0.484,1.089
		c0.081,0.396,0.121,0.792,0.121,1.188c0,0.88-0.022,1.738-0.066,2.574c-0.044,0.836-0.066,1.629-0.066,2.377
		c0,0.542,0.022,1.055,0.066,1.539c0.044,0.484,0.125,0.932,0.242,1.342h-1.298l-0.462-1.539h-0.11
		c-0.132,0.205-0.297,0.406-0.495,0.604c-0.198,0.198-0.437,0.374-0.715,0.528c-0.279,0.154-0.602,0.282-0.968,0.385
		c-0.367,0.103-0.785,0.154-1.254,0.154c-0.47,0-0.906-0.074-1.309-0.221c-0.404-0.146-0.752-0.355-1.045-0.627
		c-0.294-0.271-0.525-0.598-0.693-0.979s-0.253-0.814-0.253-1.299c0-0.645,0.132-1.184,0.396-1.616
		c0.264-0.433,0.634-0.777,1.111-1.034c0.476-0.256,1.048-0.44,1.716-0.55c0.667-0.11,1.404-0.165,2.211-0.165
		c0.205,0,0.407,0,0.605,0c0.198,0,0.399,0.015,0.605,0.044c0.044-0.44,0.066-0.836,0.066-1.188c0-0.807-0.162-1.371-0.484-1.694
		c-0.323-0.323-0.91-0.484-1.76-0.484c-0.25,0-0.517,0.019-0.803,0.057c-0.286,0.038-0.58,0.09-0.88,0.158
		c-0.301,0.068-0.587,0.151-0.858,0.249c-0.272,0.098-0.51,0.207-0.715,0.328L275.775,528.688z M278.899,537.511
		c0.41,0,0.777-0.056,1.1-0.165c0.322-0.11,0.601-0.25,0.836-0.418c0.234-0.168,0.429-0.355,0.583-0.561
		c0.154-0.206,0.267-0.404,0.341-0.595v-1.826c-0.206-0.015-0.415-0.025-0.627-0.032c-0.213-0.008-0.422-0.012-0.627-0.012
		c-0.455,0-0.898,0.025-1.331,0.077s-0.814,0.147-1.144,0.286c-0.33,0.14-0.594,0.33-0.792,0.572
		c-0.198,0.242-0.297,0.547-0.297,0.912c0,0.514,0.183,0.936,0.55,1.266S278.327,537.511,278.899,537.511z"/>
	<path fill="#FFFFFF" d="M292.781,529.415h-3.19c-0.044,0.616-0.088,1.28-0.132,1.991c-0.044,0.712-0.11,1.423-0.198,2.134
		c-0.088,0.712-0.206,1.395-0.352,2.047c-0.147,0.652-0.334,1.229-0.561,1.727c-0.228,0.499-0.506,0.898-0.836,1.199
		c-0.33,0.301-0.722,0.451-1.177,0.451c-0.279,0-0.521-0.016-0.726-0.045c-0.206-0.029-0.389-0.08-0.55-0.153l0.264-1.474
		c0.176,0.059,0.367,0.088,0.572,0.088c0.293,0,0.557-0.125,0.792-0.375c0.234-0.248,0.44-0.722,0.616-1.418
		c0.176-0.697,0.323-1.662,0.44-2.894c0.117-1.232,0.198-2.838,0.242-4.818h6.556v11h-1.76V529.415z"/>
	<path fill="#FFFFFF" d="M297.753,528.688c0.557-0.337,1.206-0.586,1.947-0.748c0.741-0.161,1.514-0.242,2.321-0.242
		c0.762,0,1.375,0.103,1.837,0.308c0.462,0.206,0.814,0.473,1.056,0.803c0.242,0.33,0.403,0.693,0.484,1.089
		c0.081,0.396,0.121,0.792,0.121,1.188c0,0.88-0.022,1.738-0.066,2.574c-0.044,0.836-0.066,1.629-0.066,2.377
		c0,0.542,0.022,1.055,0.066,1.539c0.044,0.484,0.125,0.932,0.242,1.342h-1.298l-0.462-1.539h-0.11
		c-0.132,0.205-0.297,0.406-0.495,0.604c-0.198,0.198-0.437,0.374-0.715,0.528c-0.279,0.154-0.602,0.282-0.968,0.385
		c-0.367,0.103-0.785,0.154-1.254,0.154c-0.47,0-0.906-0.074-1.309-0.221c-0.404-0.146-0.752-0.355-1.045-0.627
		c-0.294-0.271-0.525-0.598-0.693-0.979s-0.253-0.814-0.253-1.299c0-0.645,0.132-1.184,0.396-1.616
		c0.264-0.433,0.634-0.777,1.111-1.034c0.476-0.256,1.048-0.44,1.716-0.55c0.667-0.11,1.404-0.165,2.211-0.165
		c0.205,0,0.407,0,0.605,0c0.198,0,0.399,0.015,0.605,0.044c0.044-0.44,0.066-0.836,0.066-1.188c0-0.807-0.162-1.371-0.484-1.694
		c-0.323-0.323-0.91-0.484-1.76-0.484c-0.25,0-0.517,0.019-0.803,0.057c-0.286,0.038-0.58,0.09-0.88,0.158
		c-0.301,0.068-0.587,0.151-0.858,0.249c-0.272,0.098-0.51,0.207-0.715,0.328L297.753,528.688z M300.877,537.511
		c0.41,0,0.777-0.056,1.1-0.165c0.322-0.11,0.601-0.25,0.836-0.418c0.234-0.168,0.429-0.355,0.583-0.561
		c0.154-0.206,0.267-0.404,0.341-0.595v-1.826c-0.206-0.015-0.415-0.025-0.627-0.032c-0.213-0.008-0.422-0.012-0.627-0.012
		c-0.455,0-0.898,0.025-1.331,0.077s-0.814,0.147-1.144,0.286c-0.33,0.14-0.594,0.33-0.792,0.572
		c-0.198,0.242-0.297,0.547-0.297,0.912c0,0.514,0.183,0.936,0.55,1.266S300.304,537.511,300.877,537.511z"/>
	<path fill="#FFFFFF" d="M317.926,532.34l0.132-2.09h-0.11l-0.792,1.694l-2.662,4.312h-0.616l-2.772-4.312l-0.726-1.694h-0.088
		l0.176,2.068v6.557h-1.628v-11h1.738l3.08,4.928l0.638,1.275h0.044l0.66-1.32l2.882-4.884h1.76v11h-1.716V532.34z"/>
	<path fill="#FFFFFF" d="M329.894,532.362l0.066-1.364h-0.066l-0.902,1.408l-4.95,6.468h-1.012v-11h1.76v6.709l-0.066,1.299h0.088
		l0.858-1.364l4.95-6.644h1.034v11h-1.76V532.362z"/>
	<path fill="#FFFFFF" d="M347.428,529.415h-3.454v9.46h-1.76v-9.46h-3.454v-1.54h8.668V529.415z"/>
	<path fill="#FFFFFF" d="M349.166,527.896c0.513-0.029,1.052-0.066,1.617-0.11c0.564-0.044,1.265-0.066,2.101-0.066
		c1.452,0,2.493,0.224,3.124,0.671c0.63,0.447,0.946,1.125,0.946,2.035c0,0.514-0.15,1.016-0.451,1.507
		c-0.301,0.492-0.795,0.854-1.485,1.089v0.088c0.865,0.162,1.474,0.462,1.826,0.902s0.528,1.026,0.528,1.76
		c0,1.144-0.411,1.973-1.232,2.485c-0.821,0.514-2.054,0.771-3.696,0.771c-0.616,0-1.188-0.019-1.716-0.055
		c-0.528-0.037-1.049-0.077-1.562-0.121V527.896z M353.082,532.517c0.264,0,0.521-0.044,0.77-0.132
		c0.25-0.088,0.473-0.209,0.671-0.363c0.198-0.154,0.359-0.333,0.484-0.539c0.125-0.205,0.187-0.425,0.187-0.66
		c0-0.587-0.176-0.994-0.528-1.221c-0.352-0.227-0.968-0.341-1.848-0.341c-0.47,0-0.84,0.007-1.111,0.022s-0.532,0.029-0.781,0.044
		v3.19H353.082z M350.926,537.4c0.278,0.029,0.553,0.052,0.825,0.066s0.59,0.021,0.957,0.021c0.982,0,1.712-0.139,2.189-0.418
		c0.477-0.278,0.715-0.755,0.715-1.43c0-0.528-0.202-0.957-0.605-1.287c-0.404-0.33-1.119-0.495-2.145-0.495h-1.936V537.4z"/>
	<path fill="#FFFFFF" d="M359.528,533.375c0-1.862,0.414-3.289,1.243-4.279c0.829-0.99,2.021-1.485,3.575-1.485
		c0.821,0,1.536,0.136,2.145,0.407c0.608,0.271,1.111,0.66,1.507,1.166s0.689,1.115,0.88,1.826c0.19,0.712,0.286,1.5,0.286,2.365
		c0,1.863-0.415,3.29-1.243,4.279c-0.829,0.99-2.021,1.485-3.575,1.485c-0.822,0-1.537-0.136-2.145-0.407
		c-0.609-0.271-1.111-0.66-1.507-1.166s-0.69-1.114-0.88-1.825C359.623,535.028,359.528,534.24,359.528,533.375z M361.353,533.375
		c0,0.557,0.055,1.092,0.165,1.606c0.11,0.514,0.282,0.961,0.517,1.342c0.234,0.382,0.542,0.689,0.924,0.924
		c0.381,0.235,0.843,0.353,1.386,0.353c1.995,0.015,2.992-1.394,2.992-4.224c0-0.572-0.055-1.114-0.165-1.628
		c-0.11-0.513-0.283-0.96-0.517-1.342c-0.235-0.381-0.543-0.685-0.924-0.913c-0.382-0.228-0.844-0.341-1.386-0.341
		C362.351,529.136,361.353,530.544,361.353,533.375z"/>
	<path fill="#FFFFFF" d="M371.935,527.875h1.21l0.33,1.32h0.088c0.337-0.513,0.773-0.905,1.309-1.177
		c0.535-0.271,1.147-0.407,1.837-0.407c1.467,0,2.56,0.433,3.278,1.298c0.718,0.865,1.078,2.281,1.078,4.246
		c0,0.924-0.121,1.757-0.363,2.497c-0.242,0.741-0.583,1.368-1.023,1.882c-0.44,0.513-0.972,0.908-1.595,1.188
		c-0.624,0.278-1.316,0.418-2.079,0.418c-0.543,0-0.972-0.033-1.287-0.1c-0.315-0.065-0.657-0.18-1.023-0.34v4.575h-1.76V527.875z
		 M376.38,529.15c-0.748,0-1.339,0.195-1.771,0.583c-0.433,0.389-0.737,0.979-0.913,1.771v5.457
		c0.264,0.205,0.564,0.363,0.902,0.473s0.785,0.165,1.342,0.165c1.012,0,1.815-0.378,2.409-1.134
		c0.594-0.754,0.891-1.865,0.891-3.333c0-0.601-0.052-1.147-0.154-1.639c-0.103-0.491-0.268-0.909-0.495-1.254
		c-0.228-0.345-0.521-0.612-0.88-0.803C377.351,529.246,376.907,529.15,376.38,529.15z"/>
	<path fill="#FFFFFF" d="M384.982,527.875v2.992c0,0.396,0.021,0.751,0.065,1.067s0.132,0.587,0.265,0.814
		c0.131,0.228,0.322,0.403,0.572,0.528c0.248,0.125,0.578,0.188,0.989,0.188c0.66,0,1.202-0.074,1.628-0.22s0.748-0.308,0.969-0.484
		v-4.884h1.76v11h-1.76v-4.621c-0.235,0.147-0.584,0.309-1.046,0.484s-1.097,0.264-1.903,0.264c-0.542,0-1.02-0.059-1.43-0.176
		s-0.756-0.322-1.033-0.615c-0.279-0.293-0.488-0.683-0.627-1.167c-0.141-0.484-0.209-1.092-0.209-1.826v-3.344H384.982z"/>
	<path fill="#FFFFFF" d="M402.647,537.994c-0.439,0.353-0.994,0.631-1.66,0.836c-0.668,0.205-1.375,0.309-2.123,0.309
		c-0.837,0-1.563-0.136-2.179-0.407c-0.615-0.271-1.121-0.66-1.518-1.166s-0.689-1.11-0.881-1.815
		c-0.189-0.703-0.285-1.496-0.285-2.375c0-1.877,0.418-3.307,1.254-4.29c0.836-0.982,2.031-1.474,3.586-1.474
		c0.499,0,0.997,0.055,1.496,0.165c0.499,0.11,0.946,0.319,1.342,0.627c0.396,0.308,0.719,0.745,0.968,1.309
		c0.25,0.565,0.375,1.309,0.375,2.233c0,0.484-0.045,1.02-0.133,1.606h-7.062c0,0.646,0.066,1.217,0.197,1.716
		c0.133,0.499,0.338,0.921,0.616,1.265c0.278,0.346,0.642,0.609,1.089,0.793c0.447,0.183,0.994,0.274,1.64,0.274
		c0.498,0,0.997-0.088,1.496-0.265c0.498-0.176,0.872-0.381,1.121-0.615L402.647,537.994z M398.864,529.15
		c-0.866,0-1.56,0.228-2.079,0.682c-0.521,0.455-0.833,1.232-0.936,2.332h5.456c0-1.114-0.213-1.896-0.638-2.343
		C400.241,529.375,399.641,529.15,398.864,529.15z"/>
	<path fill="#FFFFFF" d="M413.053,538.148c-0.439,0.322-0.961,0.568-1.563,0.737c-0.602,0.168-1.231,0.253-1.891,0.253
		c-0.852,0-1.57-0.136-2.156-0.407c-0.588-0.271-1.067-0.66-1.441-1.166s-0.646-1.114-0.814-1.825
		c-0.168-0.712-0.252-1.5-0.252-2.366c0-1.862,0.41-3.289,1.231-4.279c0.821-0.99,2.002-1.485,3.542-1.485
		c0.704,0,1.301,0.055,1.793,0.165c0.491,0.11,0.936,0.268,1.331,0.473l-0.506,1.518c-0.338-0.19-0.712-0.341-1.122-0.451
		c-0.411-0.11-0.852-0.165-1.32-0.165c-2.082,0-3.124,1.408-3.124,4.224c0,0.557,0.056,1.088,0.165,1.595
		c0.11,0.506,0.293,0.953,0.551,1.342c0.256,0.389,0.594,0.7,1.012,0.935c0.418,0.235,0.935,0.353,1.551,0.353
		c0.527,0,1.001-0.081,1.419-0.242s0.759-0.345,1.022-0.55L413.053,538.148z"/>
	<path fill="#FFFFFF" d="M418.244,533.924h-1.012v4.951h-1.76v-11h1.76v4.972l0.946-0.308l3.521-4.664h1.914l-3.41,4.422
		l-0.924,0.726l1.144,0.88l3.674,4.973h-2.178L418.244,533.924z"/>
	<path fill="#FFFFFF" d="M425.131,533.375c0-1.862,0.414-3.289,1.242-4.279c0.829-0.99,2.021-1.485,3.576-1.485
		c0.82,0,1.535,0.136,2.145,0.407c0.608,0.271,1.111,0.66,1.507,1.166c0.396,0.506,0.689,1.115,0.88,1.826
		c0.19,0.712,0.286,1.5,0.286,2.365c0,1.863-0.414,3.29-1.243,4.279c-0.828,0.99-2.021,1.485-3.574,1.485
		c-0.822,0-1.537-0.136-2.146-0.407c-0.608-0.271-1.11-0.66-1.507-1.166s-0.689-1.114-0.881-1.825
		C425.227,535.028,425.131,534.24,425.131,533.375z M426.957,533.375c0,0.557,0.055,1.092,0.164,1.606
		c0.111,0.514,0.283,0.961,0.518,1.342c0.234,0.382,0.543,0.689,0.924,0.924c0.381,0.235,0.844,0.353,1.387,0.353
		c1.994,0.015,2.992-1.394,2.992-4.224c0-0.572-0.056-1.114-0.166-1.628c-0.109-0.513-0.282-0.96-0.517-1.342
		c-0.235-0.381-0.543-0.685-0.924-0.913c-0.382-0.228-0.844-0.341-1.386-0.341C427.954,529.136,426.957,530.544,426.957,533.375z"/>
	<path fill="#FFFFFF" d="M444.403,532.362l0.066-1.364h-0.066l-0.901,1.408l-4.95,6.468h-1.012v-11h1.76v6.709l-0.066,1.299h0.088
		l0.858-1.364l4.95-6.644h1.034v11h-1.761V532.362z M440.069,523.431c0.146,0.675,0.399,1.144,0.76,1.408
		c0.358,0.264,0.773,0.396,1.242,0.396c0.47,0,0.888-0.139,1.255-0.418c0.366-0.278,0.615-0.733,0.747-1.364l1.32,0.418
		c-0.132,0.851-0.51,1.503-1.133,1.958c-0.624,0.455-1.368,0.682-2.233,0.682c-0.396,0-0.788-0.051-1.177-0.154
		c-0.389-0.103-0.737-0.256-1.045-0.462c-0.308-0.205-0.572-0.469-0.792-0.792c-0.22-0.322-0.367-0.704-0.44-1.144L440.069,523.431z
		"/>
	<path fill="#FFFFFF" d="M462.927,538.148c-0.44,0.322-0.961,0.568-1.563,0.737c-0.602,0.168-1.231,0.253-1.892,0.253
		c-0.851,0-1.569-0.136-2.156-0.407c-0.587-0.271-1.067-0.66-1.441-1.166c-0.373-0.506-0.646-1.114-0.813-1.825
		c-0.169-0.712-0.253-1.5-0.253-2.366c0-1.862,0.41-3.289,1.231-4.279c0.821-0.99,2.002-1.485,3.542-1.485
		c0.704,0,1.302,0.055,1.793,0.165c0.491,0.11,0.936,0.268,1.331,0.473l-0.506,1.518c-0.337-0.19-0.711-0.341-1.122-0.451
		c-0.41-0.11-0.851-0.165-1.319-0.165c-2.083,0-3.124,1.408-3.124,4.224c0,0.557,0.055,1.088,0.165,1.595
		c0.109,0.506,0.293,0.953,0.55,1.342c0.256,0.389,0.594,0.7,1.012,0.935c0.418,0.235,0.936,0.353,1.551,0.353
		c0.528,0,1.001-0.081,1.419-0.242s0.76-0.345,1.023-0.55L462.927,538.148z"/>
	<path fill="#FFFFFF" d="M469.79,538.963c-0.249,0.088-0.51,0.139-0.78,0.154c-0.271,0.014-0.518,0.021-0.737,0.021
		c-1.335,0-2.361-0.469-3.08-1.408c-0.719-0.938-1.078-2.391-1.078-4.356c0-1.877,0.396-3.292,1.188-4.246
		c0.792-0.953,1.936-1.43,3.432-1.43c0.41,0,0.763,0.029,1.056,0.088v-4.312h1.673v4.334c0.264-0.044,0.498-0.073,0.703-0.088
		c0.206-0.015,0.403-0.022,0.595-0.022c1.452,0,2.544,0.421,3.277,1.265c0.733,0.844,1.101,2.241,1.101,4.191
		c0,0.924-0.1,1.757-0.297,2.497c-0.198,0.741-0.488,1.368-0.869,1.882c-0.382,0.513-0.848,0.908-1.397,1.188
		c-0.55,0.278-1.185,0.418-1.902,0.418c-0.133,0-0.327-0.012-0.583-0.033c-0.257-0.021-0.466-0.063-0.627-0.121v4.29h-1.673V538.963
		z M468.713,537.687c0.176,0,0.352-0.007,0.527-0.022c0.176-0.014,0.366-0.043,0.572-0.088v-8.338
		c-0.176-0.029-0.341-0.051-0.495-0.066c-0.154-0.014-0.341-0.022-0.561-0.022c-0.91,0-1.617,0.341-2.123,1.023
		c-0.506,0.682-0.76,1.749-0.76,3.201c0,0.616,0.056,1.188,0.165,1.715c0.11,0.529,0.282,0.987,0.518,1.375
		c0.234,0.39,0.531,0.69,0.891,0.902C467.807,537.58,468.229,537.687,468.713,537.687z M472.431,529.15
		c-0.176,0-0.334,0.004-0.474,0.011c-0.139,0.007-0.312,0.041-0.517,0.099v8.36c0.146,0.029,0.312,0.047,0.495,0.055
		s0.385,0.011,0.604,0.011c0.938,0,1.646-0.389,2.123-1.166s0.716-1.899,0.716-3.366c0-1.246-0.217-2.225-0.649-2.937
		C474.297,529.506,473.531,529.15,472.431,529.15z"/>
	<path fill="#FFFFFF" d="M487.83,537.994c-0.439,0.353-0.993,0.631-1.66,0.836c-0.668,0.205-1.375,0.309-2.123,0.309
		c-0.837,0-1.563-0.136-2.179-0.407c-0.615-0.271-1.122-0.66-1.518-1.166c-0.396-0.506-0.689-1.11-0.88-1.815
		c-0.191-0.703-0.286-1.496-0.286-2.375c0-1.877,0.418-3.307,1.254-4.29c0.836-0.982,2.031-1.474,3.586-1.474
		c0.498,0,0.997,0.055,1.496,0.165c0.498,0.11,0.946,0.319,1.342,0.627c0.396,0.308,0.719,0.745,0.968,1.309
		c0.25,0.565,0.374,1.309,0.374,2.233c0,0.484-0.044,1.02-0.132,1.606h-7.062c0,0.646,0.065,1.217,0.197,1.716
		c0.133,0.499,0.338,0.921,0.616,1.265c0.278,0.346,0.642,0.609,1.089,0.793c0.447,0.183,0.994,0.274,1.64,0.274
		c0.498,0,0.997-0.088,1.496-0.265c0.498-0.176,0.872-0.381,1.122-0.615L487.83,537.994z M484.047,529.15
		c-0.866,0-1.559,0.228-2.079,0.682c-0.521,0.455-0.833,1.232-0.936,2.332h5.456c0-1.114-0.213-1.896-0.638-2.343
		C485.425,529.375,484.823,529.15,484.047,529.15z"/>
	<path fill="#FFFFFF" d="M490.977,527.875h1.21l0.33,1.32h0.088c0.337-0.513,0.773-0.905,1.309-1.177s1.147-0.407,1.837-0.407
		c1.467,0,2.56,0.433,3.278,1.298s1.078,2.281,1.078,4.246c0,0.924-0.121,1.757-0.363,2.497c-0.242,0.741-0.583,1.368-1.022,1.882
		c-0.44,0.513-0.973,0.908-1.596,1.188c-0.623,0.278-1.316,0.418-2.079,0.418c-0.542,0-0.972-0.033-1.287-0.1
		c-0.315-0.065-0.656-0.18-1.022-0.34v4.575h-1.76V527.875z M495.42,529.15c-0.748,0-1.338,0.195-1.771,0.583
		c-0.433,0.389-0.737,0.979-0.913,1.771v5.457c0.264,0.205,0.564,0.363,0.902,0.473c0.337,0.109,0.784,0.165,1.342,0.165
		c1.012,0,1.814-0.378,2.409-1.134c0.594-0.754,0.891-1.865,0.891-3.333c0-0.601-0.052-1.147-0.154-1.639s-0.268-0.909-0.495-1.254
		s-0.521-0.612-0.88-0.803C496.392,529.246,495.948,529.15,495.42,529.15z"/>
	<path fill="#FFFFFF" d="M504.638,532.077c0.352-0.059,0.689-0.099,1.012-0.121s0.631-0.033,0.924-0.033
		c0.748,0,1.375,0.084,1.882,0.253c0.506,0.169,0.912,0.4,1.221,0.693c0.308,0.293,0.524,0.641,0.648,1.045
		c0.125,0.402,0.188,0.832,0.188,1.287c0,1.334-0.371,2.303-1.111,2.903c-0.74,0.602-1.939,0.901-3.597,0.901
		c-0.938,0-1.914-0.043-2.926-0.131v-11h1.76V532.077z M504.638,537.334c0.542,0.088,1.063,0.133,1.562,0.133
		c0.925,0,1.569-0.18,1.937-0.539c0.366-0.359,0.55-0.869,0.55-1.529c0-0.586-0.18-1.07-0.539-1.452
		c-0.359-0.381-0.986-0.572-1.881-0.572c-0.25,0-0.521,0.007-0.814,0.022c-0.293,0.015-0.564,0.059-0.813,0.132V537.334z
		 M512.25,527.875h1.76v11h-1.76V527.875z"/>
	<path fill="#FFFFFF" d="M526.572,543.715c-0.675-0.704-1.247-1.479-1.716-2.321c-0.47-0.844-0.848-1.709-1.134-2.597
		c-0.285-0.887-0.494-1.781-0.627-2.684c-0.132-0.902-0.197-1.764-0.197-2.585c0-0.806,0.065-1.657,0.197-2.552
		c0.133-0.895,0.345-1.793,0.639-2.695c0.293-0.902,0.678-1.786,1.154-2.651c0.477-0.865,1.06-1.672,1.749-2.42l1.057,0.77
		c-0.587,0.748-1.075,1.522-1.463,2.321c-0.389,0.8-0.701,1.61-0.936,2.431c-0.234,0.822-0.399,1.639-0.495,2.453
		s-0.143,1.595-0.143,2.343c0,0.704,0.055,1.471,0.165,2.3c0.11,0.828,0.286,1.656,0.528,2.485c0.241,0.829,0.557,1.64,0.945,2.431
		c0.389,0.793,0.854,1.511,1.397,2.156L526.572,543.715z"/>
	<path fill="#FFFFFF" d="M538.518,532.34l0.132-2.09h-0.11l-0.792,1.694l-2.662,4.312h-0.615l-2.772-4.312l-0.726-1.694h-0.088
		l0.176,2.068v6.557h-1.628v-11h1.737l3.08,4.928l0.639,1.275h0.044l0.659-1.32l2.883-4.884h1.76v11h-1.716V532.34z"/>
	<path fill="#FFFFFF" d="M546.865,535.002l0.618,2.113h0.11l0.486-2.135l2.142-7.106h1.76l-3.256,9.877
		c-0.249,0.719-0.495,1.416-0.737,2.09c-0.241,0.676-0.51,1.277-0.803,1.805s-0.623,0.949-0.99,1.266
		c-0.366,0.314-0.792,0.473-1.275,0.473c-0.528,0-0.961-0.074-1.298-0.221l0.308-1.518c0.19,0.073,0.374,0.109,0.55,0.109
		c0.411,0,0.807-0.216,1.188-0.648c0.381-0.433,0.696-1.177,0.945-2.232l-4.422-11h2.024L546.865,535.002z"/>
	<path fill="#FFFFFF" d="M554.929,533.969v-1.43h1.54c0.264,0,0.524-0.044,0.781-0.132c0.256-0.088,0.487-0.209,0.692-0.363
		c0.205-0.154,0.37-0.337,0.495-0.55s0.188-0.437,0.188-0.671c0-0.572-0.198-0.976-0.595-1.21c-0.396-0.234-0.989-0.352-1.781-0.352
		c-0.572,0-1.097,0.085-1.573,0.256s-0.847,0.334-1.111,0.491l-0.506-1.342c0.44-0.249,0.957-0.469,1.551-0.66
		c0.595-0.19,1.302-0.286,2.123-0.286c2.435,0,3.652,0.902,3.652,2.706c0,0.514-0.165,1.016-0.495,1.507
		c-0.33,0.492-0.803,0.84-1.419,1.045v0.088c0.865,0.162,1.471,0.47,1.815,0.924c0.344,0.455,0.517,1.057,0.517,1.805
		c0,0.469-0.096,0.901-0.286,1.297c-0.19,0.396-0.477,0.742-0.857,1.035c-0.382,0.293-0.862,0.523-1.441,0.692
		c-0.58,0.169-1.251,0.253-2.013,0.253c-0.748,0-1.368-0.066-1.859-0.197c-0.491-0.133-0.935-0.294-1.331-0.484l0.506-1.452
		c0.338,0.19,0.744,0.337,1.222,0.44c0.476,0.103,0.993,0.154,1.551,0.154c0.895,0,1.576-0.154,2.046-0.463
		c0.469-0.308,0.704-0.777,0.704-1.408c0-0.527-0.221-0.941-0.66-1.242c-0.44-0.301-1.166-0.451-2.178-0.451H554.929z"/>
	<path fill="#FFFFFF" d="M565.335,532.077c0.352-0.059,0.689-0.099,1.012-0.121s0.631-0.033,0.924-0.033
		c0.748,0,1.375,0.084,1.882,0.253c0.506,0.169,0.912,0.4,1.221,0.693c0.308,0.293,0.524,0.641,0.648,1.045
		c0.125,0.402,0.188,0.832,0.188,1.287c0,1.334-0.371,2.303-1.111,2.903c-0.74,0.602-1.939,0.901-3.597,0.901
		c-0.938,0-1.914-0.043-2.926-0.131v-11h1.76V532.077z M565.335,537.334c0.542,0.088,1.063,0.133,1.562,0.133
		c0.925,0,1.569-0.18,1.937-0.539c0.366-0.359,0.55-0.869,0.55-1.529c0-0.586-0.18-1.07-0.539-1.452
		c-0.359-0.381-0.986-0.572-1.881-0.572c-0.25,0-0.521,0.007-0.814,0.022c-0.293,0.015-0.564,0.059-0.813,0.132V537.334z
		 M572.948,527.875h1.76v11h-1.76V527.875z"/>
	<path fill="#FFFFFF" d="M580.866,533.924h-1.012v4.951h-1.76v-11h1.76v4.972l0.946-0.308l3.52-4.664h1.914l-3.41,4.422
		l-0.924,0.726l1.144,0.88l3.675,4.973h-2.179L580.866,533.924z"/>
	<path fill="#FFFFFF" d="M588.434,528.688c0.558-0.337,1.207-0.586,1.947-0.748c0.74-0.161,1.515-0.242,2.321-0.242
		c0.763,0,1.375,0.103,1.837,0.308c0.462,0.206,0.813,0.473,1.056,0.803s0.403,0.693,0.484,1.089
		c0.08,0.396,0.121,0.792,0.121,1.188c0,0.88-0.022,1.738-0.066,2.574c-0.044,0.836-0.065,1.629-0.065,2.377
		c0,0.542,0.021,1.055,0.065,1.539s0.125,0.932,0.242,1.342h-1.298l-0.462-1.539h-0.11c-0.132,0.205-0.297,0.406-0.495,0.604
		c-0.197,0.198-0.437,0.374-0.715,0.528s-0.602,0.282-0.968,0.385c-0.367,0.103-0.785,0.154-1.254,0.154
		c-0.47,0-0.906-0.074-1.31-0.221s-0.751-0.355-1.045-0.627c-0.293-0.271-0.524-0.598-0.692-0.979
		c-0.169-0.381-0.253-0.814-0.253-1.299c0-0.645,0.132-1.184,0.396-1.616s0.635-0.777,1.111-1.034
		c0.477-0.256,1.048-0.44,1.716-0.55c0.667-0.11,1.404-0.165,2.211-0.165c0.205,0,0.407,0,0.605,0c0.197,0,0.399,0.015,0.604,0.044
		c0.044-0.44,0.066-0.836,0.066-1.188c0-0.807-0.162-1.371-0.484-1.694c-0.323-0.323-0.909-0.484-1.76-0.484
		c-0.25,0-0.518,0.019-0.803,0.057c-0.286,0.038-0.58,0.09-0.881,0.158c-0.301,0.068-0.586,0.151-0.857,0.249
		s-0.51,0.207-0.715,0.328L588.434,528.688z M591.558,537.511c0.411,0,0.777-0.056,1.101-0.165c0.322-0.11,0.601-0.25,0.836-0.418
		c0.234-0.168,0.429-0.355,0.583-0.561c0.154-0.206,0.268-0.404,0.341-0.595v-1.826c-0.205-0.015-0.414-0.025-0.627-0.032
		c-0.213-0.008-0.422-0.012-0.627-0.012c-0.455,0-0.898,0.025-1.331,0.077s-0.814,0.147-1.144,0.286
		c-0.33,0.14-0.595,0.33-0.792,0.572c-0.198,0.242-0.298,0.547-0.298,0.912c0,0.514,0.184,0.936,0.551,1.266
		C590.517,537.346,590.987,537.511,591.558,537.511z"/>
	<path fill="#FFFFFF" d="M606.254,534.013h-4.972v4.862h-1.76v-11h1.76v4.598h4.972v-4.598h1.76v11h-1.76V534.013z"/>
	<path fill="#FFFFFF" d="M618.42,529.415h-3.454v9.46h-1.76v-9.46h-3.454v-1.54h8.668V529.415z"/>
	<path fill="#FFFFFF" d="M621.918,532.077c0.352-0.059,0.689-0.099,1.012-0.121s0.631-0.033,0.924-0.033
		c0.748,0,1.375,0.084,1.882,0.253c0.506,0.169,0.912,0.4,1.221,0.693c0.308,0.293,0.524,0.641,0.648,1.045
		c0.125,0.402,0.188,0.832,0.188,1.287c0,1.334-0.371,2.303-1.111,2.903c-0.74,0.602-1.939,0.901-3.597,0.901
		c-0.938,0-1.914-0.043-2.926-0.131v-11h1.76V532.077z M621.918,537.334c0.542,0.088,1.063,0.133,1.562,0.133
		c0.925,0,1.569-0.18,1.937-0.539c0.366-0.359,0.55-0.869,0.55-1.529c0-0.586-0.18-1.07-0.539-1.452
		c-0.359-0.381-0.986-0.572-1.881-0.572c-0.25,0-0.521,0.007-0.814,0.022c-0.293,0.015-0.564,0.059-0.813,0.132V537.334z
		 M629.531,527.875h1.76v11h-1.76V527.875z"/>
	<path fill="#FFFFFF" d="M634.062,537.929c0-0.353,0.117-0.638,0.352-0.858c0.234-0.22,0.535-0.33,0.902-0.33
		c0.454,0,0.825,0.162,1.111,0.484c0.285,0.322,0.429,0.792,0.429,1.408c0,0.527-0.073,0.99-0.22,1.386
		c-0.147,0.396-0.338,0.737-0.572,1.022c-0.234,0.287-0.491,0.521-0.771,0.705c-0.278,0.183-0.558,0.318-0.836,0.406l-0.55-0.857
		c0.528-0.206,0.92-0.525,1.177-0.957c0.257-0.434,0.386-0.869,0.386-1.31c-0.133,0.044-0.257,0.066-0.374,0.066
		c-0.294,0-0.539-0.099-0.737-0.298C634.16,538.6,634.062,538.311,634.062,537.929z"/>
	<path fill="#FFFFFF" d="M150.795,561.414h-3.454v9.461h-1.76v-9.461h-3.454v-1.539h8.668V561.414z"/>
	<path fill="#FFFFFF" d="M152.357,560.688c0.557-0.337,1.206-0.587,1.947-0.748s1.514-0.241,2.321-0.241
		c0.762,0,1.375,0.102,1.837,0.307c0.462,0.206,0.814,0.474,1.056,0.804c0.242,0.33,0.403,0.692,0.484,1.089
		c0.081,0.396,0.121,0.792,0.121,1.188c0,0.881-0.022,1.738-0.066,2.574c-0.044,0.836-0.066,1.629-0.066,2.377
		c0,0.542,0.022,1.055,0.066,1.539c0.044,0.484,0.125,0.932,0.242,1.342h-1.298l-0.462-1.539h-0.11
		c-0.132,0.205-0.297,0.406-0.495,0.604c-0.198,0.198-0.437,0.374-0.715,0.528c-0.279,0.154-0.602,0.282-0.968,0.385
		c-0.367,0.103-0.785,0.154-1.254,0.154c-0.47,0-0.906-0.074-1.309-0.221c-0.404-0.146-0.752-0.355-1.045-0.627
		c-0.294-0.271-0.525-0.598-0.693-0.979s-0.253-0.814-0.253-1.299c0-0.645,0.132-1.184,0.396-1.616
		c0.264-0.433,0.634-0.777,1.111-1.034c0.476-0.256,1.048-0.439,1.716-0.55c0.667-0.11,1.404-0.165,2.211-0.165
		c0.205,0,0.407,0,0.605,0c0.198,0,0.399,0.015,0.605,0.044c0.044-0.44,0.066-0.836,0.066-1.188c0-0.807-0.162-1.371-0.484-1.693
		c-0.323-0.322-0.91-0.484-1.76-0.484c-0.25,0-0.517,0.02-0.803,0.057c-0.286,0.038-0.58,0.091-0.88,0.158
		c-0.301,0.068-0.587,0.151-0.858,0.25c-0.272,0.098-0.51,0.207-0.715,0.327L152.357,560.688z M155.481,569.511
		c0.41,0,0.777-0.056,1.1-0.165c0.322-0.11,0.601-0.25,0.836-0.418c0.234-0.168,0.429-0.355,0.583-0.561
		c0.154-0.206,0.267-0.404,0.341-0.595v-1.826c-0.206-0.015-0.415-0.025-0.627-0.032c-0.213-0.008-0.422-0.012-0.627-0.012
		c-0.455,0-0.898,0.025-1.331,0.077s-0.814,0.147-1.144,0.286c-0.33,0.14-0.594,0.33-0.792,0.572
		c-0.198,0.242-0.297,0.547-0.297,0.912c0,0.514,0.183,0.936,0.55,1.266S154.908,569.511,155.481,569.511z"/>
	<path fill="#FFFFFF" d="M170.176,566.013h-4.972v4.862h-1.76v-11h1.76v4.598h4.972v-4.598h1.76v11h-1.76V566.013z"/>
	<path fill="#FFFFFF" d="M185.202,573.668h-1.188l-0.33-2.793h-8.36v-11h1.76v9.459h4.774v-9.459h1.76v9.459h1.584V573.668z"/>
	<path fill="#FFFFFF" d="M186.764,565.375c0-1.863,0.414-3.289,1.243-4.279s2.021-1.485,3.575-1.485
		c0.821,0,1.536,0.136,2.145,0.407c0.608,0.271,1.111,0.66,1.507,1.166s0.689,1.115,0.88,1.826c0.19,0.711,0.286,1.5,0.286,2.365
		c0,1.862-0.415,3.289-1.243,4.278c-0.829,0.99-2.021,1.485-3.575,1.485c-0.822,0-1.537-0.136-2.145-0.407
		c-0.609-0.271-1.111-0.66-1.507-1.166s-0.69-1.114-0.88-1.825C186.859,567.028,186.764,566.24,186.764,565.375z M188.59,565.375
		c0,0.557,0.055,1.092,0.165,1.605c0.11,0.514,0.282,0.961,0.517,1.342c0.234,0.382,0.542,0.689,0.924,0.924
		c0.381,0.235,0.843,0.353,1.386,0.353c1.995,0.015,2.992-1.394,2.992-4.224c0-0.572-0.055-1.115-0.165-1.629
		c-0.11-0.513-0.283-0.96-0.517-1.342c-0.235-0.381-0.543-0.686-0.924-0.912c-0.382-0.229-0.844-0.342-1.386-0.342
		C189.587,561.137,188.59,562.544,188.59,565.375z"/>
	<path fill="#FFFFFF" d="M199.172,559.875h1.21l0.33,1.319h0.088c0.337-0.513,0.773-0.905,1.309-1.177
		c0.535-0.271,1.147-0.407,1.837-0.407c1.467,0,2.56,0.433,3.278,1.298c0.718,0.865,1.078,2.281,1.078,4.246
		c0,0.924-0.121,1.757-0.363,2.497c-0.242,0.741-0.583,1.368-1.023,1.882c-0.44,0.513-0.972,0.908-1.595,1.188
		c-0.624,0.278-1.316,0.418-2.079,0.418c-0.543,0-0.972-0.033-1.287-0.1c-0.315-0.065-0.657-0.18-1.023-0.34v4.575h-1.76V559.875z
		 M203.616,561.15c-0.748,0-1.339,0.195-1.771,0.583c-0.433,0.389-0.737,0.979-0.913,1.771v5.457
		c0.264,0.205,0.564,0.363,0.902,0.473s0.785,0.165,1.342,0.165c1.012,0,1.815-0.378,2.409-1.134
		c0.594-0.754,0.891-1.865,0.891-3.332c0-0.602-0.052-1.148-0.154-1.639c-0.103-0.492-0.268-0.91-0.495-1.254
		c-0.228-0.346-0.521-0.613-0.88-0.804C204.587,561.246,204.144,561.15,203.616,561.15z"/>
	<path fill="#FFFFFF" d="M212.834,564.076c0.352-0.059,0.689-0.099,1.012-0.121c0.323-0.021,0.631-0.033,0.924-0.033
		c0.748,0,1.375,0.085,1.881,0.254c0.506,0.168,0.913,0.399,1.221,0.693c0.308,0.293,0.524,0.641,0.649,1.045
		c0.125,0.402,0.187,0.832,0.187,1.287c0,1.334-0.371,2.303-1.111,2.903c-0.741,0.602-1.939,0.901-3.597,0.901
		c-0.939,0-1.914-0.043-2.926-0.131v-11h1.76V564.076z M212.834,569.334c0.542,0.088,1.063,0.133,1.562,0.133
		c0.924,0,1.569-0.18,1.936-0.539c0.366-0.359,0.55-0.869,0.55-1.529c0-0.586-0.18-1.07-0.539-1.452
		c-0.359-0.381-0.986-0.571-1.881-0.571c-0.25,0-0.521,0.007-0.814,0.021c-0.293,0.015-0.565,0.059-0.814,0.132V569.334z
		 M220.446,559.875h1.76v11h-1.76V559.875z"/>
	<path fill="#FFFFFF" d="M224.977,569.929c0-0.353,0.117-0.638,0.352-0.858c0.234-0.22,0.535-0.33,0.902-0.33
		c0.455,0,0.825,0.162,1.111,0.484c0.286,0.322,0.429,0.792,0.429,1.408c0,0.527-0.074,0.99-0.22,1.386s-0.337,0.737-0.572,1.022
		c-0.235,0.287-0.492,0.521-0.77,0.705c-0.279,0.183-0.558,0.318-0.836,0.406l-0.55-0.857c0.528-0.206,0.92-0.525,1.177-0.957
		c0.256-0.434,0.385-0.869,0.385-1.31c-0.132,0.044-0.257,0.066-0.374,0.066c-0.293,0-0.539-0.099-0.737-0.298
		C225.076,570.6,224.977,570.311,224.977,569.929z"/>
	<path fill="#FFFFFF" d="M234.525,560.688c0.557-0.337,1.206-0.587,1.947-0.748s1.514-0.241,2.321-0.241
		c0.762,0,1.375,0.102,1.837,0.307c0.462,0.206,0.814,0.474,1.056,0.804c0.242,0.33,0.403,0.692,0.484,1.089
		c0.081,0.396,0.121,0.792,0.121,1.188c0,0.881-0.022,1.738-0.066,2.574c-0.044,0.836-0.066,1.629-0.066,2.377
		c0,0.542,0.022,1.055,0.066,1.539c0.044,0.484,0.125,0.932,0.242,1.342h-1.298l-0.462-1.539h-0.11
		c-0.132,0.205-0.297,0.406-0.495,0.604c-0.198,0.198-0.437,0.374-0.715,0.528c-0.279,0.154-0.602,0.282-0.968,0.385
		c-0.367,0.103-0.785,0.154-1.254,0.154c-0.47,0-0.906-0.074-1.309-0.221c-0.404-0.146-0.752-0.355-1.045-0.627
		c-0.294-0.271-0.525-0.598-0.693-0.979s-0.253-0.814-0.253-1.299c0-0.645,0.132-1.184,0.396-1.616
		c0.264-0.433,0.634-0.777,1.111-1.034c0.476-0.256,1.048-0.439,1.716-0.55c0.667-0.11,1.404-0.165,2.211-0.165
		c0.205,0,0.407,0,0.605,0c0.198,0,0.399,0.015,0.605,0.044c0.044-0.44,0.066-0.836,0.066-1.188c0-0.807-0.162-1.371-0.484-1.693
		c-0.323-0.322-0.91-0.484-1.76-0.484c-0.25,0-0.517,0.02-0.803,0.057c-0.286,0.038-0.58,0.091-0.88,0.158
		c-0.301,0.068-0.587,0.151-0.858,0.25c-0.272,0.098-0.51,0.207-0.715,0.327L234.525,560.688z M237.649,569.511
		c0.41,0,0.777-0.056,1.1-0.165c0.322-0.11,0.601-0.25,0.836-0.418c0.234-0.168,0.429-0.355,0.583-0.561
		c0.154-0.206,0.267-0.404,0.341-0.595v-1.826c-0.206-0.015-0.415-0.025-0.627-0.032c-0.213-0.008-0.422-0.012-0.627-0.012
		c-0.455,0-0.898,0.025-1.331,0.077s-0.814,0.147-1.144,0.286c-0.33,0.14-0.594,0.33-0.792,0.572
		c-0.198,0.242-0.297,0.547-0.297,0.912c0,0.514,0.183,0.936,0.55,1.266S237.077,569.511,237.649,569.511z"/>
	<path fill="#FFFFFF" d="M248.385,565.924h-1.012v4.951h-1.76v-11h1.76v4.972l0.946-0.308l3.52-4.664h1.914l-3.41,4.422
		l-0.924,0.726l1.144,0.88l3.674,4.973h-2.178L248.385,565.924z"/>
	<path fill="#FFFFFF" d="M263.147,561.414h-3.454v9.461h-1.76v-9.461h-3.454v-1.539h8.668V561.414z"/>
	<path fill="#FFFFFF" d="M272.563,569.994c-0.44,0.353-0.994,0.631-1.661,0.836c-0.667,0.205-1.375,0.309-2.123,0.309
		c-0.836,0-1.562-0.136-2.178-0.407c-0.616-0.271-1.122-0.66-1.518-1.166s-0.69-1.11-0.88-1.815
		c-0.19-0.703-0.286-1.496-0.286-2.375c0-1.878,0.418-3.308,1.254-4.291c0.836-0.982,2.031-1.474,3.586-1.474
		c0.499,0,0.997,0.056,1.496,0.165c0.499,0.11,0.946,0.319,1.342,0.627c0.396,0.309,0.719,0.744,0.968,1.309
		c0.249,0.565,0.374,1.31,0.374,2.233c0,0.484-0.044,1.02-0.132,1.606h-7.062c0,0.646,0.066,1.217,0.198,1.716
		s0.337,0.921,0.616,1.265c0.279,0.346,0.642,0.609,1.089,0.793c0.447,0.183,0.993,0.274,1.639,0.274
		c0.499,0,0.998-0.088,1.496-0.265c0.499-0.176,0.873-0.381,1.122-0.615L272.563,569.994z M268.779,561.15
		c-0.866,0-1.559,0.228-2.079,0.682c-0.521,0.455-0.833,1.232-0.935,2.332h5.456c0-1.113-0.212-1.895-0.638-2.343
		C270.157,561.375,269.556,561.15,268.779,561.15z"/>
	<path fill="#FFFFFF" d="M275.709,559.875h1.21l0.33,1.319h0.088c0.337-0.513,0.773-0.905,1.309-1.177
		c0.535-0.271,1.147-0.407,1.837-0.407c1.467,0,2.56,0.433,3.278,1.298c0.718,0.865,1.078,2.281,1.078,4.246
		c0,0.924-0.121,1.757-0.363,2.497c-0.242,0.741-0.583,1.368-1.023,1.882c-0.44,0.513-0.972,0.908-1.595,1.188
		c-0.624,0.278-1.316,0.418-2.079,0.418c-0.543,0-0.972-0.033-1.287-0.1c-0.315-0.065-0.657-0.18-1.023-0.34v4.575h-1.76V559.875z
		 M280.153,561.15c-0.748,0-1.339,0.195-1.771,0.583c-0.433,0.389-0.737,0.979-0.913,1.771v5.457
		c0.264,0.205,0.564,0.363,0.902,0.473s0.785,0.165,1.342,0.165c1.012,0,1.815-0.378,2.409-1.134
		c0.594-0.754,0.891-1.865,0.891-3.332c0-0.602-0.052-1.148-0.154-1.639c-0.103-0.492-0.268-0.91-0.495-1.254
		c-0.228-0.346-0.521-0.613-0.88-0.804C281.124,561.246,280.681,561.15,280.153,561.15z"/>
	<path fill="#FFFFFF" d="M289.371,564.076c0.352-0.059,0.689-0.099,1.012-0.121c0.323-0.021,0.631-0.033,0.924-0.033
		c0.748,0,1.375,0.085,1.881,0.254c0.506,0.168,0.913,0.399,1.221,0.693c0.308,0.293,0.524,0.641,0.649,1.045
		c0.125,0.402,0.187,0.832,0.187,1.287c0,1.334-0.371,2.303-1.111,2.903c-0.741,0.602-1.939,0.901-3.597,0.901
		c-0.939,0-1.914-0.043-2.926-0.131v-11h1.76V564.076z M289.371,569.334c0.542,0.088,1.063,0.133,1.562,0.133
		c0.924,0,1.569-0.18,1.936-0.539c0.366-0.359,0.55-0.869,0.55-1.529c0-0.586-0.18-1.07-0.539-1.452
		c-0.359-0.381-0.986-0.571-1.881-0.571c-0.25,0-0.521,0.007-0.814,0.021c-0.293,0.015-0.565,0.059-0.814,0.132V569.334z
		 M296.983,559.875h1.76v11h-1.76V559.875z"/>
	<path fill="#FFFFFF" d="M301.514,569.929c0-0.353,0.117-0.638,0.352-0.858c0.234-0.22,0.535-0.33,0.902-0.33
		c0.455,0,0.825,0.162,1.111,0.484c0.286,0.322,0.429,0.792,0.429,1.408c0,0.527-0.074,0.99-0.22,1.386s-0.337,0.737-0.572,1.022
		c-0.235,0.287-0.492,0.521-0.77,0.705c-0.279,0.183-0.558,0.318-0.836,0.406l-0.55-0.857c0.528-0.206,0.92-0.525,1.177-0.957
		c0.256-0.434,0.385-0.869,0.385-1.31c-0.132,0.044-0.257,0.066-0.374,0.066c-0.293,0-0.539-0.099-0.737-0.298
		C301.613,570.6,301.514,570.311,301.514,569.929z"/>
	<path fill="#FFFFFF" d="M314.12,565.242l-3.696-5.367h2.156l2.09,3.035l0.616,1.254l0.638-1.254l2.134-3.035h1.98l-3.718,5.279
		l3.938,5.721h-2.09l-2.332-3.345l-0.66-1.319l-0.682,1.319l-2.376,3.345h-1.958L314.12,565.242z"/>
	<path fill="#FFFFFF" d="M325.57,567.002l0.619,2.113h0.11l0.485-2.135l2.142-7.105h1.76l-3.256,9.877
		c-0.25,0.719-0.495,1.416-0.737,2.09c-0.242,0.676-0.51,1.277-0.803,1.805s-0.624,0.949-0.99,1.266
		c-0.367,0.314-0.792,0.473-1.276,0.473c-0.528,0-0.961-0.074-1.298-0.221l0.308-1.518c0.19,0.073,0.374,0.109,0.55,0.109
		c0.411,0,0.807-0.216,1.188-0.648c0.381-0.433,0.696-1.177,0.946-2.232l-4.422-11h2.024L325.57,567.002z"/>
	<path fill="#FFFFFF" d="M341.994,573.668h-1.188l-0.33-2.793h-8.272l-0.33,2.793h-1.188v-4.334h1.298
		c0.117-0.16,0.271-0.451,0.462-0.869c0.19-0.418,0.377-1.004,0.561-1.76c0.183-0.755,0.344-1.693,0.484-2.815
		c0.139-1.122,0.224-2.46,0.253-4.015h6.644v9.459h1.606V573.668z M338.628,569.334v-7.92h-3.3
		c-0.029,0.616-0.081,1.287-0.154,2.014c-0.074,0.726-0.173,1.451-0.297,2.178s-0.282,1.412-0.473,2.057
		c-0.191,0.646-0.411,1.203-0.66,1.672H338.628z"/>
	<path fill="#FFFFFF" d="M343.556,565.375c0-1.863,0.414-3.289,1.243-4.279s2.021-1.485,3.575-1.485
		c0.821,0,1.536,0.136,2.145,0.407c0.608,0.271,1.111,0.66,1.507,1.166s0.689,1.115,0.88,1.826c0.19,0.711,0.286,1.5,0.286,2.365
		c0,1.862-0.415,3.289-1.243,4.278c-0.829,0.99-2.021,1.485-3.575,1.485c-0.822,0-1.537-0.136-2.145-0.407
		c-0.609-0.271-1.111-0.66-1.507-1.166s-0.69-1.114-0.88-1.825C343.652,567.028,343.556,566.24,343.556,565.375z M345.382,565.375
		c0,0.557,0.055,1.092,0.165,1.605c0.11,0.514,0.282,0.961,0.517,1.342c0.234,0.382,0.542,0.689,0.924,0.924
		c0.381,0.235,0.843,0.353,1.386,0.353c1.995,0.015,2.992-1.394,2.992-4.224c0-0.572-0.055-1.115-0.165-1.629
		c-0.11-0.513-0.283-0.96-0.517-1.342c-0.235-0.381-0.543-0.686-0.924-0.912c-0.382-0.229-0.844-0.342-1.386-0.342
		C346.38,561.137,345.382,562.544,345.382,565.375z"/>
	<path fill="#FFFFFF" d="M359.418,566.013l-3.234,4.862h-2.024l3.476-5.039l0.748-0.66l-1.122-0.836l-2.86-4.465h1.87l3.036,4.752
		h1.144v-4.752h1.716v4.972l1.034-0.308l3.058-4.664h1.848l-2.992,4.465l-0.858,0.705l1.122,0.879l3.256,4.951h-2.09l-3.234-4.951
		h-1.144v4.951h-1.716v-5.17L359.418,566.013z"/>
	<path fill="#FFFFFF" d="M377.062,566.013h-4.972v4.862h-1.76v-11h1.76v4.598h4.972v-4.598h1.76v11h-1.76V566.013z"/>
	<path fill="#FFFFFF" d="M389.073,564.362l0.066-1.364h-0.066l-0.902,1.408l-4.949,6.469h-1.012v-11h1.76v6.709l-0.066,1.299h0.088
		l0.858-1.364l4.95-6.644h1.033v11h-1.76V564.362z"/>
	<path fill="#FFFFFF" d="M396.993,565.924h-1.012v4.951h-1.76v-11h1.76v4.972l0.945-0.308l3.521-4.664h1.914l-3.41,4.422
		l-0.924,0.726l1.145,0.88l3.674,4.973h-2.178L396.993,565.924z"/>
	<path fill="#FFFFFF" d="M411.602,564.362l0.066-1.364h-0.066l-0.902,1.408l-4.949,6.469h-1.013v-11h1.761v6.709l-0.066,1.299h0.088
		l0.857-1.364l4.951-6.644h1.033v11h-1.76V564.362z"/>
	<path fill="#FFFFFF" d="M416.221,555.211c0.675,0.703,1.247,1.478,1.717,2.32c0.469,0.844,0.847,1.709,1.133,2.596
		c0.285,0.889,0.494,1.783,0.627,2.685c0.132,0.901,0.197,1.764,0.197,2.585c0,0.807-0.065,1.658-0.197,2.553
		c-0.133,0.895-0.345,1.793-0.639,2.694c-0.293,0.901-0.678,1.785-1.154,2.651c-0.477,0.865-1.061,1.672-1.749,2.42l-1.056-0.771
		c0.586-0.748,1.078-1.525,1.474-2.332s0.708-1.62,0.935-2.442c0.228-0.82,0.389-1.635,0.484-2.441s0.143-1.584,0.143-2.332
		c0-0.704-0.059-1.467-0.176-2.288s-0.297-1.649-0.539-2.485s-0.554-1.65-0.935-2.442c-0.382-0.792-0.844-1.511-1.386-2.156
		L416.221,555.211z"/>
</g>
</svg>
