<?xml version="1.0" encoding="utf-8"?>
<!-- Generator: Adobe Illustrator 16.0.0, SVG Export Plug-In . SVG Version: 6.00 Build 0)  -->
<!DOCTYPE svg PUBLIC "-//W3C//DTD SVG 1.1//EN" "http://www.w3.org/Graphics/SVG/1.1/DTD/svg11.dtd">
<svg version="1.1" id="Layer_1" xmlns="http://www.w3.org/2000/svg" xmlns:xlink="http://www.w3.org/1999/xlink" x="0px" y="0px"
	 width="825px" height="112px" viewBox="0 0 825 112" enable-background="new 0 0 825 112" xml:space="preserve">
<rect y="35" fill="#E50647" width="698" height="44"/>
<rect fill="#E50647" width="825" height="43"/>
<rect y="65" fill="#E50647" width="510.709" height="47"/>
<path fill="#F2F2F2" d="M93.771,13.968h8.001v1.554h-6.258v4.81h5.733v1.554h-5.733v5.229h6.363v1.555h-8.106V13.968z"/>
<path fill="#F2F2F2" d="M108.709,24.027l-3.087,4.641h-1.932l3.318-4.809l0.714-0.631l-1.071-0.797l-2.73-4.264h1.785l2.898,4.536
	h1.092v-4.536h1.638v4.746l0.987-0.294l2.919-4.452h1.764l-2.856,4.264l-0.819,0.672l1.071,0.84l3.108,4.725h-1.995l-3.087-4.725
	h-1.092v4.725h-1.638v-4.936L108.709,24.027z"/>
<path fill="#F2F2F2" d="M126.593,27.828c-0.42,0.336-0.949,0.602-1.586,0.798c-0.637,0.196-1.313,0.294-2.026,0.294
	c-0.798,0-1.491-0.129-2.079-0.389c-0.588-0.259-1.071-0.63-1.449-1.113c-0.378-0.482-0.658-1.061-0.84-1.732
	c-0.182-0.672-0.273-1.428-0.273-2.268c0-1.792,0.399-3.156,1.197-4.096c0.798-0.938,1.939-1.406,3.423-1.406
	c0.476,0,0.952,0.053,1.428,0.157c0.476,0.105,0.903,0.305,1.281,0.599s0.686,0.711,0.924,1.25c0.238,0.539,0.357,1.249,0.357,2.131
	c0,0.463-0.042,0.974-0.126,1.533h-6.741c0,0.616,0.063,1.162,0.189,1.639c0.126,0.476,0.322,0.878,0.588,1.207
	c0.266,0.329,0.612,0.581,1.04,0.756c0.427,0.176,0.948,0.263,1.564,0.263c0.476,0,0.952-0.084,1.428-0.253
	c0.476-0.168,0.833-0.363,1.071-0.588L126.593,27.828z M122.981,19.386c-0.826,0-1.488,0.218-1.984,0.651
	c-0.497,0.434-0.795,1.176-0.893,2.227h5.208c0-1.064-0.203-1.811-0.609-2.237C124.297,19.6,123.723,19.386,122.981,19.386z"/>
<path fill="#F2F2F2" d="M138.21,22.432l0.126-1.996h-0.105l-0.756,1.617l-2.541,4.116h-0.588l-2.646-4.116l-0.693-1.617h-0.084
	l0.168,1.975v6.258h-1.554v-10.5h1.659l2.94,4.704l0.609,1.218h0.042l0.63-1.26l2.751-4.662h1.68v10.5h-1.638V22.432L138.21,22.432z
	"/>
<path fill="#F2F2F2" d="M150.748,27.828c-0.42,0.336-0.949,0.602-1.586,0.798c-0.637,0.196-1.313,0.294-2.026,0.294
	c-0.798,0-1.491-0.129-2.079-0.389c-0.588-0.259-1.071-0.63-1.449-1.113c-0.378-0.482-0.658-1.061-0.84-1.732
	c-0.182-0.672-0.273-1.428-0.273-2.268c0-1.792,0.399-3.156,1.197-4.096c0.798-0.938,1.939-1.406,3.423-1.406
	c0.476,0,0.952,0.053,1.428,0.157c0.476,0.105,0.903,0.305,1.281,0.599c0.378,0.294,0.686,0.711,0.924,1.25s0.357,1.249,0.357,2.131
	c0,0.463-0.042,0.974-0.126,1.533h-6.741c0,0.616,0.063,1.162,0.189,1.639c0.126,0.476,0.322,0.878,0.588,1.207
	c0.266,0.329,0.612,0.581,1.04,0.756c0.427,0.176,0.948,0.263,1.564,0.263c0.476,0,0.952-0.084,1.428-0.253
	c0.476-0.168,0.833-0.363,1.071-0.588L150.748,27.828z M147.135,19.386c-0.826,0-1.488,0.218-1.984,0.651
	c-0.497,0.434-0.795,1.176-0.893,2.227h5.208c0-1.064-0.203-1.811-0.609-2.237C148.451,19.6,147.877,19.386,147.135,19.386z"/>
<path fill="#F2F2F2" d="M160.986,27.975c-0.42,0.309-0.917,0.543-1.491,0.704c-0.574,0.161-1.176,0.241-1.806,0.241
	c-0.812,0-1.498-0.129-2.058-0.389c-0.56-0.259-1.019-0.63-1.375-1.113c-0.357-0.482-0.616-1.063-0.777-1.742
	c-0.161-0.68-0.242-1.432-0.242-2.258c0-1.777,0.392-3.14,1.176-4.084c0.784-0.945,1.911-1.418,3.381-1.418
	c0.672,0,1.242,0.053,1.711,0.157c0.469,0.105,0.893,0.256,1.271,0.452l-0.483,1.449c-0.322-0.183-0.679-0.326-1.071-0.432
	c-0.392-0.104-0.813-0.157-1.26-0.157c-1.988,0-2.982,1.345-2.982,4.032c0,0.532,0.053,1.039,0.158,1.522s0.28,0.91,0.525,1.281
	c0.245,0.371,0.567,0.669,0.966,0.892c0.399,0.225,0.893,0.337,1.48,0.337c0.504,0,0.956-0.077,1.354-0.23
	c0.398-0.154,0.725-0.328,0.977-0.525L160.986,27.975z"/>
<path fill="#F2F2F2" d="M168.964,24.32l-1.617,0.252l-2.772,4.096h-2.037l2.52-3.591l0.84-0.777
	c-0.728-0.112-1.347-0.405-1.858-0.882c-0.511-0.476-0.767-1.12-0.767-1.932c0-0.631,0.108-1.169,0.326-1.617
	c0.217-0.448,0.528-0.819,0.935-1.113c0.406-0.294,0.889-0.508,1.449-0.641c0.56-0.133,1.19-0.199,1.89-0.199
	c0.518,0,1.001,0.035,1.449,0.105c0.448,0.07,0.889,0.146,1.323,0.23v10.416h-1.68L168.964,24.32L168.964,24.32z M168.964,19.596
	c-0.182-0.07-0.385-0.122-0.609-0.157c-0.224-0.034-0.42-0.053-0.588-0.053c-0.896,0-1.579,0.161-2.047,0.483
	c-0.469,0.322-0.704,0.833-0.704,1.533c0,0.629,0.249,1.116,0.746,1.459c0.497,0.344,1.151,0.515,1.963,0.515
	c0.014,0,0.035,0,0.063,0s0.084,0,0.168,0s0.203-0.003,0.357-0.011c0.154-0.007,0.371-0.018,0.651-0.031V19.596L168.964,19.596z"/>
<path fill="#F2F2F2" d="M174.793,18.168v2.855c0,0.379,0.021,0.719,0.063,1.02c0.042,0.301,0.126,0.56,0.252,0.776
	c0.126,0.218,0.308,0.386,0.546,0.504c0.238,0.119,0.553,0.179,0.945,0.179c0.63,0,1.147-0.07,1.554-0.21
	c0.407-0.14,0.714-0.294,0.924-0.462v-4.662h1.68v10.5h-1.68v-4.41c-0.224,0.141-0.557,0.294-0.998,0.462
	c-0.441,0.169-1.047,0.253-1.816,0.253c-0.518,0-0.974-0.057-1.365-0.168c-0.392-0.113-0.721-0.309-0.987-0.589
	c-0.266-0.28-0.466-0.651-0.599-1.112c-0.133-0.463-0.2-1.043-0.2-1.744v-3.191L174.793,18.168L174.793,18.168z"/>
<path fill="#F2F2F2" d="M190.333,24.027h-4.746v4.641h-1.68v-10.5h1.68v4.389h4.746v-4.389h1.68v10.5h-1.68V24.027z"/>
<path fill="#F2F2F2" d="M196.843,22.18c0.336-0.057,0.658-0.096,0.966-0.116c0.308-0.021,0.602-0.032,0.882-0.032
	c0.714,0,1.313,0.082,1.795,0.242c0.483,0.161,0.872,0.382,1.166,0.662c0.294,0.279,0.5,0.611,0.62,0.997
	c0.119,0.386,0.178,0.794,0.178,1.229c0,1.274-0.354,2.198-1.061,2.772c-0.707,0.574-1.852,0.86-3.433,0.86
	c-0.896,0-1.827-0.042-2.793-0.126v-10.5h1.68V22.18L196.843,22.18z M196.843,27.197c0.518,0.084,1.015,0.127,1.491,0.127
	c0.882,0,1.498-0.172,1.848-0.515c0.35-0.343,0.525-0.829,0.525-1.46c0-0.56-0.172-1.021-0.515-1.386
	c-0.343-0.364-0.942-0.546-1.795-0.546c-0.238,0-0.497,0.008-0.777,0.021c-0.28,0.014-0.54,0.056-0.777,0.125V27.197L196.843,27.197
	z M204.109,18.168h1.68v10.5h-1.68V18.168z"/>
<path fill="#F2F2F2" d="M215.481,22.452l0.063-1.302h-0.063l-0.861,1.344l-4.725,6.174h-0.966v-10.5h1.68v6.404l-0.063,1.24h0.084
	l0.819-1.303l4.725-6.342h0.987v10.5h-1.68V22.452z M211.344,13.926c0.14,0.645,0.381,1.092,0.724,1.344
	c0.343,0.252,0.738,0.379,1.187,0.379c0.449,0,0.847-0.133,1.197-0.399c0.35-0.266,0.588-0.7,0.714-1.302l1.26,0.398
	c-0.126,0.813-0.486,1.436-1.081,1.869c-0.595,0.434-1.306,0.651-2.132,0.651c-0.378,0-0.752-0.05-1.124-0.146
	c-0.372-0.097-0.703-0.244-0.998-0.441c-0.294-0.195-0.546-0.447-0.756-0.756c-0.21-0.307-0.35-0.672-0.42-1.092L211.344,13.926z"/>
<path fill="#F2F2F2" d="M234.675,22.432l0.126-1.996h-0.105l-0.756,1.617l-2.541,4.116h-0.588l-2.646-4.116l-0.693-1.617h-0.084
	l0.168,1.975v6.258h-1.554v-10.5h1.659l2.94,4.704l0.609,1.218h0.042l0.63-1.26l2.751-4.662h1.68v10.5h-1.638V22.432L234.675,22.432
	z"/>
<path fill="#F2F2F2" d="M239.305,18.945c0.532-0.322,1.151-0.561,1.858-0.715c0.707-0.153,1.445-0.23,2.215-0.23
	c0.728,0,1.313,0.098,1.753,0.294s0.777,0.452,1.008,0.767s0.385,0.662,0.462,1.039c0.077,0.379,0.115,0.756,0.115,1.135
	c0,0.84-0.021,1.658-0.063,2.457c-0.042,0.797-0.063,1.554-0.063,2.268c0,0.518,0.021,1.008,0.063,1.471
	c0.042,0.461,0.119,0.889,0.231,1.28h-1.239l-0.441-1.47h-0.105c-0.126,0.195-0.284,0.389-0.473,0.577s-0.417,0.356-0.683,0.504
	c-0.266,0.148-0.574,0.271-0.924,0.368c-0.35,0.098-0.749,0.146-1.197,0.146c-0.448,0-0.865-0.07-1.25-0.21
	c-0.385-0.14-0.718-0.339-0.998-0.599c-0.28-0.259-0.501-0.57-0.662-0.935c-0.161-0.364-0.242-0.776-0.242-1.239
	c0-0.615,0.126-1.13,0.378-1.543s0.605-0.742,1.061-0.987c0.456-0.245,1.001-0.42,1.638-0.524c0.637-0.105,1.34-0.158,2.11-0.158
	c0.196,0,0.389,0,0.578,0s0.381,0.015,0.578,0.043c0.042-0.42,0.063-0.799,0.063-1.135c0-0.77-0.154-1.309-0.462-1.617
	c-0.308-0.308-0.869-0.462-1.68-0.462c-0.238,0-0.494,0.019-0.767,0.054c-0.273,0.037-0.553,0.087-0.84,0.152
	c-0.287,0.063-0.56,0.144-0.819,0.237c-0.259,0.093-0.487,0.198-0.683,0.313L239.305,18.945z M242.287,27.366
	c0.392,0,0.742-0.053,1.05-0.157c0.308-0.105,0.574-0.238,0.798-0.399c0.224-0.161,0.41-0.339,0.557-0.536
	c0.147-0.195,0.255-0.385,0.326-0.566v-1.743c-0.196-0.014-0.396-0.024-0.599-0.031s-0.403-0.011-0.599-0.011
	c-0.434,0-0.857,0.025-1.271,0.074c-0.414,0.049-0.777,0.14-1.092,0.272c-0.315,0.134-0.567,0.315-0.756,0.546
	s-0.284,0.521-0.284,0.871c0,0.49,0.175,0.893,0.525,1.208S241.741,27.366,242.287,27.366z"/>
<path fill="#F2F2F2" d="M256.986,27.975c-0.42,0.309-0.917,0.543-1.491,0.704c-0.574,0.161-1.176,0.241-1.806,0.241
	c-0.812,0-1.498-0.129-2.058-0.389c-0.56-0.259-1.019-0.63-1.375-1.113c-0.357-0.482-0.616-1.063-0.777-1.742
	c-0.161-0.68-0.242-1.432-0.242-2.258c0-1.777,0.392-3.14,1.176-4.084c0.784-0.945,1.911-1.418,3.381-1.418
	c0.672,0,1.242,0.053,1.711,0.157c0.469,0.105,0.893,0.256,1.271,0.452l-0.483,1.449c-0.322-0.183-0.679-0.326-1.071-0.432
	c-0.392-0.104-0.813-0.157-1.26-0.157c-1.988,0-2.982,1.345-2.982,4.032c0,0.532,0.053,1.039,0.158,1.522s0.28,0.91,0.525,1.281
	c0.245,0.371,0.567,0.669,0.966,0.892c0.399,0.225,0.893,0.337,1.48,0.337c0.504,0,0.956-0.077,1.354-0.23
	c0.398-0.154,0.725-0.328,0.977-0.525L256.986,27.975z"/>
<path fill="#F2F2F2" d="M266.646,19.639h-3.297v9.029h-1.68v-9.029h-3.297v-1.471h8.274V19.639z"/>
<path fill="#F2F2F2" d="M276.208,27.828c-0.42,0.336-0.949,0.602-1.586,0.798c-0.637,0.196-1.313,0.294-2.026,0.294
	c-0.798,0-1.491-0.129-2.079-0.389c-0.588-0.259-1.071-0.63-1.449-1.113c-0.378-0.482-0.658-1.061-0.84-1.732
	c-0.182-0.672-0.273-1.428-0.273-2.268c0-1.792,0.399-3.156,1.197-4.096c0.798-0.938,1.939-1.406,3.423-1.406
	c0.476,0,0.952,0.053,1.428,0.157c0.476,0.105,0.903,0.305,1.281,0.599s0.686,0.711,0.924,1.25s0.357,1.249,0.357,2.131
	c0,0.463-0.042,0.974-0.126,1.533h-6.741c0,0.616,0.063,1.162,0.189,1.639c0.126,0.476,0.322,0.878,0.588,1.207
	s0.612,0.581,1.04,0.756c0.427,0.176,0.948,0.263,1.564,0.263c0.476,0,0.952-0.084,1.428-0.253c0.476-0.168,0.833-0.363,1.071-0.588
	L276.208,27.828z M272.595,19.386c-0.826,0-1.488,0.218-1.984,0.651c-0.497,0.434-0.795,1.176-0.893,2.227h5.208
	c0-1.064-0.203-1.811-0.609-2.237C273.911,19.6,273.337,19.386,272.595,19.386z"/>
<path fill="#F2F2F2" d="M279.152,18.168h1.155l0.315,1.26h0.084c0.322-0.49,0.738-0.864,1.25-1.123
	c0.511-0.26,1.095-0.389,1.753-0.389c1.4,0,2.443,0.413,3.129,1.238c0.686,0.826,1.029,2.178,1.029,4.054
	c0,0.882-0.116,1.677-0.347,2.384c-0.231,0.707-0.556,1.305-0.977,1.795c-0.42,0.49-0.927,0.869-1.522,1.135
	s-1.256,0.398-1.984,0.398c-0.518,0-0.928-0.031-1.229-0.094c-0.301-0.063-0.626-0.172-0.977-0.326v4.368h-1.68L279.152,18.168
	L279.152,18.168z M283.394,19.386c-0.714,0-1.278,0.187-1.69,0.557c-0.413,0.371-0.704,0.935-0.872,1.69v5.208
	c0.252,0.196,0.539,0.347,0.861,0.452c0.322,0.104,0.749,0.157,1.281,0.157c0.966,0,1.732-0.36,2.299-1.081
	c0.567-0.722,0.851-1.782,0.851-3.182c0-0.574-0.049-1.096-0.147-1.564c-0.098-0.469-0.255-0.869-0.472-1.197
	c-0.217-0.329-0.498-0.584-0.84-0.767C284.321,19.477,283.897,19.386,283.394,19.386z"/>
<path fill="#F2F2F2" d="M290.134,21.843h5.082v1.554h-5.082V21.843z"/>
<path fill="#F2F2F2" d="M300.47,23.943h-0.966v4.725h-1.68v-10.5h1.68v4.746l0.903-0.294l3.359-4.452h1.827l-3.255,4.221
	l-0.882,0.693l1.092,0.84l3.507,4.746h-2.079L300.47,23.943z"/>
<path fill="#F2F2F2" d="M314.589,19.639h-3.045c-0.042,0.588-0.084,1.221-0.126,1.9s-0.105,1.357-0.189,2.037
	c-0.084,0.679-0.195,1.33-0.336,1.952c-0.14,0.623-0.317,1.173-0.534,1.648c-0.218,0.477-0.483,0.858-0.799,1.145
	c-0.314,0.287-0.688,0.431-1.124,0.431c-0.266,0-0.497-0.014-0.692-0.042c-0.196-0.028-0.371-0.077-0.525-0.147l0.252-1.406
	c0.168,0.056,0.351,0.084,0.546,0.084c0.28,0,0.532-0.119,0.757-0.357c0.224-0.238,0.42-0.689,0.588-1.354s0.308-1.585,0.42-2.761
	c0.111-1.177,0.188-2.709,0.23-4.6h6.258v10.5h-1.68V19.639L314.589,19.639z"/>
<path fill="#F2F2F2" d="M319.272,18.945c0.531-0.322,1.15-0.561,1.857-0.715c0.707-0.153,1.445-0.23,2.215-0.23
	c0.729,0,1.313,0.098,1.753,0.294c0.44,0.196,0.777,0.452,1.009,0.767c0.23,0.315,0.385,0.662,0.462,1.039
	c0.076,0.379,0.114,0.756,0.114,1.135c0,0.84-0.021,1.658-0.063,2.457c-0.042,0.797-0.063,1.554-0.063,2.268
	c0,0.518,0.021,1.008,0.063,1.471c0.042,0.461,0.119,0.889,0.23,1.28h-1.238l-0.441-1.47h-0.104
	c-0.126,0.195-0.284,0.389-0.474,0.577c-0.188,0.188-0.417,0.356-0.683,0.504c-0.267,0.148-0.574,0.271-0.924,0.368
	c-0.351,0.098-0.749,0.146-1.197,0.146s-0.865-0.07-1.25-0.21s-0.718-0.339-0.998-0.599c-0.28-0.259-0.501-0.57-0.662-0.935
	c-0.161-0.364-0.242-0.776-0.242-1.239c0-0.615,0.126-1.13,0.378-1.543s0.605-0.742,1.062-0.987c0.456-0.245,1.001-0.42,1.638-0.524
	c0.637-0.105,1.34-0.158,2.11-0.158c0.195,0,0.389,0,0.578,0c0.188,0,0.381,0.015,0.577,0.043c0.042-0.42,0.063-0.799,0.063-1.135
	c0-0.77-0.154-1.309-0.462-1.617c-0.309-0.308-0.869-0.462-1.68-0.462c-0.238,0-0.494,0.019-0.768,0.054
	c-0.272,0.037-0.553,0.087-0.84,0.152c-0.287,0.063-0.56,0.144-0.819,0.237c-0.259,0.093-0.486,0.198-0.683,0.313L319.272,18.945z
	 M322.254,27.366c0.392,0,0.742-0.053,1.05-0.157c0.309-0.105,0.574-0.238,0.798-0.399c0.225-0.161,0.41-0.339,0.558-0.536
	c0.146-0.195,0.255-0.385,0.326-0.566v-1.743c-0.196-0.014-0.396-0.024-0.6-0.031s-0.402-0.011-0.599-0.011
	c-0.435,0-0.857,0.025-1.271,0.074c-0.414,0.049-0.776,0.14-1.092,0.272c-0.314,0.134-0.566,0.315-0.756,0.546
	s-0.284,0.521-0.284,0.871c0,0.49,0.175,0.893,0.525,1.208C321.259,27.209,321.708,27.366,322.254,27.366z"/>
<path fill="#F2F2F2" d="M336.953,27.975c-0.42,0.309-0.917,0.543-1.491,0.704c-0.574,0.161-1.176,0.241-1.806,0.241
	c-0.813,0-1.498-0.129-2.059-0.389c-0.56-0.259-1.019-0.63-1.375-1.113c-0.356-0.482-0.615-1.063-0.776-1.742
	c-0.161-0.68-0.242-1.432-0.242-2.258c0-1.777,0.392-3.14,1.176-4.084c0.784-0.945,1.911-1.418,3.381-1.418
	c0.672,0,1.242,0.053,1.711,0.157c0.47,0.105,0.894,0.256,1.271,0.452l-0.483,1.449c-0.321-0.183-0.679-0.326-1.071-0.432
	c-0.392-0.104-0.813-0.157-1.26-0.157c-1.987,0-2.981,1.345-2.981,4.032c0,0.532,0.053,1.039,0.157,1.522
	c0.105,0.483,0.28,0.91,0.525,1.281c0.245,0.371,0.567,0.669,0.966,0.892c0.399,0.225,0.894,0.337,1.48,0.337
	c0.504,0,0.956-0.077,1.354-0.23c0.398-0.154,0.726-0.328,0.978-0.525L336.953,27.975z"/>
<path fill="#F2F2F2" d="M346.19,27.975c-0.421,0.309-0.917,0.543-1.491,0.704c-0.574,0.161-1.176,0.241-1.807,0.241
	c-0.812,0-1.497-0.129-2.058-0.389c-0.56-0.259-1.019-0.63-1.375-1.113c-0.357-0.482-0.616-1.063-0.777-1.742
	c-0.16-0.68-0.241-1.432-0.241-2.258c0-1.777,0.392-3.14,1.176-4.084c0.784-0.945,1.911-1.418,3.381-1.418
	c0.672,0,1.242,0.053,1.711,0.157c0.469,0.105,0.893,0.256,1.271,0.452l-0.482,1.449c-0.322-0.183-0.679-0.326-1.071-0.432
	c-0.392-0.104-0.813-0.157-1.26-0.157c-1.988,0-2.982,1.345-2.982,4.032c0,0.532,0.054,1.039,0.158,1.522
	c0.105,0.483,0.28,0.91,0.525,1.281c0.245,0.371,0.566,0.669,0.966,0.892c0.398,0.225,0.893,0.337,1.479,0.337
	c0.505,0,0.956-0.077,1.354-0.23c0.398-0.154,0.725-0.328,0.977-0.525L346.19,27.975z"/>
<path fill="#F2F2F2" d="M353.519,23.418c0-1.777,0.396-3.14,1.188-4.084c0.791-0.945,1.929-1.418,3.413-1.418
	c0.784,0,1.466,0.129,2.047,0.389c0.581,0.259,1.061,0.63,1.438,1.113c0.378,0.482,0.657,1.063,0.84,1.742
	c0.182,0.68,0.272,1.432,0.272,2.258c0,1.778-0.396,3.14-1.187,4.084c-0.791,0.945-1.93,1.418-3.413,1.418
	c-0.784,0-1.467-0.129-2.047-0.389c-0.581-0.259-1.062-0.63-1.438-1.113c-0.378-0.482-0.658-1.063-0.84-1.742
	C353.61,24.996,353.519,24.244,353.519,23.418z M355.262,23.418c0,0.532,0.054,1.043,0.158,1.533c0.105,0.49,0.27,0.917,0.493,1.281
	c0.224,0.363,0.518,0.658,0.882,0.881c0.364,0.225,0.805,0.337,1.323,0.337c1.904,0.014,2.855-1.33,2.855-4.032
	c0-0.546-0.052-1.064-0.156-1.555c-0.105-0.489-0.271-0.916-0.494-1.28c-0.225-0.364-0.519-0.654-0.882-0.872
	c-0.364-0.217-0.806-0.325-1.323-0.325C356.214,19.372,355.262,20.717,355.262,23.418z"/>
<path fill="#F2F2F2" d="M372.287,19.639h-3.297v9.029h-1.681v-9.029h-3.297v-1.471h8.274V19.639z"/>
<path fill="#F2F2F2" d="M379.553,18.189c0.49-0.028,1.004-0.063,1.543-0.105s1.208-0.063,2.005-0.063
	c1.387,0,2.381,0.213,2.982,0.641c0.602,0.427,0.903,1.074,0.903,1.941c0,0.49-0.145,0.971-0.431,1.439
	c-0.287,0.469-0.76,0.815-1.417,1.039v0.084c0.826,0.154,1.407,0.441,1.743,0.861s0.504,0.979,0.504,1.68
	c0,1.092-0.392,1.883-1.176,2.373c-0.784,0.49-1.96,0.734-3.528,0.734c-0.588,0-1.134-0.018-1.638-0.052
	c-0.504-0.035-1.001-0.073-1.491-0.116V18.189L379.553,18.189z M383.291,22.6c0.252,0,0.497-0.043,0.735-0.127
	c0.237-0.084,0.451-0.199,0.641-0.346s0.343-0.318,0.462-0.516c0.119-0.195,0.179-0.405,0.179-0.629
	c0-0.561-0.168-0.949-0.504-1.166c-0.336-0.217-0.924-0.325-1.764-0.325c-0.448,0-0.802,0.007-1.062,0.021
	c-0.259,0.014-0.508,0.028-0.745,0.043V22.6H383.291z M381.232,27.261c0.266,0.028,0.527,0.05,0.787,0.063
	c0.26,0.014,0.563,0.021,0.914,0.021c0.938,0,1.635-0.133,2.09-0.399c0.454-0.266,0.683-0.721,0.683-1.364
	c0-0.504-0.193-0.913-0.578-1.229c-0.385-0.315-1.067-0.473-2.047-0.473h-1.848L381.232,27.261L381.232,27.261z"/>
<path fill="#F2F2F2" d="M397.72,27.828c-0.42,0.336-0.949,0.602-1.586,0.798s-1.313,0.294-2.025,0.294
	c-0.799,0-1.491-0.129-2.079-0.389c-0.588-0.259-1.071-0.63-1.449-1.113c-0.378-0.482-0.658-1.061-0.84-1.732
	c-0.183-0.672-0.273-1.428-0.273-2.268c0-1.792,0.399-3.156,1.197-4.096c0.798-0.938,1.938-1.406,3.423-1.406
	c0.477,0,0.952,0.053,1.428,0.157c0.477,0.105,0.903,0.305,1.281,0.599s0.687,0.711,0.924,1.25c0.238,0.539,0.357,1.249,0.357,2.131
	c0,0.463-0.042,0.974-0.126,1.533h-6.741c0,0.616,0.063,1.162,0.189,1.639c0.126,0.476,0.321,0.878,0.588,1.207
	c0.266,0.329,0.611,0.581,1.04,0.756c0.427,0.176,0.947,0.263,1.563,0.263c0.477,0,0.952-0.084,1.428-0.253
	c0.477-0.168,0.833-0.363,1.071-0.588L397.72,27.828z M394.108,19.386c-0.826,0-1.488,0.218-1.984,0.651
	c-0.497,0.434-0.795,1.176-0.893,2.227h5.208c0-1.064-0.203-1.811-0.609-2.237C395.424,19.6,394.85,19.386,394.108,19.386z"/>
<path fill="#F2F2F2" d="M410.381,31.335h-1.134l-0.315-2.667h-7.896l-0.315,2.667h-1.134v-4.138h1.239
	c0.112-0.153,0.259-0.43,0.44-0.828c0.183-0.4,0.36-0.959,0.535-1.681c0.175-0.721,0.329-1.617,0.462-2.688
	c0.134-1.07,0.214-2.348,0.241-3.832h6.342v9.029h1.533L410.381,31.335L410.381,31.335z M407.168,27.197v-7.559h-3.15
	c-0.027,0.588-0.076,1.229-0.146,1.921s-0.165,1.386-0.284,2.079c-0.119,0.693-0.27,1.348-0.452,1.963
	c-0.182,0.617-0.392,1.148-0.63,1.596H407.168z"/>
<path fill="#F2F2F2" d="M415.535,24.973l0.59,2.016h0.105l0.464-2.037l2.044-6.783h1.68l-3.108,9.43
	c-0.237,0.686-0.472,1.35-0.702,1.994c-0.231,0.644-0.487,1.219-0.768,1.723s-0.595,0.906-0.945,1.207
	c-0.35,0.301-0.756,0.451-1.218,0.451c-0.504,0-0.917-0.07-1.238-0.209l0.294-1.449c0.182,0.069,0.356,0.104,0.524,0.104
	c0.393,0,0.771-0.206,1.134-0.62c0.364-0.412,0.665-1.123,0.903-2.131l-4.221-10.5h1.932L415.535,24.973z"/>
<path fill="#F2F2F2" d="M436.172,31.335h-1.134l-0.314-2.667h-12.284v-10.5h1.68v9.029h3.591v-9.029h1.681v9.029h3.592v-9.029h1.68
	v9.029h1.512v4.138H436.172z"/>
<path fill="#F2F2F2" d="M445.875,27.828c-0.42,0.336-0.949,0.602-1.586,0.798s-1.313,0.294-2.026,0.294
	c-0.798,0-1.49-0.129-2.079-0.389c-0.588-0.259-1.07-0.63-1.448-1.113c-0.378-0.482-0.658-1.061-0.841-1.732
	c-0.182-0.671-0.271-1.428-0.271-2.268c0-1.792,0.397-3.156,1.196-4.096c0.799-0.938,1.938-1.406,3.424-1.406
	c0.476,0,0.951,0.053,1.428,0.157c0.477,0.105,0.903,0.305,1.281,0.599s0.686,0.711,0.924,1.25c0.237,0.539,0.356,1.249,0.356,2.131
	c0,0.463-0.042,0.974-0.126,1.533h-6.74c0,0.616,0.063,1.162,0.188,1.639c0.126,0.476,0.322,0.878,0.588,1.207
	c0.267,0.329,0.612,0.581,1.04,0.756c0.428,0.176,0.948,0.263,1.564,0.263c0.476,0,0.951-0.084,1.428-0.253
	c0.477-0.168,0.833-0.363,1.071-0.588L445.875,27.828z M442.263,19.386c-0.826,0-1.486,0.218-1.983,0.651s-0.795,1.176-0.894,2.227
	h5.208c0-1.064-0.203-1.811-0.608-2.237C443.579,19.601,443.005,19.386,442.263,19.386z"/>
<path fill="#F2F2F2" d="M454.95,19.639h-4.452v9.029h-1.68v-10.5h6.132V19.639z"/>
<path fill="#F2F2F2" d="M456.238,23.418c0-1.777,0.396-3.14,1.187-4.084c0.79-0.945,1.928-1.418,3.412-1.418
	c0.784,0,1.467,0.129,2.048,0.389c0.58,0.259,1.062,0.63,1.438,1.113c0.378,0.482,0.657,1.063,0.84,1.742
	c0.182,0.68,0.271,1.432,0.271,2.258c0,1.778-0.396,3.14-1.187,4.084c-0.791,0.945-1.929,1.418-3.412,1.418
	c-0.784,0-1.467-0.129-2.048-0.389c-0.581-0.259-1.062-0.63-1.438-1.113c-0.378-0.482-0.657-1.063-0.84-1.742
	C456.329,24.996,456.238,24.244,456.238,23.418z M457.981,23.418c0,0.532,0.052,1.043,0.156,1.533
	c0.104,0.49,0.271,0.917,0.493,1.281c0.225,0.363,0.519,0.658,0.882,0.881c0.364,0.225,0.807,0.337,1.323,0.337
	c1.904,0.014,2.856-1.33,2.856-4.032c0-0.546-0.054-1.064-0.158-1.555c-0.104-0.489-0.271-0.916-0.493-1.28
	s-0.519-0.654-0.882-0.872c-0.364-0.217-0.807-0.325-1.323-0.325C458.933,19.372,457.981,20.717,457.981,23.418z"/>
<path fill="#F2F2F2" d="M480.011,19.639h-4.642v9.029h-1.68v-10.5h8.001v10.5h-1.681L480.011,19.639L480.011,19.639z"/>
<path fill="#F2F2F2" d="M492.612,27.828c-0.42,0.336-0.949,0.602-1.586,0.798c-0.638,0.196-1.313,0.294-2.026,0.294
	c-0.798,0-1.491-0.129-2.079-0.389c-0.588-0.259-1.071-0.63-1.449-1.113c-0.378-0.482-0.657-1.061-0.84-1.732
	c-0.182-0.671-0.271-1.428-0.271-2.268c0-1.792,0.397-3.156,1.195-4.096c0.8-0.938,1.939-1.406,3.425-1.406
	c0.476,0,0.95,0.053,1.428,0.157c0.476,0.105,0.903,0.305,1.281,0.599s0.686,0.711,0.924,1.25c0.236,0.539,0.355,1.249,0.355,2.131
	c0,0.463-0.042,0.974-0.126,1.533h-6.74c0,0.616,0.063,1.162,0.188,1.639c0.126,0.476,0.322,0.878,0.588,1.207
	c0.267,0.329,0.612,0.581,1.04,0.756c0.427,0.176,0.948,0.263,1.564,0.263c0.476,0,0.95-0.084,1.428-0.253
	c0.476-0.168,0.833-0.363,1.071-0.588L492.612,27.828z M489,19.386c-0.826,0-1.487,0.218-1.984,0.651s-0.795,1.176-0.893,2.227
	h5.208c0-1.064-0.203-1.811-0.609-2.237C490.316,19.601,489.742,19.386,489,19.386z"/>
<path fill="#F2F2F2" d="M495.556,18.168h1.155l0.314,1.26h0.084c0.321-0.49,0.737-0.864,1.25-1.123
	c0.511-0.26,1.095-0.389,1.753-0.389c1.399,0,2.442,0.413,3.129,1.238c0.687,0.826,1.028,2.178,1.028,4.054
	c0,0.882-0.114,1.677-0.347,2.384c-0.229,0.707-0.557,1.305-0.977,1.795c-0.42,0.49-0.929,0.869-1.522,1.135
	s-1.257,0.398-1.983,0.398c-0.519,0-0.929-0.031-1.229-0.094s-0.627-0.172-0.977-0.326v4.368h-1.681v-14.7H495.556z M499.798,19.386
	c-0.715,0-1.278,0.187-1.689,0.557c-0.413,0.371-0.704,0.935-0.872,1.69v5.208c0.252,0.196,0.539,0.347,0.86,0.452
	c0.321,0.104,0.749,0.157,1.281,0.157c0.966,0,1.732-0.36,2.299-1.081c0.567-0.722,0.852-1.782,0.852-3.182
	c0-0.574-0.049-1.096-0.146-1.564c-0.099-0.469-0.256-0.869-0.473-1.197c-0.218-0.329-0.497-0.584-0.84-0.767
	C500.725,19.477,500.302,19.386,499.798,19.386z"/>
<path fill="#F2F2F2" d="M514.657,27.828c-0.42,0.336-0.949,0.602-1.586,0.798c-0.638,0.196-1.313,0.294-2.026,0.294
	c-0.798,0-1.491-0.129-2.079-0.389c-0.588-0.259-1.071-0.63-1.449-1.113c-0.378-0.482-0.657-1.061-0.84-1.732
	c-0.182-0.671-0.271-1.428-0.271-2.268c0-1.792,0.397-3.156,1.195-4.096c0.8-0.938,1.939-1.406,3.425-1.406
	c0.476,0,0.95,0.053,1.428,0.157c0.476,0.105,0.903,0.305,1.281,0.599s0.686,0.711,0.924,1.25c0.237,0.539,0.355,1.249,0.355,2.131
	c0,0.463-0.042,0.974-0.126,1.533h-6.739c0,0.616,0.063,1.162,0.188,1.639c0.126,0.476,0.322,0.878,0.588,1.207
	c0.267,0.329,0.612,0.581,1.04,0.756c0.427,0.176,0.948,0.263,1.564,0.263c0.476,0,0.951-0.084,1.428-0.253
	c0.476-0.168,0.833-0.363,1.071-0.588L514.657,27.828z M511.045,19.386c-0.826,0-1.487,0.218-1.984,0.651
	c-0.496,0.433-0.795,1.176-0.893,2.227h5.208c0-1.064-0.203-1.811-0.609-2.237C512.361,19.601,511.787,19.386,511.045,19.386z"/>
<path fill="#F2F2F2" d="M527.318,31.335h-1.136l-0.313-2.667h-7.896l-0.313,2.667h-1.134v-4.138h1.237
	c0.112-0.153,0.259-0.43,0.441-0.828c0.182-0.4,0.359-0.959,0.535-1.681c0.175-0.721,0.328-1.617,0.462-2.688
	c0.133-1.07,0.214-2.348,0.241-3.832h6.343v9.029h1.532L527.318,31.335L527.318,31.335z M524.104,27.197v-7.559h-3.149
	c-0.028,0.588-0.077,1.229-0.147,1.921c-0.069,0.692-0.164,1.386-0.282,2.079c-0.119,0.693-0.271,1.348-0.451,1.963
	c-0.184,0.617-0.394,1.148-0.63,1.596H524.104z"/>
<path fill="#F2F2F2" d="M529.612,18.945c0.53-0.322,1.15-0.561,1.857-0.715c0.707-0.153,1.445-0.23,2.216-0.23
	c0.729,0,1.313,0.098,1.753,0.294c0.441,0.196,0.777,0.452,1.009,0.767c0.23,0.314,0.385,0.662,0.462,1.039
	c0.077,0.379,0.116,0.756,0.116,1.135c0,0.84-0.021,1.658-0.063,2.457c-0.042,0.797-0.063,1.554-0.063,2.268
	c0,0.518,0.021,1.008,0.063,1.471c0.042,0.461,0.119,0.889,0.231,1.28h-1.239l-0.441-1.47h-0.104
	c-0.126,0.195-0.283,0.389-0.474,0.577c-0.188,0.188-0.417,0.356-0.683,0.504c-0.266,0.148-0.574,0.271-0.924,0.368
	c-0.352,0.098-0.749,0.146-1.197,0.146s-0.864-0.07-1.249-0.21c-0.386-0.14-0.718-0.339-0.998-0.599
	c-0.28-0.259-0.5-0.57-0.661-0.935c-0.161-0.365-0.24-0.776-0.24-1.239c0-0.615,0.125-1.13,0.378-1.543
	c0.252-0.413,0.604-0.742,1.061-0.987c0.454-0.245,1-0.42,1.638-0.524c0.638-0.105,1.342-0.158,2.11-0.158c0.196,0,0.389,0,0.578,0
	c0.188,0,0.381,0.015,0.577,0.043c0.042-0.42,0.063-0.799,0.063-1.135c0-0.77-0.154-1.309-0.462-1.617
	c-0.308-0.308-0.868-0.462-1.68-0.462c-0.238,0-0.493,0.019-0.768,0.054c-0.271,0.037-0.553,0.087-0.84,0.152
	c-0.287,0.063-0.561,0.144-0.818,0.237c-0.26,0.093-0.486,0.198-0.684,0.313L529.612,18.945z M532.594,27.366
	c0.394,0,0.742-0.053,1.052-0.157c0.308-0.105,0.572-0.238,0.798-0.399c0.224-0.161,0.408-0.339,0.557-0.536
	c0.146-0.195,0.255-0.385,0.325-0.566v-1.743c-0.196-0.014-0.396-0.024-0.6-0.031c-0.202-0.007-0.401-0.011-0.599-0.011
	c-0.434,0-0.856,0.025-1.271,0.074c-0.414,0.049-0.777,0.14-1.093,0.272c-0.314,0.134-0.566,0.315-0.756,0.546
	c-0.188,0.23-0.284,0.521-0.284,0.871c0,0.49,0.177,0.893,0.525,1.208S532.048,27.366,532.594,27.366z"/>
<path fill="#F2F2F2" d="M541.107,18.168v2.855c0,0.379,0.021,0.719,0.063,1.02c0.042,0.301,0.126,0.56,0.252,0.776
	c0.126,0.218,0.308,0.386,0.546,0.504c0.237,0.119,0.553,0.179,0.944,0.179c0.63,0,1.147-0.07,1.555-0.21
	c0.405-0.14,0.714-0.294,0.924-0.462v-4.662h1.681v10.5h-1.681v-4.41c-0.225,0.141-0.557,0.294-0.998,0.462
	c-0.439,0.169-1.046,0.253-1.815,0.253c-0.519,0-0.973-0.057-1.364-0.168c-0.393-0.113-0.722-0.309-0.987-0.589
	c-0.267-0.28-0.466-0.651-0.599-1.112c-0.133-0.463-0.199-1.043-0.199-1.744v-3.191L541.107,18.168L541.107,18.168z"/>
<path fill="#F2F2F2" d="M556.773,22.452l0.063-1.302h-0.063l-0.861,1.344l-4.726,6.174h-0.966v-10.5h1.681v6.404l-0.063,1.24h0.084
	l0.818-1.303l4.726-6.342h0.986v10.5h-1.68L556.773,22.452L556.773,22.452z"/>
<path fill="#F2F2F2" d="M566.497,23.219l3.359-4.82l1.135,0.901l-2.06,3.038l-1.008,0.859l1.008,0.758l2.186,2.988l-1.135,0.927
	L566.497,23.219z M570.34,23.219l3.318-4.777l1.112,0.879l-2.037,3.018l-1.009,0.859l1.009,0.758l2.163,2.968l-1.093,0.905
	L570.34,23.219z"/>
<path fill="#F2F2F2" d="M585.184,15.521h-4.577v13.146h-1.743V15.521h-4.578v-1.554h10.898V15.521z"/>
<path fill="#F2F2F2" d="M585.2,18.945c0.531-0.322,1.15-0.561,1.857-0.715c0.707-0.153,1.445-0.23,2.217-0.23
	c0.728,0,1.313,0.098,1.753,0.294s0.776,0.452,1.008,0.767c0.23,0.314,0.385,0.662,0.462,1.039c0.077,0.379,0.116,0.756,0.116,1.135
	c0,0.84-0.021,1.658-0.063,2.457c-0.042,0.797-0.063,1.554-0.063,2.268c0,0.518,0.021,1.008,0.063,1.471
	c0.042,0.461,0.119,0.889,0.231,1.28h-1.239l-0.441-1.47h-0.104c-0.126,0.195-0.283,0.389-0.473,0.577
	c-0.188,0.188-0.417,0.356-0.684,0.504c-0.266,0.148-0.574,0.271-0.924,0.368c-0.351,0.098-0.749,0.146-1.197,0.146
	c-0.447,0-0.863-0.07-1.249-0.21s-0.718-0.339-0.998-0.599c-0.279-0.259-0.5-0.57-0.661-0.935c-0.16-0.365-0.24-0.776-0.24-1.239
	c0-0.615,0.126-1.13,0.378-1.543s0.604-0.742,1.061-0.987c0.454-0.245,1-0.42,1.638-0.524c0.638-0.105,1.342-0.158,2.11-0.158
	c0.196,0,0.389,0,0.578,0c0.188,0,0.381,0.015,0.577,0.043c0.042-0.42,0.063-0.799,0.063-1.135c0-0.77-0.153-1.309-0.462-1.617
	c-0.308-0.308-0.868-0.462-1.68-0.462c-0.238,0-0.493,0.019-0.767,0.054c-0.272,0.037-0.554,0.087-0.841,0.152
	c-0.287,0.063-0.561,0.144-0.818,0.237c-0.259,0.093-0.486,0.198-0.684,0.313L585.2,18.945z M588.182,27.366
	c0.394,0,0.742-0.053,1.052-0.157c0.308-0.105,0.572-0.238,0.798-0.399c0.224-0.161,0.409-0.339,0.557-0.536
	c0.146-0.195,0.255-0.385,0.325-0.566v-1.743c-0.196-0.014-0.396-0.024-0.599-0.031c-0.203-0.007-0.402-0.011-0.6-0.011
	c-0.434,0-0.856,0.025-1.271,0.074c-0.414,0.049-0.777,0.14-1.092,0.272c-0.315,0.134-0.567,0.315-0.757,0.546
	c-0.188,0.23-0.283,0.521-0.283,0.871c0,0.49,0.176,0.893,0.524,1.208C587.187,27.209,587.636,27.366,588.182,27.366z"/>
<path fill="#F2F2F2" d="M602.126,24.027h-4.746v4.641h-1.68v-10.5h1.68v4.389h4.746v-4.389h1.68v10.5h-1.68V24.027z"/>
<path fill="#F2F2F2" d="M616.385,31.335h-1.134l-0.314-2.667h-7.979v-10.5h1.68v9.029h4.558v-9.029h1.681v9.029h1.512v4.138H616.385
	z"/>
<path fill="#F2F2F2" d="M621.56,24.973l0.592,2.016h0.104l0.463-2.037l2.045-6.783h1.681l-3.107,9.43
	c-0.238,0.686-0.473,1.35-0.704,1.994c-0.229,0.645-0.485,1.219-0.767,1.723c-0.279,0.504-0.596,0.906-0.944,1.207
	c-0.351,0.301-0.756,0.451-1.218,0.451c-0.505,0-0.918-0.07-1.239-0.209l0.294-1.449c0.183,0.069,0.356,0.104,0.524,0.104
	c0.393,0,0.771-0.206,1.135-0.62c0.363-0.412,0.664-1.123,0.902-2.131l-4.222-10.5h1.933L621.56,24.973z"/>
<path fill="#F2F2F2" d="M635.016,22.452l0.063-1.302h-0.063l-0.86,1.344l-4.726,6.174h-0.966v-10.5h1.68v6.404l-0.063,1.24h0.084
	l0.818-1.303l4.726-6.342h0.986v10.5h-1.681L635.016,22.452L635.016,22.452z M630.879,13.926c0.14,0.645,0.381,1.092,0.726,1.344
	c0.343,0.252,0.737,0.379,1.187,0.379c0.447,0,0.847-0.133,1.196-0.399c0.351-0.266,0.588-0.7,0.714-1.302l1.261,0.398
	c-0.126,0.813-0.487,1.436-1.082,1.869s-1.306,0.651-2.131,0.651c-0.378,0-0.753-0.05-1.124-0.146
	c-0.371-0.097-0.703-0.244-0.997-0.441c-0.294-0.195-0.546-0.447-0.756-0.756c-0.21-0.307-0.352-0.672-0.421-1.092L630.879,13.926z"
	/>
<path fill="#F2F2F2" d="M643.595,23.029l-3.359,4.799l-1.093-0.885l2.017-3.029l1.029-0.863l-1.029-0.755l-2.143-2.954l1.093-0.9
	L643.595,23.029z M647.416,23.029l-3.359,4.841l-1.135-0.905l2.06-3.051l1.008-0.863l-1.008-0.755l-2.186-2.976l1.113-0.922
	L647.416,23.029z"/>
<path fill="#F2F2F2" d="M648.478,27.702c0-0.378,0.108-0.675,0.325-0.893c0.218-0.217,0.507-0.325,0.871-0.325
	c0.378,0,0.681,0.108,0.903,0.325c0.224,0.218,0.336,0.515,0.336,0.893c0,0.364-0.112,0.658-0.336,0.882
	c-0.225,0.224-0.525,0.336-0.903,0.336c-0.364,0-0.653-0.112-0.871-0.336C648.586,28.36,648.478,28.066,648.478,27.702z"/>
<path fill="#F2F2F2" d="M668.134,21.927h-7.056v6.741h-1.743v-14.7h1.743v6.405h7.056v-6.405h1.743v14.7h-1.743V21.927z"/>
<path fill="#F2F2F2" d="M680.824,27.828c-0.42,0.336-0.949,0.602-1.586,0.798c-0.638,0.196-1.313,0.294-2.026,0.294
	c-0.798,0-1.491-0.129-2.079-0.389c-0.588-0.259-1.071-0.63-1.449-1.113c-0.378-0.482-0.657-1.061-0.84-1.732
	c-0.182-0.671-0.271-1.428-0.271-2.268c0-1.792,0.397-3.156,1.195-4.096c0.8-0.938,1.939-1.406,3.425-1.406
	c0.476,0,0.95,0.053,1.428,0.157c0.476,0.105,0.903,0.305,1.281,0.599s0.686,0.711,0.924,1.25c0.236,0.539,0.355,1.249,0.355,2.131
	c0,0.463-0.042,0.974-0.126,1.533h-6.739c0,0.616,0.063,1.162,0.188,1.639c0.126,0.476,0.322,0.878,0.588,1.207
	c0.267,0.329,0.612,0.581,1.04,0.756c0.427,0.176,0.948,0.263,1.564,0.263c0.476,0,0.951-0.084,1.428-0.253
	c0.476-0.168,0.833-0.363,1.071-0.588L680.824,27.828z M677.212,19.386c-0.826,0-1.487,0.218-1.984,0.651
	c-0.496,0.433-0.795,1.176-0.893,2.227h5.208c0-1.064-0.203-1.811-0.609-2.237C678.528,19.601,677.954,19.386,677.212,19.386z"/>
<path fill="#F2F2F2" d="M683.314,23.418c0-1.777,0.396-3.14,1.187-4.084c0.79-0.945,1.928-1.418,3.412-1.418
	c0.784,0,1.467,0.129,2.048,0.389c0.58,0.259,1.062,0.63,1.438,1.113c0.378,0.482,0.656,1.063,0.84,1.742
	c0.182,0.68,0.271,1.432,0.271,2.258c0,1.778-0.396,3.14-1.187,4.084c-0.791,0.945-1.93,1.418-3.412,1.418
	c-0.784,0-1.467-0.129-2.048-0.389c-0.581-0.259-1.062-0.63-1.438-1.113c-0.378-0.482-0.658-1.063-0.84-1.742
	C683.405,24.996,683.314,24.244,683.314,23.418z M685.058,23.418c0,0.532,0.053,1.043,0.157,1.533
	c0.104,0.49,0.271,0.917,0.493,1.281c0.224,0.363,0.518,0.658,0.882,0.881c0.364,0.225,0.806,0.337,1.323,0.337
	c1.904,0.014,2.855-1.33,2.855-4.032c0-0.546-0.053-1.064-0.157-1.555c-0.104-0.489-0.271-0.916-0.493-1.28s-0.52-0.654-0.882-0.872
	c-0.364-0.217-0.807-0.325-1.323-0.325C686.009,19.372,685.058,20.717,685.058,23.418z"/>
<path fill="#F2F2F2" d="M704.571,31.335h-1.136l-0.313-2.667h-7.896l-0.313,2.667h-1.134v-4.138h1.237
	c0.112-0.153,0.259-0.43,0.441-0.828c0.182-0.4,0.36-0.959,0.535-1.681c0.175-0.721,0.329-1.617,0.462-2.688
	c0.133-1.07,0.214-2.348,0.242-3.832h6.342v9.029h1.533V31.335L704.571,31.335z M701.357,27.197v-7.559h-3.149
	c-0.028,0.588-0.077,1.229-0.146,1.921c-0.07,0.692-0.164,1.386-0.283,2.079c-0.119,0.693-0.271,1.348-0.451,1.963
	c-0.184,0.617-0.394,1.148-0.63,1.596H701.357z"/>
<path fill="#F2F2F2" d="M713.15,24.027h-4.746v4.641h-1.681v-10.5h1.681v4.389h4.746v-4.389h1.68v10.5h-1.68V24.027z"/>
<path fill="#F2F2F2" d="M717.483,23.418c0-1.777,0.396-3.14,1.187-4.084c0.79-0.945,1.928-1.418,3.412-1.418
	c0.784,0,1.467,0.129,2.048,0.389c0.58,0.259,1.061,0.63,1.438,1.113c0.378,0.482,0.656,1.063,0.84,1.742
	c0.182,0.68,0.271,1.432,0.271,2.258c0,1.778-0.396,3.14-1.187,4.084c-0.791,0.945-1.93,1.418-3.412,1.418
	c-0.784,0-1.467-0.129-2.048-0.389c-0.581-0.259-1.062-0.63-1.438-1.113c-0.378-0.482-0.658-1.063-0.84-1.742
	C717.574,24.996,717.483,24.244,717.483,23.418z M719.227,23.418c0,0.532,0.053,1.043,0.157,1.533
	c0.104,0.49,0.271,0.917,0.493,1.281c0.224,0.363,0.518,0.658,0.882,0.881c0.364,0.225,0.807,0.337,1.323,0.337
	c1.904,0.014,2.856-1.33,2.856-4.032c0-0.546-0.054-1.064-0.158-1.555c-0.104-0.489-0.271-0.916-0.493-1.28s-0.52-0.654-0.882-0.872
	c-0.364-0.217-0.807-0.325-1.323-0.325C720.178,19.372,719.227,20.717,719.227,23.418z"/>
<path fill="#F2F2F2" d="M731.947,23.943h-0.966v4.725h-1.681v-10.5h1.681v4.746l0.902-0.294l3.359-4.452h1.827l-3.255,4.221
	l-0.883,0.693l1.093,0.84l3.507,4.746h-2.079L731.947,23.943z"/>
<path fill="#F2F2F2" d="M739.543,18.168h1.155l0.313,1.26h0.084c0.322-0.49,0.738-0.864,1.25-1.123
	c0.512-0.26,1.096-0.389,1.753-0.389c1.4,0,2.443,0.413,3.13,1.238c0.687,0.826,1.028,2.178,1.028,4.054
	c0,0.882-0.115,1.677-0.347,2.384c-0.23,0.707-0.557,1.305-0.978,1.795c-0.42,0.49-0.928,0.869-1.521,1.135
	s-1.257,0.398-1.984,0.398c-0.518,0-0.928-0.031-1.229-0.094s-0.627-0.172-0.978-0.326v4.368h-1.68v-14.7H739.543z M743.785,19.386
	c-0.715,0-1.278,0.187-1.69,0.557c-0.413,0.371-0.704,0.935-0.872,1.69v5.208c0.252,0.196,0.539,0.347,0.861,0.452
	c0.321,0.104,0.749,0.157,1.281,0.157c0.966,0,1.731-0.36,2.299-1.081c0.567-0.722,0.851-1.782,0.851-3.182
	c0-0.574-0.049-1.096-0.146-1.564c-0.099-0.469-0.256-0.869-0.474-1.197c-0.218-0.329-0.496-0.584-0.84-0.767
	C744.712,19.477,744.289,19.386,743.785,19.386z"/>
<path fill="#F2F2F2" d="M750.832,18.945c0.531-0.322,1.151-0.561,1.858-0.715c0.706-0.153,1.444-0.23,2.216-0.23
	c0.728,0,1.313,0.098,1.753,0.294s0.776,0.452,1.008,0.767c0.23,0.314,0.385,0.662,0.462,1.039c0.077,0.379,0.116,0.756,0.116,1.135
	c0,0.84-0.021,1.658-0.063,2.457c-0.042,0.797-0.063,1.554-0.063,2.268c0,0.518,0.021,1.008,0.063,1.471
	c0.042,0.461,0.119,0.889,0.231,1.28h-1.239l-0.44-1.47h-0.104c-0.126,0.195-0.283,0.389-0.473,0.577
	c-0.188,0.188-0.417,0.356-0.684,0.504c-0.266,0.148-0.573,0.271-0.924,0.368c-0.351,0.098-0.749,0.146-1.197,0.146
	c-0.447,0-0.863-0.07-1.249-0.21s-0.718-0.339-0.998-0.599c-0.279-0.259-0.5-0.57-0.66-0.935c-0.161-0.365-0.241-0.776-0.241-1.239
	c0-0.615,0.126-1.13,0.378-1.543s0.604-0.742,1.061-0.987c0.454-0.245,1-0.42,1.639-0.524c0.637-0.105,1.341-0.158,2.109-0.158
	c0.196,0,0.389,0,0.578,0c0.188,0,0.381,0.015,0.577,0.043c0.042-0.42,0.063-0.799,0.063-1.135c0-0.77-0.153-1.309-0.462-1.617
	c-0.308-0.308-0.867-0.462-1.68-0.462c-0.238,0-0.493,0.019-0.767,0.054c-0.272,0.037-0.554,0.087-0.841,0.152
	c-0.286,0.063-0.561,0.144-0.818,0.237c-0.259,0.093-0.486,0.198-0.684,0.313L750.832,18.945z M753.813,27.366
	c0.393,0,0.741-0.053,1.051-0.157c0.308-0.105,0.572-0.238,0.798-0.399c0.224-0.161,0.409-0.339,0.557-0.536
	c0.146-0.195,0.255-0.385,0.325-0.566v-1.743c-0.196-0.014-0.396-0.024-0.599-0.031s-0.402-0.011-0.6-0.011
	c-0.434,0-0.856,0.025-1.271,0.074c-0.414,0.049-0.777,0.14-1.092,0.272c-0.315,0.134-0.567,0.315-0.756,0.546
	c-0.189,0.23-0.284,0.521-0.284,0.871c0,0.49,0.176,0.893,0.524,1.208C752.817,27.209,753.268,27.366,753.813,27.366z"/>
<path fill="#F2F2F2" d="M768.372,19.639h-3.298v9.029h-1.681v-9.029h-3.297v-1.471h8.274L768.372,19.639L768.372,19.639z"/>
<path fill="#F2F2F2" d="M776.745,24.027h-4.746v4.641h-1.68v-10.5h1.68v4.389h4.746v-4.389h1.68v10.5h-1.68V24.027z"/>
<path fill="#F2F2F2" d="M781.078,23.418c0-1.777,0.396-3.14,1.187-4.084c0.79-0.945,1.929-1.418,3.412-1.418
	c0.784,0,1.467,0.129,2.048,0.389c0.58,0.259,1.062,0.63,1.438,1.113c0.378,0.482,0.657,1.063,0.84,1.742
	c0.182,0.68,0.272,1.432,0.272,2.258c0,1.778-0.396,3.14-1.188,4.084c-0.791,0.945-1.929,1.418-3.412,1.418
	c-0.784,0-1.467-0.129-2.048-0.389c-0.581-0.259-1.061-0.63-1.438-1.113c-0.379-0.482-0.658-1.063-0.841-1.742
	C781.169,24.996,781.078,24.244,781.078,23.418z M782.821,23.418c0,0.532,0.052,1.043,0.156,1.533
	c0.104,0.49,0.271,0.917,0.493,1.281c0.225,0.363,0.519,0.658,0.882,0.881c0.364,0.225,0.807,0.337,1.323,0.337
	c1.904,0.014,2.856-1.33,2.856-4.032c0-0.546-0.053-1.064-0.158-1.555c-0.104-0.489-0.271-0.916-0.493-1.28
	s-0.519-0.654-0.882-0.872c-0.364-0.217-0.806-0.325-1.323-0.325C783.772,19.372,782.821,20.717,782.821,23.418z"/>
<path fill="#F2F2F2" d="M799.028,19.639h-4.452v9.029h-1.681v-10.5h6.133V19.639z"/>
<path fill="#F2F2F2" d="M800.316,23.418c0-1.777,0.396-3.14,1.187-4.084c0.79-0.945,1.928-1.418,3.412-1.418
	c0.784,0,1.467,0.129,2.048,0.389c0.58,0.259,1.062,0.63,1.438,1.113c0.378,0.482,0.656,1.063,0.84,1.742
	c0.182,0.68,0.271,1.432,0.271,2.258c0,1.778-0.396,3.14-1.187,4.084c-0.791,0.945-1.93,1.418-3.412,1.418
	c-0.784,0-1.467-0.129-2.048-0.389c-0.581-0.259-1.062-0.63-1.438-1.113c-0.378-0.482-0.658-1.063-0.84-1.742
	C800.407,24.996,800.316,24.244,800.316,23.418z M802.06,23.418c0,0.532,0.053,1.043,0.157,1.533
	c0.104,0.49,0.271,0.917,0.493,1.281c0.224,0.363,0.518,0.658,0.882,0.881c0.364,0.225,0.807,0.337,1.323,0.337
	c1.904,0.014,2.855-1.33,2.855-4.032c0-0.546-0.053-1.064-0.157-1.555c-0.104-0.489-0.271-0.916-0.493-1.28s-0.52-0.654-0.882-0.872
	c-0.364-0.217-0.807-0.325-1.323-0.325C803.011,19.372,802.06,20.717,802.06,23.418z"/>
<path fill="#F2F2F2" d="M99.923,52.838h-4.641v9.03h-1.68v-10.5h8.001v10.5h-1.68V52.838z"/>
<path fill="#F2F2F2" d="M104.272,56.618c0-1.778,0.396-3.14,1.187-4.085c0.791-0.944,1.929-1.417,3.413-1.417
	c0.784,0,1.466,0.13,2.047,0.389c0.581,0.259,1.061,0.63,1.438,1.112c0.378,0.483,0.658,1.064,0.84,1.744
	c0.182,0.679,0.273,1.432,0.273,2.257c0,1.778-0.396,3.14-1.187,4.085c-0.791,0.943-1.929,1.417-3.413,1.417
	c-0.784,0-1.467-0.13-2.047-0.39c-0.581-0.258-1.061-0.629-1.438-1.111c-0.378-0.482-0.658-1.064-0.84-1.744
	C104.363,58.197,104.272,57.443,104.272,56.618z M106.015,56.618c0,0.532,0.053,1.043,0.158,1.532
	c0.105,0.49,0.269,0.918,0.493,1.281c0.224,0.364,0.518,0.657,0.882,0.883c0.364,0.224,0.805,0.336,1.323,0.336
	c1.904,0.014,2.856-1.33,2.856-4.032c0-0.546-0.052-1.063-0.157-1.554s-0.27-0.917-0.494-1.281
	c-0.224-0.363-0.518-0.654-0.882-0.871c-0.364-0.217-0.805-0.326-1.323-0.326C106.967,52.572,106.015,53.916,106.015,56.618z"/>
<path fill="#F2F2F2" d="M117.168,53.237c0.462-0.673,0.973-1.145,1.533-1.417c0.56-0.273,1.26-0.41,2.1-0.41
	c1.288,0,2.279,0.42,2.972,1.26c0.693,0.84,1.04,2.079,1.04,3.717c0,1.89-0.403,3.318-1.208,4.285
	c-0.805,0.965-1.929,1.448-3.371,1.448c-1.54,0-2.695-0.532-3.465-1.597c-0.77-1.063-1.155-2.736-1.155-5.019
	c0-1.205,0.06-2.233,0.179-3.088c0.119-0.854,0.294-1.574,0.525-2.162c0.231-0.589,0.511-1.058,0.84-1.408
	c0.329-0.35,0.7-0.626,1.113-0.829c0.413-0.202,0.864-0.347,1.354-0.431s1.015-0.154,1.575-0.21
	c0.728-0.069,1.298-0.149,1.711-0.241c0.413-0.091,0.745-0.256,0.998-0.494l0.189,1.513c-0.14,0.126-0.294,0.231-0.462,0.315
	c-0.168,0.084-0.371,0.154-0.609,0.209c-0.238,0.057-0.521,0.105-0.851,0.147c-0.33,0.042-0.71,0.077-1.145,0.104
	c-0.602,0.043-1.13,0.116-1.585,0.221c-0.455,0.105-0.847,0.309-1.176,0.609c-0.329,0.301-0.588,0.729-0.777,1.281
	s-0.319,1.284-0.389,2.194h0.064V53.237z M117.357,56.639c0,0.533,0.056,1.043,0.168,1.533c0.112,0.49,0.284,0.922,0.515,1.292
	c0.231,0.371,0.528,0.661,0.893,0.871c0.364,0.21,0.791,0.315,1.281,0.315c0.966,0,1.684-0.348,2.152-1.039
	c0.469-0.693,0.704-1.719,0.704-3.077c0-0.532-0.049-1.022-0.147-1.47c-0.098-0.448-0.252-0.837-0.462-1.166
	c-0.21-0.328-0.476-0.58-0.798-0.756c-0.322-0.175-0.707-0.262-1.155-0.262c-1.092-0.015-1.89,0.304-2.394,0.955
	C117.609,54.486,117.357,55.422,117.357,56.639z"/>
<path fill="#F2F2F2" d="M135.209,61.027c-0.42,0.336-0.949,0.604-1.586,0.799c-0.637,0.195-1.313,0.294-2.026,0.294
	c-0.798,0-1.491-0.13-2.079-0.39c-0.588-0.258-1.071-0.629-1.449-1.111s-0.658-1.061-0.84-1.732s-0.273-1.429-0.273-2.269
	c0-1.792,0.399-3.157,1.197-4.095c0.798-0.938,1.939-1.407,3.423-1.407c0.476,0,0.952,0.052,1.428,0.157s0.903,0.305,1.281,0.599
	s0.686,0.711,0.924,1.249c0.238,0.539,0.357,1.25,0.357,2.132c0,0.462-0.042,0.974-0.126,1.533h-6.741
	c0,0.616,0.063,1.161,0.189,1.638s0.322,0.879,0.588,1.208s0.612,0.581,1.04,0.757c0.428,0.174,0.948,0.262,1.564,0.262
	c0.476,0,0.952-0.084,1.428-0.252s0.833-0.363,1.071-0.588L135.209,61.027z M131.597,52.586c-0.826,0-1.488,0.217-1.984,0.651
	c-0.497,0.435-0.795,1.176-0.893,2.226h5.208c0-1.063-0.203-1.809-0.609-2.236C132.913,52.8,132.339,52.586,131.597,52.586z"/>
<path fill="#F2F2F2" d="M147.87,64.535h-1.134l-0.315-2.667h-7.896l-0.315,2.667h-1.134v-4.137h1.239
	c0.112-0.154,0.259-0.432,0.441-0.83c0.182-0.398,0.36-0.959,0.535-1.68c0.175-0.722,0.329-1.618,0.462-2.688
	c0.133-1.071,0.213-2.35,0.241-3.833h6.342v9.029h1.533L147.87,64.535L147.87,64.535z M144.657,60.398v-7.562h-3.15
	c-0.028,0.588-0.077,1.229-0.147,1.922c-0.07,0.693-0.165,1.386-0.284,2.079c-0.119,0.691-0.27,1.348-0.452,1.965
	c-0.182,0.614-0.392,1.146-0.63,1.596H144.657z"/>
<path fill="#F2F2F2" d="M156.577,55.652l0.063-1.303h-0.063l-0.861,1.345l-4.725,6.174h-0.966v-10.5h1.68v6.405l-0.063,1.238h0.084
	l0.819-1.303l4.725-6.342h0.987v10.5h-1.68V55.652z"/>
<path fill="#F2F2F2" d="M168.469,52.838h-3.297v9.03h-1.68v-9.03h-3.297v-1.47h8.274L168.469,52.838L168.469,52.838z"/>
<path fill="#F2F2F2" d="M178.03,61.027c-0.42,0.336-0.949,0.604-1.586,0.799c-0.637,0.195-1.313,0.294-2.026,0.294
	c-0.798,0-1.491-0.13-2.079-0.39c-0.588-0.258-1.071-0.629-1.449-1.111s-0.658-1.061-0.84-1.732
	c-0.182-0.672-0.273-1.429-0.273-2.269c0-1.792,0.399-3.157,1.197-4.095c0.798-0.938,1.939-1.407,3.423-1.407
	c0.476,0,0.952,0.052,1.428,0.157c0.476,0.105,0.903,0.305,1.281,0.599s0.686,0.711,0.924,1.249c0.238,0.539,0.357,1.25,0.357,2.132
	c0,0.462-0.042,0.974-0.126,1.533h-6.741c0,0.616,0.063,1.161,0.189,1.638s0.322,0.879,0.588,1.208
	c0.266,0.329,0.612,0.581,1.04,0.757c0.428,0.174,0.948,0.262,1.564,0.262c0.476,0,0.952-0.084,1.428-0.252s0.833-0.363,1.071-0.588
	L178.03,61.027z M174.418,52.586c-0.826,0-1.488,0.217-1.984,0.651c-0.497,0.435-0.795,1.176-0.893,2.226h5.208
	c0-1.063-0.203-1.809-0.609-2.236C175.734,52.8,175.16,52.586,174.418,52.586z"/>
<path fill="#F2F2F2" d="M187.142,52.838h-3.045c-0.042,0.588-0.084,1.222-0.126,1.9c-0.042,0.68-0.105,1.358-0.189,2.038
	c-0.084,0.68-0.196,1.33-0.336,1.953c-0.14,0.623-0.318,1.172-0.535,1.647c-0.217,0.478-0.483,0.856-0.798,1.146
	c-0.315,0.287-0.689,0.431-1.124,0.431c-0.266,0-0.497-0.015-0.693-0.042c-0.196-0.028-0.371-0.076-0.525-0.146l0.252-1.408
	c0.168,0.058,0.35,0.084,0.546,0.084c0.28,0,0.532-0.117,0.756-0.355c0.224-0.236,0.42-0.689,0.588-1.354s0.308-1.586,0.42-2.762
	s0.189-2.709,0.231-4.599h6.258v10.5h-1.68V52.838L187.142,52.838z"/>
<path fill="#F2F2F2" d="M197.381,57.521l-1.617,0.252l-2.772,4.095h-2.037l2.52-3.591l0.84-0.777
	c-0.728-0.111-1.347-0.406-1.858-0.882c-0.511-0.476-0.767-1.12-0.767-1.933c0-0.629,0.108-1.168,0.326-1.616
	c0.217-0.448,0.528-0.819,0.935-1.113c0.406-0.294,0.889-0.507,1.449-0.641c0.56-0.133,1.19-0.199,1.89-0.199
	c0.518,0,1.001,0.035,1.449,0.104c0.448,0.07,0.889,0.147,1.323,0.231v10.416h-1.68L197.381,57.521L197.381,57.521z M197.381,52.797
	c-0.182-0.07-0.385-0.123-0.609-0.158c-0.224-0.035-0.42-0.053-0.588-0.053c-0.896,0-1.579,0.161-2.047,0.483
	c-0.469,0.322-0.704,0.833-0.704,1.532c0,0.631,0.249,1.117,0.746,1.46c0.497,0.343,1.151,0.515,1.963,0.515
	c0.014,0,0.035,0,0.063,0s0.084,0,0.168,0s0.203-0.004,0.357-0.012c0.154-0.006,0.371-0.017,0.651-0.03V52.797L197.381,52.797z"/>
<path fill="#F2F2F2" d="M214.286,55.652l0.063-1.303h-0.063l-0.861,1.345l-4.725,6.174h-0.966v-10.5h1.68v6.405l-0.063,1.238h0.084
	l0.819-1.303l4.725-6.342h0.987v10.5h-1.68V55.652z"/>
<path fill="#F2F2F2" d="M231.967,61.176c-0.42,0.309-0.917,0.543-1.491,0.703c-0.574,0.16-1.176,0.241-1.806,0.241
	c-0.812,0-1.498-0.13-2.058-0.39c-0.56-0.258-1.019-0.629-1.375-1.111c-0.357-0.482-0.616-1.064-0.777-1.744
	c-0.161-0.678-0.242-1.432-0.242-2.257c0-1.778,0.392-3.14,1.176-4.085c0.784-0.944,1.911-1.417,3.381-1.417
	c0.672,0,1.242,0.052,1.711,0.157c0.469,0.105,0.893,0.256,1.271,0.451l-0.483,1.449c-0.322-0.182-0.679-0.325-1.071-0.43
	s-0.813-0.158-1.26-0.158c-1.988,0-2.982,1.344-2.982,4.032c0,0.531,0.053,1.039,0.158,1.521s0.28,0.91,0.525,1.281
	s0.567,0.668,0.966,0.893s0.893,0.336,1.48,0.336c0.504,0,0.956-0.076,1.354-0.23c0.399-0.152,0.725-0.329,0.977-0.523
	L231.967,61.176z"/>
<path fill="#F2F2F2" d="M237.875,58.172l0.59,2.016h0.105l0.464-2.035l2.044-6.783h1.68l-3.108,9.429
	c-0.238,0.687-0.472,1.353-0.703,1.995c-0.231,0.643-0.487,1.219-0.767,1.723c-0.28,0.504-0.595,0.905-0.945,1.207
	c-0.35,0.301-0.756,0.452-1.218,0.452c-0.504,0-0.917-0.069-1.239-0.211l0.294-1.448c0.182,0.069,0.357,0.104,0.525,0.104
	c0.392,0,0.77-0.207,1.134-0.619c0.364-0.414,0.665-1.124,0.903-2.132l-4.221-10.5h1.932L237.875,58.172z"/>
<path fill="#F2F2F2" d="M253.375,64.535h-1.134l-0.315-2.667h-7.896l-0.315,2.667h-1.134v-4.137h1.239
	c0.112-0.154,0.259-0.432,0.441-0.83c0.182-0.398,0.36-0.959,0.535-1.68c0.175-0.722,0.329-1.618,0.462-2.688
	c0.133-1.071,0.213-2.35,0.241-3.833h6.342v9.029h1.533L253.375,64.535L253.375,64.535z M250.162,60.398v-7.562h-3.15
	c-0.028,0.588-0.077,1.229-0.147,1.922c-0.07,0.693-0.165,1.386-0.284,2.079c-0.119,0.691-0.27,1.348-0.452,1.965
	c-0.182,0.614-0.392,1.146-0.63,1.596H250.162z"/>
<path fill="#F2F2F2" d="M257.208,55.379c0.336-0.056,0.658-0.094,0.966-0.115c0.308-0.021,0.602-0.031,0.882-0.031
	c0.728,0,1.344,0.08,1.848,0.241c0.504,0.161,0.914,0.382,1.229,0.661c0.315,0.281,0.542,0.613,0.682,0.998s0.21,0.795,0.21,1.229
	c0,1.273-0.381,2.197-1.144,2.771c-0.764,0.574-1.95,0.861-3.56,0.861c-0.896,0-1.827-0.042-2.793-0.126v-10.5h1.68V55.379
	L257.208,55.379z M257.208,60.398c0.518,0.084,1.015,0.125,1.491,0.125c0.882,0,1.533-0.17,1.953-0.515
	c0.42-0.343,0.63-0.829,0.63-1.459c0-0.562-0.203-1.022-0.609-1.387c-0.406-0.363-1.043-0.546-1.911-0.546
	c-0.238,0-0.497,0.007-0.777,0.021c-0.28,0.014-0.54,0.057-0.777,0.127V60.398L257.208,60.398z"/>
<path fill="#F2F2F2" d="M271.806,55.652l0.063-1.303h-0.063l-0.861,1.345l-4.725,6.174h-0.966v-10.5h1.68v6.405l-0.063,1.238h0.084
	l0.819-1.303l4.725-6.342h0.987v10.5h-1.68V55.652L271.806,55.652z"/>
<path fill="#F2F2F2" d="M291.356,50.528c0,0.351-0.056,0.707-0.168,1.071c-0.112,0.363-0.28,0.703-0.504,1.018
	s-0.511,0.592-0.861,0.83c-0.35,0.238-0.763,0.42-1.239,0.546v0.084c0.42,0.07,0.822,0.188,1.208,0.356
	c0.385,0.168,0.725,0.399,1.019,0.693c0.294,0.295,0.532,0.651,0.714,1.071c0.182,0.42,0.273,0.917,0.273,1.491
	c0,0.756-0.157,1.41-0.472,1.963c-0.315,0.555-0.729,1.006-1.239,1.355c-0.511,0.35-1.096,0.607-1.753,0.775
	c-0.658,0.169-1.33,0.253-2.016,0.253c-0.238,0-0.518,0-0.84,0s-0.658-0.011-1.008-0.031c-0.35-0.021-0.7-0.05-1.05-0.084
	s-0.658-0.087-0.924-0.157v-14.47c0.518-0.084,1.12-0.153,1.806-0.21c0.686-0.056,1.435-0.084,2.247-0.084
	c0.546,0,1.103,0.046,1.669,0.137c0.567,0.092,1.082,0.266,1.543,0.525c0.462,0.259,0.843,0.619,1.145,1.081
	C291.208,49.203,291.356,49.801,291.356,50.528z M285.33,53.637c0.238,0,0.525-0.008,0.861-0.021
	c0.336-0.013,0.616-0.035,0.84-0.063c0.336-0.112,0.651-0.249,0.945-0.41c0.294-0.16,0.556-0.35,0.788-0.566
	c0.231-0.217,0.413-0.469,0.546-0.756c0.133-0.287,0.199-0.6,0.199-0.936c0-0.461-0.087-0.843-0.262-1.146
	c-0.175-0.301-0.41-0.542-0.704-0.725c-0.294-0.182-0.63-0.311-1.008-0.389c-0.378-0.076-0.763-0.115-1.155-0.115
	c-0.462,0-0.886,0.011-1.271,0.031c-0.385,0.021-0.675,0.053-0.872,0.096v4.998L285.33,53.637L285.33,53.637z M286.484,60.523
	c0.448,0,0.882-0.053,1.302-0.156c0.42-0.105,0.791-0.273,1.113-0.504c0.322-0.231,0.578-0.516,0.767-0.852
	c0.189-0.337,0.284-0.734,0.284-1.197c0-0.574-0.116-1.035-0.347-1.385s-0.532-0.623-0.903-0.819
	c-0.371-0.196-0.788-0.329-1.25-0.399c-0.462-0.07-0.924-0.105-1.386-0.105h-1.827v5.271c0.098,0.027,0.238,0.049,0.42,0.063
	c0.182,0.016,0.378,0.029,0.588,0.043c0.21,0.015,0.427,0.024,0.651,0.031C286.12,60.521,286.316,60.523,286.484,60.523z"/>
<path fill="#F2F2F2" d="M301.751,61.176c-0.42,0.309-0.917,0.543-1.491,0.703s-1.176,0.241-1.806,0.241
	c-0.812,0-1.498-0.13-2.058-0.39c-0.56-0.258-1.019-0.629-1.375-1.111c-0.357-0.482-0.616-1.064-0.777-1.744
	c-0.161-0.678-0.242-1.432-0.242-2.257c0-1.778,0.392-3.14,1.176-4.085c0.784-0.944,1.911-1.417,3.381-1.417
	c0.673,0,1.242,0.052,1.711,0.157c0.47,0.105,0.894,0.256,1.271,0.451l-0.483,1.449c-0.321-0.182-0.679-0.325-1.07-0.43
	c-0.393-0.105-0.813-0.158-1.261-0.158c-1.988,0-2.981,1.344-2.981,4.032c0,0.531,0.053,1.039,0.158,1.521s0.28,0.91,0.525,1.281
	c0.245,0.371,0.567,0.668,0.966,0.893s0.893,0.336,1.48,0.336c0.504,0,0.956-0.076,1.354-0.23c0.399-0.152,0.726-0.329,0.978-0.523
	L301.751,61.176z"/>
<path fill="#F2F2F2" d="M311.47,61.027c-0.42,0.336-0.949,0.604-1.586,0.799s-1.313,0.294-2.025,0.294
	c-0.799,0-1.491-0.13-2.079-0.39c-0.588-0.258-1.071-0.629-1.449-1.111s-0.658-1.061-0.84-1.732
	c-0.183-0.672-0.273-1.429-0.273-2.269c0-1.792,0.399-3.157,1.197-4.095s1.938-1.407,3.423-1.407c0.477,0,0.952,0.052,1.428,0.157
	c0.477,0.105,0.903,0.305,1.281,0.599s0.687,0.711,0.924,1.249c0.238,0.539,0.357,1.25,0.357,2.132c0,0.462-0.042,0.974-0.126,1.533
	h-6.741c0,0.616,0.063,1.161,0.189,1.638s0.321,0.879,0.588,1.208c0.266,0.329,0.611,0.581,1.04,0.757
	c0.428,0.174,0.947,0.262,1.563,0.262c0.477,0,0.952-0.084,1.428-0.252c0.477-0.168,0.833-0.363,1.071-0.588L311.47,61.027z
	 M307.858,52.586c-0.826,0-1.488,0.217-1.984,0.651c-0.497,0.435-0.795,1.176-0.893,2.226h5.208c0-1.063-0.203-1.809-0.609-2.236
	C309.174,52.8,308.6,52.586,307.858,52.586z"/>
<path fill="#F2F2F2" d="M314.415,51.368h1.155l0.314,1.26h0.084c0.322-0.489,0.738-0.864,1.25-1.123
	c0.512-0.259,1.096-0.389,1.753-0.389c1.4,0,2.443,0.413,3.129,1.239c0.687,0.826,1.029,2.177,1.029,4.053
	c0,0.882-0.116,1.677-0.347,2.383c-0.231,0.707-0.557,1.307-0.978,1.797c-0.42,0.489-0.927,0.867-1.521,1.133
	s-1.256,0.399-1.984,0.399c-0.518,0-0.928-0.031-1.229-0.095s-0.626-0.172-0.978-0.325v4.368h-1.68L314.415,51.368L314.415,51.368z
	 M318.656,52.586c-0.714,0-1.278,0.186-1.69,0.557c-0.413,0.371-0.704,0.935-0.872,1.69v5.208c0.252,0.195,0.539,0.348,0.861,0.451
	c0.322,0.105,0.749,0.158,1.281,0.158c0.966,0,1.731-0.36,2.299-1.082c0.566-0.721,0.851-1.781,0.851-3.182
	c0-0.573-0.049-1.095-0.146-1.564c-0.099-0.469-0.255-0.867-0.473-1.197c-0.217-0.328-0.498-0.584-0.84-0.766
	C319.583,52.678,319.16,52.586,318.656,52.586z"/>
<path fill="#F2F2F2" d="M325.262,56.618c0-1.778,0.396-3.14,1.188-4.085c0.791-0.944,1.929-1.417,3.413-1.417
	c0.783,0,1.466,0.13,2.047,0.389c0.581,0.259,1.061,0.63,1.438,1.112c0.378,0.483,0.658,1.064,0.84,1.744
	c0.183,0.679,0.273,1.432,0.273,2.257c0,1.778-0.396,3.14-1.187,4.085c-0.791,0.943-1.93,1.417-3.413,1.417
	c-0.784,0-1.468-0.13-2.047-0.39c-0.581-0.258-1.062-0.629-1.438-1.111c-0.378-0.482-0.658-1.064-0.84-1.744
	C325.354,58.197,325.262,57.443,325.262,56.618z M327.005,56.618c0,0.532,0.053,1.043,0.158,1.532
	c0.104,0.49,0.269,0.918,0.493,1.281c0.224,0.364,0.518,0.657,0.882,0.883c0.364,0.224,0.805,0.336,1.323,0.336
	c1.903,0.014,2.855-1.33,2.855-4.032c0-0.546-0.052-1.063-0.157-1.554c-0.104-0.491-0.27-0.917-0.493-1.281
	c-0.225-0.363-0.519-0.654-0.883-0.871c-0.363-0.217-0.805-0.326-1.322-0.326C327.958,52.572,327.005,53.916,327.005,56.618z"/>
<path fill="#F2F2F2" d="M344.354,61.176c-0.421,0.309-0.918,0.543-1.491,0.703c-0.574,0.16-1.177,0.241-1.807,0.241
	c-0.812,0-1.498-0.13-2.058-0.39c-0.561-0.258-1.02-0.629-1.375-1.111c-0.357-0.482-0.616-1.064-0.777-1.744
	c-0.161-0.678-0.242-1.432-0.242-2.257c0-1.778,0.393-3.14,1.177-4.085c0.784-0.944,1.911-1.417,3.381-1.417
	c0.672,0,1.242,0.052,1.711,0.157s0.893,0.256,1.271,0.451l-0.482,1.449c-0.322-0.182-0.679-0.325-1.071-0.43
	c-0.392-0.105-0.813-0.158-1.26-0.158c-1.988,0-2.982,1.344-2.982,4.032c0,0.531,0.054,1.039,0.158,1.521
	c0.105,0.482,0.28,0.91,0.525,1.281s0.566,0.668,0.966,0.893c0.398,0.225,0.893,0.336,1.479,0.336c0.505,0,0.956-0.076,1.354-0.23
	c0.398-0.152,0.725-0.329,0.977-0.523L344.354,61.176z"/>
<path fill="#F2F2F2" d="M353.591,61.176c-0.42,0.309-0.917,0.543-1.491,0.703c-0.573,0.16-1.176,0.241-1.806,0.241
	c-0.812,0-1.498-0.13-2.058-0.39c-0.561-0.258-1.02-0.629-1.375-1.111c-0.357-0.482-0.616-1.064-0.777-1.744
	c-0.161-0.678-0.242-1.432-0.242-2.257c0-1.778,0.393-3.14,1.176-4.085c0.784-0.944,1.911-1.417,3.382-1.417
	c0.672,0,1.241,0.052,1.711,0.157c0.469,0.105,0.893,0.256,1.271,0.451l-0.482,1.449c-0.322-0.182-0.68-0.325-1.071-0.43
	c-0.393-0.105-0.813-0.158-1.26-0.158c-1.988,0-2.982,1.344-2.982,4.032c0,0.531,0.053,1.039,0.158,1.521
	c0.104,0.482,0.279,0.91,0.524,1.281s0.567,0.668,0.967,0.893c0.398,0.225,0.893,0.336,1.479,0.336c0.504,0,0.956-0.076,1.354-0.23
	c0.398-0.152,0.725-0.329,0.977-0.523L353.591,61.176z"/>
<path fill="#F2F2F2" d="M362.4,55.652l0.063-1.303H362.4l-0.861,1.345l-4.725,6.174h-0.967v-10.5h1.681v6.405l-0.063,1.238h0.084
	l0.819-1.303l4.725-6.342h0.987v10.5h-1.68V55.652L362.4,55.652z"/>
<path fill="#F2F2F2" d="M373.771,55.652l0.063-1.303h-0.063l-0.86,1.345l-4.726,6.174h-0.966v-10.5h1.681v6.405l-0.063,1.238h0.084
	l0.819-1.303l4.725-6.342h0.987v10.5h-1.68L373.771,55.652L373.771,55.652z M369.635,47.126c0.141,0.645,0.381,1.093,0.725,1.345
	c0.343,0.252,0.737,0.377,1.187,0.377s0.847-0.133,1.197-0.398c0.35-0.266,0.588-0.699,0.714-1.303l1.26,0.4
	c-0.126,0.812-0.485,1.435-1.081,1.868c-0.595,0.435-1.306,0.651-2.132,0.651c-0.378,0-0.752-0.049-1.124-0.147
	c-0.371-0.098-0.703-0.245-0.998-0.44c-0.294-0.196-0.546-0.448-0.756-0.756c-0.21-0.309-0.35-0.672-0.42-1.092L369.635,47.126z"/>
<path fill="#F2F2F2" d="M385.846,61.176c-0.42,0.309-0.917,0.543-1.49,0.703c-0.574,0.16-1.177,0.241-1.807,0.241
	c-0.812,0-1.498-0.13-2.058-0.39c-0.561-0.258-1.02-0.629-1.375-1.111c-0.357-0.482-0.616-1.064-0.777-1.744
	c-0.161-0.678-0.242-1.432-0.242-2.257c0-1.778,0.393-3.14,1.177-4.085c0.783-0.944,1.91-1.417,3.381-1.417
	c0.672,0,1.241,0.052,1.711,0.157c0.469,0.105,0.893,0.256,1.271,0.451l-0.482,1.449c-0.322-0.182-0.68-0.325-1.071-0.43
	s-0.813-0.158-1.26-0.158c-1.988,0-2.982,1.344-2.982,4.032c0,0.531,0.053,1.039,0.158,1.521c0.104,0.482,0.28,0.91,0.524,1.281
	c0.245,0.371,0.567,0.668,0.967,0.893c0.398,0.225,0.893,0.336,1.479,0.336c0.504,0,0.956-0.076,1.354-0.23
	c0.398-0.152,0.725-0.329,0.977-0.523L385.846,61.176z"/>
<path fill="#F2F2F2" d="M390.75,57.143h-0.966v4.727h-1.68v-10.5h1.68v4.746l0.902-0.294l3.36-4.452h1.827l-3.255,4.222
	l-0.882,0.692l1.092,0.84l3.507,4.746h-2.079L390.75,57.143z"/>
<path fill="#F2F2F2" d="M404.897,55.652l0.063-1.303h-0.063l-0.861,1.345l-4.726,6.174h-0.966v-10.5h1.681v6.405l-0.063,1.238h0.084
	l0.819-1.303l4.725-6.342h0.987v10.5h-1.68V55.652L404.897,55.652z"/>
<path fill="#F2F2F2" d="M412.563,56.492l-3.528-5.124h2.058l1.995,2.897l0.588,1.197l0.609-1.197l2.037-2.897h1.89l-3.549,5.04
	l3.759,5.46h-1.995l-2.226-3.192l-0.63-1.26l-0.651,1.26l-2.268,3.192h-1.869L412.563,56.492z"/>
<path fill="#F2F2F2" d="M430.958,61.952c-0.238,0.084-0.486,0.133-0.745,0.147c-0.26,0.014-0.494,0.021-0.704,0.021
	c-1.272,0-2.254-0.448-2.938-1.345c-0.688-0.896-1.029-2.281-1.029-4.157c0-1.792,0.378-3.143,1.134-4.054
	c0.757-0.909,1.85-1.364,3.276-1.364c0.392,0,0.728,0.028,1.008,0.084v-4.116h1.597v4.137c0.252-0.041,0.477-0.069,0.672-0.084
	c0.195-0.014,0.386-0.021,0.566-0.021c1.387,0,2.429,0.402,3.129,1.208c0.7,0.805,1.051,2.139,1.051,4
	c0,0.882-0.095,1.677-0.283,2.383c-0.188,0.707-0.467,1.307-0.829,1.797c-0.364,0.489-0.81,0.867-1.334,1.133
	s-1.132,0.399-1.816,0.399c-0.126,0-0.312-0.011-0.557-0.031s-0.444-0.06-0.599-0.116v4.096h-1.597L430.958,61.952L430.958,61.952z
	 M429.93,60.734c0.168,0,0.336-0.008,0.504-0.021c0.168-0.013,0.351-0.041,0.546-0.084V52.67c-0.168-0.027-0.325-0.049-0.473-0.063
	c-0.146-0.014-0.325-0.021-0.535-0.021c-0.869,0-1.544,0.326-2.026,0.977s-0.726,1.67-0.726,3.056c0,0.588,0.054,1.134,0.158,1.638
	c0.104,0.505,0.27,0.94,0.493,1.313c0.223,0.371,0.508,0.658,0.851,0.861C429.065,60.634,429.467,60.734,429.93,60.734z
	 M433.479,52.586c-0.169,0-0.319,0.004-0.452,0.011c-0.134,0.007-0.297,0.038-0.493,0.095v7.98c0.14,0.027,0.297,0.045,0.473,0.053
	c0.175,0.006,0.367,0.01,0.577,0.01c0.896,0,1.571-0.371,2.026-1.112c0.455-0.742,0.683-1.813,0.683-3.213
	c0-1.189-0.206-2.125-0.619-2.804C435.261,52.926,434.528,52.586,433.479,52.586z"/>
<path fill="#F2F2F2" d="M448.319,61.027c-0.42,0.336-0.949,0.604-1.586,0.799c-0.638,0.195-1.313,0.294-2.026,0.294
	c-0.798,0-1.491-0.13-2.079-0.39c-0.588-0.258-1.071-0.629-1.449-1.111s-0.658-1.061-0.84-1.732
	c-0.182-0.671-0.271-1.429-0.271-2.269c0-1.792,0.397-3.157,1.195-4.095c0.799-0.938,1.939-1.407,3.424-1.407
	c0.477,0,0.951,0.052,1.429,0.157c0.476,0.105,0.902,0.305,1.281,0.599c0.378,0.294,0.686,0.711,0.924,1.249
	c0.236,0.539,0.355,1.25,0.355,2.132c0,0.462-0.042,0.974-0.126,1.533h-6.74c0,0.616,0.063,1.161,0.188,1.638
	c0.126,0.477,0.322,0.879,0.588,1.208c0.267,0.329,0.612,0.581,1.04,0.757c0.427,0.174,0.948,0.262,1.564,0.262
	c0.476,0,0.95-0.084,1.428-0.252c0.476-0.168,0.833-0.363,1.071-0.588L448.319,61.027z M444.707,52.586
	c-0.826,0-1.487,0.217-1.984,0.651c-0.497,0.434-0.795,1.176-0.893,2.226h5.208c0-1.063-0.203-1.809-0.609-2.236
	C446.022,52.8,445.449,52.586,444.707,52.586z"/>
<path fill="#F2F2F2" d="M458.559,61.176c-0.42,0.309-0.917,0.543-1.49,0.703c-0.574,0.16-1.177,0.241-1.807,0.241
	c-0.813,0-1.499-0.13-2.059-0.39c-0.561-0.258-1.02-0.629-1.375-1.111c-0.357-0.482-0.616-1.064-0.777-1.744
	c-0.161-0.678-0.241-1.432-0.241-2.257c0-1.778,0.393-3.14,1.177-4.085c0.783-0.944,1.911-1.417,3.381-1.417
	c0.672,0,1.242,0.052,1.712,0.157c0.469,0.105,0.893,0.256,1.271,0.451l-0.482,1.449c-0.322-0.182-0.679-0.325-1.071-0.43
	c-0.392-0.105-0.812-0.158-1.26-0.158c-1.988,0-2.981,1.344-2.981,4.032c0,0.531,0.053,1.039,0.157,1.521s0.279,0.91,0.524,1.281
	s0.566,0.668,0.967,0.893c0.397,0.225,0.893,0.336,1.479,0.336c0.504,0,0.955-0.076,1.354-0.23c0.397-0.152,0.725-0.329,0.977-0.523
	L458.559,61.176z"/>
<path fill="#F2F2F2" d="M468.219,52.838h-3.298v9.03h-1.68v-9.03h-3.297v-1.47h8.273L468.219,52.838L468.219,52.838z"/>
<path fill="#F2F2F2" d="M476.719,55.652l0.063-1.303h-0.063l-0.86,1.345l-4.726,6.174h-0.966v-10.5h1.68v6.405l-0.063,1.238h0.084
	l0.817-1.303l4.727-6.342h0.986v10.5h-1.681L476.719,55.652L476.719,55.652z"/>
<path fill="#F2F2F2" d="M481.538,51.389c0.489-0.027,1.004-0.063,1.543-0.104s1.208-0.063,2.006-0.063
	c1.386,0,2.38,0.214,2.982,0.641c0.602,0.428,0.901,1.074,0.901,1.943c0,0.49-0.144,0.969-0.431,1.438
	c-0.287,0.47-0.759,0.816-1.417,1.04v0.084c0.826,0.153,1.407,0.44,1.743,0.86s0.504,0.979,0.504,1.681
	c0,1.092-0.394,1.883-1.176,2.372c-0.784,0.49-1.961,0.736-3.528,0.736c-0.588,0-1.134-0.019-1.638-0.054
	c-0.505-0.034-1.002-0.073-1.491-0.114L481.538,51.389L481.538,51.389z M485.276,55.799c0.252,0,0.496-0.041,0.733-0.125
	c0.238-0.084,0.451-0.2,0.642-0.348c0.188-0.146,0.343-0.318,0.462-0.514s0.179-0.406,0.179-0.631c0-0.559-0.168-0.947-0.504-1.165
	c-0.336-0.217-0.924-0.325-1.765-0.325c-0.448,0-0.802,0.007-1.061,0.021c-0.26,0.014-0.508,0.027-0.746,0.041v3.045L485.276,55.799
	L485.276,55.799z M483.218,60.461c0.267,0.027,0.528,0.049,0.788,0.063c0.259,0.016,0.563,0.021,0.913,0.021
	c0.938,0,1.635-0.133,2.09-0.398c0.454-0.266,0.683-0.721,0.683-1.365c0-0.504-0.192-0.913-0.577-1.229
	c-0.386-0.314-1.067-0.473-2.048-0.473h-1.849V60.461z"/>
<path fill="#F2F2F2" d="M492.042,52.145c0.531-0.321,1.151-0.559,1.858-0.713c0.707-0.154,1.444-0.231,2.216-0.231
	c0.728,0,1.313,0.099,1.753,0.294c0.44,0.196,0.776,0.451,1.008,0.767c0.231,0.315,0.385,0.661,0.462,1.04
	c0.077,0.377,0.116,0.756,0.116,1.133c0,0.84-0.021,1.66-0.063,2.458c-0.042,0.799-0.063,1.555-0.063,2.269
	c0,0.519,0.021,1.008,0.063,1.47c0.042,0.463,0.119,0.891,0.231,1.281h-1.239l-0.44-1.471h-0.104
	c-0.126,0.197-0.283,0.389-0.473,0.578c-0.188,0.188-0.417,0.356-0.684,0.504c-0.266,0.146-0.573,0.27-0.924,0.367
	s-0.749,0.146-1.197,0.146c-0.447,0-0.863-0.07-1.249-0.21s-0.718-0.341-0.997-0.599c-0.28-0.26-0.5-0.57-0.661-0.936
	c-0.161-0.363-0.241-0.777-0.241-1.238c0-0.615,0.126-1.131,0.378-1.543c0.252-0.414,0.604-0.742,1.061-0.988
	c0.454-0.244,1-0.419,1.639-0.524c0.637-0.104,1.341-0.156,2.109-0.156c0.196,0,0.39,0,0.578,0s0.381,0.014,0.577,0.041
	c0.042-0.42,0.063-0.798,0.063-1.134c0-0.77-0.154-1.309-0.463-1.616c-0.308-0.309-0.867-0.463-1.68-0.463
	c-0.238,0-0.493,0.018-0.767,0.055c-0.272,0.035-0.554,0.086-0.84,0.15c-0.287,0.065-0.562,0.145-0.819,0.238
	c-0.258,0.093-0.486,0.197-0.683,0.313L492.042,52.145z M495.023,60.566c0.393,0,0.741-0.053,1.051-0.158
	c0.308-0.104,0.573-0.237,0.798-0.398c0.224-0.16,0.409-0.34,0.557-0.535c0.146-0.195,0.255-0.385,0.325-0.566v-1.743
	c-0.196-0.015-0.396-0.024-0.599-0.03c-0.203-0.008-0.402-0.012-0.6-0.012c-0.434,0-0.856,0.023-1.271,0.072
	c-0.413,0.051-0.777,0.142-1.092,0.273c-0.315,0.133-0.567,0.314-0.757,0.547c-0.188,0.23-0.283,0.521-0.283,0.871
	c0,0.49,0.176,0.893,0.524,1.207C494.027,60.408,494.478,60.566,495.023,60.566z"/>
<path fill="#F2F2F2" d="M508.745,52.838H505.7c-0.042,0.588-0.084,1.222-0.126,1.9c-0.042,0.68-0.104,1.358-0.188,2.038
	c-0.084,0.68-0.195,1.33-0.336,1.953s-0.318,1.172-0.536,1.647c-0.217,0.478-0.481,0.856-0.798,1.146
	c-0.313,0.287-0.688,0.431-1.123,0.431c-0.267,0-0.497-0.015-0.692-0.042c-0.196-0.028-0.371-0.076-0.525-0.146l0.253-1.408
	c0.168,0.058,0.35,0.084,0.546,0.084c0.279,0,0.531-0.117,0.756-0.355c0.225-0.236,0.42-0.689,0.588-1.354
	c0.169-0.664,0.309-1.586,0.421-2.762c0.111-1.176,0.188-2.709,0.23-4.599h6.258v10.5h-1.681L508.745,52.838L508.745,52.838z"/>
<path fill="#F2F2F2" d="M521.33,61.027c-0.42,0.336-0.949,0.604-1.586,0.799s-1.313,0.294-2.026,0.294
	c-0.798,0-1.491-0.13-2.079-0.39c-0.588-0.258-1.07-0.629-1.448-1.111s-0.658-1.061-0.841-1.732
	c-0.182-0.671-0.271-1.429-0.271-2.269c0-1.792,0.397-3.157,1.196-4.095s1.938-1.407,3.424-1.407c0.476,0,0.951,0.052,1.428,0.157
	s0.903,0.305,1.281,0.599s0.686,0.711,0.924,1.249c0.237,0.539,0.356,1.25,0.356,2.132c0,0.462-0.042,0.974-0.126,1.533h-6.74
	c0,0.616,0.063,1.161,0.188,1.638c0.126,0.477,0.322,0.879,0.588,1.208c0.267,0.329,0.612,0.581,1.04,0.757
	c0.428,0.174,0.948,0.262,1.564,0.262c0.476,0,0.951-0.084,1.428-0.252s0.833-0.363,1.071-0.588L521.33,61.027z M517.718,52.586
	c-0.826,0-1.486,0.217-1.983,0.651c-0.497,0.434-0.795,1.176-0.894,2.226h5.208c0-1.063-0.203-1.809-0.608-2.236
	C519.033,52.8,518.46,52.586,517.718,52.586z"/>
<path fill="#F2F2F2" d="M530.826,55.652l0.063-1.303h-0.063l-0.861,1.345l-4.725,6.174h-0.966v-10.5h1.68v6.405l-0.063,1.238h0.084
	l0.818-1.303l4.726-6.342h0.986v10.5h-1.68L530.826,55.652L530.826,55.652z M526.689,47.126c0.14,0.645,0.381,1.093,0.725,1.345
	c0.343,0.252,0.738,0.377,1.187,0.377c0.447,0,0.848-0.133,1.196-0.398c0.352-0.266,0.588-0.699,0.714-1.303l1.262,0.4
	c-0.127,0.812-0.487,1.435-1.082,1.868c-0.596,0.435-1.307,0.651-2.132,0.651c-0.378,0-0.753-0.049-1.124-0.147
	c-0.37-0.098-0.702-0.245-0.996-0.44c-0.295-0.196-0.547-0.448-0.757-0.756c-0.21-0.309-0.351-0.672-0.421-1.092L526.689,47.126z"/>
<path fill="#F2F2F2" d="M547.899,55.652l0.063-1.303h-0.063l-0.861,1.345l-4.725,6.174h-0.967v-10.5h1.681v6.405l-0.063,1.238h0.084
	l0.818-1.303l4.726-6.342h0.986v10.5h-1.68L547.899,55.652L547.899,55.652z"/>
<path fill="#F2F2F2" d="M559.513,51.368v2.856c0,0.377,0.021,0.717,0.063,1.018c0.042,0.302,0.126,0.561,0.252,0.777
	s0.308,0.385,0.546,0.504c0.237,0.119,0.553,0.179,0.944,0.179c0.63,0,1.147-0.069,1.555-0.21c0.405-0.14,0.714-0.294,0.924-0.462
	v-4.662h1.68v10.5h-1.68v-4.41c-0.225,0.14-0.557,0.294-0.998,0.462c-0.439,0.168-1.046,0.252-1.815,0.252
	c-0.519,0-0.974-0.056-1.364-0.168c-0.394-0.111-0.722-0.309-0.987-0.588c-0.267-0.279-0.466-0.65-0.599-1.113
	c-0.133-0.461-0.199-1.043-0.199-1.742v-3.192L559.513,51.368L559.513,51.368z"/>
<path fill="#F2F2F2" d="M576.382,61.027c-0.42,0.336-0.949,0.604-1.586,0.799s-1.313,0.294-2.025,0.294
	c-0.799,0-1.491-0.13-2.079-0.39c-0.588-0.258-1.071-0.629-1.449-1.111s-0.658-1.061-0.84-1.732
	c-0.183-0.671-0.272-1.429-0.272-2.269c0-1.792,0.398-3.157,1.196-4.095c0.799-0.938,1.938-1.407,3.424-1.407
	c0.476,0,0.951,0.052,1.428,0.157s0.903,0.305,1.281,0.599s0.687,0.711,0.924,1.249c0.237,0.539,0.356,1.25,0.356,2.132
	c0,0.462-0.042,0.974-0.126,1.533h-6.74c0,0.616,0.063,1.161,0.188,1.638c0.126,0.477,0.321,0.879,0.588,1.208
	c0.266,0.329,0.611,0.581,1.04,0.757c0.427,0.174,0.947,0.262,1.563,0.262c0.477,0,0.951-0.084,1.428-0.252s0.833-0.363,1.071-0.588
	L576.382,61.027z M572.771,52.586c-0.826,0-1.487,0.217-1.984,0.651c-0.497,0.434-0.795,1.176-0.894,2.226h5.208
	c0-1.063-0.202-1.809-0.608-2.236C574.085,52.8,573.512,52.586,572.771,52.586z"/>
<path fill="#F2F2F2" d="M587.999,55.631l0.126-1.994h-0.104l-0.757,1.616l-2.541,4.116h-0.588l-2.646-4.116l-0.693-1.616h-0.084
	l0.168,1.974v6.258h-1.554v-10.5h1.659l2.938,4.704l0.609,1.218h0.042l0.63-1.26l2.751-4.662h1.68v10.5h-1.638L587.999,55.631
	L587.999,55.631z"/>
<path fill="#F2F2F2" d="M599.092,52.838h-4.642v9.03h-1.681v-10.5h8.001v10.5h-1.68L599.092,52.838L599.092,52.838z"/>
<path fill="#F2F2F2" d="M610.466,55.652l0.063-1.303h-0.063l-0.861,1.345l-4.725,6.174h-0.966v-10.5h1.68v6.405l-0.063,1.238h0.084
	l0.817-1.303l4.727-6.342h0.986v10.5h-1.681L610.466,55.652L610.466,55.652z"/>
<path fill="#F2F2F2" d="M614.792,56.618c0-1.778,0.396-3.14,1.188-4.085c0.789-0.944,1.928-1.417,3.411-1.417
	c0.784,0,1.468,0.13,2.048,0.389c0.58,0.259,1.062,0.63,1.438,1.112c0.378,0.483,0.657,1.064,0.84,1.744
	c0.183,0.679,0.272,1.432,0.272,2.257c0,1.778-0.396,3.14-1.188,4.085c-0.791,0.943-1.929,1.417-3.412,1.417
	c-0.783,0-1.467-0.13-2.048-0.39c-0.581-0.258-1.061-0.629-1.438-1.111c-0.378-0.482-0.658-1.064-0.841-1.744
	C614.883,58.197,614.792,57.443,614.792,56.618z M616.535,56.618c0,0.532,0.052,1.043,0.157,1.532
	c0.104,0.49,0.27,0.918,0.492,1.281c0.225,0.364,0.519,0.657,0.883,0.883c0.363,0.224,0.806,0.336,1.322,0.336
	c1.904,0.014,2.856-1.33,2.856-4.032c0-0.546-0.053-1.063-0.158-1.554c-0.104-0.49-0.27-0.917-0.493-1.281
	c-0.224-0.363-0.519-0.654-0.882-0.871c-0.364-0.217-0.806-0.326-1.323-0.326C617.486,52.572,616.535,53.916,616.535,56.618z"/>
<path fill="#F2F2F2" d="M633.037,57.227h-4.746v4.643h-1.68v-10.5h1.68v4.39h4.746v-4.39h1.68v10.5h-1.68V57.227z"/>
<path fill="#F2F2F2" d="M637.72,52.145c0.531-0.321,1.151-0.559,1.858-0.713c0.707-0.154,1.444-0.231,2.216-0.231
	c0.729,0,1.313,0.099,1.753,0.294c0.441,0.196,0.777,0.451,1.008,0.767c0.231,0.315,0.386,0.661,0.462,1.04
	c0.077,0.377,0.116,0.756,0.116,1.133c0,0.84-0.021,1.66-0.063,2.458c-0.042,0.799-0.063,1.555-0.063,2.269
	c0,0.519,0.021,1.008,0.063,1.47c0.042,0.463,0.118,0.891,0.23,1.281h-1.239l-0.44-1.471h-0.104
	c-0.126,0.197-0.282,0.389-0.473,0.578c-0.188,0.188-0.417,0.356-0.683,0.504c-0.267,0.146-0.574,0.27-0.925,0.367
	s-0.749,0.146-1.196,0.146c-0.448,0-0.864-0.07-1.249-0.21c-0.387-0.14-0.719-0.341-0.998-0.599c-0.28-0.26-0.5-0.57-0.661-0.936
	c-0.161-0.363-0.241-0.777-0.241-1.238c0-0.615,0.126-1.131,0.378-1.543c0.252-0.414,0.605-0.742,1.062-0.988
	c0.453-0.244,1-0.419,1.638-0.524c0.637-0.104,1.341-0.156,2.11-0.156c0.195,0,0.389,0,0.577,0s0.382,0.014,0.577,0.041
	c0.042-0.42,0.063-0.798,0.063-1.134c0-0.77-0.154-1.309-0.462-1.616c-0.309-0.309-0.868-0.463-1.681-0.463
	c-0.237,0-0.492,0.018-0.767,0.055c-0.272,0.035-0.553,0.086-0.84,0.15c-0.287,0.065-0.562,0.145-0.819,0.238
	c-0.258,0.093-0.486,0.197-0.683,0.313L637.72,52.145z M640.701,60.566c0.393,0,0.742-0.053,1.051-0.158
	c0.308-0.104,0.573-0.237,0.798-0.398c0.225-0.16,0.409-0.34,0.558-0.535c0.146-0.195,0.255-0.385,0.324-0.566v-1.743
	c-0.195-0.015-0.396-0.024-0.599-0.03c-0.203-0.008-0.402-0.012-0.599-0.012c-0.435,0-0.857,0.023-1.271,0.072
	c-0.413,0.051-0.776,0.142-1.092,0.273c-0.315,0.133-0.567,0.314-0.756,0.547c-0.189,0.23-0.284,0.521-0.284,0.871
	c0,0.49,0.176,0.893,0.525,1.207C639.705,60.408,640.155,60.566,640.701,60.566z"/>
<path fill="#F2F2F2" d="M655.259,52.838h-3.298v9.03h-1.68v-9.03h-3.297v-1.47h8.273L655.259,52.838L655.259,52.838z"/>
<path fill="#F2F2F2" d="M656.566,56.618c0-1.778,0.396-3.14,1.187-4.085c0.79-0.944,1.928-1.417,3.412-1.417
	c0.784,0,1.467,0.13,2.048,0.389c0.58,0.259,1.062,0.63,1.438,1.112c0.378,0.483,0.656,1.064,0.84,1.744
	c0.182,0.679,0.271,1.432,0.271,2.257c0,1.778-0.396,3.14-1.187,4.085c-0.791,0.943-1.93,1.417-3.412,1.417
	c-0.784,0-1.467-0.13-2.048-0.39c-0.581-0.258-1.062-0.629-1.438-1.111c-0.378-0.482-0.658-1.064-0.84-1.744
	C656.657,58.197,656.566,57.443,656.566,56.618z M658.31,56.618c0,0.532,0.053,1.043,0.157,1.532
	c0.104,0.49,0.271,0.918,0.493,1.281c0.224,0.364,0.518,0.657,0.882,0.883c0.364,0.224,0.807,0.336,1.323,0.336
	c1.904,0.014,2.855-1.33,2.855-4.032c0-0.546-0.053-1.063-0.157-1.554c-0.104-0.49-0.271-0.917-0.493-1.281
	c-0.225-0.363-0.52-0.654-0.882-0.871c-0.364-0.217-0.807-0.326-1.323-0.326C659.261,52.572,658.31,53.916,658.31,56.618z"/>
<path fill="#F2F2F2" d="M668.386,51.389c0.489-0.027,1.004-0.063,1.543-0.104s1.208-0.063,2.006-0.063
	c1.387,0,2.381,0.214,2.982,0.641c0.602,0.428,0.902,1.074,0.902,1.943c0,0.49-0.145,0.969-0.432,1.438
	c-0.287,0.47-0.759,0.816-1.417,1.04v0.084c0.826,0.153,1.407,0.44,1.743,0.86s0.504,0.979,0.504,1.681
	c0,1.092-0.393,1.883-1.176,2.372c-0.784,0.49-1.961,0.736-3.528,0.736c-0.588,0-1.134-0.019-1.638-0.054
	c-0.505-0.034-1.002-0.073-1.491-0.114L668.386,51.389L668.386,51.389z M672.124,55.799c0.252,0,0.496-0.041,0.734-0.125
	c0.237-0.084,0.45-0.2,0.641-0.348c0.189-0.146,0.343-0.318,0.462-0.514s0.179-0.406,0.179-0.631c0-0.559-0.168-0.947-0.504-1.165
	c-0.336-0.217-0.924-0.325-1.765-0.325c-0.448,0-0.801,0.007-1.061,0.021s-0.508,0.027-0.745,0.041v3.045L672.124,55.799
	L672.124,55.799z M670.065,60.461c0.266,0.027,0.527,0.049,0.787,0.063c0.26,0.016,0.563,0.021,0.913,0.021
	c0.938,0,1.636-0.133,2.091-0.398c0.453-0.266,0.682-0.721,0.682-1.365c0-0.504-0.192-0.913-0.577-1.229
	c-0.385-0.314-1.067-0.473-2.048-0.473h-1.848V60.461L670.065,60.461z"/>
<path fill="#F2F2F2" d="M99.923,86.039h-4.641v9.029h-1.68v-10.5h8.001v10.5h-1.68V86.039z"/>
<path fill="#F2F2F2" d="M104.272,89.818c0-1.777,0.396-3.141,1.187-4.084c0.791-0.945,1.929-1.418,3.413-1.418
	c0.784,0,1.466,0.129,2.047,0.389c0.581,0.259,1.061,0.63,1.438,1.113c0.378,0.481,0.658,1.063,0.84,1.742
	c0.182,0.68,0.273,1.432,0.273,2.258c0,1.777-0.396,3.14-1.187,4.084c-0.791,0.945-1.929,1.418-3.413,1.418
	c-0.784,0-1.467-0.129-2.047-0.389c-0.581-0.26-1.061-0.631-1.438-1.113c-0.378-0.482-0.658-1.063-0.84-1.742
	C104.363,91.396,104.272,90.645,104.272,89.818z M106.015,89.818c0,0.531,0.053,1.043,0.158,1.533
	c0.105,0.489,0.269,0.916,0.493,1.28c0.224,0.363,0.518,0.658,0.882,0.882c0.364,0.225,0.805,0.336,1.323,0.336
	c1.904,0.014,2.856-1.33,2.856-4.031c0-0.547-0.052-1.064-0.157-1.555s-0.27-0.916-0.494-1.281
	c-0.224-0.363-0.518-0.653-0.882-0.871c-0.364-0.217-0.805-0.325-1.323-0.325C106.967,85.771,106.015,87.117,106.015,89.818z"/>
<path fill="#F2F2F2" d="M122.689,86.438c0.462-0.672,0.973-1.145,1.533-1.418c0.56-0.271,1.26-0.408,2.1-0.408
	c1.288,0,2.279,0.42,2.972,1.26c0.693,0.841,1.04,2.079,1.04,3.718c0,1.89-0.403,3.317-1.208,4.283
	c-0.805,0.967-1.929,1.448-3.371,1.448c-1.54,0-2.695-0.53-3.465-1.596c-0.77-1.063-1.155-2.736-1.155-5.02
	c0-1.203,0.06-2.232,0.179-3.087s0.294-1.575,0.525-2.163s0.511-1.057,0.84-1.406c0.329-0.349,0.7-0.627,1.113-0.83
	s0.864-0.346,1.354-0.43c0.49-0.084,1.015-0.154,1.575-0.211c0.728-0.07,1.298-0.15,1.711-0.241s0.745-0.255,0.998-0.493
	l0.189,1.512c-0.14,0.127-0.294,0.23-0.462,0.314c-0.168,0.084-0.371,0.154-0.609,0.211c-0.238,0.057-0.521,0.104-0.851,0.146
	c-0.33,0.041-0.71,0.076-1.145,0.104c-0.602,0.041-1.13,0.115-1.585,0.222c-0.455,0.104-0.847,0.308-1.176,0.607
	c-0.329,0.303-0.588,0.729-0.777,1.28c-0.189,0.554-0.319,1.284-0.389,2.194h0.064V86.438z M122.878,89.84
	c0,0.531,0.056,1.043,0.168,1.533c0.112,0.49,0.284,0.92,0.515,1.291s0.528,0.661,0.893,0.871c0.364,0.21,0.791,0.314,1.281,0.314
	c0.966,0,1.684-0.347,2.152-1.039c0.469-0.693,0.704-1.72,0.704-3.076c0-0.531-0.049-1.021-0.147-1.471
	c-0.098-0.447-0.252-0.836-0.462-1.166c-0.21-0.328-0.476-0.58-0.798-0.756c-0.322-0.175-0.707-0.263-1.155-0.263
	c-1.092-0.015-1.89,0.306-2.394,0.955C123.13,87.688,122.878,88.621,122.878,89.84z"/>
<path fill="#F2F2F2" d="M132.92,84.568h1.155l0.315,1.26h0.084c0.322-0.49,0.738-0.864,1.25-1.123
	c0.511-0.26,1.095-0.389,1.753-0.389c1.4,0,2.443,0.412,3.129,1.238c0.686,0.825,1.029,2.178,1.029,4.053
	c0,0.883-0.116,1.678-0.347,2.385s-0.556,1.305-0.977,1.795c-0.42,0.49-0.927,0.869-1.522,1.135
	c-0.595,0.266-1.256,0.398-1.984,0.398c-0.518,0-0.928-0.031-1.229-0.094c-0.301-0.063-0.626-0.172-0.977-0.326v4.367h-1.68
	L132.92,84.568L132.92,84.568z M137.162,85.786c-0.714,0-1.278,0.187-1.69,0.558c-0.413,0.37-0.704,0.934-0.872,1.689v5.208
	c0.252,0.196,0.539,0.347,0.861,0.452c0.322,0.104,0.749,0.156,1.281,0.156c0.966,0,1.732-0.359,2.299-1.08
	c0.567-0.723,0.851-1.783,0.851-3.183c0-0.573-0.049-1.096-0.147-1.563c-0.098-0.469-0.255-0.869-0.472-1.197
	c-0.217-0.329-0.498-0.584-0.84-0.768C138.089,85.877,137.666,85.786,137.162,85.786z"/>
<path fill="#F2F2F2" d="M152.022,94.229c-0.42,0.336-0.949,0.603-1.586,0.799c-0.637,0.195-1.313,0.293-2.026,0.293
	c-0.798,0-1.491-0.129-2.079-0.389c-0.588-0.259-1.071-0.629-1.449-1.113c-0.378-0.481-0.658-1.061-0.84-1.731
	c-0.182-0.672-0.273-1.428-0.273-2.269c0-1.791,0.399-3.155,1.197-4.096c0.798-0.938,1.939-1.406,3.423-1.406
	c0.476,0,0.952,0.054,1.428,0.158s0.903,0.305,1.281,0.598c0.378,0.295,0.686,0.712,0.924,1.25c0.238,0.539,0.357,1.25,0.357,2.132
	c0,0.463-0.042,0.974-0.126,1.532h-6.741c0,0.617,0.063,1.162,0.189,1.64c0.126,0.476,0.322,0.878,0.588,1.207
	s0.612,0.581,1.04,0.756c0.427,0.177,0.948,0.263,1.564,0.263c0.476,0,0.952-0.084,1.428-0.252c0.476-0.168,0.833-0.363,1.071-0.588
	L152.022,94.229z M148.41,85.786c-0.826,0-1.488,0.218-1.984,0.651c-0.497,0.434-0.795,1.176-0.893,2.227h5.208
	c0-1.064-0.203-1.811-0.609-2.236C149.726,86,149.152,85.786,148.41,85.786z"/>
<path fill="#F2F2F2" d="M161.518,88.854l0.063-1.303h-0.063l-0.861,1.344l-4.725,6.174h-0.966v-10.5h1.68v6.404l-0.063,1.24h0.084
	l0.819-1.303l4.725-6.342h0.987v10.5h-1.68V88.854z M157.381,80.326c0.14,0.645,0.381,1.092,0.724,1.344
	c0.343,0.252,0.738,0.379,1.187,0.379s0.847-0.133,1.197-0.398c0.35-0.267,0.588-0.7,0.714-1.303l1.26,0.398
	c-0.126,0.813-0.486,1.436-1.081,1.869c-0.595,0.434-1.306,0.65-2.132,0.65c-0.378,0-0.752-0.05-1.124-0.146
	c-0.372-0.098-0.703-0.244-0.998-0.441c-0.294-0.195-0.546-0.447-0.756-0.756c-0.21-0.307-0.35-0.672-0.42-1.092L157.381,80.326z"/>
<path fill="#F2F2F2" d="M168.983,90.344h-0.966v4.725h-1.68v-10.5h1.68v4.746l0.903-0.293l3.36-4.453h1.827l-3.255,4.222
	l-0.882,0.692l1.092,0.84l3.507,4.746h-2.079L168.983,90.344z"/>
<path fill="#F2F2F2" d="M174.846,88.243h5.082v1.554h-5.082V88.243z"/>
<path fill="#F2F2F2" d="M191.289,97.734h-1.134l-0.315-2.666h-7.896l-0.315,2.666h-1.134v-4.137h1.239
	c0.112-0.154,0.259-0.431,0.441-0.828c0.182-0.4,0.36-0.959,0.535-1.682c0.175-0.721,0.329-1.617,0.462-2.688
	c0.133-1.07,0.213-2.348,0.241-3.832h6.342v9.029h1.533L191.289,97.734L191.289,97.734z M188.076,93.598v-7.559h-3.15
	c-0.028,0.588-0.077,1.229-0.147,1.921c-0.07,0.692-0.165,1.386-0.284,2.079s-0.27,1.348-0.452,1.963
	c-0.182,0.617-0.392,1.148-0.63,1.596H188.076z"/>
<path fill="#F2F2F2" d="M193.584,85.346c0.532-0.322,1.151-0.561,1.858-0.715c0.707-0.152,1.445-0.23,2.215-0.23
	c0.728,0,1.313,0.099,1.753,0.295c0.44,0.195,0.777,0.451,1.008,0.767s0.385,0.662,0.462,1.039c0.077,0.379,0.115,0.756,0.115,1.136
	c0,0.84-0.021,1.657-0.063,2.457c-0.042,0.797-0.063,1.553-0.063,2.268c0,0.518,0.021,1.008,0.063,1.471
	c0.042,0.461,0.119,0.889,0.231,1.279h-1.239l-0.441-1.469h-0.105c-0.126,0.194-0.284,0.389-0.473,0.576
	c-0.189,0.188-0.417,0.356-0.683,0.504c-0.266,0.148-0.574,0.271-0.924,0.368c-0.35,0.099-0.749,0.146-1.197,0.146
	c-0.448,0-0.865-0.069-1.25-0.209c-0.385-0.141-0.718-0.34-0.998-0.6c-0.28-0.259-0.501-0.57-0.662-0.935s-0.242-0.776-0.242-1.239
	c0-0.615,0.126-1.13,0.378-1.543s0.605-0.742,1.061-0.986c0.456-0.246,1.001-0.42,1.638-0.524c0.637-0.104,1.34-0.158,2.11-0.158
	c0.196,0,0.389,0,0.578,0s0.381,0.015,0.578,0.043c0.042-0.42,0.063-0.799,0.063-1.135c0-0.771-0.154-1.31-0.462-1.617
	s-0.869-0.462-1.68-0.462c-0.238,0-0.494,0.02-0.767,0.054c-0.273,0.037-0.553,0.087-0.84,0.152
	c-0.287,0.063-0.56,0.144-0.819,0.237c-0.259,0.092-0.487,0.197-0.683,0.313L193.584,85.346z M196.566,93.768
	c0.392,0,0.742-0.054,1.05-0.158c0.308-0.104,0.574-0.237,0.798-0.398s0.41-0.339,0.557-0.536c0.147-0.194,0.255-0.385,0.326-0.565
	v-1.744c-0.196-0.014-0.396-0.023-0.599-0.03c-0.203-0.007-0.403-0.011-0.599-0.011c-0.434,0-0.857,0.025-1.271,0.074
	s-0.777,0.14-1.092,0.271c-0.315,0.135-0.567,0.314-0.756,0.546s-0.284,0.521-0.284,0.871c0,0.49,0.175,0.894,0.525,1.208
	C195.571,93.609,196.02,93.768,196.566,93.768z"/>
<path fill="#F2F2F2" d="M210.51,90.428h-4.746v4.641h-1.68v-10.5h1.68v4.39h4.746v-4.39h1.68v10.5h-1.68V90.428z"/>
<path fill="#F2F2F2" d="M222.618,94.375c-0.42,0.309-0.917,0.543-1.491,0.704c-0.574,0.161-1.176,0.241-1.806,0.241
	c-0.812,0-1.498-0.129-2.058-0.389s-1.019-0.631-1.375-1.113c-0.357-0.482-0.616-1.063-0.777-1.742
	c-0.161-0.68-0.242-1.432-0.242-2.258c0-1.777,0.392-3.141,1.176-4.084c0.784-0.945,1.911-1.418,3.381-1.418
	c0.672,0,1.242,0.053,1.711,0.156c0.469,0.105,0.893,0.256,1.271,0.452l-0.483,1.449c-0.322-0.183-0.679-0.326-1.071-0.433
	c-0.392-0.104-0.813-0.156-1.26-0.156c-1.988,0-2.982,1.345-2.982,4.031c0,0.533,0.053,1.039,0.158,1.522s0.28,0.91,0.525,1.281
	s0.567,0.669,0.966,0.892c0.399,0.225,0.893,0.338,1.48,0.338c0.504,0,0.956-0.078,1.354-0.231c0.398-0.154,0.725-0.328,0.977-0.524
	L222.618,94.375z"/>
<path fill="#F2F2F2" d="M228.526,91.373l0.59,2.016h0.105l0.464-2.037l2.044-6.783h1.68l-3.108,9.431
	c-0.238,0.687-0.472,1.351-0.703,1.994s-0.487,1.219-0.767,1.723c-0.28,0.505-0.595,0.906-0.945,1.207
	c-0.35,0.302-0.756,0.451-1.218,0.451c-0.504,0-0.917-0.069-1.239-0.209l0.294-1.449c0.182,0.069,0.357,0.104,0.525,0.104
	c0.392,0,0.77-0.207,1.134-0.62c0.364-0.412,0.665-1.123,0.903-2.132l-4.221-10.5h1.932L228.526,91.373z"/>
<path fill="#F2F2F2" d="M233.638,94.166c0-0.336,0.112-0.609,0.336-0.82c0.224-0.209,0.511-0.314,0.861-0.314
	c0.434,0,0.788,0.154,1.061,0.463s0.409,0.757,0.409,1.345c0,0.505-0.07,0.944-0.21,1.322c-0.14,0.379-0.322,0.702-0.546,0.978
	c-0.224,0.272-0.469,0.496-0.735,0.672s-0.532,0.305-0.798,0.389l-0.525-0.818c0.504-0.197,0.878-0.502,1.124-0.914
	c0.245-0.412,0.368-0.83,0.368-1.25c-0.126,0.043-0.245,0.063-0.357,0.063c-0.28,0-0.515-0.094-0.704-0.283
	S233.638,94.529,233.638,94.166z"/>
<path fill="#F2F2F2" d="M251.706,90.994h-5.391l-1.462,4.074h-1.743l5.565-14.932h0.798l5.586,14.932h-1.848L251.706,90.994z
	 M246.879,89.482h4.304l-1.63-4.473l-0.522-2.229h-0.021l-0.522,2.269L246.879,89.482z"/>
<path fill="#F2F2F2" d="M257.057,84.568h1.155l0.315,1.26h0.084c0.322-0.49,0.738-0.864,1.25-1.123
	c0.511-0.26,1.095-0.389,1.753-0.389c1.4,0,2.443,0.412,3.129,1.238c0.686,0.825,1.029,2.178,1.029,4.053
	c0,0.883-0.116,1.678-0.347,2.385c-0.231,0.707-0.556,1.305-0.977,1.795c-0.42,0.49-0.927,0.869-1.522,1.135
	c-0.595,0.266-1.256,0.398-1.984,0.398c-0.518,0-0.928-0.031-1.229-0.094c-0.301-0.063-0.626-0.172-0.977-0.326v4.367h-1.68
	L257.057,84.568L257.057,84.568z M261.298,85.786c-0.714,0-1.278,0.187-1.69,0.558c-0.413,0.37-0.704,0.934-0.872,1.689v5.208
	c0.252,0.196,0.539,0.347,0.861,0.452c0.322,0.104,0.749,0.156,1.281,0.156c0.966,0,1.732-0.359,2.299-1.08
	c0.567-0.723,0.851-1.783,0.851-3.183c0-0.573-0.049-1.096-0.147-1.563c-0.098-0.469-0.255-0.869-0.472-1.197
	c-0.217-0.329-0.498-0.584-0.84-0.768C262.226,85.877,261.802,85.786,261.298,85.786z"/>
<path fill="#F2F2F2" d="M275.448,86.039h-3.297v9.029h-1.68v-9.029h-3.297v-1.471h8.274V86.039z"/>
<path fill="#F2F2F2" d="M281.187,91.373l0.59,2.016h0.105l0.464-2.037l2.044-6.783h1.68l-3.108,9.431
	c-0.238,0.687-0.472,1.351-0.703,1.994c-0.231,0.644-0.487,1.219-0.767,1.723c-0.28,0.505-0.595,0.906-0.945,1.207
	c-0.35,0.302-0.756,0.451-1.218,0.451c-0.504,0-0.917-0.069-1.239-0.209l0.294-1.449c0.182,0.069,0.357,0.104,0.525,0.104
	c0.392,0,0.77-0.207,1.134-0.62c0.364-0.412,0.665-1.123,0.903-2.132l-4.221-10.5h1.932L281.187,91.373z"/>
<path fill="#F2F2F2" d="M288.09,84.568h1.155l0.315,1.26h0.084c0.322-0.49,0.738-0.864,1.25-1.123
	c0.511-0.26,1.095-0.389,1.753-0.389c1.4,0,2.443,0.412,3.129,1.238c0.686,0.825,1.029,2.178,1.029,4.053
	c0,0.883-0.116,1.678-0.347,2.385s-0.556,1.305-0.977,1.795c-0.42,0.49-0.927,0.869-1.522,1.135
	c-0.595,0.266-1.256,0.398-1.984,0.398c-0.518,0-0.928-0.031-1.229-0.094c-0.301-0.063-0.626-0.172-0.977-0.326v4.367h-1.68
	L288.09,84.568L288.09,84.568z M292.332,85.786c-0.714,0-1.278,0.187-1.69,0.558c-0.413,0.37-0.704,0.934-0.872,1.689v5.208
	c0.252,0.196,0.539,0.347,0.861,0.452c0.322,0.104,0.749,0.156,1.281,0.156c0.966,0,1.732-0.359,2.299-1.08
	c0.567-0.723,0.851-1.783,0.851-3.183c0-0.573-0.049-1.096-0.147-1.563c-0.098-0.469-0.255-0.869-0.472-1.197
	c-0.217-0.329-0.498-0.584-0.84-0.768C293.259,85.877,292.835,85.786,292.332,85.786z"/>
<path fill="#F2F2F2" d="M299.379,85.346c0.532-0.322,1.151-0.561,1.858-0.715c0.707-0.152,1.444-0.23,2.215-0.23
	c0.728,0,1.313,0.099,1.753,0.295c0.439,0.195,0.777,0.451,1.008,0.767c0.231,0.315,0.385,0.662,0.462,1.039
	c0.077,0.379,0.115,0.756,0.115,1.136c0,0.84-0.021,1.657-0.063,2.457c-0.042,0.797-0.063,1.553-0.063,2.268
	c0,0.518,0.021,1.008,0.063,1.471c0.042,0.461,0.119,0.889,0.231,1.279h-1.239l-0.44-1.469h-0.105
	c-0.126,0.194-0.284,0.389-0.473,0.576c-0.189,0.188-0.417,0.356-0.684,0.504c-0.266,0.148-0.573,0.271-0.924,0.368
	c-0.35,0.099-0.749,0.146-1.197,0.146c-0.447,0-0.864-0.069-1.25-0.209c-0.385-0.141-0.718-0.34-0.998-0.6
	c-0.279-0.259-0.501-0.57-0.661-0.935c-0.161-0.364-0.242-0.776-0.242-1.239c0-0.615,0.126-1.13,0.378-1.543
	s0.604-0.742,1.061-0.986c0.456-0.246,1.001-0.42,1.639-0.524c0.637-0.104,1.34-0.158,2.109-0.158c0.196,0,0.39,0,0.578,0
	c0.189,0,0.381,0.015,0.578,0.043c0.042-0.42,0.063-0.799,0.063-1.135c0-0.771-0.154-1.31-0.463-1.617
	c-0.308-0.308-0.868-0.462-1.68-0.462c-0.238,0-0.494,0.02-0.767,0.054c-0.273,0.037-0.554,0.087-0.84,0.152
	c-0.287,0.063-0.561,0.144-0.819,0.237c-0.259,0.092-0.487,0.197-0.683,0.313L299.379,85.346z M302.361,93.768
	c0.392,0,0.741-0.054,1.05-0.158c0.308-0.104,0.574-0.237,0.798-0.398s0.41-0.339,0.557-0.536c0.147-0.194,0.255-0.385,0.326-0.565
	v-1.744c-0.196-0.014-0.396-0.023-0.599-0.03s-0.403-0.011-0.6-0.011c-0.434,0-0.856,0.025-1.271,0.074s-0.777,0.14-1.092,0.271
	c-0.315,0.135-0.567,0.314-0.756,0.546c-0.189,0.231-0.284,0.521-0.284,0.871c0,0.49,0.175,0.894,0.524,1.208
	C301.366,93.609,301.815,93.768,302.361,93.768z"/>
<path fill="#F2F2F2" d="M314.771,89.619l3.36-4.82l1.134,0.901l-2.058,3.038l-1.008,0.859l1.008,0.758l2.184,2.988l-1.134,0.926
	L314.771,89.619z M318.615,89.619l3.317-4.777l1.113,0.879l-2.037,3.018L320,89.598l1.008,0.758l2.163,2.969l-1.092,0.904
	L318.615,89.619z"/>
<path fill="#F2F2F2" d="M328.304,88.264h-0.986v6.805h-1.743V80.369h1.743v6.847l0.944-0.295l4.936-6.552h2.016l-4.914,6.32
	l-0.882,0.693l1.071,0.84l5.376,6.846h-2.205L328.304,88.264z"/>
<path fill="#F2F2F2" d="M344.675,86.039h-3.045c-0.042,0.588-0.084,1.221-0.126,1.9c-0.042,0.679-0.104,1.356-0.188,2.037
	c-0.084,0.678-0.196,1.33-0.337,1.951c-0.14,0.623-0.317,1.174-0.534,1.648c-0.218,0.477-0.483,0.857-0.799,1.145
	c-0.314,0.287-0.688,0.432-1.123,0.432c-0.267,0-0.497-0.014-0.693-0.043c-0.196-0.027-0.371-0.076-0.525-0.146l0.252-1.406
	c0.168,0.057,0.351,0.084,0.546,0.084c0.28,0,0.532-0.119,0.757-0.356c0.224-0.238,0.42-0.688,0.588-1.354
	c0.168-0.664,0.308-1.584,0.42-2.761c0.111-1.177,0.188-2.709,0.23-4.601h6.259v10.5h-1.681V86.039L344.675,86.039z"/>
<path fill="#F2F2F2" d="M357.261,94.229c-0.42,0.336-0.949,0.603-1.586,0.799c-0.637,0.195-1.313,0.293-2.025,0.293
	c-0.799,0-1.491-0.129-2.079-0.389c-0.588-0.259-1.071-0.629-1.449-1.113c-0.378-0.481-0.658-1.061-0.84-1.731
	c-0.183-0.672-0.273-1.428-0.273-2.269c0-1.791,0.399-3.155,1.197-4.096c0.798-0.938,1.938-1.406,3.423-1.406
	c0.476,0,0.952,0.054,1.428,0.158c0.477,0.104,0.903,0.305,1.281,0.598c0.378,0.295,0.687,0.712,0.924,1.25
	c0.238,0.539,0.357,1.25,0.357,2.132c0,0.463-0.042,0.974-0.126,1.532h-6.741c0,0.617,0.063,1.162,0.189,1.64
	c0.126,0.476,0.321,0.878,0.588,1.207c0.266,0.329,0.611,0.581,1.04,0.756c0.427,0.177,0.947,0.263,1.563,0.263
	c0.477,0,0.952-0.084,1.428-0.252c0.477-0.168,0.833-0.363,1.071-0.588L357.261,94.229z M353.648,85.786
	c-0.826,0-1.488,0.218-1.984,0.651c-0.497,0.434-0.795,1.176-0.894,2.227h5.209c0-1.064-0.203-1.811-0.609-2.236
	C354.964,86,354.391,85.786,353.648,85.786z"/>
<path fill="#F2F2F2" d="M373.939,97.734h-1.135l-0.314-2.666h-12.285v-10.5h1.68v9.029h3.591v-9.029h1.681v9.029h3.591v-9.029h1.68
	v9.029h1.512L373.939,97.734L373.939,97.734z"/>
<path fill="#F2F2F2" d="M376.224,85.346c0.532-0.322,1.151-0.561,1.858-0.715c0.707-0.152,1.445-0.23,2.215-0.23
	c0.729,0,1.313,0.099,1.753,0.295c0.44,0.195,0.777,0.451,1.008,0.767c0.231,0.315,0.386,0.662,0.462,1.039
	c0.077,0.379,0.115,0.756,0.115,1.136c0,0.84-0.021,1.657-0.063,2.457c-0.042,0.797-0.063,1.553-0.063,2.268
	c0,0.518,0.021,1.008,0.063,1.471c0.042,0.461,0.119,0.889,0.23,1.279h-1.239l-0.44-1.469h-0.105
	c-0.126,0.194-0.283,0.389-0.473,0.576c-0.188,0.188-0.417,0.356-0.683,0.504c-0.267,0.148-0.574,0.271-0.925,0.368
	c-0.35,0.099-0.749,0.146-1.196,0.146c-0.448,0-0.865-0.069-1.25-0.209c-0.386-0.141-0.719-0.34-0.998-0.6
	c-0.28-0.259-0.501-0.57-0.662-0.935s-0.242-0.776-0.242-1.239c0-0.615,0.126-1.13,0.378-1.543s0.605-0.742,1.062-0.986
	c0.456-0.246,1.001-0.42,1.638-0.524s1.34-0.158,2.11-0.158c0.195,0,0.389,0,0.577,0c0.189,0,0.382,0.015,0.578,0.043
	c0.042-0.42,0.063-0.799,0.063-1.135c0-0.771-0.154-1.31-0.462-1.617c-0.309-0.308-0.869-0.462-1.681-0.462
	c-0.237,0-0.493,0.02-0.767,0.054c-0.273,0.037-0.553,0.087-0.84,0.152c-0.287,0.063-0.561,0.144-0.819,0.237
	c-0.259,0.092-0.486,0.197-0.683,0.313L376.224,85.346z M379.206,93.768c0.392,0,0.742-0.054,1.05-0.158
	c0.309-0.104,0.574-0.237,0.798-0.398c0.225-0.161,0.41-0.339,0.558-0.536c0.146-0.194,0.255-0.385,0.325-0.565v-1.744
	c-0.195-0.014-0.396-0.023-0.599-0.03s-0.403-0.011-0.599-0.011c-0.435,0-0.857,0.025-1.271,0.074s-0.776,0.14-1.092,0.271
	c-0.315,0.135-0.567,0.314-0.756,0.546c-0.189,0.231-0.284,0.521-0.284,0.871c0,0.49,0.175,0.894,0.525,1.208
	C378.211,93.609,378.659,93.768,379.206,93.768z"/>
<path fill="#F2F2F2" d="M390.409,89.43l-3.36,4.799l-1.092-0.885l2.016-3.029l1.029-0.862l-1.029-0.755l-2.142-2.954l1.092-0.899
	L390.409,89.43z M394.231,89.43l-3.36,4.842l-1.134-0.905l2.058-3.052l1.008-0.862l-1.008-0.755l-2.184-2.977l1.112-0.922
	L394.231,89.43z"/>
<path fill="#F2F2F2" d="M406.096,87.592l-4.473-7.224h2.1l2.982,4.978l0.525,1.197l0.504-1.197l3.149-4.978h1.933l-4.62,7.077
	l4.83,7.623h-2.037l-3.318-5.271l-0.566-1.26l-0.547,1.26l-3.401,5.271h-1.953L406.096,87.592z"/>
<path fill="#F2F2F2" d="M415.013,85.346c0.532-0.322,1.151-0.561,1.858-0.715c0.707-0.152,1.445-0.23,2.215-0.23
	c0.729,0,1.313,0.099,1.753,0.295c0.44,0.195,0.777,0.451,1.008,0.767c0.231,0.315,0.386,0.662,0.462,1.039
	c0.077,0.379,0.115,0.756,0.115,1.136c0,0.84-0.021,1.657-0.063,2.457c-0.042,0.797-0.063,1.553-0.063,2.268
	c0,0.518,0.021,1.008,0.063,1.471c0.042,0.461,0.118,0.889,0.23,1.279h-1.239l-0.44-1.469h-0.105
	c-0.126,0.194-0.284,0.389-0.473,0.576c-0.189,0.188-0.417,0.356-0.683,0.504c-0.267,0.148-0.574,0.271-0.925,0.368
	c-0.35,0.099-0.749,0.146-1.196,0.146c-0.448,0-0.865-0.069-1.25-0.209c-0.386-0.141-0.719-0.34-0.998-0.6
	c-0.28-0.259-0.501-0.57-0.662-0.935s-0.242-0.776-0.242-1.239c0-0.615,0.126-1.13,0.378-1.543s0.605-0.742,1.062-0.986
	c0.455-0.246,1.001-0.42,1.638-0.524s1.34-0.158,2.11-0.158c0.195,0,0.389,0,0.577,0c0.189,0,0.382,0.015,0.578,0.043
	c0.042-0.42,0.063-0.799,0.063-1.135c0-0.771-0.154-1.31-0.462-1.617c-0.309-0.308-0.869-0.462-1.681-0.462
	c-0.237,0-0.494,0.02-0.767,0.054c-0.273,0.037-0.553,0.087-0.84,0.152c-0.287,0.063-0.561,0.144-0.819,0.237
	c-0.259,0.092-0.487,0.197-0.683,0.313L415.013,85.346z M417.995,93.768c0.392,0,0.742-0.054,1.05-0.158s0.574-0.237,0.798-0.398
	c0.225-0.161,0.41-0.339,0.558-0.536c0.146-0.194,0.255-0.385,0.325-0.565v-1.744c-0.195-0.014-0.396-0.023-0.599-0.03
	s-0.403-0.011-0.599-0.011c-0.435,0-0.857,0.025-1.271,0.074s-0.777,0.14-1.092,0.271c-0.315,0.135-0.567,0.314-0.756,0.546
	c-0.189,0.231-0.284,0.521-0.284,0.871c0,0.49,0.175,0.894,0.525,1.208C417,93.609,417.448,93.768,417.995,93.768z"/>
<path fill="#F2F2F2" d="M426.574,86.438c0.462-0.672,0.973-1.145,1.533-1.418c0.56-0.271,1.26-0.408,2.1-0.408
	c1.288,0,2.278,0.42,2.972,1.26c0.693,0.841,1.039,2.079,1.039,3.718c0,1.89-0.401,3.317-1.207,4.283
	c-0.806,0.967-1.929,1.448-3.37,1.448c-1.541,0-2.694-0.53-3.466-1.596c-0.77-1.063-1.154-2.736-1.154-5.02
	c0-1.203,0.061-2.232,0.179-3.087c0.119-0.854,0.295-1.575,0.524-2.163c0.231-0.588,0.512-1.057,0.841-1.406
	c0.328-0.349,0.699-0.627,1.112-0.83s0.864-0.346,1.354-0.43c0.489-0.084,1.015-0.154,1.575-0.211
	c0.728-0.07,1.298-0.15,1.711-0.241s0.746-0.255,0.998-0.493l0.188,1.512c-0.14,0.127-0.294,0.23-0.462,0.314
	s-0.371,0.154-0.608,0.211s-0.521,0.104-0.851,0.146c-0.329,0.041-0.711,0.076-1.146,0.104c-0.603,0.041-1.131,0.115-1.586,0.222
	c-0.455,0.104-0.847,0.308-1.176,0.607c-0.329,0.303-0.588,0.729-0.776,1.28c-0.188,0.554-0.318,1.284-0.39,2.194h0.065V86.438z
	 M426.764,89.84c0,0.531,0.057,1.043,0.168,1.533s0.283,0.92,0.515,1.291c0.23,0.371,0.527,0.661,0.893,0.871
	s0.791,0.314,1.281,0.314c0.966,0,1.684-0.347,2.152-1.039c0.468-0.693,0.703-1.72,0.703-3.076c0-0.531-0.05-1.021-0.146-1.471
	c-0.098-0.447-0.252-0.836-0.462-1.166c-0.21-0.328-0.478-0.58-0.798-0.756c-0.322-0.175-0.707-0.263-1.155-0.263
	c-1.092-0.015-1.89,0.306-2.394,0.955C427.016,87.688,426.764,88.621,426.764,89.84z"/>
<path fill="#F2F2F2" d="M443.391,88.854l0.063-1.303h-0.063l-0.86,1.344l-4.726,6.174h-0.966v-10.5h1.68v6.404l-0.063,1.24h0.084
	l0.818-1.303l4.726-6.342h0.986v10.5h-1.681L443.391,88.854L443.391,88.854z"/>
<path fill="#F2F2F2" d="M448.211,84.568h1.155l0.313,1.26h0.084c0.322-0.49,0.738-0.864,1.25-1.123
	c0.512-0.26,1.096-0.389,1.753-0.389c1.4,0,2.443,0.412,3.129,1.238c0.688,0.825,1.029,2.178,1.029,4.053
	c0,0.883-0.115,1.678-0.347,2.385c-0.23,0.707-0.558,1.305-0.978,1.795s-0.928,0.869-1.521,1.135s-1.257,0.398-1.984,0.398
	c-0.518,0-0.928-0.031-1.229-0.094c-0.301-0.063-0.627-0.172-0.978-0.326v4.367h-1.68V84.568H448.211z M452.453,85.786
	c-0.715,0-1.278,0.187-1.69,0.558c-0.413,0.37-0.704,0.934-0.872,1.689v5.208c0.252,0.196,0.539,0.347,0.861,0.452
	c0.321,0.104,0.749,0.156,1.281,0.156c0.966,0,1.731-0.359,2.299-1.08c0.567-0.723,0.851-1.783,0.851-3.183
	c0-0.573-0.049-1.096-0.146-1.563c-0.099-0.469-0.256-0.869-0.473-1.197c-0.219-0.329-0.497-0.584-0.841-0.768
	C453.38,85.877,452.957,85.786,452.453,85.786z"/>
<path fill="#F2F2F2" d="M459.059,89.818c0-1.777,0.396-3.141,1.188-4.084c0.79-0.945,1.928-1.418,3.412-1.418
	c0.784,0,1.467,0.129,2.048,0.389c0.58,0.259,1.061,0.63,1.438,1.113c0.379,0.481,0.657,1.063,0.841,1.742
	c0.182,0.68,0.271,1.432,0.271,2.258c0,1.777-0.396,3.14-1.187,4.084c-0.791,0.945-1.93,1.418-3.412,1.418
	c-0.784,0-1.467-0.129-2.048-0.389s-1.062-0.631-1.438-1.113c-0.378-0.482-0.658-1.063-0.84-1.742
	C459.149,91.396,459.059,90.645,459.059,89.818z M460.802,89.818c0,0.531,0.053,1.043,0.157,1.533
	c0.104,0.489,0.271,0.916,0.493,1.28c0.224,0.363,0.518,0.658,0.882,0.882c0.364,0.225,0.806,0.336,1.323,0.336
	c1.903,0.014,2.855-1.33,2.855-4.031c0-0.547-0.053-1.064-0.157-1.555s-0.271-0.916-0.493-1.281
	c-0.224-0.363-0.52-0.653-0.882-0.871c-0.364-0.217-0.807-0.325-1.323-0.325C461.753,85.771,460.802,87.117,460.802,89.818z"/>
<path fill="#F2F2F2" d="M470.877,84.59c0.489-0.027,1.004-0.063,1.543-0.105c0.539-0.041,1.208-0.063,2.006-0.063
	c1.386,0,2.38,0.213,2.982,0.641c0.602,0.428,0.901,1.074,0.901,1.941c0,0.49-0.144,0.971-0.431,1.439
	c-0.287,0.468-0.759,0.814-1.417,1.039v0.084c0.826,0.154,1.407,0.44,1.743,0.861c0.336,0.42,0.504,0.979,0.504,1.68
	c0,1.092-0.393,1.883-1.176,2.373c-0.784,0.49-1.961,0.733-3.528,0.733c-0.588,0-1.134-0.019-1.638-0.052
	c-0.505-0.035-1.002-0.073-1.491-0.116L470.877,84.59L470.877,84.59z M474.615,89c0.252,0,0.496-0.043,0.733-0.127
	c0.238-0.084,0.451-0.199,0.642-0.346c0.188-0.147,0.343-0.318,0.462-0.516c0.119-0.195,0.179-0.406,0.179-0.63
	c0-0.562-0.168-0.948-0.504-1.166c-0.336-0.217-0.924-0.325-1.765-0.325c-0.448,0-0.802,0.008-1.061,0.021
	c-0.26,0.014-0.508,0.027-0.746,0.043V89H474.615z M472.557,93.661c0.267,0.028,0.528,0.05,0.788,0.063s0.563,0.021,0.913,0.021
	c0.938,0,1.635-0.134,2.09-0.399c0.454-0.266,0.683-0.721,0.683-1.363c0-0.504-0.192-0.914-0.577-1.229s-1.067-0.474-2.048-0.474
	h-1.849V93.661z"/>
<path fill="#F2F2F2" d="M481.381,85.346c0.531-0.322,1.151-0.561,1.858-0.715c0.707-0.152,1.444-0.23,2.216-0.23
	c0.728,0,1.313,0.099,1.753,0.295c0.441,0.195,0.777,0.451,1.008,0.767c0.231,0.313,0.385,0.662,0.462,1.039
	c0.077,0.379,0.116,0.756,0.116,1.136c0,0.84-0.021,1.657-0.063,2.457c-0.042,0.797-0.063,1.553-0.063,2.268
	c0,0.518,0.021,1.008,0.063,1.471c0.042,0.461,0.118,0.889,0.23,1.279h-1.239l-0.44-1.469h-0.104
	c-0.126,0.194-0.283,0.389-0.473,0.576c-0.188,0.188-0.417,0.356-0.683,0.504c-0.267,0.148-0.574,0.271-0.925,0.368
	c-0.351,0.099-0.749,0.146-1.196,0.146c-0.448,0-0.864-0.069-1.249-0.209c-0.387-0.141-0.719-0.34-0.998-0.6
	c-0.28-0.259-0.5-0.57-0.661-0.935c-0.161-0.365-0.241-0.776-0.241-1.239c0-0.615,0.126-1.13,0.378-1.543s0.605-0.742,1.062-0.986
	c0.453-0.246,1-0.42,1.638-0.524c0.637-0.104,1.341-0.158,2.109-0.158c0.196,0,0.39,0,0.578,0s0.382,0.015,0.577,0.043
	c0.042-0.42,0.063-0.799,0.063-1.135c0-0.771-0.154-1.31-0.462-1.617c-0.309-0.308-0.868-0.462-1.681-0.462
	c-0.237,0-0.493,0.02-0.767,0.054c-0.272,0.037-0.553,0.087-0.84,0.152c-0.287,0.063-0.562,0.144-0.819,0.237
	c-0.259,0.092-0.486,0.197-0.683,0.313L481.381,85.346z M484.362,93.768c0.393,0,0.742-0.054,1.051-0.158
	c0.308-0.104,0.573-0.237,0.798-0.398c0.224-0.161,0.409-0.339,0.557-0.536c0.146-0.194,0.256-0.385,0.325-0.565v-1.744
	c-0.195-0.014-0.396-0.023-0.599-0.03s-0.402-0.011-0.599-0.011c-0.435,0-0.857,0.025-1.271,0.074s-0.777,0.14-1.092,0.271
	c-0.315,0.135-0.567,0.314-0.756,0.546c-0.189,0.229-0.284,0.521-0.284,0.871c0,0.49,0.176,0.894,0.524,1.208
	C483.366,93.609,483.816,93.768,484.362,93.768z"/>
<path fill="#FFFFFF" d="M68.875,13.941l-17.542,29.87c17.542-1.304,29.158,9.363,29.158,26.55c0,19.438-13.986,28.566-31.647,28.566
	c-17.898,0-31.885-9.128-31.885-28.566c0-5.688,1.186-11.379,4.386-16.238l23.943-40.182H68.875z M59.156,70.361
	c0-5.57-3.318-10.43-10.312-10.43c-7.112,0-10.668,4.858-10.668,10.43c0,6.045,4.267,10.55,10.668,10.55
	C55.482,80.911,59.156,76.406,59.156,70.361z"/>
</svg>
