<?xml version="1.0" encoding="utf-8"?>
<!-- Generator: Adobe Illustrator 14.0.0, SVG Export Plug-In . SVG Version: 6.00 Build 43363)  -->
<!DOCTYPE svg PUBLIC "-//W3C//DTD SVG 1.1//EN" "http://www.w3.org/Graphics/SVG/1.1/DTD/svg11.dtd">
<svg version="1.1" id="Layer_1" xmlns="http://www.w3.org/2000/svg" xmlns:xlink="http://www.w3.org/1999/xlink" x="0px" y="0px"
	 width="833.001px" height="112px" viewBox="0 0 833.001 112" enable-background="new 0 0 833.001 112" xml:space="preserve">
<rect x="0" y="35" fill="#E50647" width="777" height="44"/>
<rect x="0" fill="#E50647" width="716.734" height="43"/>
<rect x="0" y="65" fill="#E50647" width="676.572" height="47"/>
<path fill="#FFFFFF" d="M68.875,13.941l-17.542,29.87c17.542-1.304,29.158,9.363,29.158,26.55c0,19.438-13.986,28.564-31.646,28.564
	c-17.898,0-31.886-9.128-31.886-28.564c0-5.688,1.187-11.379,4.387-16.238l23.942-40.182H68.875z M59.156,70.361
	c0-5.57-3.317-10.43-10.312-10.43c-7.112,0-10.669,4.856-10.669,10.43c0,6.045,4.268,10.55,10.669,10.55
	C55.482,80.911,59.156,76.406,59.156,70.361z"/>
<g>
	<path fill="#FFFFFF" d="M99.806,23.301l0.572,1.958h0.11l0.44-2.024l2.948-8.052h1.87l-3.894,10.01
		c-0.396,1.042-0.745,1.911-1.045,2.607c-0.301,0.697-0.605,1.262-0.913,1.694s-0.638,0.741-0.99,0.924
		c-0.352,0.183-0.785,0.275-1.298,0.275c-0.484,0-0.869-0.041-1.155-0.121c-0.286-0.08-0.554-0.201-0.803-0.363l0.55-1.518
		c0.293,0.162,0.564,0.264,0.814,0.308c0.249,0.044,0.476,0.066,0.682,0.066c0.411,0,0.755-0.209,1.034-0.627
		c0.278-0.418,0.521-1.038,0.726-1.859l-5.698-11.396h2.112L99.806,23.301z"/>
	<path fill="#FFFFFF" d="M106.318,19.583h1.21l0.33,1.32h0.088c0.337-0.513,0.773-0.905,1.309-1.177
		c0.535-0.271,1.147-0.407,1.837-0.407c1.467,0,2.56,0.433,3.278,1.298c0.718,0.865,1.078,2.281,1.078,4.246
		c0,0.924-0.121,1.757-0.363,2.497c-0.242,0.741-0.583,1.368-1.023,1.881s-0.972,0.909-1.595,1.188
		c-0.624,0.278-1.316,0.418-2.079,0.418c-0.543,0-0.972-0.033-1.287-0.099c-0.315-0.066-0.657-0.18-1.023-0.341v4.576h-1.76V19.583z
		 M110.762,20.859c-0.748,0-1.339,0.195-1.771,0.583c-0.433,0.389-0.737,0.979-0.913,1.771v5.456
		c0.264,0.206,0.564,0.363,0.902,0.473s0.785,0.165,1.342,0.165c1.012,0,1.815-0.377,2.409-1.133
		c0.594-0.755,0.891-1.866,0.891-3.333c0-0.601-0.052-1.147-0.154-1.639c-0.103-0.491-0.268-0.909-0.495-1.254
		c-0.228-0.345-0.521-0.612-0.88-0.803C111.733,20.955,111.29,20.859,110.762,20.859z"/>
	<path fill="#FFFFFF" d="M117.604,25.083c0-1.862,0.414-3.289,1.243-4.279c0.829-0.99,2.021-1.485,3.575-1.485
		c0.821,0,1.536,0.136,2.145,0.407c0.608,0.271,1.111,0.66,1.507,1.166s0.689,1.115,0.88,1.826c0.19,0.712,0.286,1.5,0.286,2.365
		c0,1.863-0.415,3.289-1.243,4.279c-0.829,0.99-2.021,1.485-3.575,1.485c-0.822,0-1.537-0.136-2.145-0.407
		c-0.609-0.271-1.111-0.66-1.507-1.166s-0.69-1.114-0.88-1.826S117.604,25.949,117.604,25.083z M119.429,25.083
		c0,0.558,0.055,1.093,0.165,1.606c0.11,0.514,0.282,0.961,0.517,1.342c0.234,0.381,0.542,0.689,0.924,0.924
		c0.381,0.235,0.843,0.352,1.386,0.352c1.995,0.015,2.992-1.394,2.992-4.224c0-0.572-0.055-1.114-0.165-1.628
		c-0.11-0.513-0.283-0.96-0.517-1.342c-0.235-0.381-0.543-0.685-0.924-0.913c-0.382-0.228-0.844-0.341-1.386-0.341
		C120.427,20.845,119.429,22.252,119.429,25.083z"/>
	<path fill="#FFFFFF" d="M132.783,25.633h-1.012v4.95h-1.76v-11h1.76v4.972l0.946-0.308l3.52-4.664h1.914l-3.41,4.422l-0.924,0.726
		l1.144,0.88l3.674,4.972h-2.178L132.783,25.633z"/>
	<path fill="#FFFFFF" d="M147.391,24.071l0.066-1.364h-0.066l-0.902,1.408l-4.95,6.468h-1.012v-11h1.76v6.71l-0.066,1.298h0.088
		l0.858-1.364l4.95-6.644h1.034v11h-1.76V24.071z"/>
	<path fill="#FFFFFF" d="M165.915,29.857c-0.44,0.323-0.96,0.569-1.562,0.737c-0.602,0.168-1.232,0.253-1.892,0.253
		c-0.851,0-1.57-0.136-2.156-0.407c-0.587-0.271-1.067-0.66-1.441-1.166s-0.646-1.114-0.814-1.826
		c-0.169-0.711-0.253-1.5-0.253-2.365c0-1.862,0.41-3.289,1.232-4.279c0.821-0.99,2.002-1.485,3.542-1.485
		c0.704,0,1.301,0.055,1.793,0.165c0.491,0.11,0.935,0.268,1.331,0.473l-0.506,1.518c-0.338-0.19-0.712-0.341-1.122-0.451
		c-0.411-0.11-0.851-0.165-1.32-0.165c-2.083,0-3.124,1.408-3.124,4.224c0,0.558,0.055,1.089,0.165,1.595
		c0.11,0.506,0.293,0.953,0.55,1.342c0.256,0.389,0.594,0.701,1.012,0.935c0.418,0.235,0.935,0.352,1.551,0.352
		c0.528,0,1.001-0.081,1.419-0.242c0.418-0.161,0.759-0.344,1.023-0.55L165.915,29.857z"/>
	<path fill="#FFFFFF" d="M174.209,19.605c0.513-0.029,1.052-0.066,1.617-0.11c0.564-0.044,1.265-0.066,2.101-0.066
		c1.452,0,2.493,0.224,3.124,0.671c0.63,0.447,0.946,1.125,0.946,2.035c0,0.514-0.15,1.016-0.451,1.507
		c-0.301,0.492-0.795,0.854-1.485,1.089v0.088c0.865,0.162,1.474,0.462,1.826,0.902s0.528,1.026,0.528,1.76
		c0,1.144-0.411,1.973-1.232,2.486c-0.821,0.514-2.054,0.77-3.696,0.77c-0.616,0-1.188-0.019-1.716-0.055
		c-0.528-0.037-1.049-0.077-1.562-0.121V19.605z M178.125,24.225c0.264,0,0.521-0.044,0.77-0.132
		c0.25-0.088,0.473-0.209,0.671-0.363c0.198-0.154,0.359-0.333,0.484-0.539c0.125-0.205,0.187-0.425,0.187-0.66
		c0-0.587-0.176-0.994-0.528-1.221c-0.352-0.227-0.968-0.341-1.848-0.341c-0.47,0-0.84,0.007-1.111,0.022s-0.532,0.029-0.781,0.044
		v3.19H178.125z M175.969,29.109c0.278,0.03,0.553,0.052,0.825,0.066c0.271,0.015,0.59,0.022,0.957,0.022
		c0.982,0,1.712-0.139,2.189-0.418c0.477-0.278,0.715-0.755,0.715-1.43c0-0.528-0.202-0.957-0.605-1.287
		c-0.404-0.33-1.119-0.495-2.145-0.495h-1.936V29.109z"/>
	<path fill="#FFFFFF" d="M193.217,29.703c-0.44,0.352-0.994,0.631-1.661,0.836c-0.667,0.205-1.375,0.308-2.123,0.308
		c-0.836,0-1.562-0.136-2.178-0.407c-0.616-0.271-1.122-0.66-1.518-1.166s-0.69-1.111-0.88-1.815s-0.286-1.496-0.286-2.376
		c0-1.877,0.418-3.307,1.254-4.29c0.836-0.982,2.031-1.474,3.586-1.474c0.499,0,0.997,0.055,1.496,0.165
		c0.499,0.11,0.946,0.319,1.342,0.627c0.396,0.308,0.719,0.745,0.968,1.309c0.249,0.565,0.374,1.309,0.374,2.233
		c0,0.484-0.044,1.02-0.132,1.606h-7.062c0,0.646,0.066,1.218,0.198,1.716s0.337,0.92,0.616,1.265
		c0.279,0.345,0.642,0.608,1.089,0.792c0.447,0.183,0.993,0.275,1.639,0.275c0.499,0,0.998-0.088,1.496-0.264
		c0.499-0.176,0.873-0.381,1.122-0.616L193.217,29.703z M189.433,20.859c-0.866,0-1.559,0.228-2.079,0.682s-0.833,1.232-0.935,2.332
		h5.456c0-1.114-0.212-1.896-0.638-2.343C190.811,21.083,190.21,20.859,189.433,20.859z"/>
	<path fill="#FFFFFF" d="M205.603,33.377h-1.188l-0.33-2.794h-8.272l-0.33,2.794h-1.188v-4.334h1.298
		c0.117-0.161,0.271-0.451,0.462-0.869c0.19-0.418,0.377-1.004,0.561-1.76c0.183-0.755,0.344-1.694,0.484-2.816
		c0.139-1.122,0.224-2.46,0.253-4.015h6.644v9.46h1.606V33.377z M202.237,29.043v-7.92h-3.3c-0.029,0.616-0.081,1.287-0.154,2.013
		c-0.074,0.726-0.173,1.452-0.297,2.178s-0.282,1.412-0.473,2.057c-0.191,0.646-0.411,1.203-0.66,1.672H202.237z"/>
	<path fill="#FFFFFF" d="M211.024,26.711l0.619,2.112h0.11l0.485-2.134l2.142-7.106h1.76l-3.256,9.878
		c-0.25,0.719-0.495,1.416-0.737,2.09c-0.242,0.675-0.51,1.276-0.803,1.804s-0.624,0.95-0.99,1.265
		c-0.367,0.315-0.792,0.473-1.276,0.473c-0.528,0-0.961-0.073-1.298-0.22l0.308-1.518c0.19,0.073,0.374,0.11,0.55,0.11
		c0.411,0,0.807-0.216,1.188-0.649c0.381-0.433,0.696-1.177,0.946-2.233l-4.422-11h2.024L211.024,26.711z"/>
	<path fill="#FFFFFF" d="M232.42,33.377h-1.188l-0.33-2.794h-12.87v-11h1.76v9.46h3.762v-9.46h1.76v9.46h3.762v-9.46h1.76v9.46
		h1.584V33.377z"/>
	<path fill="#FFFFFF" d="M241.462,24.071l0.066-1.364h-0.066l-0.902,1.408l-4.95,6.468h-1.012v-11h1.76v6.71l-0.066,1.298h0.088
		l0.858-1.364l4.95-6.644h1.034v11h-1.76V24.071z"/>
	<path fill="#FFFFFF" d="M255.696,24.049l0.132-2.09h-0.11l-0.792,1.694l-2.662,4.312h-0.616l-2.772-4.312l-0.726-1.694h-0.088
		l0.176,2.068v6.556h-1.628v-11h1.738l3.08,4.928l0.638,1.276h0.044l0.66-1.32l2.882-4.884h1.76v11h-1.716V24.049z"/>
	<path fill="#FFFFFF" d="M273.296,21.123h-4.862v9.46h-1.76v-11h8.382v11h-1.76V21.123z"/>
	<path fill="#FFFFFF" d="M286.473,29.703c-0.44,0.352-0.994,0.631-1.661,0.836c-0.667,0.205-1.375,0.308-2.123,0.308
		c-0.836,0-1.562-0.136-2.178-0.407c-0.616-0.271-1.122-0.66-1.518-1.166s-0.69-1.111-0.88-1.815s-0.286-1.496-0.286-2.376
		c0-1.877,0.418-3.307,1.254-4.29c0.836-0.982,2.031-1.474,3.586-1.474c0.499,0,0.997,0.055,1.496,0.165
		c0.499,0.11,0.946,0.319,1.342,0.627c0.396,0.308,0.719,0.745,0.968,1.309c0.249,0.565,0.374,1.309,0.374,2.233
		c0,0.484-0.044,1.02-0.132,1.606h-7.062c0,0.646,0.066,1.218,0.198,1.716s0.337,0.92,0.616,1.265
		c0.279,0.345,0.642,0.608,1.089,0.792c0.447,0.183,0.993,0.275,1.639,0.275c0.499,0,0.998-0.088,1.496-0.264
		c0.499-0.176,0.873-0.381,1.122-0.616L286.473,29.703z M282.689,20.859c-0.866,0-1.559,0.228-2.079,0.682s-0.833,1.232-0.935,2.332
		h5.456c0-1.114-0.212-1.896-0.638-2.343C284.068,21.083,283.467,20.859,282.689,20.859z"/>
	<path fill="#FFFFFF" d="M289.619,19.583h1.21l0.33,1.32h0.088c0.337-0.513,0.773-0.905,1.309-1.177
		c0.535-0.271,1.147-0.407,1.837-0.407c1.467,0,2.56,0.433,3.278,1.298c0.718,0.865,1.078,2.281,1.078,4.246
		c0,0.924-0.121,1.757-0.363,2.497c-0.242,0.741-0.583,1.368-1.023,1.881s-0.972,0.909-1.595,1.188
		c-0.624,0.278-1.316,0.418-2.079,0.418c-0.543,0-0.972-0.033-1.287-0.099c-0.315-0.066-0.657-0.18-1.023-0.341v4.576h-1.76V19.583z
		 M294.063,20.859c-0.748,0-1.339,0.195-1.771,0.583c-0.433,0.389-0.737,0.979-0.913,1.771v5.456
		c0.264,0.206,0.564,0.363,0.902,0.473s0.785,0.165,1.342,0.165c1.012,0,1.815-0.377,2.409-1.133
		c0.594-0.755,0.891-1.866,0.891-3.333c0-0.601-0.052-1.147-0.154-1.639c-0.103-0.491-0.268-0.909-0.495-1.254
		c-0.228-0.345-0.521-0.612-0.88-0.803C295.034,20.955,294.591,20.859,294.063,20.859z"/>
	<path fill="#FFFFFF" d="M309.551,29.703c-0.44,0.352-0.994,0.631-1.661,0.836c-0.667,0.205-1.375,0.308-2.123,0.308
		c-0.836,0-1.562-0.136-2.178-0.407c-0.616-0.271-1.122-0.66-1.518-1.166s-0.69-1.111-0.88-1.815s-0.286-1.496-0.286-2.376
		c0-1.877,0.418-3.307,1.254-4.29c0.836-0.982,2.031-1.474,3.586-1.474c0.499,0,0.997,0.055,1.496,0.165
		c0.499,0.11,0.946,0.319,1.342,0.627c0.396,0.308,0.719,0.745,0.968,1.309c0.249,0.565,0.374,1.309,0.374,2.233
		c0,0.484-0.044,1.02-0.132,1.606h-7.062c0,0.646,0.066,1.218,0.198,1.716s0.337,0.92,0.616,1.265
		c0.279,0.345,0.642,0.608,1.089,0.792c0.447,0.183,0.993,0.275,1.639,0.275c0.499,0,0.998-0.088,1.496-0.264
		c0.499-0.176,0.873-0.381,1.122-0.616L309.551,29.703z M305.767,20.859c-0.866,0-1.559,0.228-2.079,0.682s-0.833,1.232-0.935,2.332
		h5.456c0-1.114-0.212-1.896-0.638-2.343C307.145,21.083,306.544,20.859,305.767,20.859z"/>
	<path fill="#FFFFFF" d="M321.937,33.377h-1.188l-0.33-2.794h-8.272l-0.33,2.794h-1.188v-4.334h1.298
		c0.117-0.161,0.271-0.451,0.462-0.869c0.19-0.418,0.377-1.004,0.561-1.76c0.183-0.755,0.344-1.694,0.484-2.816
		c0.139-1.122,0.224-2.46,0.253-4.015h6.644v9.46h1.606V33.377z M318.571,29.043v-7.92h-3.3c-0.029,0.616-0.081,1.287-0.154,2.013
		c-0.074,0.726-0.173,1.452-0.297,2.178s-0.282,1.412-0.473,2.057c-0.191,0.646-0.411,1.203-0.66,1.672H318.571z"/>
	<path fill="#FFFFFF" d="M323.939,20.397c0.557-0.337,1.206-0.586,1.947-0.748c0.741-0.161,1.514-0.242,2.321-0.242
		c0.762,0,1.375,0.103,1.837,0.308c0.462,0.206,0.814,0.473,1.056,0.803c0.242,0.33,0.403,0.693,0.484,1.089
		c0.081,0.396,0.121,0.792,0.121,1.188c0,0.88-0.022,1.738-0.066,2.574c-0.044,0.836-0.066,1.628-0.066,2.376
		c0,0.542,0.022,1.056,0.066,1.54c0.044,0.484,0.125,0.932,0.242,1.342h-1.298l-0.462-1.54h-0.11
		c-0.132,0.206-0.297,0.407-0.495,0.605c-0.198,0.198-0.437,0.374-0.715,0.528c-0.279,0.154-0.602,0.282-0.968,0.385
		c-0.367,0.103-0.785,0.154-1.254,0.154c-0.47,0-0.906-0.073-1.309-0.22c-0.404-0.146-0.752-0.355-1.045-0.627
		c-0.294-0.271-0.525-0.598-0.693-0.979s-0.253-0.814-0.253-1.298c0-0.645,0.132-1.184,0.396-1.617
		c0.264-0.433,0.634-0.777,1.111-1.034c0.476-0.256,1.048-0.44,1.716-0.55c0.667-0.11,1.404-0.165,2.211-0.165
		c0.205,0,0.407,0,0.605,0c0.198,0,0.399,0.015,0.605,0.044c0.044-0.44,0.066-0.836,0.066-1.188c0-0.807-0.162-1.371-0.484-1.694
		c-0.323-0.323-0.91-0.484-1.76-0.484c-0.25,0-0.517,0.019-0.803,0.057c-0.286,0.038-0.58,0.09-0.88,0.158
		c-0.301,0.068-0.587,0.151-0.858,0.249c-0.272,0.098-0.51,0.207-0.715,0.328L323.939,20.397z M327.063,29.219
		c0.41,0,0.777-0.055,1.1-0.165c0.322-0.11,0.601-0.25,0.836-0.418c0.234-0.168,0.429-0.355,0.583-0.561
		c0.154-0.206,0.267-0.403,0.341-0.594v-1.826c-0.206-0.014-0.415-0.025-0.627-0.033c-0.213-0.007-0.422-0.011-0.627-0.011
		c-0.455,0-0.898,0.026-1.331,0.077c-0.433,0.052-0.814,0.147-1.144,0.286c-0.33,0.14-0.594,0.33-0.792,0.572
		c-0.198,0.242-0.297,0.547-0.297,0.913c0,0.514,0.183,0.935,0.55,1.265S326.49,29.219,327.063,29.219z"/>
	<path fill="#FFFFFF" d="M336.17,19.583v2.992c0,0.396,0.022,0.751,0.066,1.067c0.044,0.315,0.132,0.587,0.264,0.814
		c0.132,0.228,0.322,0.403,0.572,0.528c0.249,0.125,0.579,0.187,0.99,0.187c0.66,0,1.203-0.073,1.628-0.22s0.748-0.308,0.968-0.484
		v-4.884h1.76v11h-1.76v-4.62c-0.235,0.147-0.583,0.308-1.045,0.484c-0.462,0.176-1.096,0.264-1.903,0.264
		c-0.542,0-1.02-0.059-1.43-0.176c-0.411-0.117-0.756-0.323-1.034-0.616c-0.279-0.293-0.488-0.682-0.627-1.166
		c-0.14-0.484-0.209-1.092-0.209-1.826v-3.344H336.17z"/>
	<path fill="#FFFFFF" d="M352.671,24.071l0.066-1.364h-0.066l-0.902,1.408l-4.95,6.468h-1.012v-11h1.76v6.71l-0.066,1.298h0.088
		l0.858-1.364l4.95-6.644h1.034v11h-1.76V24.071z"/>
	<path fill="#FFFFFF" d="M362.856,24.874l3.52-5.049l1.188,0.944l-2.156,3.183l-1.056,0.9l1.056,0.793l2.288,3.131l-1.188,0.97
		L362.856,24.874z M366.882,24.874l3.476-5.005l1.166,0.922l-2.134,3.161l-1.056,0.9l1.056,0.793l2.266,3.109l-1.144,0.948
		L366.882,24.874z"/>
	<path fill="#FFFFFF" d="M384.328,16.811h-4.796v13.772h-1.826V16.811h-4.796v-1.628h11.418V16.811z"/>
	<path fill="#FFFFFF" d="M383.822,20.397c0.557-0.337,1.206-0.586,1.947-0.748c0.741-0.161,1.514-0.242,2.321-0.242
		c0.762,0,1.375,0.103,1.837,0.308c0.462,0.206,0.814,0.473,1.056,0.803c0.242,0.33,0.403,0.693,0.484,1.089
		c0.081,0.396,0.121,0.792,0.121,1.188c0,0.88-0.022,1.738-0.066,2.574c-0.044,0.836-0.066,1.628-0.066,2.376
		c0,0.542,0.022,1.056,0.066,1.54c0.044,0.484,0.125,0.932,0.242,1.342h-1.298l-0.462-1.54h-0.11
		c-0.132,0.206-0.297,0.407-0.495,0.605c-0.198,0.198-0.437,0.374-0.715,0.528c-0.279,0.154-0.602,0.282-0.968,0.385
		c-0.367,0.103-0.785,0.154-1.254,0.154c-0.47,0-0.906-0.073-1.309-0.22c-0.404-0.146-0.752-0.355-1.045-0.627
		c-0.294-0.271-0.525-0.598-0.693-0.979s-0.253-0.814-0.253-1.298c0-0.645,0.132-1.184,0.396-1.617
		c0.264-0.433,0.634-0.777,1.111-1.034c0.476-0.256,1.048-0.44,1.716-0.55c0.667-0.11,1.404-0.165,2.211-0.165
		c0.205,0,0.407,0,0.605,0c0.198,0,0.399,0.015,0.605,0.044c0.044-0.44,0.066-0.836,0.066-1.188c0-0.807-0.162-1.371-0.484-1.694
		c-0.323-0.323-0.91-0.484-1.76-0.484c-0.25,0-0.517,0.019-0.803,0.057c-0.286,0.038-0.58,0.09-0.88,0.158
		c-0.301,0.068-0.587,0.151-0.858,0.249c-0.272,0.098-0.51,0.207-0.715,0.328L383.822,20.397z M386.946,29.219
		c0.41,0,0.777-0.055,1.1-0.165c0.322-0.11,0.601-0.25,0.836-0.418c0.234-0.168,0.429-0.355,0.583-0.561
		c0.154-0.206,0.267-0.403,0.341-0.594v-1.826c-0.206-0.014-0.415-0.025-0.627-0.033c-0.213-0.007-0.422-0.011-0.627-0.011
		c-0.455,0-0.898,0.026-1.331,0.077c-0.433,0.052-0.814,0.147-1.144,0.286c-0.33,0.14-0.594,0.33-0.792,0.572
		c-0.198,0.242-0.297,0.547-0.297,0.913c0,0.514,0.183,0.935,0.55,1.265S386.374,29.219,386.946,29.219z"/>
	<path fill="#FFFFFF" d="M401.642,25.721h-4.972v4.862h-1.76v-11h1.76v4.598h4.972v-4.598h1.76v11h-1.76V25.721z"/>
	<path fill="#FFFFFF" d="M416.668,33.377h-1.188l-0.33-2.794h-8.36v-11h1.76v9.46h4.774v-9.46h1.76v9.46h1.584V33.377z"/>
	<path fill="#FFFFFF" d="M422.089,26.711l0.618,2.112h0.11l0.486-2.134l2.142-7.106h1.76l-3.256,9.878
		c-0.249,0.719-0.495,1.416-0.737,2.09c-0.241,0.675-0.51,1.276-0.803,1.804s-0.623,0.95-0.99,1.265
		c-0.366,0.315-0.792,0.473-1.275,0.473c-0.528,0-0.961-0.073-1.298-0.22l0.308-1.518c0.19,0.073,0.374,0.11,0.55,0.11
		c0.411,0,0.807-0.216,1.188-0.649c0.381-0.433,0.696-1.177,0.945-2.233l-4.421-11h2.023L422.089,26.711z"/>
	<path fill="#FFFFFF" d="M435.961,24.071l0.066-1.364h-0.066l-0.901,1.408l-4.95,6.468h-1.012v-11h1.76v6.71l-0.066,1.298h0.088
		l0.858-1.364l4.95-6.644h1.034v11h-1.761V24.071z M431.627,15.139c0.146,0.675,0.399,1.144,0.76,1.408
		c0.358,0.264,0.773,0.396,1.242,0.396c0.47,0,0.888-0.139,1.255-0.418c0.366-0.278,0.615-0.733,0.747-1.364l1.32,0.418
		c-0.132,0.851-0.51,1.503-1.133,1.958c-0.624,0.455-1.368,0.682-2.233,0.682c-0.396,0-0.788-0.051-1.177-0.154
		c-0.389-0.103-0.737-0.256-1.045-0.462c-0.308-0.205-0.572-0.469-0.792-0.792c-0.22-0.322-0.367-0.704-0.44-1.144L431.627,15.139z"
		/>
	<path fill="#FFFFFF" d="M445.07,24.676l-3.521,5.027l-1.144-0.926l2.111-3.175l1.078-0.904l-1.078-0.791l-2.243-3.095l1.144-0.944
		L445.07,24.676z M449.073,24.676l-3.521,5.071l-1.188-0.948l2.156-3.197l1.056-0.904l-1.056-0.791l-2.288-3.117l1.166-0.966
		L449.073,24.676z"/>
	<path fill="#FFFFFF" d="M464.231,25.721h-4.972v4.862h-1.76v-11h1.76v4.598h4.972v-4.598h1.76v11h-1.76V25.721z"/>
	<path fill="#FFFFFF" d="M469.202,20.397c0.558-0.337,1.207-0.586,1.947-0.748c0.74-0.161,1.515-0.242,2.321-0.242
		c0.763,0,1.375,0.103,1.837,0.308c0.462,0.206,0.813,0.473,1.056,0.803s0.403,0.693,0.484,1.089
		c0.08,0.396,0.121,0.792,0.121,1.188c0,0.88-0.022,1.738-0.066,2.574s-0.065,1.628-0.065,2.376c0,0.542,0.021,1.056,0.065,1.54
		c0.044,0.484,0.125,0.932,0.242,1.342h-1.298l-0.462-1.54h-0.11c-0.132,0.206-0.297,0.407-0.495,0.605
		c-0.197,0.198-0.437,0.374-0.715,0.528c-0.278,0.154-0.602,0.282-0.968,0.385c-0.367,0.103-0.785,0.154-1.254,0.154
		c-0.47,0-0.906-0.073-1.31-0.22s-0.751-0.355-1.045-0.627c-0.293-0.271-0.524-0.598-0.692-0.979
		c-0.169-0.381-0.253-0.814-0.253-1.298c0-0.645,0.132-1.184,0.396-1.617s0.635-0.777,1.111-1.034
		c0.477-0.256,1.048-0.44,1.716-0.55c0.667-0.11,1.404-0.165,2.211-0.165c0.205,0,0.407,0,0.605,0c0.197,0,0.399,0.015,0.604,0.044
		c0.044-0.44,0.066-0.836,0.066-1.188c0-0.807-0.162-1.371-0.484-1.694c-0.323-0.323-0.909-0.484-1.76-0.484
		c-0.25,0-0.518,0.019-0.803,0.057c-0.286,0.038-0.58,0.09-0.881,0.158c-0.301,0.068-0.586,0.151-0.857,0.249
		s-0.51,0.207-0.715,0.328L469.202,20.397z M472.326,29.219c0.411,0,0.777-0.055,1.101-0.165c0.322-0.11,0.601-0.25,0.836-0.418
		c0.234-0.168,0.429-0.355,0.583-0.561s0.268-0.403,0.341-0.594v-1.826c-0.205-0.014-0.414-0.025-0.627-0.033
		s-0.422-0.011-0.627-0.011c-0.455,0-0.898,0.026-1.331,0.077c-0.433,0.052-0.814,0.147-1.144,0.286
		c-0.33,0.14-0.595,0.33-0.792,0.572c-0.198,0.242-0.298,0.547-0.298,0.913c0,0.514,0.184,0.935,0.551,1.265
		C471.285,29.054,471.755,29.219,472.326,29.219z"/>
	<path fill="#FFFFFF" d="M492.588,21.123h-4.664v9.46h-1.76v-11h6.424V21.123z"/>
	<path fill="#FFFFFF" d="M493.315,25.083c0-1.862,0.414-3.289,1.243-4.279c0.828-0.99,2.02-1.485,3.575-1.485
		c0.82,0,1.536,0.136,2.145,0.407s1.111,0.66,1.507,1.166c0.396,0.506,0.689,1.115,0.88,1.826c0.19,0.712,0.286,1.5,0.286,2.365
		c0,1.863-0.414,3.289-1.243,4.279c-0.828,0.99-2.021,1.485-3.574,1.485c-0.822,0-1.537-0.136-2.146-0.407
		c-0.608-0.271-1.111-0.66-1.507-1.166c-0.396-0.506-0.689-1.114-0.88-1.826C493.409,26.737,493.315,25.949,493.315,25.083z
		 M495.141,25.083c0,0.558,0.055,1.093,0.165,1.606c0.109,0.514,0.282,0.961,0.517,1.342s0.543,0.689,0.924,0.924
		c0.382,0.235,0.844,0.352,1.387,0.352c1.994,0.015,2.991-1.394,2.991-4.224c0-0.572-0.055-1.114-0.165-1.628
		c-0.109-0.513-0.282-0.96-0.517-1.342c-0.234-0.381-0.543-0.685-0.924-0.913c-0.382-0.228-0.844-0.341-1.386-0.341
		C496.138,20.845,495.141,22.252,495.141,25.083z"/>
	<path fill="#FFFFFF" d="M505.723,19.583h1.21l0.33,1.32h0.088c0.337-0.513,0.773-0.905,1.309-1.177s1.147-0.407,1.837-0.407
		c1.467,0,2.56,0.433,3.278,1.298s1.078,2.281,1.078,4.246c0,0.924-0.121,1.757-0.363,2.497c-0.242,0.741-0.583,1.368-1.022,1.881
		c-0.44,0.513-0.973,0.909-1.596,1.188c-0.623,0.278-1.316,0.418-2.079,0.418c-0.542,0-0.972-0.033-1.287-0.099
		s-0.656-0.18-1.022-0.341v4.576h-1.76V19.583z M510.166,20.859c-0.748,0-1.338,0.195-1.771,0.583
		c-0.433,0.389-0.737,0.979-0.913,1.771v5.456c0.264,0.206,0.564,0.363,0.902,0.473c0.337,0.11,0.784,0.165,1.342,0.165
		c1.012,0,1.814-0.377,2.409-1.133c0.594-0.755,0.891-1.866,0.891-3.333c0-0.601-0.052-1.147-0.154-1.639s-0.268-0.909-0.495-1.254
		s-0.521-0.612-0.88-0.803C511.138,20.955,510.695,20.859,510.166,20.859z"/>
	<path fill="#FFFFFF" d="M517.008,25.083c0-1.862,0.414-3.289,1.243-4.279c0.828-0.99,2.02-1.485,3.575-1.485
		c0.82,0,1.536,0.136,2.145,0.407s1.111,0.66,1.507,1.166c0.396,0.506,0.689,1.115,0.88,1.826c0.19,0.712,0.286,1.5,0.286,2.365
		c0,1.863-0.414,3.289-1.243,4.279c-0.828,0.99-2.021,1.485-3.574,1.485c-0.822,0-1.537-0.136-2.146-0.407
		c-0.608-0.271-1.111-0.66-1.507-1.166c-0.396-0.506-0.689-1.114-0.88-1.826C517.103,26.737,517.008,25.949,517.008,25.083z
		 M518.834,25.083c0,0.558,0.055,1.093,0.165,1.606c0.109,0.514,0.282,0.961,0.517,1.342s0.543,0.689,0.924,0.924
		c0.382,0.235,0.844,0.352,1.387,0.352c1.994,0.015,2.991-1.394,2.991-4.224c0-0.572-0.055-1.114-0.165-1.628
		c-0.109-0.513-0.282-0.96-0.517-1.342c-0.234-0.381-0.543-0.685-0.924-0.913c-0.382-0.228-0.844-0.341-1.386-0.341
		C519.831,20.845,518.834,22.252,518.834,25.083z"/>
	<path fill="#FFFFFF" d="M539.008,33.377h-1.188l-0.33-2.794h-8.272l-0.33,2.794H527.7v-4.334h1.298
		c0.117-0.161,0.271-0.451,0.462-0.869s0.377-1.004,0.561-1.76s0.345-1.694,0.484-2.816s0.224-2.46,0.253-4.015h6.644v9.46h1.606
		V33.377z M535.642,29.043v-7.92h-3.3c-0.029,0.616-0.081,1.287-0.154,2.013c-0.073,0.726-0.172,1.452-0.297,2.178
		s-0.282,1.412-0.473,2.057s-0.411,1.203-0.66,1.672H535.642z"/>
	<path fill="#FFFFFF" d="M548.688,29.857c-0.44,0.323-0.961,0.569-1.563,0.737c-0.602,0.168-1.231,0.253-1.892,0.253
		c-0.851,0-1.569-0.136-2.156-0.407c-0.587-0.271-1.067-0.66-1.441-1.166c-0.373-0.506-0.646-1.114-0.813-1.826
		c-0.169-0.711-0.253-1.5-0.253-2.365c0-1.862,0.41-3.289,1.231-4.279c0.821-0.99,2.002-1.485,3.542-1.485
		c0.704,0,1.302,0.055,1.793,0.165c0.491,0.11,0.936,0.268,1.331,0.473l-0.506,1.518c-0.337-0.19-0.711-0.341-1.122-0.451
		c-0.41-0.11-0.851-0.165-1.319-0.165c-2.083,0-3.124,1.408-3.124,4.224c0,0.558,0.055,1.089,0.165,1.595
		c0.109,0.506,0.293,0.953,0.55,1.342c0.256,0.389,0.594,0.701,1.012,0.935c0.418,0.235,0.936,0.352,1.551,0.352
		c0.528,0,1.001-0.081,1.419-0.242c0.418-0.161,0.76-0.344,1.023-0.55L548.688,29.857z"/>
	<path fill="#FFFFFF" d="M553.879,25.633h-1.012v4.95h-1.76v-11h1.76v4.972l0.946-0.308l3.52-4.664h1.914l-3.41,4.422l-0.924,0.726
		l1.144,0.88l3.675,4.972h-2.179L553.879,25.633z"/>
	<path fill="#FFFFFF" d="M560.766,25.083c0-1.862,0.414-3.289,1.243-4.279c0.828-0.99,2.02-1.485,3.575-1.485
		c0.82,0,1.536,0.136,2.145,0.407s1.111,0.66,1.507,1.166c0.396,0.506,0.689,1.115,0.88,1.826c0.19,0.712,0.286,1.5,0.286,2.365
		c0,1.863-0.414,3.289-1.243,4.279c-0.828,0.99-2.021,1.485-3.574,1.485c-0.822,0-1.537-0.136-2.146-0.407
		c-0.608-0.271-1.111-0.66-1.507-1.166c-0.396-0.506-0.689-1.114-0.88-1.826C560.861,26.737,560.766,25.949,560.766,25.083z
		 M562.592,25.083c0,0.558,0.055,1.093,0.165,1.606c0.109,0.514,0.282,0.961,0.517,1.342s0.543,0.689,0.924,0.924
		c0.382,0.235,0.844,0.352,1.387,0.352c1.994,0.015,2.991-1.394,2.991-4.224c0-0.572-0.055-1.114-0.165-1.628
		c-0.109-0.513-0.282-0.96-0.517-1.342c-0.234-0.381-0.543-0.685-0.924-0.913c-0.382-0.228-0.844-0.341-1.386-0.341
		C563.589,20.845,562.592,22.252,562.592,25.083z"/>
	<path fill="#FFFFFF" d="M582.26,24.049l0.132-2.09h-0.11l-0.792,1.694l-2.662,4.312h-0.615l-2.772-4.312l-0.726-1.694h-0.088
		l0.176,2.068v6.556h-1.628v-11h1.737l3.08,4.928l0.639,1.276h0.044l0.659-1.32l2.883-4.884h1.76v11h-1.716V24.049z"/>
	<path fill="#FFFFFF" d="M599.749,21.123h-3.454v9.46h-1.76v-9.46h-3.454v-1.54h8.668V21.123z"/>
	<path fill="#FFFFFF" d="M609.165,29.703c-0.439,0.352-0.993,0.631-1.66,0.836c-0.668,0.205-1.375,0.308-2.123,0.308
		c-0.837,0-1.563-0.136-2.179-0.407c-0.615-0.271-1.122-0.66-1.518-1.166c-0.396-0.506-0.689-1.111-0.88-1.815
		c-0.191-0.704-0.286-1.496-0.286-2.376c0-1.877,0.418-3.307,1.254-4.29c0.836-0.982,2.031-1.474,3.586-1.474
		c0.498,0,0.997,0.055,1.496,0.165c0.498,0.11,0.946,0.319,1.342,0.627c0.396,0.308,0.719,0.745,0.968,1.309
		c0.25,0.565,0.374,1.309,0.374,2.233c0,0.484-0.044,1.02-0.132,1.606h-7.062c0,0.646,0.065,1.218,0.197,1.716
		c0.133,0.499,0.338,0.92,0.616,1.265s0.642,0.608,1.089,0.792c0.447,0.183,0.994,0.275,1.64,0.275c0.498,0,0.997-0.088,1.496-0.264
		c0.498-0.176,0.872-0.381,1.122-0.616L609.165,29.703z M605.382,20.859c-0.866,0-1.559,0.228-2.079,0.682
		c-0.521,0.455-0.833,1.232-0.936,2.332h5.456c0-1.114-0.213-1.896-0.638-2.343C606.76,21.083,606.158,20.859,605.382,20.859z"/>
	<path fill="#FFFFFF" d="M617.745,21.123h-3.19c-0.044,0.616-0.088,1.28-0.132,1.991c-0.044,0.712-0.11,1.423-0.198,2.134
		s-0.205,1.394-0.352,2.046c-0.147,0.653-0.334,1.229-0.562,1.727c-0.228,0.499-0.506,0.898-0.836,1.199s-0.723,0.451-1.177,0.451
		c-0.278,0-0.521-0.015-0.726-0.044c-0.206-0.029-0.39-0.081-0.551-0.154l0.265-1.474c0.176,0.059,0.366,0.088,0.571,0.088
		c0.294,0,0.558-0.125,0.792-0.374c0.234-0.249,0.44-0.722,0.616-1.419c0.176-0.696,0.322-1.661,0.44-2.893
		c0.117-1.232,0.198-2.838,0.242-4.818h6.556v11h-1.76V21.123z"/>
	<path fill="#FFFFFF" d="M630.923,29.703c-0.439,0.352-0.993,0.631-1.66,0.836c-0.668,0.205-1.375,0.308-2.123,0.308
		c-0.837,0-1.563-0.136-2.179-0.407c-0.615-0.271-1.122-0.66-1.518-1.166c-0.396-0.506-0.689-1.111-0.88-1.815
		c-0.191-0.704-0.286-1.496-0.286-2.376c0-1.877,0.418-3.307,1.254-4.29c0.836-0.982,2.031-1.474,3.586-1.474
		c0.498,0,0.997,0.055,1.496,0.165c0.498,0.11,0.946,0.319,1.342,0.627c0.396,0.308,0.719,0.745,0.968,1.309
		c0.25,0.565,0.374,1.309,0.374,2.233c0,0.484-0.044,1.02-0.132,1.606h-7.062c0,0.646,0.065,1.218,0.197,1.716
		c0.133,0.499,0.338,0.92,0.616,1.265s0.642,0.608,1.089,0.792c0.447,0.183,0.994,0.275,1.64,0.275c0.498,0,0.997-0.088,1.496-0.264
		c0.498-0.176,0.872-0.381,1.122-0.616L630.923,29.703z M627.14,20.859c-0.866,0-1.559,0.228-2.079,0.682
		c-0.521,0.455-0.833,1.232-0.936,2.332h5.456c0-1.114-0.213-1.896-0.638-2.343C628.518,21.083,627.916,20.859,627.14,20.859z"/>
	<path fill="#FFFFFF" d="M636.841,25.633h-1.012v4.95h-1.76v-11h1.76v4.972l0.946-0.308l3.52-4.664h1.914l-3.41,4.422l-0.924,0.726
		l1.144,0.88l3.675,4.972h-2.179L636.841,25.633z"/>
	<path fill="#FFFFFF" d="M644.408,20.397c0.558-0.337,1.207-0.586,1.947-0.748c0.74-0.161,1.515-0.242,2.321-0.242
		c0.763,0,1.375,0.103,1.837,0.308c0.462,0.206,0.813,0.473,1.056,0.803s0.403,0.693,0.484,1.089
		c0.08,0.396,0.121,0.792,0.121,1.188c0,0.88-0.022,1.738-0.066,2.574s-0.065,1.628-0.065,2.376c0,0.542,0.021,1.056,0.065,1.54
		c0.044,0.484,0.125,0.932,0.242,1.342h-1.298l-0.462-1.54h-0.11c-0.132,0.206-0.297,0.407-0.495,0.605
		c-0.197,0.198-0.437,0.374-0.715,0.528c-0.278,0.154-0.602,0.282-0.968,0.385c-0.367,0.103-0.785,0.154-1.254,0.154
		c-0.47,0-0.906-0.073-1.31-0.22s-0.751-0.355-1.045-0.627c-0.293-0.271-0.524-0.598-0.692-0.979
		c-0.169-0.381-0.253-0.814-0.253-1.298c0-0.645,0.132-1.184,0.396-1.617s0.635-0.777,1.111-1.034
		c0.477-0.256,1.048-0.44,1.716-0.55c0.667-0.11,1.404-0.165,2.211-0.165c0.205,0,0.407,0,0.605,0c0.197,0,0.399,0.015,0.604,0.044
		c0.044-0.44,0.066-0.836,0.066-1.188c0-0.807-0.162-1.371-0.484-1.694c-0.323-0.323-0.909-0.484-1.76-0.484
		c-0.25,0-0.518,0.019-0.803,0.057c-0.286,0.038-0.58,0.09-0.881,0.158c-0.301,0.068-0.586,0.151-0.857,0.249
		s-0.51,0.207-0.715,0.328L644.408,20.397z M647.532,29.219c0.411,0,0.777-0.055,1.101-0.165c0.322-0.11,0.601-0.25,0.836-0.418
		c0.234-0.168,0.429-0.355,0.583-0.561s0.268-0.403,0.341-0.594v-1.826c-0.205-0.014-0.414-0.025-0.627-0.033
		s-0.422-0.011-0.627-0.011c-0.455,0-0.898,0.026-1.331,0.077c-0.433,0.052-0.814,0.147-1.144,0.286
		c-0.33,0.14-0.595,0.33-0.792,0.572c-0.198,0.242-0.298,0.547-0.298,0.913c0,0.514,0.184,0.935,0.551,1.265
		C646.491,29.054,646.961,29.219,647.532,29.219z"/>
	<path fill="#FFFFFF" d="M662.229,25.721h-4.972v4.862h-1.76v-11h1.76v4.598h4.972v-4.598h1.76v11h-1.76V25.721z"/>
	<path fill="#FFFFFF" d="M667.2,20.397c0.558-0.337,1.207-0.586,1.947-0.748c0.74-0.161,1.515-0.242,2.321-0.242
		c0.763,0,1.375,0.103,1.837,0.308c0.462,0.206,0.813,0.473,1.056,0.803s0.403,0.693,0.484,1.089
		c0.08,0.396,0.121,0.792,0.121,1.188c0,0.88-0.022,1.738-0.066,2.574s-0.065,1.628-0.065,2.376c0,0.542,0.021,1.056,0.065,1.54
		c0.044,0.484,0.125,0.932,0.242,1.342h-1.298l-0.462-1.54h-0.11c-0.132,0.206-0.297,0.407-0.495,0.605
		c-0.197,0.198-0.437,0.374-0.715,0.528c-0.278,0.154-0.602,0.282-0.968,0.385c-0.367,0.103-0.785,0.154-1.254,0.154
		c-0.47,0-0.906-0.073-1.31-0.22s-0.751-0.355-1.045-0.627c-0.293-0.271-0.524-0.598-0.692-0.979
		c-0.169-0.381-0.253-0.814-0.253-1.298c0-0.645,0.132-1.184,0.396-1.617s0.635-0.777,1.111-1.034
		c0.477-0.256,1.048-0.44,1.716-0.55c0.667-0.11,1.404-0.165,2.211-0.165c0.205,0,0.407,0,0.605,0c0.197,0,0.399,0.015,0.604,0.044
		c0.044-0.44,0.066-0.836,0.066-1.188c0-0.807-0.162-1.371-0.484-1.694c-0.323-0.323-0.909-0.484-1.76-0.484
		c-0.25,0-0.518,0.019-0.803,0.057c-0.286,0.038-0.58,0.09-0.881,0.158c-0.301,0.068-0.586,0.151-0.857,0.249
		s-0.51,0.207-0.715,0.328L667.2,20.397z M670.324,29.219c0.411,0,0.777-0.055,1.101-0.165c0.322-0.11,0.601-0.25,0.836-0.418
		c0.234-0.168,0.429-0.355,0.583-0.561s0.268-0.403,0.341-0.594v-1.826c-0.205-0.014-0.414-0.025-0.627-0.033
		s-0.422-0.011-0.627-0.011c-0.455,0-0.898,0.026-1.331,0.077c-0.433,0.052-0.814,0.147-1.144,0.286
		c-0.33,0.14-0.595,0.33-0.792,0.572c-0.198,0.242-0.298,0.547-0.298,0.913c0,0.514,0.184,0.935,0.551,1.265
		C669.283,29.054,669.753,29.219,670.324,29.219z"/>
	<path fill="#FFFFFF" d="M684.206,21.123h-3.19c-0.044,0.616-0.088,1.28-0.132,1.991c-0.044,0.712-0.11,1.423-0.198,2.134
		s-0.205,1.394-0.352,2.046c-0.147,0.653-0.334,1.229-0.562,1.727c-0.228,0.499-0.506,0.898-0.836,1.199s-0.723,0.451-1.177,0.451
		c-0.278,0-0.521-0.015-0.726-0.044c-0.206-0.029-0.39-0.081-0.551-0.154l0.265-1.474c0.176,0.059,0.366,0.088,0.571,0.088
		c0.294,0,0.558-0.125,0.792-0.374c0.234-0.249,0.44-0.722,0.616-1.419c0.176-0.696,0.322-1.661,0.44-2.893
		c0.117-1.232,0.198-2.838,0.242-4.818h6.556v11h-1.76V21.123z"/>
	<path fill="#FFFFFF" d="M697.384,29.703c-0.439,0.352-0.993,0.631-1.66,0.836c-0.668,0.205-1.375,0.308-2.123,0.308
		c-0.837,0-1.563-0.136-2.179-0.407c-0.615-0.271-1.122-0.66-1.518-1.166c-0.396-0.506-0.689-1.111-0.88-1.815
		c-0.191-0.704-0.286-1.496-0.286-2.376c0-1.877,0.418-3.307,1.254-4.29c0.836-0.982,2.031-1.474,3.586-1.474
		c0.498,0,0.997,0.055,1.496,0.165c0.498,0.11,0.946,0.319,1.342,0.627c0.396,0.308,0.719,0.745,0.968,1.309
		c0.25,0.565,0.374,1.309,0.374,2.233c0,0.484-0.044,1.02-0.132,1.606h-7.062c0,0.646,0.065,1.218,0.197,1.716
		c0.133,0.499,0.338,0.92,0.616,1.265s0.642,0.608,1.089,0.792c0.447,0.183,0.994,0.275,1.64,0.275c0.498,0,0.997-0.088,1.496-0.264
		c0.498-0.176,0.872-0.381,1.122-0.616L697.384,29.703z M693.601,20.859c-0.866,0-1.559,0.228-2.079,0.682
		c-0.521,0.455-0.833,1.232-0.936,2.332h5.456c0-1.114-0.213-1.896-0.638-2.343C694.979,21.083,694.377,20.859,693.601,20.859z"/>
	<path fill="#FFFFFF" d="M104.316,47.183h1.76v10.274c0,0.924-0.121,1.724-0.363,2.398c-0.242,0.674-0.586,1.229-1.034,1.66
		c-0.448,0.434-0.987,0.752-1.617,0.957c-0.631,0.205-1.328,0.309-2.09,0.309c-1.819,0-3.19-0.41-4.114-1.232
		c-0.924-0.82-1.386-2.068-1.386-3.74V47.183h1.826v9.768c0,0.777,0.077,1.434,0.231,1.969c0.154,0.535,0.385,0.969,0.693,1.298
		c0.308,0.33,0.693,0.569,1.155,0.716s1.001,0.219,1.617,0.219c1.188,0,2.039-0.326,2.552-0.979s0.77-1.727,0.77-3.223V47.183z"/>
	<path fill="#FFFFFF" d="M119.76,48.811h-4.796v13.772h-1.826V48.811h-4.796v-1.628h11.418V48.811z"/>
	<path fill="#FFFFFF" d="M126.03,57.766l0.528,2.332h0.022l0.572-2.377l3.718-10.538h1.826l-5.83,15.642h-0.814l-5.94-15.642h2.002
		L126.03,57.766z"/>
	<path fill="#FFFFFF" d="M131.661,61.637c0-0.352,0.117-0.638,0.352-0.857c0.234-0.221,0.535-0.33,0.902-0.33
		c0.455,0,0.825,0.161,1.111,0.484c0.286,0.322,0.429,0.791,0.429,1.407c0,0.528-0.074,0.99-0.22,1.386
		c-0.146,0.396-0.337,0.737-0.572,1.023c-0.235,0.286-0.492,0.521-0.77,0.704c-0.279,0.183-0.558,0.319-0.836,0.407l-0.55-0.858
		c0.528-0.206,0.92-0.524,1.177-0.957c0.256-0.433,0.385-0.868,0.385-1.31c-0.132,0.045-0.257,0.066-0.374,0.066
		c-0.293,0-0.539-0.099-0.737-0.297C131.76,62.309,131.661,62.019,131.661,61.637z"/>
	<path fill="#FFFFFF" d="M148.117,57.721h-4.972v4.862h-1.76v-11h1.76v4.598h4.972v-4.598h1.76v11h-1.76V57.721z"/>
	<path fill="#FFFFFF" d="M161.296,61.703c-0.44,0.352-0.994,0.631-1.661,0.836c-0.667,0.205-1.375,0.309-2.123,0.309
		c-0.836,0-1.562-0.137-2.178-0.408c-0.616-0.271-1.122-0.66-1.518-1.166s-0.69-1.11-0.88-1.814s-0.286-1.496-0.286-2.376
		c0-1.877,0.418-3.307,1.254-4.29c0.836-0.982,2.031-1.474,3.586-1.474c0.499,0,0.997,0.055,1.496,0.165
		c0.499,0.11,0.946,0.319,1.342,0.627c0.396,0.308,0.719,0.745,0.968,1.309c0.249,0.565,0.374,1.309,0.374,2.233
		c0,0.484-0.044,1.019-0.132,1.606h-7.062c0,0.646,0.066,1.218,0.198,1.716c0.132,0.499,0.337,0.921,0.616,1.266
		c0.279,0.345,0.642,0.608,1.089,0.792c0.447,0.183,0.993,0.274,1.639,0.274c0.499,0,0.998-0.088,1.496-0.264
		s0.873-0.381,1.122-0.615L161.296,61.703z M157.511,52.859c-0.866,0-1.559,0.228-2.079,0.682s-0.833,1.232-0.935,2.332h5.456
		c0-1.114-0.212-1.896-0.638-2.343C158.89,53.083,158.289,52.859,157.511,52.859z"/>
	<path fill="#FFFFFF" d="M163.584,57.083c0-1.862,0.414-3.289,1.243-4.279c0.829-0.99,2.021-1.485,3.575-1.485
		c0.821,0,1.536,0.136,2.145,0.407c0.608,0.271,1.111,0.66,1.507,1.166s0.689,1.115,0.88,1.826c0.19,0.712,0.286,1.5,0.286,2.365
		c0,1.862-0.415,3.289-1.243,4.278c-0.829,0.99-2.021,1.486-3.575,1.486c-0.822,0-1.537-0.137-2.145-0.408
		c-0.609-0.271-1.111-0.66-1.507-1.166s-0.69-1.113-0.88-1.825S163.584,57.949,163.584,57.083z M165.409,57.083
		c0,0.558,0.055,1.093,0.165,1.606c0.11,0.514,0.282,0.961,0.517,1.342c0.234,0.381,0.542,0.689,0.924,0.924
		s0.843,0.352,1.386,0.352c1.995,0.016,2.992-1.393,2.992-4.224c0-0.571-0.055-1.114-0.165-1.628
		c-0.11-0.513-0.283-0.96-0.517-1.342c-0.235-0.381-0.543-0.685-0.924-0.913c-0.382-0.228-0.844-0.341-1.386-0.341
		C166.407,52.845,165.409,54.252,165.409,57.083z"/>
	<path fill="#FFFFFF" d="M185.583,65.377h-1.188l-0.33-2.794h-8.272l-0.33,2.794h-1.188v-4.334h1.298
		c0.117-0.161,0.271-0.451,0.462-0.869c0.19-0.418,0.377-1.004,0.561-1.76c0.183-0.756,0.344-1.693,0.484-2.816
		c0.139-1.122,0.224-2.46,0.253-4.015h6.644v9.46h1.606V65.377z M182.217,61.043v-7.92h-3.3c-0.029,0.616-0.081,1.287-0.154,2.013
		c-0.074,0.726-0.173,1.452-0.297,2.178c-0.125,0.726-0.282,1.411-0.473,2.057c-0.191,0.646-0.411,1.203-0.66,1.672H182.217z"/>
	<path fill="#FFFFFF" d="M194.493,57.721h-4.972v4.862h-1.76v-11h1.76v4.598h4.972v-4.598h1.76v11h-1.76V57.721z"/>
	<path fill="#FFFFFF" d="M199.025,57.083c0-1.862,0.414-3.289,1.243-4.279c0.829-0.99,2.021-1.485,3.575-1.485
		c0.821,0,1.536,0.136,2.145,0.407c0.608,0.271,1.111,0.66,1.507,1.166s0.689,1.115,0.88,1.826c0.19,0.712,0.286,1.5,0.286,2.365
		c0,1.862-0.415,3.289-1.243,4.278c-0.829,0.99-2.021,1.486-3.575,1.486c-0.822,0-1.537-0.137-2.145-0.408
		c-0.609-0.271-1.111-0.66-1.507-1.166s-0.69-1.113-0.88-1.825S199.025,57.949,199.025,57.083z M200.851,57.083
		c0,0.558,0.055,1.093,0.165,1.606c0.11,0.514,0.282,0.961,0.517,1.342c0.234,0.381,0.542,0.689,0.924,0.924
		s0.843,0.352,1.386,0.352c1.995,0.016,2.992-1.393,2.992-4.224c0-0.571-0.055-1.114-0.165-1.628
		c-0.11-0.513-0.283-0.96-0.517-1.342c-0.235-0.381-0.543-0.685-0.924-0.913c-0.382-0.228-0.844-0.341-1.386-0.341
		C201.848,52.845,200.851,54.252,200.851,57.083z"/>
	<path fill="#FFFFFF" d="M214.205,57.633h-1.012v4.95h-1.76v-11h1.76v4.972l0.946-0.308l3.52-4.664h1.914l-3.41,4.422l-0.924,0.726
		l1.144,0.881l3.674,4.972h-2.178L214.205,57.633z"/>
	<path fill="#FFFFFF" d="M221.949,51.583h1.21l0.33,1.32h0.088c0.337-0.513,0.773-0.905,1.309-1.177
		c0.535-0.271,1.147-0.407,1.837-0.407c1.467,0,2.56,0.433,3.278,1.298c0.718,0.865,1.078,2.281,1.078,4.246
		c0,0.924-0.121,1.756-0.363,2.496c-0.242,0.741-0.583,1.369-1.023,1.882s-0.972,0.909-1.595,1.188
		c-0.624,0.277-1.316,0.418-2.079,0.418c-0.543,0-0.972-0.033-1.287-0.1c-0.315-0.066-0.657-0.18-1.023-0.341v4.575h-1.76V51.583z
		 M226.393,52.859c-0.748,0-1.339,0.195-1.771,0.583c-0.433,0.389-0.737,0.979-0.913,1.771v5.456
		c0.264,0.206,0.564,0.363,0.902,0.474c0.337,0.109,0.785,0.164,1.342,0.164c1.012,0,1.815-0.377,2.409-1.133
		c0.594-0.755,0.891-1.866,0.891-3.333c0-0.601-0.052-1.147-0.154-1.639c-0.103-0.491-0.268-0.909-0.495-1.254
		c-0.228-0.345-0.521-0.612-0.88-0.803C227.365,52.955,226.921,52.859,226.393,52.859z"/>
	<path fill="#FFFFFF" d="M233.675,52.397c0.557-0.337,1.206-0.586,1.947-0.748c0.741-0.161,1.514-0.242,2.321-0.242
		c0.762,0,1.375,0.103,1.837,0.308c0.462,0.206,0.814,0.473,1.056,0.803c0.242,0.33,0.403,0.693,0.484,1.089
		c0.081,0.396,0.121,0.792,0.121,1.188c0,0.88-0.022,1.738-0.066,2.574c-0.044,0.836-0.066,1.628-0.066,2.376
		c0,0.542,0.022,1.056,0.066,1.54c0.044,0.484,0.125,0.932,0.242,1.342h-1.298l-0.462-1.54h-0.11
		c-0.132,0.206-0.297,0.407-0.495,0.604c-0.198,0.199-0.437,0.375-0.715,0.529c-0.279,0.153-0.602,0.281-0.968,0.385
		c-0.367,0.102-0.785,0.153-1.254,0.153c-0.47,0-0.906-0.073-1.309-0.22c-0.404-0.146-0.752-0.355-1.045-0.627
		c-0.294-0.271-0.525-0.598-0.693-0.979c-0.168-0.382-0.253-0.814-0.253-1.299c0-0.645,0.132-1.184,0.396-1.617
		c0.264-0.432,0.634-0.777,1.111-1.033c0.476-0.257,1.048-0.44,1.716-0.55c0.667-0.11,1.404-0.165,2.211-0.165
		c0.205,0,0.407,0,0.605,0c0.198,0,0.399,0.015,0.605,0.044c0.044-0.44,0.066-0.836,0.066-1.188c0-0.807-0.162-1.371-0.484-1.694
		c-0.323-0.323-0.91-0.484-1.76-0.484c-0.25,0-0.517,0.019-0.803,0.057c-0.286,0.038-0.58,0.09-0.88,0.158
		c-0.301,0.068-0.587,0.151-0.858,0.249c-0.272,0.098-0.51,0.207-0.715,0.328L233.675,52.397z M236.799,61.219
		c0.41,0,0.777-0.055,1.1-0.164c0.322-0.111,0.601-0.25,0.836-0.418c0.234-0.169,0.429-0.355,0.583-0.562
		c0.154-0.206,0.267-0.403,0.341-0.595v-1.826c-0.206-0.014-0.415-0.025-0.627-0.032c-0.213-0.007-0.422-0.011-0.627-0.011
		c-0.455,0-0.898,0.025-1.331,0.076c-0.433,0.053-0.814,0.147-1.144,0.287c-0.33,0.139-0.594,0.33-0.792,0.571
		c-0.198,0.242-0.297,0.547-0.297,0.913c0,0.514,0.183,0.936,0.55,1.266S236.226,61.219,236.799,61.219z"/>
	<path fill="#FFFFFF" d="M251.78,53.123h-3.454v9.46h-1.76v-9.46h-3.454v-1.54h8.668V53.123z"/>
	<path fill="#FFFFFF" d="M260.25,57.721h-4.972v4.862h-1.76v-11h1.76v4.598h4.972v-4.598h1.76v11h-1.76V57.721z"/>
	<path fill="#FFFFFF" d="M264.782,57.083c0-1.862,0.414-3.289,1.243-4.279c0.829-0.99,2.021-1.485,3.575-1.485
		c0.821,0,1.536,0.136,2.145,0.407c0.608,0.271,1.111,0.66,1.507,1.166s0.689,1.115,0.88,1.826c0.19,0.712,0.286,1.5,0.286,2.365
		c0,1.862-0.415,3.289-1.243,4.278c-0.829,0.99-2.021,1.486-3.575,1.486c-0.822,0-1.537-0.137-2.145-0.408
		c-0.609-0.271-1.111-0.66-1.507-1.166s-0.69-1.113-0.88-1.825S264.782,57.949,264.782,57.083z M266.608,57.083
		c0,0.558,0.055,1.093,0.165,1.606c0.11,0.514,0.282,0.961,0.517,1.342c0.234,0.381,0.542,0.689,0.924,0.924
		s0.843,0.352,1.386,0.352c1.995,0.016,2.992-1.393,2.992-4.224c0-0.571-0.055-1.114-0.165-1.628
		c-0.11-0.513-0.283-0.96-0.517-1.342c-0.235-0.381-0.543-0.685-0.924-0.913c-0.382-0.228-0.844-0.341-1.386-0.341
		C267.605,52.845,266.608,54.252,266.608,57.083z"/>
	<path fill="#FFFFFF" d="M283.614,53.123h-4.664v9.46h-1.76v-11h6.424V53.123z"/>
	<path fill="#FFFFFF" d="M284.34,57.083c0-1.862,0.414-3.289,1.243-4.279c0.829-0.99,2.021-1.485,3.575-1.485
		c0.821,0,1.536,0.136,2.145,0.407c0.608,0.271,1.111,0.66,1.507,1.166s0.689,1.115,0.88,1.826c0.19,0.712,0.286,1.5,0.286,2.365
		c0,1.862-0.415,3.289-1.243,4.278c-0.829,0.99-2.021,1.486-3.575,1.486c-0.822,0-1.537-0.137-2.145-0.408
		c-0.609-0.271-1.111-0.66-1.507-1.166s-0.69-1.113-0.88-1.825S284.34,57.949,284.34,57.083z M286.166,57.083
		c0,0.558,0.055,1.093,0.165,1.606c0.11,0.514,0.282,0.961,0.517,1.342c0.234,0.381,0.542,0.689,0.924,0.924
		s0.843,0.352,1.386,0.352c1.995,0.016,2.992-1.393,2.992-4.224c0-0.571-0.055-1.114-0.165-1.628
		c-0.11-0.513-0.283-0.96-0.517-1.342c-0.235-0.381-0.543-0.685-0.924-0.913c-0.382-0.228-0.844-0.341-1.386-0.341
		C287.163,52.845,286.166,54.252,286.166,57.083z"/>
	<path fill="#FFFFFF" d="M309.243,53.123h-4.862v9.46h-1.76v-11h8.382v11h-1.76V53.123z"/>
	<path fill="#FFFFFF" d="M313.776,57.083c0-1.862,0.414-3.289,1.243-4.279c0.829-0.99,2.021-1.485,3.575-1.485
		c0.821,0,1.536,0.136,2.145,0.407c0.608,0.271,1.111,0.66,1.507,1.166s0.689,1.115,0.88,1.826c0.19,0.712,0.286,1.5,0.286,2.365
		c0,1.862-0.415,3.289-1.243,4.278c-0.829,0.99-2.021,1.486-3.575,1.486c-0.822,0-1.537-0.137-2.145-0.408
		c-0.609-0.271-1.111-0.66-1.507-1.166s-0.69-1.113-0.88-1.825S313.776,57.949,313.776,57.083z M315.601,57.083
		c0,0.558,0.055,1.093,0.165,1.606c0.11,0.514,0.282,0.961,0.517,1.342c0.234,0.381,0.542,0.689,0.924,0.924
		s0.843,0.352,1.386,0.352c1.995,0.016,2.992-1.393,2.992-4.224c0-0.571-0.055-1.114-0.165-1.628
		c-0.11-0.513-0.283-0.96-0.517-1.342c-0.235-0.381-0.543-0.685-0.924-0.913c-0.382-0.228-0.844-0.341-1.386-0.341
		C316.599,52.845,315.601,54.252,315.601,57.083z"/>
	<path fill="#FFFFFF" d="M327.196,53.541c0.484-0.704,1.019-1.199,1.606-1.485c0.586-0.286,1.32-0.429,2.2-0.429
		c1.349,0,2.387,0.44,3.113,1.32c0.726,0.88,1.089,2.178,1.089,3.894c0,1.979-0.422,3.476-1.265,4.488
		c-0.844,1.012-2.021,1.519-3.531,1.519c-1.614,0-2.824-0.559-3.63-1.673c-0.807-1.114-1.21-2.867-1.21-5.258
		c0-1.261,0.062-2.339,0.187-3.234c0.125-0.895,0.308-1.65,0.55-2.266c0.242-0.616,0.535-1.107,0.88-1.474
		c0.345-0.366,0.733-0.656,1.166-0.869c0.433-0.213,0.906-0.363,1.419-0.451c0.514-0.088,1.063-0.161,1.65-0.22
		c0.762-0.073,1.36-0.157,1.793-0.253c0.432-0.095,0.781-0.267,1.045-0.517l0.198,1.584c-0.146,0.132-0.308,0.242-0.484,0.33
		c-0.176,0.088-0.389,0.162-0.638,0.22c-0.25,0.059-0.547,0.11-0.891,0.154c-0.345,0.044-0.745,0.081-1.199,0.11
		c-0.631,0.044-1.185,0.121-1.661,0.231c-0.477,0.11-0.887,0.323-1.232,0.638c-0.345,0.315-0.616,0.763-0.814,1.342
		c-0.198,0.58-0.333,1.346-0.407,2.299H327.196z M327.393,57.105c0,0.557,0.059,1.092,0.176,1.605
		c0.117,0.514,0.297,0.965,0.539,1.354c0.242,0.389,0.553,0.692,0.935,0.912c0.381,0.221,0.828,0.33,1.342,0.33
		c1.012,0,1.764-0.363,2.255-1.089s0.737-1.8,0.737-3.223c0-0.557-0.052-1.07-0.154-1.54c-0.103-0.469-0.264-0.876-0.484-1.221
		c-0.22-0.344-0.499-0.608-0.836-0.792c-0.337-0.183-0.741-0.275-1.21-0.275c-1.144-0.015-1.98,0.319-2.508,1.001
		C327.657,54.85,327.393,55.829,327.393,57.105z"/>
	<path fill="#FFFFFF" d="M346.006,61.703c-0.44,0.352-0.994,0.631-1.661,0.836c-0.667,0.205-1.375,0.309-2.123,0.309
		c-0.836,0-1.562-0.137-2.178-0.408c-0.616-0.271-1.122-0.66-1.518-1.166s-0.69-1.11-0.88-1.814s-0.286-1.496-0.286-2.376
		c0-1.877,0.418-3.307,1.254-4.29c0.836-0.982,2.031-1.474,3.586-1.474c0.499,0,0.997,0.055,1.496,0.165
		c0.499,0.11,0.946,0.319,1.342,0.627c0.396,0.308,0.719,0.745,0.968,1.309c0.249,0.565,0.374,1.309,0.374,2.233
		c0,0.484-0.044,1.019-0.132,1.606h-7.062c0,0.646,0.066,1.218,0.198,1.716c0.132,0.499,0.337,0.921,0.616,1.266
		c0.279,0.345,0.642,0.608,1.089,0.792c0.447,0.183,0.993,0.274,1.639,0.274c0.499,0,0.998-0.088,1.496-0.264
		s0.873-0.381,1.122-0.615L346.006,61.703z M342.221,52.859c-0.866,0-1.559,0.228-2.079,0.682s-0.833,1.232-0.935,2.332h5.456
		c0-1.114-0.212-1.896-0.638-2.343C343.6,53.083,342.999,52.859,342.221,52.859z"/>
	<path fill="#FFFFFF" d="M358.391,65.377h-1.188l-0.33-2.794h-8.272l-0.33,2.794h-1.188v-4.334h1.298
		c0.117-0.161,0.271-0.451,0.462-0.869c0.19-0.418,0.377-1.004,0.561-1.76c0.183-0.756,0.344-1.693,0.484-2.816
		c0.139-1.122,0.224-2.46,0.253-4.015h6.644v9.46h1.606V65.377z M355.025,61.043v-7.92h-3.3c-0.029,0.616-0.081,1.287-0.154,2.013
		c-0.074,0.726-0.173,1.452-0.297,2.178c-0.125,0.726-0.282,1.411-0.473,2.057c-0.191,0.646-0.411,1.203-0.66,1.672H355.025z"/>
	<path fill="#FFFFFF" d="M367.433,56.071l0.066-1.364h-0.066l-0.902,1.408l-4.95,6.468h-1.012v-11h1.76v6.71l-0.066,1.298h0.088
		l0.858-1.364l4.95-6.644h1.034v11h-1.76V56.071z"/>
	<path fill="#FFFFFF" d="M379.599,53.123h-3.454v9.46h-1.76v-9.46h-3.454v-1.54h8.668V53.123z"/>
	<path fill="#FFFFFF" d="M389.015,61.703c-0.44,0.352-0.994,0.631-1.661,0.836c-0.667,0.205-1.375,0.309-2.123,0.309
		c-0.836,0-1.562-0.137-2.178-0.408c-0.616-0.271-1.122-0.66-1.518-1.166s-0.69-1.11-0.88-1.814s-0.286-1.496-0.286-2.376
		c0-1.877,0.418-3.307,1.254-4.29c0.836-0.982,2.031-1.474,3.586-1.474c0.499,0,0.997,0.055,1.496,0.165
		c0.499,0.11,0.946,0.319,1.342,0.627c0.396,0.308,0.719,0.745,0.968,1.309c0.249,0.565,0.374,1.309,0.374,2.233
		c0,0.484-0.044,1.019-0.132,1.606h-7.062c0,0.646,0.066,1.218,0.198,1.716c0.132,0.499,0.337,0.921,0.616,1.266
		c0.279,0.345,0.642,0.608,1.089,0.792c0.447,0.183,0.993,0.274,1.639,0.274c0.499,0,0.998-0.088,1.496-0.264
		s0.873-0.381,1.122-0.615L389.015,61.703z M385.231,52.859c-0.866,0-1.559,0.228-2.079,0.682s-0.833,1.232-0.935,2.332h5.456
		c0-1.114-0.212-1.896-0.638-2.343C386.609,53.083,386.008,52.859,385.231,52.859z"/>
	<path fill="#FFFFFF" d="M397.595,53.123h-3.19c-0.044,0.616-0.088,1.28-0.132,1.991c-0.044,0.712-0.11,1.423-0.198,2.134
		c-0.088,0.711-0.206,1.394-0.352,2.046c-0.147,0.653-0.334,1.229-0.561,1.728c-0.228,0.498-0.506,0.898-0.836,1.199
		c-0.33,0.301-0.722,0.45-1.177,0.45c-0.279,0-0.521-0.015-0.726-0.044c-0.206-0.029-0.389-0.08-0.55-0.154l0.264-1.474
		c0.176,0.059,0.367,0.088,0.572,0.088c0.293,0,0.557-0.124,0.792-0.374c0.234-0.249,0.44-0.723,0.616-1.419
		c0.176-0.696,0.323-1.661,0.44-2.893c0.117-1.232,0.198-2.838,0.242-4.818h6.556v11h-1.76V53.123z"/>
	<path fill="#FFFFFF" d="M408.221,58.029l-1.694,0.264l-2.904,4.29h-2.134l2.64-3.763l0.88-0.813
		c-0.763-0.117-1.412-0.425-1.947-0.924c-0.536-0.499-0.803-1.173-0.803-2.024c0-0.66,0.113-1.225,0.341-1.694
		s0.554-0.858,0.979-1.166c0.425-0.308,0.932-0.532,1.518-0.671c0.586-0.139,1.247-0.209,1.98-0.209c0.542,0,1.049,0.037,1.518,0.11
		s0.931,0.154,1.386,0.242v10.912h-1.76V58.029z M408.221,53.079c-0.19-0.073-0.403-0.128-0.638-0.165
		c-0.235-0.037-0.44-0.055-0.616-0.055c-0.939,0-1.654,0.169-2.145,0.506c-0.492,0.337-0.737,0.873-0.737,1.606
		c0,0.66,0.26,1.169,0.781,1.529s1.207,0.539,2.057,0.539c0.015,0,0.037,0,0.066,0s0.088,0,0.176,0c0.088,0,0.212-0.004,0.374-0.012
		c0.161-0.006,0.388-0.018,0.682-0.032V53.079z"/>
	<path fill="#FFFFFF" d="M425.931,56.071l0.065-1.364h-0.065l-0.902,1.408l-4.95,6.468h-1.012v-11h1.76v6.71l-0.065,1.298h0.088
		l0.858-1.364l4.949-6.644h1.034v11h-1.76V56.071z"/>
	<path fill="#FFFFFF" d="M444.454,61.857c-0.44,0.322-0.961,0.568-1.563,0.736s-1.231,0.254-1.892,0.254
		c-0.851,0-1.569-0.137-2.156-0.408c-0.587-0.271-1.067-0.66-1.441-1.166c-0.373-0.506-0.646-1.113-0.813-1.825
		c-0.169-0.712-0.253-1.499-0.253-2.365c0-1.862,0.41-3.289,1.231-4.279c0.821-0.99,2.002-1.485,3.542-1.485
		c0.704,0,1.302,0.055,1.793,0.165c0.491,0.11,0.936,0.268,1.331,0.473l-0.506,1.518c-0.337-0.19-0.711-0.341-1.122-0.451
		c-0.41-0.11-0.851-0.165-1.319-0.165c-2.083,0-3.124,1.408-3.124,4.224c0,0.558,0.055,1.089,0.165,1.595
		c0.109,0.506,0.293,0.953,0.55,1.342c0.256,0.389,0.594,0.701,1.012,0.936s0.936,0.352,1.551,0.352c0.528,0,1.001-0.08,1.419-0.242
		c0.418-0.16,0.76-0.344,1.023-0.549L444.454,61.857z"/>
	<path fill="#FFFFFF" d="M449.81,58.711l0.618,2.112h0.11l0.486-2.134l2.142-7.106h1.76l-3.256,9.878
		c-0.249,0.719-0.495,1.416-0.737,2.09c-0.241,0.675-0.51,1.276-0.803,1.805c-0.293,0.527-0.623,0.949-0.99,1.265
		c-0.366,0.315-0.792,0.473-1.275,0.473c-0.528,0-0.961-0.073-1.298-0.22l0.308-1.518c0.19,0.072,0.374,0.109,0.55,0.109
		c0.411,0,0.807-0.217,1.188-0.648c0.381-0.434,0.696-1.178,0.945-2.233l-4.422-11h2.024L449.81,58.711z"/>
	<path fill="#FFFFFF" d="M466.235,65.377h-1.188l-0.33-2.794h-8.272l-0.33,2.794h-1.188v-4.334h1.298
		c0.117-0.161,0.271-0.451,0.462-0.869s0.377-1.004,0.561-1.76s0.345-1.693,0.484-2.816c0.14-1.122,0.224-2.46,0.253-4.015h6.644
		v9.46h1.606V65.377z M462.868,61.043v-7.92h-3.3c-0.029,0.616-0.081,1.287-0.154,2.013c-0.073,0.726-0.172,1.452-0.297,2.178
		c-0.125,0.726-0.282,1.411-0.473,2.057s-0.411,1.203-0.66,1.672H462.868z"/>
	<path fill="#FFFFFF" d="M470.172,55.785c0.352-0.059,0.689-0.099,1.012-0.121s0.631-0.033,0.924-0.033
		c0.763,0,1.408,0.084,1.937,0.253c0.527,0.169,0.957,0.4,1.287,0.693c0.33,0.294,0.568,0.642,0.715,1.045s0.22,0.833,0.22,1.287
		c0,1.335-0.399,2.303-1.199,2.903c-0.799,0.602-2.042,0.902-3.729,0.902c-0.938,0-1.914-0.044-2.926-0.132v-11h1.76V55.785z
		 M470.172,61.043c0.542,0.088,1.063,0.132,1.562,0.132c0.925,0,1.606-0.179,2.046-0.538c0.44-0.359,0.66-0.869,0.66-1.529
		c0-0.587-0.213-1.07-0.638-1.453c-0.426-0.381-1.093-0.571-2.002-0.571c-0.25,0-0.521,0.007-0.814,0.022
		c-0.293,0.014-0.564,0.059-0.813,0.131V61.043z"/>
	<path fill="#FFFFFF" d="M485.484,56.071l0.066-1.364h-0.066l-0.901,1.408l-4.95,6.468h-1.012v-11h1.76v6.71l-0.066,1.298h0.088
		l0.858-1.364l4.95-6.644h1.034v11h-1.761V56.071z"/>
	<path fill="#FFFFFF" d="M505.966,50.703c0,0.367-0.059,0.741-0.177,1.122c-0.117,0.381-0.293,0.737-0.527,1.067
		c-0.235,0.33-0.536,0.62-0.902,0.869s-0.8,0.44-1.298,0.572v0.088c0.44,0.074,0.861,0.198,1.265,0.374
		c0.403,0.176,0.76,0.418,1.067,0.726s0.558,0.682,0.748,1.122c0.19,0.44,0.286,0.961,0.286,1.563c0,0.792-0.165,1.478-0.495,2.057
		c-0.33,0.58-0.763,1.053-1.298,1.42c-0.536,0.366-1.148,0.637-1.837,0.813c-0.689,0.176-1.394,0.264-2.112,0.264
		c-0.25,0-0.543,0-0.88,0c-0.338,0-0.689-0.011-1.056-0.032c-0.367-0.022-0.734-0.053-1.101-0.088
		c-0.366-0.037-0.689-0.092-0.968-0.166V47.315c0.542-0.088,1.173-0.161,1.892-0.22s1.504-0.088,2.354-0.088
		c0.572,0,1.155,0.048,1.749,0.143c0.594,0.096,1.133,0.279,1.617,0.55c0.483,0.271,0.883,0.649,1.198,1.133
		S505.966,49.94,505.966,50.703z M499.652,53.959c0.249,0,0.55-0.007,0.902-0.022c0.352-0.015,0.646-0.037,0.88-0.066
		c0.352-0.117,0.682-0.26,0.99-0.429c0.308-0.168,0.583-0.366,0.824-0.594c0.242-0.228,0.433-0.491,0.572-0.792
		s0.209-0.627,0.209-0.979c0-0.484-0.092-0.884-0.274-1.199c-0.184-0.315-0.43-0.568-0.737-0.759s-0.66-0.326-1.056-0.407
		c-0.396-0.081-0.8-0.121-1.21-0.121c-0.484,0-0.928,0.011-1.331,0.033c-0.404,0.022-0.708,0.055-0.913,0.099v5.236H499.652z
		 M500.862,61.175c0.47,0,0.924-0.055,1.364-0.165c0.439-0.109,0.828-0.285,1.166-0.527c0.337-0.242,0.604-0.539,0.803-0.892
		s0.297-0.771,0.297-1.254c0-0.601-0.121-1.085-0.362-1.452c-0.242-0.366-0.558-0.652-0.946-0.858
		c-0.389-0.205-0.825-0.344-1.31-0.418c-0.483-0.073-0.968-0.11-1.451-0.11h-1.914v5.522c0.103,0.029,0.249,0.051,0.439,0.065
		s0.396,0.03,0.616,0.044c0.22,0.016,0.447,0.025,0.682,0.033S500.686,61.175,500.862,61.175z"/>
	<path fill="#FFFFFF" d="M516.856,61.857c-0.44,0.322-0.961,0.568-1.563,0.736s-1.231,0.254-1.892,0.254
		c-0.851,0-1.569-0.137-2.156-0.408c-0.587-0.271-1.067-0.66-1.441-1.166c-0.373-0.506-0.646-1.113-0.813-1.825
		c-0.169-0.712-0.253-1.499-0.253-2.365c0-1.862,0.41-3.289,1.231-4.279c0.821-0.99,2.002-1.485,3.542-1.485
		c0.704,0,1.302,0.055,1.793,0.165c0.491,0.11,0.936,0.268,1.331,0.473l-0.506,1.518c-0.337-0.19-0.711-0.341-1.122-0.451
		c-0.41-0.11-0.851-0.165-1.319-0.165c-2.083,0-3.124,1.408-3.124,4.224c0,0.558,0.055,1.089,0.165,1.595
		c0.109,0.506,0.293,0.953,0.55,1.342c0.256,0.389,0.594,0.701,1.012,0.936s0.936,0.352,1.551,0.352c0.528,0,1.001-0.08,1.419-0.242
		c0.418-0.16,0.76-0.344,1.023-0.549L516.856,61.857z"/>
	<path fill="#FFFFFF" d="M526.799,61.703c-0.439,0.352-0.993,0.631-1.66,0.836c-0.668,0.205-1.375,0.309-2.123,0.309
		c-0.837,0-1.563-0.137-2.179-0.408c-0.615-0.271-1.122-0.66-1.518-1.166c-0.396-0.506-0.689-1.11-0.88-1.814
		c-0.191-0.704-0.286-1.496-0.286-2.376c0-1.877,0.418-3.307,1.254-4.29c0.836-0.982,2.031-1.474,3.586-1.474
		c0.498,0,0.997,0.055,1.496,0.165c0.498,0.11,0.946,0.319,1.342,0.627c0.396,0.308,0.719,0.745,0.968,1.309
		c0.25,0.565,0.374,1.309,0.374,2.233c0,0.484-0.044,1.019-0.132,1.606h-7.062c0,0.646,0.065,1.218,0.197,1.716
		c0.133,0.499,0.338,0.921,0.616,1.266s0.642,0.608,1.089,0.792c0.447,0.183,0.994,0.274,1.64,0.274
		c0.498,0,0.997-0.088,1.496-0.264c0.498-0.176,0.872-0.381,1.122-0.615L526.799,61.703z M523.016,52.859
		c-0.866,0-1.559,0.228-2.079,0.682c-0.521,0.455-0.833,1.232-0.936,2.332h5.456c0-1.114-0.213-1.896-0.638-2.343
		C524.394,53.083,523.792,52.859,523.016,52.859z"/>
	<path fill="#FFFFFF" d="M529.946,51.583h1.21l0.33,1.32h0.088c0.337-0.513,0.773-0.905,1.309-1.177s1.147-0.407,1.837-0.407
		c1.467,0,2.56,0.433,3.278,1.298s1.078,2.281,1.078,4.246c0,0.924-0.121,1.756-0.363,2.496c-0.242,0.741-0.583,1.369-1.022,1.882
		c-0.44,0.513-0.973,0.909-1.596,1.188c-0.623,0.277-1.316,0.418-2.079,0.418c-0.542,0-0.972-0.033-1.287-0.1
		s-0.656-0.18-1.022-0.341v4.575h-1.76V51.583z M534.389,52.859c-0.748,0-1.338,0.195-1.771,0.583
		c-0.433,0.389-0.737,0.979-0.913,1.771v5.456c0.264,0.206,0.564,0.363,0.902,0.474c0.337,0.109,0.784,0.164,1.342,0.164
		c1.012,0,1.814-0.377,2.409-1.133c0.594-0.755,0.891-1.866,0.891-3.333c0-0.601-0.052-1.147-0.154-1.639s-0.268-0.909-0.495-1.254
		s-0.521-0.612-0.88-0.803C535.361,52.955,534.917,52.859,534.389,52.859z"/>
	<path fill="#FFFFFF" d="M541.231,57.083c0-1.862,0.414-3.289,1.243-4.279c0.828-0.99,2.02-1.485,3.575-1.485
		c0.82,0,1.536,0.136,2.145,0.407s1.111,0.66,1.507,1.166c0.396,0.506,0.689,1.115,0.88,1.826c0.19,0.712,0.286,1.5,0.286,2.365
		c0,1.862-0.414,3.289-1.243,4.278c-0.828,0.99-2.021,1.486-3.574,1.486c-0.822,0-1.537-0.137-2.146-0.408
		c-0.608-0.271-1.111-0.66-1.507-1.166c-0.396-0.506-0.689-1.113-0.88-1.825C541.325,58.736,541.231,57.949,541.231,57.083z
		 M543.057,57.083c0,0.558,0.055,1.093,0.165,1.606c0.109,0.514,0.282,0.961,0.517,1.342s0.543,0.689,0.924,0.924
		c0.382,0.234,0.844,0.352,1.387,0.352c1.994,0.016,2.991-1.393,2.991-4.224c0-0.571-0.055-1.114-0.165-1.628
		c-0.109-0.513-0.282-0.96-0.517-1.342c-0.234-0.381-0.543-0.685-0.924-0.913c-0.382-0.228-0.844-0.341-1.386-0.341
		C544.054,52.845,543.057,54.252,543.057,57.083z"/>
	<path fill="#FFFFFF" d="M561.141,61.857c-0.44,0.322-0.961,0.568-1.563,0.736s-1.231,0.254-1.892,0.254
		c-0.851,0-1.569-0.137-2.156-0.408c-0.587-0.271-1.067-0.66-1.441-1.166c-0.373-0.506-0.646-1.113-0.813-1.825
		c-0.169-0.712-0.253-1.499-0.253-2.365c0-1.862,0.41-3.289,1.231-4.279c0.821-0.99,2.002-1.485,3.542-1.485
		c0.704,0,1.302,0.055,1.793,0.165c0.491,0.11,0.936,0.268,1.331,0.473l-0.506,1.518c-0.337-0.19-0.711-0.341-1.122-0.451
		c-0.41-0.11-0.851-0.165-1.319-0.165c-2.083,0-3.124,1.408-3.124,4.224c0,0.558,0.055,1.089,0.165,1.595
		c0.109,0.506,0.293,0.953,0.55,1.342c0.256,0.389,0.594,0.701,1.012,0.936s0.936,0.352,1.551,0.352c0.528,0,1.001-0.08,1.419-0.242
		c0.418-0.16,0.76-0.344,1.023-0.549L561.141,61.857z"/>
	<path fill="#FFFFFF" d="M570.557,61.857c-0.44,0.322-0.961,0.568-1.563,0.736s-1.231,0.254-1.892,0.254
		c-0.851,0-1.569-0.137-2.156-0.408c-0.587-0.271-1.067-0.66-1.441-1.166c-0.373-0.506-0.646-1.113-0.813-1.825
		c-0.169-0.712-0.253-1.499-0.253-2.365c0-1.862,0.41-3.289,1.231-4.279c0.821-0.99,2.002-1.485,3.542-1.485
		c0.704,0,1.302,0.055,1.793,0.165c0.491,0.11,0.936,0.268,1.331,0.473l-0.506,1.518c-0.337-0.19-0.711-0.341-1.122-0.451
		c-0.41-0.11-0.851-0.165-1.319-0.165c-2.083,0-3.124,1.408-3.124,4.224c0,0.558,0.055,1.089,0.165,1.595
		c0.109,0.506,0.293,0.953,0.55,1.342c0.256,0.389,0.594,0.701,1.012,0.936s0.936,0.352,1.551,0.352c0.528,0,1.001-0.08,1.419-0.242
		c0.418-0.16,0.76-0.344,1.023-0.549L570.557,61.857z"/>
	<path fill="#FFFFFF" d="M579.84,56.071l0.066-1.364h-0.066l-0.901,1.408l-4.95,6.468h-1.012v-11h1.76v6.71l-0.066,1.298h0.088
		l0.858-1.364l4.95-6.644h1.034v11h-1.761V56.071z"/>
	<path fill="#FFFFFF" d="M591.852,56.071l0.066-1.364h-0.066l-0.901,1.408L586,62.583h-1.012v-11h1.76v6.71l-0.066,1.298h0.088
		l0.858-1.364l4.95-6.644h1.034v11h-1.761V56.071z M587.518,47.139c0.146,0.675,0.399,1.144,0.76,1.408
		c0.358,0.264,0.773,0.396,1.242,0.396c0.47,0,0.888-0.139,1.255-0.418c0.366-0.278,0.615-0.733,0.747-1.364l1.32,0.418
		c-0.132,0.851-0.51,1.503-1.133,1.958c-0.624,0.455-1.368,0.682-2.233,0.682c-0.396,0-0.788-0.051-1.177-0.154
		c-0.389-0.103-0.737-0.256-1.045-0.462c-0.308-0.205-0.572-0.469-0.792-0.792c-0.22-0.322-0.367-0.704-0.44-1.144L587.518,47.139z"
		/>
	<path fill="#FFFFFF" d="M604.502,61.857c-0.44,0.322-0.961,0.568-1.563,0.736s-1.231,0.254-1.892,0.254
		c-0.851,0-1.569-0.137-2.156-0.408c-0.587-0.271-1.067-0.66-1.441-1.166c-0.373-0.506-0.646-1.113-0.813-1.825
		c-0.169-0.712-0.253-1.499-0.253-2.365c0-1.862,0.41-3.289,1.231-4.279c0.821-0.99,2.002-1.485,3.542-1.485
		c0.704,0,1.302,0.055,1.793,0.165c0.491,0.11,0.936,0.268,1.331,0.473l-0.506,1.518c-0.337-0.19-0.711-0.341-1.122-0.451
		c-0.41-0.11-0.851-0.165-1.319-0.165c-2.083,0-3.124,1.408-3.124,4.224c0,0.558,0.055,1.089,0.165,1.595
		c0.109,0.506,0.293,0.953,0.55,1.342c0.256,0.389,0.594,0.701,1.012,0.936s0.936,0.352,1.551,0.352c0.528,0,1.001-0.08,1.419-0.242
		c0.418-0.16,0.76-0.344,1.023-0.549L604.502,61.857z"/>
	<path fill="#FFFFFF" d="M609.694,57.633h-1.012v4.95h-1.76v-11h1.76v4.972l0.946-0.308l3.52-4.664h1.914l-3.41,4.422l-0.924,0.726
		l1.144,0.881l3.675,4.972h-2.179L609.694,57.633z"/>
	<path fill="#FFFFFF" d="M624.301,56.071l0.066-1.364h-0.066l-0.901,1.408l-4.95,6.468h-1.012v-11h1.76v6.71l-0.066,1.298h0.088
		l0.858-1.364l4.95-6.644h1.034v11h-1.761V56.071z"/>
	<path fill="#FFFFFF" d="M632.331,56.951l-3.696-5.368h2.156l2.09,3.036l0.616,1.254l0.638-1.254l2.134-3.036h1.98l-3.718,5.28
		l3.938,5.72h-2.09l-2.332-3.345l-0.66-1.319l-0.682,1.319l-2.376,3.345h-1.958L632.331,56.951z"/>
	<path fill="#FFFFFF" d="M651.009,62.671c-0.249,0.088-0.51,0.14-0.78,0.154c-0.271,0.015-0.518,0.022-0.737,0.022
		c-1.335,0-2.361-0.47-3.08-1.408c-0.719-0.939-1.078-2.391-1.078-4.356c0-1.877,0.396-3.292,1.188-4.246
		c0.792-0.953,1.936-1.43,3.432-1.43c0.41,0,0.763,0.029,1.056,0.088v-4.312h1.673v4.334c0.264-0.044,0.498-0.073,0.703-0.088
		c0.206-0.015,0.403-0.022,0.595-0.022c1.452,0,2.544,0.421,3.277,1.265c0.733,0.844,1.101,2.241,1.101,4.191
		c0,0.924-0.1,1.756-0.297,2.496c-0.198,0.741-0.488,1.369-0.869,1.882c-0.382,0.513-0.848,0.909-1.397,1.188
		c-0.55,0.277-1.185,0.418-1.902,0.418c-0.133,0-0.327-0.012-0.583-0.033c-0.257-0.022-0.466-0.063-0.627-0.121v4.289h-1.673V62.671
		z M649.932,61.395c0.176,0,0.352-0.007,0.527-0.021s0.366-0.044,0.572-0.088v-8.338c-0.176-0.029-0.341-0.051-0.495-0.066
		c-0.154-0.014-0.341-0.022-0.561-0.022c-0.91,0-1.617,0.341-2.123,1.023c-0.506,0.682-0.76,1.749-0.76,3.201
		c0,0.616,0.056,1.188,0.165,1.716c0.11,0.528,0.282,0.986,0.518,1.375c0.234,0.389,0.531,0.689,0.891,0.902
		S649.448,61.395,649.932,61.395z M653.65,52.859c-0.176,0-0.334,0.004-0.474,0.011c-0.139,0.007-0.312,0.041-0.517,0.099v8.36
		c0.146,0.029,0.312,0.048,0.495,0.055c0.184,0.008,0.385,0.011,0.604,0.011c0.938,0,1.646-0.389,2.123-1.166
		s0.716-1.898,0.716-3.365c0-1.247-0.217-2.226-0.649-2.938C655.516,53.215,654.749,52.859,653.65,52.859z"/>
	<path fill="#FFFFFF" d="M669.049,61.703c-0.439,0.352-0.993,0.631-1.66,0.836c-0.668,0.205-1.375,0.309-2.123,0.309
		c-0.837,0-1.563-0.137-2.179-0.408c-0.615-0.271-1.122-0.66-1.518-1.166c-0.396-0.506-0.689-1.11-0.88-1.814
		c-0.191-0.704-0.286-1.496-0.286-2.376c0-1.877,0.418-3.307,1.254-4.29c0.836-0.982,2.031-1.474,3.586-1.474
		c0.498,0,0.997,0.055,1.496,0.165c0.498,0.11,0.946,0.319,1.342,0.627c0.396,0.308,0.719,0.745,0.968,1.309
		c0.25,0.565,0.374,1.309,0.374,2.233c0,0.484-0.044,1.019-0.132,1.606h-7.062c0,0.646,0.065,1.218,0.197,1.716
		c0.133,0.499,0.338,0.921,0.616,1.266s0.642,0.608,1.089,0.792c0.447,0.183,0.994,0.274,1.64,0.274
		c0.498,0,0.997-0.088,1.496-0.264c0.498-0.176,0.872-0.381,1.122-0.615L669.049,61.703z M665.266,52.859
		c-0.866,0-1.559,0.228-2.079,0.682c-0.521,0.455-0.833,1.232-0.936,2.332h5.456c0-1.114-0.213-1.896-0.638-2.343
		C666.644,53.083,666.042,52.859,665.266,52.859z"/>
	<path fill="#FFFFFF" d="M679.456,61.857c-0.44,0.322-0.961,0.568-1.563,0.736s-1.231,0.254-1.892,0.254
		c-0.851,0-1.569-0.137-2.156-0.408c-0.587-0.271-1.067-0.66-1.441-1.166c-0.373-0.506-0.646-1.113-0.813-1.825
		c-0.169-0.712-0.253-1.499-0.253-2.365c0-1.862,0.41-3.289,1.231-4.279c0.821-0.99,2.002-1.485,3.542-1.485
		c0.704,0,1.302,0.055,1.793,0.165c0.491,0.11,0.936,0.268,1.331,0.473l-0.506,1.518c-0.337-0.19-0.711-0.341-1.122-0.451
		c-0.41-0.11-0.851-0.165-1.319-0.165c-2.083,0-3.124,1.408-3.124,4.224c0,0.558,0.055,1.089,0.165,1.595
		c0.109,0.506,0.293,0.953,0.55,1.342c0.256,0.389,0.594,0.701,1.012,0.936s0.936,0.352,1.551,0.352c0.528,0,1.001-0.08,1.419-0.242
		c0.418-0.16,0.76-0.344,1.023-0.549L679.456,61.857z"/>
	<path fill="#FFFFFF" d="M688.541,53.123h-3.454v9.46h-1.76v-9.46h-3.454v-1.54h8.668V53.123z"/>
	<path fill="#FFFFFF" d="M697.143,56.071l0.066-1.364h-0.066l-0.901,1.408l-4.95,6.468h-1.012v-11h1.76v6.71l-0.066,1.298h0.088
		l0.858-1.364l4.95-6.644h1.034v11h-1.761V56.071z"/>
	<path fill="#FFFFFF" d="M702.291,51.605c0.513-0.029,1.052-0.066,1.616-0.11s1.266-0.066,2.102-0.066
		c1.452,0,2.493,0.224,3.124,0.671c0.63,0.447,0.946,1.125,0.946,2.035c0,0.514-0.151,1.016-0.451,1.507
		c-0.301,0.492-0.796,0.854-1.485,1.088v0.088c0.865,0.162,1.474,0.463,1.826,0.902c0.352,0.44,0.528,1.027,0.528,1.76
		c0,1.145-0.411,1.973-1.232,2.486s-2.054,0.77-3.696,0.77c-0.615,0-1.188-0.018-1.716-0.055s-1.049-0.076-1.562-0.121V51.605z
		 M706.207,56.225c0.264,0,0.521-0.044,0.77-0.132c0.249-0.088,0.473-0.209,0.671-0.363s0.359-0.333,0.484-0.539
		c0.124-0.205,0.187-0.425,0.187-0.66c0-0.587-0.176-0.994-0.527-1.221c-0.353-0.227-0.969-0.341-1.849-0.341
		c-0.47,0-0.84,0.007-1.11,0.022c-0.271,0.015-0.532,0.029-0.781,0.044v3.19H706.207z M704.051,61.109
		c0.278,0.029,0.554,0.051,0.825,0.065c0.271,0.015,0.59,0.022,0.957,0.022c0.982,0,1.712-0.14,2.188-0.418
		c0.477-0.279,0.715-0.756,0.715-1.43c0-0.529-0.201-0.957-0.604-1.287s-1.119-0.496-2.146-0.496h-1.936V61.109z"/>
	<path fill="#FFFFFF" d="M713.093,52.397c0.558-0.337,1.207-0.586,1.947-0.748c0.74-0.161,1.515-0.242,2.321-0.242
		c0.763,0,1.375,0.103,1.837,0.308c0.462,0.206,0.813,0.473,1.056,0.803s0.403,0.693,0.484,1.089
		c0.08,0.396,0.121,0.792,0.121,1.188c0,0.88-0.022,1.738-0.066,2.574s-0.065,1.628-0.065,2.376c0,0.542,0.021,1.056,0.065,1.54
		s0.125,0.932,0.242,1.342h-1.298l-0.462-1.54h-0.11c-0.132,0.206-0.297,0.407-0.495,0.604c-0.197,0.199-0.437,0.375-0.715,0.529
		c-0.278,0.153-0.602,0.281-0.968,0.385c-0.367,0.102-0.785,0.153-1.254,0.153c-0.47,0-0.906-0.073-1.31-0.22
		s-0.751-0.355-1.045-0.627c-0.293-0.271-0.524-0.598-0.692-0.979c-0.169-0.382-0.253-0.814-0.253-1.299
		c0-0.645,0.132-1.184,0.396-1.617c0.264-0.432,0.635-0.777,1.111-1.033c0.477-0.257,1.048-0.44,1.716-0.55
		c0.667-0.11,1.404-0.165,2.211-0.165c0.205,0,0.407,0,0.605,0c0.197,0,0.399,0.015,0.604,0.044c0.044-0.44,0.066-0.836,0.066-1.188
		c0-0.807-0.162-1.371-0.484-1.694c-0.323-0.323-0.909-0.484-1.76-0.484c-0.25,0-0.518,0.019-0.803,0.057
		c-0.286,0.038-0.58,0.09-0.881,0.158c-0.301,0.068-0.586,0.151-0.857,0.249s-0.51,0.207-0.715,0.328L713.093,52.397z
		 M716.217,61.219c0.411,0,0.777-0.055,1.101-0.164c0.322-0.111,0.601-0.25,0.836-0.418c0.234-0.169,0.429-0.355,0.583-0.562
		s0.268-0.403,0.341-0.595v-1.826c-0.205-0.014-0.414-0.025-0.627-0.032s-0.422-0.011-0.627-0.011c-0.455,0-0.898,0.025-1.331,0.076
		c-0.433,0.053-0.814,0.147-1.144,0.287c-0.33,0.139-0.595,0.33-0.792,0.571c-0.198,0.242-0.298,0.547-0.298,0.913
		c0,0.514,0.184,0.936,0.551,1.266C715.176,61.055,715.646,61.219,716.217,61.219z"/>
	<path fill="#FFFFFF" d="M730.099,53.123h-3.19c-0.044,0.616-0.088,1.28-0.132,1.991c-0.044,0.712-0.11,1.423-0.198,2.134
		s-0.205,1.394-0.352,2.046c-0.147,0.653-0.334,1.229-0.562,1.728c-0.228,0.498-0.506,0.898-0.836,1.199s-0.723,0.45-1.177,0.45
		c-0.278,0-0.521-0.015-0.726-0.044c-0.206-0.029-0.39-0.08-0.551-0.154l0.265-1.474c0.176,0.059,0.366,0.088,0.571,0.088
		c0.294,0,0.558-0.124,0.792-0.374c0.234-0.249,0.44-0.723,0.616-1.419s0.322-1.661,0.44-2.893c0.117-1.232,0.198-2.838,0.242-4.818
		h6.556v11h-1.76V53.123z"/>
	<path fill="#FFFFFF" d="M743.277,61.703c-0.439,0.352-0.993,0.631-1.66,0.836c-0.668,0.205-1.375,0.309-2.123,0.309
		c-0.837,0-1.563-0.137-2.179-0.408c-0.615-0.271-1.122-0.66-1.518-1.166c-0.396-0.506-0.689-1.11-0.88-1.814
		c-0.191-0.704-0.286-1.496-0.286-2.376c0-1.877,0.418-3.307,1.254-4.29c0.836-0.982,2.031-1.474,3.586-1.474
		c0.498,0,0.997,0.055,1.496,0.165c0.498,0.11,0.946,0.319,1.342,0.627c0.396,0.308,0.719,0.745,0.968,1.309
		c0.25,0.565,0.374,1.309,0.374,2.233c0,0.484-0.044,1.019-0.132,1.606h-7.062c0,0.646,0.065,1.218,0.197,1.716
		c0.133,0.499,0.338,0.921,0.616,1.266s0.642,0.608,1.089,0.792c0.447,0.183,0.994,0.274,1.64,0.274
		c0.498,0,0.997-0.088,1.496-0.264c0.498-0.176,0.872-0.381,1.122-0.615L743.277,61.703z M739.493,52.859
		c-0.866,0-1.559,0.228-2.079,0.682c-0.521,0.455-0.833,1.232-0.936,2.332h5.456c0-1.114-0.213-1.896-0.638-2.343
		C740.871,53.083,740.27,52.859,739.493,52.859z"/>
	<path fill="#FFFFFF" d="M753.286,56.071l0.066-1.364h-0.066l-0.901,1.408l-4.95,6.468h-1.012v-11h1.76v6.71l-0.066,1.298h0.088
		l0.858-1.364l4.95-6.644h1.034v11h-1.761V56.071z M748.952,47.139c0.146,0.675,0.399,1.144,0.76,1.408
		c0.358,0.264,0.773,0.396,1.242,0.396c0.47,0,0.888-0.139,1.255-0.418c0.366-0.278,0.615-0.733,0.747-1.364l1.32,0.418
		c-0.132,0.851-0.51,1.503-1.133,1.958c-0.624,0.455-1.368,0.682-2.233,0.682c-0.396,0-0.788-0.051-1.177-0.154
		c-0.389-0.103-0.737-0.256-1.045-0.462c-0.308-0.205-0.572-0.469-0.792-0.792c-0.22-0.322-0.367-0.704-0.44-1.144L748.952,47.139z"
		/>
	<path fill="#FFFFFF" d="M102.16,88.07l0.066-1.363h-0.066l-0.902,1.408l-4.95,6.468h-1.012v-11h1.76v6.71l-0.066,1.298h0.088
		l0.858-1.364l4.95-6.644h1.034v11h-1.76V88.07z"/>
	<path fill="#FFFFFF" d="M114.325,83.583v2.992c0,0.396,0.022,0.751,0.066,1.067c0.044,0.314,0.132,0.586,0.264,0.813
		s0.322,0.403,0.572,0.528c0.249,0.125,0.579,0.187,0.99,0.187c0.66,0,1.203-0.073,1.628-0.22s0.748-0.309,0.968-0.484v-4.884h1.76
		v11h-1.76v-4.62c-0.235,0.146-0.583,0.309-1.045,0.484c-0.462,0.176-1.096,0.264-1.903,0.264c-0.542,0-1.02-0.059-1.43-0.176
		c-0.411-0.117-0.756-0.322-1.034-0.616c-0.279-0.293-0.488-0.683-0.627-1.166c-0.14-0.483-0.209-1.093-0.209-1.825v-3.345H114.325z
		"/>
	<path fill="#FFFFFF" d="M131.991,93.703c-0.44,0.352-0.994,0.631-1.661,0.836c-0.667,0.205-1.375,0.309-2.123,0.309
		c-0.836,0-1.562-0.137-2.178-0.408c-0.616-0.271-1.122-0.66-1.518-1.166s-0.69-1.11-0.88-1.814s-0.286-1.496-0.286-2.376
		c0-1.878,0.418-3.308,1.254-4.29s2.031-1.475,3.586-1.475c0.499,0,0.997,0.056,1.496,0.166c0.499,0.109,0.946,0.318,1.342,0.627
		c0.396,0.308,0.719,0.744,0.968,1.309c0.249,0.564,0.374,1.309,0.374,2.232c0,0.484-0.044,1.02-0.132,1.606h-7.062
		c0,0.646,0.066,1.218,0.198,1.716c0.132,0.499,0.337,0.921,0.616,1.266c0.279,0.345,0.642,0.608,1.089,0.792
		c0.447,0.183,0.993,0.274,1.639,0.274c0.499,0,0.998-0.088,1.496-0.264s0.873-0.381,1.122-0.615L131.991,93.703z M128.207,84.859
		c-0.866,0-1.559,0.227-2.079,0.682s-0.833,1.232-0.935,2.332h5.456c0-1.114-0.212-1.896-0.638-2.344
		C129.586,85.083,128.985,84.859,128.207,84.859z"/>
	<path fill="#FFFFFF" d="M144.223,88.049l0.132-2.09h-0.11l-0.792,1.693l-2.662,4.313h-0.616l-2.772-4.313l-0.726-1.693h-0.088
		l0.176,2.068v6.556h-1.628v-11h1.738l3.08,4.929l0.638,1.275h0.044l0.66-1.32l2.882-4.884h1.76v11h-1.716V88.049z"/>
	<path fill="#FFFFFF" d="M155.949,85.123h-4.862v9.46h-1.76v-11h8.382v11h-1.76V85.123z"/>
	<path fill="#FFFFFF" d="M167.961,88.07l0.066-1.363h-0.066l-0.902,1.408l-4.95,6.468h-1.012v-11h1.76v6.71l-0.066,1.298h0.088
		l0.858-1.364l4.95-6.644h1.034v11h-1.76V88.07z"/>
	<path fill="#FFFFFF" d="M172.492,89.083c0-1.862,0.414-3.289,1.243-4.278c0.829-0.99,2.021-1.486,3.575-1.486
		c0.821,0,1.536,0.137,2.145,0.408c0.608,0.271,1.111,0.66,1.507,1.166s0.689,1.114,0.88,1.825c0.19,0.712,0.286,1.5,0.286,2.365
		c0,1.862-0.415,3.289-1.243,4.278c-0.829,0.99-2.021,1.486-3.575,1.486c-0.822,0-1.537-0.137-2.145-0.408
		c-0.609-0.271-1.111-0.66-1.507-1.166s-0.69-1.113-0.88-1.825S172.492,89.949,172.492,89.083z M174.318,89.083
		c0,0.558,0.055,1.093,0.165,1.606c0.11,0.514,0.282,0.961,0.517,1.342c0.234,0.381,0.542,0.689,0.924,0.924
		s0.843,0.352,1.386,0.352c1.995,0.016,2.992-1.393,2.992-4.224c0-0.571-0.055-1.114-0.165-1.628
		c-0.11-0.514-0.283-0.961-0.517-1.342c-0.235-0.381-0.543-0.686-0.924-0.913c-0.382-0.228-0.844-0.341-1.386-0.341
		C175.316,84.845,174.318,86.252,174.318,89.083z"/>
	<path fill="#FFFFFF" d="M191.632,89.721h-4.972v4.862h-1.76v-11h1.76v4.599h4.972v-4.599h1.76v11h-1.76V89.721z"/>
	<path fill="#FFFFFF" d="M196.604,84.396c0.557-0.337,1.206-0.586,1.947-0.748c0.741-0.16,1.514-0.241,2.321-0.241
		c0.762,0,1.375,0.103,1.837,0.308s0.814,0.473,1.056,0.803c0.242,0.33,0.403,0.693,0.484,1.09c0.081,0.396,0.121,0.791,0.121,1.188
		c0,0.88-0.022,1.738-0.066,2.574c-0.044,0.836-0.066,1.628-0.066,2.376c0,0.542,0.022,1.056,0.066,1.54
		c0.044,0.484,0.125,0.932,0.242,1.342h-1.298l-0.462-1.54h-0.11c-0.132,0.206-0.297,0.407-0.495,0.604
		c-0.198,0.199-0.437,0.375-0.715,0.529c-0.279,0.153-0.602,0.281-0.968,0.385c-0.367,0.102-0.785,0.153-1.254,0.153
		c-0.47,0-0.906-0.073-1.309-0.22c-0.404-0.146-0.752-0.355-1.045-0.627c-0.294-0.271-0.525-0.598-0.693-0.979
		c-0.168-0.382-0.253-0.814-0.253-1.299c0-0.645,0.132-1.184,0.396-1.617c0.264-0.432,0.634-0.777,1.111-1.033
		c0.476-0.257,1.048-0.44,1.716-0.551c0.667-0.109,1.404-0.164,2.211-0.164c0.205,0,0.407,0,0.605,0
		c0.198,0,0.399,0.014,0.605,0.043c0.044-0.439,0.066-0.836,0.066-1.188c0-0.807-0.162-1.371-0.484-1.693
		c-0.323-0.323-0.91-0.484-1.76-0.484c-0.25,0-0.517,0.019-0.803,0.057c-0.286,0.037-0.58,0.09-0.88,0.158
		c-0.301,0.068-0.587,0.15-0.858,0.249c-0.272,0.099-0.51,0.207-0.715,0.327L196.604,84.396z M199.728,93.219
		c0.41,0,0.777-0.055,1.1-0.164c0.322-0.111,0.601-0.25,0.836-0.418c0.234-0.169,0.429-0.355,0.583-0.562
		c0.154-0.206,0.267-0.403,0.341-0.595v-1.826c-0.206-0.014-0.415-0.025-0.627-0.032c-0.213-0.007-0.422-0.011-0.627-0.011
		c-0.455,0-0.898,0.025-1.331,0.076c-0.433,0.053-0.814,0.147-1.144,0.287c-0.33,0.139-0.594,0.33-0.792,0.571
		c-0.198,0.242-0.297,0.547-0.297,0.913c0,0.514,0.183,0.936,0.55,1.266S199.156,93.219,199.728,93.219z"/>
	<path fill="#FFFFFF" d="M214.71,85.123h-3.454v9.46h-1.76v-9.46h-3.454v-1.54h8.668V85.123z"/>
	<path fill="#FFFFFF" d="M215.48,89.083c0-1.862,0.414-3.289,1.243-4.278c0.829-0.99,2.021-1.486,3.575-1.486
		c0.821,0,1.536,0.137,2.145,0.408c0.608,0.271,1.111,0.66,1.507,1.166s0.689,1.114,0.88,1.825c0.19,0.712,0.286,1.5,0.286,2.365
		c0,1.862-0.415,3.289-1.243,4.278c-0.829,0.99-2.021,1.486-3.575,1.486c-0.822,0-1.537-0.137-2.145-0.408
		c-0.609-0.271-1.111-0.66-1.507-1.166s-0.69-1.113-0.88-1.825S215.48,89.949,215.48,89.083z M217.306,89.083
		c0,0.558,0.055,1.093,0.165,1.606c0.11,0.514,0.282,0.961,0.517,1.342c0.234,0.381,0.542,0.689,0.924,0.924
		s0.843,0.352,1.386,0.352c1.995,0.016,2.992-1.393,2.992-4.224c0-0.571-0.055-1.114-0.165-1.628
		c-0.11-0.514-0.283-0.961-0.517-1.342c-0.235-0.381-0.543-0.686-0.924-0.913c-0.382-0.228-0.844-0.341-1.386-0.341
		C218.303,84.845,217.306,86.252,217.306,89.083z"/>
	<path fill="#FFFFFF" d="M227.888,83.605c0.513-0.029,1.052-0.066,1.617-0.11c0.564-0.044,1.265-0.065,2.101-0.065
		c1.452,0,2.493,0.223,3.124,0.67c0.63,0.447,0.946,1.126,0.946,2.035c0,0.514-0.15,1.016-0.451,1.508
		c-0.301,0.491-0.795,0.854-1.485,1.088v0.088c0.865,0.162,1.474,0.463,1.826,0.902c0.352,0.44,0.528,1.027,0.528,1.76
		c0,1.145-0.411,1.973-1.232,2.486s-2.054,0.77-3.696,0.77c-0.616,0-1.188-0.018-1.716-0.055c-0.528-0.037-1.049-0.076-1.562-0.121
		V83.605z M231.804,88.225c0.264,0,0.521-0.043,0.77-0.132c0.25-0.088,0.473-0.209,0.671-0.362c0.198-0.154,0.359-0.334,0.484-0.539
		c0.125-0.205,0.187-0.426,0.187-0.66c0-0.587-0.176-0.994-0.528-1.221c-0.352-0.228-0.968-0.342-1.848-0.342
		c-0.47,0-0.84,0.008-1.111,0.022s-0.532,0.029-0.781,0.044v3.189H231.804z M229.648,93.109c0.278,0.029,0.553,0.051,0.825,0.065
		s0.59,0.022,0.957,0.022c0.982,0,1.712-0.14,2.189-0.418c0.477-0.279,0.715-0.756,0.715-1.43c0-0.529-0.202-0.957-0.605-1.287
		c-0.404-0.33-1.119-0.496-2.145-0.496h-1.936V93.109z"/>
	<path fill="#FFFFFF" d="M251.362,85.123H246.5v9.46h-1.76v-11h8.382v11h-1.76V85.123z"/>
	<path fill="#FFFFFF" d="M255.894,89.083c0-1.862,0.414-3.289,1.243-4.278c0.829-0.99,2.021-1.486,3.575-1.486
		c0.821,0,1.536,0.137,2.145,0.408c0.608,0.271,1.111,0.66,1.507,1.166s0.689,1.114,0.88,1.825c0.19,0.712,0.286,1.5,0.286,2.365
		c0,1.862-0.415,3.289-1.243,4.278c-0.829,0.99-2.021,1.486-3.575,1.486c-0.822,0-1.537-0.137-2.145-0.408
		c-0.609-0.271-1.111-0.66-1.507-1.166s-0.69-1.113-0.88-1.825S255.894,89.949,255.894,89.083z M257.719,89.083
		c0,0.558,0.055,1.093,0.165,1.606c0.11,0.514,0.282,0.961,0.517,1.342c0.234,0.381,0.542,0.689,0.924,0.924
		s0.843,0.352,1.386,0.352c1.995,0.016,2.992-1.393,2.992-4.224c0-0.571-0.055-1.114-0.165-1.628
		c-0.11-0.514-0.283-0.961-0.517-1.342c-0.235-0.381-0.543-0.686-0.924-0.913c-0.382-0.228-0.844-0.341-1.386-0.341
		C258.717,84.845,257.719,86.252,257.719,89.083z"/>
	<path fill="#FFFFFF" d="M275.187,85.541c0.484-0.704,1.019-1.199,1.606-1.484c0.586-0.287,1.32-0.43,2.2-0.43
		c1.349,0,2.387,0.439,3.113,1.32c0.726,0.88,1.089,2.178,1.089,3.894c0,1.979-0.422,3.476-1.265,4.488
		c-0.844,1.012-2.021,1.519-3.531,1.519c-1.614,0-2.824-0.559-3.63-1.673c-0.807-1.114-1.21-2.867-1.21-5.258
		c0-1.261,0.062-2.339,0.187-3.233c0.125-0.895,0.308-1.65,0.55-2.267c0.242-0.616,0.535-1.107,0.88-1.474
		c0.345-0.367,0.733-0.656,1.166-0.869s0.906-0.363,1.419-0.451c0.514-0.088,1.063-0.161,1.65-0.221
		c0.762-0.072,1.36-0.156,1.793-0.252c0.432-0.096,0.781-0.268,1.045-0.518l0.198,1.584c-0.146,0.133-0.308,0.242-0.484,0.33
		c-0.176,0.088-0.389,0.162-0.638,0.221c-0.25,0.059-0.547,0.109-0.891,0.153c-0.345,0.044-0.745,0.081-1.199,0.11
		c-0.631,0.044-1.185,0.121-1.661,0.23c-0.477,0.11-0.887,0.323-1.232,0.639c-0.345,0.314-0.616,0.762-0.814,1.342
		c-0.198,0.58-0.333,1.346-0.407,2.299H275.187z M275.385,89.105c0,0.557,0.059,1.092,0.176,1.605
		c0.117,0.514,0.297,0.965,0.539,1.354c0.242,0.389,0.553,0.692,0.935,0.912c0.381,0.221,0.828,0.33,1.342,0.33
		c1.012,0,1.764-0.363,2.255-1.089s0.737-1.8,0.737-3.223c0-0.558-0.052-1.07-0.154-1.54c-0.103-0.469-0.264-0.877-0.484-1.221
		c-0.22-0.345-0.499-0.609-0.836-0.793c-0.337-0.183-0.741-0.274-1.21-0.274c-1.144-0.015-1.98,0.319-2.508,1.001
		C275.649,86.85,275.385,87.829,275.385,89.105z"/>
	<path fill="#FFFFFF" d="M285.967,83.583h1.21l0.33,1.319h0.088c0.337-0.513,0.773-0.904,1.309-1.176
		c0.535-0.271,1.147-0.408,1.837-0.408c1.467,0,2.56,0.434,3.278,1.299c0.718,0.865,1.078,2.281,1.078,4.246
		c0,0.924-0.121,1.756-0.363,2.496c-0.242,0.741-0.583,1.369-1.023,1.882s-0.972,0.909-1.595,1.188
		c-0.624,0.277-1.316,0.418-2.079,0.418c-0.543,0-0.972-0.033-1.287-0.1c-0.315-0.066-0.657-0.18-1.023-0.341v4.575h-1.76V83.583z
		 M290.411,84.859c-0.748,0-1.339,0.194-1.771,0.582c-0.433,0.389-0.737,0.979-0.913,1.771v5.456
		c0.264,0.206,0.564,0.363,0.902,0.474c0.337,0.109,0.785,0.164,1.342,0.164c1.012,0,1.815-0.377,2.409-1.133
		c0.594-0.755,0.891-1.866,0.891-3.333c0-0.601-0.052-1.147-0.154-1.639c-0.103-0.491-0.268-0.909-0.495-1.254
		c-0.228-0.345-0.521-0.612-0.88-0.804C291.383,84.955,290.939,84.859,290.411,84.859z"/>
	<path fill="#FFFFFF" d="M305.899,93.703c-0.44,0.352-0.994,0.631-1.661,0.836c-0.667,0.205-1.375,0.309-2.123,0.309
		c-0.836,0-1.562-0.137-2.178-0.408c-0.616-0.271-1.122-0.66-1.518-1.166s-0.69-1.11-0.88-1.814s-0.286-1.496-0.286-2.376
		c0-1.878,0.418-3.308,1.254-4.29s2.031-1.475,3.586-1.475c0.499,0,0.997,0.056,1.496,0.166c0.499,0.109,0.946,0.318,1.342,0.627
		c0.396,0.308,0.719,0.744,0.968,1.309c0.249,0.564,0.374,1.309,0.374,2.232c0,0.484-0.044,1.02-0.132,1.606h-7.062
		c0,0.646,0.066,1.218,0.198,1.716c0.132,0.499,0.337,0.921,0.616,1.266c0.279,0.345,0.642,0.608,1.089,0.792
		c0.447,0.183,0.993,0.274,1.639,0.274c0.499,0,0.998-0.088,1.496-0.264s0.873-0.381,1.122-0.615L305.899,93.703z M302.115,84.859
		c-0.866,0-1.559,0.227-2.079,0.682s-0.833,1.232-0.935,2.332h5.456c0-1.114-0.212-1.896-0.638-2.344
		C303.493,85.083,302.892,84.859,302.115,84.859z"/>
	<path fill="#FFFFFF" d="M315.909,88.07l0.066-1.363h-0.066l-0.902,1.408l-4.95,6.468h-1.012v-11h1.76v6.71l-0.066,1.298h0.088
		l0.858-1.364l4.95-6.644h1.034v11h-1.76V88.07z M311.575,79.139c0.146,0.676,0.399,1.145,0.759,1.408s0.773,0.396,1.243,0.396
		c0.469,0,0.887-0.14,1.254-0.418c0.367-0.279,0.616-0.733,0.748-1.364l1.32,0.418c-0.132,0.851-0.51,1.503-1.133,1.958
		c-0.624,0.455-1.368,0.682-2.233,0.682c-0.396,0-0.789-0.051-1.177-0.154c-0.389-0.102-0.737-0.256-1.045-0.461
		s-0.572-0.47-0.792-0.793c-0.22-0.322-0.367-0.703-0.44-1.144L311.575,79.139z"/>
	<path fill="#FFFFFF" d="M323.828,89.633h-1.012v4.95h-1.76v-11h1.76v4.972l0.946-0.308l3.52-4.664h1.914l-3.41,4.422l-0.924,0.726
		l1.144,0.881l3.674,4.972h-2.178L323.828,89.633z"/>
	<path fill="#FFFFFF" d="M330.693,87.434h5.324v1.627h-5.324V87.434z"/>
	<path fill="#FFFFFF" d="M347.985,97.377h-1.188l-0.33-2.794h-8.272l-0.33,2.794h-1.188v-4.334h1.298
		c0.117-0.161,0.271-0.451,0.462-0.869c0.19-0.418,0.377-1.004,0.561-1.76c0.183-0.756,0.344-1.693,0.484-2.816
		c0.139-1.121,0.224-2.46,0.253-4.015h6.644v9.46h1.606V97.377z M344.618,93.043v-7.92h-3.3c-0.029,0.615-0.081,1.287-0.154,2.014
		c-0.074,0.725-0.173,1.451-0.297,2.178c-0.125,0.726-0.282,1.411-0.473,2.057c-0.191,0.646-0.411,1.203-0.66,1.672H344.618z"/>
	<path fill="#FFFFFF" d="M349.986,84.396c0.557-0.337,1.206-0.586,1.947-0.748c0.741-0.16,1.514-0.241,2.321-0.241
		c0.762,0,1.375,0.103,1.837,0.308s0.814,0.473,1.056,0.803c0.242,0.33,0.403,0.693,0.484,1.09c0.081,0.396,0.121,0.791,0.121,1.188
		c0,0.88-0.022,1.738-0.066,2.574c-0.044,0.836-0.066,1.628-0.066,2.376c0,0.542,0.022,1.056,0.066,1.54
		c0.044,0.484,0.125,0.932,0.242,1.342h-1.298l-0.462-1.54h-0.11c-0.132,0.206-0.297,0.407-0.495,0.604
		c-0.198,0.199-0.437,0.375-0.715,0.529c-0.279,0.153-0.602,0.281-0.968,0.385c-0.367,0.102-0.785,0.153-1.254,0.153
		c-0.47,0-0.906-0.073-1.309-0.22c-0.404-0.146-0.752-0.355-1.045-0.627c-0.294-0.271-0.525-0.598-0.693-0.979
		c-0.168-0.382-0.253-0.814-0.253-1.299c0-0.645,0.132-1.184,0.396-1.617c0.264-0.432,0.634-0.777,1.111-1.033
		c0.476-0.257,1.048-0.44,1.716-0.551c0.667-0.109,1.404-0.164,2.211-0.164c0.205,0,0.407,0,0.605,0
		c0.198,0,0.399,0.014,0.605,0.043c0.044-0.439,0.066-0.836,0.066-1.188c0-0.807-0.162-1.371-0.484-1.693
		c-0.323-0.323-0.91-0.484-1.76-0.484c-0.25,0-0.517,0.019-0.803,0.057c-0.286,0.037-0.58,0.09-0.88,0.158
		c-0.301,0.068-0.587,0.15-0.858,0.249c-0.272,0.099-0.51,0.207-0.715,0.327L349.986,84.396z M353.11,93.219
		c0.41,0,0.777-0.055,1.1-0.164c0.322-0.111,0.601-0.25,0.836-0.418c0.234-0.169,0.429-0.355,0.583-0.562
		c0.154-0.206,0.267-0.403,0.341-0.595v-1.826c-0.206-0.014-0.415-0.025-0.627-0.032c-0.213-0.007-0.422-0.011-0.627-0.011
		c-0.455,0-0.898,0.025-1.331,0.076c-0.433,0.053-0.814,0.147-1.144,0.287c-0.33,0.139-0.594,0.33-0.792,0.571
		c-0.198,0.242-0.297,0.547-0.297,0.913c0,0.514,0.183,0.936,0.55,1.266S352.538,93.219,353.11,93.219z"/>
	<path fill="#FFFFFF" d="M367.806,89.721h-4.972v4.862h-1.76v-11h1.76v4.599h4.972v-4.599h1.76v11h-1.76V89.721z"/>
	<path fill="#FFFFFF" d="M380.456,93.857c-0.44,0.322-0.96,0.568-1.562,0.736s-1.232,0.254-1.892,0.254
		c-0.851,0-1.57-0.137-2.156-0.408c-0.587-0.271-1.067-0.66-1.441-1.166s-0.646-1.113-0.814-1.825
		c-0.169-0.712-0.253-1.499-0.253-2.365c0-1.862,0.41-3.289,1.232-4.278c0.821-0.99,2.002-1.486,3.542-1.486
		c0.704,0,1.301,0.056,1.793,0.166c0.491,0.109,0.935,0.268,1.331,0.473l-0.506,1.518c-0.338-0.189-0.712-0.341-1.122-0.451
		c-0.411-0.109-0.851-0.164-1.32-0.164c-2.083,0-3.124,1.408-3.124,4.224c0,0.558,0.055,1.089,0.165,1.595
		c0.11,0.506,0.293,0.953,0.55,1.342c0.256,0.389,0.594,0.701,1.012,0.936s0.935,0.352,1.551,0.352c0.528,0,1.001-0.08,1.419-0.242
		c0.418-0.16,0.759-0.344,1.023-0.549L380.456,93.857z"/>
	<path fill="#FFFFFF" d="M385.811,90.711l0.619,2.112h0.11l0.485-2.134l2.142-7.106h1.76l-3.256,9.878
		c-0.25,0.719-0.495,1.416-0.737,2.09c-0.242,0.675-0.51,1.276-0.803,1.805c-0.293,0.527-0.624,0.949-0.99,1.265
		c-0.367,0.315-0.792,0.473-1.276,0.473c-0.528,0-0.961-0.073-1.298-0.22l0.308-1.518c0.19,0.072,0.374,0.109,0.55,0.109
		c0.411,0,0.807-0.217,1.188-0.648c0.381-0.434,0.696-1.178,0.946-2.233l-4.422-11h2.024L385.811,90.711z"/>
	<path fill="#FFFFFF" d="M404.686,90.314h-5.648l-1.532,4.269h-1.826l5.83-15.642h0.836l5.852,15.642h-1.936L404.686,90.314z
		 M399.629,88.73h4.509l-1.708-4.686l-0.547-2.332h-0.022l-0.547,2.376L399.629,88.73z"/>
	<path fill="#FFFFFF" d="M410.067,83.583h1.21l0.33,1.319h0.088c0.337-0.513,0.773-0.904,1.309-1.176
		c0.535-0.271,1.147-0.408,1.837-0.408c1.467,0,2.56,0.434,3.278,1.299s1.078,2.281,1.078,4.246c0,0.924-0.121,1.756-0.363,2.496
		c-0.242,0.741-0.583,1.369-1.023,1.882c-0.439,0.513-0.971,0.909-1.595,1.188c-0.624,0.277-1.316,0.418-2.079,0.418
		c-0.543,0-0.972-0.033-1.287-0.1c-0.315-0.066-0.657-0.18-1.023-0.341v4.575h-1.76V83.583z M414.511,84.859
		c-0.748,0-1.339,0.194-1.771,0.582c-0.433,0.389-0.737,0.979-0.913,1.771v5.456c0.264,0.206,0.564,0.363,0.902,0.474
		c0.337,0.109,0.785,0.164,1.342,0.164c1.012,0,1.815-0.377,2.409-1.133c0.594-0.755,0.891-1.866,0.891-3.333
		c0-0.601-0.052-1.147-0.154-1.639s-0.268-0.909-0.495-1.254c-0.228-0.345-0.521-0.612-0.88-0.804
		C415.483,84.955,415.039,84.859,414.511,84.859z"/>
	<path fill="#FFFFFF" d="M428.635,85.123h-3.454v9.46h-1.76v-9.46h-3.454v-1.54h8.668V85.123z"/>
	<path fill="#FFFFFF" d="M433.616,90.711l0.618,2.112h0.11l0.486-2.134l2.142-7.106h1.76l-3.256,9.878
		c-0.249,0.719-0.495,1.416-0.737,2.09c-0.241,0.675-0.51,1.276-0.803,1.805c-0.293,0.527-0.623,0.949-0.99,1.265
		c-0.366,0.315-0.792,0.473-1.275,0.473c-0.528,0-0.961-0.073-1.298-0.22l0.308-1.518c0.19,0.072,0.374,0.109,0.55,0.109
		c0.411,0,0.807-0.217,1.188-0.648c0.381-0.434,0.696-1.178,0.945-2.233l-4.422-11h2.024L433.616,90.711z"/>
	<path fill="#FFFFFF" d="M440.625,83.583h1.21l0.33,1.319h0.088c0.337-0.513,0.773-0.904,1.309-1.176s1.147-0.408,1.837-0.408
		c1.467,0,2.56,0.434,3.278,1.299s1.078,2.281,1.078,4.246c0,0.924-0.121,1.756-0.363,2.496c-0.242,0.741-0.583,1.369-1.022,1.882
		c-0.44,0.513-0.973,0.909-1.596,1.188c-0.623,0.277-1.316,0.418-2.079,0.418c-0.542,0-0.972-0.033-1.287-0.1
		s-0.656-0.18-1.022-0.341v4.575h-1.76V83.583z M445.069,84.859c-0.748,0-1.338,0.194-1.771,0.582
		c-0.433,0.389-0.737,0.979-0.913,1.771v5.456c0.264,0.206,0.564,0.363,0.902,0.474c0.337,0.109,0.784,0.164,1.342,0.164
		c1.012,0,1.814-0.377,2.409-1.133c0.594-0.755,0.891-1.866,0.891-3.333c0-0.601-0.052-1.147-0.154-1.639s-0.268-0.909-0.495-1.254
		s-0.521-0.612-0.88-0.804C446.04,84.955,445.597,84.859,445.069,84.859z"/>
	<path fill="#FFFFFF" d="M452.35,84.396c0.558-0.337,1.207-0.586,1.947-0.748c0.74-0.16,1.515-0.241,2.321-0.241
		c0.763,0,1.375,0.103,1.837,0.308s0.813,0.473,1.056,0.803s0.403,0.693,0.484,1.09c0.08,0.396,0.121,0.791,0.121,1.188
		c0,0.88-0.022,1.738-0.066,2.574s-0.065,1.628-0.065,2.376c0,0.542,0.021,1.056,0.065,1.54s0.125,0.932,0.242,1.342h-1.298
		l-0.462-1.54h-0.11c-0.132,0.206-0.297,0.407-0.495,0.604c-0.197,0.199-0.437,0.375-0.715,0.529
		c-0.278,0.153-0.602,0.281-0.968,0.385c-0.367,0.102-0.785,0.153-1.254,0.153c-0.47,0-0.906-0.073-1.31-0.22
		s-0.751-0.355-1.045-0.627c-0.293-0.271-0.524-0.598-0.692-0.979c-0.169-0.382-0.253-0.814-0.253-1.299
		c0-0.645,0.132-1.184,0.396-1.617c0.264-0.432,0.635-0.777,1.111-1.033c0.477-0.257,1.048-0.44,1.716-0.551
		c0.667-0.109,1.404-0.164,2.211-0.164c0.205,0,0.407,0,0.605,0c0.197,0,0.399,0.014,0.604,0.043
		c0.044-0.439,0.066-0.836,0.066-1.188c0-0.807-0.162-1.371-0.484-1.693c-0.323-0.323-0.909-0.484-1.76-0.484
		c-0.25,0-0.518,0.019-0.803,0.057c-0.286,0.037-0.58,0.09-0.881,0.158s-0.586,0.15-0.857,0.249s-0.51,0.207-0.715,0.327
		L452.35,84.396z M455.474,93.219c0.411,0,0.777-0.055,1.101-0.164c0.322-0.111,0.601-0.25,0.836-0.418
		c0.234-0.169,0.429-0.355,0.583-0.562s0.268-0.403,0.341-0.595v-1.826c-0.205-0.014-0.414-0.025-0.627-0.032
		s-0.422-0.011-0.627-0.011c-0.455,0-0.898,0.025-1.331,0.076c-0.433,0.053-0.814,0.147-1.144,0.287
		c-0.33,0.139-0.595,0.33-0.792,0.571c-0.198,0.242-0.298,0.547-0.298,0.913c0,0.514,0.184,0.936,0.551,1.266
		C454.433,93.055,454.903,93.219,455.474,93.219z"/>
	<path fill="#FFFFFF" d="M468.477,88.874l3.52-5.049l1.188,0.944l-2.156,3.183l-1.057,0.899l1.057,0.794l2.288,3.132l-1.188,0.97
		L468.477,88.874z M472.502,88.874l3.477-5.005l1.166,0.922l-2.135,3.161l-1.056,0.899l1.056,0.794l2.267,3.109l-1.145,0.948
		L472.502,88.874z"/>
	<path fill="#FFFFFF" d="M482.865,87.455h-1.034v7.128h-1.826V79.184h1.826v7.172l0.989-0.309l5.171-6.863h2.111l-5.147,6.621
		l-0.924,0.727l1.121,0.88l5.633,7.172h-2.311L482.865,87.455z"/>
	<path fill="#FFFFFF" d="M499.166,85.123h-3.19c-0.044,0.615-0.088,1.279-0.132,1.99c-0.044,0.713-0.11,1.424-0.198,2.135
		s-0.205,1.394-0.352,2.046c-0.147,0.653-0.334,1.229-0.562,1.728c-0.228,0.498-0.506,0.898-0.836,1.199s-0.723,0.45-1.177,0.45
		c-0.278,0-0.521-0.015-0.726-0.044c-0.206-0.029-0.39-0.08-0.551-0.154l0.265-1.474c0.176,0.059,0.366,0.088,0.571,0.088
		c0.294,0,0.558-0.124,0.792-0.374c0.234-0.249,0.44-0.723,0.616-1.419s0.322-1.661,0.44-2.894c0.117-1.231,0.198-2.838,0.242-4.817
		h6.556v11h-1.76V85.123z"/>
	<path fill="#FFFFFF" d="M512.343,93.703c-0.439,0.352-0.993,0.631-1.66,0.836c-0.668,0.205-1.375,0.309-2.123,0.309
		c-0.837,0-1.563-0.137-2.179-0.408c-0.615-0.271-1.122-0.66-1.518-1.166c-0.396-0.506-0.689-1.11-0.88-1.814
		c-0.191-0.704-0.286-1.496-0.286-2.376c0-1.878,0.418-3.308,1.254-4.29s2.031-1.475,3.586-1.475c0.498,0,0.997,0.056,1.496,0.166
		c0.498,0.109,0.946,0.318,1.342,0.627c0.396,0.308,0.719,0.744,0.968,1.309c0.25,0.564,0.374,1.309,0.374,2.232
		c0,0.484-0.044,1.02-0.132,1.606h-7.062c0,0.646,0.065,1.218,0.197,1.716c0.133,0.499,0.338,0.921,0.616,1.266
		s0.642,0.608,1.089,0.792c0.447,0.183,0.994,0.274,1.64,0.274c0.498,0,0.997-0.088,1.496-0.264
		c0.498-0.176,0.872-0.381,1.122-0.615L512.343,93.703z M508.56,84.859c-0.866,0-1.559,0.227-2.079,0.682
		c-0.521,0.455-0.833,1.232-0.936,2.332h5.456c0-1.114-0.213-1.896-0.638-2.344C509.938,85.083,509.336,84.859,508.56,84.859z"/>
	<path fill="#FFFFFF" d="M529.877,97.377h-1.188l-0.329-2.794h-12.87v-11h1.76v9.46h3.762v-9.46h1.76v9.46h3.763v-9.46h1.76v9.46
		h1.584V97.377z"/>
	<path fill="#FFFFFF" d="M531.879,84.396c0.558-0.337,1.207-0.586,1.947-0.748c0.74-0.16,1.515-0.241,2.321-0.241
		c0.763,0,1.375,0.103,1.837,0.308s0.813,0.473,1.056,0.803s0.403,0.693,0.484,1.09c0.08,0.396,0.121,0.791,0.121,1.188
		c0,0.88-0.022,1.738-0.066,2.574s-0.065,1.628-0.065,2.376c0,0.542,0.021,1.056,0.065,1.54s0.125,0.932,0.242,1.342h-1.298
		l-0.462-1.54h-0.11c-0.132,0.206-0.297,0.407-0.495,0.604c-0.197,0.199-0.437,0.375-0.715,0.529
		c-0.278,0.153-0.602,0.281-0.968,0.385c-0.367,0.102-0.785,0.153-1.254,0.153c-0.47,0-0.906-0.073-1.31-0.22
		s-0.751-0.355-1.045-0.627c-0.293-0.271-0.524-0.598-0.692-0.979c-0.169-0.382-0.253-0.814-0.253-1.299
		c0-0.645,0.132-1.184,0.396-1.617c0.264-0.432,0.635-0.777,1.111-1.033c0.477-0.257,1.048-0.44,1.716-0.551
		c0.667-0.109,1.404-0.164,2.211-0.164c0.205,0,0.407,0,0.605,0c0.197,0,0.399,0.014,0.604,0.043
		c0.044-0.439,0.066-0.836,0.066-1.188c0-0.807-0.162-1.371-0.484-1.693c-0.323-0.323-0.909-0.484-1.76-0.484
		c-0.25,0-0.518,0.019-0.803,0.057c-0.286,0.037-0.58,0.09-0.881,0.158s-0.586,0.15-0.857,0.249s-0.51,0.207-0.715,0.327
		L531.879,84.396z M535.003,93.219c0.411,0,0.777-0.055,1.101-0.164c0.322-0.111,0.601-0.25,0.836-0.418
		c0.234-0.169,0.429-0.355,0.583-0.562s0.268-0.403,0.341-0.595v-1.826c-0.205-0.014-0.414-0.025-0.627-0.032
		s-0.422-0.011-0.627-0.011c-0.455,0-0.898,0.025-1.331,0.076c-0.433,0.053-0.814,0.147-1.144,0.287
		c-0.33,0.139-0.595,0.33-0.792,0.571c-0.198,0.242-0.298,0.547-0.298,0.913c0,0.514,0.184,0.936,0.551,1.266
		C533.962,93.055,534.432,93.219,535.003,93.219z"/>
	<path fill="#FFFFFF" d="M546.927,88.676l-3.521,5.027l-1.144-0.926l2.111-3.176l1.078-0.903l-1.078-0.79l-2.243-3.096l1.144-0.943
		L546.927,88.676z M550.931,88.676l-3.521,5.071l-1.188-0.948l2.156-3.197l1.056-0.903l-1.056-0.79l-2.288-3.117l1.166-0.966
		L550.931,88.676z"/>
	<path fill="#FFFFFF" d="M562.768,86.751l-4.687-7.567h2.2l3.124,5.213l0.55,1.254l0.528-1.254l3.3-5.213h2.024l-4.84,7.414
		l5.06,7.985h-2.134l-3.477-5.522l-0.594-1.319l-0.572,1.319l-3.563,5.522h-2.046L562.768,86.751z"/>
	<path fill="#FFFFFF" d="M572.183,84.396c0.558-0.337,1.207-0.586,1.947-0.748c0.74-0.16,1.515-0.241,2.321-0.241
		c0.763,0,1.375,0.103,1.837,0.308s0.813,0.473,1.056,0.803s0.403,0.693,0.484,1.09c0.08,0.396,0.121,0.791,0.121,1.188
		c0,0.88-0.022,1.738-0.066,2.574s-0.065,1.628-0.065,2.376c0,0.542,0.021,1.056,0.065,1.54s0.125,0.932,0.242,1.342h-1.298
		l-0.462-1.54h-0.11c-0.132,0.206-0.297,0.407-0.495,0.604c-0.197,0.199-0.437,0.375-0.715,0.529
		c-0.278,0.153-0.602,0.281-0.968,0.385c-0.367,0.102-0.785,0.153-1.254,0.153c-0.47,0-0.906-0.073-1.31-0.22
		s-0.751-0.355-1.045-0.627c-0.293-0.271-0.524-0.598-0.692-0.979c-0.169-0.382-0.253-0.814-0.253-1.299
		c0-0.645,0.132-1.184,0.396-1.617c0.264-0.432,0.635-0.777,1.111-1.033c0.477-0.257,1.048-0.44,1.716-0.551
		c0.667-0.109,1.404-0.164,2.211-0.164c0.205,0,0.407,0,0.605,0c0.197,0,0.399,0.014,0.604,0.043
		c0.044-0.439,0.066-0.836,0.066-1.188c0-0.807-0.162-1.371-0.484-1.693c-0.323-0.323-0.909-0.484-1.76-0.484
		c-0.25,0-0.518,0.019-0.803,0.057c-0.286,0.037-0.58,0.09-0.881,0.158s-0.586,0.15-0.857,0.249s-0.51,0.207-0.715,0.327
		L572.183,84.396z M575.307,93.219c0.411,0,0.777-0.055,1.101-0.164c0.322-0.111,0.601-0.25,0.836-0.418
		c0.234-0.169,0.429-0.355,0.583-0.562s0.268-0.403,0.341-0.595v-1.826c-0.205-0.014-0.414-0.025-0.627-0.032
		s-0.422-0.011-0.627-0.011c-0.455,0-0.898,0.025-1.331,0.076c-0.433,0.053-0.814,0.147-1.144,0.287
		c-0.33,0.139-0.595,0.33-0.792,0.571c-0.198,0.242-0.298,0.547-0.298,0.913c0,0.514,0.184,0.936,0.551,1.266
		C574.266,93.055,574.736,93.219,575.307,93.219z"/>
	<path fill="#FFFFFF" d="M584.282,85.541c0.484-0.704,1.02-1.199,1.605-1.484c0.587-0.287,1.32-0.43,2.2-0.43
		c1.35,0,2.388,0.439,3.113,1.32c0.726,0.88,1.089,2.178,1.089,3.894c0,1.979-0.422,3.476-1.265,4.488
		c-0.844,1.012-2.021,1.519-3.531,1.519c-1.613,0-2.823-0.559-3.63-1.673s-1.21-2.867-1.21-5.258c0-1.261,0.063-2.339,0.187-3.233
		c0.125-0.895,0.309-1.65,0.551-2.267c0.241-0.616,0.535-1.107,0.88-1.474c0.344-0.367,0.732-0.656,1.166-0.869
		c0.432-0.213,0.905-0.363,1.419-0.451c0.513-0.088,1.063-0.161,1.649-0.221c0.763-0.072,1.36-0.156,1.793-0.252
		s0.781-0.268,1.045-0.518l0.198,1.584c-0.146,0.133-0.308,0.242-0.483,0.33c-0.177,0.088-0.39,0.162-0.639,0.221
		s-0.546,0.109-0.891,0.153s-0.745,0.081-1.199,0.11c-0.631,0.044-1.185,0.121-1.661,0.23c-0.477,0.11-0.888,0.323-1.231,0.639
		c-0.345,0.314-0.616,0.762-0.814,1.342s-0.334,1.346-0.407,2.299H584.282z M584.481,89.105c0,0.557,0.059,1.092,0.176,1.605
		s0.297,0.965,0.539,1.354s0.554,0.692,0.935,0.912c0.382,0.221,0.829,0.33,1.343,0.33c1.012,0,1.763-0.363,2.255-1.089
		c0.491-0.726,0.736-1.8,0.736-3.223c0-0.558-0.051-1.07-0.153-1.54c-0.104-0.469-0.265-0.877-0.484-1.221
		c-0.22-0.345-0.499-0.609-0.836-0.793c-0.338-0.183-0.741-0.274-1.21-0.274c-1.145-0.015-1.98,0.319-2.508,1.001
		C584.744,86.85,584.481,87.829,584.481,89.105z"/>
	<path fill="#FFFFFF" d="M601.926,88.07l0.066-1.363h-0.066l-0.901,1.408l-4.95,6.468h-1.012v-11h1.76v6.71l-0.066,1.298h0.088
		l0.858-1.364l4.95-6.644h1.034v11h-1.761V88.07z"/>
	<path fill="#FFFFFF" d="M607.074,83.583h1.21l0.33,1.319h0.088c0.337-0.513,0.773-0.904,1.309-1.176s1.147-0.408,1.837-0.408
		c1.467,0,2.56,0.434,3.278,1.299s1.078,2.281,1.078,4.246c0,0.924-0.121,1.756-0.363,2.496c-0.242,0.741-0.583,1.369-1.022,1.882
		c-0.44,0.513-0.973,0.909-1.596,1.188c-0.623,0.277-1.316,0.418-2.079,0.418c-0.542,0-0.972-0.033-1.287-0.1
		s-0.656-0.18-1.022-0.341v4.575h-1.76V83.583z M611.518,84.859c-0.748,0-1.338,0.194-1.771,0.582
		c-0.433,0.389-0.737,0.979-0.913,1.771v5.456c0.264,0.206,0.564,0.363,0.902,0.474c0.337,0.109,0.784,0.164,1.342,0.164
		c1.012,0,1.814-0.377,2.409-1.133c0.594-0.755,0.891-1.866,0.891-3.333c0-0.601-0.052-1.147-0.154-1.639s-0.268-0.909-0.495-1.254
		s-0.521-0.612-0.88-0.804C612.49,84.955,612.046,84.859,611.518,84.859z"/>
	<path fill="#FFFFFF" d="M618.361,89.083c0-1.862,0.414-3.289,1.243-4.278c0.828-0.99,2.02-1.486,3.575-1.486
		c0.82,0,1.536,0.137,2.145,0.408s1.111,0.66,1.507,1.166c0.396,0.506,0.689,1.114,0.88,1.825c0.19,0.712,0.286,1.5,0.286,2.365
		c0,1.862-0.414,3.289-1.243,4.278c-0.828,0.99-2.021,1.486-3.574,1.486c-0.822,0-1.537-0.137-2.146-0.408
		c-0.608-0.271-1.111-0.66-1.507-1.166c-0.396-0.506-0.689-1.113-0.88-1.825C618.455,90.736,618.361,89.949,618.361,89.083z
		 M620.187,89.083c0,0.558,0.055,1.093,0.165,1.606c0.109,0.514,0.282,0.961,0.517,1.342s0.543,0.689,0.924,0.924
		c0.382,0.234,0.844,0.352,1.387,0.352c1.994,0.016,2.991-1.393,2.991-4.224c0-0.571-0.055-1.114-0.165-1.628
		c-0.109-0.514-0.282-0.961-0.517-1.342s-0.543-0.686-0.924-0.913c-0.382-0.228-0.844-0.341-1.386-0.341
		C621.184,84.845,620.187,86.252,620.187,89.083z"/>
	<path fill="#FFFFFF" d="M630.769,83.605c0.513-0.029,1.052-0.066,1.616-0.11s1.266-0.065,2.102-0.065
		c1.452,0,2.493,0.223,3.124,0.67c0.63,0.447,0.946,1.126,0.946,2.035c0,0.514-0.151,1.016-0.451,1.508
		c-0.301,0.491-0.796,0.854-1.485,1.088v0.088c0.865,0.162,1.474,0.463,1.826,0.902c0.352,0.44,0.528,1.027,0.528,1.76
		c0,1.145-0.411,1.973-1.232,2.486s-2.054,0.77-3.696,0.77c-0.615,0-1.188-0.018-1.716-0.055s-1.049-0.076-1.562-0.121V83.605z
		 M634.685,88.225c0.264,0,0.521-0.043,0.77-0.132c0.249-0.088,0.473-0.209,0.671-0.362c0.198-0.154,0.359-0.334,0.484-0.539
		c0.124-0.205,0.187-0.426,0.187-0.66c0-0.587-0.176-0.994-0.527-1.221c-0.353-0.228-0.969-0.342-1.849-0.342
		c-0.47,0-0.84,0.008-1.11,0.022c-0.271,0.015-0.532,0.029-0.781,0.044v3.189H634.685z M632.529,93.109
		c0.278,0.029,0.554,0.051,0.825,0.065c0.271,0.015,0.59,0.022,0.957,0.022c0.982,0,1.712-0.14,2.188-0.418
		c0.477-0.279,0.715-0.756,0.715-1.43c0-0.529-0.201-0.957-0.604-1.287s-1.119-0.496-2.146-0.496h-1.936V93.109z"/>
	<path fill="#FFFFFF" d="M641.57,84.396c0.558-0.337,1.207-0.586,1.947-0.748c0.74-0.16,1.515-0.241,2.321-0.241
		c0.763,0,1.375,0.103,1.837,0.308s0.813,0.473,1.056,0.803s0.403,0.693,0.484,1.09c0.08,0.396,0.121,0.791,0.121,1.188
		c0,0.88-0.022,1.738-0.066,2.574s-0.065,1.628-0.065,2.376c0,0.542,0.021,1.056,0.065,1.54s0.125,0.932,0.242,1.342h-1.298
		l-0.462-1.54h-0.11c-0.132,0.206-0.297,0.407-0.495,0.604c-0.197,0.199-0.437,0.375-0.715,0.529
		c-0.278,0.153-0.602,0.281-0.968,0.385c-0.367,0.102-0.785,0.153-1.254,0.153c-0.47,0-0.906-0.073-1.31-0.22
		s-0.751-0.355-1.045-0.627c-0.293-0.271-0.524-0.598-0.692-0.979c-0.169-0.382-0.253-0.814-0.253-1.299
		c0-0.645,0.132-1.184,0.396-1.617c0.264-0.432,0.635-0.777,1.111-1.033c0.477-0.257,1.048-0.44,1.716-0.551
		c0.667-0.109,1.404-0.164,2.211-0.164c0.205,0,0.407,0,0.605,0c0.197,0,0.399,0.014,0.604,0.043
		c0.044-0.439,0.066-0.836,0.066-1.188c0-0.807-0.162-1.371-0.484-1.693c-0.323-0.323-0.909-0.484-1.76-0.484
		c-0.25,0-0.518,0.019-0.803,0.057c-0.286,0.037-0.58,0.09-0.881,0.158s-0.586,0.15-0.857,0.249s-0.51,0.207-0.715,0.327
		L641.57,84.396z M644.694,93.219c0.411,0,0.777-0.055,1.101-0.164c0.322-0.111,0.601-0.25,0.836-0.418
		c0.234-0.169,0.429-0.355,0.583-0.562s0.268-0.403,0.341-0.595v-1.826c-0.205-0.014-0.414-0.025-0.627-0.032
		s-0.422-0.011-0.627-0.011c-0.455,0-0.898,0.025-1.331,0.076c-0.433,0.053-0.814,0.147-1.144,0.287
		c-0.33,0.139-0.595,0.33-0.792,0.571c-0.198,0.242-0.298,0.547-0.298,0.913c0,0.514,0.184,0.936,0.551,1.266
		C643.653,93.055,644.122,93.219,644.694,93.219z"/>
</g>
</svg>
