<?xml version="1.0" encoding="utf-8"?>
<!-- Generator: Adobe Illustrator 16.0.0, SVG Export Plug-In . SVG Version: 6.00 Build 0)  -->
<!DOCTYPE svg PUBLIC "-//W3C//DTD SVG 1.1 Basic//EN" "http://www.w3.org/Graphics/SVG/1.1/DTD/svg11-basic.dtd" [
	<!ENTITY ns_flows "http://ns.adobe.com/Flows/1.0/">
	<!ENTITY ns_extend "http://ns.adobe.com/Extensibility/1.0/">
	<!ENTITY ns_ai "http://ns.adobe.com/AdobeIllustrator/10.0/">
	<!ENTITY ns_graphs "http://ns.adobe.com/Graphs/1.0/">
]>
<svg version="1.1" baseProfile="basic" id="Layer_1" xmlns:x="&ns_extend;" xmlns:i="&ns_ai;" xmlns:graph="&ns_graphs;"
	 xmlns="http://www.w3.org/2000/svg" xmlns:xlink="http://www.w3.org/1999/xlink" xmlns:a="http://ns.adobe.com/AdobeSVGViewerExtensions/3.0/"
	 x="0px" y="0px" width="396px" height="114px" viewBox="0 0 396 114" xml:space="preserve">
<polygon style="fill:#E50647;" points="300,63 300,48 357,48 357,0 0,0 0,46 0,48 0,63 0,91 0,114 396,114 396,63 "/>
<g>
	<path style="fill:#FFFFFF;" d="M108.911,26.486l0.546,1.869h0.105l0.42-1.932l2.814-7.686h1.785l-3.717,9.555
		c-0.378,0.994-0.711,1.824-0.998,2.488c-0.287,0.666-0.578,1.205-0.872,1.617c-0.294,0.413-0.609,0.707-0.945,0.882
		s-0.749,0.263-1.239,0.263c-0.462,0-0.829-0.039-1.102-0.115c-0.273-0.077-0.529-0.192-0.767-0.347l0.525-1.449
		c0.28,0.154,0.539,0.252,0.777,0.294c0.238,0.042,0.455,0.063,0.651,0.063c0.392,0,0.721-0.199,0.987-0.598
		c0.266-0.398,0.497-0.99,0.693-1.774l-5.439-10.878h2.016L108.911,26.486z"/>
	<path style="fill:#FFFFFF;" d="M117.078,22.938v2.856c0,0.378,0.021,0.718,0.063,1.019s0.126,0.561,0.252,0.777
		s0.308,0.385,0.546,0.504s0.553,0.178,0.945,0.178c0.63,0,1.147-0.069,1.554-0.209c0.406-0.141,0.714-0.295,0.924-0.463v-4.662
		h1.68v10.5h-1.68v-4.41c-0.224,0.141-0.557,0.295-0.998,0.463s-1.047,0.252-1.816,0.252c-0.518,0-0.974-0.057-1.365-0.168
		c-0.392-0.112-0.721-0.309-0.987-0.588c-0.266-0.28-0.466-0.651-0.599-1.113c-0.133-0.462-0.2-1.043-0.2-1.743v-3.192H117.078z"/>
	<path style="fill:#FFFFFF;" d="M126.045,23.715c0.532-0.322,1.151-0.56,1.858-0.714c0.707-0.153,1.445-0.231,2.215-0.231
		c0.728,0,1.313,0.099,1.753,0.295c0.441,0.195,0.777,0.451,1.008,0.766c0.231,0.315,0.385,0.662,0.462,1.04
		c0.077,0.378,0.115,0.756,0.115,1.134c0,0.84-0.021,1.659-0.063,2.457s-0.063,1.555-0.063,2.268c0,0.519,0.021,1.008,0.063,1.471
		c0.042,0.462,0.119,0.889,0.231,1.281h-1.239l-0.441-1.471h-0.105c-0.126,0.196-0.284,0.389-0.473,0.578
		c-0.189,0.188-0.417,0.356-0.683,0.504c-0.266,0.146-0.574,0.27-0.924,0.367c-0.35,0.098-0.749,0.146-1.197,0.146
		c-0.448,0-0.865-0.07-1.25-0.209c-0.385-0.141-0.718-0.34-0.998-0.6c-0.28-0.258-0.501-0.57-0.662-0.934
		c-0.161-0.364-0.242-0.777-0.242-1.239c0-0.616,0.126-1.13,0.378-1.544c0.252-0.412,0.605-0.742,1.061-0.986
		c0.455-0.245,1.001-0.42,1.638-0.525c0.637-0.105,1.34-0.157,2.11-0.157c0.196,0,0.389,0,0.578,0s0.381,0.015,0.578,0.042
		c0.042-0.42,0.063-0.799,0.063-1.135c0-0.77-0.154-1.309-0.462-1.616c-0.308-0.308-0.869-0.462-1.68-0.462
		c-0.238,0-0.494,0.018-0.767,0.054s-0.553,0.087-0.84,0.151c-0.287,0.064-0.56,0.145-0.819,0.238
		c-0.259,0.093-0.487,0.197-0.683,0.313L126.045,23.715z M129.027,32.137c0.392,0,0.742-0.053,1.05-0.158
		c0.308-0.105,0.574-0.238,0.798-0.398c0.224-0.161,0.41-0.34,0.557-0.536s0.255-0.385,0.326-0.567v-1.742
		c-0.196-0.014-0.396-0.025-0.599-0.031c-0.203-0.008-0.403-0.012-0.599-0.012c-0.434,0-0.857,0.025-1.271,0.074
		s-0.777,0.141-1.092,0.273s-0.567,0.314-0.756,0.545c-0.189,0.231-0.284,0.522-0.284,0.872c0,0.49,0.175,0.893,0.525,1.208
		C128.033,31.979,128.48,32.137,129.027,32.137z"/>
	<path style="fill:#FFFFFF;" d="M143.726,32.745c-0.42,0.308-0.917,0.542-1.491,0.704c-0.574,0.16-1.176,0.24-1.806,0.24
		c-0.812,0-1.498-0.129-2.058-0.389c-0.56-0.258-1.019-0.629-1.375-1.112s-0.616-1.063-0.777-1.743
		c-0.161-0.679-0.242-1.432-0.242-2.258c0-1.777,0.392-3.139,1.176-4.084c0.784-0.945,1.911-1.418,3.381-1.418
		c0.672,0,1.242,0.053,1.711,0.158s0.893,0.256,1.271,0.451l-0.483,1.449c-0.322-0.182-0.679-0.326-1.071-0.431
		c-0.392-0.104-0.813-0.157-1.26-0.157c-1.988,0-2.982,1.344-2.982,4.031c0,0.533,0.053,1.04,0.158,1.523
		c0.105,0.482,0.28,0.91,0.525,1.281c0.245,0.371,0.567,0.668,0.966,0.892s0.893,0.337,1.48,0.337c0.504,0,0.956-0.078,1.354-0.232
		c0.399-0.153,0.725-0.328,0.977-0.524L143.726,32.745z"/>
	<path style="fill:#FFFFFF;" d="M153.386,24.408h-3.297v9.029h-1.68v-9.029h-3.297v-1.471h8.274V24.408z"/>
	<path style="fill:#FFFFFF;" d="M161.886,27.223l0.063-1.303h-0.063l-0.861,1.344l-4.725,6.174h-0.966v-10.5h1.68v6.405
		l-0.063,1.239h0.084l0.819-1.303l4.725-6.342h0.987v10.5h-1.68V27.223z"/>
	<path style="fill:#FFFFFF;" d="M174.465,32.598c-0.42,0.336-0.949,0.603-1.586,0.799c-0.637,0.195-1.313,0.293-2.026,0.293
		c-0.798,0-1.491-0.129-2.079-0.389c-0.588-0.258-1.071-0.629-1.449-1.112s-0.658-1.061-0.84-1.732
		c-0.182-0.672-0.273-1.429-0.273-2.269c0-1.791,0.399-3.156,1.197-4.095c0.798-0.938,1.939-1.407,3.423-1.407
		c0.476,0,0.952,0.053,1.428,0.158c0.476,0.105,0.903,0.305,1.281,0.598c0.378,0.295,0.686,0.711,0.924,1.25
		c0.238,0.539,0.357,1.25,0.357,2.131c0,0.463-0.042,0.975-0.126,1.533h-6.741c0,0.617,0.063,1.162,0.189,1.639
		s0.322,0.879,0.588,1.207c0.266,0.33,0.612,0.582,1.04,0.756c0.427,0.176,0.948,0.264,1.564,0.264c0.476,0,0.952-0.084,1.428-0.253
		c0.476-0.168,0.833-0.364,1.071-0.588L174.465,32.598z M170.853,24.156c-0.826,0-1.488,0.217-1.984,0.65
		c-0.497,0.435-0.795,1.176-0.893,2.227h5.208c0-1.064-0.203-1.81-0.609-2.236C172.169,24.369,171.595,24.156,170.853,24.156z"/>
	<path style="fill:#FFFFFF;" d="M186.171,29.742l0.59,2.016h0.105l0.464-2.037l2.044-6.783h1.68l-3.108,9.43
		c-0.238,0.686-0.472,1.351-0.703,1.994c-0.231,0.645-0.487,1.219-0.767,1.723c-0.28,0.504-0.595,0.906-0.945,1.207
		c-0.35,0.301-0.756,0.452-1.218,0.452c-0.504,0-0.917-0.07-1.239-0.21l0.294-1.449c0.182,0.07,0.357,0.105,0.525,0.105
		c0.392,0,0.77-0.207,1.134-0.62s0.665-1.124,0.903-2.132l-4.221-10.5h1.932L186.171,29.742z"/>
	<path style="fill:#FFFFFF;" d="M194.465,22.938v2.856c0,0.378,0.021,0.718,0.063,1.019s0.126,0.561,0.252,0.777
		s0.308,0.385,0.546,0.504s0.553,0.178,0.945,0.178c0.63,0,1.147-0.069,1.554-0.209c0.406-0.141,0.714-0.295,0.924-0.463v-4.662
		h1.68v10.5h-1.68v-4.41c-0.224,0.141-0.557,0.295-0.998,0.463s-1.047,0.252-1.816,0.252c-0.518,0-0.974-0.057-1.365-0.168
		c-0.392-0.112-0.721-0.309-0.987-0.588c-0.266-0.28-0.466-0.651-0.599-1.113c-0.133-0.462-0.2-1.043-0.2-1.743v-3.192H194.465z"/>
	<path style="fill:#FFFFFF;" d="M211.335,32.598c-0.42,0.336-0.949,0.603-1.586,0.799c-0.637,0.195-1.313,0.293-2.026,0.293
		c-0.798,0-1.491-0.129-2.079-0.389c-0.588-0.258-1.071-0.629-1.449-1.112s-0.658-1.061-0.84-1.732
		c-0.182-0.672-0.273-1.429-0.273-2.269c0-1.791,0.399-3.156,1.197-4.095c0.798-0.938,1.939-1.407,3.423-1.407
		c0.476,0,0.952,0.053,1.428,0.158c0.476,0.105,0.903,0.305,1.281,0.598c0.378,0.295,0.686,0.711,0.924,1.25
		c0.238,0.539,0.357,1.25,0.357,2.131c0,0.463-0.042,0.975-0.126,1.533h-6.741c0,0.617,0.063,1.162,0.189,1.639
		s0.322,0.879,0.588,1.207c0.266,0.33,0.612,0.582,1.04,0.756c0.427,0.176,0.948,0.264,1.564,0.264c0.476,0,0.952-0.084,1.428-0.253
		c0.476-0.168,0.833-0.364,1.071-0.588L211.335,32.598z M207.723,24.156c-0.826,0-1.488,0.217-1.984,0.65
		c-0.497,0.435-0.795,1.176-0.893,2.227h5.208c0-1.064-0.203-1.81-0.609-2.236C209.039,24.369,208.465,24.156,207.723,24.156z"/>
	<path style="fill:#FFFFFF;" d="M220.705,28.797h-4.746v4.641h-1.68v-10.5h1.68v4.39h4.746v-4.39h1.68v10.5h-1.68V28.797z"/>
	<path style="fill:#FFFFFF;" d="M232.086,27.223l0.063-1.303h-0.063l-0.861,1.344l-4.725,6.174h-0.966v-10.5h1.68v6.405
		l-0.063,1.239h0.084l0.819-1.303l4.725-6.342h0.987v10.5h-1.68V27.223z"/>
	<path style="fill:#FFFFFF;" d="M239.552,28.713h-0.966v4.725h-1.68v-10.5h1.68v4.746l0.903-0.293l3.36-4.453h1.827l-3.255,4.222
		l-0.882,0.692l1.092,0.84l3.507,4.746h-2.079L239.552,28.713z"/>
	<path style="fill:#FFFFFF;" d="M245.995,28.188c0-1.777,0.396-3.139,1.187-4.084s1.929-1.418,3.413-1.418
		c0.784,0,1.466,0.13,2.047,0.389c0.581,0.26,1.061,0.631,1.438,1.113c0.378,0.482,0.658,1.064,0.84,1.743
		c0.182,0.679,0.273,1.432,0.273,2.257c0,1.779-0.396,3.141-1.187,4.085c-0.791,0.944-1.929,1.417-3.413,1.417
		c-0.784,0-1.467-0.129-2.047-0.389c-0.581-0.258-1.061-0.629-1.438-1.112s-0.658-1.063-0.84-1.743
		C246.086,29.767,245.995,29.014,245.995,28.188z M247.738,28.188c0,0.533,0.053,1.043,0.158,1.533s0.269,0.918,0.493,1.281
		c0.224,0.364,0.518,0.658,0.882,0.882c0.364,0.224,0.805,0.337,1.323,0.337c1.904,0.014,2.856-1.33,2.856-4.033
		c0-0.545-0.052-1.063-0.157-1.554c-0.105-0.489-0.27-0.917-0.494-1.28c-0.224-0.364-0.518-0.654-0.882-0.872
		c-0.364-0.217-0.805-0.325-1.323-0.325C248.69,24.143,247.738,25.486,247.738,28.188z"/>
	<path style="fill:#FFFFFF;" d="M257.813,22.959c0.49-0.027,1.004-0.063,1.543-0.105c0.539-0.041,1.208-0.063,2.005-0.063
		c1.386,0,2.38,0.213,2.982,0.641s0.903,1.074,0.903,1.942c0,0.49-0.144,0.97-0.43,1.438c-0.287,0.469-0.76,0.816-1.417,1.039v0.084
		c0.826,0.154,1.407,0.441,1.743,0.861c0.336,0.42,0.504,0.98,0.504,1.68c0,1.092-0.392,1.883-1.176,2.373s-1.96,0.735-3.528,0.735
		c-0.588,0-1.134-0.018-1.638-0.052c-0.504-0.035-1.001-0.074-1.491-0.116V22.959z M261.551,27.369c0.252,0,0.497-0.042,0.735-0.126
		s0.452-0.2,0.641-0.347s0.343-0.318,0.462-0.515s0.179-0.405,0.179-0.63c0-0.56-0.168-0.948-0.504-1.166
		c-0.336-0.217-0.924-0.324-1.764-0.324c-0.448,0-0.802,0.006-1.061,0.021c-0.259,0.014-0.508,0.028-0.746,0.042v3.045H261.551z
		 M259.493,32.031c0.266,0.027,0.528,0.049,0.788,0.063c0.259,0.014,0.563,0.021,0.914,0.021c0.938,0,1.634-0.133,2.089-0.399
		c0.455-0.266,0.683-0.721,0.683-1.364c0-0.504-0.193-0.914-0.578-1.229c-0.385-0.315-1.067-0.473-2.047-0.473h-1.848V32.031z"/>
	<path style="fill:#FFFFFF;" d="M286.121,36.146h-1.197l-0.315-2.709h-10.542V18.738h1.743v13.146h6.615V18.738h1.743v13.146h1.953
		V36.146z"/>
	<path style="fill:#FFFFFF;" d="M295.952,32.598c-0.42,0.336-0.949,0.603-1.586,0.799c-0.637,0.195-1.313,0.293-2.026,0.293
		c-0.798,0-1.491-0.129-2.079-0.389c-0.588-0.258-1.071-0.629-1.449-1.112s-0.658-1.061-0.84-1.732
		c-0.182-0.672-0.273-1.429-0.273-2.269c0-1.791,0.399-3.156,1.197-4.095c0.798-0.938,1.939-1.407,3.423-1.407
		c0.476,0,0.952,0.053,1.428,0.158c0.476,0.105,0.903,0.305,1.281,0.598c0.378,0.295,0.686,0.711,0.924,1.25
		c0.238,0.539,0.357,1.25,0.357,2.131c0,0.463-0.042,0.975-0.126,1.533h-6.741c0,0.617,0.063,1.162,0.189,1.639
		s0.322,0.879,0.588,1.207c0.266,0.33,0.612,0.582,1.04,0.756c0.427,0.176,0.948,0.264,1.564,0.264c0.476,0,0.952-0.084,1.428-0.253
		c0.476-0.168,0.833-0.364,1.071-0.588L295.952,32.598z M292.339,24.156c-0.826,0-1.488,0.217-1.984,0.65
		c-0.497,0.435-0.795,1.176-0.893,2.227h5.208c0-1.064-0.203-1.81-0.609-2.236C293.655,24.369,293.082,24.156,292.339,24.156z"/>
	<path style="fill:#FFFFFF;" d="M305.321,28.797h-4.746v4.641h-1.68v-10.5h1.68v4.39h4.746v-4.39h1.68v10.5h-1.68V28.797z"/>
	<path style="fill:#FFFFFF;" d="M317.224,24.408h-3.297v9.029h-1.68v-9.029h-3.297v-1.471h8.274V24.408z"/>
	<path style="fill:#FFFFFF;" d="M319.173,22.938h1.155l0.315,1.26h0.084c0.322-0.489,0.738-0.863,1.25-1.123
		c0.511-0.259,1.095-0.389,1.753-0.389c1.4,0,2.443,0.414,3.129,1.239c0.686,0.826,1.029,2.177,1.029,4.054
		c0,0.881-0.116,1.676-0.347,2.383s-0.556,1.306-0.977,1.796c-0.42,0.489-0.927,0.868-1.522,1.134s-1.256,0.398-1.984,0.398
		c-0.518,0-0.928-0.031-1.229-0.094c-0.301-0.063-0.626-0.172-0.977-0.326v4.369h-1.68V22.938z M323.415,24.156
		c-0.714,0-1.278,0.186-1.69,0.557c-0.413,0.371-0.704,0.934-0.872,1.689v5.209c0.252,0.195,0.539,0.346,0.861,0.451
		c0.322,0.105,0.749,0.158,1.281,0.158c0.966,0,1.732-0.361,2.299-1.082c0.567-0.721,0.851-1.781,0.851-3.182
		c0-0.574-0.049-1.096-0.147-1.564c-0.098-0.469-0.255-0.868-0.472-1.197c-0.217-0.328-0.498-0.584-0.84-0.766
		C324.342,24.247,323.918,24.156,323.415,24.156z"/>
	<path style="fill:#FFFFFF;" d="M330.462,23.715c0.532-0.322,1.151-0.56,1.858-0.714c0.707-0.153,1.445-0.231,2.215-0.231
		c0.728,0,1.313,0.099,1.753,0.295c0.441,0.195,0.777,0.451,1.008,0.766c0.231,0.315,0.385,0.662,0.462,1.04
		c0.077,0.378,0.115,0.756,0.115,1.134c0,0.84-0.021,1.659-0.063,2.457s-0.063,1.555-0.063,2.268c0,0.519,0.021,1.008,0.063,1.471
		c0.042,0.462,0.119,0.889,0.231,1.281h-1.239l-0.441-1.471h-0.105c-0.126,0.196-0.284,0.389-0.473,0.578
		c-0.189,0.188-0.417,0.356-0.683,0.504c-0.266,0.146-0.574,0.27-0.924,0.367c-0.35,0.098-0.749,0.146-1.197,0.146
		c-0.448,0-0.865-0.07-1.25-0.209c-0.385-0.141-0.718-0.34-0.998-0.6c-0.28-0.258-0.501-0.57-0.662-0.934
		c-0.161-0.364-0.242-0.777-0.242-1.239c0-0.616,0.126-1.13,0.378-1.544c0.252-0.412,0.605-0.742,1.061-0.986
		c0.455-0.245,1.001-0.42,1.638-0.525c0.637-0.105,1.34-0.157,2.11-0.157c0.196,0,0.389,0,0.578,0s0.381,0.015,0.578,0.042
		c0.042-0.42,0.063-0.799,0.063-1.135c0-0.77-0.154-1.309-0.462-1.616c-0.308-0.308-0.869-0.462-1.68-0.462
		c-0.238,0-0.494,0.018-0.767,0.054s-0.553,0.087-0.84,0.151c-0.287,0.064-0.56,0.145-0.819,0.238
		c-0.259,0.093-0.487,0.197-0.683,0.313L330.462,23.715z M333.444,32.137c0.392,0,0.742-0.053,1.05-0.158
		c0.308-0.105,0.574-0.238,0.798-0.398c0.224-0.161,0.41-0.34,0.557-0.536s0.255-0.385,0.326-0.567v-1.742
		c-0.196-0.014-0.396-0.025-0.599-0.031c-0.203-0.008-0.403-0.012-0.599-0.012c-0.434,0-0.857,0.025-1.271,0.074
		s-0.777,0.141-1.092,0.273s-0.567,0.314-0.756,0.545c-0.189,0.231-0.284,0.522-0.284,0.872c0,0.49,0.175,0.893,0.525,1.208
		C332.45,31.979,332.898,32.137,333.444,32.137z"/>
	<path style="fill:#FFFFFF;" d="M104.606,54.159c0.49-0.028,1.004-0.063,1.543-0.104c0.539-0.043,1.208-0.063,2.005-0.063
		c1.386,0,2.38,0.214,2.982,0.641s0.903,1.074,0.903,1.942c0,0.49-0.144,0.97-0.43,1.438c-0.287,0.47-0.76,0.815-1.417,1.04v0.084
		c0.826,0.154,1.407,0.44,1.743,0.86c0.336,0.42,0.504,0.979,0.504,1.681c0,1.092-0.392,1.883-1.176,2.373s-1.96,0.734-3.528,0.734
		c-0.588,0-1.134-0.018-1.638-0.053s-1.001-0.073-1.491-0.115V54.159z M108.344,58.569c0.252,0,0.497-0.042,0.735-0.126
		s0.452-0.199,0.641-0.347s0.343-0.318,0.462-0.515c0.119-0.195,0.179-0.406,0.179-0.63c0-0.56-0.168-0.948-0.504-1.165
		c-0.336-0.217-0.924-0.326-1.764-0.326c-0.448,0-0.802,0.008-1.061,0.021c-0.259,0.014-0.508,0.027-0.746,0.042v3.045H108.344z
		 M106.286,63.23c0.266,0.029,0.528,0.05,0.788,0.063c0.259,0.015,0.563,0.021,0.914,0.021c0.938,0,1.634-0.133,2.089-0.398
		s0.683-0.721,0.683-1.365c0-0.504-0.193-0.913-0.578-1.229c-0.385-0.314-1.067-0.473-2.047-0.473h-1.848V63.23z"/>
	<path style="fill:#FFFFFF;" d="M127.013,55.608h-4.641v9.03h-1.68v-10.5h8.001v10.5h-1.68V55.608z"/>
	<path style="fill:#FFFFFF;" d="M131.837,54.139h1.155l0.315,1.26h0.084c0.322-0.49,0.738-0.865,1.25-1.123
		c0.511-0.26,1.095-0.389,1.753-0.389c1.4,0,2.443,0.412,3.129,1.238c0.686,0.826,1.029,2.178,1.029,4.053
		c0,0.883-0.116,1.678-0.347,2.384c-0.231,0.707-0.556,1.306-0.977,1.796c-0.42,0.49-0.927,0.868-1.522,1.134
		s-1.256,0.399-1.984,0.399c-0.518,0-0.928-0.031-1.229-0.095c-0.301-0.063-0.626-0.171-0.977-0.325v4.367h-1.68V54.139z
		 M136.079,55.355c-0.714,0-1.278,0.187-1.69,0.557c-0.413,0.371-0.704,0.936-0.872,1.691v5.207
		c0.252,0.197,0.539,0.348,0.861,0.452c0.322,0.104,0.749,0.157,1.281,0.157c0.966,0,1.732-0.359,2.299-1.081
		c0.567-0.722,0.851-1.782,0.851-3.182c0-0.573-0.049-1.095-0.147-1.564c-0.098-0.469-0.255-0.868-0.472-1.197
		c-0.217-0.329-0.498-0.584-0.84-0.767C137.006,55.447,136.583,55.355,136.079,55.355z"/>
	<path style="fill:#FFFFFF;" d="M142.685,59.389c0-1.778,0.396-3.141,1.187-4.085s1.929-1.417,3.413-1.417
		c0.784,0,1.466,0.129,2.047,0.389c0.581,0.258,1.061,0.629,1.438,1.112c0.378,0.483,0.658,1.063,0.84,1.743
		c0.182,0.68,0.273,1.432,0.273,2.258c0,1.777-0.396,3.139-1.187,4.084c-0.791,0.945-1.929,1.418-3.413,1.418
		c-0.784,0-1.467-0.13-2.047-0.389c-0.581-0.26-1.061-0.631-1.438-1.113s-0.658-1.064-0.84-1.743
		C142.776,60.967,142.685,60.215,142.685,59.389z M144.428,59.389c0,0.531,0.053,1.043,0.158,1.533s0.269,0.916,0.493,1.28
		s0.518,0.658,0.882,0.882c0.364,0.225,0.805,0.336,1.323,0.336c1.904,0.014,2.856-1.33,2.856-4.031
		c0-0.547-0.052-1.064-0.157-1.555s-0.27-0.916-0.494-1.281c-0.224-0.363-0.518-0.654-0.882-0.871
		c-0.364-0.217-0.805-0.326-1.323-0.326C145.38,55.342,144.428,56.687,144.428,59.389z"/>
	<path style="fill:#FFFFFF;" d="M162.28,63.799c-0.42,0.336-0.949,0.602-1.586,0.797c-0.637,0.196-1.313,0.295-2.026,0.295
		c-0.798,0-1.491-0.13-2.079-0.389c-0.588-0.26-1.071-0.631-1.449-1.113s-0.658-1.061-0.84-1.732
		c-0.182-0.672-0.273-1.428-0.273-2.268c0-1.793,0.399-3.157,1.197-4.096c0.798-0.938,1.939-1.406,3.423-1.406
		c0.476,0,0.952,0.052,1.428,0.156c0.476,0.105,0.903,0.305,1.281,0.6c0.378,0.293,0.686,0.711,0.924,1.249
		c0.238,0.539,0.357,1.249,0.357,2.132c0,0.462-0.042,0.973-0.126,1.533h-6.741c0,0.615,0.063,1.162,0.189,1.638
		s0.322,0.878,0.588,1.208c0.266,0.328,0.612,0.58,1.04,0.756c0.427,0.175,0.948,0.262,1.564,0.262c0.476,0,0.952-0.084,1.428-0.252
		c0.476-0.168,0.833-0.363,1.071-0.588L162.28,63.799z M158.668,55.355c-0.826,0-1.488,0.218-1.984,0.652
		c-0.497,0.434-0.795,1.176-0.893,2.226h5.208c0-1.063-0.203-1.81-0.609-2.237C159.984,55.57,159.41,55.355,158.668,55.355z"/>
	<path style="fill:#FFFFFF;" d="M167.871,59.913h-0.966v4.726h-1.68v-10.5h1.68v4.746l0.903-0.295l3.36-4.451h1.827l-3.255,4.221
		l-0.882,0.693l1.092,0.84l3.507,4.746h-2.079L167.871,59.913z"/>
	<path style="fill:#FFFFFF;" d="M182.74,55.608h-3.297v9.03h-1.68v-9.03h-3.297v-1.47h8.274V55.608z"/>
	<path style="fill:#FFFFFF;" d="M192.302,63.799c-0.42,0.336-0.949,0.602-1.586,0.797c-0.637,0.196-1.313,0.295-2.026,0.295
		c-0.798,0-1.491-0.13-2.079-0.389c-0.588-0.26-1.071-0.631-1.449-1.113s-0.658-1.061-0.84-1.732
		c-0.182-0.672-0.273-1.428-0.273-2.268c0-1.793,0.399-3.157,1.197-4.096c0.798-0.938,1.939-1.406,3.423-1.406
		c0.476,0,0.952,0.052,1.428,0.156c0.476,0.105,0.903,0.305,1.281,0.6c0.378,0.293,0.686,0.711,0.924,1.249
		c0.238,0.539,0.357,1.249,0.357,2.132c0,0.462-0.042,0.973-0.126,1.533h-6.741c0,0.615,0.063,1.162,0.189,1.638
		s0.322,0.878,0.588,1.208c0.266,0.328,0.612,0.58,1.04,0.756c0.427,0.175,0.948,0.262,1.564,0.262c0.476,0,0.952-0.084,1.428-0.252
		c0.476-0.168,0.833-0.363,1.071-0.588L192.302,63.799z M188.689,55.355c-0.826,0-1.488,0.218-1.984,0.652
		c-0.497,0.434-0.795,1.176-0.893,2.226h5.208c0-1.063-0.203-1.81-0.609-2.237C190.005,55.57,189.432,55.355,188.689,55.355z"/>
	<path style="fill:#FFFFFF;" d="M200.113,59.188l3.36-4.819l1.134,0.9l-2.058,3.039l-1.008,0.859l1.008,0.758l2.184,2.988
		L203.6,63.84L200.113,59.188z M203.957,59.188l3.318-4.777l1.113,0.88l-2.037,3.018l-1.008,0.859l1.008,0.758l2.163,2.967
		l-1.092,0.906L203.957,59.188z"/>
	<path style="fill:#FFFFFF;" d="M218.799,51.492h-4.578v13.146h-1.743V51.492H207.9v-1.555h10.899V51.492z"/>
	<path style="fill:#FFFFFF;" d="M218.816,54.915c0.532-0.321,1.151-0.56,1.858-0.714c0.707-0.154,1.445-0.23,2.215-0.23
		c0.728,0,1.313,0.098,1.753,0.293c0.441,0.197,0.777,0.452,1.008,0.768c0.231,0.314,0.385,0.661,0.462,1.039
		c0.077,0.378,0.115,0.756,0.115,1.134c0,0.84-0.021,1.659-0.063,2.457s-0.063,1.554-0.063,2.269c0,0.518,0.021,1.008,0.063,1.47
		s0.119,0.89,0.231,1.28h-1.239l-0.441-1.47h-0.105c-0.126,0.196-0.284,0.389-0.473,0.577c-0.189,0.189-0.417,0.357-0.683,0.504
		c-0.266,0.147-0.574,0.271-0.924,0.368c-0.35,0.098-0.749,0.147-1.197,0.147c-0.448,0-0.865-0.07-1.25-0.211
		c-0.385-0.139-0.718-0.339-0.998-0.598c-0.28-0.26-0.501-0.57-0.662-0.936c-0.161-0.363-0.242-0.776-0.242-1.238
		c0-0.615,0.126-1.131,0.378-1.543c0.252-0.414,0.605-0.742,1.061-0.988c0.455-0.244,1.001-0.42,1.638-0.524
		c0.637-0.104,1.34-0.157,2.11-0.157c0.196,0,0.389,0,0.578,0s0.381,0.014,0.578,0.042c0.042-0.42,0.063-0.798,0.063-1.134
		c0-0.77-0.154-1.309-0.462-1.617c-0.308-0.309-0.869-0.463-1.68-0.463c-0.238,0-0.494,0.019-0.767,0.055s-0.553,0.086-0.84,0.151
		c-0.287,0.065-0.56,0.144-0.819,0.237c-0.259,0.094-0.487,0.198-0.683,0.313L218.816,54.915z M221.798,63.336
		c0.392,0,0.742-0.053,1.05-0.157c0.308-0.104,0.574-0.237,0.798-0.399c0.224-0.16,0.41-0.339,0.557-0.535
		c0.147-0.195,0.255-0.385,0.326-0.566v-1.744c-0.196-0.014-0.396-0.023-0.599-0.031c-0.203-0.006-0.403-0.01-0.599-0.01
		c-0.434,0-0.857,0.024-1.271,0.073c-0.413,0.05-0.777,0.14-1.092,0.272c-0.315,0.134-0.567,0.315-0.756,0.547
		c-0.189,0.23-0.284,0.521-0.284,0.871c0,0.49,0.175,0.893,0.525,1.207C220.804,63.179,221.252,63.336,221.798,63.336z"/>
	<path style="fill:#FFFFFF;" d="M235.742,59.997h-4.746v4.642h-1.68v-10.5h1.68v4.389h4.746v-4.389h1.68v10.5h-1.68V59.997z"/>
	<path style="fill:#FFFFFF;" d="M250,67.305h-1.134l-0.315-2.666h-7.98v-10.5h1.68v9.029h4.557v-9.029h1.68v9.029H250V67.305z"/>
	<path style="fill:#FFFFFF;" d="M255.176,60.942l0.59,2.016h0.105l0.464-2.036l2.044-6.783h1.68l-3.108,9.429
		c-0.238,0.687-0.472,1.351-0.703,1.995c-0.231,0.644-0.487,1.218-0.767,1.722c-0.28,0.504-0.595,0.906-0.945,1.208
		c-0.35,0.301-0.756,0.451-1.218,0.451c-0.504,0-0.917-0.07-1.239-0.21l0.294-1.449c0.182,0.069,0.357,0.104,0.525,0.104
		c0.392,0,0.77-0.206,1.134-0.619s0.665-1.123,0.903-2.131l-4.221-10.5h1.932L255.176,60.942z"/>
	<path style="fill:#FFFFFF;" d="M268.631,58.422l0.063-1.302h-0.063l-0.861,1.345l-4.725,6.174h-0.966v-10.5h1.68v6.404
		l-0.063,1.239h0.084l0.819-1.302l4.725-6.342h0.987v10.5h-1.68V58.422z M264.494,49.896c0.14,0.645,0.381,1.092,0.724,1.344
		s0.738,0.378,1.187,0.378s0.847-0.133,1.197-0.399c0.35-0.266,0.588-0.699,0.714-1.302l1.26,0.399
		c-0.126,0.813-0.486,1.436-1.081,1.869c-0.595,0.434-1.306,0.65-2.132,0.65c-0.378,0-0.752-0.049-1.124-0.146
		s-0.703-0.245-0.998-0.441c-0.294-0.195-0.546-0.447-0.756-0.756c-0.21-0.308-0.35-0.672-0.42-1.092L264.494,49.896z"/>
	<path style="fill:#FFFFFF;" d="M277.209,59l-3.36,4.799l-1.092-0.885l2.016-3.03l1.029-0.863l-1.029-0.755l-2.142-2.953
		l1.092-0.901L277.209,59z M281.032,59l-3.36,4.84l-1.134-0.904l2.058-3.052l1.008-0.863l-1.008-0.755l-2.184-2.975l1.113-0.922
		L281.032,59z"/>
	<path style="fill:#FFFFFF;" d="M111.032,91.197h-4.746v4.641h-1.68v-10.5h1.68v4.39h4.746v-4.39h1.68v10.5h-1.68V91.197z"/>
	<path style="fill:#FFFFFF;" d="M115.715,86.115c0.532-0.322,1.151-0.56,1.858-0.714c0.707-0.153,1.445-0.231,2.215-0.231
		c0.728,0,1.313,0.099,1.753,0.295c0.441,0.195,0.777,0.451,1.008,0.766c0.231,0.315,0.385,0.662,0.462,1.04
		c0.077,0.378,0.115,0.756,0.115,1.134c0,0.84-0.021,1.659-0.063,2.457s-0.063,1.555-0.063,2.268c0,0.519,0.021,1.008,0.063,1.471
		c0.042,0.462,0.119,0.889,0.231,1.281h-1.239l-0.441-1.471h-0.105c-0.126,0.196-0.284,0.389-0.473,0.578
		c-0.189,0.188-0.417,0.356-0.683,0.504c-0.266,0.146-0.574,0.27-0.924,0.367c-0.35,0.098-0.749,0.146-1.197,0.146
		c-0.448,0-0.865-0.07-1.25-0.209c-0.385-0.141-0.718-0.34-0.998-0.6c-0.28-0.258-0.501-0.57-0.662-0.934
		c-0.161-0.364-0.242-0.777-0.242-1.239c0-0.616,0.126-1.13,0.378-1.544c0.252-0.412,0.605-0.742,1.061-0.986
		c0.455-0.245,1.001-0.42,1.638-0.525c0.637-0.105,1.34-0.157,2.11-0.157c0.196,0,0.389,0,0.578,0s0.381,0.015,0.578,0.042
		c0.042-0.42,0.063-0.799,0.063-1.135c0-0.77-0.154-1.309-0.462-1.616c-0.308-0.308-0.869-0.462-1.68-0.462
		c-0.238,0-0.494,0.018-0.767,0.054s-0.553,0.087-0.84,0.151c-0.287,0.064-0.56,0.145-0.819,0.238
		c-0.259,0.093-0.487,0.197-0.683,0.313L115.715,86.115z M118.697,94.537c0.392,0,0.742-0.053,1.05-0.158
		c0.308-0.105,0.574-0.238,0.798-0.398c0.224-0.161,0.41-0.34,0.557-0.536s0.255-0.385,0.326-0.567v-1.742
		c-0.196-0.014-0.396-0.025-0.599-0.031c-0.203-0.008-0.403-0.012-0.599-0.012c-0.434,0-0.857,0.025-1.271,0.074
		s-0.777,0.141-1.092,0.273s-0.567,0.314-0.756,0.545c-0.189,0.231-0.284,0.522-0.284,0.872c0,0.49,0.175,0.893,0.525,1.208
		C117.703,94.379,118.151,94.537,118.697,94.537z"/>
	<path style="fill:#FFFFFF;" d="M138.038,86.809h-4.452v9.029h-1.68v-10.5h6.132V86.809z"/>
	<path style="fill:#FFFFFF;" d="M139.324,90.588c0-1.777,0.396-3.139,1.187-4.084s1.929-1.418,3.413-1.418
		c0.784,0,1.466,0.13,2.047,0.389c0.581,0.26,1.061,0.631,1.438,1.113c0.378,0.482,0.658,1.064,0.84,1.743
		c0.182,0.679,0.273,1.432,0.273,2.257c0,1.779-0.396,3.141-1.187,4.085c-0.791,0.944-1.929,1.417-3.413,1.417
		c-0.784,0-1.467-0.129-2.047-0.389c-0.581-0.258-1.061-0.629-1.438-1.112s-0.658-1.063-0.84-1.743
		C139.416,92.167,139.324,91.414,139.324,90.588z M141.067,90.588c0,0.533,0.053,1.043,0.158,1.533s0.269,0.918,0.493,1.281
		c0.224,0.364,0.518,0.658,0.882,0.882c0.364,0.224,0.805,0.337,1.323,0.337c1.904,0.014,2.856-1.33,2.856-4.033
		c0-0.545-0.052-1.063-0.157-1.554c-0.105-0.489-0.27-0.917-0.494-1.28c-0.224-0.364-0.518-0.654-0.882-0.872
		c-0.364-0.217-0.805-0.325-1.323-0.325C142.02,86.543,141.067,87.887,141.067,90.588z"/>
	<path style="fill:#FFFFFF;" d="M151.11,85.338h1.155l0.315,1.26h0.084c0.322-0.489,0.738-0.863,1.25-1.123
		c0.511-0.259,1.095-0.389,1.753-0.389c1.4,0,2.443,0.414,3.129,1.239c0.686,0.826,1.029,2.177,1.029,4.054
		c0,0.881-0.116,1.676-0.347,2.383s-0.556,1.306-0.977,1.796c-0.42,0.489-0.927,0.868-1.522,1.134s-1.256,0.398-1.984,0.398
		c-0.518,0-0.928-0.031-1.229-0.094c-0.301-0.063-0.626-0.172-0.977-0.326v4.369h-1.68V85.338z M155.352,86.557
		c-0.714,0-1.278,0.186-1.69,0.557c-0.413,0.371-0.704,0.934-0.872,1.689v5.209c0.252,0.195,0.539,0.346,0.861,0.451
		c0.322,0.105,0.749,0.158,1.281,0.158c0.966,0,1.732-0.361,2.299-1.082c0.567-0.721,0.851-1.781,0.851-3.182
		c0-0.574-0.049-1.096-0.147-1.564c-0.098-0.469-0.255-0.868-0.472-1.197c-0.217-0.328-0.498-0.584-0.84-0.766
		C156.279,86.647,155.855,86.557,155.352,86.557z"/>
	<path style="fill:#FFFFFF;" d="M161.958,90.588c0-1.777,0.396-3.139,1.187-4.084s1.929-1.418,3.413-1.418
		c0.784,0,1.466,0.13,2.047,0.389c0.581,0.26,1.061,0.631,1.438,1.113c0.378,0.482,0.658,1.064,0.84,1.743
		c0.182,0.679,0.273,1.432,0.273,2.257c0,1.779-0.396,3.141-1.187,4.085c-0.791,0.944-1.929,1.417-3.413,1.417
		c-0.784,0-1.467-0.129-2.047-0.389c-0.581-0.258-1.061-0.629-1.438-1.112s-0.658-1.063-0.84-1.743
		C162.049,92.167,161.958,91.414,161.958,90.588z M163.701,90.588c0,0.533,0.053,1.043,0.158,1.533s0.269,0.918,0.493,1.281
		c0.224,0.364,0.518,0.658,0.882,0.882c0.364,0.224,0.805,0.337,1.323,0.337c1.904,0.014,2.856-1.33,2.856-4.033
		c0-0.545-0.052-1.063-0.157-1.554c-0.105-0.489-0.27-0.917-0.494-1.28c-0.224-0.364-0.518-0.654-0.882-0.872
		c-0.364-0.217-0.805-0.325-1.323-0.325C164.653,86.543,163.701,87.887,163.701,90.588z"/>
	<path style="fill:#FFFFFF;" d="M183.214,98.506h-1.134l-0.315-2.668h-7.896l-0.315,2.668h-1.134v-4.138h1.239
		c0.112-0.153,0.259-0.431,0.441-0.829c0.182-0.399,0.36-0.959,0.535-1.68c0.175-0.721,0.329-1.617,0.462-2.688
		c0.133-1.071,0.213-2.349,0.241-3.833h6.342v9.03h1.533V98.506z M180.001,94.368v-7.56h-3.15c-0.028,0.588-0.077,1.229-0.147,1.922
		c-0.07,0.692-0.165,1.385-0.284,2.078c-0.119,0.693-0.27,1.348-0.452,1.964s-0.392,1.147-0.63,1.596H180.001z"/>
	<path style="fill:#FFFFFF;" d="M192.454,95.146c-0.42,0.308-0.917,0.542-1.491,0.704c-0.574,0.16-1.176,0.24-1.806,0.24
		c-0.812,0-1.498-0.129-2.058-0.389c-0.56-0.258-1.019-0.629-1.375-1.112s-0.616-1.063-0.777-1.743
		c-0.161-0.679-0.242-1.432-0.242-2.258c0-1.777,0.392-3.139,1.176-4.084c0.784-0.945,1.911-1.418,3.381-1.418
		c0.672,0,1.242,0.053,1.711,0.158s0.893,0.256,1.271,0.451l-0.483,1.449c-0.322-0.182-0.679-0.326-1.071-0.431
		c-0.392-0.104-0.813-0.157-1.26-0.157c-1.988,0-2.982,1.344-2.982,4.031c0,0.533,0.053,1.04,0.158,1.523
		c0.105,0.482,0.28,0.91,0.525,1.281c0.245,0.371,0.567,0.668,0.966,0.892s0.893,0.337,1.48,0.337c0.504,0,0.956-0.078,1.354-0.232
		c0.399-0.153,0.725-0.328,0.977-0.524L192.454,95.146z"/>
	<path style="fill:#FFFFFF;" d="M197.357,91.113h-0.966v4.725h-1.68v-10.5h1.68v4.746l0.903-0.293l3.36-4.453h1.827l-3.255,4.222
		l-0.882,0.692l1.092,0.84l3.507,4.746h-2.079L197.357,91.113z"/>
	<path style="fill:#FFFFFF;" d="M203.8,90.588c0-1.777,0.396-3.139,1.187-4.084s1.929-1.418,3.413-1.418
		c0.784,0,1.466,0.13,2.047,0.389c0.581,0.26,1.061,0.631,1.438,1.113c0.378,0.482,0.658,1.064,0.84,1.743
		c0.182,0.679,0.273,1.432,0.273,2.257c0,1.779-0.396,3.141-1.187,4.085c-0.791,0.944-1.929,1.417-3.413,1.417
		c-0.784,0-1.467-0.129-2.047-0.389c-0.581-0.258-1.061-0.629-1.438-1.112s-0.658-1.063-0.84-1.743
		C203.891,92.167,203.8,91.414,203.8,90.588z M205.543,90.588c0,0.533,0.053,1.043,0.158,1.533s0.269,0.918,0.493,1.281
		c0.224,0.364,0.518,0.658,0.882,0.882c0.364,0.224,0.805,0.337,1.323,0.337c1.904,0.014,2.856-1.33,2.856-4.033
		c0-0.545-0.052-1.063-0.157-1.554c-0.105-0.489-0.27-0.917-0.494-1.28c-0.224-0.364-0.518-0.654-0.882-0.872
		c-0.364-0.217-0.805-0.325-1.323-0.325C206.495,86.543,205.543,87.887,205.543,90.588z"/>
	<path style="fill:#FFFFFF;" d="M224.292,89.602l0.126-1.995h-0.105l-0.756,1.616l-2.541,4.117h-0.588l-2.646-4.117l-0.693-1.616
		h-0.084l0.168,1.974v6.258h-1.554v-10.5h1.659l2.94,4.705l0.609,1.217h0.042l0.63-1.26l2.751-4.662h1.68v10.5h-1.638V89.602z"/>
	<path style="fill:#FFFFFF;" d="M241.469,86.809h-3.297v9.029h-1.68v-9.029h-3.297v-1.471h8.274V86.809z"/>
	<path style="fill:#FFFFFF;" d="M251.031,94.998c-0.42,0.336-0.949,0.603-1.586,0.799c-0.637,0.195-1.313,0.293-2.026,0.293
		c-0.798,0-1.491-0.129-2.079-0.389c-0.588-0.258-1.071-0.629-1.449-1.112s-0.658-1.061-0.84-1.732
		c-0.182-0.672-0.273-1.429-0.273-2.269c0-1.791,0.399-3.156,1.197-4.095c0.798-0.938,1.939-1.407,3.423-1.407
		c0.476,0,0.952,0.053,1.428,0.158c0.476,0.105,0.903,0.305,1.281,0.598c0.378,0.295,0.686,0.711,0.924,1.25
		c0.238,0.539,0.357,1.25,0.357,2.131c0,0.463-0.042,0.975-0.126,1.533h-6.741c0,0.617,0.063,1.162,0.189,1.639
		s0.322,0.879,0.588,1.207c0.266,0.33,0.612,0.582,1.04,0.756c0.427,0.176,0.948,0.264,1.564,0.264c0.476,0,0.952-0.084,1.428-0.253
		c0.476-0.168,0.833-0.364,1.071-0.588L251.031,94.998z M247.418,86.557c-0.826,0-1.488,0.217-1.984,0.65
		c-0.497,0.435-0.795,1.176-0.893,2.227h5.208c0-1.064-0.203-1.81-0.609-2.236C248.734,86.77,248.161,86.557,247.418,86.557z"/>
	<path style="fill:#FFFFFF;" d="M260.143,86.809h-3.045c-0.042,0.588-0.084,1.221-0.126,1.9s-0.105,1.357-0.189,2.037
		c-0.084,0.68-0.196,1.33-0.336,1.953s-0.318,1.172-0.535,1.648c-0.217,0.477-0.483,0.857-0.798,1.145s-0.689,0.43-1.124,0.43
		c-0.266,0-0.497-0.014-0.693-0.041c-0.196-0.029-0.371-0.077-0.525-0.147l0.252-1.407c0.168,0.057,0.35,0.084,0.546,0.084
		c0.28,0,0.532-0.119,0.756-0.357c0.224-0.237,0.42-0.689,0.588-1.354c0.168-0.665,0.308-1.586,0.42-2.762
		c0.112-1.176,0.189-2.709,0.231-4.6h6.258v10.5h-1.68V86.809z"/>
	<path style="fill:#FFFFFF;" d="M272.728,94.998c-0.42,0.336-0.949,0.603-1.586,0.799c-0.637,0.195-1.313,0.293-2.026,0.293
		c-0.798,0-1.491-0.129-2.079-0.389c-0.588-0.258-1.071-0.629-1.449-1.112s-0.658-1.061-0.84-1.732
		c-0.182-0.672-0.273-1.429-0.273-2.269c0-1.791,0.399-3.156,1.197-4.095c0.798-0.938,1.939-1.407,3.423-1.407
		c0.476,0,0.952,0.053,1.428,0.158c0.476,0.105,0.903,0.305,1.281,0.598c0.378,0.295,0.686,0.711,0.924,1.25
		c0.238,0.539,0.357,1.25,0.357,2.131c0,0.463-0.042,0.975-0.126,1.533h-6.741c0,0.617,0.063,1.162,0.189,1.639
		s0.322,0.879,0.588,1.207c0.266,0.33,0.612,0.582,1.04,0.756c0.427,0.176,0.948,0.264,1.564,0.264c0.476,0,0.952-0.084,1.428-0.253
		c0.476-0.168,0.833-0.364,1.071-0.588L272.728,94.998z M269.116,86.557c-0.826,0-1.488,0.217-1.984,0.65
		c-0.497,0.435-0.795,1.176-0.893,2.227h5.208c0-1.064-0.203-1.81-0.609-2.236C270.432,86.77,269.858,86.557,269.116,86.557z"/>
	<path style="fill:#FFFFFF;" d="M278.318,91.113h-0.966v4.725h-1.68v-10.5h1.68v4.746l0.903-0.293l3.36-4.453h1.827l-3.255,4.222
		l-0.882,0.692l1.092,0.84l3.507,4.746h-2.079L278.318,91.113z"/>
	<path style="fill:#FFFFFF;" d="M285.649,86.115c0.532-0.322,1.151-0.56,1.858-0.714c0.707-0.153,1.445-0.231,2.215-0.231
		c0.728,0,1.313,0.099,1.753,0.295c0.441,0.195,0.777,0.451,1.008,0.766c0.231,0.315,0.385,0.662,0.462,1.04
		c0.077,0.378,0.115,0.756,0.115,1.134c0,0.84-0.021,1.659-0.063,2.457s-0.063,1.555-0.063,2.268c0,0.519,0.021,1.008,0.063,1.471
		c0.042,0.462,0.119,0.889,0.231,1.281h-1.239l-0.441-1.471h-0.105c-0.126,0.196-0.284,0.389-0.473,0.578
		c-0.189,0.188-0.417,0.356-0.683,0.504c-0.266,0.146-0.574,0.27-0.924,0.367c-0.35,0.098-0.749,0.146-1.197,0.146
		c-0.448,0-0.865-0.07-1.25-0.209c-0.385-0.141-0.718-0.34-0.998-0.6c-0.28-0.258-0.501-0.57-0.662-0.934
		c-0.161-0.364-0.242-0.777-0.242-1.239c0-0.616,0.126-1.13,0.378-1.544c0.252-0.412,0.605-0.742,1.061-0.986
		c0.455-0.245,1.001-0.42,1.638-0.525c0.637-0.105,1.34-0.157,2.11-0.157c0.196,0,0.389,0,0.578,0s0.381,0.015,0.578,0.042
		c0.042-0.42,0.063-0.799,0.063-1.135c0-0.77-0.154-1.309-0.462-1.616c-0.308-0.308-0.869-0.462-1.68-0.462
		c-0.238,0-0.494,0.018-0.767,0.054s-0.553,0.087-0.84,0.151c-0.287,0.064-0.56,0.145-0.819,0.238
		c-0.259,0.093-0.487,0.197-0.683,0.313L285.649,86.115z M288.631,94.537c0.392,0,0.742-0.053,1.05-0.158
		c0.308-0.105,0.574-0.238,0.798-0.398c0.224-0.161,0.41-0.34,0.557-0.536s0.255-0.385,0.326-0.567v-1.742
		c-0.196-0.014-0.396-0.025-0.599-0.031c-0.203-0.008-0.403-0.012-0.599-0.012c-0.434,0-0.857,0.025-1.271,0.074
		s-0.777,0.141-1.092,0.273s-0.567,0.314-0.756,0.545c-0.189,0.231-0.284,0.522-0.284,0.872c0,0.49,0.175,0.893,0.525,1.208
		C287.637,94.379,288.085,94.537,288.631,94.537z"/>
	<path style="fill:#FFFFFF;" d="M302.575,91.197h-4.746v4.641h-1.68v-10.5h1.68v4.39h4.746v-4.39h1.68v10.5h-1.68V91.197z"/>
	<path style="fill:#FFFFFF;" d="M307.258,86.115c0.532-0.322,1.151-0.56,1.858-0.714c0.707-0.153,1.445-0.231,2.215-0.231
		c0.728,0,1.313,0.099,1.753,0.295c0.441,0.195,0.777,0.451,1.008,0.766c0.231,0.315,0.385,0.662,0.462,1.04
		c0.077,0.378,0.115,0.756,0.115,1.134c0,0.84-0.021,1.659-0.063,2.457s-0.063,1.555-0.063,2.268c0,0.519,0.021,1.008,0.063,1.471
		c0.042,0.462,0.119,0.889,0.231,1.281H313.6l-0.441-1.471h-0.105c-0.126,0.196-0.284,0.389-0.473,0.578
		c-0.189,0.188-0.417,0.356-0.683,0.504c-0.266,0.146-0.574,0.27-0.924,0.367c-0.35,0.098-0.749,0.146-1.197,0.146
		c-0.448,0-0.865-0.07-1.25-0.209c-0.385-0.141-0.718-0.34-0.998-0.6c-0.28-0.258-0.501-0.57-0.662-0.934
		c-0.161-0.364-0.242-0.777-0.242-1.239c0-0.616,0.126-1.13,0.378-1.544c0.252-0.412,0.605-0.742,1.061-0.986
		c0.455-0.245,1.001-0.42,1.638-0.525c0.637-0.105,1.34-0.157,2.11-0.157c0.196,0,0.389,0,0.578,0s0.381,0.015,0.578,0.042
		c0.042-0.42,0.063-0.799,0.063-1.135c0-0.77-0.154-1.309-0.462-1.616c-0.308-0.308-0.869-0.462-1.68-0.462
		c-0.238,0-0.494,0.018-0.767,0.054s-0.553,0.087-0.84,0.151c-0.287,0.064-0.56,0.145-0.819,0.238
		c-0.259,0.093-0.487,0.197-0.683,0.313L307.258,86.115z M310.24,94.537c0.392,0,0.742-0.053,1.05-0.158
		c0.308-0.105,0.574-0.238,0.798-0.398c0.224-0.161,0.41-0.34,0.557-0.536s0.255-0.385,0.326-0.567v-1.742
		c-0.196-0.014-0.396-0.025-0.599-0.031c-0.203-0.008-0.403-0.012-0.599-0.012c-0.434,0-0.857,0.025-1.271,0.074
		s-0.777,0.141-1.092,0.273s-0.567,0.314-0.756,0.545c-0.189,0.231-0.284,0.522-0.284,0.872c0,0.49,0.175,0.893,0.525,1.208
		C309.246,94.379,309.693,94.537,310.24,94.537z"/>
	<path style="fill:#FFFFFF;" d="M323.96,86.809h-3.045c-0.042,0.588-0.084,1.221-0.126,1.9s-0.105,1.357-0.189,2.037
		c-0.084,0.68-0.196,1.33-0.336,1.953s-0.318,1.172-0.535,1.648c-0.217,0.477-0.483,0.857-0.798,1.145s-0.689,0.43-1.124,0.43
		c-0.266,0-0.497-0.014-0.693-0.041c-0.196-0.029-0.371-0.077-0.525-0.147l0.252-1.407c0.168,0.057,0.35,0.084,0.546,0.084
		c0.28,0,0.532-0.119,0.756-0.357c0.224-0.237,0.42-0.689,0.588-1.354c0.168-0.665,0.308-1.586,0.42-2.762
		c0.112-1.176,0.189-2.709,0.231-4.6h6.258v10.5h-1.68V86.809z"/>
	<path style="fill:#FFFFFF;" d="M336.546,94.998c-0.42,0.336-0.949,0.603-1.586,0.799c-0.637,0.195-1.313,0.293-2.026,0.293
		c-0.798,0-1.491-0.129-2.079-0.389c-0.588-0.258-1.071-0.629-1.449-1.112s-0.658-1.061-0.84-1.732
		c-0.182-0.672-0.273-1.429-0.273-2.269c0-1.791,0.399-3.156,1.197-4.095c0.798-0.938,1.939-1.407,3.423-1.407
		c0.476,0,0.952,0.053,1.428,0.158c0.476,0.105,0.903,0.305,1.281,0.598c0.378,0.295,0.686,0.711,0.924,1.25
		c0.238,0.539,0.357,1.25,0.357,2.131c0,0.463-0.042,0.975-0.126,1.533h-6.741c0,0.617,0.063,1.162,0.189,1.639
		s0.322,0.879,0.588,1.207c0.266,0.33,0.612,0.582,1.04,0.756c0.427,0.176,0.948,0.264,1.564,0.264c0.476,0,0.952-0.084,1.428-0.253
		c0.476-0.168,0.833-0.364,1.071-0.588L336.546,94.998z M332.934,86.557c-0.826,0-1.488,0.217-1.984,0.65
		c-0.497,0.435-0.795,1.176-0.893,2.227h5.208c0-1.064-0.203-1.81-0.609-2.236C334.25,86.77,333.676,86.557,332.934,86.557z"/>
	<path style="fill:#FFFFFF;" d="M353.766,81.139h1.68v9.807c0,0.882-0.116,1.646-0.347,2.289c-0.231,0.645-0.56,1.173-0.987,1.586
		c-0.427,0.412-0.942,0.717-1.544,0.913s-1.267,0.294-1.995,0.294c-1.736,0-3.045-0.392-3.927-1.176
		c-0.882-0.784-1.323-1.975-1.323-3.57V81.139h1.743v9.324c0,0.742,0.074,1.368,0.221,1.879c0.147,0.512,0.368,0.924,0.662,1.239
		s0.661,0.542,1.103,0.683c0.441,0.14,0.955,0.209,1.543,0.209c1.134,0,1.946-0.311,2.436-0.934c0.49-0.623,0.735-1.648,0.735-3.076
		V81.139z"/>
	<path style="fill:#FFFFFF;" d="M368.541,82.692h-4.578v13.146h-1.743V82.692h-4.578v-1.554h10.899V82.692z"/>
	<path style="fill:#FFFFFF;" d="M375.475,91.239l0.504,2.226H376l0.546-2.268l3.549-10.059h1.743l-5.565,14.931h-0.777l-5.67-14.931
		h1.911L375.475,91.239z"/>
</g>
<g>
	<path style="fill:#FFFFFF;" d="M52.683,32.631c-4.741,0-8.178,2.252-8.178,8.061c-6.994,0-11.142,0-18.017,0
		c-0.237-17.898,11.853-26.67,26.551-27.025c23.825-0.592,34.255,22.995,21.928,42.078L58.254,78.977h24.654
		c0,7.23,0,11.734,0,18.965H24.592v-3.2l31.173-45.634C59.914,43.536,63.114,32.631,52.683,32.631z"/>
</g>
</svg>
