<?xml version="1.0" encoding="utf-8"?>
<!-- Generator: Adobe Illustrator 14.0.0, SVG Export Plug-In . SVG Version: 6.00 Build 43363)  -->
<!DOCTYPE svg PUBLIC "-//W3C//DTD SVG 1.1//EN" "http://www.w3.org/Graphics/SVG/1.1/DTD/svg11.dtd">
<svg version="1.1" id="Layer_1" xmlns="http://www.w3.org/2000/svg" xmlns:xlink="http://www.w3.org/1999/xlink" x="0px" y="0px"
	 width="464px" height="112px" viewBox="-84.79 477.945 464 112" enable-background="new -84.79 477.945 464 112"
	 xml:space="preserve">
<polygon fill="#E50647" points="378.977,556.705 -84.358,556.705 -84.557,512.645 378.777,512.645 "/>
<polygon fill="#E50647" points="268.143,521.137 -84.406,521.137 -84.557,477.945 267.991,477.945 "/>
<polygon fill="#E50647" points="193.432,589.232 -84.438,589.232 -84.557,517.417 193.312,517.417 "/>
<g>
	<path fill="#FFFFFF" d="M-31.874,510.576c-4.741,0-8.179,2.252-8.179,8.061c-6.993,0-11.143,0-18.018,0
		c-0.236-17.898,11.854-26.67,26.552-27.025c23.824-0.592,34.255,22.995,21.928,42.078l-16.712,23.231h24.654
		c0,7.23,0,11.734,0,18.965h-58.316v-3.198l31.174-45.634C-24.643,521.481-21.444,510.576-31.874,510.576z"/>
</g>
<g>
	<path fill="#FFFFFF" d="M27.751,509.348c-0.44,0.338-0.998,0.572-1.672,0.704c-0.675,0.132-1.394,0.198-2.156,0.198
		c-0.924,0-1.79-0.158-2.596-0.473s-1.511-0.795-2.112-1.441c-0.602-0.646-1.078-1.47-1.43-2.475
		c-0.352-1.004-0.528-2.196-0.528-3.575c0-1.437,0.194-2.658,0.583-3.663c0.389-1.005,0.902-1.826,1.54-2.464
		c0.638-0.638,1.353-1.104,2.145-1.397c0.792-0.293,1.599-0.44,2.42-0.44c0.88,0,1.599,0.048,2.156,0.143
		c0.557,0.096,1.034,0.224,1.43,0.385l-0.44,1.628c-0.704-0.352-1.708-0.528-3.014-0.528c-0.602,0-1.195,0.11-1.782,0.33
		c-0.587,0.22-1.111,0.58-1.573,1.078c-0.462,0.499-0.833,1.151-1.111,1.958c-0.279,0.807-0.418,1.797-0.418,2.97
		c0,1.056,0.132,1.98,0.396,2.772s0.627,1.452,1.089,1.98c0.462,0.528,1.004,0.924,1.628,1.188c0.624,0.264,1.302,0.396,2.035,0.396
		c0.66,0,1.235-0.066,1.727-0.198c0.491-0.132,0.905-0.3,1.243-0.506L27.751,509.348z"/>
	<path fill="#FFFFFF" d="M31.426,503.188c0.352-0.059,0.685-0.099,1.001-0.121c0.315-0.022,0.619-0.033,0.913-0.033
		c0.762,0,1.408,0.084,1.936,0.253c0.528,0.169,0.957,0.4,1.287,0.693s0.568,0.642,0.715,1.045c0.146,0.403,0.22,0.833,0.22,1.287
		c0,1.334-0.4,2.303-1.199,2.904c-0.8,0.602-2.043,0.902-3.729,0.902c-0.484,0-0.961-0.011-1.43-0.033
		c-0.47-0.022-0.961-0.055-1.474-0.099v-9.46h-2.42v-1.54h4.18V503.188z M31.426,508.446c0.572,0.088,1.085,0.132,1.54,0.132
		c0.924,0,1.606-0.179,2.046-0.539s0.66-0.869,0.66-1.529c0-0.586-0.213-1.07-0.638-1.452c-0.426-0.381-1.093-0.572-2.002-0.572
		c-0.25,0-0.514,0.007-0.792,0.022c-0.279,0.015-0.55,0.059-0.814,0.132V508.446z"/>
	<path fill="#FFFFFF" d="M47.639,509.106c-0.44,0.352-0.994,0.631-1.661,0.836c-0.667,0.205-1.375,0.308-2.123,0.308
		c-0.836,0-1.562-0.136-2.178-0.407c-0.616-0.271-1.122-0.66-1.518-1.166s-0.69-1.111-0.88-1.815s-0.286-1.496-0.286-2.376
		c0-1.877,0.418-3.307,1.254-4.29c0.836-0.982,2.031-1.474,3.586-1.474c0.499,0,0.997,0.055,1.496,0.165
		c0.499,0.11,0.946,0.319,1.342,0.627c0.396,0.308,0.719,0.745,0.968,1.309c0.249,0.565,0.374,1.309,0.374,2.233
		c0,0.484-0.044,1.02-0.132,1.606h-7.062c0,0.646,0.066,1.218,0.198,1.716s0.337,0.92,0.616,1.265
		c0.279,0.345,0.642,0.608,1.089,0.792c0.447,0.183,0.993,0.275,1.639,0.275c0.499,0,0.998-0.088,1.496-0.264
		c0.499-0.176,0.873-0.381,1.122-0.616L47.639,509.106z M43.855,500.262c-0.866,0-1.559,0.228-2.079,0.682s-0.833,1.232-0.935,2.332
		h5.456c0-1.114-0.212-1.896-0.638-2.343C45.234,500.486,44.633,500.262,43.855,500.262z"/>
	<path fill="#FFFFFF" d="M59.871,503.452l0.132-2.09h-0.11l-0.792,1.694l-2.662,4.312h-0.616l-2.772-4.312l-0.726-1.694h-0.088
		l0.176,2.068v6.556h-1.628v-11h1.738l3.08,4.928l0.638,1.276h0.044l0.66-1.32l2.882-4.884h1.76v11h-1.716V503.452z"/>
	<path fill="#FFFFFF" d="M67.747,505.036h-1.012v4.95h-1.76v-11h1.76v4.972l0.946-0.308l3.52-4.664h1.914l-3.41,4.422l-0.924,0.726
		l1.144,0.88l3.674,4.972h-2.178L67.747,505.036z"/>
	<path fill="#FFFFFF" d="M82.355,503.474l0.066-1.364h-0.066l-0.902,1.408l-4.95,6.468h-1.012v-11h1.76v6.71l-0.066,1.298h0.088
		l0.858-1.364l4.95-6.644h1.034v11h-1.76V503.474z"/>
	<path fill="#FFFFFF" d="M96.62,506.114l0.619,2.112h0.11l0.485-2.134l2.142-7.106h1.76l-3.256,9.878
		c-0.25,0.719-0.495,1.416-0.737,2.09c-0.242,0.675-0.51,1.276-0.803,1.804s-0.624,0.95-0.99,1.265
		c-0.367,0.315-0.792,0.473-1.276,0.473c-0.528,0-0.961-0.073-1.298-0.22l0.308-1.518c0.19,0.073,0.374,0.11,0.55,0.11
		c0.411,0,0.807-0.216,1.188-0.649c0.381-0.433,0.696-1.177,0.946-2.233l-4.422-11h2.024L96.62,506.114z"/>
	<path fill="#FFFFFF" d="M104.772,498.986v2.992c0,0.396,0.022,0.751,0.066,1.067c0.044,0.315,0.132,0.587,0.264,0.814
		c0.132,0.228,0.322,0.403,0.572,0.528c0.249,0.125,0.579,0.187,0.99,0.187c0.66,0,1.203-0.073,1.628-0.22s0.748-0.308,0.968-0.484
		v-4.884h1.76v11h-1.76v-4.62c-0.235,0.147-0.583,0.308-1.045,0.484c-0.462,0.176-1.096,0.264-1.903,0.264
		c-0.542,0-1.02-0.059-1.43-0.176c-0.411-0.117-0.756-0.323-1.034-0.616c-0.279-0.293-0.488-0.682-0.627-1.166
		c-0.14-0.484-0.209-1.092-0.209-1.826v-3.344H104.772z"/>
	<path fill="#FFFFFF" d="M122.438,509.106c-0.439,0.352-0.994,0.631-1.661,0.836c-0.667,0.205-1.375,0.308-2.123,0.308
		c-0.836,0-1.562-0.136-2.178-0.407c-0.616-0.271-1.122-0.66-1.518-1.166s-0.69-1.111-0.88-1.815s-0.286-1.496-0.286-2.376
		c0-1.877,0.418-3.307,1.254-4.29c0.836-0.982,2.031-1.474,3.586-1.474c0.499,0,0.997,0.055,1.496,0.165
		c0.499,0.11,0.946,0.319,1.341,0.627c0.396,0.308,0.719,0.745,0.969,1.309c0.249,0.565,0.374,1.309,0.374,2.233
		c0,0.484-0.044,1.02-0.132,1.606h-7.063c0,0.646,0.066,1.218,0.198,1.716s0.337,0.92,0.616,1.265
		c0.279,0.345,0.642,0.608,1.089,0.792c0.447,0.183,0.993,0.275,1.639,0.275c0.499,0,0.998-0.088,1.496-0.264
		c0.499-0.176,0.872-0.381,1.122-0.616L122.438,509.106z M118.654,500.262c-0.866,0-1.559,0.228-2.079,0.682
		s-0.833,1.232-0.935,2.332h5.457c0-1.114-0.213-1.896-0.638-2.343C120.032,500.486,119.431,500.262,118.654,500.262z"/>
	<path fill="#FFFFFF" d="M132.315,505.125h-4.971v4.862h-1.761v-11h1.761v4.598h4.971v-4.598h1.761v11h-1.761V505.125z"/>
	<path fill="#FFFFFF" d="M144.327,503.474l0.066-1.364h-0.066l-0.9,1.408l-4.951,6.468h-1.012v-11h1.76v6.71l-0.065,1.298h0.088
		l0.858-1.364l4.949-6.644h1.035v11h-1.762V503.474z"/>
	<path fill="#FFFFFF" d="M152.247,505.036h-1.012v4.95h-1.76v-11h1.76v4.972l0.947-0.308l3.52-4.664h1.914l-3.41,4.422l-0.924,0.726
		l1.143,0.88l3.676,4.972h-2.18L152.247,505.036z"/>
	<path fill="#FFFFFF" d="M159.134,504.486c0-1.862,0.414-3.289,1.244-4.279c0.828-0.99,2.02-1.485,3.574-1.485
		c0.82,0,1.537,0.136,2.145,0.407c0.609,0.271,1.111,0.66,1.508,1.166s0.689,1.115,0.879,1.826c0.191,0.712,0.287,1.5,0.287,2.365
		c0,1.863-0.414,3.289-1.244,4.279c-0.828,0.99-2.02,1.485-3.574,1.485c-0.822,0-1.537-0.136-2.145-0.407
		c-0.609-0.271-1.111-0.66-1.508-1.166s-0.689-1.114-0.879-1.826C159.229,506.14,159.134,505.352,159.134,504.486z M160.96,504.486
		c0,0.558,0.055,1.093,0.166,1.606c0.109,0.514,0.281,0.961,0.516,1.342s0.543,0.689,0.924,0.924
		c0.383,0.235,0.844,0.352,1.387,0.352c1.994,0.015,2.992-1.394,2.992-4.224c0-0.572-0.055-1.114-0.166-1.628
		c-0.109-0.513-0.281-0.96-0.516-1.342c-0.234-0.381-0.543-0.685-0.924-0.913c-0.383-0.228-0.844-0.341-1.387-0.341
		C161.958,500.248,160.96,501.656,160.96,504.486z"/>
	<path fill="#FFFFFF" d="M171.542,499.008c0.514-0.029,1.053-0.066,1.617-0.11s1.266-0.066,2.102-0.066
		c1.451,0,2.492,0.224,3.123,0.671s0.947,1.125,0.947,2.035c0,0.514-0.152,1.016-0.451,1.507c-0.301,0.492-0.797,0.854-1.486,1.089
		v0.088c0.865,0.162,1.475,0.462,1.826,0.902s0.529,1.026,0.529,1.76c0,1.144-0.412,1.973-1.232,2.486
		c-0.822,0.514-2.055,0.77-3.697,0.77c-0.615,0-1.188-0.019-1.715-0.055c-0.529-0.037-1.049-0.077-1.563-0.121V499.008z
		 M175.458,503.628c0.264,0,0.521-0.044,0.77-0.132c0.25-0.088,0.473-0.209,0.672-0.363c0.197-0.154,0.359-0.333,0.484-0.539
		c0.123-0.205,0.186-0.425,0.186-0.66c0-0.587-0.176-0.994-0.527-1.221c-0.352-0.227-0.969-0.341-1.848-0.341
		c-0.471,0-0.84,0.007-1.111,0.022s-0.531,0.029-0.781,0.044v3.19H175.458z M173.302,508.512c0.279,0.03,0.555,0.052,0.826,0.066
		c0.27,0.015,0.59,0.022,0.957,0.022c0.982,0,1.711-0.139,2.188-0.418c0.477-0.278,0.715-0.755,0.715-1.43
		c0-0.528-0.201-0.957-0.604-1.287c-0.404-0.33-1.119-0.495-2.146-0.495h-1.936V508.512z"/>
	<path fill="#FFFFFF" d="M198.272,512.78h-1.189l-0.33-2.794h-8.359v-11h1.76v9.46h4.773v-9.46h1.762v9.46h1.584V512.78z"/>
	<path fill="#FFFFFF" d="M208.479,509.106c-0.439,0.352-0.994,0.631-1.66,0.836c-0.668,0.205-1.375,0.308-2.123,0.308
		c-0.838,0-1.563-0.136-2.18-0.407c-0.615-0.271-1.121-0.66-1.518-1.166s-0.689-1.111-0.879-1.815
		c-0.191-0.704-0.287-1.496-0.287-2.376c0-1.877,0.418-3.307,1.254-4.29c0.836-0.982,2.031-1.474,3.586-1.474
		c0.498,0,0.998,0.055,1.496,0.165c0.498,0.11,0.947,0.319,1.342,0.627c0.396,0.308,0.719,0.745,0.969,1.309
		c0.25,0.565,0.373,1.309,0.373,2.233c0,0.484-0.043,1.02-0.131,1.606h-7.063c0,0.646,0.066,1.218,0.197,1.716
		c0.133,0.499,0.338,0.92,0.617,1.265c0.277,0.345,0.641,0.608,1.088,0.792c0.447,0.183,0.994,0.275,1.641,0.275
		c0.498,0,0.996-0.088,1.496-0.264c0.498-0.176,0.871-0.381,1.121-0.616L208.479,509.106z M204.696,500.262
		c-0.867,0-1.559,0.228-2.08,0.682s-0.832,1.232-0.936,2.332h5.457c0-1.114-0.213-1.896-0.639-2.343
		C206.073,500.486,205.471,500.262,204.696,500.262z"/>
	<path fill="#FFFFFF" d="M218.356,505.125h-4.971v4.862h-1.76v-11h1.76v4.598h4.971v-4.598h1.76v11h-1.76V505.125z"/>
	<path fill="#FFFFFF" d="M230.522,500.526h-3.453v9.46h-1.76v-9.46h-3.455v-1.54h8.668V500.526z"/>
	<path fill="#FFFFFF" d="M232.26,498.986h1.211l0.33,1.32h0.088c0.336-0.513,0.773-0.905,1.309-1.177s1.146-0.407,1.836-0.407
		c1.467,0,2.561,0.433,3.279,1.298s1.078,2.281,1.078,4.246c0,0.924-0.121,1.757-0.363,2.497c-0.242,0.741-0.584,1.368-1.023,1.881
		s-0.973,0.909-1.596,1.188c-0.623,0.278-1.316,0.418-2.078,0.418c-0.543,0-0.973-0.033-1.287-0.099
		c-0.316-0.066-0.656-0.18-1.023-0.341v4.576h-1.76V498.986z M236.704,500.262c-0.748,0-1.338,0.195-1.77,0.583
		c-0.434,0.389-0.738,0.979-0.914,1.771v5.456c0.264,0.206,0.564,0.363,0.902,0.473s0.785,0.165,1.342,0.165
		c1.012,0,1.814-0.377,2.41-1.133c0.594-0.755,0.891-1.866,0.891-3.333c0-0.601-0.053-1.147-0.154-1.639
		c-0.104-0.491-0.268-0.909-0.496-1.254c-0.227-0.345-0.52-0.612-0.879-0.803C237.677,500.358,237.233,500.262,236.704,500.262z"/>
	<path fill="#FFFFFF" d="M243.987,499.8c0.557-0.337,1.207-0.586,1.947-0.748c0.74-0.161,1.514-0.242,2.32-0.242
		c0.764,0,1.375,0.103,1.838,0.308c0.461,0.206,0.813,0.473,1.055,0.803s0.404,0.693,0.484,1.089s0.121,0.792,0.121,1.188
		c0,0.88-0.021,1.738-0.066,2.574c-0.043,0.836-0.064,1.628-0.064,2.376c0,0.542,0.021,1.056,0.064,1.54
		c0.045,0.484,0.125,0.932,0.242,1.342h-1.297l-0.463-1.54h-0.109c-0.133,0.206-0.297,0.407-0.496,0.605
		c-0.197,0.198-0.436,0.374-0.715,0.528c-0.277,0.154-0.602,0.282-0.967,0.385c-0.367,0.103-0.785,0.154-1.254,0.154
		c-0.471,0-0.906-0.073-1.311-0.22c-0.402-0.146-0.75-0.355-1.045-0.627c-0.293-0.271-0.523-0.598-0.691-0.979
		c-0.17-0.381-0.254-0.814-0.254-1.298c0-0.645,0.133-1.184,0.396-1.617s0.635-0.777,1.111-1.034c0.477-0.256,1.047-0.44,1.715-0.55
		s1.404-0.165,2.211-0.165c0.205,0,0.408,0,0.605,0s0.4,0.015,0.605,0.044c0.043-0.44,0.066-0.836,0.066-1.188
		c0-0.807-0.162-1.371-0.484-1.694c-0.324-0.323-0.91-0.484-1.76-0.484c-0.25,0-0.518,0.019-0.803,0.057
		c-0.287,0.038-0.58,0.09-0.881,0.158c-0.301,0.068-0.586,0.151-0.857,0.249s-0.51,0.207-0.715,0.328L243.987,499.8z
		 M247.11,508.623c0.412,0,0.777-0.055,1.102-0.165c0.322-0.11,0.6-0.25,0.836-0.418c0.234-0.168,0.428-0.355,0.582-0.561
		s0.268-0.403,0.342-0.594v-1.826c-0.205-0.014-0.414-0.025-0.627-0.033s-0.422-0.011-0.627-0.011c-0.455,0-0.898,0.026-1.332,0.077
		c-0.432,0.052-0.814,0.147-1.143,0.286c-0.33,0.14-0.596,0.33-0.793,0.572c-0.197,0.242-0.297,0.547-0.297,0.913
		c0,0.514,0.184,0.935,0.551,1.265C246.069,508.458,246.54,508.623,247.11,508.623z"/>
	<path fill="#FFFFFF" d="M17.719,531.008c0.513-0.029,1.052-0.065,1.617-0.109c0.564-0.044,1.265-0.066,2.101-0.066
		c1.452,0,2.493,0.225,3.124,0.672c0.63,0.447,0.946,1.125,0.946,2.034c0,0.514-0.15,1.017-0.451,1.507
		c-0.301,0.492-0.795,0.855-1.485,1.09v0.088c0.865,0.161,1.474,0.462,1.826,0.902c0.352,0.439,0.528,1.025,0.528,1.76
		c0,1.144-0.411,1.973-1.232,2.485c-0.821,0.514-2.054,0.771-3.696,0.771c-0.616,0-1.188-0.02-1.716-0.055
		c-0.528-0.037-1.049-0.078-1.562-0.121V531.008z M21.635,535.629c0.264,0,0.521-0.045,0.77-0.133s0.473-0.209,0.671-0.363
		c0.198-0.153,0.359-0.333,0.484-0.539c0.125-0.205,0.187-0.425,0.187-0.659c0-0.587-0.176-0.993-0.528-1.222
		c-0.352-0.227-0.968-0.34-1.848-0.34c-0.47,0-0.84,0.007-1.111,0.021s-0.532,0.029-0.781,0.044v3.19H21.635z M19.479,540.512
		c0.278,0.03,0.553,0.053,0.825,0.066c0.271,0.016,0.59,0.021,0.957,0.021c0.982,0,1.712-0.139,2.189-0.418
		c0.477-0.277,0.715-0.754,0.715-1.43c0-0.527-0.202-0.957-0.605-1.287c-0.404-0.33-1.119-0.494-2.145-0.494h-1.936V540.512z"/>
	<path fill="#FFFFFF" d="M41.193,532.526h-4.862v9.46h-1.76v-11h8.382v11h-1.76V532.526z"/>
	<path fill="#FFFFFF" d="M54.371,541.106c-0.44,0.353-0.994,0.631-1.661,0.836c-0.667,0.205-1.375,0.308-2.123,0.308
		c-0.836,0-1.562-0.135-2.178-0.406c-0.616-0.271-1.122-0.66-1.518-1.166s-0.69-1.111-0.88-1.815s-0.286-1.496-0.286-2.376
		c0-1.877,0.418-3.307,1.254-4.29c0.836-0.982,2.031-1.474,3.586-1.474c0.499,0,0.997,0.055,1.496,0.164
		c0.499,0.111,0.946,0.32,1.342,0.627c0.396,0.309,0.719,0.745,0.968,1.31c0.249,0.565,0.374,1.31,0.374,2.233
		c0,0.484-0.044,1.02-0.132,1.605h-7.062c0,0.646,0.066,1.218,0.198,1.717c0.132,0.498,0.337,0.92,0.616,1.265
		c0.279,0.345,0.642,0.608,1.089,0.792c0.447,0.184,0.993,0.275,1.639,0.275c0.499,0,0.998-0.088,1.496-0.265
		c0.499-0.176,0.873-0.382,1.122-0.616L54.371,541.106z M50.587,532.262c-0.866,0-1.559,0.229-2.079,0.683s-0.833,1.231-0.935,2.332
		h5.456c0-1.114-0.212-1.896-0.638-2.343C51.965,532.486,51.364,532.262,50.587,532.262z"/>
	<path fill="#FFFFFF" d="M57.516,530.986h1.21l0.33,1.32h0.088c0.337-0.514,0.773-0.906,1.309-1.178
		c0.535-0.271,1.147-0.406,1.837-0.406c1.467,0,2.56,0.433,3.278,1.298c0.718,0.865,1.078,2.28,1.078,4.245
		c0,0.925-0.121,1.758-0.363,2.498c-0.242,0.74-0.583,1.367-1.023,1.881s-0.972,0.909-1.595,1.188
		c-0.624,0.279-1.316,0.418-2.079,0.418c-0.543,0-0.972-0.033-1.287-0.099c-0.315-0.065-0.657-0.18-1.023-0.341v4.576h-1.76V530.986
		z M61.961,532.262c-0.748,0-1.339,0.195-1.771,0.584c-0.433,0.389-0.737,0.979-0.913,1.771v5.456
		c0.264,0.205,0.564,0.363,0.902,0.473c0.337,0.11,0.785,0.166,1.342,0.166c1.012,0,1.815-0.378,2.409-1.134
		c0.594-0.755,0.891-1.866,0.891-3.333c0-0.602-0.052-1.147-0.154-1.639c-0.103-0.491-0.268-0.909-0.495-1.254
		c-0.228-0.345-0.521-0.612-0.88-0.803C62.932,532.357,62.489,532.262,61.961,532.262z"/>
	<path fill="#FFFFFF" d="M77.448,541.106c-0.44,0.353-0.994,0.631-1.661,0.836c-0.667,0.205-1.375,0.308-2.123,0.308
		c-0.836,0-1.562-0.135-2.178-0.406c-0.616-0.271-1.122-0.66-1.518-1.166s-0.69-1.111-0.88-1.815s-0.286-1.496-0.286-2.376
		c0-1.877,0.418-3.307,1.254-4.29c0.836-0.982,2.031-1.474,3.586-1.474c0.499,0,0.997,0.055,1.496,0.164
		c0.499,0.111,0.946,0.32,1.342,0.627c0.396,0.309,0.719,0.745,0.968,1.31c0.249,0.565,0.374,1.31,0.374,2.233
		c0,0.484-0.044,1.02-0.132,1.605h-7.062c0,0.646,0.066,1.218,0.198,1.717c0.132,0.498,0.337,0.92,0.616,1.265
		c0.279,0.345,0.642,0.608,1.089,0.792c0.447,0.184,0.993,0.275,1.639,0.275c0.499,0,0.998-0.088,1.496-0.265
		c0.499-0.176,0.873-0.382,1.122-0.616L77.448,541.106z M73.664,532.262c-0.866,0-1.559,0.229-2.079,0.683s-0.833,1.231-0.935,2.332
		h5.456c0-1.114-0.212-1.896-0.638-2.343C75.043,532.486,74.442,532.262,73.664,532.262z"/>
	<path fill="#FFFFFF" d="M89.834,544.78h-1.188l-0.33-2.794h-8.272l-0.33,2.794h-1.188v-4.334h1.298
		c0.117-0.161,0.271-0.451,0.462-0.869c0.19-0.418,0.377-1.005,0.561-1.76c0.183-0.755,0.344-1.694,0.484-2.815
		c0.139-1.123,0.224-2.461,0.253-4.016h6.644v9.46h1.606V544.78z M86.468,540.446v-7.92h-3.3c-0.029,0.616-0.081,1.287-0.154,2.013
		c-0.074,0.727-0.173,1.452-0.297,2.178c-0.125,0.727-0.282,1.412-0.473,2.058c-0.191,0.646-0.411,1.202-0.66,1.672H86.468z"/>
	<path fill="#FFFFFF" d="M91.836,531.801c0.557-0.338,1.206-0.587,1.947-0.748c0.741-0.162,1.514-0.242,2.321-0.242
		c0.762,0,1.375,0.103,1.837,0.308c0.462,0.206,0.814,0.474,1.056,0.804c0.242,0.33,0.403,0.692,0.484,1.088
		c0.081,0.396,0.121,0.793,0.121,1.188c0,0.88-0.022,1.738-0.066,2.574c-0.044,0.836-0.066,1.628-0.066,2.376
		c0,0.543,0.022,1.056,0.066,1.54c0.044,0.483,0.125,0.932,0.242,1.342H98.48l-0.462-1.54h-0.11
		c-0.132,0.205-0.297,0.407-0.495,0.605c-0.198,0.197-0.437,0.373-0.715,0.527c-0.279,0.154-0.602,0.283-0.968,0.385
		c-0.367,0.104-0.785,0.154-1.254,0.154c-0.47,0-0.906-0.073-1.309-0.22c-0.404-0.146-0.752-0.355-1.045-0.627
		c-0.294-0.271-0.525-0.598-0.693-0.979c-0.168-0.381-0.253-0.813-0.253-1.298c0-0.646,0.132-1.185,0.396-1.616
		c0.264-0.434,0.634-0.777,1.111-1.035c0.476-0.256,1.048-0.439,1.716-0.549c0.667-0.11,1.404-0.166,2.211-0.166
		c0.205,0,0.407,0,0.605,0c0.198,0,0.399,0.016,0.605,0.045c0.044-0.44,0.066-0.836,0.066-1.188c0-0.807-0.162-1.371-0.484-1.694
		c-0.323-0.322-0.91-0.484-1.76-0.484c-0.25,0-0.517,0.02-0.803,0.058s-0.58,0.091-0.88,0.158c-0.301,0.068-0.587,0.151-0.858,0.249
		c-0.272,0.098-0.51,0.207-0.715,0.328L91.836,531.801z M94.96,540.623c0.41,0,0.777-0.056,1.1-0.166
		c0.322-0.109,0.601-0.249,0.836-0.418c0.234-0.168,0.429-0.355,0.583-0.561c0.154-0.205,0.267-0.403,0.341-0.594v-1.826
		c-0.206-0.015-0.415-0.025-0.627-0.033c-0.213-0.008-0.422-0.012-0.627-0.012c-0.455,0-0.898,0.026-1.331,0.078
		c-0.433,0.051-0.814,0.146-1.144,0.285c-0.33,0.141-0.594,0.33-0.792,0.572c-0.198,0.242-0.297,0.547-0.297,0.913
		c0,0.514,0.183,0.935,0.55,1.265S94.388,540.623,94.96,540.623z"/>
	<path fill="#FFFFFF" d="M104.068,530.986v2.992c0,0.396,0.022,0.752,0.066,1.066c0.044,0.316,0.132,0.588,0.264,0.814
		c0.132,0.228,0.322,0.403,0.572,0.527c0.249,0.125,0.579,0.188,0.99,0.188c0.66,0,1.203-0.073,1.628-0.22s0.748-0.308,0.968-0.484
		v-4.884h1.76v11h-1.76v-4.62c-0.235,0.147-0.583,0.308-1.045,0.483c-0.462,0.177-1.096,0.265-1.903,0.265
		c-0.542,0-1.02-0.059-1.43-0.176c-0.411-0.117-0.756-0.323-1.034-0.616c-0.279-0.293-0.488-0.682-0.627-1.166
		c-0.14-0.484-0.209-1.092-0.209-1.826v-3.344H104.068z"/>
	<path fill="#FFFFFF" d="M121.733,541.106c-0.439,0.353-0.994,0.631-1.661,0.836c-0.667,0.205-1.375,0.308-2.123,0.308
		c-0.836,0-1.562-0.135-2.178-0.406c-0.616-0.271-1.122-0.66-1.518-1.166s-0.69-1.111-0.88-1.815s-0.286-1.496-0.286-2.376
		c0-1.877,0.418-3.307,1.254-4.29c0.836-0.982,2.031-1.474,3.586-1.474c0.499,0,0.997,0.055,1.496,0.164
		c0.499,0.111,0.946,0.32,1.342,0.627c0.396,0.309,0.719,0.745,0.968,1.31c0.25,0.565,0.375,1.31,0.375,2.233
		c0,0.484-0.045,1.02-0.133,1.605h-7.062c0,0.646,0.066,1.218,0.198,1.717c0.132,0.498,0.337,0.92,0.616,1.265
		c0.279,0.345,0.642,0.608,1.089,0.792c0.447,0.184,0.993,0.275,1.639,0.275c0.499,0,0.998-0.088,1.496-0.265
		c0.499-0.176,0.873-0.382,1.122-0.616L121.733,541.106z M117.949,532.262c-0.866,0-1.559,0.229-2.079,0.683
		s-0.833,1.231-0.935,2.332h5.456c0-1.114-0.212-1.896-0.638-2.343C119.328,532.486,118.727,532.262,117.949,532.262z"/>
	<path fill="#FFFFFF" d="M129.917,536.277l3.521-5.049l1.188,0.943l-2.156,3.184l-1.057,0.9l1.057,0.793l2.288,3.131l-1.188,0.971
		L129.917,536.277z M133.943,536.277l3.476-5.005l1.166,0.922l-2.133,3.161l-1.057,0.9l1.057,0.793l2.266,3.109l-1.145,0.948
		L133.943,536.277z"/>
	<path fill="#FFFFFF" d="M151.389,528.214h-4.797v13.772h-1.824v-13.772h-4.797v-1.628h11.418V528.214z"/>
	<path fill="#FFFFFF" d="M150.884,531.801c0.557-0.338,1.207-0.587,1.947-0.748c0.74-0.162,1.514-0.242,2.32-0.242
		c0.764,0,1.375,0.103,1.838,0.308c0.461,0.206,0.813,0.474,1.055,0.804s0.404,0.692,0.484,1.088
		c0.08,0.396,0.121,0.793,0.121,1.188c0,0.88-0.021,1.738-0.066,2.574c-0.043,0.836-0.064,1.628-0.064,2.376
		c0,0.543,0.021,1.056,0.064,1.54c0.045,0.483,0.125,0.932,0.242,1.342h-1.297l-0.463-1.54h-0.109
		c-0.133,0.205-0.297,0.407-0.496,0.605c-0.197,0.197-0.436,0.373-0.715,0.527c-0.277,0.154-0.602,0.283-0.967,0.385
		c-0.367,0.104-0.785,0.154-1.254,0.154c-0.471,0-0.906-0.073-1.311-0.22c-0.402-0.146-0.75-0.355-1.045-0.627
		c-0.293-0.271-0.523-0.598-0.691-0.979c-0.17-0.381-0.254-0.813-0.254-1.298c0-0.646,0.133-1.185,0.396-1.616
		c0.264-0.434,0.635-0.777,1.111-1.035c0.477-0.256,1.047-0.439,1.715-0.549c0.668-0.11,1.404-0.166,2.211-0.166
		c0.205,0,0.408,0,0.605,0s0.4,0.016,0.605,0.045c0.043-0.44,0.066-0.836,0.066-1.188c0-0.807-0.162-1.371-0.484-1.694
		c-0.324-0.322-0.91-0.484-1.76-0.484c-0.25,0-0.518,0.02-0.803,0.058c-0.287,0.038-0.58,0.091-0.881,0.158
		c-0.301,0.068-0.586,0.151-0.857,0.249s-0.51,0.207-0.715,0.328L150.884,531.801z M154.007,540.623
		c0.412,0,0.777-0.056,1.102-0.166c0.322-0.109,0.6-0.249,0.836-0.418c0.234-0.168,0.428-0.355,0.582-0.561s0.268-0.403,0.342-0.594
		v-1.826c-0.205-0.015-0.414-0.025-0.627-0.033s-0.422-0.012-0.627-0.012c-0.455,0-0.898,0.026-1.332,0.078
		c-0.432,0.051-0.814,0.146-1.143,0.285c-0.33,0.141-0.596,0.33-0.793,0.572s-0.297,0.547-0.297,0.913
		c0,0.514,0.184,0.935,0.551,1.265C152.966,540.457,153.436,540.623,154.007,540.623z"/>
	<path fill="#FFFFFF" d="M168.704,537.125h-4.973v4.861h-1.76v-11h1.76v4.598h4.973v-4.598h1.76v11h-1.76V537.125z"/>
	<path fill="#FFFFFF" d="M183.729,544.78h-1.188l-0.33-2.794h-8.359v-11h1.76v9.46h4.773v-9.46h1.76v9.46h1.584V544.78z"/>
	<path fill="#FFFFFF" d="M189.151,538.114l0.617,2.112h0.111l0.486-2.135l2.141-7.105h1.76l-3.256,9.878
		c-0.248,0.719-0.494,1.415-0.736,2.09s-0.51,1.276-0.803,1.804c-0.293,0.528-0.623,0.95-0.99,1.266
		c-0.367,0.314-0.793,0.473-1.275,0.473c-0.529,0-0.961-0.073-1.299-0.22l0.309-1.519c0.189,0.074,0.373,0.11,0.549,0.11
		c0.412,0,0.807-0.216,1.189-0.649c0.381-0.432,0.695-1.176,0.945-2.232l-4.422-11h2.023L189.151,538.114z"/>
	<path fill="#FFFFFF" d="M203.022,535.475l0.066-1.364h-0.066l-0.9,1.408l-4.951,6.468h-1.012v-11h1.76v6.71l-0.066,1.298h0.088
		l0.859-1.363l4.949-6.645h1.035v11h-1.762V535.475z M198.688,526.542c0.146,0.675,0.4,1.144,0.76,1.408
		c0.359,0.264,0.773,0.396,1.242,0.396c0.471,0,0.889-0.139,1.256-0.418c0.365-0.278,0.615-0.733,0.746-1.364l1.32,0.418
		c-0.131,0.851-0.51,1.504-1.133,1.958s-1.367,0.683-2.232,0.683c-0.396,0-0.789-0.052-1.178-0.154
		c-0.389-0.104-0.736-0.257-1.045-0.463c-0.307-0.205-0.572-0.469-0.791-0.792c-0.221-0.322-0.367-0.704-0.441-1.144
		L198.688,526.542z"/>
	<path fill="#FFFFFF" d="M212.132,536.079l-3.521,5.027l-1.143-0.927l2.111-3.174l1.078-0.904l-1.078-0.791l-2.244-3.094
		l1.145-0.944L212.132,536.079z M216.135,536.079l-3.521,5.071l-1.188-0.948l2.156-3.196l1.057-0.904l-1.057-0.791l-2.287-3.116
		l1.166-0.966L216.135,536.079z"/>
	<path fill="#FFFFFF" d="M231.292,537.125h-4.971v4.861h-1.76v-11h1.76v4.598h4.971v-4.598h1.76v11h-1.76V537.125z"/>
	<path fill="#FFFFFF" d="M236.264,531.801c0.557-0.338,1.207-0.587,1.947-0.748c0.74-0.162,1.514-0.242,2.32-0.242
		c0.764,0,1.375,0.103,1.838,0.308c0.461,0.206,0.813,0.474,1.055,0.804s0.404,0.692,0.484,1.088
		c0.08,0.396,0.121,0.793,0.121,1.188c0,0.88-0.021,1.738-0.066,2.574c-0.043,0.836-0.064,1.628-0.064,2.376
		c0,0.543,0.021,1.056,0.064,1.54c0.045,0.483,0.125,0.932,0.242,1.342h-1.297l-0.463-1.54h-0.109
		c-0.133,0.205-0.297,0.407-0.496,0.605c-0.197,0.197-0.436,0.373-0.715,0.527c-0.277,0.154-0.602,0.283-0.967,0.385
		c-0.367,0.104-0.785,0.154-1.254,0.154c-0.471,0-0.906-0.073-1.311-0.22c-0.402-0.146-0.75-0.355-1.045-0.627
		c-0.293-0.271-0.523-0.598-0.691-0.979c-0.17-0.381-0.254-0.813-0.254-1.298c0-0.646,0.133-1.185,0.396-1.616
		c0.264-0.434,0.635-0.777,1.111-1.035c0.477-0.256,1.047-0.439,1.715-0.549c0.668-0.11,1.404-0.166,2.211-0.166
		c0.205,0,0.408,0,0.605,0s0.4,0.016,0.605,0.045c0.043-0.44,0.066-0.836,0.066-1.188c0-0.807-0.162-1.371-0.484-1.694
		c-0.324-0.322-0.91-0.484-1.76-0.484c-0.25,0-0.518,0.02-0.803,0.058c-0.287,0.038-0.58,0.091-0.881,0.158
		c-0.301,0.068-0.586,0.151-0.857,0.249s-0.51,0.207-0.715,0.328L236.264,531.801z M239.387,540.623
		c0.412,0,0.777-0.056,1.102-0.166c0.322-0.109,0.6-0.249,0.836-0.418c0.234-0.168,0.428-0.355,0.582-0.561s0.268-0.403,0.342-0.594
		v-1.826c-0.205-0.015-0.414-0.025-0.627-0.033s-0.422-0.012-0.627-0.012c-0.455,0-0.898,0.026-1.332,0.078
		c-0.432,0.051-0.814,0.146-1.143,0.285c-0.33,0.141-0.596,0.33-0.793,0.572s-0.297,0.547-0.297,0.913
		c0,0.514,0.184,0.935,0.551,1.265C238.346,540.457,238.817,540.623,239.387,540.623z"/>
	<path fill="#FFFFFF" d="M252.389,536.277l3.52-5.049l1.189,0.943l-2.156,3.184l-1.057,0.9l1.057,0.793l2.287,3.131l-1.188,0.971
		L252.389,536.277z M256.415,536.277l3.477-5.005l1.166,0.922l-2.135,3.161l-1.055,0.9l1.055,0.793l2.268,3.109l-1.145,0.948
		L256.415,536.277z"/>
	<path fill="#FFFFFF" d="M272.169,528.214h-6.424v13.772h-1.826v-15.4h8.25V528.214z"/>
	<path fill="#FFFFFF" d="M270.43,536.486c0-1.862,0.414-3.289,1.242-4.279s2.02-1.484,3.576-1.484c0.82,0,1.535,0.135,2.145,0.406
		c0.607,0.271,1.111,0.66,1.506,1.166c0.396,0.506,0.689,1.115,0.881,1.826c0.189,0.712,0.285,1.5,0.285,2.365
		c0,1.863-0.414,3.289-1.242,4.279s-2.021,1.484-3.574,1.484c-0.822,0-1.537-0.135-2.146-0.406c-0.607-0.271-1.111-0.66-1.506-1.166
		c-0.396-0.506-0.689-1.115-0.881-1.826S270.43,537.352,270.43,536.486z M272.257,536.486c0,0.558,0.055,1.093,0.164,1.605
		c0.109,0.514,0.283,0.961,0.518,1.343s0.543,0.689,0.924,0.924c0.381,0.235,0.844,0.353,1.387,0.353
		c1.994,0.014,2.99-1.395,2.99-4.225c0-0.572-0.055-1.114-0.164-1.628c-0.109-0.513-0.283-0.96-0.518-1.343
		c-0.234-0.381-0.543-0.685-0.924-0.912s-0.844-0.342-1.385-0.342C273.253,532.248,272.257,533.656,272.257,536.486z"/>
	<path fill="#FFFFFF" d="M282.839,530.986h1.209l0.33,1.32h0.088c0.338-0.514,0.773-0.906,1.309-1.178s1.148-0.406,1.838-0.406
		c1.467,0,2.559,0.433,3.277,1.298s1.078,2.28,1.078,4.245c0,0.925-0.121,1.758-0.363,2.498s-0.582,1.367-1.021,1.881
		c-0.441,0.514-0.973,0.909-1.596,1.188c-0.623,0.279-1.316,0.418-2.08,0.418c-0.541,0-0.971-0.033-1.287-0.099
		c-0.314-0.065-0.656-0.18-1.021-0.341v4.576h-1.76V530.986z M287.282,532.262c-0.748,0-1.338,0.195-1.771,0.584
		c-0.432,0.389-0.736,0.979-0.912,1.771v5.456c0.264,0.205,0.564,0.363,0.902,0.473c0.336,0.11,0.783,0.166,1.342,0.166
		c1.012,0,1.814-0.378,2.408-1.134c0.594-0.755,0.891-1.866,0.891-3.333c0-0.602-0.051-1.147-0.154-1.639
		c-0.102-0.491-0.268-0.909-0.494-1.254c-0.229-0.345-0.521-0.612-0.881-0.803C288.253,532.357,287.809,532.262,287.282,532.262z"/>
	<path fill="#FFFFFF" d="M294.124,536.486c0-1.862,0.414-3.289,1.242-4.279s2.02-1.484,3.576-1.484c0.82,0,1.535,0.135,2.145,0.406
		c0.607,0.271,1.111,0.66,1.506,1.166c0.396,0.506,0.689,1.115,0.881,1.826c0.189,0.712,0.285,1.5,0.285,2.365
		c0,1.863-0.414,3.289-1.242,4.279s-2.021,1.484-3.574,1.484c-0.822,0-1.537-0.135-2.146-0.406c-0.607-0.271-1.111-0.66-1.506-1.166
		c-0.396-0.506-0.689-1.115-0.881-1.826S294.124,537.352,294.124,536.486z M295.95,536.486c0,0.558,0.055,1.093,0.164,1.605
		c0.109,0.514,0.283,0.961,0.518,1.343s0.543,0.689,0.924,0.924c0.381,0.235,0.844,0.353,1.387,0.353
		c1.994,0.014,2.99-1.395,2.99-4.225c0-0.572-0.055-1.114-0.164-1.628c-0.109-0.513-0.283-0.96-0.518-1.343
		c-0.234-0.381-0.543-0.685-0.924-0.912s-0.844-0.342-1.385-0.342C296.946,532.248,295.95,533.656,295.95,536.486z"/>
	<path fill="#FFFFFF" d="M316.124,544.78h-1.188l-0.33-2.794h-8.273l-0.33,2.794h-1.188v-4.334h1.299
		c0.117-0.161,0.271-0.451,0.461-0.869c0.191-0.418,0.377-1.005,0.561-1.76s0.346-1.694,0.484-2.815
		c0.141-1.123,0.225-2.461,0.254-4.016h6.643v9.46h1.607V544.78z M312.757,540.446v-7.92h-3.299
		c-0.029,0.616-0.082,1.287-0.154,2.013c-0.074,0.727-0.172,1.452-0.297,2.178c-0.125,0.727-0.283,1.412-0.473,2.058
		c-0.191,0.646-0.412,1.202-0.66,1.672H312.757z"/>
	<path fill="#FFFFFF" d="M325.803,541.26c-0.441,0.323-0.961,0.569-1.563,0.738c-0.602,0.168-1.232,0.252-1.893,0.252
		c-0.85,0-1.568-0.135-2.156-0.406c-0.586-0.271-1.066-0.66-1.441-1.166c-0.373-0.506-0.645-1.115-0.813-1.826
		c-0.17-0.711-0.254-1.5-0.254-2.365c0-1.862,0.41-3.289,1.232-4.279c0.82-0.99,2.002-1.484,3.541-1.484
		c0.705,0,1.303,0.055,1.793,0.164c0.492,0.111,0.936,0.269,1.332,0.474l-0.506,1.519c-0.338-0.191-0.711-0.342-1.123-0.451
		c-0.41-0.11-0.85-0.166-1.318-0.166c-2.084,0-3.125,1.408-3.125,4.225c0,0.558,0.055,1.089,0.166,1.596
		c0.109,0.506,0.293,0.953,0.549,1.342s0.594,0.7,1.012,0.935c0.418,0.235,0.936,0.353,1.551,0.353c0.529,0,1.002-0.081,1.42-0.242
		c0.418-0.162,0.76-0.345,1.023-0.551L325.803,541.26z"/>
	<path fill="#FFFFFF" d="M330.995,537.036h-1.012v4.95h-1.76v-11h1.76v4.973l0.945-0.309l3.52-4.664h1.914l-3.41,4.422l-0.924,0.727
		l1.145,0.879l3.674,4.973h-2.178L330.995,537.036z"/>
	<path fill="#FFFFFF" d="M337.882,536.486c0-1.862,0.414-3.289,1.242-4.279s2.02-1.484,3.576-1.484c0.82,0,1.535,0.135,2.145,0.406
		c0.607,0.271,1.111,0.66,1.506,1.166c0.396,0.506,0.689,1.115,0.881,1.826c0.189,0.712,0.285,1.5,0.285,2.365
		c0,1.863-0.414,3.289-1.242,4.279s-2.021,1.484-3.574,1.484c-0.822,0-1.537-0.135-2.146-0.406c-0.607-0.271-1.111-0.66-1.506-1.166
		c-0.396-0.506-0.689-1.115-0.881-1.826S337.882,537.352,337.882,536.486z M339.708,536.486c0,0.558,0.055,1.093,0.164,1.605
		c0.109,0.514,0.283,0.961,0.518,1.343s0.543,0.689,0.924,0.924c0.381,0.235,0.844,0.353,1.387,0.353
		c1.994,0.014,2.99-1.395,2.99-4.225c0-0.572-0.055-1.114-0.164-1.628c-0.109-0.513-0.283-0.96-0.518-1.343
		c-0.234-0.381-0.543-0.685-0.924-0.912s-0.844-0.342-1.385-0.342C340.704,532.248,339.708,533.656,339.708,536.486z"/>
	<path fill="#FFFFFF" d="M359.376,535.452l0.131-2.09h-0.109l-0.793,1.694l-2.662,4.312h-0.615l-2.771-4.312l-0.727-1.694h-0.088
		l0.176,2.067v6.557h-1.627v-11h1.736l3.08,4.928l0.639,1.276h0.045l0.658-1.32l2.883-4.884h1.76v11h-1.715V535.452z"/>
	<path fill="#FFFFFF" d="M24.737,564.526h-3.454v9.46h-1.76v-9.46h-3.454v-1.54h8.668V564.526z"/>
	<path fill="#FFFFFF" d="M34.154,573.106c-0.44,0.353-0.994,0.631-1.661,0.836c-0.667,0.205-1.375,0.308-2.123,0.308
		c-0.836,0-1.562-0.135-2.178-0.406c-0.616-0.271-1.122-0.66-1.518-1.166s-0.69-1.111-0.88-1.815s-0.286-1.496-0.286-2.376
		c0-1.877,0.418-3.307,1.254-4.29c0.836-0.982,2.031-1.474,3.586-1.474c0.499,0,0.997,0.055,1.496,0.164
		c0.499,0.111,0.946,0.32,1.342,0.627c0.396,0.309,0.719,0.745,0.968,1.31c0.249,0.565,0.374,1.31,0.374,2.233
		c0,0.484-0.044,1.02-0.132,1.605h-7.062c0,0.646,0.066,1.218,0.198,1.717c0.132,0.498,0.337,0.92,0.616,1.265
		c0.279,0.345,0.642,0.608,1.089,0.792c0.447,0.184,0.993,0.275,1.639,0.275c0.499,0,0.998-0.088,1.496-0.265
		c0.499-0.176,0.873-0.382,1.122-0.616L34.154,573.106z M30.369,564.262c-0.866,0-1.559,0.229-2.079,0.683s-0.833,1.231-0.935,2.332
		h5.456c0-1.114-0.212-1.896-0.638-2.343C31.748,564.486,31.147,564.262,30.369,564.262z"/>
	<path fill="#FFFFFF" d="M42.733,564.526h-3.19c-0.044,0.616-0.088,1.28-0.132,1.991s-0.11,1.422-0.198,2.134
		c-0.088,0.712-0.206,1.394-0.352,2.046c-0.147,0.652-0.334,1.229-0.561,1.727c-0.228,0.5-0.506,0.898-0.836,1.199
		c-0.33,0.301-0.722,0.451-1.177,0.451c-0.279,0-0.521-0.015-0.726-0.044c-0.206-0.029-0.389-0.081-0.55-0.153l0.264-1.475
		c0.176,0.059,0.367,0.088,0.572,0.088c0.293,0,0.557-0.125,0.792-0.374c0.234-0.249,0.44-0.722,0.616-1.419
		c0.176-0.696,0.323-1.661,0.44-2.893c0.117-1.232,0.198-2.838,0.242-4.818h6.556v11h-1.76V564.526z"/>
	<path fill="#FFFFFF" d="M55.911,573.106c-0.44,0.353-0.994,0.631-1.661,0.836c-0.667,0.205-1.375,0.308-2.123,0.308
		c-0.836,0-1.562-0.135-2.178-0.406c-0.616-0.271-1.122-0.66-1.518-1.166s-0.69-1.111-0.88-1.815s-0.286-1.496-0.286-2.376
		c0-1.877,0.418-3.307,1.254-4.29c0.836-0.982,2.031-1.474,3.586-1.474c0.499,0,0.997,0.055,1.496,0.164
		c0.499,0.111,0.946,0.32,1.342,0.627c0.396,0.309,0.719,0.745,0.968,1.31c0.249,0.565,0.374,1.31,0.374,2.233
		c0,0.484-0.044,1.02-0.132,1.605h-7.062c0,0.646,0.066,1.218,0.198,1.717c0.132,0.498,0.337,0.92,0.616,1.265
		c0.279,0.345,0.642,0.608,1.089,0.792c0.447,0.184,0.993,0.275,1.639,0.275c0.499,0,0.998-0.088,1.496-0.265
		c0.499-0.176,0.873-0.382,1.122-0.616L55.911,573.106z M52.127,564.262c-0.866,0-1.559,0.229-2.079,0.683s-0.833,1.231-0.935,2.332
		h5.456c0-1.114-0.212-1.896-0.638-2.343C53.506,564.486,52.905,564.262,52.127,564.262z"/>
	<path fill="#FFFFFF" d="M61.829,569.036h-1.012v4.95h-1.76v-11h1.76v4.973l0.946-0.309l3.52-4.664h1.914l-3.41,4.422l-0.924,0.727
		l1.144,0.879l3.674,4.973h-2.178L61.829,569.036z"/>
	<path fill="#FFFFFF" d="M69.397,563.801c0.557-0.338,1.206-0.587,1.947-0.748c0.741-0.162,1.514-0.242,2.321-0.242
		c0.762,0,1.375,0.103,1.837,0.308c0.462,0.206,0.814,0.474,1.056,0.804c0.242,0.33,0.403,0.692,0.484,1.088
		c0.081,0.396,0.121,0.793,0.121,1.188c0,0.88-0.022,1.738-0.066,2.574c-0.044,0.836-0.066,1.628-0.066,2.376
		c0,0.543,0.022,1.056,0.066,1.54c0.044,0.483,0.125,0.932,0.242,1.342h-1.298l-0.462-1.54h-0.11
		c-0.132,0.205-0.297,0.407-0.495,0.605c-0.198,0.197-0.437,0.373-0.715,0.527c-0.279,0.154-0.602,0.283-0.968,0.385
		c-0.367,0.104-0.785,0.154-1.254,0.154c-0.47,0-0.906-0.073-1.309-0.22c-0.404-0.146-0.752-0.355-1.045-0.627
		c-0.294-0.271-0.525-0.598-0.693-0.979c-0.168-0.381-0.253-0.813-0.253-1.298c0-0.646,0.132-1.185,0.396-1.616
		c0.264-0.434,0.634-0.777,1.111-1.035c0.476-0.256,1.048-0.439,1.716-0.549c0.667-0.11,1.404-0.166,2.211-0.166
		c0.205,0,0.407,0,0.605,0c0.198,0,0.399,0.016,0.605,0.045c0.044-0.44,0.066-0.836,0.066-1.188c0-0.807-0.162-1.371-0.484-1.694
		c-0.323-0.322-0.91-0.484-1.76-0.484c-0.25,0-0.517,0.02-0.803,0.058s-0.58,0.091-0.88,0.158c-0.301,0.068-0.587,0.151-0.858,0.249
		c-0.272,0.098-0.51,0.207-0.715,0.328L69.397,563.801z M72.521,572.623c0.41,0,0.777-0.056,1.1-0.166
		c0.322-0.109,0.601-0.249,0.836-0.418c0.234-0.168,0.429-0.355,0.583-0.561c0.154-0.205,0.267-0.403,0.341-0.594v-1.826
		c-0.206-0.015-0.415-0.025-0.627-0.033c-0.213-0.008-0.422-0.012-0.627-0.012c-0.455,0-0.898,0.026-1.331,0.078
		c-0.433,0.051-0.814,0.146-1.144,0.285c-0.33,0.141-0.594,0.33-0.792,0.572c-0.198,0.242-0.297,0.547-0.297,0.913
		c0,0.514,0.183,0.935,0.55,1.265S71.949,572.623,72.521,572.623z"/>
	<path fill="#FFFFFF" d="M87.217,569.125h-4.972v4.861h-1.76v-11h1.76v4.598h4.972v-4.598h1.76v11h-1.76V569.125z"/>
	<path fill="#FFFFFF" d="M92.189,563.801c0.557-0.338,1.206-0.587,1.947-0.748c0.741-0.162,1.514-0.242,2.321-0.242
		c0.762,0,1.375,0.103,1.837,0.308c0.462,0.206,0.814,0.474,1.056,0.804c0.242,0.33,0.403,0.692,0.484,1.088
		c0.081,0.396,0.121,0.793,0.121,1.188c0,0.88-0.022,1.738-0.066,2.574c-0.044,0.836-0.066,1.628-0.066,2.376
		c0,0.543,0.022,1.056,0.066,1.54c0.044,0.483,0.125,0.932,0.242,1.342h-1.298l-0.462-1.54h-0.11
		c-0.132,0.205-0.297,0.407-0.495,0.605c-0.198,0.197-0.437,0.373-0.715,0.527c-0.279,0.154-0.602,0.283-0.968,0.385
		c-0.367,0.104-0.785,0.154-1.254,0.154c-0.47,0-0.906-0.073-1.309-0.22c-0.404-0.146-0.752-0.355-1.045-0.627
		c-0.294-0.271-0.525-0.598-0.693-0.979c-0.168-0.381-0.253-0.813-0.253-1.298c0-0.646,0.132-1.185,0.396-1.616
		c0.264-0.434,0.634-0.777,1.111-1.035c0.476-0.256,1.048-0.439,1.716-0.549c0.667-0.11,1.404-0.166,2.211-0.166
		c0.205,0,0.407,0,0.605,0c0.198,0,0.399,0.016,0.605,0.045c0.044-0.44,0.066-0.836,0.066-1.188c0-0.807-0.162-1.371-0.484-1.694
		c-0.323-0.322-0.91-0.484-1.76-0.484c-0.25,0-0.517,0.02-0.803,0.058s-0.58,0.091-0.88,0.158c-0.301,0.068-0.587,0.151-0.858,0.249
		c-0.272,0.098-0.51,0.207-0.715,0.328L92.189,563.801z M95.313,572.623c0.41,0,0.777-0.056,1.1-0.166
		c0.322-0.109,0.601-0.249,0.836-0.418c0.234-0.168,0.429-0.355,0.583-0.561c0.154-0.205,0.267-0.403,0.341-0.594v-1.826
		c-0.206-0.015-0.415-0.025-0.627-0.033c-0.213-0.008-0.422-0.012-0.627-0.012c-0.455,0-0.898,0.026-1.331,0.078
		c-0.433,0.051-0.814,0.146-1.144,0.285c-0.33,0.141-0.594,0.33-0.792,0.572c-0.198,0.242-0.297,0.547-0.297,0.913
		c0,0.514,0.183,0.935,0.55,1.265S94.74,572.623,95.313,572.623z"/>
	<path fill="#FFFFFF" d="M109.194,564.526h-3.19c-0.044,0.616-0.088,1.28-0.132,1.991s-0.11,1.422-0.198,2.134
		c-0.088,0.712-0.206,1.394-0.352,2.046c-0.147,0.652-0.334,1.229-0.561,1.727c-0.228,0.5-0.506,0.898-0.836,1.199
		c-0.33,0.301-0.722,0.451-1.177,0.451c-0.279,0-0.521-0.015-0.726-0.044c-0.206-0.029-0.389-0.081-0.55-0.153l0.264-1.475
		c0.176,0.059,0.367,0.088,0.572,0.088c0.293,0,0.557-0.125,0.792-0.374c0.234-0.249,0.44-0.722,0.616-1.419
		c0.176-0.696,0.323-1.661,0.44-2.893c0.117-1.232,0.198-2.838,0.242-4.818h6.556v11h-1.76V564.526z"/>
	<path fill="#FFFFFF" d="M122.372,573.106c-0.439,0.353-0.994,0.631-1.66,0.836c-0.668,0.205-1.375,0.308-2.124,0.308
		c-0.836,0-1.562-0.135-2.178-0.406c-0.616-0.271-1.122-0.66-1.518-1.166s-0.69-1.111-0.88-1.815s-0.286-1.496-0.286-2.376
		c0-1.877,0.418-3.307,1.254-4.29c0.836-0.982,2.031-1.474,3.586-1.474c0.499,0,0.997,0.055,1.496,0.164
		c0.499,0.111,0.946,0.32,1.342,0.627c0.396,0.309,0.719,0.745,0.968,1.31c0.25,0.565,0.375,1.31,0.375,2.233
		c0,0.484-0.045,1.02-0.133,1.605h-7.062c0,0.646,0.066,1.218,0.198,1.717c0.132,0.498,0.337,0.92,0.616,1.265
		c0.279,0.345,0.642,0.608,1.089,0.792c0.447,0.184,0.993,0.275,1.639,0.275c0.499,0,0.998-0.088,1.496-0.265
		c0.499-0.176,0.873-0.382,1.122-0.616L122.372,573.106z M118.588,564.262c-0.866,0-1.559,0.229-2.079,0.683
		s-0.833,1.231-0.935,2.332h5.456c0-1.114-0.213-1.896-0.638-2.343C119.967,564.486,119.365,564.262,118.588,564.262z"/>
	<path fill="#FFFFFF" d="M140.412,558.586h1.761v10.274c0,0.924-0.121,1.724-0.363,2.397c-0.242,0.676-0.587,1.229-1.034,1.662
		c-0.448,0.432-0.987,0.751-1.617,0.957c-0.631,0.205-1.327,0.308-2.09,0.308c-1.819,0-3.19-0.411-4.114-1.232
		s-1.386-2.067-1.386-3.739v-10.627h1.825v9.769c0,0.777,0.078,1.434,0.231,1.969c0.154,0.536,0.386,0.968,0.693,1.298
		s0.692,0.568,1.155,0.715c0.461,0.146,1,0.221,1.617,0.221c1.188,0,2.038-0.326,2.551-0.979c0.514-0.652,0.771-1.728,0.771-3.223
		V558.586z"/>
	<path fill="#FFFFFF" d="M155.856,560.215h-4.797v13.771h-1.824v-13.771h-4.797v-1.629h11.418V560.215z"/>
	<path fill="#FFFFFF" d="M162.126,569.168l0.527,2.332h0.021l0.572-2.375l3.719-10.539h1.826l-5.83,15.643h-0.814l-5.939-15.643
		h2.002L162.126,569.168z"/>
	<path fill="#FFFFFF" d="M174.401,568.079l-3.52,5.027l-1.145-0.927l2.111-3.174l1.078-0.904l-1.078-0.791l-2.242-3.094l1.143-0.944
		L174.401,568.079z M178.405,568.079l-3.52,5.071l-1.188-0.948l2.156-3.196l1.055-0.904l-1.055-0.791l-2.289-3.116l1.166-0.966
		L178.405,568.079z"/>
</g>
</svg>
