<?xml version="1.0" encoding="utf-8"?>
<!-- Generator: Adobe Illustrator 16.0.0, SVG Export Plug-In . SVG Version: 6.00 Build 0)  -->
<!DOCTYPE svg PUBLIC "-//W3C//DTD SVG 1.1//EN" "http://www.w3.org/Graphics/SVG/1.1/DTD/svg11.dtd">
<svg version="1.1" id="Layer_1" xmlns="http://www.w3.org/2000/svg" xmlns:xlink="http://www.w3.org/1999/xlink" x="0px" y="0px"
	 width="514px" height="111px" viewBox="0 0 514 111" enable-background="new 0 0 514 111" xml:space="preserve">
<rect y="35" fill="#E50647" width="312" height="44"/>
<rect fill="#E50647" width="416" height="43"/>
<rect y="65" fill="#E50647" width="514" height="46"/>
<path fill="#F2F2F2" d="M100.431,21.32h-7.056v6.742h-1.743V13.361h1.743v6.406h7.056v-6.406h1.743v14.701h-1.743V21.32z"/>
<path fill="#F2F2F2" d="M105.249,18.339c0.532-0.321,1.151-0.56,1.858-0.714s1.445-0.23,2.215-0.23c0.728,0,1.313,0.098,1.753,0.293
	c0.441,0.197,0.777,0.452,1.008,0.768c0.231,0.314,0.385,0.661,0.462,1.039s0.115,0.756,0.115,1.134c0,0.84-0.021,1.659-0.063,2.457
	s-0.063,1.554-0.063,2.269c0,0.518,0.021,1.008,0.063,1.47c0.042,0.462,0.119,0.89,0.231,1.28h-1.239l-0.441-1.47h-0.105
	c-0.126,0.196-0.284,0.389-0.473,0.577c-0.189,0.189-0.417,0.357-0.683,0.504c-0.266,0.147-0.574,0.271-0.924,0.368
	c-0.35,0.098-0.749,0.147-1.197,0.147c-0.448,0-0.865-0.07-1.25-0.211c-0.385-0.139-0.718-0.339-0.998-0.598
	c-0.28-0.26-0.501-0.57-0.662-0.936c-0.161-0.363-0.242-0.776-0.242-1.238c0-0.615,0.126-1.131,0.378-1.543
	c0.252-0.414,0.605-0.742,1.061-0.988c0.455-0.244,1.001-0.42,1.638-0.524c0.637-0.104,1.34-0.157,2.11-0.157
	c0.196,0,0.389,0,0.578,0s0.381,0.014,0.578,0.042c0.042-0.42,0.063-0.798,0.063-1.134c0-0.77-0.154-1.309-0.462-1.617
	c-0.308-0.309-0.869-0.463-1.68-0.463c-0.238,0-0.494,0.019-0.767,0.055s-0.553,0.086-0.84,0.151
	c-0.287,0.065-0.56,0.144-0.819,0.237c-0.259,0.094-0.487,0.198-0.683,0.313L105.249,18.339z M108.23,26.76
	c0.392,0,0.742-0.053,1.05-0.157c0.308-0.104,0.574-0.237,0.798-0.399c0.224-0.16,0.41-0.339,0.557-0.535
	c0.147-0.195,0.255-0.385,0.326-0.566v-1.744c-0.196-0.014-0.396-0.023-0.599-0.031c-0.203-0.006-0.403-0.01-0.599-0.01
	c-0.434,0-0.857,0.024-1.271,0.073c-0.413,0.05-0.777,0.14-1.092,0.272c-0.315,0.134-0.567,0.315-0.756,0.547
	c-0.189,0.23-0.284,0.521-0.284,0.871c0,0.49,0.175,0.893,0.525,1.207C107.236,26.603,107.684,26.76,108.23,26.76z"/>
<path fill="#F2F2F2" d="M115.748,28.063v-10.5h1.68v9.029h3.591v-9.029h1.68v9.029h3.591v-9.029h1.68v10.5H115.748z"/>
<path fill="#F2F2F2" d="M137.672,21.846l0.063-1.302h-0.063l-0.861,1.345l-4.725,6.174h-0.966v-10.5h1.68v6.404l-0.063,1.239h0.084
	l0.819-1.302l4.725-6.342h0.987v10.5h-1.68V21.846z"/>
<path fill="#F2F2F2" d="M154.514,19.032h-4.641v9.03h-1.68v-10.5h8.001v10.5h-1.68V19.032L154.514,19.032z"/>
<path fill="#F2F2F2" d="M167.116,27.223c-0.42,0.336-0.949,0.602-1.586,0.797c-0.637,0.196-1.313,0.295-2.026,0.295
	c-0.798,0-1.491-0.13-2.079-0.389c-0.588-0.26-1.071-0.631-1.449-1.113s-0.658-1.061-0.84-1.732
	c-0.182-0.672-0.273-1.428-0.273-2.268c0-1.793,0.399-3.157,1.197-4.096c0.798-0.938,1.939-1.406,3.423-1.406
	c0.476,0,0.952,0.052,1.428,0.156c0.476,0.105,0.903,0.305,1.281,0.6c0.378,0.293,0.686,0.711,0.924,1.249
	c0.238,0.539,0.357,1.249,0.357,2.132c0,0.462-0.042,0.973-0.126,1.533h-6.741c0,0.615,0.063,1.162,0.189,1.638
	s0.322,0.878,0.588,1.208c0.266,0.328,0.612,0.58,1.04,0.756c0.427,0.175,0.948,0.262,1.564,0.262c0.476,0,0.952-0.084,1.428-0.252
	c0.476-0.168,0.833-0.363,1.071-0.588L167.116,27.223z M163.503,18.779c-0.826,0-1.488,0.218-1.984,0.652
	c-0.497,0.434-0.795,1.176-0.893,2.226h5.208c0-1.063-0.203-1.81-0.609-2.237C164.819,18.994,164.246,18.779,163.503,18.779z"/>
<path fill="#F2F2F2" d="M179.776,30.729h-1.134l-0.315-2.666h-7.896l-0.315,2.666h-1.134v-4.137h1.239
	c0.112-0.154,0.259-0.43,0.441-0.829c0.182-0.399,0.36-0.959,0.535-1.681c0.175-0.721,0.329-1.617,0.462-2.688
	c0.133-1.07,0.213-2.349,0.241-3.832h6.342v9.029h1.533L179.776,30.729L179.776,30.729z M176.563,26.592v-7.56h-3.15
	c-0.028,0.588-0.077,1.229-0.147,1.921c-0.07,0.693-0.165,1.387-0.284,2.08c-0.119,0.692-0.27,1.347-0.452,1.963
	c-0.182,0.616-0.392,1.148-0.63,1.596H176.563z"/>
<path fill="#F2F2F2" d="M182.072,18.339c0.532-0.321,1.151-0.56,1.858-0.714s1.445-0.23,2.215-0.23c0.728,0,1.313,0.098,1.753,0.293
	c0.441,0.197,0.777,0.452,1.008,0.768c0.231,0.314,0.385,0.661,0.462,1.039c0.077,0.378,0.115,0.756,0.115,1.134
	c0,0.84-0.021,1.659-0.063,2.457s-0.063,1.554-0.063,2.269c0,0.518,0.021,1.008,0.063,1.47c0.042,0.462,0.119,0.89,0.231,1.28
	h-1.239l-0.441-1.47h-0.105c-0.126,0.196-0.284,0.389-0.473,0.577c-0.189,0.189-0.417,0.357-0.683,0.504s-0.574,0.271-0.924,0.368
	c-0.35,0.098-0.749,0.147-1.197,0.147c-0.448,0-0.865-0.07-1.25-0.211c-0.385-0.139-0.718-0.339-0.998-0.598
	c-0.28-0.26-0.501-0.57-0.662-0.936c-0.161-0.363-0.242-0.776-0.242-1.238c0-0.615,0.126-1.131,0.378-1.543
	c0.252-0.414,0.605-0.742,1.061-0.988c0.455-0.244,1.001-0.42,1.638-0.524c0.637-0.104,1.34-0.157,2.11-0.157
	c0.196,0,0.389,0,0.578,0s0.381,0.014,0.578,0.042c0.042-0.42,0.063-0.798,0.063-1.134c0-0.77-0.154-1.309-0.462-1.617
	c-0.308-0.309-0.869-0.463-1.68-0.463c-0.238,0-0.494,0.019-0.767,0.055s-0.553,0.086-0.84,0.151
	c-0.287,0.065-0.56,0.144-0.819,0.237c-0.259,0.094-0.487,0.198-0.683,0.313L182.072,18.339z M185.054,26.76
	c0.392,0,0.742-0.053,1.05-0.157s0.574-0.237,0.798-0.399c0.224-0.16,0.41-0.339,0.557-0.535c0.147-0.195,0.255-0.385,0.326-0.566
	v-1.744c-0.196-0.014-0.396-0.023-0.599-0.031c-0.203-0.006-0.403-0.01-0.599-0.01c-0.434,0-0.857,0.024-1.271,0.073
	c-0.413,0.05-0.777,0.14-1.092,0.272c-0.315,0.134-0.567,0.315-0.756,0.547c-0.189,0.23-0.284,0.521-0.284,0.871
	c0,0.49,0.175,0.893,0.525,1.207C184.06,26.603,184.507,26.76,185.054,26.76z"/>
<path fill="#F2F2F2" d="M198.703,19.032h-4.452v9.03h-1.68v-10.5h6.132V19.032L198.703,19.032z"/>
<path fill="#F2F2F2" d="M199.99,22.813c0-1.778,0.396-3.141,1.187-4.085c0.791-0.944,1.929-1.417,3.413-1.417
	c0.784,0,1.466,0.129,2.047,0.389c0.581,0.258,1.061,0.629,1.438,1.112c0.378,0.483,0.658,1.063,0.84,1.743
	c0.182,0.68,0.273,1.432,0.273,2.258c0,1.777-0.396,3.139-1.187,4.084s-1.929,1.418-3.413,1.418c-0.784,0-1.467-0.13-2.047-0.389
	c-0.581-0.26-1.061-0.631-1.438-1.113s-0.658-1.064-0.84-1.743C200.081,24.391,199.99,23.639,199.99,22.813z M201.733,22.813
	c0,0.531,0.053,1.043,0.158,1.533c0.105,0.49,0.269,0.916,0.493,1.28c0.224,0.364,0.518,0.658,0.882,0.882
	c0.364,0.225,0.805,0.336,1.323,0.336c1.904,0.014,2.856-1.33,2.856-4.031c0-0.547-0.052-1.064-0.157-1.555
	c-0.105-0.491-0.27-0.916-0.494-1.281c-0.224-0.363-0.518-0.654-0.882-0.871c-0.364-0.217-0.805-0.326-1.323-0.326
	C202.685,18.766,201.733,20.11,201.733,22.813z"/>
<path fill="#F2F2F2" d="M217.941,19.032h-4.452v9.03h-1.68v-10.5h6.132V19.032L217.941,19.032z"/>
<path fill="#F2F2F2" d="M226.42,21.846l0.063-1.302h-0.063l-0.861,1.345l-4.725,6.174h-0.966v-10.5h1.68v6.404l-0.063,1.239h0.084
	l0.819-1.302l4.725-6.342h0.987v10.5h-1.68V21.846z"/>
<path fill="#F2F2F2" d="M237.802,21.236h12.264v1.555h-12.264V21.236z"/>
<path fill="#F2F2F2" d="M266.193,23.421h-4.746v4.642h-1.68v-10.5h1.68v4.389h4.746v-4.389h1.68v10.5h-1.68V23.421z"/>
<path fill="#F2F2F2" d="M278.779,27.223c-0.42,0.336-0.949,0.602-1.586,0.797c-0.637,0.196-1.313,0.295-2.026,0.295
	c-0.798,0-1.491-0.13-2.079-0.389c-0.588-0.26-1.07-0.631-1.449-1.113c-0.378-0.482-0.658-1.061-0.84-1.732
	c-0.182-0.672-0.273-1.428-0.273-2.268c0-1.793,0.399-3.157,1.197-4.096c0.799-0.938,1.939-1.406,3.424-1.406
	c0.476,0,0.951,0.052,1.428,0.156c0.476,0.105,0.902,0.305,1.281,0.6c0.377,0.293,0.686,0.711,0.924,1.249
	c0.238,0.539,0.356,1.249,0.356,2.132c0,0.462-0.042,0.973-0.126,1.533h-6.74c0,0.615,0.063,1.162,0.188,1.638
	s0.321,0.878,0.588,1.208c0.267,0.328,0.612,0.58,1.04,0.756c0.428,0.175,0.948,0.262,1.564,0.262c0.476,0,0.951-0.084,1.428-0.252
	c0.477-0.168,0.833-0.363,1.07-0.588L278.779,27.223z M275.167,18.779c-0.826,0-1.487,0.218-1.983,0.652
	c-0.498,0.434-0.795,1.176-0.894,2.226h5.208c0-1.063-0.203-1.81-0.609-2.237C276.482,18.994,275.909,18.779,275.167,18.779z"/>
<path fill="#F2F2F2" d="M281.27,22.813c0-1.778,0.396-3.141,1.187-4.085s1.929-1.417,3.413-1.417c0.783,0,1.466,0.129,2.047,0.389
	c0.581,0.258,1.061,0.629,1.438,1.112c0.379,0.483,0.658,1.063,0.84,1.743c0.183,0.68,0.273,1.432,0.273,2.258
	c0,1.777-0.396,3.139-1.188,4.084c-0.79,0.945-1.928,1.418-3.412,1.418c-0.784,0-1.467-0.13-2.047-0.389
	c-0.581-0.26-1.062-0.631-1.438-1.113s-0.657-1.064-0.84-1.743C281.359,24.391,281.27,23.639,281.27,22.813z M283.012,22.813
	c0,0.531,0.053,1.043,0.158,1.533c0.105,0.49,0.27,0.916,0.493,1.28s0.519,0.658,0.882,0.882c0.364,0.225,0.805,0.336,1.323,0.336
	c1.903,0.014,2.856-1.33,2.856-4.031c0-0.547-0.053-1.064-0.158-1.555c-0.104-0.491-0.27-0.916-0.494-1.281
	c-0.223-0.363-0.518-0.654-0.881-0.871c-0.364-0.217-0.806-0.326-1.323-0.326C283.964,18.766,283.012,20.11,283.012,22.813z"/>
<path fill="#F2F2F2" d="M302.525,30.729h-1.135l-0.314-2.666h-7.896l-0.314,2.666h-1.135v-4.137h1.24
	c0.111-0.154,0.258-0.43,0.44-0.829c0.182-0.399,0.36-0.959,0.534-1.681c0.176-0.721,0.33-1.617,0.463-2.688
	c0.133-1.07,0.213-2.349,0.24-3.832h6.343v9.029h1.533L302.525,30.729L302.525,30.729z M299.313,26.592v-7.56h-3.15
	c-0.028,0.588-0.077,1.229-0.147,1.921c-0.07,0.693-0.164,1.387-0.283,2.08c-0.119,0.692-0.271,1.347-0.453,1.963
	c-0.182,0.616-0.391,1.148-0.629,1.596H299.313z"/>
<path fill="#F2F2F2" d="M311.105,23.421h-4.746v4.642h-1.681v-10.5h1.681v4.389h4.746v-4.389h1.68v10.5h-1.68V23.421z"/>
<path fill="#F2F2F2" d="M315.438,22.813c0-1.778,0.396-3.141,1.187-4.085s1.929-1.417,3.413-1.417c0.784,0,1.466,0.129,2.047,0.389
	c0.581,0.258,1.061,0.629,1.438,1.112s0.657,1.063,0.84,1.743c0.182,0.68,0.272,1.432,0.272,2.258c0,1.777-0.396,3.139-1.187,4.084
	s-1.93,1.418-3.413,1.418c-0.784,0-1.467-0.13-2.047-0.389c-0.581-0.26-1.062-0.631-1.438-1.113s-0.658-1.064-0.84-1.743
	C315.529,24.391,315.438,23.639,315.438,22.813z M317.181,22.813c0,0.531,0.054,1.043,0.158,1.533c0.105,0.49,0.27,0.916,0.493,1.28
	s0.518,0.658,0.882,0.882c0.364,0.225,0.805,0.336,1.323,0.336c1.904,0.014,2.855-1.33,2.855-4.031c0-0.547-0.052-1.064-0.156-1.555
	c-0.105-0.491-0.271-0.916-0.494-1.281c-0.225-0.363-0.519-0.654-0.882-0.871c-0.364-0.217-0.806-0.326-1.323-0.326
	C318.133,18.766,317.181,20.11,317.181,22.813z"/>
<path fill="#F2F2F2" d="M329.903,23.337h-0.967v4.726h-1.68v-10.5h1.68v4.746l0.903-0.295l3.36-4.451h1.827l-3.255,4.221
	l-0.883,0.693l1.093,0.84l3.507,4.746h-2.079L329.903,23.337z"/>
<path fill="#F2F2F2" d="M337.499,17.563h1.155l0.314,1.26h0.084c0.322-0.49,0.738-0.865,1.25-1.123
	c0.512-0.26,1.096-0.389,1.753-0.389c1.4,0,2.443,0.412,3.129,1.238c0.687,0.826,1.029,2.178,1.029,4.053
	c0,0.883-0.116,1.678-0.347,2.384c-0.231,0.707-0.557,1.306-0.978,1.796c-0.42,0.49-0.927,0.868-1.521,1.134
	s-1.256,0.399-1.984,0.399c-0.518,0-0.928-0.031-1.229-0.095c-0.301-0.063-0.626-0.171-0.978-0.325v4.367h-1.68L337.499,17.563
	L337.499,17.563z M341.74,18.779c-0.714,0-1.278,0.187-1.69,0.557c-0.413,0.371-0.704,0.936-0.872,1.691v5.207
	c0.252,0.197,0.539,0.348,0.861,0.452s0.749,0.157,1.281,0.157c0.966,0,1.731-0.359,2.299-1.081
	c0.566-0.722,0.851-1.782,0.851-3.182c0-0.573-0.049-1.095-0.146-1.564c-0.099-0.469-0.255-0.868-0.473-1.197
	c-0.217-0.329-0.498-0.584-0.84-0.767C342.667,18.871,342.244,18.779,341.74,18.779z"/>
<path fill="#F2F2F2" d="M348.788,18.339c0.532-0.321,1.151-0.56,1.857-0.714c0.707-0.154,1.445-0.23,2.216-0.23
	c0.728,0,1.313,0.098,1.753,0.293c0.44,0.197,0.776,0.452,1.008,0.768c0.23,0.314,0.385,0.661,0.462,1.039s0.115,0.756,0.115,1.134
	c0,0.84-0.021,1.659-0.063,2.457s-0.063,1.554-0.063,2.269c0,0.518,0.021,1.008,0.063,1.47c0.042,0.462,0.119,0.89,0.231,1.28
	h-1.239l-0.441-1.47h-0.104c-0.126,0.196-0.284,0.389-0.473,0.577c-0.189,0.189-0.417,0.357-0.684,0.504
	c-0.266,0.147-0.574,0.271-0.924,0.368c-0.35,0.098-0.749,0.147-1.197,0.147s-0.864-0.07-1.25-0.211
	c-0.385-0.139-0.718-0.339-0.998-0.598c-0.279-0.26-0.501-0.57-0.662-0.936c-0.16-0.363-0.241-0.776-0.241-1.238
	c0-0.615,0.126-1.131,0.378-1.543c0.252-0.414,0.604-0.742,1.061-0.988c0.455-0.244,1.001-0.42,1.638-0.524
	c0.638-0.104,1.341-0.157,2.11-0.157c0.196,0,0.389,0,0.578,0c0.188,0,0.381,0.014,0.578,0.042c0.042-0.42,0.063-0.798,0.063-1.134
	c0-0.77-0.153-1.309-0.462-1.617c-0.308-0.309-0.869-0.463-1.68-0.463c-0.238,0-0.494,0.019-0.767,0.055
	c-0.273,0.036-0.554,0.086-0.841,0.151c-0.287,0.065-0.56,0.144-0.818,0.237c-0.26,0.094-0.487,0.198-0.684,0.313L348.788,18.339z
	 M351.77,26.76c0.393,0,0.742-0.053,1.051-0.157c0.308-0.104,0.573-0.237,0.798-0.399c0.224-0.16,0.41-0.339,0.557-0.535
	c0.147-0.195,0.255-0.385,0.326-0.566v-1.744c-0.196-0.014-0.396-0.023-0.599-0.031c-0.203-0.006-0.403-0.01-0.6-0.01
	c-0.434,0-0.856,0.024-1.271,0.073c-0.413,0.05-0.777,0.14-1.092,0.272c-0.315,0.134-0.567,0.315-0.757,0.547
	c-0.188,0.23-0.283,0.521-0.283,0.871c0,0.49,0.175,0.893,0.524,1.207C350.776,26.603,351.224,26.76,351.77,26.76z"/>
<path fill="#F2F2F2" d="M366.326,19.032h-3.297v9.03h-1.681v-9.03h-3.297v-1.47h8.274V19.032z"/>
<path fill="#F2F2F2" d="M374.701,23.421h-4.746v4.642h-1.68v-10.5h1.68v4.389h4.746v-4.389h1.68v10.5h-1.68V23.421z"/>
<path fill="#F2F2F2" d="M381.211,21.573c0.336-0.056,0.658-0.095,0.966-0.116c0.309-0.021,0.603-0.031,0.882-0.031
	c0.715,0,1.313,0.081,1.796,0.242c0.482,0.16,0.871,0.381,1.165,0.661c0.294,0.28,0.5,0.612,0.62,0.997
	c0.119,0.386,0.179,0.795,0.179,1.229c0,1.274-0.354,2.198-1.062,2.772c-0.707,0.574-1.852,0.86-3.433,0.86
	c-0.896,0-1.827-0.041-2.793-0.125v-10.5h1.68V21.573L381.211,21.573z M381.211,26.592c0.519,0.084,1.015,0.126,1.491,0.126
	c0.882,0,1.498-0.171,1.848-0.515c0.351-0.342,0.525-0.829,0.525-1.459c0-0.561-0.172-1.021-0.516-1.387
	c-0.343-0.363-0.941-0.545-1.795-0.545c-0.237,0-0.497,0.007-0.776,0.021c-0.28,0.015-0.54,0.056-0.777,0.126V26.592L381.211,26.592
	z M388.477,17.563h1.681v10.5h-1.681V17.563z"/>
<path fill="#F2F2F2" d="M401.056,27.223c-0.42,0.336-0.948,0.602-1.586,0.797c-0.637,0.196-1.313,0.295-2.025,0.295
	c-0.799,0-1.491-0.13-2.079-0.389c-0.588-0.26-1.071-0.631-1.449-1.113s-0.658-1.061-0.84-1.732
	c-0.183-0.672-0.273-1.428-0.273-2.268c0-1.793,0.399-3.157,1.197-4.096c0.798-0.938,1.938-1.406,3.423-1.406
	c0.477,0,0.952,0.052,1.428,0.156c0.477,0.105,0.903,0.305,1.281,0.6c0.378,0.293,0.687,0.711,0.924,1.249
	c0.238,0.539,0.357,1.249,0.357,2.132c0,0.462-0.042,0.973-0.126,1.533h-6.741c0,0.615,0.063,1.162,0.189,1.638
	s0.321,0.878,0.588,1.208c0.266,0.328,0.611,0.58,1.04,0.756c0.427,0.175,0.947,0.262,1.563,0.262c0.477,0,0.952-0.084,1.429-0.252
	c0.476-0.168,0.833-0.363,1.07-0.588L401.056,27.223z M397.444,18.779c-0.826,0-1.488,0.218-1.984,0.652
	c-0.497,0.434-0.795,1.176-0.893,2.226h5.208c0-1.063-0.203-1.81-0.609-2.237C398.76,18.994,398.186,18.779,397.444,18.779z"/>
<path fill="#F2F2F2" d="M94.561,57.566l0.59,2.016h0.105l0.464-2.037l2.044-6.783h1.68l-3.108,9.429
	c-0.238,0.687-0.472,1.352-0.703,1.994c-0.231,0.646-0.487,1.219-0.767,1.724c-0.28,0.504-0.595,0.905-0.945,1.206
	c-0.35,0.302-0.756,0.453-1.218,0.453c-0.504,0-0.917-0.07-1.239-0.211l0.294-1.448c0.182,0.069,0.357,0.104,0.525,0.104
	c0.392,0,0.77-0.207,1.134-0.619c0.364-0.414,0.665-1.125,0.903-2.133l-4.221-10.5h1.932L94.561,57.566z"/>
<path fill="#F2F2F2" d="M102.854,50.762v2.856c0,0.378,0.021,0.718,0.063,1.019c0.042,0.301,0.126,0.561,0.252,0.777
	c0.126,0.216,0.308,0.385,0.546,0.504c0.238,0.119,0.553,0.178,0.945,0.178c0.63,0,1.147-0.068,1.554-0.208
	c0.406-0.141,0.714-0.295,0.924-0.463v-4.662h1.68v10.5h-1.68v-4.41c-0.224,0.142-0.557,0.295-0.998,0.463s-1.047,0.252-1.816,0.252
	c-0.518,0-0.974-0.057-1.365-0.168c-0.392-0.111-0.721-0.309-0.987-0.588c-0.266-0.279-0.466-0.65-0.599-1.113
	c-0.133-0.462-0.2-1.043-0.2-1.743v-3.192L102.854,50.762L102.854,50.762z"/>
<path fill="#F2F2F2" d="M111.821,51.539c0.532-0.322,1.151-0.56,1.858-0.714c0.707-0.153,1.445-0.231,2.215-0.231
	c0.728,0,1.313,0.099,1.753,0.295c0.441,0.195,0.777,0.451,1.008,0.766c0.231,0.315,0.385,0.662,0.462,1.04
	c0.077,0.378,0.115,0.756,0.115,1.134c0,0.84-0.021,1.659-0.063,2.457c-0.042,0.798-0.063,1.555-0.063,2.269
	c0,0.518,0.021,1.008,0.063,1.471c0.042,0.461,0.119,0.889,0.231,1.281h-1.239l-0.441-1.472h-0.105
	c-0.126,0.196-0.284,0.39-0.473,0.578s-0.417,0.356-0.683,0.504c-0.266,0.146-0.574,0.271-0.924,0.367
	c-0.35,0.098-0.749,0.146-1.197,0.146c-0.448,0-0.865-0.07-1.25-0.209c-0.385-0.141-0.718-0.34-0.998-0.6
	c-0.28-0.258-0.501-0.57-0.662-0.934c-0.161-0.365-0.242-0.777-0.242-1.24c0-0.615,0.126-1.129,0.378-1.543
	c0.252-0.412,0.605-0.742,1.061-0.986c0.455-0.245,1.001-0.42,1.638-0.525c0.637-0.105,1.34-0.157,2.11-0.157
	c0.196,0,0.389,0,0.578,0s0.381,0.015,0.578,0.042c0.042-0.42,0.063-0.799,0.063-1.135c0-0.77-0.154-1.309-0.462-1.616
	c-0.308-0.308-0.869-0.462-1.68-0.462c-0.238,0-0.494,0.018-0.767,0.054c-0.273,0.036-0.553,0.087-0.84,0.151
	c-0.287,0.064-0.56,0.145-0.819,0.238c-0.259,0.093-0.487,0.197-0.683,0.313L111.821,51.539z M114.803,59.961
	c0.392,0,0.742-0.053,1.05-0.158s0.574-0.238,0.798-0.398s0.41-0.34,0.557-0.535c0.147-0.196,0.255-0.385,0.326-0.566v-1.742
	c-0.196-0.015-0.396-0.025-0.599-0.031c-0.203-0.008-0.403-0.012-0.599-0.012c-0.434,0-0.857,0.024-1.271,0.073
	c-0.414,0.05-0.777,0.142-1.092,0.272c-0.315,0.133-0.567,0.314-0.756,0.546s-0.284,0.522-0.284,0.872
	c0,0.49,0.175,0.893,0.525,1.207C113.809,59.803,114.256,59.961,114.803,59.961z"/>
<path fill="#F2F2F2" d="M129.502,60.568c-0.42,0.309-0.917,0.543-1.491,0.705c-0.574,0.16-1.176,0.24-1.806,0.24
	c-0.812,0-1.498-0.13-2.058-0.39c-0.56-0.258-1.019-0.629-1.375-1.112c-0.356-0.482-0.616-1.063-0.777-1.742
	s-0.242-1.433-0.242-2.258c0-1.778,0.392-3.14,1.176-4.084c0.784-0.945,1.911-1.418,3.381-1.418c0.672,0,1.242,0.053,1.711,0.158
	s0.893,0.256,1.271,0.451l-0.483,1.449c-0.322-0.182-0.679-0.326-1.071-0.431c-0.392-0.104-0.813-0.157-1.26-0.157
	c-1.988,0-2.982,1.344-2.982,4.031c0,0.533,0.053,1.04,0.158,1.523c0.105,0.482,0.28,0.91,0.525,1.281
	c0.245,0.371,0.567,0.668,0.966,0.892s0.893,0.337,1.48,0.337c0.504,0,0.956-0.078,1.354-0.232c0.399-0.152,0.725-0.328,0.977-0.523
	L129.502,60.568z"/>
<path fill="#F2F2F2" d="M139.162,52.232h-3.297v9.03h-1.68v-9.03h-3.297v-1.471h8.274V52.232L139.162,52.232z"/>
<path fill="#F2F2F2" d="M147.537,56.621h-4.746v4.641h-1.68v-10.5h1.68v4.39h4.746v-4.39h1.68v10.5h-1.68V56.621z"/>
<path fill="#F2F2F2" d="M158.918,55.047l0.063-1.303h-0.063l-0.861,1.344l-4.725,6.174h-0.966v-10.5h1.68v6.405l-0.063,1.239h0.084
	l0.819-1.303l4.725-6.342h0.987v10.5h-1.68V55.047z"/>
<path fill="#F2F2F2" d="M166.384,56.537h-0.966v4.725h-1.68v-10.5h1.68v4.746l0.903-0.293l3.36-4.453h1.827l-3.255,4.222
	l-0.882,0.692l1.092,0.839l3.507,4.746h-2.079L166.384,56.537z"/>
<path fill="#F2F2F2" d="M180.532,55.047l0.063-1.303h-0.063l-0.861,1.344l-4.725,6.174h-0.966v-10.5h1.68v6.405l-0.063,1.239h0.084
	l0.819-1.303l4.725-6.342h0.987v10.5h-1.68V55.047z"/>
<path fill="#F2F2F2" d="M198.892,52.232h-4.641v9.03h-1.68v-10.5h8.001v10.5h-1.68V52.232L198.892,52.232z"/>
<path fill="#F2F2F2" d="M203.24,56.012c0-1.777,0.396-3.139,1.187-4.083c0.791-0.945,1.929-1.418,3.413-1.418
	c0.784,0,1.466,0.13,2.047,0.389c0.581,0.26,1.061,0.631,1.438,1.113c0.378,0.482,0.658,1.064,0.84,1.743
	c0.182,0.679,0.273,1.432,0.273,2.257c0,1.779-0.396,3.141-1.187,4.086c-0.791,0.943-1.929,1.416-3.413,1.416
	c-0.784,0-1.467-0.129-2.047-0.389c-0.581-0.258-1.061-0.629-1.438-1.111c-0.377-0.484-0.658-1.063-0.84-1.744
	C203.331,57.591,203.24,56.838,203.24,56.012z M204.982,56.012c0,0.533,0.053,1.043,0.158,1.533s0.269,0.918,0.493,1.281
	c0.224,0.363,0.518,0.658,0.882,0.882c0.364,0.224,0.805,0.337,1.323,0.337c1.904,0.014,2.856-1.33,2.856-4.033
	c0-0.545-0.052-1.063-0.157-1.554c-0.105-0.489-0.27-0.917-0.494-1.28c-0.224-0.364-0.518-0.654-0.882-0.872
	c-0.364-0.217-0.805-0.325-1.323-0.325C205.935,51.967,204.982,53.311,204.982,56.012z"/>
<path fill="#F2F2F2" d="M216.136,52.631c0.462-0.672,0.973-1.145,1.533-1.417s1.26-0.409,2.1-0.409c1.288,0,2.279,0.42,2.972,1.26
	c0.693,0.84,1.04,2.078,1.04,3.717c0,1.891-0.403,3.318-1.208,4.285c-0.805,0.965-1.929,1.447-3.371,1.447
	c-1.54,0-2.695-0.531-3.465-1.596c-0.77-1.063-1.155-2.736-1.155-5.019c0-1.204,0.06-2.233,0.179-3.087
	c0.119-0.854,0.294-1.575,0.525-2.163c0.231-0.589,0.511-1.058,0.84-1.407c0.329-0.349,0.7-0.627,1.113-0.83
	c0.413-0.202,0.864-0.346,1.354-0.43c0.49-0.084,1.015-0.154,1.575-0.211c0.728-0.069,1.298-0.149,1.711-0.24
	c0.413-0.092,0.745-0.256,0.998-0.494l0.189,1.512c-0.14,0.127-0.294,0.231-0.462,0.315s-0.371,0.154-0.609,0.21
	c-0.238,0.057-0.521,0.105-0.851,0.146c-0.329,0.043-0.71,0.078-1.145,0.105c-0.602,0.042-1.13,0.115-1.585,0.221
	s-0.847,0.309-1.176,0.609c-0.329,0.301-0.588,0.728-0.777,1.28c-0.189,0.554-0.319,1.284-0.389,2.194h0.064V52.631z
	 M216.325,56.033c0,0.531,0.056,1.043,0.168,1.533c0.112,0.49,0.284,0.92,0.515,1.291c0.231,0.371,0.528,0.662,0.893,0.871
	c0.364,0.211,0.791,0.315,1.281,0.315c0.966,0,1.684-0.349,2.152-1.04c0.469-0.693,0.704-1.719,0.704-3.077
	c0-0.531-0.049-1.021-0.147-1.47c-0.098-0.448-0.252-0.837-0.462-1.165c-0.21-0.329-0.476-0.581-0.798-0.756
	c-0.322-0.176-0.707-0.263-1.155-0.263c-1.092-0.015-1.89,0.304-2.394,0.955C216.577,53.881,216.325,54.815,216.325,56.033z"/>
<path fill="#F2F2F2" d="M234.178,60.422c-0.42,0.336-0.949,0.604-1.586,0.799c-0.637,0.195-1.313,0.293-2.026,0.293
	c-0.798,0-1.491-0.129-2.079-0.389c-0.588-0.258-1.071-0.629-1.449-1.111c-0.378-0.484-0.658-1.062-0.84-1.732
	c-0.182-0.672-0.273-1.43-0.273-2.27c0-1.791,0.399-3.156,1.197-4.095c0.798-0.938,1.939-1.407,3.423-1.407
	c0.476,0,0.952,0.053,1.428,0.158s0.903,0.305,1.281,0.598c0.378,0.295,0.686,0.711,0.924,1.25c0.238,0.539,0.357,1.25,0.357,2.131
	c0,0.463-0.042,0.975-0.126,1.533h-6.741c0,0.617,0.063,1.162,0.189,1.639c0.126,0.478,0.322,0.879,0.588,1.207
	c0.266,0.33,0.612,0.582,1.04,0.756c0.427,0.177,0.948,0.265,1.564,0.265c0.476,0,0.952-0.084,1.428-0.253
	c0.476-0.168,0.833-0.363,1.071-0.588L234.178,60.422z M230.564,51.98c-0.826,0-1.488,0.217-1.984,0.65
	c-0.497,0.435-0.795,1.176-0.893,2.227h5.208c0-1.064-0.203-1.81-0.609-2.236C231.88,52.193,231.308,51.98,230.564,51.98z"/>
<path fill="#F2F2F2" d="M246.837,63.93h-1.134l-0.315-2.668h-7.896l-0.315,2.668h-1.134v-4.138h1.239
	c0.112-0.153,0.259-0.431,0.441-0.829s0.36-0.959,0.535-1.68c0.175-0.721,0.329-1.617,0.462-2.688
	c0.133-1.071,0.213-2.349,0.241-3.833h6.342v9.03h1.533L246.837,63.93L246.837,63.93z M243.625,59.792v-7.56h-3.15
	c-0.028,0.588-0.077,1.229-0.147,1.922c-0.07,0.692-0.165,1.385-0.284,2.079c-0.119,0.692-0.27,1.348-0.452,1.963
	c-0.182,0.617-0.392,1.148-0.63,1.597H243.625z"/>
<path fill="#F2F2F2" d="M255.543,55.047l0.063-1.303h-0.063l-0.861,1.344l-4.725,6.174h-0.966v-10.5h1.68v6.405l-0.063,1.239h0.084
	l0.819-1.303l4.725-6.342h0.987v10.5h-1.68V55.047z"/>
<path fill="#F2F2F2" d="M267.436,52.232h-3.297v9.03h-1.68v-9.03h-3.297v-1.471h8.273V52.232z"/>
<path fill="#F2F2F2" d="M276.998,60.422c-0.42,0.336-0.949,0.604-1.586,0.799c-0.638,0.195-1.313,0.293-2.026,0.293
	c-0.798,0-1.491-0.129-2.079-0.389c-0.588-0.258-1.071-0.629-1.449-1.111c-0.378-0.484-0.658-1.062-0.84-1.732
	c-0.182-0.672-0.273-1.43-0.273-2.27c0-1.791,0.399-3.156,1.197-4.095c0.799-0.938,1.939-1.407,3.424-1.407
	c0.476,0,0.951,0.053,1.428,0.158c0.476,0.105,0.902,0.305,1.281,0.598c0.377,0.295,0.686,0.711,0.924,1.25
	c0.237,0.539,0.356,1.25,0.356,2.131c0,0.463-0.042,0.975-0.126,1.533h-6.74c0,0.617,0.063,1.162,0.188,1.639
	c0.126,0.478,0.321,0.879,0.588,1.207c0.267,0.33,0.612,0.582,1.04,0.756c0.427,0.177,0.947,0.265,1.564,0.265
	c0.476,0,0.951-0.084,1.428-0.253c0.476-0.168,0.832-0.363,1.07-0.588L276.998,60.422z M273.386,51.98
	c-0.826,0-1.488,0.217-1.984,0.65c-0.497,0.435-0.795,1.176-0.893,2.227h5.208c0-1.064-0.203-1.81-0.609-2.236
	C274.701,52.193,274.127,51.98,273.386,51.98z"/>
<path fill="#F2F2F2" d="M286.109,52.232h-3.045c-0.042,0.588-0.084,1.221-0.126,1.9c-0.042,0.679-0.104,1.357-0.188,2.037
	c-0.084,0.681-0.196,1.33-0.336,1.953c-0.141,0.623-0.318,1.172-0.535,1.647c-0.217,0.478-0.483,0.857-0.799,1.146
	c-0.314,0.288-0.688,0.431-1.123,0.431c-0.267,0-0.498-0.015-0.693-0.041c-0.196-0.029-0.371-0.078-0.525-0.148l0.252-1.406
	c0.168,0.057,0.351,0.084,0.547,0.084c0.279,0,0.531-0.119,0.756-0.357c0.224-0.236,0.42-0.688,0.588-1.354s0.308-1.586,0.42-2.762
	c0.111-1.176,0.189-2.709,0.23-4.6h6.258v10.5h-1.68V52.232L286.109,52.232z"/>
<path fill="#F2F2F2" d="M297.492,55.047l0.063-1.303h-0.063l-0.861,1.344l-4.725,6.174h-0.967v-10.5h1.68v6.405l-0.063,1.239h0.084
	l0.818-1.303l4.726-6.342h0.987v10.5h-1.68V55.047L297.492,55.047z"/>
<path fill="#F2F2F2" d="M109.548,93.77c-0.42,0.31-0.917,0.543-1.491,0.703c-0.574,0.162-1.176,0.242-1.806,0.242
	c-0.812,0-1.498-0.13-2.058-0.389c-0.56-0.26-1.019-0.631-1.375-1.113s-0.616-1.064-0.777-1.742
	c-0.161-0.68-0.242-1.432-0.242-2.258c0-1.777,0.392-3.141,1.176-4.085c0.784-0.944,1.911-1.417,3.381-1.417
	c0.672,0,1.242,0.053,1.711,0.156c0.469,0.105,0.893,0.256,1.271,0.451l-0.483,1.449c-0.322-0.183-0.679-0.324-1.071-0.431
	c-0.392-0.104-0.813-0.157-1.26-0.157c-1.988,0-2.982,1.344-2.982,4.032c0,0.531,0.053,1.039,0.158,1.521
	c0.105,0.483,0.28,0.91,0.525,1.281s0.567,0.67,0.966,0.893c0.399,0.226,0.893,0.337,1.48,0.337c0.504,0,0.956-0.076,1.354-0.229
	c0.398-0.154,0.725-0.33,0.977-0.525L109.548,93.77z"/>
<path fill="#F2F2F2" d="M119.267,93.623c-0.42,0.336-0.949,0.602-1.586,0.797s-1.313,0.295-2.026,0.295
	c-0.798,0-1.491-0.13-2.079-0.389c-0.588-0.26-1.071-0.631-1.449-1.113c-0.378-0.482-0.658-1.061-0.84-1.732
	s-0.273-1.428-0.273-2.268c0-1.793,0.399-3.156,1.197-4.096c0.798-0.938,1.939-1.406,3.423-1.406c0.476,0,0.952,0.053,1.428,0.156
	c0.476,0.105,0.903,0.305,1.281,0.6c0.378,0.293,0.686,0.711,0.924,1.249c0.238,0.539,0.357,1.249,0.357,2.132
	c0,0.463-0.042,0.973-0.126,1.533h-6.741c0,0.615,0.063,1.162,0.189,1.639c0.126,0.476,0.322,0.877,0.588,1.207
	c0.266,0.328,0.612,0.58,1.04,0.756c0.427,0.176,0.948,0.263,1.564,0.263c0.476,0,0.952-0.084,1.428-0.252
	c0.476-0.168,0.833-0.363,1.071-0.589L119.267,93.623z M115.655,85.18c-0.826,0-1.488,0.219-1.984,0.652
	c-0.497,0.434-0.795,1.176-0.893,2.227h5.208c0-1.063-0.203-1.811-0.609-2.238C116.971,85.395,116.397,85.18,115.655,85.18z"/>
<path fill="#F2F2F2" d="M122.211,83.963h1.155l0.315,1.26h0.084c0.322-0.49,0.738-0.865,1.25-1.123
	c0.511-0.26,1.095-0.389,1.753-0.389c1.4,0,2.443,0.412,3.129,1.238s1.029,2.178,1.029,4.053c0,0.883-0.116,1.678-0.347,2.385
	s-0.556,1.305-0.977,1.795c-0.42,0.49-0.927,0.868-1.522,1.135c-0.595,0.266-1.256,0.398-1.984,0.398
	c-0.518,0-0.928-0.031-1.229-0.095s-0.626-0.171-0.977-0.325v4.367h-1.68L122.211,83.963L122.211,83.963z M126.453,85.18
	c-0.714,0-1.278,0.188-1.69,0.557c-0.413,0.371-0.704,0.937-0.872,1.691v5.207c0.252,0.197,0.539,0.348,0.861,0.452
	c0.322,0.104,0.749,0.157,1.281,0.157c0.966,0,1.732-0.359,2.299-1.081c0.567-0.722,0.851-1.782,0.851-3.183
	c0-0.572-0.049-1.094-0.147-1.563s-0.255-0.868-0.472-1.196c-0.217-0.33-0.498-0.584-0.84-0.768
	C127.38,85.271,126.957,85.18,126.453,85.18z"/>
<path fill="#F2F2F2" d="M133.059,89.213c0-1.777,0.396-3.141,1.187-4.085s1.929-1.417,3.413-1.417c0.784,0,1.466,0.129,2.047,0.389
	c0.581,0.258,1.061,0.629,1.438,1.112c0.378,0.483,0.658,1.063,0.84,1.743c0.182,0.68,0.273,1.432,0.273,2.258
	c0,1.777-0.396,3.139-1.187,4.084s-1.929,1.418-3.413,1.418c-0.784,0-1.467-0.13-2.047-0.389c-0.581-0.26-1.061-0.631-1.438-1.113
	c-0.377-0.482-0.658-1.064-0.84-1.742C133.151,90.791,133.059,90.039,133.059,89.213z M134.803,89.213
	c0,0.531,0.053,1.043,0.158,1.533c0.105,0.49,0.269,0.916,0.493,1.279c0.224,0.365,0.518,0.658,0.882,0.883
	c0.364,0.225,0.805,0.336,1.323,0.336c1.904,0.014,2.856-1.33,2.856-4.031c0-0.547-0.052-1.064-0.157-1.555
	c-0.105-0.491-0.27-0.916-0.494-1.281c-0.224-0.363-0.518-0.654-0.882-0.871c-0.364-0.217-0.805-0.326-1.323-0.326
	C135.755,85.166,134.803,86.512,134.803,89.213z"/>
<path fill="#F2F2F2" d="M152.15,93.77c-0.42,0.31-0.917,0.543-1.491,0.703c-0.574,0.162-1.176,0.242-1.806,0.242
	c-0.812,0-1.498-0.13-2.058-0.389c-0.56-0.26-1.019-0.631-1.375-1.113c-0.356-0.482-0.616-1.064-0.777-1.742
	c-0.161-0.68-0.242-1.432-0.242-2.258c0-1.777,0.392-3.141,1.176-4.085s1.911-1.417,3.381-1.417c0.672,0,1.242,0.053,1.711,0.156
	c0.469,0.105,0.893,0.256,1.271,0.451l-0.483,1.449c-0.322-0.183-0.679-0.324-1.071-0.431c-0.392-0.104-0.813-0.157-1.26-0.157
	c-1.988,0-2.982,1.344-2.982,4.032c0,0.531,0.053,1.039,0.158,1.521c0.105,0.483,0.28,0.91,0.525,1.281s0.567,0.67,0.966,0.893
	c0.399,0.226,0.893,0.337,1.48,0.337c0.504,0,0.956-0.076,1.354-0.229c0.398-0.154,0.725-0.33,0.977-0.525L152.15,93.77z"/>
<path fill="#F2F2F2" d="M161.388,93.77c-0.42,0.31-0.917,0.543-1.491,0.703c-0.574,0.162-1.176,0.242-1.806,0.242
	c-0.812,0-1.498-0.13-2.058-0.389c-0.56-0.26-1.019-0.631-1.375-1.113s-0.616-1.064-0.777-1.742
	c-0.161-0.68-0.242-1.432-0.242-2.258c0-1.777,0.392-3.141,1.176-4.085c0.784-0.944,1.911-1.417,3.381-1.417
	c0.672,0,1.242,0.053,1.711,0.156c0.469,0.105,0.893,0.256,1.271,0.451l-0.483,1.449c-0.322-0.183-0.679-0.324-1.071-0.431
	c-0.392-0.104-0.813-0.157-1.26-0.157c-1.988,0-2.982,1.344-2.982,4.032c0,0.531,0.053,1.039,0.158,1.521
	c0.105,0.483,0.28,0.91,0.525,1.281c0.245,0.371,0.567,0.67,0.966,0.893c0.399,0.226,0.893,0.337,1.48,0.337
	c0.504,0,0.956-0.076,1.354-0.229c0.398-0.154,0.725-0.33,0.977-0.525L161.388,93.77z"/>
<path fill="#F2F2F2" d="M170.197,88.246l0.063-1.303h-0.063l-0.861,1.346l-4.725,6.174h-0.966v-10.5h1.68v6.404l-0.063,1.238h0.084
	l0.819-1.301l4.725-6.343h0.987v10.5h-1.68V88.246z"/>
<path fill="#F2F2F2" d="M181.569,88.246l0.063-1.303h-0.063l-0.861,1.346l-4.725,6.174h-0.966v-10.5h1.68v6.404l-0.063,1.238h0.084
	l0.819-1.301l4.725-6.343h0.987v10.5h-1.68V88.246z M177.432,79.721c0.14,0.645,0.381,1.092,0.724,1.344
	c0.343,0.252,0.738,0.379,1.187,0.379c0.449,0,0.847-0.133,1.197-0.399s0.588-0.698,0.714-1.302l1.26,0.398
	c-0.126,0.813-0.486,1.437-1.081,1.869c-0.595,0.434-1.306,0.65-2.132,0.65c-0.378,0-0.752-0.049-1.124-0.146
	c-0.372-0.097-0.703-0.244-0.998-0.441c-0.294-0.194-0.546-0.446-0.756-0.756c-0.21-0.307-0.35-0.672-0.42-1.092L177.432,79.721z"/>
<path fill="#F2F2F2" d="M193.643,93.77c-0.42,0.31-0.917,0.543-1.491,0.703c-0.574,0.162-1.176,0.242-1.806,0.242
	c-0.812,0-1.498-0.13-2.058-0.389c-0.56-0.26-1.019-0.631-1.375-1.113s-0.616-1.064-0.777-1.742
	c-0.161-0.68-0.242-1.432-0.242-2.258c0-1.777,0.392-3.141,1.176-4.085c0.784-0.944,1.911-1.417,3.381-1.417
	c0.672,0,1.242,0.053,1.711,0.156c0.469,0.105,0.893,0.256,1.271,0.451l-0.483,1.449c-0.322-0.183-0.679-0.324-1.071-0.431
	c-0.392-0.104-0.813-0.157-1.26-0.157c-1.988,0-2.982,1.344-2.982,4.032c0,0.531,0.053,1.039,0.158,1.521
	c0.105,0.483,0.28,0.91,0.525,1.281c0.245,0.371,0.567,0.67,0.966,0.893c0.399,0.226,0.893,0.337,1.48,0.337
	c0.504,0,0.956-0.076,1.354-0.229c0.398-0.154,0.725-0.33,0.977-0.525L193.643,93.77z"/>
<path fill="#F2F2F2" d="M198.547,89.736h-0.966v4.727h-1.68v-10.5h1.68v4.746l0.903-0.295l3.36-4.451h1.827l-3.255,4.221
	l-0.882,0.693l1.092,0.84l3.507,4.746h-2.079L198.547,89.736z"/>
<path fill="#F2F2F2" d="M212.694,88.246l0.063-1.303h-0.063l-0.861,1.346l-4.725,6.174h-0.966v-10.5h1.68v6.404l-0.063,1.238h0.084
	l0.819-1.301l4.725-6.343h0.987v10.5h-1.68V88.246z"/>
<path fill="#F2F2F2" d="M220.359,89.086l-3.528-5.123h2.058l1.995,2.896l0.588,1.197l0.609-1.197l2.037-2.896h1.89l-3.549,5.039
	l3.759,5.461h-1.995l-2.226-3.191l-0.63-1.262l-0.651,1.262l-2.268,3.191h-1.869L220.359,89.086z"/>
<path fill="#F2F2F2" d="M235.122,83.963v2.855c0,0.377,0.021,0.718,0.063,1.019c0.042,0.302,0.126,0.56,0.252,0.776
	c0.126,0.218,0.308,0.386,0.546,0.504c0.238,0.119,0.553,0.18,0.945,0.18c0.63,0,1.147-0.07,1.554-0.211
	c0.406-0.139,0.714-0.293,0.924-0.461v-4.662h1.68v10.5h-1.68v-4.41c-0.224,0.141-0.557,0.293-0.998,0.461
	c-0.441,0.17-1.047,0.254-1.816,0.254c-0.518,0-0.974-0.057-1.365-0.168c-0.392-0.113-0.721-0.309-0.987-0.59
	c-0.266-0.279-0.466-0.65-0.599-1.111c-0.133-0.463-0.2-1.043-0.2-1.744v-3.19L235.122,83.963L235.122,83.963z"/>
<path fill="#F2F2F2" d="M251.992,93.623c-0.42,0.336-0.949,0.602-1.586,0.797c-0.637,0.195-1.313,0.295-2.026,0.295
	c-0.798,0-1.491-0.13-2.079-0.389c-0.588-0.26-1.071-0.631-1.449-1.113s-0.658-1.061-0.84-1.732s-0.273-1.428-0.273-2.268
	c0-1.793,0.399-3.156,1.197-4.096c0.798-0.938,1.939-1.406,3.423-1.406c0.476,0,0.952,0.053,1.428,0.156
	c0.476,0.105,0.903,0.305,1.281,0.6c0.378,0.293,0.686,0.711,0.924,1.249c0.238,0.539,0.357,1.249,0.357,2.132
	c0,0.463-0.042,0.973-0.126,1.533h-6.741c0,0.615,0.063,1.162,0.189,1.639c0.126,0.476,0.322,0.877,0.588,1.207
	c0.266,0.328,0.612,0.58,1.04,0.756c0.427,0.176,0.948,0.263,1.564,0.263c0.476,0,0.952-0.084,1.428-0.252s0.833-0.363,1.071-0.589
	L251.992,93.623z M248.379,85.18c-0.826,0-1.488,0.219-1.984,0.652c-0.497,0.434-0.795,1.176-0.893,2.227h5.208
	c0-1.063-0.203-1.811-0.609-2.238C249.695,85.395,249.121,85.18,248.379,85.18z"/>
<path fill="#F2F2F2" d="M263.609,88.227l0.126-1.996h-0.105l-0.756,1.617l-2.541,4.115h-0.588l-2.646-4.115l-0.692-1.617h-0.084
	l0.168,1.976v6.258h-1.554v-10.5h1.659l2.94,4.703l0.608,1.22h0.043l0.63-1.261l2.751-4.662h1.68v10.5h-1.638V88.227z"/>
<path fill="#F2F2F2" d="M274.701,85.434h-4.642v9.029h-1.68v-10.5h8v10.5h-1.68L274.701,85.434L274.701,85.434z"/>
<path fill="#F2F2F2" d="M286.076,88.246l0.063-1.303h-0.063l-0.86,1.346l-4.726,6.174h-0.966v-10.5h1.68v6.404l-0.063,1.238h0.084
	l0.818-1.301l4.725-6.343h0.988v10.5h-1.681V88.246L286.076,88.246z"/>
<path fill="#F2F2F2" d="M290.402,89.213c0-1.777,0.396-3.141,1.187-4.085s1.93-1.417,3.413-1.417c0.784,0,1.466,0.129,2.047,0.389
	c0.581,0.258,1.062,0.629,1.438,1.112c0.378,0.483,0.658,1.063,0.84,1.743s0.273,1.432,0.273,2.258c0,1.777-0.396,3.139-1.188,4.084
	s-1.929,1.418-3.413,1.418c-0.784,0-1.467-0.13-2.047-0.389c-0.581-0.26-1.062-0.631-1.438-1.113s-0.657-1.064-0.84-1.742
	C290.493,90.791,290.402,90.039,290.402,89.213z M292.146,89.213c0,0.531,0.053,1.043,0.158,1.533
	c0.104,0.49,0.269,0.916,0.492,1.279c0.225,0.365,0.518,0.658,0.883,0.883c0.363,0.225,0.805,0.336,1.322,0.336
	c1.904,0.014,2.856-1.33,2.856-4.031c0-0.547-0.053-1.064-0.157-1.555c-0.105-0.491-0.271-0.916-0.494-1.281
	c-0.224-0.363-0.518-0.654-0.882-0.871s-0.806-0.326-1.323-0.326C293.097,85.166,292.146,86.512,292.146,89.213z"/>
<path fill="#F2F2F2" d="M308.647,89.82h-4.746v4.643h-1.681v-10.5h1.681v4.389h4.746v-4.389h1.68v10.5h-1.68V89.82z"/>
<path fill="#F2F2F2" d="M313.33,84.738c0.532-0.32,1.151-0.559,1.858-0.713s1.444-0.23,2.215-0.23c0.728,0,1.313,0.098,1.753,0.293
	c0.441,0.197,0.777,0.452,1.008,0.768c0.231,0.314,0.385,0.662,0.462,1.039c0.077,0.379,0.115,0.756,0.115,1.135
	c0,0.84-0.021,1.658-0.063,2.457c-0.042,0.798-0.063,1.554-0.063,2.269c0,0.519,0.021,1.009,0.063,1.47
	c0.042,0.463,0.119,0.891,0.231,1.28h-1.239l-0.44-1.47h-0.105c-0.126,0.195-0.284,0.389-0.473,0.576
	c-0.189,0.189-0.417,0.357-0.684,0.504c-0.266,0.148-0.573,0.271-0.924,0.369c-0.35,0.098-0.749,0.146-1.197,0.146
	c-0.447,0-0.864-0.07-1.25-0.211c-0.385-0.139-0.718-0.339-0.997-0.598c-0.28-0.26-0.502-0.57-0.662-0.936
	c-0.161-0.363-0.242-0.777-0.242-1.238c0-0.615,0.126-1.131,0.378-1.543c0.252-0.414,0.604-0.742,1.061-0.988
	c0.455-0.244,1.001-0.42,1.639-0.523c0.637-0.105,1.34-0.158,2.109-0.158c0.196,0,0.39,0,0.578,0c0.189,0,0.381,0.015,0.578,0.043
	c0.042-0.42,0.063-0.799,0.063-1.135c0-0.77-0.154-1.309-0.463-1.617c-0.308-0.309-0.868-0.463-1.68-0.463
	c-0.238,0-0.494,0.02-0.767,0.055c-0.273,0.037-0.554,0.086-0.84,0.152c-0.287,0.064-0.561,0.143-0.819,0.236
	s-0.487,0.197-0.684,0.313L313.33,84.738z M316.313,93.16c0.392,0,0.742-0.053,1.05-0.157s0.574-0.237,0.798-0.399
	c0.224-0.16,0.41-0.338,0.557-0.535c0.147-0.194,0.256-0.385,0.326-0.565v-1.744c-0.195-0.014-0.396-0.022-0.599-0.03
	c-0.203-0.006-0.403-0.01-0.6-0.01c-0.434,0-0.856,0.023-1.271,0.072c-0.413,0.05-0.777,0.141-1.092,0.271
	c-0.315,0.135-0.567,0.315-0.756,0.547c-0.189,0.23-0.284,0.521-0.284,0.871c0,0.49,0.175,0.894,0.524,1.207
	C315.318,93.003,315.766,93.16,316.313,93.16z"/>
<path fill="#F2F2F2" d="M330.868,85.434h-3.297v9.029h-1.68v-9.029h-3.298v-1.471h8.274V85.434z"/>
<path fill="#F2F2F2" d="M332.176,89.213c0-1.777,0.396-3.141,1.188-4.085s1.929-1.417,3.413-1.417c0.784,0,1.466,0.129,2.047,0.389
	c0.581,0.258,1.061,0.629,1.438,1.112c0.378,0.483,0.658,1.063,0.841,1.743c0.182,0.68,0.272,1.432,0.272,2.258
	c0,1.777-0.396,3.139-1.187,4.084s-1.93,1.418-3.413,1.418c-0.784,0-1.467-0.13-2.047-0.389c-0.581-0.26-1.062-0.631-1.438-1.113
	s-0.658-1.064-0.84-1.742C332.268,90.791,332.176,90.039,332.176,89.213z M333.919,89.213c0,0.531,0.054,1.043,0.158,1.533
	c0.105,0.49,0.269,0.916,0.493,1.279c0.224,0.365,0.518,0.658,0.882,0.883s0.805,0.336,1.323,0.336
	c1.903,0.014,2.855-1.33,2.855-4.031c0-0.547-0.052-1.064-0.156-1.555c-0.105-0.491-0.271-0.916-0.494-1.281
	c-0.225-0.363-0.519-0.654-0.882-0.871c-0.364-0.217-0.806-0.326-1.323-0.326C334.871,85.166,333.919,86.512,333.919,89.213z"/>
<path fill="#F2F2F2" d="M343.995,83.982c0.49-0.027,1.004-0.063,1.543-0.104c0.539-0.043,1.208-0.063,2.005-0.063
	c1.386,0,2.38,0.213,2.982,0.641c0.602,0.428,0.902,1.074,0.902,1.941c0,0.49-0.144,0.971-0.43,1.438
	c-0.287,0.47-0.76,0.815-1.417,1.04v0.084c0.826,0.154,1.407,0.439,1.743,0.859c0.336,0.421,0.504,0.979,0.504,1.682
	c0,1.092-0.392,1.883-1.176,2.373s-1.96,0.734-3.528,0.734c-0.588,0-1.134-0.019-1.638-0.053c-0.504-0.035-1.001-0.074-1.491-0.115
	V83.982L343.995,83.982z M347.733,88.395c0.252,0,0.497-0.043,0.734-0.127c0.238-0.084,0.452-0.199,0.642-0.347
	c0.188-0.147,0.343-0.317,0.462-0.515c0.119-0.195,0.179-0.406,0.179-0.631c0-0.56-0.168-0.947-0.504-1.164
	s-0.924-0.326-1.764-0.326c-0.448,0-0.803,0.008-1.062,0.021s-0.508,0.026-0.746,0.041v3.045h2.059V88.395z M345.675,93.055
	c0.267,0.029,0.528,0.051,0.788,0.063c0.26,0.015,0.563,0.021,0.914,0.021c0.938,0,1.634-0.133,2.089-0.397s0.684-0.722,0.684-1.365
	c0-0.504-0.193-0.913-0.578-1.229c-0.385-0.313-1.067-0.473-2.047-0.473h-1.849L345.675,93.055L345.675,93.055z"/>
<path fill="#F2F2F2" d="M91.967,83.982c0.49-0.027,1.004-0.063,1.543-0.104c0.539-0.043,1.208-0.063,2.005-0.063
	c1.386,0,2.38,0.213,2.982,0.641c0.602,0.428,0.902,1.074,0.902,1.941c0,0.49-0.144,0.971-0.43,1.438
	c-0.287,0.47-0.76,0.815-1.417,1.04v0.084c0.826,0.154,1.407,0.439,1.743,0.859c0.336,0.421,0.504,0.979,0.504,1.682
	c0,1.092-0.392,1.883-1.176,2.373s-1.96,0.734-3.528,0.734c-0.588,0-1.134-0.019-1.638-0.053c-0.504-0.035-1.001-0.074-1.491-0.115
	V83.982L91.967,83.982z M95.705,88.395c0.252,0,0.497-0.043,0.734-0.127c0.238-0.084,0.452-0.199,0.642-0.347
	c0.188-0.147,0.343-0.317,0.462-0.515c0.119-0.195,0.179-0.406,0.179-0.631c0-0.56-0.168-0.947-0.504-1.164
	s-0.924-0.326-1.764-0.326c-0.448,0-0.803,0.008-1.062,0.021s-0.508,0.026-0.746,0.041v3.045h2.059V88.395z M93.646,93.055
	c0.267,0.029,0.528,0.051,0.788,0.063c0.26,0.015,0.563,0.021,0.914,0.021c0.938,0,1.634-0.133,2.089-0.397s0.684-0.722,0.684-1.365
	c0-0.504-0.193-0.913-0.578-1.229c-0.385-0.313-1.067-0.473-2.047-0.473h-1.849L93.646,93.055L93.646,93.055z"/>
<path fill="#F2F2F2" d="M366.402,85.434h-4.642v9.029h-1.68v-10.5h8.001v10.5h-1.68V85.434L366.402,85.434z"/>
<path fill="#F2F2F2" d="M370.751,89.213c0-1.777,0.396-3.141,1.188-4.085s1.929-1.417,3.413-1.417c0.783,0,1.466,0.129,2.047,0.389
	c0.581,0.258,1.061,0.629,1.438,1.112c0.378,0.483,0.658,1.063,0.84,1.743c0.183,0.68,0.273,1.432,0.273,2.258
	c0,1.777-0.396,3.139-1.188,4.084s-1.929,1.418-3.412,1.418c-0.784,0-1.468-0.13-2.048-0.389c-0.581-0.26-1.061-0.631-1.438-1.113
	s-0.658-1.064-0.84-1.742C370.842,90.791,370.751,90.039,370.751,89.213z M372.494,89.213c0,0.531,0.053,1.043,0.158,1.533
	c0.104,0.49,0.269,0.916,0.493,1.279c0.224,0.365,0.518,0.658,0.882,0.883s0.805,0.336,1.323,0.336
	c1.903,0.014,2.855-1.33,2.855-4.031c0-0.547-0.052-1.064-0.157-1.555c-0.104-0.491-0.27-0.916-0.494-1.281
	c-0.224-0.363-0.518-0.654-0.882-0.871c-0.363-0.217-0.805-0.326-1.322-0.326C373.446,85.166,372.494,86.512,372.494,89.213z"/>
<path fill="#F2F2F2" d="M388.37,79.762h7.98v1.555h-6.237v4.41c0.238-0.041,0.532-0.084,0.882-0.125
	c0.35-0.043,0.687-0.063,1.008-0.063c0.714,0,1.394,0.065,2.037,0.198c0.645,0.135,1.211,0.361,1.701,0.685
	c0.49,0.322,0.878,0.761,1.166,1.313s0.431,1.248,0.431,2.088c0,0.842-0.146,1.564-0.44,2.175c-0.294,0.608-0.687,1.106-1.177,1.491
	c-0.489,0.385-1.06,0.672-1.711,0.859c-0.65,0.189-1.333,0.284-2.047,0.284c-0.237,0-0.508-0.004-0.809-0.011
	c-0.301-0.008-0.616-0.023-0.945-0.053c-0.329-0.028-0.65-0.061-0.966-0.096s-0.606-0.086-0.872-0.156L388.37,79.762L388.37,79.762z
	 M392.171,93.118c0.448,0,0.875-0.063,1.281-0.188c0.406-0.127,0.759-0.312,1.062-0.557c0.301-0.245,0.538-0.557,0.714-0.936
	c0.175-0.377,0.262-0.818,0.262-1.322c0-0.645-0.103-1.166-0.304-1.564c-0.203-0.398-0.474-0.711-0.81-0.936
	c-0.336-0.223-0.725-0.373-1.166-0.45c-0.44-0.077-0.899-0.116-1.375-0.116c-0.126,0-0.272,0.008-0.44,0.021
	c-0.168,0.013-0.336,0.027-0.504,0.041c-0.168,0.016-0.322,0.033-0.463,0.054c-0.14,0.021-0.244,0.038-0.314,0.052v5.775
	c0.098,0.027,0.228,0.049,0.389,0.063c0.161,0.016,0.336,0.029,0.525,0.043c0.188,0.014,0.381,0.021,0.578,0.021
	C391.8,93.118,391.989,93.118,392.171,93.118z"/>
<path fill="#F2F2F2" d="M399.689,83.963h1.154l0.315,1.26h0.084c0.322-0.49,0.738-0.865,1.25-1.123
	c0.511-0.26,1.095-0.389,1.753-0.389c1.4,0,2.443,0.412,3.129,1.238c0.687,0.826,1.029,2.178,1.029,4.053
	c0,0.883-0.116,1.678-0.347,2.385c-0.231,0.707-0.557,1.305-0.978,1.795c-0.42,0.49-0.927,0.868-1.521,1.135
	c-0.596,0.266-1.257,0.398-1.984,0.398c-0.518,0-0.928-0.031-1.229-0.095c-0.301-0.063-0.626-0.171-0.977-0.325v4.367h-1.68
	L399.689,83.963L399.689,83.963z M403.93,85.18c-0.714,0-1.277,0.188-1.689,0.557c-0.413,0.371-0.704,0.937-0.872,1.691v5.207
	c0.252,0.197,0.539,0.348,0.861,0.452c0.321,0.104,0.749,0.157,1.28,0.157c0.967,0,1.732-0.359,2.3-1.081
	c0.566-0.722,0.851-1.782,0.851-3.183c0-0.572-0.049-1.094-0.146-1.563c-0.099-0.47-0.256-0.868-0.473-1.196
	c-0.217-0.33-0.498-0.584-0.84-0.768C404.858,85.271,404.435,85.18,403.93,85.18z"/>
<path fill="#F2F2F2" d="M418.79,93.623c-0.42,0.336-0.949,0.602-1.586,0.797s-1.313,0.295-2.026,0.295
	c-0.798,0-1.49-0.13-2.078-0.389c-0.589-0.26-1.071-0.631-1.449-1.113s-0.658-1.061-0.84-1.732
	c-0.183-0.672-0.273-1.428-0.273-2.268c0-1.793,0.399-3.156,1.197-4.096c0.798-0.938,1.938-1.406,3.423-1.406
	c0.476,0,0.952,0.053,1.428,0.156c0.477,0.105,0.903,0.305,1.281,0.6c0.378,0.293,0.686,0.711,0.924,1.249
	c0.238,0.539,0.357,1.249,0.357,2.132c0,0.463-0.042,0.973-0.126,1.533h-6.741c0,0.615,0.063,1.162,0.188,1.639
	c0.126,0.476,0.322,0.877,0.589,1.207c0.266,0.328,0.611,0.58,1.04,0.756c0.427,0.176,0.947,0.263,1.563,0.263
	c0.476,0,0.952-0.084,1.428-0.252c0.477-0.168,0.833-0.363,1.071-0.589L418.79,93.623z M415.178,85.18
	c-0.825,0-1.487,0.219-1.983,0.652c-0.497,0.434-0.795,1.176-0.894,2.227h5.208c0-1.063-0.202-1.811-0.608-2.238
	C416.494,85.395,415.92,85.18,415.178,85.18z"/>
<path fill="#F2F2F2" d="M428.286,88.246l0.063-1.303h-0.063l-0.861,1.346l-4.725,6.174h-0.966v-10.5h1.68v6.404l-0.063,1.238h0.084
	l0.817-1.301l4.727-6.343h0.985v10.5h-1.68L428.286,88.246L428.286,88.246z M424.15,79.721c0.14,0.645,0.381,1.092,0.725,1.344
	c0.343,0.252,0.738,0.379,1.188,0.379c0.446,0,0.847-0.133,1.195-0.399c0.352-0.267,0.589-0.698,0.715-1.302l1.261,0.398
	c-0.126,0.813-0.487,1.437-1.082,1.869c-0.595,0.434-1.307,0.65-2.131,0.65c-0.378,0-0.753-0.049-1.124-0.146
	c-0.371-0.097-0.703-0.244-0.997-0.441c-0.294-0.194-0.546-0.446-0.756-0.756c-0.21-0.307-0.352-0.672-0.421-1.092L424.15,79.721z"
	/>
<path fill="#F2F2F2" d="M435.751,89.736h-0.966v4.727h-1.68v-10.5h1.68v4.746l0.903-0.295l3.358-4.451h1.827l-3.255,4.221
	l-0.882,0.693l1.092,0.84l3.507,4.746h-2.079L435.751,89.736z"/>
<path fill="#F2F2F2" d="M441.616,87.637h5.082v1.555h-5.082V87.637z"/>
<path fill="#F2F2F2" d="M458.059,97.129h-1.136l-0.313-2.666h-7.896l-0.313,2.666h-1.134v-4.137h1.237
	c0.112-0.154,0.259-0.43,0.441-0.829c0.182-0.399,0.359-0.959,0.535-1.681c0.175-0.721,0.329-1.617,0.462-2.688
	s0.214-2.349,0.242-3.832h6.342v9.028h1.533V97.129L458.059,97.129z M454.844,92.992v-7.561h-3.148
	c-0.028,0.588-0.077,1.229-0.147,1.922c-0.069,0.692-0.164,1.387-0.282,2.08c-0.119,0.691-0.271,1.346-0.451,1.963
	c-0.184,0.615-0.394,1.147-0.63,1.596H454.844z"/>
<path fill="#F2F2F2" d="M460.353,84.738c0.53-0.32,1.15-0.559,1.857-0.713s1.445-0.23,2.216-0.23c0.729,0,1.313,0.098,1.753,0.293
	c0.441,0.197,0.777,0.452,1.009,0.768c0.23,0.314,0.385,0.662,0.462,1.039c0.077,0.379,0.116,0.756,0.116,1.135
	c0,0.84-0.021,1.658-0.063,2.457c-0.042,0.798-0.063,1.554-0.063,2.269c0,0.519,0.021,1.009,0.063,1.47
	c0.042,0.463,0.119,0.891,0.231,1.28h-1.239l-0.441-1.47h-0.104c-0.126,0.195-0.283,0.389-0.474,0.576
	c-0.188,0.189-0.417,0.357-0.683,0.504c-0.266,0.148-0.574,0.271-0.924,0.369c-0.352,0.098-0.749,0.146-1.197,0.146
	s-0.864-0.07-1.249-0.211c-0.386-0.139-0.718-0.339-0.998-0.598c-0.28-0.26-0.5-0.57-0.661-0.936
	c-0.161-0.363-0.241-0.777-0.241-1.238c0-0.615,0.127-1.131,0.379-1.543c0.252-0.414,0.604-0.742,1.061-0.988
	c0.454-0.244,1-0.42,1.638-0.523c0.638-0.105,1.342-0.158,2.11-0.158c0.196,0,0.389,0,0.578,0c0.188,0,0.381,0.015,0.577,0.043
	c0.042-0.42,0.063-0.799,0.063-1.135c0-0.77-0.153-1.309-0.462-1.617c-0.308-0.308-0.868-0.463-1.68-0.463
	c-0.238,0-0.493,0.02-0.768,0.055c-0.271,0.037-0.553,0.086-0.84,0.152c-0.287,0.064-0.561,0.143-0.818,0.236
	c-0.259,0.093-0.486,0.197-0.684,0.313L460.353,84.738z M463.333,93.16c0.394,0,0.742-0.053,1.051-0.157s0.573-0.237,0.799-0.399
	c0.224-0.16,0.408-0.338,0.557-0.535c0.146-0.194,0.255-0.385,0.325-0.565v-1.744c-0.196-0.014-0.396-0.022-0.6-0.03
	c-0.203-0.006-0.401-0.01-0.599-0.01c-0.434,0-0.857,0.023-1.271,0.072c-0.413,0.05-0.777,0.141-1.093,0.271
	c-0.314,0.135-0.566,0.315-0.756,0.547c-0.188,0.23-0.284,0.521-0.284,0.871c0,0.49,0.177,0.894,0.525,1.207
	C462.339,93.003,462.787,93.16,463.333,93.16z"/>
<path fill="#F2F2F2" d="M477.278,89.82h-4.746v4.643h-1.68v-10.5h1.68v4.389h4.746v-4.389h1.68v10.5h-1.68V89.82z"/>
<path fill="#F2F2F2" d="M489.387,93.77c-0.42,0.31-0.917,0.543-1.49,0.703c-0.574,0.162-1.177,0.242-1.807,0.242
	c-0.813,0-1.499-0.13-2.059-0.389c-0.561-0.26-1.02-0.631-1.375-1.113c-0.357-0.482-0.616-1.064-0.777-1.742
	c-0.161-0.68-0.24-1.432-0.24-2.258c0-1.777,0.392-3.141,1.176-4.085s1.911-1.417,3.381-1.417c0.672,0,1.242,0.053,1.712,0.156
	c0.469,0.105,0.893,0.256,1.271,0.451l-0.482,1.449c-0.322-0.183-0.679-0.324-1.071-0.431c-0.392-0.104-0.812-0.157-1.26-0.157
	c-1.988,0-2.981,1.344-2.981,4.032c0,0.531,0.053,1.039,0.157,1.521c0.104,0.483,0.279,0.91,0.524,1.281s0.566,0.67,0.967,0.893
	c0.398,0.226,0.893,0.337,1.479,0.337c0.505,0,0.955-0.076,1.354-0.229c0.398-0.154,0.725-0.33,0.977-0.525L489.387,93.77z"/>
<path fill="#F2F2F2" d="M495.294,90.768l0.591,2.016h0.105l0.463-2.036l2.045-6.783h1.68l-3.106,9.429
	c-0.238,0.688-0.473,1.352-0.704,1.996c-0.23,0.643-0.486,1.217-0.767,1.721c-0.279,0.504-0.596,0.906-0.944,1.209
	c-0.351,0.301-0.756,0.451-1.218,0.451c-0.505,0-0.918-0.07-1.239-0.211l0.294-1.449c0.182,0.07,0.356,0.104,0.524,0.104
	c0.393,0,0.771-0.206,1.135-0.618c0.363-0.414,0.664-1.123,0.902-2.132l-4.222-10.5h1.933L495.294,90.768z"/>
<g>
	<path fill="#FFFFFF" d="M37.88,42.982c19.32-1.186,38.048,2.727,38.167,27.381c0.118,14.223-9.957,28.92-29.159,28.92
		c-15.765,0-27.262-10.193-27.973-27.023h18.253c0.119,5.451,3.674,8.297,9.246,8.297c5.808,0,9.364-3.438,9.482-10.193
		c-0.237-4.979-2.845-7.586-7.468-8.891c-8.416-2.488-21.928-0.711-28.091-0.592V14.654h51.679V32.67H37.88V42.982z"/>
</g>
<g>
	<path fill="#F2F2F2" d="M184.094,60.271c0-0.336,0.112-0.608,0.336-0.818c0.224-0.21,0.511-0.315,0.861-0.315
		c0.434,0,0.788,0.154,1.061,0.462c0.273,0.309,0.409,0.756,0.409,1.344c0,0.505-0.07,0.945-0.21,1.323s-0.322,0.704-0.546,0.977
		c-0.224,0.273-0.469,0.497-0.735,0.672c-0.266,0.175-0.532,0.305-0.798,0.389l-0.525-0.819c0.504-0.195,0.878-0.5,1.124-0.913
		s0.368-0.829,0.368-1.249c-0.126,0.042-0.245,0.063-0.357,0.063c-0.28,0-0.515-0.095-0.704-0.283
		C184.188,60.911,184.094,60.635,184.094,60.271z"/>
</g>
</svg>
