<?xml version="1.0" encoding="utf-8"?>
<!-- Generator: Adobe Illustrator 14.0.0, SVG Export Plug-In . SVG Version: 6.00 Build 43363)  -->
<!DOCTYPE svg PUBLIC "-//W3C//DTD SVG 1.1//EN" "http://www.w3.org/Graphics/SVG/1.1/DTD/svg11.dtd">
<svg version="1.1" id="Layer_1" xmlns="http://www.w3.org/2000/svg" xmlns:xlink="http://www.w3.org/1999/xlink" x="0px" y="0px"
	 width="426.167px" height="114px" viewBox="0 0 426.167 114" enable-background="new 0 0 426.167 114" xml:space="preserve">
<polygon fill="#E50647" points="391.167,63 391.167,48 402.834,48 402.834,0 0,0 0,46 0,48 0,63 0,91 0,114 426.167,114 426.167,63 
	"/>
<g>
	<path fill="#FFFFFF" d="M52.683,32.631c-4.741,0-8.179,2.252-8.179,8.061c-6.993,0-11.142,0-18.017,0
		c-0.237-17.898,11.853-26.67,26.551-27.025c23.825-0.592,34.255,22.995,21.928,42.078L58.254,78.977h24.654
		c0,7.23,0,11.734,0,18.965H24.592v-3.199l31.174-45.634C59.914,43.536,63.114,32.631,52.683,32.631z"/>
</g>
<g>
	<path fill="#FFFFFF" d="M112.634,25.248h-7.392v7.062h-1.826v-15.4h1.826v6.71h7.392v-6.71h1.826v15.4h-1.826V25.248z"/>
	<path fill="#FFFFFF" d="M126.054,31.43c-0.44,0.352-0.994,0.631-1.661,0.836c-0.667,0.205-1.375,0.308-2.123,0.308
		c-0.836,0-1.562-0.136-2.178-0.406c-0.616-0.271-1.122-0.66-1.518-1.166c-0.396-0.507-0.69-1.111-0.88-1.815
		s-0.286-1.496-0.286-2.376c0-1.877,0.418-3.308,1.254-4.29s2.031-1.474,3.586-1.474c0.499,0,0.997,0.055,1.496,0.165
		c0.499,0.109,0.946,0.318,1.342,0.627c0.396,0.308,0.719,0.744,0.968,1.309c0.249,0.564,0.374,1.31,0.374,2.233
		c0,0.483-0.044,1.02-0.132,1.605h-7.062c0,0.646,0.066,1.218,0.198,1.716c0.132,0.499,0.337,0.921,0.616,1.266
		c0.279,0.345,0.642,0.608,1.089,0.792c0.447,0.184,0.993,0.274,1.639,0.274c0.499,0,0.998-0.088,1.496-0.264
		s0.873-0.381,1.122-0.616L126.054,31.43z M122.27,22.586c-0.866,0-1.559,0.228-2.079,0.682c-0.521,0.455-0.833,1.232-0.935,2.332
		h5.456c0-1.114-0.212-1.896-0.638-2.343C123.648,22.81,123.047,22.586,122.27,22.586z"/>
	<path fill="#FFFFFF" d="M135.624,22.85h-4.664v9.46h-1.76v-11h6.424V22.85z"/>
	<path fill="#FFFFFF" d="M140.561,28.438l0.619,2.112h0.11l0.485-2.134l2.142-7.106h1.76l-3.256,9.878
		c-0.25,0.719-0.495,1.415-0.737,2.09s-0.51,1.276-0.803,1.805c-0.293,0.527-0.624,0.949-0.99,1.265
		c-0.367,0.315-0.792,0.473-1.276,0.473c-0.528,0-0.961-0.073-1.298-0.22l0.308-1.518c0.19,0.073,0.374,0.109,0.55,0.109
		c0.411,0,0.807-0.217,1.188-0.648c0.381-0.434,0.696-1.178,0.946-2.233l-4.422-11h2.024L140.561,28.438z"/>
	<path fill="#FFFFFF" d="M153.179,22.85h-3.19c-0.044,0.616-0.088,1.279-0.132,1.991c-0.044,0.711-0.11,1.423-0.198,2.134
		c-0.088,0.712-0.206,1.394-0.352,2.046c-0.147,0.653-0.334,1.229-0.561,1.728c-0.228,0.498-0.506,0.898-0.836,1.198
		c-0.33,0.301-0.722,0.451-1.177,0.451c-0.279,0-0.521-0.015-0.726-0.044c-0.206-0.029-0.389-0.08-0.55-0.154l0.264-1.474
		c0.176,0.059,0.367,0.088,0.572,0.088c0.293,0,0.557-0.124,0.792-0.374c0.234-0.249,0.44-0.722,0.616-1.419
		c0.176-0.696,0.323-1.661,0.44-2.893c0.117-1.232,0.198-2.838,0.242-4.818h6.556v11h-1.76V22.85z"/>
	<path fill="#FFFFFF" d="M163.805,27.756l-1.694,0.264l-2.904,4.29h-2.134l2.64-3.762l0.88-0.814
		c-0.763-0.117-1.412-0.425-1.947-0.924c-0.536-0.498-0.803-1.173-0.803-2.024c0-0.659,0.113-1.224,0.341-1.693
		s0.554-0.858,0.979-1.166c0.425-0.309,0.932-0.531,1.518-0.671s1.247-0.209,1.98-0.209c0.542,0,1.049,0.036,1.518,0.109
		c0.469,0.074,0.931,0.154,1.386,0.242V32.31h-1.76V27.756z M163.805,22.806c-0.19-0.073-0.403-0.128-0.638-0.165
		c-0.235-0.036-0.44-0.055-0.616-0.055c-0.939,0-1.654,0.168-2.145,0.506c-0.492,0.337-0.737,0.872-0.737,1.605
		c0,0.66,0.26,1.17,0.781,1.529s1.207,0.539,2.057,0.539c0.015,0,0.037,0,0.066,0s0.088,0,0.176,0c0.088,0,0.212-0.004,0.374-0.011
		c0.161-0.008,0.388-0.019,0.682-0.033V22.806z"/>
	<path fill="#FFFFFF" d="M168.777,21.31h1.21l0.33,1.32h0.088c0.337-0.514,0.773-0.905,1.309-1.178
		c0.535-0.271,1.147-0.406,1.837-0.406c1.467,0,2.56,0.433,3.278,1.298c0.718,0.865,1.078,2.28,1.078,4.246
		c0,0.924-0.121,1.756-0.363,2.497c-0.242,0.74-0.583,1.367-1.023,1.881s-0.972,0.909-1.595,1.188s-1.316,0.418-2.079,0.418
		c-0.543,0-0.972-0.032-1.287-0.099c-0.315-0.066-0.657-0.18-1.023-0.341v4.576h-1.76V21.31z M173.221,22.586
		c-0.748,0-1.339,0.194-1.771,0.583c-0.433,0.389-0.737,0.979-0.913,1.771v5.456c0.264,0.206,0.564,0.363,0.902,0.473
		c0.337,0.11,0.785,0.165,1.342,0.165c1.012,0,1.815-0.377,2.409-1.133c0.594-0.755,0.891-1.866,0.891-3.333
		c0-0.601-0.052-1.147-0.154-1.639c-0.103-0.491-0.268-0.909-0.495-1.254c-0.228-0.345-0.521-0.612-0.88-0.804
		C174.192,22.681,173.749,22.586,173.221,22.586z"/>
	<path fill="#FFFFFF" d="M187.41,27.447h-4.972v4.862h-1.76v-11h1.76v4.598h4.972V21.31h1.76v11h-1.76V27.447z"/>
	<path fill="#FFFFFF" d="M194.318,25.512c0.352-0.059,0.689-0.1,1.012-0.121c0.323-0.022,0.631-0.033,0.924-0.033
		c0.748,0,1.375,0.085,1.881,0.253c0.505,0.169,0.914,0.4,1.221,0.693s0.524,0.642,0.649,1.045c0.124,0.403,0.187,0.832,0.187,1.287
		c0,1.335-0.37,2.303-1.111,2.904c-0.741,0.602-1.939,0.901-3.597,0.901c-0.939,0-1.914-0.044-2.926-0.132v-11h1.76V25.512z
		 M194.318,30.77c0.542,0.088,1.063,0.132,1.562,0.132c0.924,0,1.569-0.18,1.936-0.539c0.366-0.359,0.55-0.869,0.55-1.528
		c0-0.587-0.18-1.071-0.539-1.452c-0.359-0.382-0.986-0.572-1.881-0.572c-0.25,0-0.521,0.008-0.814,0.022
		c-0.293,0.015-0.565,0.059-0.814,0.132V30.77z M201.929,21.31h1.761v11h-1.761V21.31z"/>
	<path fill="#FFFFFF" d="M215.108,31.43c-0.44,0.352-0.994,0.631-1.661,0.836c-0.668,0.205-1.375,0.308-2.123,0.308
		c-0.836,0-1.563-0.136-2.178-0.406c-0.616-0.271-1.122-0.66-1.518-1.166c-0.396-0.507-0.69-1.111-0.881-1.815
		s-0.285-1.496-0.285-2.376c0-1.877,0.418-3.308,1.254-4.29s2.031-1.474,3.586-1.474c0.498,0,0.996,0.055,1.496,0.165
		c0.498,0.109,0.945,0.318,1.342,0.627c0.396,0.308,0.719,0.744,0.968,1.309s0.374,1.31,0.374,2.233c0,0.483-0.044,1.02-0.133,1.605
		h-7.062c0,0.646,0.066,1.218,0.198,1.716c0.132,0.499,0.338,0.921,0.615,1.266c0.279,0.345,0.643,0.608,1.09,0.792
		s0.993,0.274,1.639,0.274c0.498,0,0.998-0.088,1.496-0.264s0.873-0.381,1.122-0.616L215.108,31.43z M211.324,22.586
		c-0.865,0-1.559,0.228-2.079,0.682c-0.521,0.455-0.833,1.232-0.935,2.332h5.455c0-1.114-0.212-1.896-0.637-2.343
		C212.703,22.81,212.101,22.586,211.324,22.586z"/>
	<path fill="#FFFFFF" d="M231.63,31.584c-0.44,0.322-0.96,0.568-1.562,0.736c-0.602,0.169-1.232,0.253-1.893,0.253
		c-0.851,0-1.569-0.136-2.156-0.406c-0.586-0.271-1.066-0.66-1.44-1.166c-0.374-0.507-0.646-1.115-0.813-1.826
		c-0.17-0.712-0.254-1.5-0.254-2.365c0-1.862,0.41-3.289,1.232-4.279c0.821-0.989,2.002-1.484,3.542-1.484
		c0.704,0,1.302,0.055,1.793,0.165c0.491,0.109,0.935,0.268,1.331,0.473l-0.506,1.518c-0.338-0.19-0.712-0.341-1.122-0.45
		c-0.411-0.11-0.851-0.165-1.32-0.165c-2.083,0-3.124,1.407-3.124,4.224c0,0.558,0.055,1.089,0.165,1.595s0.294,0.954,0.55,1.342
		c0.257,0.39,0.594,0.701,1.012,0.936s0.936,0.352,1.552,0.352c0.528,0,1.001-0.08,1.419-0.241c0.418-0.162,0.759-0.345,1.023-0.551
		L231.63,31.584z"/>
	<path fill="#FFFFFF" d="M236.206,25.512c0.353-0.059,0.685-0.1,1.001-0.121c0.314-0.022,0.619-0.033,0.913-0.033
		c0.763,0,1.407,0.085,1.936,0.253c0.528,0.169,0.957,0.4,1.287,0.693s0.568,0.642,0.716,1.045c0.146,0.403,0.219,0.832,0.219,1.287
		c0,1.335-0.399,2.303-1.198,2.904c-0.8,0.602-2.043,0.901-3.729,0.901c-0.484,0-0.961-0.011-1.43-0.033
		c-0.47-0.021-0.961-0.055-1.475-0.099v-9.46h-2.42v-1.54h4.181V25.512z M236.206,30.77c0.571,0.088,1.085,0.132,1.54,0.132
		c0.924,0,1.605-0.18,2.046-0.539s0.66-0.869,0.66-1.528c0-0.587-0.213-1.071-0.638-1.452c-0.426-0.382-1.094-0.572-2.002-0.572
		c-0.25,0-0.514,0.008-0.793,0.022c-0.278,0.015-0.55,0.059-0.813,0.132V30.77z"/>
	<path fill="#FFFFFF" d="M252.42,31.43c-0.439,0.352-0.994,0.631-1.66,0.836c-0.668,0.205-1.375,0.308-2.123,0.308
		c-0.836,0-1.563-0.136-2.178-0.406c-0.617-0.271-1.123-0.66-1.519-1.166c-0.396-0.507-0.69-1.111-0.88-1.815
		c-0.191-0.704-0.286-1.496-0.286-2.376c0-1.877,0.418-3.308,1.254-4.29s2.031-1.474,3.586-1.474c0.499,0,0.997,0.055,1.496,0.165
		c0.499,0.109,0.946,0.318,1.342,0.627c0.396,0.308,0.719,0.744,0.968,1.309c0.25,0.564,0.375,1.31,0.375,2.233
		c0,0.483-0.045,1.02-0.133,1.605h-7.063c0,0.646,0.066,1.218,0.199,1.716c0.131,0.499,0.337,0.921,0.615,1.266
		c0.279,0.345,0.642,0.608,1.09,0.792c0.447,0.184,0.992,0.274,1.639,0.274c0.498,0,0.997-0.088,1.496-0.264
		c0.498-0.176,0.872-0.381,1.121-0.616L252.42,31.43z M248.636,22.586c-0.866,0-1.559,0.228-2.08,0.682
		c-0.52,0.455-0.832,1.232-0.935,2.332h5.456c0-1.114-0.213-1.896-0.638-2.343C250.014,22.81,249.414,22.586,248.636,22.586z"/>
	<path fill="#FFFFFF" d="M264.652,25.775l0.132-2.09h-0.11l-0.792,1.694l-2.662,4.312h-0.615l-2.772-4.312l-0.726-1.694h-0.088
		l0.176,2.068v6.556h-1.628v-11h1.737l3.08,4.928l0.639,1.276h0.044l0.659-1.32l2.883-4.884h1.76v11h-1.716V25.775z"/>
	<path fill="#FFFFFF" d="M272.527,27.359h-1.012v4.95h-1.76v-11h1.76v4.972l0.946-0.308l3.52-4.664h1.914l-3.41,4.422l-0.924,0.727
		l1.144,0.88l3.675,4.972h-2.179L272.527,27.359z"/>
	<path fill="#FFFFFF" d="M287.135,25.798l0.066-1.364h-0.066l-0.901,1.408l-4.95,6.468h-1.012v-11h1.76v6.71l-0.066,1.298h0.088
		l0.858-1.364l4.95-6.644h1.034v11h-1.761V25.798z"/>
	<path fill="#FFFFFF" d="M301.401,28.438l0.618,2.112h0.11l0.486-2.134l2.142-7.106h1.76l-3.256,9.878
		c-0.249,0.719-0.495,1.415-0.737,2.09c-0.241,0.675-0.51,1.276-0.803,1.805c-0.293,0.527-0.623,0.949-0.99,1.265
		c-0.366,0.315-0.792,0.473-1.275,0.473c-0.528,0-0.961-0.073-1.298-0.22l0.308-1.518c0.19,0.073,0.374,0.109,0.55,0.109
		c0.411,0,0.807-0.217,1.188-0.648c0.381-0.434,0.696-1.178,0.945-2.233l-4.422-11h2.024L301.401,28.438z"/>
	<path fill="#FFFFFF" d="M309.552,21.31v2.992c0,0.396,0.022,0.752,0.066,1.066c0.044,0.316,0.132,0.587,0.264,0.814
		s0.322,0.403,0.572,0.528c0.249,0.124,0.579,0.187,0.99,0.187c0.659,0,1.202-0.073,1.628-0.22c0.425-0.146,0.748-0.309,0.968-0.484
		V21.31h1.76v11h-1.76v-4.62c-0.235,0.146-0.583,0.309-1.045,0.484s-1.097,0.264-1.903,0.264c-0.543,0-1.02-0.059-1.43-0.176
		c-0.411-0.117-0.756-0.322-1.034-0.616c-0.279-0.293-0.488-0.682-0.627-1.166c-0.14-0.484-0.209-1.093-0.209-1.826V21.31H309.552z"
		/>
	<path fill="#FFFFFF" d="M327.219,31.43c-0.439,0.352-0.993,0.631-1.66,0.836c-0.668,0.205-1.375,0.308-2.123,0.308
		c-0.837,0-1.563-0.136-2.179-0.406c-0.615-0.271-1.122-0.66-1.518-1.166c-0.396-0.507-0.689-1.111-0.88-1.815
		c-0.191-0.704-0.286-1.496-0.286-2.376c0-1.877,0.418-3.308,1.254-4.29s2.031-1.474,3.586-1.474c0.498,0,0.997,0.055,1.496,0.165
		c0.498,0.109,0.946,0.318,1.342,0.627c0.396,0.308,0.719,0.744,0.968,1.309c0.25,0.564,0.374,1.31,0.374,2.233
		c0,0.483-0.044,1.02-0.132,1.605h-7.062c0,0.646,0.065,1.218,0.197,1.716c0.133,0.499,0.338,0.921,0.616,1.266
		s0.642,0.608,1.089,0.792s0.994,0.274,1.64,0.274c0.498,0,0.997-0.088,1.496-0.264c0.498-0.176,0.872-0.381,1.122-0.616
		L327.219,31.43z M323.435,22.586c-0.866,0-1.559,0.228-2.079,0.682c-0.521,0.455-0.833,1.232-0.936,2.332h5.456
		c0-1.114-0.213-1.896-0.638-2.343C324.813,22.81,324.212,22.586,323.435,22.586z"/>
	<path fill="#FFFFFF" d="M337.096,27.447h-4.972v4.862h-1.76v-11h1.76v4.598h4.972V21.31h1.76v11h-1.76V27.447z"/>
	<path fill="#FFFFFF" d="M349.108,25.798l0.066-1.364h-0.066l-0.901,1.408l-4.95,6.468h-1.012v-11h1.76v6.71l-0.066,1.298h0.088
		l0.858-1.364l4.95-6.644h1.034v11h-1.761V25.798z"/>
	<path fill="#FFFFFF" d="M357.028,27.359h-1.012v4.95h-1.76v-11h1.76v4.972l0.946-0.308l3.52-4.664h1.914l-3.41,4.422l-0.924,0.727
		l1.144,0.88l3.675,4.972h-2.179L357.028,27.359z"/>
	<path fill="#FFFFFF" d="M363.915,26.81c0-1.862,0.414-3.289,1.243-4.279c0.828-0.989,2.02-1.484,3.575-1.484
		c0.82,0,1.536,0.136,2.145,0.406c0.608,0.272,1.111,0.66,1.507,1.166c0.396,0.507,0.689,1.115,0.88,1.826
		c0.19,0.712,0.286,1.5,0.286,2.365c0,1.862-0.414,3.289-1.243,4.279c-0.828,0.989-2.021,1.484-3.574,1.484
		c-0.822,0-1.537-0.136-2.146-0.406c-0.608-0.271-1.111-0.66-1.507-1.166c-0.396-0.507-0.689-1.115-0.88-1.826
		C364.01,28.463,363.915,27.675,363.915,26.81z M365.741,26.81c0,0.558,0.055,1.093,0.165,1.606c0.109,0.513,0.282,0.96,0.517,1.342
		c0.234,0.381,0.543,0.689,0.924,0.924c0.382,0.234,0.844,0.352,1.387,0.352c1.994,0.016,2.991-1.393,2.991-4.224
		c0-0.572-0.055-1.114-0.165-1.628c-0.109-0.514-0.282-0.961-0.517-1.342c-0.234-0.382-0.543-0.686-0.924-0.913
		c-0.382-0.228-0.844-0.341-1.386-0.341C366.738,22.571,365.741,23.979,365.741,26.81z"/>
	<path fill="#FFFFFF" d="M376.323,21.332c0.513-0.029,1.052-0.066,1.616-0.11s1.266-0.066,2.102-0.066
		c1.452,0,2.493,0.224,3.124,0.671c0.63,0.448,0.946,1.126,0.946,2.035c0,0.514-0.151,1.016-0.451,1.507
		c-0.301,0.492-0.796,0.854-1.485,1.09v0.088c0.865,0.161,1.474,0.462,1.826,0.901c0.352,0.44,0.528,1.027,0.528,1.761
		c0,1.144-0.411,1.973-1.232,2.485c-0.821,0.514-2.054,0.771-3.696,0.771c-0.615,0-1.188-0.019-1.716-0.056
		c-0.528-0.036-1.049-0.076-1.562-0.121V21.332z M380.239,25.951c0.264,0,0.521-0.044,0.77-0.132s0.473-0.209,0.671-0.362
		c0.198-0.154,0.359-0.334,0.484-0.539c0.124-0.206,0.187-0.426,0.187-0.66c0-0.587-0.176-0.994-0.527-1.222
		c-0.353-0.227-0.969-0.341-1.849-0.341c-0.47,0-0.84,0.008-1.11,0.022c-0.271,0.015-0.532,0.029-0.781,0.044v3.189H380.239z
		 M378.083,30.836c0.278,0.029,0.554,0.051,0.825,0.065c0.271,0.015,0.59,0.022,0.957,0.022c0.982,0,1.712-0.14,2.188-0.418
		s0.715-0.756,0.715-1.431c0-0.527-0.201-0.957-0.604-1.287c-0.403-0.329-1.119-0.494-2.146-0.494h-1.936V30.836z"/>
	<path fill="#FFFFFF" d="M113.117,67.104h-1.188l-0.33-2.794h-8.36v-11H105v9.46h4.774v-9.46h1.76v9.46h1.584V67.104z"/>
	<path fill="#FFFFFF" d="M123.325,63.43c-0.44,0.352-0.994,0.631-1.661,0.836c-0.667,0.205-1.375,0.308-2.123,0.308
		c-0.836,0-1.562-0.136-2.178-0.406c-0.616-0.271-1.122-0.66-1.518-1.166c-0.396-0.507-0.69-1.111-0.88-1.815
		s-0.286-1.496-0.286-2.376c0-1.877,0.418-3.308,1.254-4.29s2.031-1.474,3.586-1.474c0.499,0,0.997,0.055,1.496,0.165
		c0.499,0.109,0.946,0.318,1.342,0.627c0.396,0.308,0.719,0.744,0.968,1.309c0.249,0.564,0.374,1.31,0.374,2.233
		c0,0.483-0.044,1.02-0.132,1.605h-7.062c0,0.646,0.066,1.218,0.198,1.716c0.132,0.499,0.337,0.921,0.616,1.266
		c0.279,0.345,0.642,0.608,1.089,0.792c0.447,0.184,0.993,0.274,1.639,0.274c0.499,0,0.998-0.088,1.496-0.264
		s0.873-0.381,1.122-0.616L123.325,63.43z M119.541,54.586c-0.866,0-1.559,0.228-2.079,0.682c-0.521,0.455-0.833,1.232-0.935,2.332
		h5.456c0-1.114-0.212-1.896-0.638-2.343C120.92,54.81,120.319,54.586,119.541,54.586z"/>
	<path fill="#FFFFFF" d="M133.203,59.447h-4.972v4.862h-1.76v-11h1.76v4.598h4.972V53.31h1.76v11h-1.76V59.447z"/>
	<path fill="#FFFFFF" d="M145.369,54.85h-3.454v9.46h-1.76v-9.46h-3.454v-1.54h8.668V54.85z"/>
	<path fill="#FFFFFF" d="M147.107,53.31h1.21l0.33,1.32h0.088c0.337-0.514,0.773-0.905,1.309-1.178
		c0.535-0.271,1.147-0.406,1.837-0.406c1.467,0,2.56,0.433,3.278,1.298c0.718,0.865,1.078,2.28,1.078,4.246
		c0,0.924-0.121,1.756-0.363,2.497c-0.242,0.74-0.583,1.367-1.023,1.881s-0.972,0.909-1.595,1.188s-1.316,0.418-2.079,0.418
		c-0.543,0-0.972-0.032-1.287-0.099c-0.315-0.066-0.657-0.18-1.023-0.341v4.576h-1.76V53.31z M151.551,54.586
		c-0.748,0-1.339,0.194-1.771,0.583c-0.433,0.389-0.737,0.979-0.913,1.771v5.456c0.264,0.206,0.564,0.363,0.902,0.473
		c0.337,0.11,0.785,0.165,1.342,0.165c1.012,0,1.815-0.377,2.409-1.133c0.594-0.755,0.891-1.866,0.891-3.333
		c0-0.601-0.052-1.147-0.154-1.639c-0.103-0.491-0.268-0.909-0.495-1.254c-0.228-0.345-0.521-0.612-0.88-0.804
		C152.522,54.681,152.079,54.586,151.551,54.586z"/>
	<path fill="#FFFFFF" d="M158.833,54.124c0.557-0.338,1.206-0.587,1.947-0.748c0.741-0.162,1.514-0.242,2.321-0.242
		c0.762,0,1.375,0.103,1.837,0.308c0.462,0.206,0.814,0.474,1.056,0.803c0.242,0.33,0.403,0.693,0.484,1.09
		c0.081,0.396,0.121,0.792,0.121,1.188c0,0.88-0.022,1.738-0.066,2.574c-0.044,0.836-0.066,1.628-0.066,2.376
		c0,0.543,0.022,1.056,0.066,1.54c0.044,0.483,0.125,0.932,0.242,1.342h-1.298l-0.462-1.54h-0.11
		c-0.132,0.206-0.297,0.407-0.495,0.605c-0.198,0.197-0.437,0.374-0.715,0.527c-0.279,0.154-0.602,0.283-0.968,0.386
		c-0.367,0.102-0.785,0.153-1.254,0.153c-0.47,0-0.906-0.073-1.309-0.22c-0.404-0.146-0.752-0.355-1.045-0.627
		c-0.294-0.271-0.525-0.598-0.693-0.979c-0.168-0.381-0.253-0.813-0.253-1.298c0-0.645,0.132-1.184,0.396-1.617
		c0.264-0.432,0.634-0.776,1.111-1.033c0.476-0.257,1.048-0.44,1.716-0.551c0.667-0.109,1.404-0.165,2.211-0.165
		c0.205,0,0.407,0,0.605,0c0.198,0,0.399,0.016,0.605,0.045c0.044-0.44,0.066-0.837,0.066-1.188c0-0.807-0.162-1.371-0.484-1.694
		c-0.323-0.322-0.91-0.483-1.76-0.483c-0.25,0-0.517,0.019-0.803,0.057s-0.58,0.09-0.88,0.158c-0.301,0.068-0.587,0.151-0.858,0.249
		c-0.272,0.098-0.51,0.207-0.715,0.328L158.833,54.124z M161.957,62.945c0.41,0,0.777-0.055,1.1-0.165
		c0.322-0.109,0.601-0.249,0.836-0.418c0.234-0.168,0.429-0.355,0.583-0.561c0.154-0.205,0.267-0.403,0.341-0.594v-1.826
		c-0.206-0.015-0.415-0.025-0.627-0.033c-0.213-0.007-0.422-0.011-0.627-0.011c-0.455,0-0.898,0.025-1.331,0.077
		c-0.433,0.051-0.814,0.146-1.144,0.285c-0.33,0.14-0.594,0.33-0.792,0.572c-0.198,0.242-0.297,0.547-0.297,0.913
		c0,0.514,0.183,0.935,0.55,1.265S161.385,62.945,161.957,62.945z"/>
	<path fill="#FFFFFF" d="M175.794,53.332c0.513-0.029,1.052-0.066,1.617-0.11c0.564-0.044,1.265-0.066,2.101-0.066
		c1.452,0,2.493,0.224,3.124,0.671c0.63,0.448,0.946,1.126,0.946,2.035c0,0.514-0.15,1.016-0.451,1.507
		c-0.301,0.492-0.795,0.854-1.485,1.09v0.088c0.865,0.161,1.474,0.462,1.826,0.901c0.352,0.44,0.528,1.027,0.528,1.761
		c0,1.144-0.411,1.973-1.232,2.485c-0.821,0.514-2.054,0.771-3.696,0.771c-0.616,0-1.188-0.019-1.716-0.056
		c-0.528-0.036-1.049-0.076-1.562-0.121V53.332z M179.71,57.951c0.264,0,0.521-0.044,0.77-0.132s0.473-0.209,0.671-0.362
		c0.198-0.154,0.359-0.334,0.484-0.539c0.125-0.206,0.187-0.426,0.187-0.66c0-0.587-0.176-0.994-0.528-1.222
		c-0.352-0.227-0.968-0.341-1.848-0.341c-0.47,0-0.84,0.008-1.111,0.022s-0.532,0.029-0.781,0.044v3.189H179.71z M177.554,62.836
		c0.278,0.029,0.553,0.051,0.825,0.065s0.59,0.022,0.957,0.022c0.982,0,1.712-0.14,2.189-0.418s0.715-0.756,0.715-1.431
		c0-0.527-0.202-0.957-0.605-1.287c-0.404-0.329-1.119-0.494-2.145-0.494h-1.936V62.836z"/>
	<path fill="#FFFFFF" d="M199.268,54.85h-4.862v9.46h-1.76v-11h8.383v11h-1.761V54.85z"/>
	<path fill="#FFFFFF" d="M212.446,63.43c-0.44,0.352-0.994,0.631-1.661,0.836c-0.668,0.205-1.375,0.308-2.123,0.308
		c-0.836,0-1.563-0.136-2.178-0.406c-0.616-0.271-1.122-0.66-1.518-1.166c-0.396-0.507-0.69-1.111-0.881-1.815
		s-0.285-1.496-0.285-2.376c0-1.877,0.418-3.308,1.254-4.29s2.031-1.474,3.586-1.474c0.498,0,0.996,0.055,1.496,0.165
		c0.498,0.109,0.945,0.318,1.342,0.627c0.396,0.308,0.719,0.744,0.968,1.309s0.374,1.31,0.374,2.233c0,0.483-0.044,1.02-0.133,1.605
		h-7.062c0,0.646,0.066,1.218,0.198,1.716c0.132,0.499,0.338,0.921,0.615,1.266c0.279,0.345,0.643,0.608,1.09,0.792
		s0.993,0.274,1.639,0.274c0.498,0,0.998-0.088,1.496-0.264s0.873-0.381,1.122-0.616L212.446,63.43z M208.662,54.586
		c-0.865,0-1.559,0.228-2.079,0.682c-0.521,0.455-0.833,1.232-0.935,2.332h5.455c0-1.114-0.212-1.896-0.637-2.343
		C210.041,54.81,209.439,54.586,208.662,54.586z"/>
	<path fill="#FFFFFF" d="M215.592,53.31h1.21l0.33,1.32h0.088c0.337-0.514,0.773-0.905,1.31-1.178
		c0.535-0.271,1.146-0.406,1.836-0.406c1.467,0,2.561,0.433,3.279,1.298c0.718,0.865,1.078,2.28,1.078,4.246
		c0,0.924-0.121,1.756-0.363,2.497c-0.242,0.74-0.584,1.367-1.023,1.881s-0.972,0.909-1.596,1.188
		c-0.623,0.278-1.316,0.418-2.078,0.418c-0.543,0-0.973-0.032-1.287-0.099c-0.315-0.066-0.656-0.18-1.023-0.341v4.576h-1.76V53.31z
		 M220.036,54.586c-0.748,0-1.339,0.194-1.771,0.583c-0.434,0.389-0.738,0.979-0.914,1.771v5.456
		c0.264,0.206,0.564,0.363,0.902,0.473c0.338,0.11,0.785,0.165,1.342,0.165c1.012,0,1.815-0.377,2.409-1.133
		c0.595-0.755,0.892-1.866,0.892-3.333c0-0.601-0.053-1.147-0.154-1.639c-0.104-0.491-0.268-0.909-0.495-1.254
		s-0.521-0.612-0.88-0.804C221.008,54.681,220.564,54.586,220.036,54.586z"/>
	<path fill="#FFFFFF" d="M235.523,63.43c-0.439,0.352-0.994,0.631-1.66,0.836c-0.668,0.205-1.375,0.308-2.123,0.308
		c-0.836,0-1.563-0.136-2.178-0.406c-0.617-0.271-1.123-0.66-1.519-1.166c-0.396-0.507-0.69-1.111-0.88-1.815
		c-0.191-0.704-0.286-1.496-0.286-2.376c0-1.877,0.418-3.308,1.254-4.29s2.031-1.474,3.586-1.474c0.499,0,0.997,0.055,1.496,0.165
		c0.499,0.109,0.946,0.318,1.342,0.627c0.396,0.308,0.719,0.744,0.968,1.309c0.25,0.564,0.375,1.31,0.375,2.233
		c0,0.483-0.045,1.02-0.133,1.605h-7.063c0,0.646,0.066,1.218,0.199,1.716c0.131,0.499,0.337,0.921,0.615,1.266
		c0.279,0.345,0.642,0.608,1.09,0.792c0.447,0.184,0.992,0.274,1.639,0.274c0.498,0,0.997-0.088,1.496-0.264
		c0.498-0.176,0.872-0.381,1.121-0.616L235.523,63.43z M231.74,54.586c-0.866,0-1.559,0.228-2.08,0.682
		c-0.52,0.455-0.832,1.232-0.935,2.332h5.456c0-1.114-0.213-1.896-0.638-2.343C233.118,54.81,232.517,54.586,231.74,54.586z"/>
	<path fill="#FFFFFF" d="M247.91,67.104h-1.188l-0.33-2.794h-8.272l-0.33,2.794h-1.188V62.77h1.299
		c0.117-0.161,0.271-0.451,0.462-0.869s0.378-1.004,0.562-1.76c0.183-0.755,0.344-1.694,0.483-2.816s0.224-2.46,0.253-4.015h6.645
		v9.46h1.605V67.104z M244.544,62.77v-7.92h-3.3c-0.029,0.616-0.08,1.287-0.154,2.013c-0.073,0.727-0.172,1.452-0.297,2.179
		c-0.125,0.726-0.282,1.411-0.473,2.057c-0.191,0.646-0.411,1.203-0.66,1.672H244.544z"/>
	<path fill="#FFFFFF" d="M249.912,54.124c0.557-0.338,1.205-0.587,1.946-0.748c0.741-0.162,1.515-0.242,2.321-0.242
		c0.762,0,1.375,0.103,1.837,0.308c0.462,0.206,0.813,0.474,1.056,0.803c0.242,0.33,0.403,0.693,0.484,1.09
		c0.08,0.396,0.121,0.792,0.121,1.188c0,0.88-0.022,1.738-0.066,2.574s-0.065,1.628-0.065,2.376c0,0.543,0.021,1.056,0.065,1.54
		c0.044,0.483,0.125,0.932,0.242,1.342h-1.298l-0.462-1.54h-0.11c-0.132,0.206-0.297,0.407-0.495,0.605
		c-0.197,0.197-0.437,0.374-0.715,0.527c-0.279,0.154-0.602,0.283-0.968,0.386c-0.366,0.102-0.784,0.153-1.254,0.153
		s-0.905-0.073-1.31-0.22c-0.403-0.146-0.752-0.355-1.045-0.627s-0.524-0.598-0.693-0.979c-0.168-0.381-0.252-0.813-0.252-1.298
		c0-0.645,0.132-1.184,0.396-1.617c0.265-0.432,0.634-0.776,1.111-1.033c0.476-0.257,1.048-0.44,1.716-0.551
		c0.667-0.109,1.404-0.165,2.211-0.165c0.205,0,0.407,0,0.605,0c0.197,0,0.399,0.016,0.604,0.045
		c0.044-0.44,0.066-0.837,0.066-1.188c0-0.807-0.162-1.371-0.484-1.694c-0.323-0.322-0.909-0.483-1.76-0.483
		c-0.25,0-0.517,0.019-0.804,0.057c-0.285,0.038-0.579,0.09-0.879,0.158c-0.301,0.068-0.588,0.151-0.858,0.249
		c-0.272,0.098-0.51,0.207-0.716,0.328L249.912,54.124z M253.035,62.945c0.41,0,0.777-0.055,1.101-0.165
		c0.322-0.109,0.601-0.249,0.836-0.418c0.234-0.168,0.429-0.355,0.583-0.561s0.268-0.403,0.341-0.594v-1.826
		c-0.205-0.015-0.415-0.025-0.627-0.033c-0.213-0.007-0.422-0.011-0.627-0.011c-0.454,0-0.898,0.025-1.331,0.077
		c-0.433,0.051-0.814,0.146-1.145,0.285c-0.33,0.14-0.594,0.33-0.791,0.572c-0.198,0.242-0.297,0.547-0.297,0.913
		c0,0.514,0.183,0.935,0.549,1.265C251.994,62.78,252.463,62.945,253.035,62.945z"/>
	<path fill="#FFFFFF" d="M262.143,53.31v2.992c0,0.396,0.022,0.752,0.066,1.066c0.044,0.316,0.132,0.587,0.264,0.814
		s0.322,0.403,0.572,0.528c0.249,0.124,0.579,0.187,0.99,0.187c0.659,0,1.202-0.073,1.628-0.22c0.425-0.146,0.748-0.309,0.968-0.484
		V53.31h1.76v11h-1.76v-4.62c-0.235,0.146-0.583,0.309-1.045,0.484s-1.097,0.264-1.903,0.264c-0.543,0-1.02-0.059-1.43-0.176
		c-0.411-0.117-0.756-0.322-1.034-0.616c-0.279-0.293-0.488-0.682-0.627-1.166c-0.14-0.484-0.209-1.093-0.209-1.826V53.31H262.143z"
		/>
	<path fill="#FFFFFF" d="M279.808,63.43c-0.439,0.352-0.993,0.631-1.66,0.836c-0.668,0.205-1.375,0.308-2.123,0.308
		c-0.837,0-1.563-0.136-2.179-0.406c-0.615-0.271-1.122-0.66-1.518-1.166c-0.396-0.507-0.689-1.111-0.88-1.815
		c-0.191-0.704-0.286-1.496-0.286-2.376c0-1.877,0.418-3.308,1.254-4.29s2.031-1.474,3.586-1.474c0.498,0,0.997,0.055,1.496,0.165
		c0.498,0.109,0.946,0.318,1.342,0.627c0.396,0.308,0.719,0.744,0.968,1.309c0.25,0.564,0.374,1.31,0.374,2.233
		c0,0.483-0.044,1.02-0.132,1.605h-7.062c0,0.646,0.065,1.218,0.197,1.716c0.133,0.499,0.338,0.921,0.616,1.266
		s0.642,0.608,1.089,0.792s0.994,0.274,1.64,0.274c0.498,0,0.997-0.088,1.496-0.264c0.498-0.176,0.872-0.381,1.122-0.616
		L279.808,63.43z M276.025,54.586c-0.866,0-1.559,0.228-2.079,0.682c-0.521,0.455-0.833,1.232-0.936,2.332h5.456
		c0-1.114-0.213-1.896-0.638-2.343C277.403,54.81,276.802,54.586,276.025,54.586z"/>
	<path fill="#FFFFFF" d="M287.993,58.601l3.52-5.049l1.188,0.943l-2.156,3.184l-1.057,0.899l1.057,0.794l2.288,3.132l-1.188,0.97
		L287.993,58.601z M292.018,58.601l3.477-5.005l1.166,0.922l-2.135,3.161l-1.056,0.899l1.056,0.794l2.267,3.109l-1.145,0.948
		L292.018,58.601z"/>
	<path fill="#FFFFFF" d="M309.466,50.537h-4.797V64.31h-1.825V50.537h-4.796v-1.628h11.418V50.537z"/>
	<path fill="#FFFFFF" d="M308.959,54.124c0.558-0.338,1.207-0.587,1.947-0.748c0.74-0.162,1.515-0.242,2.321-0.242
		c0.763,0,1.375,0.103,1.837,0.308c0.462,0.206,0.813,0.474,1.056,0.803c0.242,0.33,0.403,0.693,0.484,1.09
		c0.08,0.396,0.121,0.792,0.121,1.188c0,0.88-0.022,1.738-0.066,2.574s-0.065,1.628-0.065,2.376c0,0.543,0.021,1.056,0.065,1.54
		c0.044,0.483,0.125,0.932,0.242,1.342h-1.298l-0.462-1.54h-0.11c-0.132,0.206-0.297,0.407-0.495,0.605
		c-0.197,0.197-0.437,0.374-0.715,0.527c-0.278,0.154-0.602,0.283-0.968,0.386c-0.367,0.102-0.785,0.153-1.254,0.153
		c-0.47,0-0.906-0.073-1.31-0.22s-0.751-0.355-1.045-0.627c-0.293-0.271-0.524-0.598-0.692-0.979
		c-0.169-0.381-0.253-0.813-0.253-1.298c0-0.645,0.132-1.184,0.396-1.617c0.264-0.432,0.635-0.776,1.111-1.033
		s1.048-0.44,1.716-0.551c0.667-0.109,1.404-0.165,2.211-0.165c0.205,0,0.407,0,0.605,0c0.197,0,0.399,0.016,0.604,0.045
		c0.044-0.44,0.066-0.837,0.066-1.188c0-0.807-0.162-1.371-0.484-1.694c-0.323-0.322-0.909-0.483-1.76-0.483
		c-0.25,0-0.518,0.019-0.803,0.057c-0.286,0.038-0.58,0.09-0.881,0.158s-0.586,0.151-0.857,0.249s-0.51,0.207-0.715,0.328
		L308.959,54.124z M312.083,62.945c0.411,0,0.777-0.055,1.101-0.165c0.322-0.109,0.601-0.249,0.836-0.418
		c0.234-0.168,0.429-0.355,0.583-0.561s0.268-0.403,0.341-0.594v-1.826c-0.205-0.015-0.414-0.025-0.627-0.033
		c-0.213-0.007-0.422-0.011-0.627-0.011c-0.455,0-0.898,0.025-1.331,0.077c-0.433,0.051-0.814,0.146-1.144,0.285
		c-0.33,0.14-0.595,0.33-0.792,0.572c-0.198,0.242-0.298,0.547-0.298,0.913c0,0.514,0.184,0.935,0.551,1.265
		C311.042,62.78,311.511,62.945,312.083,62.945z"/>
	<path fill="#FFFFFF" d="M326.778,59.447h-4.972v4.862h-1.76v-11h1.76v4.598h4.972V53.31h1.76v11h-1.76V59.447z"/>
	<path fill="#FFFFFF" d="M341.804,67.104h-1.188l-0.33-2.794h-8.359v-11h1.76v9.46h4.773v-9.46h1.761v9.46h1.584V67.104z"/>
	<path fill="#FFFFFF" d="M347.225,60.438l0.618,2.112h0.11l0.486-2.134l2.142-7.106h1.76l-3.256,9.878
		c-0.249,0.719-0.495,1.415-0.737,2.09c-0.241,0.675-0.51,1.276-0.803,1.805c-0.293,0.527-0.623,0.949-0.99,1.265
		c-0.366,0.315-0.792,0.473-1.275,0.473c-0.528,0-0.961-0.073-1.298-0.22l0.308-1.518c0.19,0.073,0.374,0.109,0.55,0.109
		c0.411,0,0.807-0.217,1.188-0.648c0.381-0.434,0.696-1.178,0.945-2.233l-4.422-11h2.024L347.225,60.438z"/>
	<path fill="#FFFFFF" d="M361.097,57.798l0.066-1.364h-0.066l-0.901,1.408l-4.95,6.468h-1.012v-11h1.76v6.71l-0.066,1.298h0.088
		l0.858-1.364l4.95-6.644h1.034v11h-1.761V57.798z M356.763,48.865c0.146,0.675,0.399,1.145,0.76,1.408
		c0.358,0.264,0.773,0.396,1.242,0.396c0.47,0,0.888-0.14,1.255-0.418c0.366-0.279,0.615-0.733,0.747-1.364l1.32,0.418
		c-0.132,0.851-0.51,1.504-1.133,1.958c-0.624,0.455-1.368,0.682-2.233,0.682c-0.396,0-0.788-0.051-1.177-0.153
		s-0.737-0.257-1.045-0.463c-0.308-0.205-0.572-0.469-0.792-0.792c-0.22-0.322-0.367-0.703-0.44-1.144L356.763,48.865z"/>
	<path fill="#FFFFFF" d="M370.206,58.402l-3.521,5.027l-1.144-0.926l2.111-3.175l1.078-0.904l-1.078-0.79l-2.243-3.096l1.144-0.943
		L370.206,58.402z M374.21,58.402l-3.521,5.071l-1.188-0.948l2.156-3.196l1.056-0.904l-1.056-0.79l-2.288-3.117l1.166-0.966
		L374.21,58.402z"/>
	<path fill="#FFFFFF" d="M109.971,91.447H105v4.862h-1.76v-11H105v4.598h4.972V85.31h1.76v11h-1.76V91.447z"/>
	<path fill="#FFFFFF" d="M114.944,86.124c0.557-0.338,1.206-0.587,1.947-0.748c0.741-0.162,1.514-0.242,2.321-0.242
		c0.762,0,1.375,0.103,1.837,0.308c0.462,0.206,0.814,0.474,1.056,0.803c0.242,0.33,0.403,0.693,0.484,1.09
		c0.081,0.396,0.121,0.792,0.121,1.188c0,0.88-0.022,1.738-0.066,2.574c-0.044,0.836-0.066,1.628-0.066,2.376
		c0,0.543,0.022,1.056,0.066,1.54c0.044,0.483,0.125,0.932,0.242,1.342h-1.298l-0.462-1.54h-0.11
		c-0.132,0.206-0.297,0.407-0.495,0.605c-0.198,0.197-0.437,0.374-0.715,0.527c-0.279,0.154-0.602,0.283-0.968,0.386
		c-0.367,0.102-0.785,0.153-1.254,0.153c-0.47,0-0.906-0.073-1.309-0.22c-0.404-0.146-0.752-0.355-1.045-0.627
		c-0.294-0.271-0.525-0.598-0.693-0.979c-0.168-0.381-0.253-0.813-0.253-1.298c0-0.645,0.132-1.184,0.396-1.617
		c0.264-0.432,0.634-0.776,1.111-1.033c0.476-0.257,1.048-0.44,1.716-0.551c0.667-0.109,1.404-0.165,2.211-0.165
		c0.205,0,0.407,0,0.605,0c0.198,0,0.399,0.016,0.605,0.045c0.044-0.44,0.066-0.837,0.066-1.188c0-0.807-0.162-1.371-0.484-1.694
		c-0.323-0.322-0.91-0.483-1.76-0.483c-0.25,0-0.517,0.019-0.803,0.057s-0.58,0.09-0.88,0.158c-0.301,0.068-0.587,0.151-0.858,0.249
		c-0.272,0.098-0.51,0.207-0.715,0.328L114.944,86.124z M118.068,94.945c0.41,0,0.777-0.055,1.1-0.165
		c0.322-0.109,0.601-0.249,0.836-0.418c0.234-0.168,0.429-0.355,0.583-0.561c0.154-0.205,0.267-0.403,0.341-0.594v-1.826
		c-0.206-0.015-0.415-0.025-0.627-0.033c-0.213-0.007-0.422-0.011-0.627-0.011c-0.455,0-0.898,0.025-1.331,0.077
		c-0.433,0.051-0.814,0.146-1.144,0.285c-0.33,0.14-0.594,0.33-0.792,0.572c-0.198,0.242-0.297,0.547-0.297,0.913
		c0,0.514,0.183,0.935,0.55,1.265S117.495,94.945,118.068,94.945z"/>
	<path fill="#FFFFFF" d="M131.069,90.601l3.52-5.049l1.188,0.943l-2.156,3.184l-1.056,0.899l1.056,0.794l2.288,3.132l-1.188,0.97
		L131.069,90.601z M135.095,90.601l3.476-5.005l1.166,0.922l-2.134,3.161l-1.056,0.899l1.056,0.794l2.266,3.109l-1.144,0.948
		L135.095,90.601z"/>
	<path fill="#FFFFFF" d="M150.847,82.537h-6.424V96.31h-1.826v-15.4h8.25V82.537z"/>
	<path fill="#FFFFFF" d="M149.109,90.81c0-1.862,0.414-3.289,1.243-4.279c0.829-0.989,2.021-1.484,3.575-1.484
		c0.821,0,1.536,0.136,2.145,0.406c0.608,0.272,1.111,0.66,1.507,1.166c0.396,0.507,0.689,1.115,0.88,1.826
		c0.19,0.712,0.286,1.5,0.286,2.365c0,1.862-0.415,3.289-1.243,4.279c-0.829,0.989-2.021,1.484-3.575,1.484
		c-0.822,0-1.537-0.136-2.145-0.406c-0.609-0.271-1.111-0.66-1.507-1.166c-0.396-0.507-0.69-1.115-0.88-1.826
		C149.204,92.463,149.109,91.675,149.109,90.81z M150.935,90.81c0,0.558,0.055,1.093,0.165,1.606c0.11,0.513,0.282,0.96,0.517,1.342
		c0.234,0.381,0.542,0.689,0.924,0.924s0.843,0.352,1.386,0.352c1.995,0.016,2.992-1.393,2.992-4.224
		c0-0.572-0.055-1.114-0.165-1.628c-0.11-0.514-0.283-0.961-0.517-1.342c-0.235-0.382-0.543-0.686-0.924-0.913
		c-0.382-0.228-0.844-0.341-1.386-0.341C151.932,86.571,150.935,87.979,150.935,90.81z"/>
	<path fill="#FFFFFF" d="M161.517,85.31h1.21l0.33,1.32h0.088c0.337-0.514,0.773-0.905,1.309-1.178
		c0.535-0.271,1.147-0.406,1.837-0.406c1.467,0,2.56,0.433,3.278,1.298c0.718,0.865,1.078,2.28,1.078,4.246
		c0,0.924-0.121,1.756-0.363,2.497c-0.242,0.74-0.583,1.367-1.023,1.881s-0.972,0.909-1.595,1.188s-1.316,0.418-2.079,0.418
		c-0.543,0-0.972-0.032-1.287-0.099c-0.315-0.066-0.657-0.18-1.023-0.341v4.576h-1.76V85.31z M165.961,86.586
		c-0.748,0-1.339,0.194-1.771,0.583c-0.433,0.389-0.737,0.979-0.913,1.771v5.456c0.264,0.206,0.564,0.363,0.902,0.473
		c0.337,0.11,0.785,0.165,1.342,0.165c1.012,0,1.815-0.377,2.409-1.133c0.594-0.755,0.891-1.866,0.891-3.333
		c0-0.601-0.052-1.147-0.154-1.639c-0.103-0.491-0.268-0.909-0.495-1.254c-0.228-0.345-0.521-0.612-0.88-0.804
		C166.932,86.681,166.489,86.586,165.961,86.586z"/>
	<path fill="#FFFFFF" d="M172.803,90.81c0-1.862,0.414-3.289,1.243-4.279c0.829-0.989,2.021-1.484,3.575-1.484
		c0.821,0,1.536,0.136,2.145,0.406c0.608,0.272,1.111,0.66,1.507,1.166c0.396,0.507,0.689,1.115,0.88,1.826
		c0.19,0.712,0.286,1.5,0.286,2.365c0,1.862-0.415,3.289-1.243,4.279c-0.829,0.989-2.021,1.484-3.575,1.484
		c-0.822,0-1.537-0.136-2.145-0.406c-0.609-0.271-1.111-0.66-1.507-1.166c-0.396-0.507-0.69-1.115-0.88-1.826
		C172.898,92.463,172.803,91.675,172.803,90.81z M174.629,90.81c0,0.558,0.055,1.093,0.165,1.606c0.11,0.513,0.282,0.96,0.517,1.342
		c0.234,0.381,0.542,0.689,0.924,0.924s0.843,0.352,1.386,0.352c1.995,0.016,2.992-1.393,2.992-4.224
		c0-0.572-0.055-1.114-0.165-1.628c-0.11-0.514-0.283-0.961-0.517-1.342c-0.235-0.382-0.543-0.686-0.924-0.913
		c-0.382-0.228-0.844-0.341-1.386-0.341C175.626,86.571,174.629,87.979,174.629,90.81z"/>
	<path fill="#FFFFFF" d="M194.802,99.104h-1.188l-0.33-2.794h-8.272l-0.33,2.794h-1.188V94.77h1.298
		c0.117-0.161,0.271-0.451,0.462-0.869c0.19-0.418,0.377-1.004,0.561-1.76c0.183-0.755,0.344-1.694,0.484-2.816
		c0.139-1.122,0.224-2.46,0.253-4.015h6.644v9.46h1.606V99.104z M191.436,94.77v-7.92h-3.3c-0.029,0.616-0.081,1.287-0.154,2.013
		c-0.074,0.727-0.173,1.452-0.297,2.179c-0.125,0.726-0.282,1.411-0.473,2.057c-0.191,0.646-0.411,1.203-0.66,1.672H191.436z"/>
	<path fill="#FFFFFF" d="M204.482,95.584c-0.439,0.322-0.961,0.568-1.563,0.736c-0.602,0.169-1.231,0.253-1.891,0.253
		c-0.852,0-1.57-0.136-2.156-0.406c-0.587-0.271-1.067-0.66-1.441-1.166c-0.374-0.507-0.646-1.115-0.814-1.826
		c-0.169-0.712-0.253-1.5-0.253-2.365c0-1.862,0.41-3.289,1.232-4.279c0.821-0.989,2.002-1.484,3.542-1.484
		c0.704,0,1.301,0.055,1.793,0.165c0.491,0.109,0.936,0.268,1.331,0.473l-0.506,1.518c-0.338-0.19-0.712-0.341-1.122-0.45
		c-0.411-0.11-0.852-0.165-1.32-0.165c-2.082,0-3.124,1.407-3.124,4.224c0,0.558,0.055,1.089,0.165,1.595
		c0.11,0.506,0.293,0.954,0.551,1.342c0.256,0.39,0.594,0.701,1.012,0.936s0.935,0.352,1.551,0.352c0.527,0,1.001-0.08,1.419-0.241
		c0.418-0.162,0.759-0.345,1.022-0.551L204.482,95.584z"/>
	<path fill="#FFFFFF" d="M209.674,91.359h-1.012v4.95h-1.76v-11h1.76v4.972l0.946-0.308l3.521-4.664h1.914l-3.41,4.422l-0.924,0.727
		l1.144,0.88l3.674,4.972h-2.178L209.674,91.359z"/>
	<path fill="#FFFFFF" d="M216.56,90.81c0-1.862,0.414-3.289,1.242-4.279c0.829-0.989,2.021-1.484,3.576-1.484
		c0.82,0,1.535,0.136,2.145,0.406c0.608,0.272,1.111,0.66,1.507,1.166c0.396,0.507,0.689,1.115,0.88,1.826
		c0.191,0.712,0.286,1.5,0.286,2.365c0,1.862-0.415,3.289-1.243,4.279c-0.828,0.989-2.021,1.484-3.574,1.484
		c-0.822,0-1.537-0.136-2.146-0.406c-0.608-0.271-1.11-0.66-1.507-1.166c-0.396-0.507-0.689-1.115-0.881-1.826
		C216.656,92.463,216.56,91.675,216.56,90.81z M218.386,90.81c0,0.558,0.055,1.093,0.164,1.606c0.111,0.513,0.283,0.96,0.518,1.342
		c0.234,0.381,0.543,0.689,0.924,0.924s0.844,0.352,1.387,0.352c1.994,0.016,2.992-1.393,2.992-4.224
		c0-0.572-0.056-1.114-0.166-1.628c-0.109-0.514-0.282-0.961-0.517-1.342c-0.235-0.382-0.543-0.686-0.924-0.913
		c-0.382-0.228-0.844-0.341-1.386-0.341C219.384,86.571,218.386,87.979,218.386,90.81z"/>
	<path fill="#FFFFFF" d="M238.054,89.775l0.132-2.09h-0.11l-0.792,1.694l-2.661,4.312h-0.617l-2.771-4.312l-0.727-1.694h-0.088
		l0.176,2.068v6.556h-1.627v-11h1.738l3.08,4.928l0.637,1.276h0.045l0.66-1.32l2.881-4.884h1.761v11h-1.716V89.775z"/>
	<path fill="#FFFFFF" d="M255.545,86.85h-3.455v9.46h-1.76v-9.46h-3.453v-1.54h8.668V86.85z"/>
	<path fill="#FFFFFF" d="M264.96,95.43c-0.439,0.352-0.993,0.631-1.66,0.836c-0.668,0.205-1.375,0.308-2.123,0.308
		c-0.837,0-1.563-0.136-2.179-0.406c-0.615-0.271-1.122-0.66-1.518-1.166c-0.396-0.507-0.689-1.111-0.88-1.815
		c-0.191-0.704-0.286-1.496-0.286-2.376c0-1.877,0.418-3.308,1.254-4.29s2.031-1.474,3.586-1.474c0.498,0,0.997,0.055,1.496,0.165
		c0.498,0.109,0.946,0.318,1.342,0.627c0.396,0.308,0.719,0.744,0.968,1.309c0.25,0.564,0.374,1.31,0.374,2.233
		c0,0.483-0.044,1.02-0.132,1.605h-7.062c0,0.646,0.065,1.218,0.197,1.716c0.133,0.499,0.338,0.921,0.616,1.266
		s0.642,0.608,1.089,0.792s0.994,0.274,1.64,0.274c0.498,0,0.997-0.088,1.496-0.264c0.498-0.176,0.872-0.381,1.122-0.616
		L264.96,95.43z M261.177,86.586c-0.866,0-1.559,0.228-2.079,0.682c-0.521,0.455-0.833,1.232-0.936,2.332h5.456
		c0-1.114-0.213-1.896-0.638-2.343C262.554,86.81,261.953,86.586,261.177,86.586z"/>
	<path fill="#FFFFFF" d="M273.541,86.85h-3.19c-0.044,0.616-0.088,1.279-0.132,1.991c-0.044,0.711-0.11,1.423-0.198,2.134
		c-0.088,0.712-0.205,1.394-0.352,2.046c-0.147,0.653-0.334,1.229-0.562,1.728c-0.228,0.498-0.506,0.898-0.836,1.198
		c-0.33,0.301-0.723,0.451-1.177,0.451c-0.278,0-0.521-0.015-0.726-0.044c-0.206-0.029-0.39-0.08-0.551-0.154l0.265-1.474
		c0.176,0.059,0.366,0.088,0.571,0.088c0.294,0,0.558-0.124,0.792-0.374c0.234-0.249,0.44-0.722,0.616-1.419
		c0.176-0.696,0.322-1.661,0.44-2.893c0.117-1.232,0.198-2.838,0.242-4.818h6.556v11h-1.76V86.85z"/>
	<path fill="#FFFFFF" d="M286.718,95.43c-0.439,0.352-0.993,0.631-1.66,0.836c-0.668,0.205-1.375,0.308-2.123,0.308
		c-0.837,0-1.563-0.136-2.179-0.406c-0.615-0.271-1.122-0.66-1.518-1.166c-0.396-0.507-0.689-1.111-0.88-1.815
		c-0.191-0.704-0.286-1.496-0.286-2.376c0-1.877,0.418-3.308,1.254-4.29s2.031-1.474,3.586-1.474c0.498,0,0.997,0.055,1.496,0.165
		c0.498,0.109,0.946,0.318,1.342,0.627c0.396,0.308,0.719,0.744,0.968,1.309c0.25,0.564,0.374,1.31,0.374,2.233
		c0,0.483-0.044,1.02-0.132,1.605h-7.062c0,0.646,0.065,1.218,0.197,1.716c0.133,0.499,0.338,0.921,0.616,1.266
		s0.642,0.608,1.089,0.792s0.994,0.274,1.64,0.274c0.498,0,0.997-0.088,1.496-0.264c0.498-0.176,0.872-0.381,1.122-0.616
		L286.718,95.43z M282.934,86.586c-0.866,0-1.559,0.228-2.079,0.682c-0.521,0.455-0.833,1.232-0.936,2.332h5.456
		c0-1.114-0.213-1.896-0.638-2.343C284.312,86.81,283.711,86.586,282.934,86.586z"/>
	<path fill="#FFFFFF" d="M292.635,91.359h-1.012v4.95h-1.76v-11h1.76v4.972l0.946-0.308l3.52-4.664h1.914l-3.41,4.422l-0.924,0.727
		l1.144,0.88l3.675,4.972h-2.179L292.635,91.359z"/>
	<path fill="#FFFFFF" d="M300.204,86.124c0.558-0.338,1.207-0.587,1.947-0.748c0.74-0.162,1.515-0.242,2.321-0.242
		c0.763,0,1.375,0.103,1.837,0.308c0.462,0.206,0.813,0.474,1.056,0.803c0.242,0.33,0.403,0.693,0.484,1.09
		c0.08,0.396,0.121,0.792,0.121,1.188c0,0.88-0.022,1.738-0.066,2.574s-0.065,1.628-0.065,2.376c0,0.543,0.021,1.056,0.065,1.54
		c0.044,0.483,0.125,0.932,0.242,1.342h-1.298l-0.462-1.54h-0.11c-0.132,0.206-0.297,0.407-0.495,0.605
		c-0.197,0.197-0.437,0.374-0.715,0.527c-0.278,0.154-0.602,0.283-0.968,0.386c-0.367,0.102-0.785,0.153-1.254,0.153
		c-0.47,0-0.906-0.073-1.31-0.22s-0.751-0.355-1.045-0.627c-0.293-0.271-0.524-0.598-0.692-0.979
		c-0.169-0.381-0.253-0.813-0.253-1.298c0-0.645,0.132-1.184,0.396-1.617c0.264-0.432,0.635-0.776,1.111-1.033
		s1.048-0.44,1.716-0.551c0.667-0.109,1.404-0.165,2.211-0.165c0.205,0,0.407,0,0.605,0c0.197,0,0.399,0.016,0.604,0.045
		c0.044-0.44,0.066-0.837,0.066-1.188c0-0.807-0.162-1.371-0.484-1.694c-0.323-0.322-0.909-0.483-1.76-0.483
		c-0.25,0-0.518,0.019-0.803,0.057c-0.286,0.038-0.58,0.09-0.881,0.158s-0.586,0.151-0.857,0.249s-0.51,0.207-0.715,0.328
		L300.204,86.124z M303.328,94.945c0.411,0,0.777-0.055,1.101-0.165c0.322-0.109,0.601-0.249,0.836-0.418
		c0.234-0.168,0.429-0.355,0.583-0.561s0.268-0.403,0.341-0.594v-1.826c-0.205-0.015-0.414-0.025-0.627-0.033
		c-0.213-0.007-0.422-0.011-0.627-0.011c-0.455,0-0.898,0.025-1.331,0.077c-0.433,0.051-0.814,0.146-1.144,0.285
		c-0.33,0.14-0.595,0.33-0.792,0.572c-0.198,0.242-0.298,0.547-0.298,0.913c0,0.514,0.184,0.935,0.551,1.265
		C302.287,94.78,302.757,94.945,303.328,94.945z"/>
	<path fill="#FFFFFF" d="M318.023,91.447h-4.972v4.862h-1.76v-11h1.76v4.598h4.972V85.31h1.76v11h-1.76V91.447z"/>
	<path fill="#FFFFFF" d="M322.995,86.124c0.558-0.338,1.207-0.587,1.947-0.748c0.74-0.162,1.515-0.242,2.321-0.242
		c0.763,0,1.375,0.103,1.837,0.308c0.462,0.206,0.813,0.474,1.056,0.803c0.242,0.33,0.403,0.693,0.484,1.09
		c0.08,0.396,0.121,0.792,0.121,1.188c0,0.88-0.022,1.738-0.066,2.574s-0.065,1.628-0.065,2.376c0,0.543,0.021,1.056,0.065,1.54
		c0.044,0.483,0.125,0.932,0.242,1.342h-1.298l-0.462-1.54h-0.11c-0.132,0.206-0.297,0.407-0.495,0.605
		c-0.197,0.197-0.437,0.374-0.715,0.527c-0.278,0.154-0.602,0.283-0.968,0.386c-0.367,0.102-0.785,0.153-1.254,0.153
		c-0.47,0-0.906-0.073-1.31-0.22s-0.751-0.355-1.045-0.627c-0.293-0.271-0.524-0.598-0.692-0.979
		c-0.169-0.381-0.253-0.813-0.253-1.298c0-0.645,0.132-1.184,0.396-1.617c0.264-0.432,0.635-0.776,1.111-1.033
		s1.048-0.44,1.716-0.551c0.667-0.109,1.404-0.165,2.211-0.165c0.205,0,0.407,0,0.605,0c0.197,0,0.399,0.016,0.604,0.045
		c0.044-0.44,0.066-0.837,0.066-1.188c0-0.807-0.162-1.371-0.484-1.694c-0.323-0.322-0.909-0.483-1.76-0.483
		c-0.25,0-0.518,0.019-0.803,0.057c-0.286,0.038-0.58,0.09-0.881,0.158s-0.586,0.151-0.857,0.249s-0.51,0.207-0.715,0.328
		L322.995,86.124z M326.119,94.945c0.411,0,0.777-0.055,1.101-0.165c0.322-0.109,0.601-0.249,0.836-0.418
		c0.234-0.168,0.429-0.355,0.583-0.561s0.268-0.403,0.341-0.594v-1.826c-0.205-0.015-0.414-0.025-0.627-0.033
		c-0.213-0.007-0.422-0.011-0.627-0.011c-0.455,0-0.898,0.025-1.331,0.077c-0.433,0.051-0.814,0.146-1.144,0.285
		c-0.33,0.14-0.595,0.33-0.792,0.572c-0.198,0.242-0.298,0.547-0.298,0.913c0,0.514,0.184,0.935,0.551,1.265
		C325.078,94.78,325.548,94.945,326.119,94.945z"/>
	<path fill="#FFFFFF" d="M340.002,86.85h-3.19c-0.044,0.616-0.088,1.279-0.132,1.991c-0.044,0.711-0.11,1.423-0.198,2.134
		c-0.088,0.712-0.205,1.394-0.352,2.046c-0.147,0.653-0.334,1.229-0.562,1.728c-0.228,0.498-0.506,0.898-0.836,1.198
		c-0.33,0.301-0.723,0.451-1.177,0.451c-0.278,0-0.521-0.015-0.726-0.044c-0.206-0.029-0.39-0.08-0.551-0.154l0.265-1.474
		c0.176,0.059,0.366,0.088,0.571,0.088c0.294,0,0.558-0.124,0.792-0.374c0.234-0.249,0.44-0.722,0.616-1.419
		c0.176-0.696,0.322-1.661,0.44-2.893c0.117-1.232,0.198-2.838,0.242-4.818h6.556v11h-1.76V86.85z"/>
	<path fill="#FFFFFF" d="M353.178,95.43c-0.439,0.352-0.993,0.631-1.66,0.836c-0.668,0.205-1.375,0.308-2.123,0.308
		c-0.837,0-1.563-0.136-2.179-0.406c-0.615-0.271-1.122-0.66-1.518-1.166c-0.396-0.507-0.689-1.111-0.88-1.815
		c-0.191-0.704-0.286-1.496-0.286-2.376c0-1.877,0.418-3.308,1.254-4.29s2.031-1.474,3.586-1.474c0.498,0,0.997,0.055,1.496,0.165
		c0.498,0.109,0.946,0.318,1.342,0.627c0.396,0.308,0.719,0.744,0.968,1.309c0.25,0.564,0.374,1.31,0.374,2.233
		c0,0.483-0.044,1.02-0.132,1.605h-7.062c0,0.646,0.065,1.218,0.197,1.716c0.133,0.499,0.338,0.921,0.616,1.266
		s0.642,0.608,1.089,0.792s0.994,0.274,1.64,0.274c0.498,0,0.997-0.088,1.496-0.264c0.498-0.176,0.872-0.381,1.122-0.616
		L353.178,95.43z M349.395,86.586c-0.866,0-1.559,0.228-2.079,0.682c-0.521,0.455-0.833,1.232-0.936,2.332h5.456
		c0-1.114-0.213-1.896-0.638-2.343C350.773,86.81,350.172,86.586,349.395,86.586z"/>
	<path fill="#FFFFFF" d="M371.219,80.909h1.76v10.274c0,0.924-0.121,1.724-0.362,2.398c-0.242,0.675-0.587,1.229-1.034,1.66
		c-0.447,0.434-0.986,0.752-1.617,0.957c-0.631,0.206-1.327,0.309-2.09,0.309c-1.819,0-3.19-0.411-4.114-1.232
		s-1.386-2.067-1.386-3.74V80.909h1.826v9.769c0,0.777,0.077,1.434,0.23,1.969c0.154,0.536,0.385,0.968,0.693,1.298
		c0.308,0.33,0.693,0.568,1.155,0.715c0.462,0.147,1.001,0.221,1.616,0.221c1.188,0,2.039-0.326,2.553-0.979
		c0.513-0.652,0.77-1.727,0.77-3.223V80.909z"/>
	<path fill="#FFFFFF" d="M386.663,82.537h-4.797V96.31h-1.825V82.537h-4.796v-1.628h11.418V82.537z"/>
	<path fill="#FFFFFF" d="M392.932,91.491l0.528,2.332h0.021l0.572-2.376l3.718-10.538h1.826l-5.83,15.643h-0.813l-5.94-15.643h2.002
		L392.932,91.491z"/>
	<path fill="#FFFFFF" d="M405.209,90.402l-3.521,5.027l-1.144-0.926l2.111-3.175l1.078-0.904l-1.078-0.79l-2.243-3.096l1.144-0.943
		L405.209,90.402z M409.213,90.402l-3.521,5.071l-1.188-0.948l2.156-3.196l1.056-0.904l-1.056-0.79l-2.288-3.117l1.166-0.966
		L409.213,90.402z"/>
</g>
</svg>
