<?xml version="1.0" encoding="utf-8"?>
<!-- Generator: Adobe Illustrator 14.0.0, SVG Export Plug-In . SVG Version: 6.00 Build 43363)  -->
<!DOCTYPE svg PUBLIC "-//W3C//DTD SVG 1.1//EN" "http://www.w3.org/Graphics/SVG/1.1/DTD/svg11.dtd">
<svg version="1.1" id="Layer_1" xmlns="http://www.w3.org/2000/svg" xmlns:xlink="http://www.w3.org/1999/xlink" x="0px" y="0px"
	 width="512px" height="112px" viewBox="-0.317 3.024 512 112" enable-background="new -0.317 3.024 512 112" xml:space="preserve">
<g>
	<polygon fill="#E50647" points="511.051,81.783 -0.096,81.783 -0.317,37.723 510.831,37.723 	"/>
	<polygon fill="#E50647" points="466.417,46.216 -0.116,46.216 -0.317,3.024 466.216,3.024 	"/>
	<polygon fill="#E50647" points="432.634,114.31 -0.13,114.31 -0.317,42.496 432.445,42.496 	"/>
	<g>
		<path fill="#FFFFFF" d="M28.362,34.614V17.427h31.885v65.665h12.563v17.306H27.295V83.092h12.327V34.614H28.362z"/>
	</g>
	<g>
		<path fill="#FFFFFF" d="M101.717,25.185v-1.54h0.352c0.134,0,0.295,0,0.484,0c0.19,0,0.385-0.007,0.583-0.021
			s0.388-0.024,0.572-0.032c0.184-0.008,0.333-0.025,0.451-0.056c0.381-0.059,0.738-0.158,1.078-0.297
			c0.337-0.14,0.63-0.319,0.88-0.539c0.249-0.221,0.445-0.477,0.594-0.771c0.146-0.293,0.22-0.616,0.22-0.969
			c0-0.483-0.081-0.888-0.242-1.21c-0.161-0.321-0.385-0.583-0.671-0.78c-0.286-0.198-0.616-0.337-0.988-0.418
			c-0.374-0.08-0.774-0.121-1.199-0.121c-0.792,0-1.467,0.055-2.024,0.165c-0.558,0.109-1.005,0.246-1.342,0.406l-0.484-1.451
			c0.293-0.161,0.821-0.326,1.584-0.495c0.765-0.168,1.621-0.253,2.574-0.253c0.586,0,1.162,0.063,1.729,0.188
			c0.563,0.124,1.068,0.329,1.518,0.615c0.447,0.286,0.806,0.675,1.078,1.166c0.271,0.492,0.407,1.097,0.407,1.814
			c0,0.733-0.242,1.435-0.728,2.102c-0.482,0.668-1.21,1.147-2.178,1.44v0.089c1.041,0.146,1.862,0.534,2.464,1.166
			c0.602,0.631,0.902,1.474,0.902,2.529c0,0.836-0.165,1.56-0.495,2.167c-0.33,0.608-0.763,1.11-1.298,1.507
			c-0.536,0.396-1.151,0.687-1.85,0.869c-0.695,0.184-1.402,0.274-2.123,0.274c-0.968,0-1.764-0.055-2.387-0.165
			c-0.624-0.109-1.141-0.245-1.551-0.406l0.462-1.628c0.337,0.155,0.81,0.289,1.419,0.402c0.608,0.112,1.345,0.169,2.211,0.169
			c0.455,0,0.902-0.063,1.342-0.188c0.44-0.125,0.833-0.314,1.179-0.571c0.344-0.258,0.621-0.575,0.836-0.957
			c0.212-0.382,0.317-0.836,0.317-1.364c0-0.924-0.323-1.603-0.968-2.034c-0.646-0.433-1.489-0.686-2.53-0.76
			c-0.176-0.015-0.341-0.025-0.495-0.033c-0.152-0.007-0.312-0.011-0.473-0.011L101.717,25.185L101.717,25.185z"/>
		<path fill="#FFFFFF" d="M119.119,25.956l0.064-1.363h-0.064L118.217,26l-4.95,6.469h-1.012v-11h1.76v6.71l-0.064,1.298h0.088
			l0.856-1.364l4.95-6.644h1.034v11h-1.76V25.956z"/>
		<path fill="#FFFFFF" d="M133.351,25.933l0.132-2.09h-0.108l-0.792,1.693l-2.662,4.313h-0.616l-2.771-4.313l-0.728-1.693h-0.088
			l0.176,2.067v6.557h-1.628v-11h1.738l3.08,4.928l0.638,1.275h0.044l0.66-1.319l2.882-4.884h1.761v11h-1.717L133.351,25.933
			L133.351,25.933z"/>
		<path fill="#FFFFFF" d="M145.187,27.604h-4.972v4.862h-1.76v-11h1.76v4.598h4.972v-4.598h1.762v11h-1.762V27.604z"/>
		<path fill="#FFFFFF" d="M158.366,31.587c-0.44,0.353-0.994,0.632-1.661,0.837c-0.667,0.204-1.375,0.308-2.123,0.308
			c-0.836,0-1.563-0.136-2.178-0.406c-0.616-0.271-1.122-0.66-1.52-1.166c-0.396-0.507-0.688-1.11-0.88-1.814
			s-0.286-1.496-0.286-2.376c0-1.877,0.418-3.309,1.254-4.29c0.836-0.982,2.031-1.475,3.586-1.475c0.499,0,0.997,0.056,1.496,0.165
			s0.946,0.318,1.342,0.627c0.396,0.309,0.721,0.744,0.97,1.31c0.249,0.563,0.374,1.31,0.374,2.232c0,0.483-0.044,1.021-0.134,1.605
			h-7.062c0,0.646,0.065,1.218,0.198,1.716c0.132,0.499,0.337,0.921,0.614,1.266c0.279,0.346,0.644,0.608,1.091,0.792
			c0.445,0.185,0.991,0.274,1.639,0.274c0.499,0,0.998-0.088,1.496-0.264c0.498-0.177,0.873-0.382,1.122-0.616L158.366,31.587z
			 M154.582,22.744c-0.866,0-1.561,0.229-2.079,0.683c-0.521,0.454-0.833,1.231-0.937,2.332h5.456c0-1.114-0.212-1.896-0.638-2.344
			S155.358,22.744,154.582,22.744z"/>
		<path fill="#FFFFFF" d="M169.3,31.587c-0.44,0.353-0.994,0.632-1.661,0.837c-0.667,0.204-1.375,0.308-2.123,0.308
			c-0.836,0-1.562-0.136-2.178-0.406s-1.122-0.66-1.518-1.166c-0.396-0.507-0.69-1.11-0.882-1.814
			c-0.188-0.704-0.284-1.496-0.284-2.376c0-1.877,0.418-3.309,1.254-4.29c0.836-0.982,2.029-1.475,3.586-1.475
			c0.499,0,0.997,0.056,1.496,0.165s0.944,0.318,1.342,0.627c0.396,0.309,0.719,0.744,0.968,1.31
			c0.249,0.563,0.374,1.31,0.374,2.232c0,0.483-0.044,1.021-0.132,1.605h-7.063c0,0.646,0.066,1.218,0.198,1.716
			c0.132,0.499,0.337,0.921,0.616,1.266c0.279,0.346,0.642,0.608,1.089,0.792c0.447,0.185,0.993,0.274,1.639,0.274
			c0.499,0,0.998-0.088,1.496-0.264c0.498-0.177,0.873-0.382,1.122-0.616L169.3,31.587z M165.515,22.744
			c-0.866,0-1.559,0.229-2.079,0.683c-0.52,0.454-0.833,1.231-0.935,2.332h5.456c0-1.114-0.212-1.896-0.638-2.344
			C166.893,22.967,166.294,22.744,165.515,22.744z"/>
		<path fill="#FFFFFF" d="M185.183,25.956l0.066-1.363h-0.066l-0.9,1.407l-4.95,6.469h-1.012v-11h1.76v6.71l-0.066,1.298h0.088
			l0.858-1.364l4.95-6.644h1.032v11h-1.76V25.956L185.183,25.956z"/>
		<path fill="#FFFFFF" d="M196.206,21.49c0.513-0.029,1.052-0.065,1.617-0.11c0.563-0.044,1.265-0.065,2.101-0.065
			c1.452,0,2.493,0.224,3.124,0.671c0.63,0.448,0.946,1.126,0.946,2.035c0,0.514-0.15,1.016-0.451,1.507
			c-0.301,0.492-0.795,0.854-1.485,1.09v0.088c0.865,0.161,1.476,0.462,1.826,0.901s0.528,1.027,0.528,1.761
			c0,1.145-0.411,1.974-1.232,2.485c-0.821,0.514-2.054,0.771-3.696,0.771c-0.614,0-1.188-0.019-1.716-0.056
			c-0.526-0.036-1.049-0.076-1.562-0.121V21.49z M200.122,26.108c0.264,0,0.521-0.044,0.77-0.132s0.475-0.209,0.671-0.362
			c0.198-0.154,0.359-0.334,0.484-0.539c0.125-0.206,0.187-0.426,0.187-0.66c0-0.587-0.176-0.994-0.526-1.222
			c-0.354-0.227-0.968-0.341-1.85-0.341c-0.47,0-0.84,0.008-1.109,0.021c-0.271,0.015-0.532,0.029-0.781,0.044v3.189L200.122,26.108
			L200.122,26.108z M197.966,30.994c0.278,0.029,0.553,0.051,0.825,0.065c0.271,0.014,0.59,0.021,0.957,0.021
			c0.98,0,1.712-0.14,2.188-0.418c0.479-0.277,0.715-0.756,0.715-1.431c0-0.527-0.2-0.957-0.604-1.287
			c-0.404-0.329-1.119-0.494-2.146-0.494h-1.936L197.966,30.994L197.966,30.994z"/>
		<path fill="#FFFFFF" d="M215.214,31.587c-0.44,0.353-0.994,0.632-1.661,0.837c-0.667,0.204-1.375,0.308-2.123,0.308
			c-0.836,0-1.562-0.136-2.178-0.406s-1.122-0.66-1.52-1.166c-0.396-0.507-0.688-1.11-0.88-1.814
			c-0.188-0.704-0.286-1.496-0.286-2.376c0-1.877,0.418-3.309,1.256-4.29c0.836-0.982,2.029-1.475,3.586-1.475
			c0.499,0,0.997,0.056,1.496,0.165c0.497,0.109,0.944,0.318,1.342,0.627c0.396,0.309,0.719,0.744,0.968,1.31
			c0.249,0.563,0.374,1.31,0.374,2.232c0,0.483-0.044,1.021-0.132,1.605h-7.063c0,0.646,0.066,1.218,0.198,1.716
			c0.132,0.499,0.337,0.921,0.616,1.266c0.278,0.346,0.642,0.608,1.089,0.792c0.447,0.185,0.993,0.274,1.639,0.274
			c0.499,0,0.998-0.088,1.496-0.264c0.498-0.177,0.873-0.382,1.122-0.616L215.214,31.587z M211.428,22.744
			c-0.866,0-1.559,0.229-2.079,0.683c-0.52,0.454-0.833,1.231-0.935,2.332h5.456c0-1.114-0.212-1.896-0.64-2.344
			C212.807,22.967,212.207,22.744,211.428,22.744z"/>
		<path fill="#FFFFFF" d="M225.62,31.742c-0.44,0.322-0.96,0.568-1.563,0.736c-0.602,0.169-1.23,0.253-1.892,0.253
			c-0.853,0-1.57-0.136-2.156-0.406c-0.587-0.271-1.067-0.66-1.441-1.166c-0.372-0.507-0.646-1.115-0.813-1.826
			c-0.169-0.712-0.253-1.5-0.253-2.364c0-1.862,0.41-3.289,1.23-4.279c0.821-0.989,2.002-1.484,3.542-1.484
			c0.704,0,1.303,0.056,1.793,0.165c0.491,0.109,0.937,0.269,1.331,0.474l-0.506,1.518c-0.338-0.189-0.712-0.341-1.122-0.45
			c-0.409-0.109-0.851-0.165-1.318-0.165c-2.083,0-3.124,1.407-3.124,4.225c0,0.558,0.055,1.089,0.165,1.595
			c0.108,0.506,0.293,0.954,0.55,1.342c0.256,0.39,0.594,0.701,1.012,0.937c0.418,0.234,0.937,0.352,1.551,0.352
			c0.528,0,1.001-0.08,1.419-0.241c0.418-0.162,0.761-0.345,1.023-0.551L225.62,31.742z"/>
		<path fill="#FFFFFF" d="M235.563,31.587c-0.438,0.353-0.992,0.632-1.659,0.837c-0.669,0.204-1.375,0.308-2.123,0.308
			c-0.838,0-1.563-0.136-2.18-0.406c-0.614-0.271-1.122-0.66-1.518-1.166c-0.396-0.507-0.69-1.11-0.88-1.814
			c-0.19-0.704-0.286-1.496-0.286-2.376c0-1.877,0.418-3.309,1.254-4.29c0.836-0.982,2.031-1.475,3.586-1.475
			c0.499,0,0.997,0.056,1.496,0.165s0.946,0.318,1.342,0.627c0.396,0.309,0.719,0.744,0.968,1.31
			c0.249,0.563,0.374,1.31,0.374,2.232c0,0.483-0.044,1.021-0.132,1.605h-7.062c0,0.646,0.064,1.218,0.196,1.716
			c0.134,0.499,0.339,0.921,0.616,1.266c0.279,0.346,0.644,0.608,1.089,0.792c0.447,0.185,0.993,0.274,1.641,0.274
			c0.499,0,0.998-0.088,1.496-0.264c0.498-0.177,0.873-0.382,1.122-0.616L235.563,31.587z M231.779,22.744
			c-0.866,0-1.561,0.229-2.079,0.683c-0.521,0.454-0.833,1.231-0.937,2.332h5.456c0-1.114-0.212-1.896-0.638-2.344
			C233.158,22.967,232.556,22.744,231.779,22.744z"/>
		<path fill="#FFFFFF" d="M245.44,27.604h-4.972v4.862h-1.76v-11h1.76v4.598h4.972v-4.598h1.762v11h-1.762V27.604z"/>
		<path fill="#FFFFFF" d="M257.321,27.604h-4.974v4.862h-1.76v-11h1.76v4.598h4.974v-4.598h1.76v11h-1.76V27.604z"/>
		<path fill="#FFFFFF" d="M270.499,31.587c-0.439,0.353-0.993,0.632-1.66,0.837c-0.668,0.204-1.375,0.308-2.123,0.308
			c-0.837,0-1.563-0.136-2.179-0.406c-0.615-0.271-1.122-0.66-1.52-1.166c-0.396-0.507-0.688-1.11-0.88-1.814
			c-0.189-0.704-0.286-1.496-0.286-2.376c0-1.877,0.418-3.309,1.254-4.29c0.836-0.982,2.031-1.475,3.586-1.475
			c0.498,0,0.997,0.056,1.496,0.165c0.498,0.109,0.946,0.318,1.344,0.627c0.396,0.309,0.719,0.744,0.968,1.31
			c0.25,0.563,0.374,1.31,0.374,2.232c0,0.483-0.044,1.021-0.132,1.605h-7.063c0,0.646,0.065,1.218,0.197,1.716
			c0.133,0.499,0.338,0.921,0.616,1.266c0.276,0.346,0.642,0.608,1.089,0.792c0.445,0.185,0.994,0.274,1.64,0.274
			c0.498,0,0.997-0.088,1.496-0.264c0.498-0.177,0.872-0.382,1.122-0.616L270.499,31.587z M266.715,22.744
			c-0.866,0-1.559,0.229-2.079,0.683c-0.52,0.454-0.833,1.231-0.936,2.332h5.456c0-1.114-0.215-1.896-0.64-2.344
			S267.492,22.744,266.715,22.744z"/>
		<path fill="#FFFFFF" d="M281.433,31.587c-0.438,0.353-0.994,0.632-1.661,0.837c-0.668,0.204-1.375,0.308-2.123,0.308
			c-0.837,0-1.563-0.136-2.179-0.406c-0.615-0.271-1.122-0.66-1.518-1.166c-0.396-0.507-0.689-1.11-0.88-1.814
			c-0.191-0.704-0.286-1.496-0.286-2.376c0-1.877,0.418-3.309,1.254-4.29c0.836-0.982,2.031-1.475,3.586-1.475
			c0.498,0,0.997,0.056,1.496,0.165c0.498,0.109,0.944,0.318,1.342,0.627c0.396,0.309,0.718,0.744,0.968,1.31
			c0.25,0.564,0.373,1.31,0.373,2.232c0,0.483-0.043,1.021-0.131,1.605h-7.063c0,0.646,0.065,1.218,0.197,1.716
			c0.133,0.499,0.338,0.921,0.616,1.266c0.278,0.346,0.642,0.608,1.089,0.792c0.447,0.185,0.994,0.274,1.64,0.274
			c0.498,0,0.997-0.088,1.496-0.264c0.498-0.177,0.872-0.382,1.122-0.616L281.433,31.587z M277.649,22.744
			c-0.864,0-1.559,0.229-2.077,0.683c-0.521,0.454-0.833,1.231-0.938,2.332h5.456c0-1.114-0.213-1.896-0.638-2.344
			C279.027,22.967,278.426,22.744,277.649,22.744z"/>
		<path fill="#FFFFFF" d="M290.453,32.467v-11h1.76v9.46h3.762v-9.46h1.76v9.46h3.766v-9.46h1.76v11H290.453z"/>
		<path fill="#FFFFFF" d="M306.029,26.967c0-1.862,0.412-3.289,1.24-4.279c0.828-0.989,2.021-1.484,3.576-1.484
			c0.82,0,1.535,0.137,2.145,0.406c0.607,0.272,1.111,0.66,1.508,1.166c0.396,0.507,0.688,1.115,0.881,1.826
			c0.188,0.712,0.285,1.5,0.285,2.365c0,1.861-0.414,3.288-1.242,4.278c-0.828,0.989-2.021,1.484-3.574,1.484
			c-0.822,0-1.537-0.136-2.146-0.406c-0.605-0.271-1.109-0.66-1.506-1.166c-0.396-0.507-0.688-1.115-0.881-1.826
			C306.123,28.621,306.029,27.833,306.029,26.967z M307.855,26.967c0,0.558,0.055,1.093,0.164,1.605
			c0.109,0.512,0.283,0.96,0.518,1.342c0.234,0.381,0.545,0.689,0.926,0.924c0.381,0.235,0.844,0.353,1.387,0.353
			c1.994,0.016,2.99-1.393,2.99-4.224c0-0.572-0.057-1.114-0.164-1.629c-0.109-0.514-0.283-0.961-0.52-1.342
			c-0.232-0.382-0.543-0.686-0.924-0.913s-0.844-0.341-1.385-0.341C308.851,22.729,307.855,24.137,307.855,26.967z"/>
		<path fill="#FFFFFF" d="M321.416,28.595l0.617,2.111h0.109l0.486-2.134l2.143-7.105h1.76l-3.256,9.878
			c-0.25,0.719-0.496,1.415-0.736,2.09s-0.512,1.275-0.805,1.805c-0.293,0.527-0.623,0.949-0.99,1.265
			c-0.363,0.315-0.789,0.474-1.273,0.474c-0.527,0-0.961-0.073-1.297-0.22l0.307-1.519c0.191,0.073,0.375,0.109,0.551,0.109
			c0.41,0,0.809-0.217,1.188-0.648c0.381-0.434,0.697-1.178,0.945-2.232l-4.424-11h2.025L321.416,28.595z"/>
		<path fill="#FFFFFF" d="M332.89,26.967c0-1.862,0.414-3.289,1.244-4.279c0.828-0.989,2.02-1.484,3.574-1.484
			c0.818,0,1.535,0.137,2.145,0.406c0.609,0.272,1.111,0.66,1.508,1.166c0.396,0.507,0.689,1.115,0.879,1.826
			c0.191,0.712,0.287,1.5,0.287,2.365c0,1.861-0.414,3.288-1.244,4.278c-0.828,0.989-2.02,1.484-3.572,1.484
			c-0.822,0-1.537-0.136-2.146-0.406c-0.609-0.271-1.111-0.66-1.508-1.166c-0.396-0.507-0.689-1.115-0.879-1.826
			C332.985,28.621,332.89,27.833,332.89,26.967z M334.717,26.967c0,0.558,0.055,1.093,0.166,1.605
			c0.107,0.513,0.281,0.96,0.516,1.342c0.234,0.381,0.543,0.689,0.924,0.924c0.383,0.234,0.846,0.353,1.389,0.353
			c1.992,0.016,2.99-1.393,2.99-4.224c0-0.572-0.055-1.114-0.166-1.629c-0.107-0.514-0.279-0.961-0.516-1.342
			c-0.234-0.382-0.543-0.686-0.924-0.913c-0.383-0.228-0.844-0.341-1.387-0.341C335.715,22.729,334.717,24.137,334.717,26.967z"/>
		<path fill="#FFFFFF" d="M351.965,23.008h-3.455v9.46h-1.76v-9.46h-3.453v-1.54h8.668V23.008z"/>
		<path fill="#FFFFFF" d="M362.138,28.595l0.617,2.111h0.109l0.486-2.134l2.141-7.105h1.762l-3.257,9.878
			c-0.247,0.719-0.493,1.415-0.735,2.09s-0.51,1.275-0.803,1.805c-0.293,0.527-0.623,0.949-0.99,1.265s-0.793,0.474-1.275,0.474
			c-0.527,0-0.961-0.073-1.299-0.22l0.309-1.519c0.189,0.073,0.373,0.109,0.551,0.109c0.41,0,0.807-0.217,1.188-0.648
			c0.381-0.434,0.695-1.178,0.945-2.232l-4.422-11h2.021L362.138,28.595z"/>
		<path fill="#FFFFFF" d="M370.291,21.467v2.991c0,0.396,0.021,0.752,0.064,1.066c0.043,0.316,0.131,0.587,0.266,0.813
			c0.131,0.229,0.32,0.403,0.57,0.528c0.248,0.124,0.578,0.188,0.99,0.188c0.658,0,1.201-0.073,1.627-0.221
			c0.426-0.146,0.748-0.309,0.969-0.483v-4.884h1.762v11h-1.762v-4.62c-0.234,0.146-0.584,0.309-1.045,0.483
			c-0.463,0.176-1.098,0.265-1.902,0.265c-0.545,0-1.021-0.06-1.432-0.177c-0.41-0.116-0.756-0.321-1.033-0.615
			c-0.277-0.293-0.486-0.683-0.627-1.166c-0.141-0.484-0.209-1.094-0.209-1.826v-3.344L370.291,21.467L370.291,21.467z"/>
		<path fill="#FFFFFF" d="M387.957,31.587c-0.439,0.353-0.994,0.632-1.66,0.837c-0.668,0.204-1.375,0.308-2.123,0.308
			c-0.838,0-1.563-0.136-2.182-0.406c-0.613-0.271-1.119-0.66-1.518-1.166c-0.396-0.507-0.688-1.11-0.879-1.814
			s-0.287-1.496-0.287-2.376c0-1.877,0.418-3.309,1.254-4.29c0.836-0.982,2.031-1.475,3.586-1.475c0.498,0,0.998,0.056,1.496,0.165
			s0.947,0.318,1.342,0.627c0.396,0.309,0.721,0.744,0.971,1.31c0.25,0.564,0.373,1.31,0.373,2.232c0,0.483-0.043,1.021-0.133,1.605
			h-7.063c0,0.646,0.064,1.218,0.197,1.716c0.133,0.499,0.338,0.921,0.615,1.266c0.277,0.346,0.643,0.608,1.09,0.792
			c0.445,0.185,0.992,0.274,1.641,0.274c0.498,0,0.996-0.088,1.496-0.264c0.498-0.177,0.871-0.382,1.121-0.616L387.957,31.587z
			 M384.174,22.744c-0.867,0-1.561,0.229-2.08,0.683c-0.521,0.454-0.832,1.231-0.938,2.332h5.457c0-1.114-0.213-1.896-0.639-2.344
			C385.55,22.968,384.947,22.744,384.174,22.744z"/>
		<path fill="#FFFFFF" d="M397.834,27.604h-4.973v4.862h-1.76v-11h1.76v4.598h4.973v-4.598h1.76v11h-1.76V27.604L397.834,27.604z"/>
		<path fill="#FFFFFF" d="M409.845,25.956l0.064-1.363h-0.064l-0.9,1.407l-4.951,6.469h-1.012v-11h1.76v6.71l-0.064,1.298h0.088
			l0.859-1.364l4.947-6.644h1.035v11h-1.762V25.956L409.845,25.956z"/>
		<path fill="#FFFFFF" d="M417.765,27.517h-1.012v4.95h-1.762v-11h1.762v4.972l0.945-0.309l3.521-4.663h1.914l-3.41,4.422
			l-0.924,0.727l1.143,0.88l3.676,4.973h-2.18L417.765,27.517z"/>
		<path fill="#FFFFFF" d="M424.652,26.967c0-1.862,0.414-3.289,1.244-4.279c0.828-0.989,2.021-1.484,3.574-1.484
			c0.82,0,1.537,0.137,2.145,0.406c0.609,0.272,1.111,0.66,1.51,1.166c0.396,0.507,0.688,1.115,0.879,1.826
			c0.189,0.712,0.286,1.5,0.286,2.365c0,1.861-0.413,3.288-1.243,4.278c-0.828,0.989-2.021,1.484-3.574,1.484
			c-0.822,0-1.537-0.136-2.146-0.406c-0.608-0.27-1.109-0.66-1.508-1.166c-0.396-0.507-0.688-1.115-0.879-1.826
			C424.748,28.621,424.652,27.833,424.652,26.967z M426.478,26.967c0,0.558,0.055,1.093,0.166,1.605
			c0.109,0.513,0.281,0.96,0.516,1.342c0.234,0.381,0.543,0.689,0.926,0.924c0.383,0.234,0.844,0.353,1.387,0.353
			c1.994,0.016,2.992-1.393,2.992-4.224c0-0.572-0.057-1.114-0.166-1.629c-0.109-0.514-0.281-0.961-0.518-1.342
			c-0.232-0.382-0.543-0.686-0.924-0.913c-0.383-0.228-0.844-0.341-1.387-0.341C427.476,22.729,426.478,24.137,426.478,26.967z"/>
		<path fill="#FFFFFF" d="M437.06,21.49c0.512-0.029,1.051-0.065,1.615-0.11c0.563-0.044,1.266-0.065,2.102-0.065
			c1.453,0,2.494,0.224,3.125,0.671c0.629,0.448,0.945,1.126,0.945,2.035c0,0.514-0.15,1.016-0.451,1.507
			c-0.301,0.492-0.795,0.854-1.484,1.09v0.088c0.865,0.161,1.475,0.462,1.826,0.901c0.353,0.439,0.527,1.027,0.527,1.761
			c0,1.145-0.41,1.974-1.232,2.485c-0.818,0.514-2.053,0.771-3.693,0.771c-0.615,0-1.188-0.019-1.718-0.056
			c-0.526-0.036-1.05-0.076-1.562-0.121V21.49L437.06,21.49z M440.976,26.108c0.264,0,0.52-0.044,0.77-0.132
			c0.248-0.088,0.475-0.209,0.672-0.362c0.197-0.154,0.357-0.334,0.482-0.539c0.125-0.206,0.188-0.426,0.188-0.66
			c0-0.587-0.178-0.994-0.527-1.222c-0.354-0.227-0.969-0.341-1.85-0.341c-0.471,0-0.842,0.008-1.109,0.021
			c-0.271,0.016-0.533,0.029-0.781,0.044v3.189L440.976,26.108L440.976,26.108z M438.818,30.994
			c0.277,0.029,0.555,0.051,0.824,0.065c0.271,0.014,0.59,0.021,0.957,0.021c0.982,0,1.713-0.14,2.189-0.418
			c0.476-0.277,0.715-0.756,0.715-1.431c0-0.527-0.201-0.957-0.605-1.287c-0.4-0.329-1.119-0.494-2.145-0.494h-1.938L438.818,30.994
			L438.818,30.994z"/>
		<path fill="#FFFFFF" d="M447.422,31.521c0-0.353,0.117-0.638,0.352-0.857c0.234-0.221,0.535-0.33,0.902-0.33
			c0.455,0,0.826,0.161,1.109,0.483c0.285,0.323,0.432,0.792,0.432,1.408c0,0.527-0.074,0.99-0.223,1.386
			c-0.146,0.396-0.338,0.737-0.57,1.023c-0.234,0.285-0.49,0.521-0.771,0.703c-0.278,0.184-0.559,0.319-0.836,0.407l-0.551-0.857
			c0.529-0.205,0.92-0.524,1.178-0.957c0.256-0.434,0.387-0.869,0.387-1.31c-0.135,0.044-0.258,0.065-0.373,0.065
			c-0.296,0-0.539-0.1-0.738-0.297C447.521,32.191,447.422,31.902,447.422,31.521z"/>
		<path fill="#FFFFFF" d="M100.177,55.282c0.557-0.338,1.206-0.587,1.947-0.748c0.741-0.162,1.514-0.242,2.321-0.242
			c0.762,0,1.375,0.104,1.837,0.309c0.462,0.206,0.813,0.474,1.056,0.803c0.242,0.33,0.403,0.693,0.484,1.091
			c0.079,0.396,0.119,0.791,0.119,1.188c0,0.88-0.021,1.736-0.064,2.572c-0.044,0.838-0.066,1.63-0.066,2.377
			c0,0.544,0.022,1.057,0.066,1.539c0.044,0.483,0.125,0.934,0.242,1.344h-1.298l-0.464-1.54h-0.108
			c-0.132,0.206-0.297,0.405-0.495,0.604c-0.198,0.196-0.438,0.373-0.715,0.526c-0.279,0.154-0.604,0.283-0.968,0.386
			c-0.367,0.101-0.785,0.152-1.255,0.152c-0.469,0-0.904-0.073-1.309-0.22s-0.752-0.355-1.045-0.628
			c-0.294-0.271-0.525-0.598-0.693-0.979c-0.168-0.381-0.253-0.813-0.253-1.298c0-0.646,0.132-1.186,0.396-1.617
			c0.264-0.432,0.634-0.775,1.109-1.033c0.477-0.257,1.05-0.438,1.718-0.551c0.667-0.109,1.402-0.165,2.211-0.165
			c0.205,0,0.405,0,0.604,0s0.399,0.017,0.605,0.046c0.044-0.439,0.064-0.838,0.064-1.188c0-0.808-0.162-1.371-0.482-1.694
			c-0.323-0.322-0.91-0.482-1.762-0.482c-0.25,0-0.517,0.02-0.803,0.058s-0.58,0.09-0.88,0.158
			c-0.301,0.067-0.587,0.149-0.858,0.247c-0.271,0.1-0.51,0.207-0.715,0.328L100.177,55.282z M103.301,64.103
			c0.41,0,0.777-0.055,1.1-0.165c0.322-0.109,0.603-0.249,0.838-0.418c0.232-0.168,0.429-0.355,0.583-0.563
			c0.152-0.205,0.267-0.401,0.341-0.594v-1.826c-0.206-0.015-0.415-0.023-0.627-0.033c-0.213-0.006-0.422-0.01-0.627-0.01
			c-0.455,0-0.898,0.024-1.331,0.076c-0.435,0.051-0.814,0.146-1.146,0.285c-0.33,0.141-0.594,0.33-0.792,0.572
			c-0.198,0.24-0.297,0.547-0.297,0.913c0,0.514,0.183,0.935,0.55,1.265S102.728,64.103,103.301,64.103z"/>
		<path fill="#FFFFFF" d="M123.65,56.008h-3.452v9.46h-1.762v-9.46h-3.454v-1.54h8.668V56.008z"/>
		<path fill="#FFFFFF" d="M125.213,55.282c0.557-0.338,1.206-0.587,1.947-0.748c0.739-0.162,1.514-0.242,2.319-0.242
			c0.764,0,1.375,0.104,1.837,0.309c0.464,0.206,0.814,0.474,1.058,0.803c0.242,0.33,0.401,0.693,0.482,1.091
			c0.081,0.396,0.121,0.791,0.121,1.188c0,0.88-0.021,1.736-0.064,2.572c-0.044,0.838-0.066,1.63-0.066,2.377
			c0,0.544,0.022,1.057,0.066,1.539c0.044,0.483,0.125,0.934,0.242,1.344h-1.3l-0.462-1.54h-0.108
			c-0.133,0.206-0.297,0.405-0.495,0.604c-0.198,0.196-0.438,0.373-0.715,0.526c-0.279,0.154-0.604,0.283-0.97,0.386
			c-0.365,0.104-0.783,0.153-1.254,0.153c-0.47,0-0.904-0.073-1.309-0.22s-0.752-0.355-1.045-0.629
			c-0.294-0.271-0.525-0.598-0.693-0.979s-0.253-0.813-0.253-1.298c0-0.646,0.132-1.185,0.396-1.617
			c0.264-0.432,0.634-0.776,1.109-1.032c0.477-0.258,1.048-0.439,1.716-0.552c0.667-0.108,1.404-0.165,2.213-0.165
			c0.203,0,0.405,0,0.604,0s0.399,0.016,0.605,0.045c0.044-0.438,0.064-0.837,0.064-1.188c0-0.809-0.162-1.371-0.482-1.694
			c-0.323-0.321-0.91-0.483-1.762-0.483c-0.25,0-0.517,0.021-0.803,0.059s-0.58,0.09-0.88,0.158
			c-0.301,0.066-0.587,0.15-0.858,0.249c-0.271,0.098-0.51,0.206-0.715,0.327L125.213,55.282z M128.337,64.103
			c0.41,0,0.777-0.055,1.1-0.165c0.322-0.109,0.603-0.249,0.836-0.418c0.234-0.168,0.431-0.355,0.583-0.563
			c0.154-0.205,0.269-0.401,0.343-0.594v-1.826c-0.206-0.015-0.415-0.023-0.627-0.033c-0.215-0.006-0.424-0.01-0.629-0.01
			c-0.453,0-0.896,0.024-1.329,0.076c-0.435,0.051-0.814,0.146-1.146,0.285c-0.33,0.141-0.594,0.33-0.792,0.572
			c-0.198,0.24-0.297,0.547-0.297,0.913c0,0.514,0.183,0.935,0.55,1.265S127.763,64.103,128.337,64.103z"/>
		<path fill="#FFFFFF" d="M139.072,60.517h-1.014v4.95h-1.76v-11h1.76v4.972l0.946-0.31l3.52-4.662h1.914l-3.408,4.422l-0.926,0.727
			l1.146,0.881l3.674,4.973h-2.178L139.072,60.517z"/>
		<path fill="#FFFFFF" d="M150.401,60.604l-3.232,4.862h-2.024l3.478-5.038l0.748-0.66l-1.122-0.836l-2.86-4.466h1.87l3.036,4.752
			h1.144v-4.752h1.717v4.972l1.033-0.308l3.06-4.664h1.848l-2.992,4.466l-0.856,0.704l1.122,0.88l3.256,4.95h-2.09l-3.234-4.95
			h-1.145v4.95h-1.717v-5.172L150.401,60.604z"/>
		<path fill="#FFFFFF" d="M169.19,64.588c-0.438,0.353-0.992,0.632-1.659,0.837c-0.667,0.204-1.375,0.308-2.123,0.308
			c-0.836,0-1.563-0.136-2.18-0.406c-0.614-0.271-1.122-0.66-1.518-1.166c-0.396-0.507-0.69-1.109-0.88-1.813
			c-0.19-0.704-0.286-1.496-0.286-2.376c0-1.877,0.418-3.309,1.254-4.29c0.836-0.982,2.031-1.475,3.586-1.475
			c0.499,0,0.997,0.056,1.496,0.165s0.946,0.318,1.342,0.627c0.396,0.309,0.719,0.744,0.968,1.31
			c0.249,0.563,0.374,1.31,0.374,2.231c0,0.483-0.044,1.021-0.132,1.605h-7.062c0,0.646,0.064,1.218,0.196,1.716
			c0.134,0.499,0.339,0.921,0.616,1.267c0.279,0.346,0.644,0.607,1.089,0.791c0.447,0.186,0.993,0.274,1.641,0.274
			c0.499,0,0.998-0.088,1.496-0.264c0.498-0.177,0.873-0.382,1.122-0.616L169.19,64.588z M165.406,55.744
			c-0.866,0-1.561,0.229-2.079,0.683c-0.521,0.454-0.833,1.231-0.937,2.332h5.456c0-1.114-0.212-1.896-0.638-2.345
			C166.785,55.967,166.183,55.744,165.406,55.744z"/>
		<path fill="#FFFFFF" d="M178.034,55.282c0.557-0.338,1.206-0.587,1.945-0.748c0.741-0.162,1.516-0.242,2.321-0.242
			c0.762,0,1.375,0.104,1.837,0.309c0.462,0.206,0.814,0.474,1.058,0.803c0.24,0.33,0.401,0.693,0.482,1.091
			c0.081,0.396,0.121,0.791,0.121,1.188c0,0.88-0.021,1.736-0.066,2.572c-0.044,0.838-0.064,1.63-0.064,2.377
			c0,0.544,0.021,1.057,0.064,1.539c0.046,0.483,0.125,0.934,0.242,1.344h-1.298l-0.462-1.54h-0.11
			c-0.132,0.206-0.297,0.405-0.493,0.604c-0.198,0.196-0.438,0.373-0.717,0.526c-0.277,0.154-0.602,0.283-0.968,0.386
			c-0.365,0.101-0.783,0.152-1.253,0.152s-0.906-0.073-1.309-0.22c-0.404-0.146-0.752-0.355-1.045-0.628
			c-0.296-0.271-0.525-0.598-0.693-0.979c-0.168-0.381-0.253-0.813-0.253-1.298c0-0.646,0.132-1.186,0.396-1.617
			c0.266-0.432,0.636-0.775,1.111-1.033c0.476-0.257,1.048-0.438,1.716-0.551c0.667-0.109,1.404-0.165,2.211-0.165
			c0.205,0,0.407,0,0.605,0c0.196,0,0.397,0.017,0.604,0.046c0.044-0.439,0.066-0.838,0.066-1.188c0-0.808-0.162-1.371-0.484-1.694
			c-0.323-0.322-0.91-0.482-1.76-0.482c-0.25,0-0.517,0.02-0.803,0.058s-0.58,0.09-0.88,0.158c-0.303,0.067-0.589,0.149-0.858,0.247
			c-0.272,0.1-0.51,0.207-0.715,0.328L178.034,55.282z M181.158,64.103c0.408,0,0.775-0.055,1.1-0.165
			c0.322-0.109,0.601-0.249,0.836-0.418c0.234-0.168,0.429-0.355,0.583-0.563c0.154-0.205,0.267-0.401,0.341-0.594v-1.826
			c-0.206-0.015-0.415-0.023-0.627-0.033c-0.213-0.006-0.422-0.01-0.627-0.01c-0.455,0-0.896,0.024-1.331,0.076
			c-0.433,0.051-0.813,0.146-1.144,0.285c-0.33,0.141-0.594,0.33-0.792,0.572c-0.198,0.24-0.297,0.547-0.297,0.913
			c0,0.514,0.183,0.935,0.55,1.265S180.586,64.103,181.158,64.103z"/>
		<path fill="#FFFFFF" d="M196.139,56.008h-3.454v9.46h-1.76v-9.46h-3.454v-1.54h8.668V56.008L196.139,56.008z"/>
		<path fill="#FFFFFF" d="M205.775,56.008h-3.452v9.46h-1.762v-9.46h-3.454v-1.54h8.668V56.008L205.775,56.008z"/>
		<path fill="#FFFFFF" d="M215.191,64.588c-0.438,0.353-0.992,0.632-1.659,0.837c-0.667,0.204-1.375,0.308-2.123,0.308
			c-0.836,0-1.563-0.136-2.18-0.406c-0.614-0.271-1.122-0.66-1.518-1.166c-0.396-0.507-0.69-1.109-0.88-1.813
			c-0.19-0.704-0.286-1.496-0.286-2.376c0-1.877,0.418-3.309,1.254-4.29c0.836-0.982,2.031-1.475,3.586-1.475
			c0.499,0,0.997,0.056,1.496,0.165s0.946,0.318,1.342,0.627c0.396,0.309,0.719,0.744,0.968,1.31
			c0.249,0.563,0.374,1.31,0.374,2.231c0,0.483-0.044,1.021-0.132,1.605h-7.062c0,0.646,0.064,1.218,0.196,1.716
			c0.134,0.499,0.339,0.921,0.616,1.267c0.279,0.346,0.644,0.607,1.089,0.791c0.447,0.186,0.993,0.274,1.641,0.274
			c0.499,0,0.998-0.088,1.496-0.264c0.498-0.177,0.873-0.382,1.122-0.616L215.191,64.588z M211.408,55.744
			c-0.866,0-1.561,0.229-2.079,0.683c-0.521,0.454-0.833,1.231-0.937,2.332h5.456c0-1.114-0.212-1.896-0.638-2.345
			C212.785,55.967,212.184,55.744,211.408,55.744z"/>
		<path fill="#FFFFFF" d="M225.597,64.742c-0.438,0.321-0.96,0.567-1.562,0.735c-0.604,0.169-1.232,0.253-1.894,0.253
			c-0.851,0-1.568-0.136-2.154-0.406c-0.589-0.271-1.067-0.66-1.441-1.166c-0.374-0.507-0.646-1.115-0.814-1.826
			c-0.169-0.711-0.253-1.5-0.253-2.363c0-1.862,0.41-3.289,1.232-4.279c0.821-0.989,2.002-1.484,3.542-1.484
			c0.704,0,1.301,0.056,1.793,0.165c0.491,0.109,0.935,0.269,1.331,0.474l-0.506,1.518c-0.338-0.189-0.712-0.341-1.122-0.45
			c-0.411-0.108-0.853-0.165-1.32-0.165c-2.083,0-3.124,1.407-3.124,4.225c0,0.559,0.055,1.089,0.165,1.595
			c0.11,0.507,0.293,0.954,0.55,1.343c0.256,0.39,0.596,0.7,1.014,0.937c0.418,0.233,0.935,0.353,1.551,0.353
			c0.528,0,1.001-0.08,1.419-0.242s0.759-0.345,1.021-0.551L225.597,64.742z"/>
		<path fill="#FFFFFF" d="M234.683,56.008h-3.454v9.46h-1.76v-9.46h-3.454v-1.54h8.668V56.008z"/>
		<path fill="#FFFFFF" d="M236.246,55.282c0.557-0.338,1.206-0.587,1.945-0.748c0.741-0.162,1.516-0.242,2.321-0.242
			c0.762,0,1.375,0.104,1.837,0.309c0.462,0.206,0.814,0.474,1.058,0.803c0.24,0.33,0.401,0.693,0.482,1.091
			c0.081,0.396,0.121,0.791,0.121,1.188c0,0.88-0.021,1.736-0.064,2.572c-0.046,0.838-0.066,1.63-0.066,2.377
			c0,0.544,0.021,1.057,0.066,1.539c0.044,0.483,0.125,0.934,0.24,1.344h-1.298l-0.462-1.54h-0.11
			c-0.132,0.206-0.297,0.405-0.493,0.604c-0.198,0.196-0.438,0.373-0.717,0.526c-0.277,0.154-0.602,0.283-0.968,0.386
			c-0.367,0.104-0.785,0.153-1.254,0.153c-0.47,0-0.906-0.073-1.309-0.22c-0.404-0.146-0.752-0.355-1.045-0.629
			c-0.295-0.271-0.525-0.598-0.693-0.979s-0.253-0.813-0.253-1.298c0-0.646,0.132-1.185,0.396-1.617
			c0.266-0.432,0.636-0.776,1.111-1.032c0.476-0.258,1.048-0.439,1.716-0.552c0.667-0.108,1.404-0.165,2.211-0.165
			c0.205,0,0.407,0,0.605,0s0.397,0.016,0.604,0.045c0.044-0.438,0.066-0.837,0.066-1.188c0-0.809-0.162-1.371-0.484-1.694
			c-0.321-0.321-0.91-0.483-1.76-0.483c-0.25,0-0.517,0.021-0.803,0.059s-0.58,0.09-0.88,0.158c-0.303,0.066-0.587,0.15-0.858,0.249
			c-0.271,0.098-0.51,0.206-0.715,0.327L236.246,55.282z M239.37,64.103c0.41,0,0.775-0.055,1.1-0.165
			c0.322-0.109,0.603-0.249,0.836-0.418c0.234-0.168,0.429-0.355,0.583-0.563c0.154-0.205,0.269-0.401,0.341-0.594v-1.826
			c-0.206-0.015-0.415-0.023-0.627-0.033c-0.213-0.006-0.422-0.01-0.627-0.01c-0.455,0-0.896,0.024-1.331,0.076
			c-0.433,0.051-0.813,0.146-1.144,0.285c-0.33,0.141-0.594,0.33-0.792,0.572c-0.198,0.24-0.297,0.547-0.297,0.913
			c0,0.514,0.183,0.935,0.55,1.265S238.798,64.103,239.37,64.103z"/>
		<path fill="#FFFFFF" d="M257.212,68.261h-1.188l-0.328-2.794h-8.36v-11h1.76v9.46h4.773v-9.46h1.761v9.46h1.584L257.212,68.261
			L257.212,68.261z"/>
		<path fill="#FFFFFF" d="M266.253,58.955l0.064-1.362h-0.064L265.351,59l-4.95,6.469h-1.012v-11h1.76v6.71l-0.064,1.298h0.088
			l0.858-1.363l4.948-6.645h1.034v11h-1.761V58.955L266.253,58.955z"/>
		<path fill="#FFFFFF" d="M276.879,60.914l-1.694,0.265l-2.901,4.29h-2.136l2.642-3.764l0.88-0.813
			c-0.763-0.117-1.412-0.425-1.947-0.924c-0.535-0.498-0.803-1.174-0.803-2.024c0-0.659,0.113-1.224,0.341-1.692
			c0.229-0.469,0.554-0.857,0.979-1.167c0.425-0.309,0.931-0.53,1.518-0.671c0.587-0.14,1.247-0.209,1.98-0.209
			c0.542,0,1.048,0.036,1.518,0.109c0.47,0.074,0.932,0.154,1.386,0.242v10.912h-1.76L276.879,60.914L276.879,60.914z
			 M276.879,55.963c-0.19-0.071-0.403-0.127-0.638-0.163c-0.235-0.036-0.44-0.056-0.616-0.056c-0.938,0-1.653,0.168-2.146,0.506
			c-0.49,0.336-0.735,0.871-0.735,1.604c0,0.66,0.26,1.17,0.779,1.529c0.521,0.358,1.206,0.539,2.059,0.539c0.015,0,0.036,0,0.064,0
			s0.089,0,0.178,0c0.088,0,0.212-0.005,0.374-0.013c0.159-0.008,0.389-0.019,0.682-0.033V55.963L276.879,55.963z"/>
		<path fill="#FFFFFF" d="M290.496,60.517h-1.013v4.95h-1.76v-11h1.76v4.972l0.947-0.31l3.521-4.662h1.914l-3.41,4.422l-0.924,0.727
			l1.143,0.881l3.676,4.973h-2.18L290.496,60.517z"/>
		<path fill="#FFFFFF" d="M301.484,61.595l0.617,2.11h0.111l0.486-2.133l2.141-7.105h1.76l-3.256,9.878
			c-0.248,0.719-0.494,1.415-0.736,2.09c-0.24,0.675-0.51,1.274-0.803,1.806c-0.293,0.526-0.623,0.948-0.99,1.264
			c-0.365,0.316-0.793,0.475-1.273,0.475c-0.529,0-0.961-0.072-1.299-0.22l0.309-1.519c0.189,0.072,0.373,0.108,0.549,0.108
			c0.412,0,0.809-0.217,1.189-0.647c0.381-0.435,0.693-1.179,0.943-2.232l-4.422-11h2.023L301.484,61.595z"/>
		<path fill="#FFFFFF" d="M308.49,54.467h1.211l0.33,1.318h0.089c0.337-0.514,0.772-0.903,1.31-1.178
			c0.535-0.271,1.146-0.406,1.836-0.406c1.467,0,2.561,0.434,3.279,1.298c0.718,0.866,1.078,2.28,1.078,4.247
			c0,0.924-0.121,1.756-0.363,2.496s-0.584,1.367-1.023,1.881c-0.438,0.516-0.973,0.91-1.596,1.188
			c-0.623,0.279-1.316,0.418-2.078,0.418c-0.543,0-0.973-0.032-1.287-0.099s-0.656-0.182-1.021-0.342v4.576h-1.762L308.49,54.467
			L308.49,54.467z M312.935,55.744c-0.748,0-1.338,0.194-1.77,0.583c-0.436,0.391-0.738,0.979-0.914,1.771v5.456
			c0.264,0.206,0.563,0.362,0.9,0.473c0.338,0.111,0.785,0.165,1.344,0.165c1.012,0,1.813-0.377,2.408-1.133
			c0.596-0.755,0.893-1.866,0.893-3.333c0-0.603-0.055-1.147-0.154-1.64c-0.104-0.49-0.268-0.908-0.496-1.254
			c-0.227-0.346-0.52-0.611-0.879-0.805C313.906,55.838,313.465,55.744,312.935,55.744z"/>
		<path fill="#FFFFFF" d="M320.217,55.282c0.559-0.338,1.207-0.587,1.947-0.748c0.738-0.162,1.516-0.242,2.32-0.242
			c0.764,0,1.375,0.104,1.836,0.309c0.463,0.206,0.814,0.474,1.059,0.803c0.24,0.33,0.4,0.693,0.482,1.091
			c0.08,0.396,0.121,0.791,0.121,1.188c0,0.88-0.021,1.736-0.064,2.572c-0.045,0.838-0.066,1.63-0.066,2.377
			c0,0.544,0.021,1.057,0.066,1.539c0.043,0.483,0.125,0.934,0.24,1.344h-1.299l-0.461-1.54h-0.109
			c-0.133,0.206-0.299,0.405-0.494,0.604c-0.197,0.196-0.438,0.373-0.715,0.526c-0.279,0.154-0.604,0.283-0.971,0.386
			c-0.367,0.102-0.785,0.152-1.253,0.152s-0.906-0.073-1.309-0.22c-0.404-0.146-0.752-0.355-1.045-0.628
			c-0.293-0.271-0.525-0.598-0.693-0.979c-0.168-0.381-0.252-0.813-0.252-1.298c0-0.646,0.131-1.186,0.395-1.617
			c0.266-0.432,0.637-0.775,1.111-1.033c0.478-0.257,1.049-0.438,1.717-0.551c0.666-0.109,1.404-0.165,2.211-0.165
			c0.205,0,0.406,0,0.605,0c0.197,0,0.397,0.017,0.604,0.046c0.047-0.439,0.066-0.838,0.066-1.188c0-0.808-0.162-1.371-0.484-1.694
			c-0.32-0.322-0.906-0.482-1.76-0.482c-0.25,0-0.518,0.02-0.803,0.058s-0.58,0.09-0.881,0.158
			c-0.303,0.067-0.586,0.149-0.857,0.247c-0.271,0.1-0.51,0.207-0.715,0.328L320.217,55.282z M323.342,64.103
			c0.41,0,0.775-0.055,1.1-0.165c0.322-0.109,0.604-0.249,0.836-0.418c0.234-0.168,0.432-0.355,0.584-0.563
			c0.154-0.205,0.27-0.401,0.34-0.594v-1.826c-0.203-0.015-0.414-0.023-0.627-0.033c-0.213-0.006-0.422-0.01-0.627-0.01
			c-0.455,0-0.896,0.024-1.33,0.076c-0.434,0.051-0.813,0.146-1.145,0.285c-0.33,0.141-0.594,0.33-0.791,0.572
			c-0.199,0.24-0.299,0.547-0.299,0.913c0,0.514,0.184,0.935,0.551,1.265S322.769,64.103,323.342,64.103z"/>
		<path fill="#FFFFFF" d="M338.322,56.008h-3.455v9.46h-1.76v-9.46h-3.453v-1.54h8.668V56.008z"/>
		<path fill="#FFFFFF" d="M339.094,59.967c0-1.862,0.414-3.289,1.244-4.279c0.828-0.989,2.02-1.484,3.572-1.484
			c0.82,0,1.537,0.137,2.146,0.406c0.609,0.272,1.111,0.66,1.508,1.166c0.396,0.508,0.689,1.115,0.879,1.826
			c0.191,0.712,0.287,1.5,0.287,2.365c0,1.861-0.414,3.287-1.244,4.277c-0.828,0.989-2.02,1.484-3.574,1.484
			c-0.82,0-1.535-0.136-2.145-0.406s-1.111-0.66-1.508-1.166c-0.396-0.507-0.689-1.115-0.879-1.826
			C339.189,61.621,339.094,60.832,339.094,59.967z M340.92,59.967c0,0.558,0.055,1.093,0.166,1.605
			c0.107,0.512,0.279,0.959,0.516,1.342c0.234,0.381,0.543,0.688,0.924,0.924c0.383,0.234,0.844,0.353,1.387,0.353
			c1.994,0.017,2.992-1.394,2.992-4.224c0-0.572-0.055-1.114-0.166-1.629c-0.107-0.514-0.279-0.961-0.516-1.342
			c-0.234-0.383-0.543-0.687-0.924-0.914c-0.383-0.228-0.844-0.34-1.389-0.34C341.918,55.729,340.92,57.137,340.92,59.967z"/>
		<path fill="#FFFFFF" d="M351.502,54.467h1.211l0.33,1.318h0.088c0.336-0.514,0.771-0.903,1.309-1.178
			c0.535-0.271,1.146-0.406,1.836-0.406c1.467,0,2.563,0.434,3.279,1.298c0.718,0.866,1.078,2.28,1.078,4.247
			c0,0.924-0.121,1.756-0.363,2.496s-0.584,1.367-1.023,1.881c-0.438,0.516-0.973,0.91-1.596,1.188
			c-0.623,0.279-1.314,0.418-2.078,0.418c-0.543,0-0.973-0.032-1.287-0.099s-0.654-0.182-1.021-0.342v4.576h-1.76L351.502,54.467
			L351.502,54.467z M355.943,55.744c-0.748,0-1.338,0.194-1.77,0.583c-0.436,0.391-0.738,0.979-0.914,1.771v5.456
			c0.264,0.206,0.563,0.362,0.9,0.473c0.34,0.11,0.785,0.165,1.344,0.165c1.012,0,1.813-0.377,2.41-1.133
			c0.594-0.755,0.891-1.866,0.891-3.333c0-0.603-0.053-1.147-0.154-1.64c-0.104-0.49-0.268-0.908-0.496-1.254
			c-0.227-0.346-0.52-0.611-0.879-0.805C356.918,55.838,356.474,55.744,355.943,55.744z"/>
		<path fill="#FFFFFF" d="M363.226,55.282c0.559-0.338,1.207-0.587,1.947-0.748c0.74-0.162,1.516-0.242,2.32-0.242
			c0.764,0,1.375,0.104,1.838,0.309c0.463,0.206,0.813,0.474,1.057,0.803c0.242,0.33,0.402,0.693,0.484,1.091
			c0.078,0.396,0.119,0.791,0.119,1.188c0,0.88-0.021,1.736-0.064,2.572c-0.045,0.838-0.066,1.63-0.066,2.377
			c0,0.544,0.021,1.057,0.066,1.539c0.043,0.483,0.125,0.934,0.242,1.344h-1.301l-0.461-1.54h-0.109
			c-0.131,0.206-0.297,0.405-0.494,0.604c-0.197,0.196-0.438,0.373-0.715,0.526c-0.279,0.154-0.604,0.283-0.969,0.386
			c-0.367,0.101-0.785,0.152-1.256,0.152c-0.469,0-0.904-0.073-1.309-0.22s-0.752-0.355-1.045-0.628
			c-0.293-0.271-0.525-0.598-0.693-0.979c-0.168-0.381-0.252-0.813-0.252-1.298c0-0.646,0.131-1.186,0.396-1.617
			c0.264-0.432,0.635-0.775,1.109-1.033c0.478-0.257,1.051-0.438,1.719-0.551c0.666-0.109,1.402-0.165,2.211-0.165
			c0.205,0,0.404,0,0.604,0c0.197,0,0.398,0.017,0.604,0.046c0.045-0.439,0.064-0.838,0.064-1.188c0-0.808-0.162-1.371-0.482-1.694
			c-0.322-0.322-0.908-0.482-1.762-0.482c-0.25,0-0.518,0.02-0.803,0.058s-0.58,0.09-0.881,0.158
			c-0.301,0.067-0.586,0.149-0.857,0.247c-0.271,0.1-0.51,0.207-0.715,0.328L363.226,55.282z M366.351,64.103
			c0.41,0,0.777-0.055,1.1-0.165c0.322-0.109,0.604-0.249,0.836-0.418c0.234-0.168,0.432-0.355,0.586-0.563
			c0.152-0.205,0.268-0.401,0.34-0.594v-1.826c-0.205-0.015-0.414-0.023-0.627-0.033c-0.215-0.006-0.424-0.01-0.627-0.01
			c-0.455,0-0.898,0.024-1.33,0.076c-0.436,0.051-0.814,0.146-1.146,0.285c-0.33,0.141-0.594,0.33-0.791,0.572
			c-0.199,0.24-0.299,0.547-0.299,0.913c0,0.514,0.184,0.935,0.551,1.265S365.777,64.103,366.351,64.103z"/>
		<path fill="#FFFFFF" d="M383.4,58.933l0.133-2.09h-0.109l-0.791,1.692l-2.662,4.313h-0.615l-2.771-4.313l-0.727-1.692h-0.088
			l0.176,2.067v6.557h-1.629v-11h1.738l3.08,4.928l0.639,1.275h0.043l0.66-1.319l2.883-4.884h1.76v11h-1.717L383.4,58.933
			L383.4,58.933z"/>
		<path fill="#FFFFFF" d="M395.367,58.955l0.066-1.362h-0.066l-0.9,1.407l-4.949,6.469h-1.012v-11h1.76v6.71l-0.066,1.298h0.088
			l0.857-1.363l4.951-6.645h1.033v11h-1.762V58.955L395.367,58.955z"/>
		<path fill="#FFFFFF" d="M416.269,68.261h-1.188l-0.33-2.794h-8.359v-11h1.76v9.46h4.773v-9.46h1.762v9.46h1.584L416.269,68.261
			L416.269,68.261z"/>
		<path fill="#FFFFFF" d="M426.476,64.588c-0.439,0.353-0.994,0.632-1.66,0.837c-0.668,0.204-1.375,0.308-2.123,0.308
			c-0.838,0-1.563-0.136-2.18-0.406c-0.615-0.271-1.121-0.66-1.518-1.166c-0.396-0.507-0.689-1.109-0.881-1.813
			c-0.19-0.704-0.285-1.496-0.285-2.376c0-1.877,0.418-3.309,1.254-4.29c0.836-0.982,2.029-1.475,3.586-1.475
			c0.498,0,0.998,0.056,1.496,0.165s0.945,0.318,1.342,0.627c0.396,0.309,0.719,0.744,0.969,1.31c0.25,0.563,0.373,1.31,0.373,2.231
			c0,0.483-0.043,1.021-0.131,1.605h-7.063c0,0.646,0.066,1.218,0.197,1.716c0.133,0.499,0.338,0.921,0.617,1.267
			c0.276,0.346,0.641,0.607,1.088,0.791c0.447,0.186,0.994,0.274,1.641,0.274c0.498,0,0.996-0.088,1.496-0.264
			c0.498-0.177,0.871-0.382,1.121-0.616L426.476,64.588z M422.693,55.744c-0.867,0-1.559,0.229-2.08,0.683
			c-0.521,0.454-0.832,1.231-0.936,2.332h5.457c0-1.114-0.213-1.896-0.639-2.345C424.068,55.968,423.469,55.744,422.693,55.744z"/>
		<path fill="#FFFFFF" d="M436.353,60.604h-4.971v4.862h-1.76v-11h1.76v4.598h4.971v-4.598h1.76v11h-1.76V60.604z"/>
		<path fill="#FFFFFF" d="M448.519,56.008h-3.453v9.46h-1.76v-9.46h-3.455v-1.54h8.668V56.008z"/>
		<path fill="#FFFFFF" d="M450.258,54.467h1.211l0.33,1.318h0.088c0.336-0.514,0.771-0.903,1.309-1.178
			c0.535-0.271,1.146-0.406,1.836-0.406c1.469,0,2.563,0.434,3.279,1.298c0.718,0.866,1.078,2.28,1.078,4.247
			c0,0.924-0.121,1.756-0.363,2.496s-0.584,1.367-1.021,1.881c-0.439,0.516-0.975,0.91-1.598,1.188
			c-0.623,0.279-1.314,0.418-2.078,0.418c-0.543,0-0.973-0.032-1.285-0.099c-0.316-0.066-0.656-0.182-1.023-0.342v4.576h-1.76
			L450.258,54.467L450.258,54.467z M454.699,55.744c-0.748,0-1.338,0.194-1.77,0.583c-0.434,0.391-0.738,0.979-0.914,1.771v5.456
			c0.264,0.206,0.564,0.362,0.902,0.473c0.338,0.111,0.783,0.165,1.342,0.165c1.012,0,1.813-0.377,2.41-1.133
			c0.594-0.755,0.891-1.866,0.891-3.333c0-0.603-0.053-1.147-0.154-1.64c-0.104-0.49-0.268-0.908-0.494-1.254
			c-0.229-0.346-0.521-0.611-0.881-0.805C455.674,55.838,455.23,55.744,454.699,55.744z"/>
		<path fill="#FFFFFF" d="M461.982,55.282c0.561-0.338,1.207-0.587,1.947-0.748c0.74-0.162,1.516-0.242,2.322-0.242
			c0.762,0,1.375,0.104,1.836,0.309c0.463,0.206,0.813,0.474,1.057,0.803c0.242,0.33,0.402,0.693,0.484,1.091
			c0.08,0.396,0.121,0.791,0.121,1.188c0,0.88-0.023,1.736-0.066,2.572c-0.045,0.838-0.066,1.63-0.066,2.377
			c0,0.544,0.021,1.057,0.066,1.539c0.043,0.483,0.125,0.934,0.242,1.344h-1.299l-0.461-1.54h-0.111
			c-0.131,0.206-0.297,0.405-0.494,0.604c-0.197,0.196-0.438,0.373-0.715,0.526c-0.279,0.154-0.604,0.283-0.969,0.386
			c-0.367,0.104-0.785,0.153-1.254,0.153c-0.471,0-0.906-0.073-1.311-0.22s-0.752-0.355-1.045-0.629
			c-0.293-0.271-0.525-0.598-0.693-0.979s-0.252-0.813-0.252-1.298c0-0.646,0.133-1.185,0.396-1.617
			c0.264-0.432,0.635-0.776,1.111-1.032c0.476-0.258,1.049-0.439,1.717-0.552c0.666-0.108,1.402-0.165,2.211-0.165
			c0.205,0,0.406,0,0.604,0s0.398,0.016,0.604,0.045c0.045-0.438,0.064-0.837,0.064-1.188c0-0.809-0.161-1.371-0.482-1.694
			c-0.322-0.321-0.908-0.483-1.761-0.483c-0.25,0-0.519,0.021-0.804,0.059s-0.58,0.09-0.881,0.158
			c-0.301,0.066-0.586,0.15-0.855,0.249c-0.271,0.098-0.512,0.206-0.717,0.327L461.982,55.282z M465.107,64.103
			c0.41,0,0.777-0.055,1.102-0.165c0.32-0.109,0.602-0.249,0.836-0.418c0.232-0.168,0.43-0.355,0.584-0.563
			c0.152-0.205,0.268-0.401,0.34-0.594v-1.826c-0.205-0.015-0.414-0.023-0.627-0.033c-0.213-0.006-0.422-0.01-0.627-0.01
			c-0.455,0-0.898,0.024-1.33,0.076c-0.436,0.051-0.814,0.146-1.146,0.285c-0.33,0.141-0.594,0.33-0.791,0.572
			c-0.197,0.24-0.299,0.547-0.299,0.913c0,0.514,0.186,0.935,0.551,1.265C464.066,63.937,464.533,64.103,465.107,64.103z"/>
		<path fill="#FFFFFF" d="M478.088,58.316h12.848v1.628h-12.848V58.316z"/>
		<path fill="#FFFFFF" d="M101.497,87.467v2.99c0,0.396,0.021,0.752,0.064,1.066c0.044,0.316,0.134,0.587,0.266,0.813
			c0.132,0.229,0.32,0.404,0.57,0.529c0.249,0.123,0.579,0.188,0.99,0.188c0.66,0,1.203-0.073,1.628-0.221
			c0.425-0.146,0.748-0.31,0.968-0.483v-4.884h1.762v11h-1.762v-4.62c-0.233,0.146-0.583,0.309-1.045,0.483
			c-0.462,0.176-1.096,0.265-1.901,0.265c-0.542,0-1.021-0.06-1.432-0.177c-0.409-0.116-0.756-0.321-1.032-0.615
			c-0.279-0.293-0.488-0.684-0.627-1.166c-0.142-0.484-0.209-1.094-0.209-1.826v-3.344L101.497,87.467L101.497,87.467z"/>
		<path fill="#FFFFFF" d="M119.163,97.588c-0.44,0.353-0.994,0.632-1.661,0.837c-0.667,0.204-1.375,0.308-2.123,0.308
			c-0.836,0-1.563-0.136-2.178-0.406c-0.616-0.271-1.122-0.66-1.52-1.166c-0.396-0.507-0.688-1.109-0.88-1.813
			c-0.188-0.704-0.286-1.496-0.286-2.376c0-1.877,0.418-3.309,1.254-4.29s2.031-1.476,3.586-1.476c0.499,0,0.997,0.057,1.496,0.166
			c0.499,0.108,0.946,0.317,1.344,0.627c0.396,0.309,0.719,0.744,0.968,1.31c0.249,0.563,0.374,1.31,0.374,2.231
			c0,0.483-0.044,1.021-0.132,1.605h-7.063c0,0.646,0.066,1.218,0.198,1.716c0.132,0.499,0.337,0.921,0.616,1.267
			c0.277,0.346,0.642,0.607,1.089,0.791c0.445,0.186,0.993,0.274,1.639,0.274c0.499,0,0.998-0.088,1.496-0.264
			c0.498-0.177,0.873-0.382,1.122-0.616L119.163,97.588z M115.379,88.744c-0.866,0-1.559,0.229-2.079,0.683
			c-0.52,0.454-0.833,1.231-0.935,2.332h5.456c0-1.114-0.214-1.896-0.64-2.345C116.756,88.967,116.156,88.744,115.379,88.744z"/>
		<path fill="#FFFFFF" d="M131.393,91.933l0.132-2.09h-0.108l-0.792,1.692l-2.662,4.313h-0.616l-2.771-4.313l-0.728-1.692h-0.088
			l0.176,2.067v6.557h-1.628v-11h1.738l3.08,4.928l0.638,1.275h0.044l0.66-1.319l2.882-4.884h1.761v11h-1.717L131.393,91.933
			L131.393,91.933z"/>
		<path fill="#FFFFFF" d="M143.12,89.008h-4.862v9.46h-1.76v-11h8.382v11h-1.76V89.008L143.12,89.008z"/>
		<path fill="#FFFFFF" d="M155.132,91.955l0.066-1.362h-0.066L154.229,92l-4.948,6.469h-1.014v-11h1.762v6.71l-0.066,1.298h0.088
			l0.858-1.364l4.948-6.644h1.034v11h-1.76V91.955L155.132,91.955z"/>
		<path fill="#FFFFFF" d="M159.664,92.967c0-1.862,0.414-3.289,1.243-4.279c0.827-0.988,2.021-1.484,3.573-1.484
			c0.821,0,1.536,0.138,2.146,0.406c0.606,0.272,1.111,0.66,1.507,1.166c0.396,0.508,0.689,1.115,0.88,1.826
			c0.19,0.712,0.286,1.5,0.286,2.365c0,1.861-0.415,3.287-1.243,4.277c-0.829,0.989-2.021,1.484-3.575,1.484
			c-0.82,0-1.535-0.136-2.145-0.406s-1.111-0.66-1.507-1.166c-0.396-0.507-0.69-1.115-0.88-1.826
			C159.759,94.621,159.664,93.832,159.664,92.967z M161.489,92.967c0,0.558,0.055,1.093,0.165,1.605
			c0.108,0.512,0.28,0.959,0.517,1.342c0.234,0.381,0.542,0.688,0.924,0.924c0.382,0.234,0.843,0.353,1.386,0.353
			c1.995,0.017,2.992-1.393,2.992-4.224c0-0.572-0.055-1.114-0.165-1.629c-0.108-0.514-0.283-0.961-0.517-1.342
			c-0.235-0.383-0.543-0.687-0.924-0.914c-0.384-0.228-0.846-0.34-1.388-0.34C162.487,88.729,161.489,90.137,161.489,92.967z"/>
		<path fill="#FFFFFF" d="M178.802,93.604h-4.972v4.862h-1.76v-11h1.76v4.598h4.972v-4.598h1.76v11h-1.76V93.604z"/>
		<path fill="#FFFFFF" d="M183.336,92.967c0-1.862,0.414-3.289,1.243-4.279c0.829-0.988,2.021-1.484,3.575-1.484
			c0.819,0,1.534,0.138,2.145,0.406c0.608,0.272,1.111,0.66,1.507,1.166c0.396,0.508,0.689,1.115,0.88,1.826
			c0.19,0.712,0.286,1.5,0.286,2.365c0,1.861-0.415,3.287-1.243,4.277c-0.829,0.989-2.021,1.484-3.573,1.484
			c-0.822,0-1.537-0.136-2.146-0.406s-1.111-0.66-1.507-1.166c-0.396-0.507-0.69-1.115-0.88-1.826
			C183.43,94.621,183.336,93.832,183.336,92.967z M185.161,92.967c0,0.558,0.055,1.093,0.165,1.605
			c0.108,0.512,0.28,0.959,0.517,1.342c0.234,0.381,0.542,0.688,0.924,0.924c0.382,0.234,0.843,0.353,1.386,0.353
			c1.995,0.017,2.992-1.393,2.992-4.224c0-0.572-0.055-1.114-0.165-1.629c-0.108-0.514-0.281-0.961-0.517-1.342
			c-0.235-0.383-0.543-0.687-0.924-0.914c-0.382-0.228-0.844-0.34-1.386-0.34C186.159,88.729,185.161,90.137,185.161,92.967z"/>
		<path fill="#FFFFFF" d="M195.743,87.49c0.513-0.029,1.052-0.065,1.615-0.111c0.564-0.043,1.267-0.064,2.103-0.064
			c1.452,0,2.493,0.225,3.124,0.671c0.63,0.448,0.946,1.126,0.946,2.035c0,0.515-0.15,1.017-0.451,1.507
			c-0.301,0.492-0.795,0.854-1.485,1.09v0.088c0.865,0.162,1.474,0.463,1.826,0.901c0.352,0.438,0.528,1.027,0.528,1.761
			c0,1.146-0.411,1.975-1.232,2.485c-0.821,0.515-2.054,0.771-3.696,0.771c-0.614,0-1.188-0.019-1.716-0.056
			c-0.528-0.036-1.049-0.075-1.562-0.12V87.49z M199.659,92.108c0.264,0,0.521-0.044,0.77-0.132s0.473-0.209,0.671-0.361
			c0.198-0.154,0.359-0.334,0.484-0.539c0.125-0.207,0.187-0.427,0.187-0.66c0-0.588-0.176-0.994-0.526-1.223
			c-0.354-0.227-0.97-0.341-1.85-0.341c-0.47,0-0.84,0.008-1.109,0.021c-0.271,0.016-0.532,0.029-0.781,0.045v3.188L199.659,92.108
			L199.659,92.108z M197.504,96.994c0.278,0.028,0.553,0.051,0.825,0.064c0.271,0.014,0.59,0.021,0.957,0.021
			c0.98,0,1.712-0.141,2.188-0.418c0.479-0.277,0.715-0.756,0.715-1.432c0-0.527-0.2-0.957-0.604-1.287
			c-0.404-0.328-1.119-0.494-2.146-0.494h-1.936L197.504,96.994L197.504,96.994z"/>
		<path fill="#FFFFFF" d="M221.68,91.933l0.132-2.09h-0.108l-0.792,1.692l-2.662,4.313h-0.616l-2.771-4.313l-0.727-1.692h-0.088
			l0.176,2.067v6.557h-1.628v-11h1.738l3.08,4.928l0.638,1.275h0.044l0.66-1.319l2.882-4.884h1.76v11h-1.716L221.68,91.933
			L221.68,91.933z"/>
		<path fill="#FFFFFF" d="M233.648,91.955l0.066-1.362h-0.066l-0.9,1.407l-4.95,6.469h-1.012v-11h1.76v6.71l-0.066,1.298h0.088
			l0.858-1.364l4.95-6.644h1.034v11h-1.762V91.955L233.648,91.955z"/>
		<path fill="#FFFFFF" d="M238.797,87.467h1.21l0.33,1.318h0.088c0.337-0.514,0.773-0.903,1.309-1.178
			c0.535-0.271,1.147-0.406,1.839-0.406c1.467,0,2.56,0.435,3.276,1.299c0.718,0.865,1.078,2.279,1.078,4.246
			c0,0.924-0.121,1.756-0.363,2.496c-0.24,0.74-0.583,1.367-1.021,1.881c-0.44,0.516-0.972,0.91-1.595,1.188
			c-0.623,0.279-1.316,0.418-2.079,0.418c-0.543,0-0.974-0.032-1.287-0.099c-0.315-0.066-0.657-0.182-1.023-0.342v4.576h-1.76
			L238.797,87.467L238.797,87.467z M243.241,88.744c-0.748,0-1.341,0.193-1.771,0.582c-0.433,0.391-0.737,0.979-0.913,1.771v5.456
			c0.266,0.206,0.564,0.362,0.902,0.473c0.337,0.11,0.785,0.165,1.342,0.165c1.012,0,1.815-0.377,2.409-1.133
			c0.594-0.755,0.891-1.866,0.891-3.333c0-0.603-0.052-1.147-0.152-1.64c-0.104-0.49-0.27-0.908-0.495-1.254
			c-0.229-0.346-0.521-0.611-0.88-0.805C244.212,88.838,243.768,88.744,243.241,88.744z"/>
		<path fill="#FFFFFF" d="M250.522,88.281c0.559-0.338,1.206-0.587,1.947-0.748c0.74-0.162,1.515-0.242,2.321-0.242
			c0.763,0,1.375,0.104,1.837,0.31c0.462,0.206,0.813,0.474,1.056,0.803c0.242,0.33,0.403,0.693,0.484,1.091
			c0.08,0.396,0.121,0.791,0.121,1.188c0,0.88-0.022,1.736-0.066,2.572c-0.044,0.838-0.063,1.63-0.063,2.377
			c0,0.544,0.021,1.057,0.063,1.539c0.043,0.483,0.125,0.934,0.242,1.344h-1.298l-0.462-1.54h-0.11
			c-0.132,0.206-0.297,0.405-0.495,0.604c-0.195,0.196-0.437,0.373-0.715,0.526c-0.278,0.154-0.602,0.283-0.968,0.386
			c-0.367,0.104-0.785,0.153-1.254,0.153c-0.472,0-0.906-0.073-1.311-0.22c-0.403-0.147-0.752-0.355-1.045-0.629
			c-0.294-0.271-0.523-0.598-0.691-0.979s-0.253-0.813-0.253-1.298c0-0.646,0.132-1.185,0.396-1.617
			c0.264-0.432,0.634-0.776,1.111-1.032c0.476-0.258,1.048-0.439,1.716-0.552c0.667-0.108,1.404-0.165,2.211-0.165
			c0.205,0,0.407,0,0.604,0c0.197,0,0.399,0.016,0.604,0.045c0.044-0.438,0.066-0.837,0.066-1.188c0-0.809-0.162-1.371-0.484-1.694
			c-0.323-0.321-0.909-0.483-1.76-0.483c-0.25,0-0.52,0.021-0.805,0.059c-0.284,0.038-0.578,0.09-0.88,0.158
			c-0.301,0.066-0.587,0.15-0.856,0.249c-0.272,0.098-0.511,0.206-0.715,0.327L250.522,88.281z M253.645,97.103
			c0.411,0,0.777-0.055,1.103-0.165c0.32-0.109,0.601-0.249,0.836-0.418c0.232-0.168,0.429-0.355,0.583-0.563
			c0.153-0.205,0.268-0.401,0.341-0.594v-1.826c-0.205-0.015-0.414-0.023-0.627-0.031s-0.422-0.012-0.627-0.012
			c-0.455,0-0.898,0.024-1.331,0.076c-0.433,0.051-0.814,0.146-1.146,0.285c-0.329,0.141-0.594,0.33-0.792,0.572
			c-0.196,0.24-0.297,0.547-0.297,0.913c0,0.514,0.185,0.935,0.552,1.265C252.605,96.937,253.075,97.103,253.645,97.103z"/>
		<path fill="#FFFFFF" d="M274.105,89.008h-4.86v9.46h-1.762v-11h8.384v11h-1.762V89.008L274.105,89.008z"/>
		<path fill="#FFFFFF" d="M278.637,92.967c0-1.862,0.414-3.289,1.243-4.279c0.828-0.988,2.019-1.484,3.576-1.484
			c0.818,0,1.535,0.138,2.145,0.406c0.607,0.272,1.111,0.66,1.506,1.166c0.396,0.508,0.689,1.115,0.883,1.826
			c0.188,0.712,0.283,1.5,0.283,2.365c0,1.861-0.414,3.287-1.24,4.277c-0.828,0.989-2.021,1.484-3.574,1.484
			c-0.822,0-1.537-0.136-2.146-0.406c-0.606-0.271-1.109-0.66-1.506-1.166c-0.396-0.507-0.688-1.115-0.88-1.826
			C278.732,94.621,278.637,93.832,278.637,92.967z M280.465,92.967c0,0.558,0.055,1.093,0.165,1.605
			c0.109,0.512,0.282,0.959,0.517,1.342c0.234,0.381,0.543,0.688,0.926,0.924c0.381,0.234,0.844,0.353,1.387,0.353
			c1.994,0.017,2.99-1.393,2.99-4.224c0-0.572-0.057-1.114-0.164-1.629c-0.109-0.514-0.283-0.961-0.52-1.342
			c-0.232-0.383-0.543-0.687-0.924-0.914c-0.381-0.227-0.844-0.34-1.385-0.34C281.461,88.729,280.465,90.137,280.465,92.967z"/>
		<path fill="#FFFFFF" d="M297.931,89.425c0.484-0.704,1.021-1.199,1.605-1.485c0.588-0.286,1.318-0.429,2.201-0.429
			c1.35,0,2.387,0.438,3.111,1.319c0.726,0.879,1.088,2.179,1.088,3.895c0,1.979-0.422,3.477-1.264,4.486
			c-0.844,1.014-2.021,1.52-3.531,1.52c-1.611,0-2.824-0.557-3.631-1.672c-0.807-1.114-1.209-2.867-1.209-5.258
			c0-1.262,0.063-2.34,0.188-3.234c0.125-0.896,0.309-1.648,0.551-2.266s0.535-1.107,0.881-1.475
			c0.344-0.367,0.73-0.656,1.166-0.869c0.432-0.213,0.904-0.362,1.418-0.45c0.514-0.089,1.063-0.161,1.65-0.222
			c0.762-0.072,1.357-0.158,1.793-0.252c0.432-0.097,0.779-0.269,1.045-0.519l0.195,1.584c-0.146,0.132-0.307,0.242-0.48,0.33
			c-0.178,0.088-0.393,0.162-0.641,0.22c-0.25,0.061-0.547,0.11-0.891,0.154c-0.346,0.044-0.746,0.081-1.199,0.109
			c-0.631,0.043-1.186,0.121-1.662,0.229c-0.476,0.108-0.887,0.323-1.229,0.64c-0.346,0.314-0.617,0.762-0.814,1.342
			c-0.197,0.578-0.334,1.347-0.406,2.3L297.931,89.425L297.931,89.425z M298.131,92.99c0,0.557,0.059,1.092,0.176,1.604
			c0.117,0.514,0.297,0.965,0.539,1.354c0.242,0.389,0.553,0.691,0.936,0.911c0.383,0.222,0.828,0.33,1.344,0.33
			c1.012,0,1.762-0.362,2.254-1.089s0.736-1.8,0.736-3.225c0-0.558-0.053-1.068-0.152-1.539c-0.104-0.471-0.268-0.877-0.484-1.221
			c-0.221-0.346-0.5-0.607-0.836-0.793c-0.338-0.184-0.742-0.273-1.211-0.273c-1.145-0.016-1.979,0.318-2.508,1.001
			C298.394,90.733,298.131,91.713,298.131,92.99z"/>
		<path fill="#FFFFFF" d="M308.711,87.467h1.211l0.33,1.318h0.088c0.336-0.514,0.771-0.903,1.309-1.178
			c0.535-0.271,1.146-0.406,1.836-0.406c1.467,0,2.563,0.435,3.279,1.299c0.718,0.865,1.078,2.279,1.078,4.246
			c0,0.924-0.121,1.756-0.363,2.496s-0.584,1.367-1.023,1.881c-0.438,0.516-0.973,0.91-1.596,1.188
			c-0.623,0.279-1.314,0.418-2.078,0.418c-0.543,0-0.973-0.032-1.287-0.099s-0.654-0.182-1.021-0.342v4.576h-1.76L308.711,87.467
			L308.711,87.467z M313.152,88.744c-0.748,0-1.338,0.193-1.77,0.582c-0.436,0.391-0.738,0.979-0.914,1.771v5.456
			c0.264,0.206,0.563,0.362,0.902,0.473c0.338,0.11,0.783,0.165,1.342,0.165c1.012,0,1.813-0.377,2.41-1.133
			c0.594-0.755,0.891-1.866,0.891-3.333c0-0.603-0.053-1.147-0.154-1.64c-0.104-0.49-0.268-0.908-0.496-1.254
			c-0.227-0.346-0.52-0.611-0.879-0.805C314.127,88.838,313.683,88.744,313.152,88.744z"/>
		<path fill="#FFFFFF" d="M328.642,97.588c-0.439,0.353-0.992,0.632-1.66,0.837c-0.668,0.204-1.375,0.308-2.123,0.308
			c-0.836,0-1.563-0.136-2.178-0.406c-0.615-0.27-1.123-0.66-1.518-1.166c-0.396-0.507-0.689-1.109-0.883-1.813
			c-0.19-0.704-0.283-1.496-0.283-2.376c0-1.877,0.418-3.309,1.254-4.29s2.029-1.476,3.586-1.476c0.498,0,0.996,0.057,1.496,0.166
			c0.498,0.108,0.943,0.317,1.342,0.627c0.396,0.309,0.719,0.744,0.967,1.31c0.25,0.563,0.375,1.31,0.375,2.231
			c0,0.483-0.045,1.021-0.133,1.605h-7.063c0,0.646,0.064,1.218,0.197,1.716c0.133,0.499,0.338,0.921,0.615,1.267
			c0.279,0.346,0.643,0.607,1.09,0.791c0.447,0.186,0.994,0.274,1.639,0.274c0.498,0,0.998-0.088,1.496-0.264
			c0.498-0.177,0.873-0.382,1.123-0.616L328.642,97.588z M324.859,88.744c-0.865,0-1.559,0.229-2.078,0.683
			c-0.521,0.454-0.834,1.231-0.936,2.332h5.455c0-1.114-0.213-1.896-0.637-2.345C326.236,88.967,325.636,88.744,324.859,88.744z"/>
		<path fill="#FFFFFF" d="M338.652,91.955l0.066-1.362h-0.066L337.754,92l-4.951,6.469h-1.012v-11h1.76v6.71l-0.066,1.298h0.088
			l0.859-1.364l4.949-6.644h1.035v11h-1.764V91.955L338.652,91.955z M334.318,83.022c0.146,0.675,0.4,1.146,0.76,1.408
			c0.36,0.263,0.773,0.396,1.242,0.396c0.473,0,0.891-0.14,1.256-0.418c0.365-0.279,0.615-0.731,0.746-1.363l1.32,0.418
			c-0.131,0.852-0.51,1.505-1.133,1.957c-0.623,0.455-1.367,0.684-2.232,0.684c-0.396,0-0.789-0.051-1.178-0.152
			c-0.389-0.103-0.736-0.258-1.045-0.464c-0.307-0.204-0.572-0.469-0.791-0.792c-0.221-0.322-0.367-0.703-0.441-1.144
			L334.318,83.022z"/>
		<path fill="#FFFFFF" d="M346.57,93.517h-1.012v4.95h-1.76v-11h1.76v4.972l0.947-0.31l3.52-4.662h1.914l-3.41,4.422l-0.924,0.727
			l1.145,0.881l3.676,4.973h-2.182L346.57,93.517z"/>
		<path fill="#FFFFFF" d="M353.437,91.316h5.324v1.628h-5.324V91.316z"/>
		<path fill="#FFFFFF" d="M370.728,101.261h-1.188l-0.33-2.794h-8.271l-0.33,2.794h-1.188v-4.334h1.297
			c0.117-0.161,0.271-0.451,0.463-0.869c0.189-0.418,0.377-1.004,0.561-1.761c0.186-0.756,0.346-1.693,0.484-2.815
			s0.223-2.46,0.252-4.015h6.646v9.46h1.604V101.261L370.728,101.261z M367.361,96.927v-7.92h-3.301
			c-0.029,0.614-0.08,1.286-0.154,2.013c-0.07,0.727-0.172,1.452-0.297,2.18c-0.125,0.727-0.279,1.41-0.473,2.057
			c-0.189,0.646-0.41,1.203-0.66,1.673L367.361,96.927L367.361,96.927z"/>
		<path fill="#FFFFFF" d="M372.73,88.281c0.557-0.338,1.207-0.587,1.947-0.748c0.74-0.162,1.514-0.242,2.32-0.242
			c0.764,0,1.375,0.104,1.838,0.31c0.461,0.206,0.813,0.474,1.055,0.803c0.242,0.33,0.404,0.693,0.484,1.091
			c0.08,0.396,0.121,0.791,0.121,1.188c0,0.88-0.021,1.736-0.066,2.572c-0.043,0.838-0.064,1.63-0.064,2.377
			c0,0.544,0.021,1.057,0.064,1.539c0.045,0.483,0.125,0.934,0.242,1.344h-1.297l-0.465-1.54h-0.107
			c-0.133,0.206-0.297,0.405-0.496,0.604c-0.197,0.196-0.438,0.373-0.715,0.526c-0.277,0.154-0.604,0.283-0.967,0.386
			c-0.367,0.104-0.785,0.153-1.256,0.153s-0.904-0.073-1.311-0.22c-0.402-0.146-0.75-0.355-1.045-0.629
			c-0.293-0.271-0.523-0.598-0.691-0.979c-0.17-0.381-0.254-0.813-0.254-1.298c0-0.646,0.133-1.185,0.396-1.617
			c0.264-0.432,0.635-0.776,1.109-1.032c0.478-0.258,1.047-0.439,1.717-0.552c0.668-0.108,1.402-0.165,2.211-0.165
			c0.203,0,0.406,0,0.604,0s0.4,0.016,0.605,0.045c0.043-0.438,0.064-0.837,0.064-1.188c0-0.809-0.162-1.371-0.482-1.694
			c-0.324-0.321-0.91-0.483-1.762-0.483c-0.25,0-0.518,0.021-0.803,0.059c-0.287,0.038-0.58,0.09-0.881,0.158
			c-0.301,0.066-0.586,0.15-0.857,0.249c-0.271,0.098-0.51,0.206-0.715,0.327L372.73,88.281z M375.853,97.103
			c0.412,0,0.777-0.055,1.104-0.165c0.32-0.109,0.6-0.249,0.836-0.418c0.232-0.168,0.428-0.355,0.582-0.563
			c0.152-0.205,0.268-0.401,0.342-0.594v-1.826c-0.205-0.015-0.414-0.023-0.627-0.031s-0.422-0.012-0.627-0.012
			c-0.455,0-0.898,0.024-1.332,0.076c-0.434,0.051-0.814,0.146-1.145,0.285c-0.33,0.141-0.596,0.33-0.793,0.572
			c-0.197,0.24-0.297,0.547-0.297,0.913c0,0.514,0.184,0.935,0.551,1.265C374.812,96.938,375.281,97.103,375.853,97.103z"/>
		<path fill="#FFFFFF" d="M390.551,93.604h-4.975v4.862h-1.76v-11h1.76v4.598h4.975v-4.598h1.76v11h-1.76V93.604z"/>
		<path fill="#FFFFFF" d="M403.199,97.742c-0.439,0.321-0.961,0.567-1.563,0.735c-0.604,0.169-1.232,0.253-1.895,0.253
			c-0.85,0-1.566-0.136-2.154-0.406c-0.586-0.271-1.066-0.66-1.441-1.166c-0.373-0.507-0.645-1.115-0.813-1.826
			c-0.17-0.711-0.254-1.5-0.254-2.363c0-1.862,0.408-3.289,1.23-4.279c0.82-0.988,2.002-1.484,3.541-1.484
			c0.705,0,1.303,0.057,1.793,0.166c0.492,0.108,0.938,0.269,1.332,0.474l-0.506,1.518c-0.338-0.189-0.711-0.341-1.123-0.45
			c-0.41-0.108-0.85-0.164-1.318-0.164c-2.084,0-3.125,1.406-3.125,4.225c0,0.559,0.057,1.089,0.166,1.595
			c0.109,0.507,0.293,0.954,0.549,1.343c0.258,0.39,0.596,0.7,1.014,0.937c0.418,0.233,0.936,0.353,1.551,0.353
			c0.529,0,1.002-0.08,1.42-0.242s0.76-0.345,1.023-0.551L403.199,97.742z"/>
		<path fill="#FFFFFF" d="M408.554,94.595l0.619,2.11h0.107l0.486-2.133l2.143-7.105h1.762l-3.256,9.878
			c-0.25,0.719-0.496,1.415-0.738,2.09c-0.24,0.675-0.51,1.274-0.803,1.806c-0.293,0.526-0.623,0.948-0.99,1.264
			c-0.365,0.315-0.791,0.475-1.275,0.475c-0.525,0-0.961-0.072-1.297-0.22l0.307-1.519c0.191,0.072,0.375,0.108,0.553,0.108
			c0.41,0,0.807-0.217,1.188-0.647c0.381-0.435,0.697-1.179,0.945-2.232l-4.422-11h2.023L408.554,94.595z"/>
	</g>
</g>
</svg>
