<?xml version="1.0" encoding="utf-8"?>
<!-- Generator: Adobe Illustrator 14.0.0, SVG Export Plug-In  -->
<!DOCTYPE svg PUBLIC "-//W3C//DTD SVG 1.1//EN" "http://www.w3.org/Graphics/SVG/1.1/DTD/svg11.dtd" [
	<!ENTITY ns_flows "http://ns.adobe.com/Flows/1.0/">
]>
<svg version="1.1"
	 xmlns="http://www.w3.org/2000/svg" xmlns:xlink="http://www.w3.org/1999/xlink" xmlns:a="http://ns.adobe.com/AdobeSVGViewerExtensions/3.0/"
	 x="0px" y="0px" width="40px" height="40px" viewBox="0 0 40 40" enable-background="new 0 0 40 40" xml:space="preserve">
<defs>
</defs>
<path fill="#FFFFFF" d="M20,35.746c9.332,0,16.898-7.566,16.898-16.898S29.332,1.95,20,1.95S3.102,9.516,3.102,18.848
	S10.668,35.746,20,35.746"/>
<path fill="#D161D1" d="M21.36,16.584c-1.786-0.787-3.986,0.146-4.748,1.908c-0.497,1.15-0.502,2.307-0.096,3.258
	c0.51,1.195,1.666,2.07,3.312,2.216c1.888,0.165,3.506-1.173,3.94-2.981C24.176,19.295,22.917,17.27,21.36,16.584"/>
<path fill="#D161D1" d="M26.617,15.363c-0.831,0.255-2.075-0.627-1.481-2.102c0.312-0.775,1.094-0.984,2.025-0.482
	C27.894,13.174,28.006,14.939,26.617,15.363 M23.198,25.23c-3.196,2.289-7.908,0.41-8.994-3.246
	c-0.074-0.248-0.131-0.504-0.169-0.767c-0.277-1.879,0.502-4.916,2.366-6.071c3.716-2.31,6.803-0.617,8.126,0.961
	c0.711,0.849,1.239,2.05,1.422,3.154C26.325,21.539,25.021,23.924,23.198,25.23 M23.979,10.451
	c-3.023-0.105-6.043,0.031-9.067,0.113c-3.884,0.104-4.653,4.506-4.571,7.918c0.014,0.561,0.001,1.136-0.018,1.716
	c-0.089,2.698-0.015,7.448,2.549,8.841c1.055,0.574,2.321,0.592,3.488,0.549c1.402-0.053,2.794-0.059,4.196,0.014
	c1.959,0.1,3.896,0.176,5.827-0.283c2.679-0.639,3.14-1.967,3.328-4.35c0.082-1.042-0.001-2.296,0.008-3.585
	c0.019-2.807,0.639-7.767-1.798-9.862C26.854,10.602,25.32,10.499,23.979,10.451"/>
<path fill="#D161D1" d="M31.732,20.074c0.03,1.514-0.063,3.027-0.021,4.543c0.076,2.744-0.914,5.391-3.684,6.475
	c-3.361,1.314-7.458,0.59-10.981,0.59c-1.526,0-3.094,0.123-4.558-0.311c-1.12-0.334-1.842-0.967-2.618-1.836
	c-0.349-0.391-0.577-0.783-0.764-1.262c-0.902-2.313-0.729-4.437-0.828-6.871c-0.059-1.391-0.032-2.784-0.021-4.178
	c0.02-1.902,0.006-3.604,0.705-5.406c0.708-1.82,3.133-3.256,5.013-3.379c3.857-0.252,7.918-0.588,11.752,0.028
	c1.513,0.243,3.104,0.74,4.191,1.871c1.416,1.472,1.761,3.573,1.826,5.687C31.788,17.432,31.707,18.842,31.732,20.074 M20,0
	C8.954,0,0,8.954,0,20c0,11.047,8.954,20,20,20s20-8.953,20-20C40,8.954,31.046,0,20,0"/>
</svg>
