<?xml version="1.0" encoding="UTF-8" standalone="no"?>
<!-- Generator: Adobe Illustrator 14.0.0, SVG Export Plug-In  -->

<svg
   xmlns:dc="http://purl.org/dc/elements/1.1/"
   xmlns:cc="http://creativecommons.org/ns#"
   xmlns:rdf="http://www.w3.org/1999/02/22-rdf-syntax-ns#"
   xmlns:svg="http://www.w3.org/2000/svg"
   xmlns="http://www.w3.org/2000/svg"
   xmlns:xlink="http://www.w3.org/1999/xlink"
   xmlns:sodipodi="http://sodipodi.sourceforge.net/DTD/sodipodi-0.dtd"
   xmlns:inkscape="http://www.inkscape.org/namespaces/inkscape"
   version="1.1"
   x="0px"
   y="0px"
   width="45px"
   height="45px"
   viewBox="233.5 233.5 45 45"
   enable-background="new 233.5 233.5 45 45"
   xml:space="preserve"
   id="svg2"
   inkscape:version="0.48.5 r10040"
   sodipodi:docname="inst.svg"><metadata
     id="metadata23"><rdf:RDF><cc:Work
         rdf:about=""><dc:format>image/svg+xml</dc:format><dc:type
           rdf:resource="http://purl.org/dc/dcmitype/StillImage" /></cc:Work></rdf:RDF></metadata><sodipodi:namedview
     pagecolor="#ffffff"
     bordercolor="#666666"
     borderopacity="1"
     objecttolerance="10"
     gridtolerance="10"
     guidetolerance="10"
     inkscape:pageopacity="0"
     inkscape:pageshadow="2"
     inkscape:window-width="1920"
     inkscape:window-height="1148"
     id="namedview21"
     showgrid="false"
     inkscape:zoom="5.2444444"
     inkscape:cx="-0.19067797"
     inkscape:cy="22.5"
     inkscape:window-x="-4"
     inkscape:window-y="-3"
     inkscape:window-maximized="1"
     inkscape:current-layer="svg2" /><defs
     id="defs4"><linearGradient
       inkscape:collect="always"
       xlink:href="#SVGID_1_"
       id="linearGradient3010"
       gradientUnits="userSpaceOnUse"
       x1="5.6553"
       y1="46.5566"
       x2="39.3446"
       y2="-1.5568" /></defs><g
     id="g3000"
     transform="translate(233.5,233.5)"><g
       id="g6"><linearGradient
         y2="-1.5568"
         x2="39.344601"
         y1="46.556599"
         x1="5.6553001"
         gradientUnits="userSpaceOnUse"
         id="SVGID_1_"><stop
           id="stop9"
           style="stop-color:#FFB900"
           offset="0" /><stop
           id="stop11"
           style="stop-color:#9100EB"
           offset="1" /></linearGradient><path
         id="path13"
         d="m 45,40 c 0,2.75 -2.25,5 -5,5 H 5 C 2.25,45 0,42.75 0,40 V 5 C 0,2.25 2.25,0 5,0 h 35 c 2.75,0 5,2.25 5,5 v 35 z"
         style="fill:url(#linearGradient3010)"
         inkscape:connector-curvature="0" /></g><path
       id="path15"
       d="M 30.234,39.375 H 14.766 c -5.04,0 -9.141,-4.101 -9.141,-9.141 V 14.766 c 0,-5.04 4.101,-9.141 9.141,-9.141 h 15.469 c 5.04,0 9.141,4.101 9.141,9.141 v 15.469 c -10e-4,5.039 -4.102,9.14 -9.142,9.14 z M 14.766,8.438 c -3.489,0 -6.328,2.839 -6.328,6.328 v 15.469 c 0,3.489 2.839,6.328 6.328,6.328 h 15.469 c 3.489,0 6.328,-2.839 6.328,-6.328 V 14.766 c 0,-3.489 -2.839,-6.328 -6.328,-6.328 H 14.766 z"
       inkscape:connector-curvature="0"
       style="fill:#ffffff" /><path
       id="path17"
       d="m 22.5,30.938 c -4.652,0 -8.438,-3.785 -8.438,-8.438 0,-4.653 3.785,-8.438 8.438,-8.438 4.653,0 8.438,3.785 8.438,8.438 0,4.653 -3.786,8.438 -8.438,8.438 z m 0,-14.063 c -3.102,0 -5.625,2.523 -5.625,5.625 0,3.102 2.523,5.625 5.625,5.625 3.102,0 5.625,-2.523 5.625,-5.625 0,-3.102 -2.523,-5.625 -5.625,-5.625 z"
       inkscape:connector-curvature="0"
       style="fill:#ffffff" /><circle
       id="circle19"
       r="1.934"
       cy="13.535"
       cx="31.465"
       sodipodi:cx="31.465"
       sodipodi:cy="13.535"
       sodipodi:rx="1.934"
       sodipodi:ry="1.934"
       style="fill:#ffffff"
       d="m 33.399,13.535 c 0,1.068119 -0.865881,1.934 -1.934,1.934 -1.068119,0 -1.934,-0.865881 -1.934,-1.934 0,-1.068119 0.865881,-1.934 1.934,-1.934 1.068119,0 1.934,0.865881 1.934,1.934 z" /></g></svg>