<?xml version="1.0" encoding="UTF-8" standalone="no"?>
<!-- Generator: Adobe Illustrator 14.0.0, SVG Export Plug-In  -->

<svg
   xmlns:dc="http://purl.org/dc/elements/1.1/"
   xmlns:cc="http://creativecommons.org/ns#"
   xmlns:rdf="http://www.w3.org/1999/02/22-rdf-syntax-ns#"
   xmlns:svg="http://www.w3.org/2000/svg"
   xmlns="http://www.w3.org/2000/svg"
   xmlns:sodipodi="http://sodipodi.sourceforge.net/DTD/sodipodi-0.dtd"
   xmlns:inkscape="http://www.inkscape.org/namespaces/inkscape"
   version="1.1"
   x="0px"
   y="0px"
   width="45px"
   height="45px"
   viewBox="233.5 233.5 45 45"
   enable-background="new 233.5 233.5 45 45"
   xml:space="preserve"
   id="svg2"
   inkscape:version="0.48.5 r10040"
   sodipodi:docname="telegram.svg"><metadata
     id="metadata13"><rdf:RDF><cc:Work
         rdf:about=""><dc:format>image/svg+xml</dc:format><dc:type
           rdf:resource="http://purl.org/dc/dcmitype/StillImage" /><dc:title /></cc:Work></rdf:RDF></metadata><sodipodi:namedview
     pagecolor="#ffffff"
     bordercolor="#666666"
     borderopacity="1"
     objecttolerance="10"
     gridtolerance="10"
     guidetolerance="10"
     inkscape:pageopacity="0"
     inkscape:pageshadow="2"
     inkscape:window-width="1920"
     inkscape:window-height="1148"
     id="namedview11"
     showgrid="false"
     inkscape:zoom="11.313708"
     inkscape:cx="11.925304"
     inkscape:cy="15.667069"
     inkscape:window-x="-4"
     inkscape:window-y="-3"
     inkscape:window-maximized="1"
     inkscape:current-layer="svg2" /><defs
     id="defs4" /><g
     id="g6"
     transform="translate(233.5,233.5)"
     style="fill:#139bd0;fill-opacity:1"><path
       style="fill:#139bd0;fill-opacity:1"
       inkscape:connector-curvature="0"
       d="m 45,40 c 0,2.75 -2.25,5 -5,5 H 5 C 2.25,45 0,42.75 0,40 V 5 C 0,2.25 2.25,0 5,0 h 35 c 2.75,0 5,2.25 5,5 v 35 z"
       id="path8" /></g><path
     style="fill:#ffffff;fill-rule:evenodd"
     inkscape:connector-curvature="0"
     id="path7"
     d="m 256.7224,261.27005 c -0.84916,0.8271 -1.69097,1.6405 -2.52495,2.46027 -0.29156,0.28714 -0.61935,0.4459 -1.03782,0.42384 -0.28567,-0.0152 -0.44541,-0.14063 -0.53311,-0.41159 -0.63897,-1.98302 -1.28722,-3.96114 -1.92276,-5.94612 -0.0617,-0.19256 -0.15286,-0.28616 -0.34789,-0.34643 -1.50528,-0.45961 -3.0076,-0.93001 -4.50749,-1.40677 -0.23079,-0.0735 -0.46353,-0.16954 -0.66295,-0.30527 -0.30822,-0.20874 -0.35331,-0.54929 -0.0769,-0.7943 0.25527,-0.22588 0.56005,-0.42286 0.8766,-0.54829 1.83994,-0.72912 3.68966,-1.43471 5.53648,-2.14667 4.68681,-1.80957 9.37364,-3.61766 14.06094,-5.42722 0.89131,-0.34447 1.57633,0.14063 1.48372,1.10446 -0.0592,0.61641 -0.21903,1.22302 -0.3479,1.8316 -1.01772,4.8054 -2.03642,9.61129 -3.05954,14.41572 -0.24304,1.14071 -1.04419,1.43863 -1.98301,0.74627 -1.5724,-1.15885 -3.14334,-2.32161 -4.71475,-3.48242 -0.075,-0.0544 -0.15289,-0.10681 -0.23864,-0.16708 z m -3.52945,1.45921 c 0.0177,-0.005 0.0354,-0.01 0.0529,-0.0142 0.01,-0.045 0.024,-0.0892 0.0279,-0.13376 0.10095,-1.08926 0.20776,-2.17804 0.29548,-3.26927 0.0196,-0.24303 0.10289,-0.41553 0.28566,-0.57917 1.44941,-1.29605 2.89,-2.60042 4.33353,-3.90184 1.59788,-1.44109 3.19625,-2.88071 4.78825,-4.32765 0.0985,-0.0892 0.13965,-0.24109 0.20727,-0.36457 -0.14994,-0.0161 -0.31065,-0.0765 -0.44688,-0.0411 -0.18571,0.048 -0.36161,0.15581 -0.52723,0.26019 -3.52651,2.22114 -7.05008,4.44623 -10.57903,6.66298 -0.19943,0.12543 -0.23668,0.23177 -0.16072,0.45079 0.26018,0.74725 0.49686,1.50135 0.74234,2.25398 0.32683,1.00156 0.65365,2.00263 0.98048,3.00369 z"
     clip-rule="evenodd" /></svg>