<?xml version="1.0" encoding="utf-8"?>
<!-- Generator: Adobe Illustrator 14.0.0, SVG Export Plug-In  -->
<!DOCTYPE svg PUBLIC "-//W3C//DTD SVG 1.1//EN" "http://www.w3.org/Graphics/SVG/1.1/DTD/svg11.dtd" [
	<!ENTITY ns_flows "http://ns.adobe.com/Flows/1.0/">
]>
<svg version="1.1"
	 xmlns="http://www.w3.org/2000/svg" xmlns:xlink="http://www.w3.org/1999/xlink" xmlns:a="http://ns.adobe.com/AdobeSVGViewerExtensions/3.0/"
	 x="0px" y="0px" width="40px" height="40px" viewBox="0 0 40 40" enable-background="new 0 0 40 40" xml:space="preserve">
<defs>
</defs>
<path fill="#FFFFFF" d="M20,38.916c9.691,0,17.547-7.855,17.547-17.547S29.691,3.821,20,3.821c-9.691,0-17.547,7.856-17.547,17.548
	S10.309,38.916,20,38.916"/>
<path fill="#4D75A3" d="M30.749,27.59c-0.854,0.533-4.322,0.693-5.162,0.082c-0.461-0.334-0.882-0.752-1.281-1.15
	c-0.279-0.279-0.598-0.414-0.839-0.717c-0.195-0.248-0.331-0.539-0.537-0.783c-0.349-0.41-0.886-0.76-1.31-0.258
	c-0.64,0.754,0.1,2.232-0.753,2.795c-0.286,0.189-0.574,0.243-0.933,0.217l-0.791,0.037c-0.465,0.008-1.201,0.013-1.73-0.082
	c-0.59-0.107-1.077-0.431-1.611-0.666c-1.013-0.449-1.978-1.063-2.712-1.91c-1.999-2.309-4.683-5.485-5.726-8.389
	c-0.215-0.596-0.782-1.777-0.244-2.289c0.73-0.531,4.315-0.681,4.875,0.141c0.227,0.333,0.37,0.82,0.531,1.199
	c0.199,0.472,0.308,0.916,0.621,1.332c0.276,0.371,0.48,0.742,0.694,1.148c0.241,0.455,0.468,0.893,0.76,1.311
	c0.199,0.285,0.724,0.853,1.056,0.895c0.809,0.104,0.759-1.863,0.699-2.343c-0.059-0.464-0.073-0.954-0.058-1.423
	c0.012-0.4,0.048-0.965-0.188-1.291c-0.387-0.533-1.247-0.135-1.314-0.852c0.143-0.203,0.112-0.383,1.062-0.695
	c0.748-0.246,1.23-0.238,1.724-0.198c1.006,0.079,2.072-0.192,3.042,0.134c0.927,0.313,0.784,1.63,0.753,2.419
	c-0.042,1.078,0.003,2.13,0,3.224c-0.002,0.498-0.022,0.983,0.586,0.942c0.569-0.038,0.628-0.517,0.899-0.912
	c0.378-0.551,0.725-1.11,1.109-1.659c0.519-0.742,0.676-1.576,1.163-2.336c0.175-0.271,0.325-0.851,0.594-1.066
	c0.204-0.162,0.592-0.077,0.838-0.077h0.587c0.447,0,0.905-0.005,1.366,0.012c0.664,0.022,1.407-0.129,2.065-0.036
	c2.84,0.401-3.57,6.473-3.236,7.557c0.23,0.748,1.693,1.586,2.221,2.199C30.269,24.916,32.426,26.539,30.749,27.59 M20,0
	C8.954,0,0,8.954,0,20s8.954,20,20,20s20-8.954,20-20S31.046,0,20,0"/>
</svg>
