<?xml version="1.0" encoding="utf-8"?>
<!-- Generator: Adobe Illustrator 14.0.0, SVG Export Plug-In . SVG Version: 6.00 Build 43363)  -->
<!DOCTYPE svg PUBLIC "-//W3C//DTD SVG 1.1//EN" "http://www.w3.org/Graphics/SVG/1.1/DTD/svg11.dtd">
<svg version="1.1"
	 id="Layer_1" xmlns:cc="http://creativecommons.org/ns#" xmlns:dc="http://purl.org/dc/elements/1.1/" xmlns:inkscape="http://www.inkscape.org/namespaces/inkscape" xmlns:sodipodi="http://sodipodi.sourceforge.net/DTD/sodipodi-0.dtd" xmlns:rdf="http://www.w3.org/1999/02/22-rdf-syntax-ns#" xmlns:svg="http://www.w3.org/2000/svg"
	 xmlns="http://www.w3.org/2000/svg" xmlns:xlink="http://www.w3.org/1999/xlink" x="0px" y="0px" width="45px" height="45px"
	 viewBox="233.5 233.5 45 45" enable-background="new 233.5 233.5 45 45" xml:space="preserve">
<g>
	<path fill="#0066B4" d="M278.5,274.248c0,2.339-1.913,4.252-4.252,4.252h-36.496c-2.338,0-4.252-1.913-4.252-4.252v-36.496
		c0-2.338,1.914-4.252,4.252-4.252h36.496c2.339,0,4.252,1.914,4.252,4.252V274.248z"/>
</g>
<path id="path9" fill="#FFFFFF" d="M255.702,263.877h1.664c0,0,0.502-0.057,0.759-0.333c0.237-0.254,0.229-0.729,0.229-0.729
	s-0.033-2.234,1.004-2.563c1.021-0.324,2.334,2.157,3.725,3.112c1.052,0.723,1.852,0.564,1.852,0.564l3.718-0.052
	c0,0,1.946-0.121,1.024-1.649c-0.076-0.126-0.538-1.132-2.766-3.199c-2.332-2.165-2.02-1.814,0.789-5.558
	c1.71-2.281,2.394-3.672,2.181-4.268c-0.203-0.569-1.462-0.42-1.462-0.42l-4.188,0.026c0,0-0.311-0.041-0.541,0.097
	c-0.224,0.134-0.369,0.448-0.369,0.448s-0.663,1.765-1.547,3.265c-1.863,3.167-2.609,3.334-2.914,3.137
	c-0.709-0.459-0.532-1.84-0.532-2.821c0-3.07,0.466-4.349-0.906-4.68c-0.456-0.11-0.791-0.184-1.955-0.194
	c-1.493-0.016-2.758,0.005-3.474,0.355c-0.477,0.233-0.844,0.753-0.62,0.783c0.277,0.037,0.903,0.169,1.235,0.621
	c0.43,0.583,0.414,1.894,0.414,1.894s0.247,3.612-0.576,4.061c-0.563,0.309-1.338-0.32-3.001-3.192
	c-0.851-1.471-1.494-3.098-1.494-3.098s-0.124-0.304-0.345-0.466c-0.268-0.197-0.644-0.26-0.644-0.26l-3.979,0.025
	c0,0-0.597,0.018-0.815,0.277c-0.196,0.23-0.016,0.709-0.016,0.709s3.115,7.286,6.642,10.959
	C252.028,264.099,255.702,263.877,255.702,263.877L255.702,263.877L255.702,263.877z"/>
</svg>
