<?xml version="1.0" encoding="UTF-8" standalone="no"?>
<!-- Generator: Adobe Illustrator 14.0.0, SVG Export Plug-In  -->

<svg
   xmlns:dc="http://purl.org/dc/elements/1.1/"
   xmlns:cc="http://creativecommons.org/ns#"
   xmlns:rdf="http://www.w3.org/1999/02/22-rdf-syntax-ns#"
   xmlns:svg="http://www.w3.org/2000/svg"
   xmlns="http://www.w3.org/2000/svg"
   xmlns:sodipodi="http://sodipodi.sourceforge.net/DTD/sodipodi-0.dtd"
   xmlns:inkscape="http://www.inkscape.org/namespaces/inkscape"
   version="1.1"
   x="0px"
   y="0px"
   width="45px"
   height="45px"
   viewBox="233.5 233.5 45 45"
   enable-background="new 233.5 233.5 45 45"
   xml:space="preserve"
   id="svg2"
   inkscape:version="0.48.5 r10040"
   sodipodi:docname="vk.svg"><metadata
     id="metadata13"><rdf:RDF><cc:Work
         rdf:about=""><dc:format>image/svg+xml</dc:format><dc:type
           rdf:resource="http://purl.org/dc/dcmitype/StillImage" /></cc:Work></rdf:RDF></metadata><sodipodi:namedview
     pagecolor="#ffffff"
     bordercolor="#666666"
     borderopacity="1"
     objecttolerance="10"
     gridtolerance="10"
     guidetolerance="10"
     inkscape:pageopacity="0"
     inkscape:pageshadow="2"
     inkscape:window-width="1920"
     inkscape:window-height="1148"
     id="namedview11"
     showgrid="false"
     inkscape:zoom="5.2444444"
     inkscape:cx="20.563394"
     inkscape:cy="21.28127"
     inkscape:window-x="-4"
     inkscape:window-y="-3"
     inkscape:window-maximized="1"
     inkscape:current-layer="svg2" /><defs
     id="defs4" /><g
     id="g2990"
     transform="translate(233.5,233.5)"><g
       id="g6"><path
         id="path8"
         d="m 45,40 c 0,2.75 -2.25,5 -5,5 H 5 C 2.25,45 0,42.75 0,40 V 5 C 0,2.25 2.25,0 5,0 h 35 c 2.75,0 5,2.25 5,5 v 35 z"
         inkscape:connector-curvature="0"
         style="fill:#0066b4" /></g><path
       d="m 22.202,30.377 h 1.664 c 0,0 0.502,-0.057 0.759,-0.333 0.237,-0.254 0.229,-0.729 0.229,-0.729 0,0 -0.033,-2.233 1.004,-2.563 1.021,-0.324 2.334,2.157 3.725,3.112 1.052,0.723 1.853,0.563 1.853,0.563 l 3.718,-0.052 c 0,0 1.946,-0.121 1.023,-1.649 -0.075,-0.125 -0.537,-1.131 -2.766,-3.199 -2.332,-2.164 -2.02,-1.813 0.789,-5.557 1.71,-2.281 2.394,-3.673 2.181,-4.269 -0.203,-0.569 -1.462,-0.42 -1.462,-0.42 l -4.188,0.026 c 0,0 -0.312,-0.041 -0.541,0.097 -0.225,0.134 -0.369,0.448 -0.369,0.448 0,0 -0.663,1.765 -1.547,3.265 -1.863,3.167 -2.609,3.334 -2.914,3.137 -0.709,-0.459 -0.532,-1.84 -0.532,-2.821 0,-3.069 0.466,-4.349 -0.906,-4.68 -0.456,-0.109 -0.791,-0.184 -1.955,-0.193 -1.492,-0.017 -2.758,0.004 -3.474,0.354 -0.477,0.233 -0.844,0.753 -0.62,0.783 0.277,0.036 0.903,0.169 1.235,0.62 0.43,0.584 0.414,1.895 0.414,1.895 0,0 0.247,3.612 -0.576,4.061 -0.563,0.31 -1.338,-0.319 -3.001,-3.191 -0.852,-1.471 -1.494,-3.098 -1.494,-3.098 0,0 -0.124,-0.305 -0.345,-0.467 -0.269,-0.197 -0.645,-0.26 -0.645,-0.26 l -3.979,0.025 c 0,0 -0.598,0.018 -0.815,0.277 -0.194,0.231 -0.015,0.711 -0.015,0.711 0,0 3.115,7.285 6.642,10.959 3.234,3.371 6.908,3.148 6.908,3.148 l 0,0 0,0 z"
       id="path9_1_"
       inkscape:connector-curvature="0"
       style="fill:#ffffff" /></g></svg>