<?xml version="1.0" encoding="utf-8"?>
<!-- Generator: Adobe Illustrator 14.0.0, SVG Export Plug-In  -->
<!DOCTYPE svg PUBLIC "-//W3C//DTD SVG 1.1//EN" "http://www.w3.org/Graphics/SVG/1.1/DTD/svg11.dtd" [
	<!ENTITY ns_flows "http://ns.adobe.com/Flows/1.0/">
]>
<svg version="1.1"
	 xmlns="http://www.w3.org/2000/svg" xmlns:xlink="http://www.w3.org/1999/xlink" xmlns:a="http://ns.adobe.com/AdobeSVGViewerExtensions/3.0/"
	 x="0px" y="0px" width="22px" height="22px" viewBox="0 0 22 22" enable-background="new 0 0 22 22" xml:space="preserve">
<defs>
</defs>
<path fill="#65BC54" d="M22,10.717c0,5.918-4.835,10.716-10.8,10.716c-1.894,0-3.673-0.482-5.221-1.333L0,22l1.949-5.75
	c-0.983-1.615-1.549-3.509-1.549-5.533C0.399,4.798,5.235,0,11.2,0C17.165,0,22,4.798,22,10.717z"/>
<path fill="#FFFFFF" d="M16.653,13.185c-0.065-0.109-0.243-0.175-0.507-0.307c-0.266-0.131-1.566-0.767-1.809-0.854
	c-0.244-0.087-0.42-0.131-0.598,0.132c-0.175,0.264-0.683,0.854-0.838,1.029c-0.155,0.176-0.308,0.198-0.572,0.065
	c-0.265-0.13-1.119-0.407-2.13-1.303c-0.787-0.696-1.318-1.556-1.473-1.819C8.573,9.865,8.711,9.723,8.843,9.592
	c0.119-0.118,0.265-0.307,0.397-0.46c0.132-0.154,0.176-0.263,0.264-0.438c0.089-0.176,0.044-0.329-0.022-0.46
	C9.417,8.103,8.888,6.81,8.667,6.284C8.446,5.758,8.226,5.846,8.071,5.846c-0.154,0-0.331-0.022-0.507-0.022
	c-0.176,0-0.463,0.066-0.706,0.329C6.615,6.416,5.932,7.051,5.932,8.343c0,1.293,0.948,2.542,1.081,2.716
	c0.132,0.176,1.831,2.914,4.521,3.966c2.693,1.052,2.693,0.702,3.179,0.657c0.484-0.044,1.564-0.635,1.786-1.249
	C16.72,13.82,16.72,13.295,16.653,13.185L16.653,13.185z"/>
<path id="WhatsApp_2_" fill="#FFFFFF" d="M22,10.717c0,5.918-4.835,10.716-10.8,10.716c-1.895,0-3.673-0.482-5.221-1.333L0,22
	l1.948-5.75c-0.982-1.615-1.549-3.509-1.549-5.533C0.399,4.798,5.235,0,11.2,0S22,4.798,22,10.717z M11.2,1.707
	c-5.008,0-9.08,4.042-9.08,9.01c0,1.971,0.643,3.798,1.729,5.283l-1.135,3.345l3.489-1.108c1.434,0.941,3.151,1.49,4.996,1.49
	c5.006,0,9.08-4.042,9.08-9.01C20.28,5.749,16.207,1.707,11.2,1.707L11.2,1.707z"/>
</svg>
