<?xml version="1.0" encoding="UTF-8" standalone="no"?>
<!-- Generator: Adobe Illustrator 14.0.0, SVG Export Plug-In  -->

<svg
   xmlns:dc="http://purl.org/dc/elements/1.1/"
   xmlns:cc="http://creativecommons.org/ns#"
   xmlns:rdf="http://www.w3.org/1999/02/22-rdf-syntax-ns#"
   xmlns:svg="http://www.w3.org/2000/svg"
   xmlns="http://www.w3.org/2000/svg"
   xmlns:sodipodi="http://sodipodi.sourceforge.net/DTD/sodipodi-0.dtd"
   xmlns:inkscape="http://www.inkscape.org/namespaces/inkscape"
   version="1.1"
   x="0px"
   y="0px"
   width="45px"
   height="45px"
   viewBox="233.5 233.5 45 45"
   enable-background="new 233.5 233.5 45 45"
   xml:space="preserve"
   id="svg2"
   inkscape:version="0.48.5 r10040"
   sodipodi:docname="youtube.svg"><metadata
     id="metadata13"><rdf:RDF><cc:Work
         rdf:about=""><dc:format>image/svg+xml</dc:format><dc:type
           rdf:resource="http://purl.org/dc/dcmitype/StillImage" /></cc:Work></rdf:RDF></metadata><sodipodi:namedview
     pagecolor="#ffffff"
     bordercolor="#666666"
     borderopacity="1"
     objecttolerance="10"
     gridtolerance="10"
     guidetolerance="10"
     inkscape:pageopacity="0"
     inkscape:pageshadow="2"
     inkscape:window-width="1920"
     inkscape:window-height="1148"
     id="namedview11"
     showgrid="false"
     inkscape:zoom="1.3111111"
     inkscape:cx="55.135456"
     inkscape:cy="-2.1858357"
     inkscape:window-x="-4"
     inkscape:window-y="-3"
     inkscape:window-maximized="1"
     inkscape:current-layer="svg2" /><defs
     id="defs4" /><g
     id="g2990"
     transform="translate(233.5,233.5)"><g
       id="g6"><path
         id="path8"
         d="m 45,40 c 0,2.75 -2.25,5 -5,5 H 5 C 2.25,45 0,42.75 0,40 V 5 C 0,2.25 2.25,0 5,0 h 35 c 2.75,0 5,2.25 5,5 v 35 z"
         inkscape:connector-curvature="0"
         style="fill:#cf2200" /></g><path
       d="m 32.633,30.638 h -1.93 l 0.009,-1.121 c 0,-0.498 0.409,-0.905 0.909,-0.905 h 0.123 c 0.501,0 0.911,0.407 0.911,0.905 l -0.022,1.121 z m -7.237,-2.402 c -0.489,0 -0.89,0.328 -0.89,0.731 v 5.45 c 0,0.402 0.4,0.73 0.89,0.73 0.491,0 0.893,-0.328 0.893,-0.73 v -5.45 c -0.001,-0.403 -0.402,-0.731 -0.893,-0.731 z m 11.752,-3.048 v 10.368 c 0,2.487 -2.157,4.522 -4.793,4.522 h -19.71 c -2.637,0 -4.793,-2.035 -4.793,-4.522 V 25.188 c 0,-2.487 2.156,-4.523 4.793,-4.523 h 19.711 c 2.635,-10e-4 4.792,2.035 4.792,4.523 z M 13.96,36.682 V 25.76 h 2.443 v -1.618 l -6.514,-0.01 v 1.591 l 2.033,0.006 v 10.953 h 2.038 l 0,0 z m 7.324,-9.295 h -2.037 v 5.832 c 0,0.844 0.051,1.266 -0.004,1.414 -0.166,0.453 -0.91,0.933 -1.2,0.049 -0.05,-0.154 -0.006,-0.621 -0.007,-1.423 l -0.009,-5.872 h -2.025 l 0.006,5.779 c 0,0.887 -0.02,1.547 0.008,1.848 0.049,0.53 0.031,1.148 0.523,1.501 0.916,0.661 2.673,-0.099 3.112,-1.042 l -0.004,1.204 1.636,0.002 10e-4,-9.292 0,0 z m 6.517,6.678 -0.004,-4.854 c 0,-1.85 -1.386,-2.958 -3.265,-1.461 l 0.008,-3.609 -2.035,0.003 -0.01,12.457 1.673,-0.024 0.152,-0.775 c 2.14,1.961 3.484,0.616 3.481,-1.737 l 0,0 z m 6.375,-0.643 -1.527,0.008 c 0,0.061 -0.004,0.131 -0.004,0.207 v 0.853 c 0,0.456 -0.377,0.827 -0.835,0.827 h -0.299 c -0.459,0 -0.835,-0.371 -0.835,-0.827 v -0.095 -0.938 -1.21 h 3.497 v -1.316 c 0,-0.962 -0.024,-1.924 -0.104,-2.474 -0.25,-1.74 -2.691,-2.016 -3.926,-1.125 -0.387,0.277 -0.683,0.65 -0.854,1.15 -0.174,0.5 -0.26,1.184 -0.26,2.053 v 2.894 c -0.001,4.811 5.844,4.132 5.147,-0.007 l 0,0 z M 26.341,17.708 c 0.105,0.255 0.269,0.462 0.49,0.618 0.219,0.154 0.499,0.231 0.833,0.231 0.294,0 0.555,-0.079 0.781,-0.243 0.226,-0.162 0.416,-0.406 0.57,-0.73 l -0.038,0.799 h 2.271 V 8.727 h -1.787 v 7.516 c 0,0.407 -0.335,0.74 -0.745,0.74 -0.407,0 -0.743,-0.333 -0.743,-0.74 V 8.727 h -1.866 v 6.514 c 0,0.829 0.015,1.383 0.04,1.663 0.025,0.278 0.089,0.545 0.194,0.804 z M 19.46,12.254 c 0,-0.927 0.077,-1.65 0.23,-2.173 0.155,-0.52 0.433,-0.938 0.835,-1.253 0.401,-0.316 0.915,-0.476 1.539,-0.476 0.525,0 0.976,0.104 1.352,0.306 0.378,0.203 0.669,0.467 0.871,0.792 0.206,0.326 0.346,0.662 0.421,1.005 0.076,0.349 0.113,0.873 0.113,1.582 v 2.441 c 0,0.896 -0.036,1.555 -0.105,1.974 -0.069,0.419 -0.218,0.809 -0.447,1.173 -0.227,0.361 -0.52,0.631 -0.874,0.804 -0.358,0.174 -0.769,0.259 -1.232,0.259 -0.518,0 -0.953,-0.071 -1.313,-0.221 -0.36,-0.148 -0.639,-0.372 -0.838,-0.67 -0.2,-0.297 -0.341,-0.66 -0.426,-1.082 -0.086,-0.423 -0.127,-1.058 -0.127,-1.904 l 0.001,-2.557 0,0 z m 1.778,3.836 c 0,0.547 0.407,0.993 0.902,0.993 0.496,0 0.901,-0.446 0.901,-0.993 v -5.141 c 0,-0.546 -0.405,-0.992 -0.901,-0.992 -0.495,0 -0.902,0.446 -0.902,0.992 v 5.141 l 0,0 z m -6.284,2.596 h 2.142 L 17.1,11.28 19.631,4.935 H 17.288 L 15.942,9.648 14.578,4.922 h -2.319 l 2.693,6.361 0.004,7.402 h -0.002 z"
       id="YouTube_1_"
       inkscape:connector-curvature="0"
       style="fill:#ffffff" /></g></svg>