<?xml version="1.0" encoding="UTF-8" standalone="no"?>
<!-- Generator: Adobe Illustrator 14.0.0, SVG Export Plug-In  -->

<svg
   xmlns:dc="http://purl.org/dc/elements/1.1/"
   xmlns:cc="http://creativecommons.org/ns#"
   xmlns:rdf="http://www.w3.org/1999/02/22-rdf-syntax-ns#"
   xmlns:svg="http://www.w3.org/2000/svg"
   xmlns="http://www.w3.org/2000/svg"
   xmlns:sodipodi="http://sodipodi.sourceforge.net/DTD/sodipodi-0.dtd"
   xmlns:inkscape="http://www.inkscape.org/namespaces/inkscape"
   version="1.1"
   x="0px"
   y="0px"
   width="45px"
   height="45px"
   viewBox="233.5 233.5 45 45"
   enable-background="new 233.5 233.5 45 45"
   xml:space="preserve"
   id="svg2"
   inkscape:version="0.48.5 r10040"
   sodipodi:docname="youtube.svg"><metadata
     id="metadata13"><rdf:RDF><cc:Work
         rdf:about=""><dc:format>image/svg+xml</dc:format><dc:type
           rdf:resource="http://purl.org/dc/dcmitype/StillImage" /></cc:Work></rdf:RDF></metadata><sodipodi:namedview
     pagecolor="#ffffff"
     bordercolor="#666666"
     borderopacity="1"
     objecttolerance="10"
     gridtolerance="10"
     guidetolerance="10"
     inkscape:pageopacity="0"
     inkscape:pageshadow="2"
     inkscape:window-width="1920"
     inkscape:window-height="1148"
     id="namedview11"
     showgrid="false"
     inkscape:zoom="5.2444444"
     inkscape:cx="14.573678"
     inkscape:cy="19.988705"
     inkscape:window-x="-4"
     inkscape:window-y="-3"
     inkscape:window-maximized="1"
     inkscape:current-layer="svg2" /><defs
     id="defs4" /><g
     id="g6"
     transform="translate(233.5,233.5)"><path
       style="fill:#cf2200"
       inkscape:connector-curvature="0"
       d="m 45,40 c 0,2.75 -2.25,5 -5,5 H 5 C 2.25,45 0,42.75 0,40 V 5 C 0,2.25 2.25,0 5,0 h 35 c 2.75,0 5,2.25 5,5 v 35 z"
       id="path8" /></g><path
     style="fill:#ffffff"
     inkscape:connector-curvature="0"
     id="YouTube_1_"
     d="m 264.55014,262.86678 h -1.62851 l 0.008,-0.94589 c 0,-0.42021 0.34511,-0.76363 0.76701,-0.76363 h 0.10378 c 0.42274,0 0.7687,0.34342 0.7687,0.76363 l -0.0186,0.94589 z m -6.10652,-2.02679 c -0.41261,0 -0.75097,0.27676 -0.75097,0.61681 v 4.59867 c 0,0.3392 0.33751,0.61597 0.75097,0.61597 0.4143,0 0.75351,-0.27677 0.75351,-0.61597 v -4.59867 c -8.5e-4,-0.34005 -0.33921,-0.61681 -0.75351,-0.61681 z m 9.91624,-2.57188 v 8.74844 c 0,2.09851 -1.82005,3.81562 -4.04429,3.81562 h -16.63114 c -2.22508,0 -4.04429,-1.71711 -4.04429,-3.81562 v -8.74844 c 0,-2.09851 1.81921,-3.81647 4.04429,-3.81647 h 16.63198 c 2.2234,-8.4e-4 4.04345,1.71712 4.04345,3.81647 z m -19.56584,9.69855 v -9.2159 h 2.06138 v -1.36525 l -5.49646,-0.008 v 1.34247 l 1.71543,0.005 v 9.24206 h 1.71965 l 0,0 z m 6.17993,-7.84305 h -1.71881 v 4.921 c 0,0.71216 0.043,1.06824 -0.003,1.19312 -0.14007,0.38224 -0.76785,0.78726 -1.01255,0.0413 -0.0422,-0.12994 -0.005,-0.52399 -0.006,-1.20071 l -0.008,-4.95475 h -1.70868 l 0.005,4.87627 c 0,0.74845 -0.0169,1.30535 0.007,1.55933 0.0413,0.44721 0.0262,0.96868 0.44131,1.26653 0.77291,0.55775 2.25545,-0.0835 2.62588,-0.87923 l -0.003,1.01593 1.38045,0.002 8.4e-4,-7.84052 0,0 z m 5.49899,5.63484 -0.003,-4.09576 c 0,-1.56102 -1.1695,-2.49594 -2.75498,-1.23278 l 0.007,-3.04525 -1.71712,0.003 -0.008,10.51112 1.41166,-0.0202 0.12826,-0.65394 c 1.80572,1.65468 2.93977,0.51978 2.93724,-1.46567 l 0,0 z m 5.37917,-0.54255 -1.28847,0.007 c 0,0.0515 -0.003,0.11053 -0.003,0.17466 v 0.71976 c 0,0.38476 -0.31811,0.69781 -0.70457,0.69781 h -0.25229 c -0.3873,0 -0.70457,-0.31305 -0.70457,-0.69781 v -0.0802 -0.79148 -1.02099 h 2.95074 v -1.11043 c 0,-0.81173 -0.0202,-1.62346 -0.0878,-2.08754 -0.21095,-1.4682 -2.27065,-1.70109 -3.31273,-0.94927 -0.32655,0.23373 -0.57631,0.54847 -0.7206,0.97036 -0.14682,0.4219 -0.21938,0.99905 -0.21938,1.73231 v 2.44193 c -8.5e-4,4.05949 4.93112,3.48655 4.34299,-0.006 l 0,0 z M 259.241,251.95655 c 0.0886,0.21517 0.22698,0.38983 0.41346,0.52146 0.18479,0.12995 0.42106,0.19492 0.70288,0.19492 0.24808,0 0.46831,-0.0667 0.659,-0.20504 0.1907,-0.1367 0.35102,-0.34258 0.48096,-0.61597 l -0.0321,0.67419 h 1.91625 v -8.14766 h -1.50785 v 6.34194 c 0,0.34343 -0.28267,0.62441 -0.62863,0.62441 -0.34342,0 -0.62694,-0.28098 -0.62694,-0.62441 v -6.34194 h -1.57451 v 5.49646 c 0,0.69951 0.0127,1.16697 0.0337,1.40323 0.0211,0.23457 0.0751,0.45987 0.16369,0.67841 z m -5.80613,-4.60204 c 0,-0.7822 0.065,-1.39226 0.19407,-1.83356 0.13079,-0.43877 0.36537,-0.79148 0.70457,-1.05727 0.33836,-0.26664 0.77207,-0.40165 1.2986,-0.40165 0.44299,0 0.82354,0.0878 1.1408,0.2582 0.31896,0.17129 0.5645,0.39405 0.73495,0.66829 0.17382,0.27507 0.29195,0.55859 0.35523,0.84801 0.0641,0.29448 0.0953,0.73663 0.0953,1.33487 v 2.0597 c 0,0.75604 -0.0304,1.3121 -0.0886,1.66565 -0.0582,0.35355 -0.18394,0.68262 -0.37717,0.98976 -0.19154,0.30461 -0.43877,0.53244 -0.73748,0.67841 -0.30207,0.14682 -0.64887,0.21855 -1.03955,0.21855 -0.43708,0 -0.80413,-0.0599 -1.1079,-0.18648 -0.30376,-0.12488 -0.53918,-0.31389 -0.70709,-0.56534 -0.16876,-0.25061 -0.28774,-0.55691 -0.35946,-0.91299 -0.0726,-0.35692 -0.10716,-0.89273 -0.10716,-1.60658 l 8.4e-4,-2.15757 0,0 z m 1.50026,3.23678 c 0,0.46156 0.34343,0.83789 0.7611,0.83789 0.41853,0 0.76026,-0.37633 0.76026,-0.83789 v -4.33793 c 0,-0.46071 -0.34173,-0.83704 -0.76026,-0.83704 -0.41767,0 -0.7611,0.37633 -0.7611,0.83704 v 4.33793 l 0,0 z m -5.30238,2.19049 h 1.8074 l 0.003,-6.24913 2.13564,-5.35386 h -1.977 l -1.13575,3.9768 -1.15093,-3.98776 h -1.95675 l 2.27233,5.36736 0.003,6.24574 h -0.002 z" /></svg>