<?xml version="1.0" encoding="utf-8"?>
<!-- Generator: Adobe Illustrator 14.0.0, SVG Export Plug-In  -->
<!DOCTYPE svg PUBLIC "-//W3C//DTD SVG 1.1//EN" "http://www.w3.org/Graphics/SVG/1.1/DTD/svg11.dtd" [
	<!ENTITY ns_flows "http://ns.adobe.com/Flows/1.0/">
]>
<svg version="1.1"
	 xmlns="http://www.w3.org/2000/svg" xmlns:xlink="http://www.w3.org/1999/xlink" xmlns:a="http://ns.adobe.com/AdobeSVGViewerExtensions/3.0/"
	 x="0px" y="0px" width="40px" height="40px" viewBox="0 0 40 40" enable-background="new 0 0 40 40" xml:space="preserve">
<defs>
</defs>
<path fill="#FFFFFF" d="M19.949,37.045c8.574,0,15.525-6.951,15.525-15.525S28.523,5.994,19.949,5.994
	c-8.576,0-15.525,6.951-15.525,15.525S11.373,37.045,19.949,37.045"/>
<path fill="#C22126" d="M20.379,17.637c-0.359-0.207-0.721-0.396-1.059-0.635c-0.324-0.227-0.605-0.455-0.932-0.677
	c-0.174-0.118-0.555-0.233-0.555-0.348v0.931c0,0.537-0.041,3.299-0.035,3.645c0.01,0.58-0.035,1.158-0.014,1.738
	c0.02,0.553,0.023,1.08,0.004,1.656c0,0,1.379-0.67,1.563-0.785c0.709-0.445,1.402-0.93,2.127-1.345
	c0.357-0.203,0.727-0.383,1.066-0.612c0.311-0.212,1.51-1.22,1.551-1.193c-0.555-0.34-1.092-0.693-1.668-0.992
	C21.689,18.637,21.098,18.051,20.379,17.637"/>
<path fill="#C22126" d="M30.986,24.339c-0.207,0.974-0.469,1.991-1.135,2.759c-0.725,0.834-1.971,0.614-2.967,0.687
	c-2.422,0.175-4.838,0.011-7.262,0.075c-0.996,0.025-1.979,0.002-2.971-0.047c-0.99-0.049-2.023,0.057-3.012-0.022
	c-0.6-0.049-1.205-0.052-1.801-0.125c-0.479-0.058-1.205-0.128-1.566-0.491c-0.178-0.176-0.234-0.449-0.387-0.654l-0.221-0.385
	c-0.949-2.023-0.93-4.253-0.934-6.464c-0.004-0.821,0.096-1.639,0.074-2.461c-0.014-0.53,0.227-1.034,0.26-1.567
	c0.033-0.535,0.135-1.052,0.395-1.518c0.504-0.902,0.758-1.328,1.695-1.712c0.471-0.192,1.344-0.246,1.846-0.236
	c0.6,0.011,1.199,0.009,1.797,0c1.215-0.014,2.428-0.05,3.643-0.046c1.057,0.003,2.127,0.008,3.18,0.074
	c1.055,0.064,2.115-0.036,3.172-0.01c0.873,0.022,1.746,0.021,2.615,0.086c0.652,0.047,1.412,0.127,1.977,0.488
	c0.34,0.217,0.717,0.508,0.871,0.863c0.443,1.035,0.814,2.082,0.875,3.217c0.066,1.159,0.08,2.321,0.111,3.482
	c0.006,0.2,0.012,0.4,0.018,0.602C31.299,22.07,31.221,23.225,30.986,24.339 M20,0C8.955,0,0,8.954,0,20s8.955,20,20,20
	c11.047,0,20-8.954,20-20S31.047,0,20,0"/>
</svg>
